<?xml version="1.0" encoding="utf-8"?>
<!-- Generator: Adobe Illustrator 22.0.1, SVG Export Plug-In . SVG Version: 6.00 Build 0)  -->
<svg version="1.1" id="Layer_1" xmlns="http://www.w3.org/2000/svg" xmlns:xlink="http://www.w3.org/1999/xlink" x="0px" y="0px"
	 viewBox="0 0 3000 300" style="enable-background:new 0 0 3000 300;" xml:space="preserve">
<style type="text/css">
	.st0{fill:#0167C4;}
	.st1{fill:#241B24;}
	.st2{fill:#015096;}
	.st3{opacity:0.24;fill:#231F20;}
	.st4{fill:#231F20;}
</style>
<g>
	<circle class="st0" cx="23" cy="265.338" r="19.739"/>
	<g>
		
			<ellipse transform="matrix(0.0515 -0.9987 0.9987 0.0515 -228.6351 263.4172)" class="st1" cx="24.354" cy="252.07" rx="5.488" ry="10.263"/>
		<g>
			<path class="st2" d="M14.105,251.541c0.156-3.027,4.871-5.244,10.532-4.952c3.041,0.157,5.736,1.006,7.555,2.228
				c-1.71-1.538-4.711-2.648-8.174-2.826c-5.501-0.284-10.085,1.891-10.237,4.857c-0.033,0.634,0.14,1.253,0.485,1.837
				C14.141,252.311,14.085,251.929,14.105,251.541z"/>
		</g>
	</g>
</g>
<g>
	<circle class="st0" cx="323.206" cy="245.333" r="19.739"/>
	<g>
		
			<ellipse transform="matrix(0.4908 -0.8713 0.8713 0.4908 -35.7255 406.9821)" class="st1" cx="330.327" cy="234.056" rx="5.488" ry="10.263"/>
		<g>
			<path class="st2" d="M321.386,229.019c1.488-2.641,6.697-2.526,11.635,0.256c2.653,1.495,4.688,3.455,5.772,5.359
				c-0.847-2.138-3.039-4.468-6.06-6.17c-4.799-2.704-9.872-2.798-11.329-0.21c-0.312,0.553-0.432,1.184-0.383,1.861
				C321.075,229.724,321.195,229.357,321.386,229.019z"/>
		</g>
	</g>
</g>
<g>
	<circle class="st0" cx="623.404" cy="225.333" r="19.739"/>
	<g>
		
			<ellipse transform="matrix(0.7564 -0.6542 0.6542 0.7564 12.4172 467.5892)" class="st1" cx="633.917" cy="217.125" rx="5.488" ry="10.263"/>
		<g>
			<path class="st2" d="M627.203,209.363c2.292-1.983,7.156-0.115,10.864,4.172c1.992,2.303,3.245,4.836,3.622,6.994
				c-0.074-2.299-1.35-5.232-3.618-7.855c-3.603-4.166-8.345-5.969-10.592-4.026c-0.48,0.415-0.807,0.968-0.99,1.622
				C626.672,209.922,626.909,209.617,627.203,209.363z"/>
		</g>
	</g>
</g>
<g>
	<circle class="st0" cx="923.608" cy="205.333" r="19.739"/>
	<g>
		
			<ellipse transform="matrix(0.8727 -0.4882 0.4882 0.8727 21.7215 482.146)" class="st1" cx="935.56" cy="199.414" rx="5.488" ry="10.263"/>
		<g>
			<path class="st2" d="M930.55,190.457c2.645-1.48,7.032,1.331,9.8,6.277c1.487,2.658,2.203,5.391,2.137,7.581
				c0.391-2.267-0.267-5.397-1.96-8.423c-2.689-4.807-6.971-7.529-9.562-6.079c-0.554,0.31-0.986,0.786-1.296,1.389
				C929.917,190.898,930.211,190.647,930.55,190.457z"/>
		</g>
	</g>
</g>
<g>
	<circle class="st0" cx="1223.812" cy="195.333" r="19.739"/>
	<g>
		
			<ellipse transform="matrix(0.9819 -0.1896 0.1896 0.9819 -14.2455 237.9852)" class="st1" cx="1237.018" cy="193.465" rx="5.488" ry="10.263"/>
		<g>
			<path class="st2" d="M1235.073,183.389c2.976-0.574,6.259,3.471,7.333,9.037c0.577,2.99,0.399,5.81-0.351,7.869
				c1.083-2.029,1.441-5.208,0.783-8.613c-1.044-5.409-4.254-9.337-7.17-8.774c-0.623,0.12-1.182,0.437-1.667,0.912
				C1234.334,183.609,1234.692,183.462,1235.073,183.389z"/>
		</g>
	</g>
</g>
<g>
	<circle class="st0" cx="1524.011" cy="195.333" r="19.739"/>
	<g>
		
			<ellipse transform="matrix(0.6047 -0.7964 0.7964 0.6047 444.0448 1302.5249)" class="st1" cx="1534.216" cy="203.922" rx="10.263" ry="5.488"/>
		<g>
			<path class="st2" d="M1540.422,195.748c2.414,1.833,1.592,6.978-1.835,11.492c-1.841,2.425-4.06,4.174-6.094,4.99
				c2.234-0.548,4.84-2.403,6.937-5.165c3.331-4.387,4.114-9.399,1.749-11.195c-0.506-0.384-1.114-0.589-1.791-0.633
				C1539.765,195.344,1540.113,195.513,1540.422,195.748z"/>
		</g>
	</g>
</g>
<g>
	<circle class="st0" cx="1824.215" cy="205.333" r="19.739"/>
	<g>
		
			<ellipse transform="matrix(0.4854 -0.8743 0.8743 0.4854 745.6953 1700.225)" class="st1" cx="1817.165" cy="216.655" rx="5.488" ry="10.263"/>
		<g>
			<path class="st2" d="M1826.137,221.636c-1.471,2.65-6.681,2.568-11.636-0.184c-2.662-1.478-4.709-3.426-5.806-5.323
				c0.86,2.133,3.067,4.45,6.098,6.133c4.816,2.674,9.889,2.736,11.33,0.14c0.308-0.555,0.425-1.187,0.372-1.863
				C1826.443,220.929,1826.326,221.297,1826.137,221.636z"/>
		</g>
	</g>
</g>
<g>
	<circle class="st0" cx="2124.415" cy="225.336" r="19.739"/>
	<g>
		
			<ellipse transform="matrix(0.9967 -0.0812 0.0812 0.9967 -11.3621 172.2572)" class="st1" cx="2111.084" cy="225.751" rx="5.488" ry="10.263"/>
		<g>
			<path class="st2" d="M2111.918,235.98c-3.021,0.246-5.843-4.134-6.303-9.783c-0.248-3.035,0.237-5.818,1.207-7.783
				c-1.298,1.899-2,5.02-1.719,8.476c0.448,5.49,3.21,9.745,6.17,9.504c0.633-0.052,1.223-0.305,1.756-0.724
				C2112.676,235.842,2112.305,235.948,2111.918,235.98z"/>
		</g>
	</g>
</g>
<g>
	<circle class="st0" cx="2424.62" cy="245.333" r="19.739"/>
	<g>
		
			<ellipse transform="matrix(0.9319 -0.3628 0.3628 0.9319 80.4981 893.991)" class="st1" cx="2420.41" cy="232.677" rx="10.263" ry="5.488"/>
		<g>
			<path class="st2" d="M2410.847,236.401c-1.1-2.824,2.291-6.781,7.573-8.837c2.838-1.105,5.644-1.436,7.804-1.068
				c-2.191-0.701-5.382-0.482-8.614,0.776c-5.133,1.998-8.421,5.862-7.344,8.629c0.23,0.592,0.642,1.085,1.196,1.476
				C2411.196,237.088,2410.988,236.763,2410.847,236.401z"/>
		</g>
	</g>
</g>
<g>
	<circle class="st0" cx="2724.819" cy="265.336" r="19.739"/>
	<g>
		
			<ellipse transform="matrix(0.5666 -0.824 0.824 0.5666 974.6542 2362.4001)" class="st1" cx="2732.918" cy="254.738" rx="5.488" ry="10.263"/>
		<g>
			<path class="st2" d="M2724.461,248.923c1.717-2.497,6.895-1.919,11.566,1.292c2.509,1.725,4.361,3.859,5.271,5.852
				c-0.653-2.205-2.628-4.722-5.485-6.686c-4.539-3.121-9.583-3.667-11.265-1.22c-0.36,0.523-0.536,1.141-0.548,1.819
				C2724.089,249.599,2724.241,249.243,2724.461,248.923z"/>
		</g>
	</g>
</g>
<ellipse class="st3" cx="23.5" cy="292.418" rx="12.664" ry="2.464"/>
<ellipse class="st3" cx="2424.833" cy="292.5" rx="12.664" ry="2.464"/>
<ellipse class="st3" cx="2124.667" cy="292.5" rx="12.664" ry="2.464"/>
<ellipse class="st3" cx="1824.5" cy="292.5" rx="12.664" ry="2.464"/>
<ellipse class="st3" cx="1524.333" cy="292.5" rx="12.664" ry="2.464"/>
<ellipse class="st3" cx="1224.167" cy="292.5" rx="12.664" ry="2.464"/>
<ellipse class="st3" cx="924" cy="292.5" rx="12.664" ry="2.464"/>
<ellipse class="st3" cx="623.833" cy="292.5" rx="12.664" ry="2.464"/>
<ellipse class="st3" cx="323.667" cy="292.5" rx="12.664" ry="2.464"/>
<ellipse class="st3" cx="2725" cy="292.5" rx="12.664" ry="2.464"/>
<g>
	<path class="st4" d="M27.344,232.236c-0.001,0-0.002,0-0.002,0c-0.544-0.096-1.062,0.268-1.158,0.813l-1.324,7.557
		c-0.095,0.543,0.267,1.06,0.81,1.157c0.001,0,0.002,0,0.002,0c0.544,0.096,1.062-0.268,1.158-0.813l1.324-7.557
		C28.249,232.85,27.887,232.332,27.344,232.236z"/>
	<path class="st4" d="M36.507,236.861c-0.391-0.388-1.024-0.389-1.414,0l-4.272,4.273c-0.39,0.391-0.39,1.024,0,1.415
		c0.15,0.15,0.337,0.242,0.531,0.277c0.311,0.055,0.643-0.037,0.884-0.277l4.272-4.273
		C36.897,237.884,36.897,237.251,36.507,236.861z"/>
	<path class="st4" d="M18.637,233.933c-0.232-0.5-0.826-0.717-1.328-0.488c-0.502,0.232-0.72,0.826-0.488,1.328l2.536,5.484
		c0.143,0.308,0.423,0.51,0.734,0.565c0.194,0.035,0.401,0.012,0.594-0.077c0.502-0.232,0.72-0.826,0.488-1.328L18.637,233.933z"/>
</g>
<g>
	<path class="st4" d="M651.855,207.411c0-0.001-0.001-0.002-0.001-0.002c-0.26-0.487-0.867-0.67-1.354-0.409l-6.763,3.622
		c-0.485,0.26-0.669,0.865-0.41,1.351c0,0.001,0.001,0.002,0.001,0.002c0.26,0.487,0.867,0.67,1.354,0.409l6.763-3.622
		C651.93,208.503,652.114,207.898,651.855,207.411z"/>
	<path class="st4" d="M653.872,217.475c0.064-0.547-0.326-1.045-0.873-1.113L647,215.638c-0.548-0.066-1.046,0.325-1.113,0.873
		c-0.025,0.211,0.017,0.415,0.11,0.589c0.148,0.279,0.426,0.483,0.763,0.524l5.999,0.724
		C653.308,218.414,653.806,218.024,653.872,217.475z"/>
	<path class="st4" d="M645.146,201.609c0.25-0.491,0.055-1.092-0.435-1.346c-0.492-0.251-1.094-0.056-1.346,0.435l-2.75,5.38
		c-0.154,0.303-0.14,0.647,0.008,0.926c0.093,0.174,0.238,0.323,0.427,0.42c0.492,0.251,1.094,0.056,1.346-0.435L645.146,201.609z"
		/>
</g>
<g>
	<path class="st4" d="M1256.038,190.464c0-0.001,0-0.002,0-0.002c-0.021-0.552-0.485-0.982-1.038-0.961l-7.666,0.292
		c-0.55,0.021-0.98,0.484-0.961,1.035c0,0.001,0,0.002,0,0.002c0.021,0.552,0.485,0.982,1.038,0.961l7.666-0.292
		C1255.627,191.478,1256.057,191.015,1256.038,190.464z"/>
	<path class="st4" d="M1253.441,200.393c0.297-0.464,0.165-1.083-0.297-1.383l-5.075-3.279c-0.464-0.3-1.083-0.167-1.383,0.297
		c-0.115,0.178-0.166,0.38-0.159,0.577c0.011,0.316,0.172,0.621,0.457,0.806l5.075,3.279
		C1252.522,200.99,1253.141,200.857,1253.441,200.393z"/>
	<path class="st4" d="M1252.55,182.308c0.44-0.332,0.528-0.958,0.198-1.401c-0.332-0.442-0.959-0.53-1.401-0.198l-4.829,3.631
		c-0.271,0.205-0.41,0.52-0.398,0.836c0.007,0.197,0.073,0.395,0.2,0.565c0.332,0.442,0.959,0.53,1.401,0.198L1252.55,182.308z"/>
</g>
<g>
	<path class="st4" d="M1810.136,235.133c0.001,0,0.002,0.001,0.002,0.001c0.48,0.273,1.091,0.105,1.364-0.375l3.793-6.669
		c0.272-0.479,0.106-1.088-0.373-1.362c-0.001,0-0.002-0.001-0.002-0.001c-0.48-0.273-1.091-0.105-1.364,0.375l-3.793,6.669
		C1809.491,234.25,1809.657,234.859,1810.136,235.133z"/>
	<path class="st4" d="M1803.067,227.692c0.238,0.497,0.833,0.711,1.332,0.476l5.462-2.583c0.499-0.236,0.713-0.832,0.476-1.332
		c-0.091-0.192-0.235-0.342-0.406-0.44c-0.274-0.157-0.618-0.181-0.925-0.037l-5.462,2.583
		C1803.044,226.596,1802.831,227.192,1803.067,227.692z"/>
	<path class="st4" d="M1818.905,236.469c0.051,0.549,0.536,0.953,1.085,0.907c0.55-0.05,0.956-0.535,0.907-1.085l-0.54-6.018
		c-0.031-0.338-0.226-0.622-0.5-0.779c-0.171-0.098-0.374-0.146-0.585-0.128c-0.55,0.05-0.956,0.535-0.907,1.085L1818.905,236.469z"
		/>
</g>
<g>
	<path class="st4" d="M2413.906,211.931c-0.001,0-0.002,0-0.002,0.001c-0.538,0.123-0.875,0.659-0.752,1.198l1.708,7.479
		c0.123,0.537,0.657,0.874,1.195,0.753c0.001,0,0.002,0,0.002-0.001c0.539-0.123,0.875-0.659,0.752-1.198l-1.708-7.479
		C2414.978,212.146,2414.444,211.809,2413.906,211.931z"/>
	<path class="st4" d="M2424.145,212.643c-0.511-0.206-1.094,0.039-1.304,0.548l-2.282,5.595c-0.208,0.512,0.037,1.095,0.549,1.304
		c0.197,0.08,0.404,0.093,0.597,0.05c0.308-0.07,0.578-0.284,0.707-0.598l2.282-5.595
		C2424.902,213.435,2424.656,212.852,2424.145,212.643z"/>
	<path class="st4" d="M2406.537,216.87c-0.408-0.37-1.039-0.341-1.413,0.065c-0.372,0.408-0.343,1.041,0.065,1.413l4.463,4.072
		c0.251,0.229,0.587,0.306,0.895,0.236c0.192-0.043,0.375-0.145,0.518-0.301c0.372-0.408,0.343-1.041-0.065-1.413L2406.537,216.87z"
		/>
</g>
</svg>
