<?xml version="1.0" encoding="utf-8"?>
<!-- Generator: Adobe Illustrator 22.0.1, SVG Export Plug-In . SVG Version: 6.00 Build 0)  -->
<svg version="1.1" id="Layer_1" xmlns="http://www.w3.org/2000/svg" xmlns:xlink="http://www.w3.org/1999/xlink" x="0px" y="0px"
	 viewBox="0 0 10 5" style="enable-background:new 0 0 10 5;" xml:space="preserve">
<style type="text/css">
	.st0{fill:#FFFFFF;}
</style>
<g>
	<path class="st0" d="M1.232,0.568C1.238,0.66,1.248,0.755,1.301,0.835c0.041,0.062,0.062,0.083,0.14,0.107
		c0.012,0.005,0.022,0.006,0.032,0.014c0.017-0.023,0.021-0.049,0.02-0.077c-0.004-0.053-0.017-0.102-0.02-0.155
		c-0.01-0.142,0.002-0.28,0.042-0.416C1.515,0.302,1.515,0.3,1.514,0.294C1.514,0.274,1.49,0.242,1.476,0.226
		C1.442,0.19,1.39,0.159,1.344,0.13C1.22,0.054,1.084,0.028,0.935,0.037c-0.09,0.005-0.174,0.046-0.246,0.092
		C0.289,0.387,0.07,0.891,0.1,1.326c0.005,0.069,0.017,0.142,0.034,0.21c0.076,0.29,0.311,0.556,0.672,0.535
		c0.164-0.01,0.318-0.083,0.433-0.187c0.087-0.08,0.189-0.201,0.18-0.32S1.276,1.359,1.155,1.332C1.142,1.33,1.13,1.329,1.118,1.329
		L1.112,1.338c0.028,0.044,0.066,0.089,0.07,0.142c0.011,0.148-0.299,0.395-0.455,0.404c-0.224,0.013-0.269-0.317-0.279-0.46
		c-0.028-0.381,0.135-0.785,0.42-1.067C0.943,0.282,1.056,0.2,1.175,0.193c0.031-0.002,0.062,0.005,0.087,0.017
		C1.208,0.309,1.224,0.459,1.232,0.568z M1.334,1.603C1.333,1.635,1.304,1.714,1.263,1.736L1.334,1.603z M1.275,1.614
		C1.272,1.617,1.272,1.623,1.273,1.625C1.27,1.623,1.269,1.617,1.269,1.614H1.275z M1.223,1.575c0,0.003,0,0.003-0.002,0.006
		L1.219,1.575H1.223z M1.217,1.589C1.219,1.62,1.195,1.627,1.19,1.641L1.19,1.636C1.197,1.621,1.206,1.603,1.217,1.589z
		 M0.365,0.791c0.002-0.011-0.002-0.02,0.001-0.031c0.01-0.037,0.098-0.21,0.131-0.226L0.365,0.791z M0.328,0.887L0.325,0.888
		c0-0.003-0.001-0.008,0.003-0.011c0.002,0,0.002,0,0.006,0.003L0.328,0.887z M0.344,0.848l-0.01-0.002l0.017-0.026L0.344,0.848z
		 M0.281,0.758c0.033-0.11,0.092-0.212,0.166-0.302l0.005-0.003C0.44,0.49,0.307,0.732,0.281,0.758z M0.495,0.825L0.495,0.822
		l0.004-0.001L0.495,0.825z M0.503,0.808c-0.003,0-0.003,0-0.003-0.003l0.004-0.001c0.002,0,0.002,0,0.002,0.003L0.503,0.808
		L0.503,0.808z M0.508,0.791h0.003l0.001,0.003L0.508,0.791z M0.656,0.458C0.522,0.662,0.452,0.791,0.381,1.022
		C0.376,1.039,0.371,1.056,0.363,1.073c0.032-0.239,0.126-0.46,0.303-0.643C0.664,0.438,0.662,0.45,0.656,0.458z"/>
	<path class="st0" d="M1.847,1.887C1.913,1.872,1.955,1.832,2,1.785c0.149-0.158,0.311-0.431,0.297-0.657
		c-0.008-0.12-0.16-0.258-0.28-0.251C1.894,0.885,1.8,1.053,1.737,1.144L1.686,1.125c-0.134,0.009-0.23,0.326-0.224,0.44
		l0.002,0.033c0.011,0.173,0.148,0.309,0.323,0.298C1.809,1.895,1.828,1.891,1.847,1.887z M1.995,1.567
		c-0.001-0.011,0.043-0.07,0.056-0.09C2.035,1.512,2.019,1.543,1.995,1.567z M2.096,1.488C2.081,1.52,2.058,1.549,2.04,1.582H2.038
		L2.037,1.579L2.096,1.488z M2.147,1.546H2.145l0.002-0.003V1.546z M1.997,1.707C2,1.695,2.007,1.687,2.013,1.678
		c0.064-0.093,0.125-0.187,0.172-0.29C2.193,1.473,2.049,1.639,1.997,1.707z M1.991,1.028l0.002-0.001L1.994,1.03
		c-0.06,0.068-0.106,0.145-0.157,0.22c0.008-0.073,0.092-0.174,0.148-0.219C1.989,1.031,1.988,1.028,1.991,1.028z M1.847,1.14
		C1.846,1.129,1.88,1.091,1.89,1.079C1.878,1.099,1.86,1.117,1.847,1.14z M1.926,0.976c-0.009,0.009-0.03,0.033-0.049,0.055
		C1.892,1.013,1.903,0.992,1.92,0.976H1.926z M1.843,1.074c-0.014,0.018-0.032,0.04-0.034,0.047L1.802,1.127
		C1.813,1.107,1.83,1.092,1.843,1.074z M1.629,1.406V1.401L1.635,1.4C1.632,1.403,1.632,1.406,1.629,1.406z M1.71,1.224L1.707,1.231
		C1.706,1.25,1.656,1.34,1.644,1.361C1.656,1.312,1.675,1.263,1.71,1.224z M1.656,1.656C1.65,1.545,1.681,1.436,1.717,1.33
		C1.761,1.381,1.801,1.44,1.88,1.434c0.011-0.001,0.022-0.01,0.026-0.019C1.883,1.401,1.865,1.38,1.863,1.352
		C1.858,1.263,2.034,1.019,2.128,1.014c0.005,0.011,0.009,0.023,0.01,0.035c0.002,0.02-0.003,0.037-0.005,0.056
		c-0.029,0.251-0.207,0.58-0.455,0.666C1.665,1.734,1.659,1.695,1.656,1.656z"/>
	<path class="st0" d="M2.445,0.953c0.011,0.002,0.014,0.013,0.021,0.021c0.014,0.014,0.014,0.03,0.015,0.05
		C2.49,1.185,2.458,1.352,2.44,1.512c-0.007,0.059-0.016,0.119-0.013,0.18c0.005,0.081,0.077,0.128,0.144,0.124
		C2.598,1.814,2.614,1.8,2.631,1.776c0.129-0.2,0.215-0.432,0.343-0.631c0.025-0.038,0.061-0.072,0.083-0.113l0.002-0.001
		C3.055,1.04,3.056,1.052,3.053,1.061C3.048,1.092,3.035,1.124,3.026,1.155C2.997,1.26,2.966,1.433,2.972,1.542
		C2.973,1.57,2.977,1.597,3.001,1.612l0.074,0.045c0.043-0.02,0.061,0.018,0.101-0.041c0.14-0.2,0.285-0.493,0.465-0.643
		C3.615,1.057,3.584,1.137,3.564,1.222c-0.037,0.149-0.078,0.372-0.07,0.525c0.001,0.014,0.002,0.029,0.005,0.042
		c0.012,0.066,0.094,0.114,0.148,0.11c0.023-0.002,0.067-0.005,0.065-0.041C3.71,1.833,3.685,1.837,3.684,1.81
		C3.683,1.801,3.683,1.798,3.685,1.79c0.017-0.088,0.032-0.176,0.05-0.261C3.76,1.41,3.901,0.924,3.898,0.854
		c-0.001-0.02-0.004-0.028-0.015-0.041c-0.021-0.027-0.1-0.066-0.132-0.063C3.733,0.752,3.719,0.758,3.707,0.77L3.568,0.904
		C3.453,1.015,3.356,1.148,3.257,1.275c-0.014,0.017-0.028,0.033-0.039,0.05L3.214,1.315c0.021-0.072,0.041-0.21,0.056-0.29
		c0.006-0.032,0.011-0.065,0.01-0.098c-0.002-0.023-0.005-0.05-0.019-0.066C3.242,0.837,3.183,0.816,3.156,0.818
		C3.124,0.821,3.1,0.839,3.079,0.863C2.897,1.052,2.769,1.302,2.645,1.54L2.641,1.53c0-0.003,0.052-0.326,0.047-0.401
		C2.681,1.015,2.648,0.958,2.561,0.9C2.537,0.885,2.497,0.874,2.47,0.876C2.456,0.878,2.412,0.891,2.413,0.914
		c0.001,0.014,0.024,0.023,0.034,0.031L2.445,0.953z M3.031,1.4L3.028,1.401l0.005-0.011l0.003-0.001L3.031,1.4z M3.035,1.356
		l0.002-0.001l0.001,0.003L3.035,1.356z M3.045,1.313c-0.002,0-0.002,0-0.003-0.003c0-0.003,0-0.003,0.003-0.003V1.313z M3.049,1.29
		H3.047l0.005-0.008L3.049,1.29z M3.057,1.256c-0.003,0-0.002,0.003-0.005,0.003c0-0.003,0.002-0.003,0.005-0.006V1.256z
		 M3.558,1.552L3.557,1.544H3.56l0.001,0.008H3.558z M3.566,1.524H3.561l0.005-0.037C3.567,1.499,3.565,1.513,3.566,1.524z
		 M3.598,1.62H3.597l0.002-0.003L3.598,1.62L3.598,1.62z M3.597,1.612L3.6,1.6L3.605,1.6L3.597,1.612z M3.604,1.58
		c0-0.003,0-0.003,0.002-0.005l0.001,0.008L3.604,1.58z M3.581,1.398c0.008-0.048,0.029-0.092,0.04-0.14
		C3.618,1.271,3.614,1.284,3.61,1.297C3.602,1.332,3.597,1.365,3.581,1.398z M3.693,1.576C3.691,1.574,3.691,1.572,3.691,1.568
		h0.002c0.001,0.003,0.001,0.005,0.004,0.008H3.693z M3.7,1.537L3.698,1.534l0.003-0.001L3.7,1.537L3.7,1.537z M3.716,1.455
		c0.002-0.003,0.002-0.005,0.002-0.008L3.72,1.449L3.716,1.455z M3.728,1.417c-0.003,0-0.002,0.003-0.005,0.003
		c0-0.003,0.002-0.003,0.005-0.006V1.417z M3.733,1.404H3.73V1.398h0.003V1.404z M3.737,1.386H3.734c0-0.003,0-0.003,0.003-0.003
		V1.386z M3.76,1.278L3.76,1.27l0.006,0.002L3.76,1.278z M3.773,1.241H3.771c0-0.003-0.001-0.005,0.002-0.008V1.241z M3.776,1.215
		c0-0.003,0-0.003,0.003-0.006l0.005,0.005L3.776,1.215z M3.796,1.155c0.002-0.003,0.002-0.006,0.002-0.008L3.8,1.146L3.796,1.155z
		 M3.802,1.125l0.002-0.003l0.001,0.003H3.802z M3.808,1.11L3.805,1.108l0.002-0.001V1.11z M3.813,1.095L3.81,1.096l0.003-0.003
		V1.095z M3.814,1.082l0.002-0.004l0.001,0.004H3.814z M3.823,1.065H3.82l0.003-0.003L3.823,1.065L3.823,1.065z M3.838,1.013
		c-0.003,0-0.003,0-0.003-0.003h0.003V1.013z M3.847,0.967L3.85,0.966C3.847,0.97,3.847,0.97,3.847,0.973V0.967z M3.841,0.853
		C3.839,0.867,3.84,0.881,3.835,0.896L3.754,1.194C3.718,1.32,3.686,1.449,3.664,1.576C3.652,1.641,3.645,1.709,3.63,1.771
		L3.624,1.769c0.003-0.123,0.033-0.251,0.059-0.371c0.039-0.187,0.098-0.365,0.152-0.546H3.841z M3.681,1.32h0.002l0.001,0.003
		L3.681,1.32z M3.685,1.306l0.002-0.001v0.003L3.685,1.306z M3.706,1.229V1.227h0.002L3.706,1.229z M3.709,1.215V1.212h0.002
		C3.712,1.215,3.712,1.215,3.709,1.215z M3.787,0.866l0.005,0.002C3.774,0.944,3.743,1.016,3.723,1.094
		C3.694,1.199,3.668,1.305,3.642,1.41C3.633,1.441,3.628,1.484,3.615,1.512C3.628,1.47,3.633,1.419,3.639,1.376
		C3.67,1.201,3.737,1.034,3.787,0.866z M3.722,0.906l0.005,0.003C3.718,0.948,3.703,0.986,3.688,1.024
		C3.702,0.986,3.708,0.944,3.722,0.906z M3.089,1.346V1.338h0.002l0.001,0.008L3.089,1.346z M3.093,1.318
		c0-0.003-0.001-0.005,0.002-0.009l0.001,0.008L3.093,1.318z M3.098,1.287l0.002-0.001l0.001,0.006
		C3.098,1.29,3.098,1.29,3.098,1.287z M3.108,1.236L3.11,1.263H3.104L3.108,1.236z M3.107,1.233c0.002-0.008,0.008-0.014,0.009-0.02
		l0.003,0.002C3.116,1.221,3.113,1.227,3.107,1.233z M3.207,1.189V1.186L3.21,1.185L3.207,1.189z M3.232,0.925
		C3.226,0.95,3.225,0.978,3.219,1.007C3.192,1.149,3.161,1.288,3.131,1.43C3.127,1.444,3.123,1.458,3.116,1.47l-0.01-0.003
		l0.117-0.546L3.232,0.925z M3.178,0.977L3.176,0.985L3.173,0.977H3.178z M3.135,0.957C3.131,1.022,3.102,1.091,3.086,1.151
		L3.079,1.16C3.089,1.089,3.113,1.022,3.135,0.957z M3.088,1.36L3.086,1.363V1.361L3.088,1.36z M3.082,1.386l0.005,0.002
		L3.076,1.411L3.082,1.386z M3.077,1.416l0.001,0.014L3.074,1.431C3.074,1.425,3.074,1.422,3.077,1.416z M3.069,1.465v0.003H3.067
		L3.069,1.465z M2.614,1.171L2.62,1.173C2.6,1.339,2.578,1.506,2.552,1.672l-0.01,0.001C2.568,1.506,2.59,1.337,2.614,1.171z"/>
	<path class="st0" d="M4.283,0.795c0.008-0.001,0.017-0.004,0.025-0.011C4.307,0.749,4.293,0.71,4.29,0.674
		C4.286,0.608,4.313,0.547,4.309,0.481C4.307,0.46,4.295,0.445,4.278,0.435L4.264,0.439L4.262,0.411L4.229,0.406l0.004-0.02
		L4.204,0.375C4.199,0.381,4.193,0.387,4.186,0.39L4.184,0.37L4.17,0.368l-0.009-0.01C4.108,0.361,4.086,0.508,4.089,0.55
		c0.005,0.078,0.071,0.2,0.141,0.235C4.249,0.78,4.264,0.797,4.283,0.795z"/>
	<path class="st0" d="M5.173,0.65C5.148,0.658,5.133,0.677,5.116,0.697C5.062,0.763,5.011,0.83,4.959,0.899
		C4.828,1.073,4.718,1.26,4.6,1.446L4.595,1.443c0.038-0.136,0.11-0.425,0.101-0.558C4.692,0.821,4.649,0.764,4.592,0.74
		C4.588,0.737,4.564,0.728,4.559,0.728c-0.009,0-0.019,0.001-0.023,0.013C4.54,0.752,4.545,0.764,4.546,0.775
		C4.55,0.837,4.534,0.907,4.519,0.965C4.518,0.968,4.517,0.973,4.517,0.976C4.509,0.99,4.5,1.004,4.491,1.016
		C4.451,1.078,4.403,1.137,4.366,1.2C4.302,1.308,4.243,1.421,4.171,1.523c0-0.003-0.003-0.008-0.003-0.008
		c0-0.003,0.002-0.004,0.002-0.006l0.048-0.21c0.025-0.102,0.055-0.2,0.049-0.305c-0.009-0.133-0.114-0.191-0.237-0.2
		c-0.008,0.003-0.025,0.01-0.024,0.021c0.001,0.014,0.01,0.027,0.011,0.041l0.001,0.011C4.016,0.983,3.995,1.095,3.972,1.209
		c-0.03,0.145-0.056,0.305-0.047,0.457C3.93,1.749,3.992,1.789,4.072,1.784c0.023-0.002,0.039-0.005,0.054-0.023
		c0.06-0.074,0.142-0.202,0.191-0.287c0.041-0.068,0.076-0.14,0.113-0.209c0.013-0.024,0.026-0.049,0.04-0.073
		c-0.022,0.114-0.04,0.233-0.035,0.304C4.44,1.567,4.513,1.624,4.579,1.62c0.017-0.001,0.023-0.005,0.036-0.017
		C4.671,1.547,4.776,1.342,4.819,1.26c0.068-0.127,0.145-0.259,0.24-0.368c0.007-0.008,0.014-0.011,0.02-0.015
		C5.058,0.946,5.032,1.011,5.016,1.082c-0.035,0.143-0.093,0.345-0.084,0.49C4.938,1.68,4.971,1.789,5.102,1.78
		C5.115,1.78,5.124,1.77,5.123,1.756C5.102,1.746,5.094,1.726,5.092,1.702C5.082,1.548,5.218,1.071,5.27,0.906
		c0.01-0.033,0.04-0.129,0.038-0.159C5.305,0.694,5.217,0.654,5.173,0.65z M4.499,1.056c-0.003,0.007-0.007,0.013-0.01,0.02
		c-0.012,0.026-0.03,0.05-0.048,0.073c0.017-0.045,0.042-0.085,0.065-0.126C4.504,1.034,4.502,1.044,4.499,1.056z M4.175,1.143
		C4.172,1.149,4.173,1.157,4.17,1.161L4.169,1.143H4.175z M4.066,1.667L4.06,1.668c0.008-0.101,0.038-0.201,0.059-0.3
		c0.016-0.065,0.02-0.133,0.05-0.194C4.134,1.338,4.097,1.503,4.066,1.667z M4.292,1.434L4.291,1.429
		C4.29,1.413,4.3,1.406,4.314,1.403L4.292,1.434z M4.399,1.28L4.388,1.289c0.011-0.017,0.023-0.035,0.031-0.055
		C4.414,1.251,4.406,1.265,4.399,1.28z M4.187,1.55C4.182,1.559,4.169,1.568,4.16,1.577c0.023-0.052,0.059-0.095,0.086-0.145
		c0.043-0.081,0.091-0.159,0.133-0.24c0.028-0.056,0.072-0.105,0.113-0.155C4.388,1.208,4.287,1.379,4.187,1.55z M4.463,1.186
		L4.455,1.195L4.454,1.184L4.441,1.191l0.03-0.05C4.466,1.155,4.462,1.17,4.454,1.184C4.457,1.187,4.46,1.187,4.463,1.186z
		 M4.486,1.112c0-0.002,0.002-0.004,0.002-0.005c0,0.002-0.001,0.003-0.001,0.005L4.486,1.112z M5.22,0.762L5.218,0.769L5.217,0.76
		L5.22,0.762z M5.176,0.76l0.001,0.012C5.155,0.819,5.133,0.866,5.115,0.914L5.109,0.919L5.11,0.938L5.103,0.935l0.005-0.017
		C5.129,0.864,5.148,0.811,5.176,0.76z M4.704,1.413L4.696,1.425c0.002-0.01,0.011-0.022,0.017-0.029
		C4.711,1.401,4.707,1.406,4.704,1.413z M4.724,1.352L4.726,1.35v0.002H4.724z M4.718,1.299C4.743,1.24,4.781,1.187,4.813,1.131
		c0.09-0.147,0.194-0.283,0.304-0.414l0.005,0.005l-0.006,0.01C5.007,0.884,4.883,1.023,4.789,1.184
		c-0.014,0.024-0.024,0.05-0.041,0.072C4.74,1.268,4.731,1.273,4.726,1.287L4.718,1.299z M4.782,1.26L4.773,1.261
		c0,0.002,0.001,0.007-0.002,0.009C4.77,1.269,4.769,1.266,4.769,1.264L4.768,1.257l0.005,0.002C4.776,1.259,4.781,1.259,4.782,1.26
		c0-0.002-0.006-0.014-0.006-0.014V1.242h0.005c0,0,0.004,0.002,0.007,0.002C4.786,1.246,4.785,1.247,4.782,1.247L4.782,1.26z
		 M4.761,1.287L4.749,1.288c0.002-0.002,0.005-0.007,0.004-0.01H4.76l0.002,0.002L4.761,1.287z M4.773,1.321V1.317l0.002,0.002
		L4.773,1.321z M4.799,1.23c-0.007,0-0.009,0.005-0.008,0.012C4.788,1.239,4.788,1.235,4.788,1.233L4.787,1.226l0.005,0.002
		C4.794,1.227,4.796,1.227,4.799,1.23c0-0.005,0-0.009-0.003-0.014V1.211h0.002c0,0,0.005,0.002,0.007,0.002L4.8,1.215
		C4.8,1.22,4.801,1.224,4.799,1.23z M4.809,1.231L4.804,1.236L4.81,1.222L4.809,1.231z M4.838,1.19
		C4.833,1.193,4.829,1.195,4.824,1.2l0.017-0.029c0,0.005-0.002,0.014-0.003,0.017L4.838,1.19L4.838,1.19z M4.841,1.194L4.84,1.19
		l0.002-0.002C4.842,1.19,4.842,1.192,4.841,1.194z M4.959,1.011C4.951,1.016,4.932,1.046,4.931,1.053L4.92,1.065H4.916L4.908,1.08
		l0.005,0.002C4.908,1.084,4.905,1.089,4.903,1.094L4.897,1.098C4.893,1.113,4.884,1.125,4.876,1.137H4.872L4.857,1.148
		C4.86,1.14,4.863,1.134,4.863,1.125C4.84,1.155,4.825,1.177,4.807,1.21L4.804,1.202V1.194c0.043-0.072,0.098-0.136,0.147-0.203
		c0.028-0.023,0.047-0.053,0.071-0.083l0.001,0.009L5.026,0.92C5.013,0.927,4.962,0.998,4.959,1.011z M5.069,0.863
		C5.058,0.872,5.054,0.881,5.045,0.89c-0.009,0.001-0.014,0.006-0.02,0.011l0.084-0.104L5.085,0.833
		C5.086,0.846,5.073,0.852,5.069,0.863z M5.102,0.95v0.005H5.1C5.1,0.952,5.102,0.952,5.102,0.95z M5.09,0.992L5.089,0.994
		L5.088,0.992H5.09z M5.048,1.555V1.548H5.05l0.001,0.007H5.048z M5.056,1.533L5.049,1.532l0.012-0.059
		C5.061,1.494,5.059,1.512,5.056,1.533z M5.265,0.755C5.23,0.881,5.184,1.004,5.148,1.131C5.118,1.237,5.103,1.349,5.07,1.455
		c-0.002,0.005-0.004,0.01-0.008,0.014c0.04-0.215,0.113-0.517,0.197-0.717L5.265,0.755z"/>
	<path class="st0" d="M6.069,1.113C6.062,1.086,6.044,1.065,6.017,1.056l-0.12-0.04C5.858,1.065,5.843,1.14,5.822,1.196
		c-0.032,0.09-0.081,0.17-0.149,0.236C5.656,1.446,5.642,1.461,5.62,1.466L5.607,1.469C5.605,1.461,5.602,1.456,5.599,1.447
		C5.552,1.229,5.665,0.862,5.909,0.809C5.947,0.8,6.035,0.839,6.072,0.854C6.073,0.842,6.076,0.83,6.073,0.818
		C6.071,0.81,6.063,0.803,6.057,0.797c-0.086-0.082-0.209-0.12-0.323-0.095C5.471,0.759,5.339,1.131,5.392,1.371
		C5.421,1.504,5.56,1.594,5.694,1.564c0.125-0.027,0.17-0.165,0.242-0.256c0.012,0.083,0.026,0.226-0.002,0.304
		C5.921,1.589,5.891,1.578,5.867,1.578L5.85,1.559c-0.092,0.074-0.159,0.16-0.221,0.259C5.509,2.01,5.332,2.475,5.38,2.699
		c0.023,0.101,0.156,0.14,0.247,0.12c0.117-0.026,0.216-0.145,0.275-0.24c0.152-0.248,0.203-0.525,0.226-0.81
		C6.145,1.551,6.116,1.329,6.069,1.113z M5.456,1.068C5.466,1.034,5.485,0.999,5.5,0.969C5.496,0.988,5.469,1.056,5.456,1.068z
		 M5.561,0.974L5.56,0.979L5.559,0.971L5.561,0.974z M5.545,0.902l0.003-0.001l-0.006,0.01L5.545,0.902z M5.533,1.248L5.527,1.247
		l0.006-0.011C5.531,1.239,5.533,1.245,5.533,1.248z M5.533,1.21c0-0.092,0.037-0.185,0.092-0.257
		c0.005-0.007,0.01-0.011,0.017-0.012C5.609,0.994,5.578,1.059,5.56,1.122C5.552,1.152,5.547,1.179,5.533,1.21z M5.84,1.398
		C5.838,1.401,5.832,1.402,5.83,1.402V1.4L5.84,1.398L5.839,1.392c-0.004-0.02,0.013-0.035,0.024-0.049L5.84,1.398z M5.896,1.092
		l0.007,0.002c-0.001,0.011-0.02,0.044-0.027,0.062L5.896,1.092z M5.89,1.259C5.889,1.256,5.892,1.255,5.892,1.252h0.002L5.89,1.259
		z M5.897,1.32H5.895l0.007-0.008L5.897,1.32z M5.911,1.211l0.002-0.004l0.003-0.001C5.914,1.21,5.914,1.21,5.911,1.211z
		 M6.077,1.683c-0.002,0.003,0,0.011-0.002,0.015L6.071,1.681L6.077,1.683z M6.075,1.701l0.003,0.014L6.07,1.716L6.075,1.701z
		 M5.985,1.734L5.984,1.738L5.983,1.735L5.985,1.734z M5.979,1.807L5.977,1.81L5.976,1.808L5.979,1.807z M5.435,2.454
		C5.438,2.468,5.432,2.48,5.426,2.495c0.002-0.03,0.05-0.232,0.062-0.245L5.435,2.454z M5.494,2.651l0.003-0.015L5.5,2.649
		L5.494,2.651z M5.496,2.63c0.008-0.056,0.008-0.112,0.02-0.167C5.544,2.352,5.582,2.24,5.615,2.13l0.014-0.017
		C5.621,2.145,5.611,2.177,5.601,2.207C5.572,2.297,5.542,2.386,5.526,2.479C5.517,2.528,5.521,2.583,5.496,2.63z M5.581,2.675
		L5.563,2.688L5.555,2.689C5.507,2.457,5.787,1.846,5.947,1.675C5.917,1.995,5.832,2.453,5.581,2.675z M5.93,2.075
		c0-0.009,0.002-0.017,0.006-0.025C5.933,2.055,5.934,2.06,5.935,2.063L5.93,2.075z M5.894,2.36c0-0.002-0.002-0.005,0.002-0.006
		l0.001,0.005L5.894,2.36z M6.048,2.111l0.003-0.003v0.002L6.048,2.111z M6.057,1.933C6.038,2.106,5.988,2.308,5.905,2.461
		c0.01-0.047,0.031-0.096,0.046-0.142c0.055-0.167,0.092-0.338,0.111-0.51C6.062,1.8,6.063,1.792,6.068,1.785
		C6.062,1.835,6.064,1.883,6.057,1.933z M6.069,1.776L6.066,1.74l0.008-0.002C6.074,1.752,6.071,1.764,6.069,1.776z"/>
	<path class="st0" d="M0.36,2.47L0.353,2.46c-0.045,0-0.071,0.122-0.071,0.158c0,0.066,0.05,0.172,0.106,0.204
		C0.405,2.82,0.417,2.834,0.433,2.834c0.007,0,0.014-0.002,0.021-0.007c0-0.031-0.01-0.064-0.01-0.094
		c0-0.056,0.026-0.106,0.026-0.162c0-0.017-0.01-0.031-0.023-0.04L0.435,2.533V2.51L0.407,2.505l0.005-0.017L0.388,2.477
		c-0.005,0.005-0.009,0.01-0.017,0.012V2.472L0.36,2.47z"/>
	<path class="st0" d="M1.242,2.576C1.217,2.583,1.2,2.601,1.181,2.62C1.122,2.684,1.066,2.749,1.009,2.815
		c-0.146,0.169-0.27,0.353-0.402,0.534L0.603,3.346C0.65,3.21,0.742,2.921,0.742,2.784c0-0.066-0.04-0.127-0.096-0.155
		C0.64,2.628,0.617,2.616,0.613,2.616c-0.01,0-0.019,0-0.023,0.012c0.002,0.011,0.007,0.023,0.007,0.035
		c0,0.064-0.021,0.134-0.04,0.193C0.532,2.937,0.492,3.075,0.465,3.201C0.411,3.281,0.36,3.364,0.299,3.44
		c0-0.002-0.002-0.007-0.002-0.007c0-0.002,0.002-0.002,0.002-0.005l0.052-0.174C0.376,3.17,0.407,3.091,0.407,3.001
		c0-0.113-0.085-0.167-0.188-0.181C0.212,2.822,0.198,2.827,0.198,2.836c0,0.012,0.007,0.023,0.007,0.035v0.01
		c-0.007,0.096-0.03,0.19-0.056,0.284c-0.033,0.12-0.064,0.254-0.064,0.38c0,0.071,0.05,0.108,0.118,0.108
		c0.019,0,0.033-0.002,0.047-0.017c0.053-0.059,0.129-0.162,0.176-0.23c0.004-0.005,0.007-0.011,0.011-0.017
		c0,0.071,0.071,0.134,0.139,0.134c0.017,0,0.023-0.002,0.038-0.014c0.061-0.054,0.181-0.256,0.23-0.336
		C0.92,3.05,1.007,2.921,1.111,2.815c0.007-0.007,0.014-0.009,0.021-0.014C1.106,2.869,1.075,2.935,1.054,3.006
		C1.009,3.149,0.937,3.351,0.937,3.499c0,0.11,0.026,0.224,0.16,0.224c0.014,0,0.023-0.01,0.023-0.023
		C1.099,3.687,1.092,3.666,1.092,3.642c0-0.158,0.169-0.635,0.233-0.799c0.012-0.033,0.05-0.129,0.05-0.16
		C1.373,2.63,1.286,2.583,1.242,2.576z M0.318,3.121h0.005C0.32,3.125,0.32,3.133,0.318,3.135V3.121z M0.203,3.556H0.198
		C0.21,3.471,0.24,3.389,0.264,3.307c0.017-0.054,0.023-0.11,0.052-0.16C0.278,3.283,0.238,3.419,0.203,3.556z M0.287,3.485
		c0.021-0.042,0.054-0.077,0.08-0.118c0.03-0.05,0.062-0.098,0.094-0.146C0.458,3.232,0.455,3.244,0.453,3.256
		C0.405,3.325,0.357,3.394,0.31,3.464C0.306,3.471,0.294,3.478,0.287,3.485z M0.405,3.372V3.367c0-0.014,0.01-0.019,0.021-0.021
		L0.405,3.372z M1.28,2.691l0.002,0.002L1.28,2.7V2.691z M1.238,2.7c-0.024,0.047-0.05,0.094-0.071,0.14L1.16,2.846v0.019
		L1.153,2.862L1.16,2.846c0.023-0.054,0.047-0.108,0.077-0.158L1.238,2.7L1.238,2.7z M0.715,3.322L0.706,3.334
		c0.002-0.009,0.012-0.021,0.019-0.028C0.723,3.311,0.718,3.316,0.715,3.322z M0.845,3.043C0.946,2.9,1.061,2.769,1.181,2.641
		l0.005,0.005l-0.008,0.01c-0.119,0.148-0.256,0.282-0.362,0.44C0.8,3.118,0.789,3.144,0.77,3.166
		c-0.01,0.011-0.02,0.017-0.024,0.03L0.737,3.208C0.765,3.149,0.808,3.097,0.845,3.043z M0.805,3.158v0.014H0.796
		c0,0.002,0,0.007-0.002,0.01C0.791,3.179,0.791,3.177,0.791,3.175V3.168L0.796,3.17c0.002,0,0.007,0,0.01,0.002
		c0-0.002-0.005-0.014-0.005-0.014V3.154h0.005c0,0,0.005,0.002,0.007,0.002C0.81,3.158,0.808,3.158,0.805,3.158z M0.781,3.199H0.77
		c0.002-0.002,0.005-0.007,0.005-0.01h0.007l0.002,0.002L0.781,3.199z M0.742,3.262H0.739l0.002-0.002V3.262z M0.791,3.233V3.229
		l0.002,0.002L0.791,3.233z M0.824,3.142c-0.007,0-0.01,0.005-0.01,0.012c-0.002-0.002-0.002-0.007-0.002-0.01V3.137l0.005,0.002
		C0.819,3.139,0.821,3.139,0.824,3.142c0-0.005,0-0.01-0.002-0.014V3.123h0.002c0,0,0.005,0.002,0.007,0.002L0.826,3.128
		C0.826,3.133,0.826,3.137,0.824,3.142z M0.833,3.144L0.829,3.149l0.007-0.014L0.833,3.144z M0.868,3.109V3.104l0.002-0.002
		C0.871,3.104,0.871,3.106,0.868,3.109z M0.866,3.102v0.002c-0.005,0.002-0.01,0.005-0.014,0.01l0.019-0.029
		C0.871,3.09,0.868,3.1,0.866,3.102z M1,2.93C0.993,2.935,0.972,2.963,0.97,2.97L0.958,2.982H0.953l-0.01,0.014l0.005,0.002
		C0.943,3,0.941,3.006,0.939,3.01L0.932,3.015C0.928,3.029,0.918,3.04,0.909,3.052H0.904l-0.017,0.01
		c0.005-0.008,0.007-0.014,0.01-0.023C0.871,3.069,0.854,3.09,0.833,3.123L0.831,3.114V3.106C0.88,3.036,0.94,2.974,0.994,2.908
		c0.03-0.021,0.051-0.051,0.077-0.079v0.01l0.005,0.002C1.061,2.848,1.005,2.916,1,2.93z M1.122,2.787
		C1.111,2.794,1.106,2.803,1.096,2.813c-0.01,0-0.014,0.005-0.021,0.01l0.092-0.101L1.141,2.757
		C1.141,2.771,1.127,2.775,1.122,2.787z M1.151,2.876V2.88H1.148C1.148,2.879,1.151,2.879,1.151,2.876z M1.136,2.919L1.134,2.921
		V2.919H1.136z M1.059,3.49H1.057V3.482h0.002V3.49z M1.066,3.469L1.059,3.466l0.017-0.059C1.072,3.428,1.07,3.447,1.066,3.469z
		 M1.186,3.064C1.148,3.17,1.124,3.283,1.084,3.388C1.082,3.393,1.08,3.398,1.075,3.403C1.13,3.187,1.223,2.883,1.322,2.686
		l0.007,0.002C1.284,2.815,1.23,2.937,1.186,3.064z"/>
	<path class="st0" d="M2.695,2.453c0-0.08-0.064-0.146-0.116-0.199C2.529,2.207,2.479,2.18,2.41,2.18
		c-0.025,0-0.053,0.003-0.077,0.005c-0.13,0.017-0.404,0.133-0.404,0.288c0,0.064,0.064,0.097,0.116,0.116
		c0.011-0.023,0.02-0.047,0.033-0.067c0.069-0.1,0.224-0.163,0.337-0.191C2.438,2.326,2.46,2.321,2.482,2.321
		c0.011,0,0.025,0.003,0.036,0.005C2.521,2.34,2.524,2.351,2.524,2.365c0,0.218-0.411,0.674-0.564,0.84
		C1.893,3.279,1.822,3.348,1.75,3.417C1.742,3.425,1.725,3.439,1.725,3.453c0,0.014,0.017,0.033,0.022,0.044l0.02-0.008L1.758,3.511
		l0.028,0.025l0.017-0.005L1.8,3.55h0.02v0.017l0.028-0.008l0.008,0.014c0.017,0.003,0.031,0.005,0.047,0.005
		c0.008,0,0.02-0.003,0.028-0.005c0.091-0.03,0.179-0.061,0.273-0.077C2.292,3.478,2.38,3.466,2.468,3.466
		c0.031,0,0.058,0.003,0.089,0.003c0.033,0,0.069-0.003,0.1-0.022L2.614,3.415C2.532,3.34,2.413,3.326,2.305,3.326
		c-0.056,0-0.113,0.008-0.169,0.008C2.239,3.226,2.332,3.113,2.426,3C2.543,2.862,2.695,2.638,2.695,2.453z M2.067,2.393H2.07
		L2.062,2.398L2.067,2.393z M2.037,2.365H2.04L2.026,2.376L2.037,2.365z M2.037,2.5c0-0.041,0.058-0.083,0.091-0.1
		C2.098,2.434,2.062,2.464,2.037,2.5z M2.422,2.724h0.003L2.419,2.73C2.422,2.727,2.422,2.727,2.422,2.724z M2.424,2.81
		C2.413,2.841,2.305,2.97,2.278,2.997l0.077-0.097C2.38,2.871,2.399,2.837,2.424,2.81z M2.394,2.76v0.003
		c0,0.033-0.279,0.356-0.32,0.398C2.181,3.027,2.292,2.898,2.394,2.76z M2.018,3.226L2.015,3.221c0-0.008,0.011-0.017,0.017-0.022
		L2.018,3.226z M2.034,3.348C2.212,3.133,2.41,2.934,2.554,2.694C2.526,2.766,2.485,2.829,2.437,2.889
		C2.369,2.975,2.103,3.301,2.034,3.348z M2.264,3.144l0.003-0.003H2.27C2.266,3.144,2.266,3.144,2.264,3.144z"/>
	<path class="st0" d="M3.655,2.531c0-0.072-0.014-0.135-0.056-0.194C3.522,2.23,3.387,2.153,3.255,2.153
		c-0.102,0-0.246,0.094-0.273,0.194L3.026,2.33C3.011,2.354,3.003,2.378,2.992,2.403C2.97,2.459,2.939,2.511,2.918,2.567
		C2.816,2.818,2.749,3.108,2.749,3.379c0,0.072,0.003,0.163,0.061,0.215c0.047,0.044,0.11,0.077,0.177,0.077
		c0.056,0,0.127-0.025,0.168-0.061C3.31,3.475,3.514,3.122,3.578,2.925C3.616,2.802,3.655,2.661,3.655,2.531z M3.498,2.766h0.003
		v0.005H3.498V2.766z M3.495,2.79L3.492,2.799L3.489,2.79H3.495z M3.453,2.749C3.45,2.751,3.45,2.751,3.45,2.754
		c0-0.003-0.003-0.003-0.003-0.005H3.453z M3.069,2.478v0.005c0-0.003-0.003-0.003-0.003-0.005H3.069z M3.028,2.569v0.003H3.025
		L3.028,2.569z M2.942,2.655L2.937,2.664L2.934,2.661L2.942,2.655z M2.921,2.715v0.003H2.918L2.921,2.715z M2.873,2.892H2.87V2.881
		h0.003C2.873,2.881,2.873,2.892,2.873,2.892z M2.898,3.348c0-0.182,0.158-0.867,0.279-0.983C3.02,2.685,2.934,3.036,2.901,3.392
		C2.898,3.379,2.898,3.362,2.898,3.348z M2.984,3.517L2.973,3.514c0-0.028-0.003-0.053-0.003-0.08c0-0.1,0.017-0.199,0.033-0.299
		c0.044-0.262,0.125-0.513,0.23-0.756l0.003-0.003c0.011-0.053,0.05-0.077,0.1-0.091c0.01-0.002,0.016-0.008,0.027-0.008
		c0.072,0,0.08,0.1,0.08,0.155C3.442,2.812,3.224,3.229,2.984,3.517z M3.343,3.047c0-0.005,0-0.008,0.003-0.014l0.005,0.003
		L3.343,3.047z M3.45,2.763C3.429,2.851,3.396,2.937,3.36,3.019L3.354,3.017C3.387,2.967,3.409,2.826,3.45,2.763z M3.36,3.238H3.357
		l0.005-0.008C3.36,3.232,3.36,3.235,3.36,3.238z M3.393,3.169c0.017-0.036,0.036-0.072,0.05-0.11
		c0.05-0.11,0.089-0.227,0.116-0.342c0.005-0.026,0.011-0.047,0.02-0.072C3.553,2.837,3.483,3.022,3.384,3.191L3.393,3.169z
		 M3.531,2.961H3.528V2.958h0.003V2.961z M3.547,2.912H3.545l0.003-0.003L3.547,2.912L3.547,2.912z"/>
	<path class="st0" d="M3.794,3.367c-0.008-0.08,0.32-0.914,0.365-1.042c0.003-0.008,0.005-0.02,0.005-0.028
		c0-0.03-0.022-0.039-0.036-0.061c-0.036-0.056-0.044-0.053-0.1-0.083c-0.025,0-0.069,0.033-0.091,0.044
		C3.89,2.224,3.742,2.271,3.714,2.304c0.031,0.044,0.069,0.094,0.13,0.094c0.02,0,0.039-0.005,0.058-0.014
		C3.89,2.437,3.86,2.489,3.844,2.539C3.778,2.73,3.712,2.923,3.654,3.116c-0.033,0.105-0.053,0.21-0.061,0.32
		c-0.058,0.03-0.149,0.056-0.177,0.119l0.033,0.011l-0.002,0.02C3.46,3.591,3.465,3.594,3.48,3.594l0.003,0.014H3.48l0.011,0.017
		l0.02-0.005c0.008,0.011,0.022,0.02,0.035,0.02c0.031,0,0.116-0.05,0.146-0.066c0.089-0.044,0.182-0.078,0.282-0.089
		c0.041-0.005,0.086-0.005,0.125-0.02c-0.072-0.072-0.102-0.102-0.21-0.102C3.858,3.362,3.825,3.365,3.794,3.367z M4.027,2.486
		L4.03,2.489L4.027,2.495V2.486z M4.018,2.503v0.003c-0.003,0-0.003,0-0.003-0.003H4.018z M3.988,2.594v0.003L3.985,2.594H3.988z
		 M3.976,2.611c0.003,0,0.005,0,0.008,0.003C3.976,2.625,3.971,2.638,3.966,2.652L3.976,2.611z M3.922,2.757
		C3.925,2.754,3.93,2.752,3.933,2.752L3.919,2.784C3.916,2.787,3.913,2.79,3.907,2.79C3.913,2.779,3.919,2.768,3.922,2.757z
		 M3.907,2.802L3.91,2.807c0,0.008-0.003,0.017-0.008,0.022C3.905,2.82,3.907,2.81,3.907,2.802z M3.858,2.937
		c0,0.005,0.003,0.014,0.003,0.02H3.853C3.853,2.95,3.855,2.942,3.858,2.937z M3.844,2.984v0.005H3.841
		C3.841,2.986,3.841,2.986,3.844,2.984z M3.836,3.011l0.003,0.003L3.836,3.019V3.011z M3.822,3.047h0.003
		c0,0.003,0,0.008-0.003,0.011V3.047z M3.8,3.116h0.003c0,0.003-0.003,0.003-0.003,0.005V3.116z M3.463,3.556V3.553h0.002
		L3.463,3.556z M3.772,3.216H3.769l0.003-0.003V3.216z"/>
	<path class="st0" d="M5.078,2.378c0-0.047-0.005-0.097-0.036-0.135C4.992,2.18,4.913,2.105,4.827,2.105
		c-0.02,0-0.036,0.003-0.053,0.008c-0.173,0.05-0.317,0.177-0.38,0.348c-0.014,0.036-0.023,0.072-0.023,0.11
		c0,0.097,0.036,0.116,0.072,0.196H4.432C4.412,2.76,4.394,2.754,4.374,2.754c-0.11,0-0.202,0.174-0.232,0.265
		c-0.014,0.039-0.02,0.077-0.02,0.119c0,0.11,0.041,0.215,0.13,0.281c0.083,0.064,0.182,0.119,0.29,0.119
		c0.174,0,0.317-0.086,0.395-0.243C4.953,3.262,4.965,3.226,4.965,3.19c0-0.138-0.138-0.232-0.229-0.317L4.733,2.862
		c0.053-0.02,0.094-0.025,0.138-0.064C4.992,2.694,5.078,2.542,5.078,2.378z M4.89,3.188c0,0.008,0.003,0.017,0.003,0.025
		c0,0.028-0.008,0.058-0.033,0.069C4.869,3.249,4.877,3.218,4.89,3.188z M4.827,3.224l0.005,0.003L4.824,3.232L4.827,3.224z
		 M4.777,3.213c0,0.005,0,0.014-0.003,0.02L4.769,3.229C4.772,3.226,4.772,3.218,4.777,3.213z M4.974,2.633L4.971,2.63h0.003V2.633z
		 M4.689,2.337h0.003C4.689,2.34,4.686,2.34,4.683,2.34L4.689,2.337z M4.584,2.357L4.587,2.36L4.581,2.365L4.584,2.357z M4.658,2.36
		c-0.025,0.047-0.08,0.13-0.113,0.168C4.562,2.456,4.598,2.401,4.658,2.36z M4.55,2.307l0.006,0.005
		c-0.025,0.033-0.05,0.066-0.077,0.1C4.501,2.376,4.523,2.34,4.55,2.307z M4.217,2.978c0.005-0.02,0.041-0.102,0.064-0.102
		C4.264,2.912,4.241,2.945,4.217,2.978z M4.305,3.088H4.299L4.304,3.08L4.305,3.088L4.305,3.088z M4.305,3.075
		c0-0.074,0.05-0.138,0.094-0.194c0,0.005,0,0.011-0.003,0.017C4.368,2.956,4.333,3.006,4.31,3.069L4.305,3.075z M4.545,3.384
		C4.517,3.395,4.487,3.4,4.457,3.409C4.402,3.331,4.366,3.307,4.366,3.205c0-0.116,0.05-0.284,0.158-0.342
		C4.598,2.953,4.731,3.02,4.731,3.155C4.731,3.249,4.628,3.351,4.545,3.384z M4.645,2.751c-0.026-0.038-0.044-0.08-0.044-0.127
		c0-0.141,0.169-0.287,0.281-0.351L4.89,2.276v0.011C4.89,2.473,4.764,2.622,4.645,2.751z M4.849,2.572
		C4.838,2.6,4.821,2.622,4.805,2.646C4.805,2.628,4.838,2.589,4.849,2.572z M4.841,2.672V2.669h0.003L4.841,2.672z M4.849,2.727
		c0.014-0.03,0.044-0.058,0.064-0.086c0.028-0.039,0.044-0.083,0.074-0.122C4.976,2.611,4.902,2.677,4.846,2.743
		C4.846,2.738,4.846,2.733,4.849,2.727z"/>
</g>
</svg>
