<?xml version="1.0" encoding="utf-8"?>
<!-- Generator: Adobe Illustrator 22.1.0, SVG Export Plug-In . SVG Version: 6.00 Build 0)  -->
<svg version="1.1" id="Layer_1" xmlns="http://www.w3.org/2000/svg" xmlns:xlink="http://www.w3.org/1999/xlink" x="0px" y="0px"
	 viewBox="0 0 3000 300" style="enable-background:new 0 0 3000 300;" xml:space="preserve">
<style type="text/css">
	.st0{fill:#51C4DC;}
	.st1{fill:#FFFFFF;}
	.st2{fill:#2DA6D4;}
	.st3{fill:#636871;}
	.st4{fill:#D19165;}
	.st5{fill:#2374BA;}
	.st6{fill:#E9E9EA;}
</style>
<g>
	<path class="st0" d="M2523.51,128.9c0,0,3.211-5.835,20.237-7.835c16.193-1.903,19.527,3.691,32.383,5.835
		c19.163,3.196,21.26,3.827,33.896,4.712c9.279,0.65,12.127,0.783,24.355-0.267c1.368-0.117-10.655,10.172-16.606,13.676
		c-18.663,10.988-16.596,14.154-28.63,20.326c-20.651,10.589-23,9.644-39.629-9.405c-8.531-9.772-10.315-6.933-17.524-14.834
		C2528.396,134.243,2521.701,130.169,2523.51,128.9z"/>
	<g>
		<path class="st1" d="M2536.897,150.608c0.314-1.039,0.758-2.057,1.312-3.039c0.871-1.544,2.014-2.994,3.365-4.281
			c0.535-0.069,1.035-0.202,1.47-0.435c0.427-0.229,0.852-0.439,1.277-0.633c-1.547,1.438-2.876,3.309-3.819,5.363
			c-0.488,1.062-0.867,2.174-1.124,3.299c-0.223,0.98-0.354,1.971-0.367,2.951c-0.042,3.124,0.885,6.911,3.893,8.49
			c-1.219-0.163-2.437-0.448-3.63-0.806c-0.538-0.475-1.012-1.06-1.407-1.773C2536.158,156.833,2535.98,153.638,2536.897,150.608z"
			/>
		<path class="st2" d="M2510.826,135.079c3.088-5.215,6.004-9.74,6.932-10.818c0.192,0.045,0.187-0.234,0.238-0.13
			c0.167-0.339,0.265-0.209,0.45-0.504c-0.053,0.188-0.104,0.376-0.15,0.563c-1.393,4.576-1.224,11.97-6.701,13.163
			c-0.665,0.124-1.11-0.631-1.119-1.344c0.001-0.001,0.003-0.002,0.005-0.003c-0.002,0.001-0.003,0.002-0.005,0.003
			C2510.472,135.649,2510.577,135.299,2510.826,135.079z"/>
		<g>
			<path class="st3" d="M2596.252,146.707l-12.728,3.128c3.749-1.47,7.54-2.772,11.388-3.849c-0.402-0.098-0.79-0.225-0.984-0.482
				c-1.641-3.765-1.192-7.775,0.727-11.146c-0.11-0.017-0.22-0.038-0.33-0.053c-2.344-0.331-4.648-0.303-6.866,0.838
				c-1.208,0.622-2.42,1.493-3.234,2.555c-0.949,1.237-2.004,1.71-3.457,1.646c-5.83-0.26-11.526,0.416-16.955,2.649
				c-2.163,0.891-4.312,0.878-6.363,0.013c-1.573-0.663-3.113-1.077-4.634-1.254c-2.923,0.797-4.998,2.986-5.982,5.926
				c-1.947,6.234,1.768,12.276,8.347,13.296c-0.605,0.458,0.249,1.335-0.085,1.397c-1.766,0.479-3.697,1.018-5.623,1.404
				c5.326,0.174,10.652-0.102,15.937-0.88c2.563-0.376,5.182-1.269,7.463-2.503c7.41-4.007,15.128-6.808,23.328-8.351
				C2595.689,149.705,2596.534,147.912,2596.252,146.707z"/>
			<path class="st3" d="M2548.392,124.457c0.304-1.782,1.268-3.351,2.625-4.259c-2.065-0.207-4.181-0.083-6.34,0.33
				c-1.991,0.381-3.703,0.272-5.538-0.828c-2.56-1.534-5.481-1.008-8.29-0.657c-2.037,0.255-4.059,0.644-6.098,0.873
				c-2.645,0.296-4.778,1.278-6.305,3.711c-0.053,0.188-0.104,0.376-0.15,0.563c-1.393,4.576-1.224,11.97-6.701,13.163
				c-0.665,0.124-1.11-0.631-1.119-1.344c-0.431,0.241-0.812,0.76-1.44,0.675c0.143,0.118,0.286,0.241,0.431,0.374
				c0.198,0.136,0.718,1.075-0.085,1.397c-2.336,0.435-4.995,0.067-6.296-2.281c-0.158-0.236-0.18-0.465-0.108-0.672
				c-3.854-1.211-9.55-1.195-12.226-2.769c-2.748-1.614-7.343-2.152-10.51-1.76c-0.002,0-0.004,0.001-0.006,0.001
				c1.428,1.827,2.206,3.943,1.079,6.221c-0.389,0.834-0.935,1.56-1.703,2.06c0.007,0.004,0.014,0.008,0.021,0.012
				c2.608,1.475,5.689,3.414,8.695,3.279c1.292-0.058,7.168,2.016,8.469,2.364c2.159,0.577,4.859,0.035,7.05,0.43
				c1.246,0.225,1.994,0.676,2.56,1.777c1.031,2.007,2.216,3.896,4.623,4.562c0.487,0.134,0.951,0.493,1.332,0.849
				c3.51,3.279,7.882,4.285,12.456,4.75c4.385,0.446,8.41,2.086,12.497,3.584c0.643,0.236,1.299,0.455,1.962,0.654
				c-0.538-0.475-1.012-1.06-1.407-1.773c-1.71-2.91-1.887-6.106-0.971-9.136c0.314-1.039,0.759-2.057,1.312-3.039
				c0.871-1.544,2.014-2.994,3.365-4.281c-1.318,0.169-2.853-0.067-4.176-0.265c-0.719-0.107-1.587-1.387-1.807-2.276
				c-0.687-2.776-1.135-5.614-1.571-8.445c-0.066-0.43,0.299-1.169,0.68-1.388c3.409-1.948,6.926-3.125,10.872-1.479
				c1.284,0.535,2.584,0.837,3.894,0.988C2548.227,128.703,2547.982,126.28,2548.392,124.457z"/>
		</g>
		<path class="st2" d="M2503.087,136.175c-0.158-0.236-0.18-0.465-0.108-0.672c2.264-0.458,2.919-1.073,3.615-0.596
			c0.822,0.633,1.61,1.089,2.442,1.777c-0.052-0.007-0.106-0.017-0.163-0.033c0.056,0.016,0.11,0.026,0.163,0.033
			c0.143,0.118,0.286,0.241,0.431,0.374c0.198,0.136,0.718,1.075-0.085,1.397C2507.046,138.891,2504.388,138.523,2503.087,136.175z"
			/>
		<g>
			<g>
				<path d="M2513.986,124.967c1.203-1.376,1.778-7.188-1.572-5.701c-0.803,0.322-0.539,1.976-0.822,3.238
					c-0.532-0.074-1.533,0.113-1.397-0.085c0.566-2.523-0.246-4.194-2.392-5.426c-2.659-0.368-4.637-1.295-7.428,2.765
					c0,0-0.26,0.048-0.519-0.029c-0.197-0.71-0.777-1.398-2.28-2.616c0.922-0.319,1.48-0.505,2.579-0.811
					c0.27-0.075-3.898-1.8-3.623-1.872c0.421-0.111,5.227-0.885,7.552-0.824c3.54,0.093,5.227-0.065,7.382,0.115
					c4.794,0.398,4.766,3.492,4.415,8.482c-0.059,0.836,0.296,3.005,0.701,3.772c-0.071,0.14-0.139,0.274-0.206,0.404
					C2515.555,125.858,2513.92,125.44,2513.986,124.967z"/>
				<path class="st4" d="M2498.954,125.209l1.343-3.013l-0.357-1.47c0.016-0.368,0.003-0.685-0.084-0.997
					c0.259,0.078,0.519,0.029,0.519,0.029c2.756-4.085,4.906-3.331,7.564-2.963c2.25,0.777,2.822,3.101,2.256,5.624
					c-0.136,0.198,0.865,0.011,1.397,0.085c0.283-1.261-0.365-2.085,0.578-3.389c3.349-1.487,3.552,3.31,2.256,5.624
					c-0.066,0.473,1.129,1.12,1.951,1.639c-0.283,0.551-0.536,1.023-0.775,1.449l0.076,0.032l-4.626,7.887
					c0,0-1.199,1.305-1.846,1.096c-0.392-0.126-1.055-0.71-1.517-1.151c-0.363-0.25-0.726-0.499-1.095-0.783
					c0.1-0.021,0.199-0.043,0.299-0.065c0.046-0.634-0.995-1.614-1.459-1.547c-4.329,0.631-5.59-0.574-5.053-4.871l-0.111-1.058
					c-0.01,0.041-0.019,0.082-0.029,0.122c0,0.002-0.004,0.001-0.004-0.001c0.007-0.066,0.017-0.126,0.026-0.187l-0.139-1.33
					L2498.954,125.209z"/>
			</g>
			<g>
				<path class="st5" d="M2549.467,130.424c-1.24-1.721-1.485-4.144-1.076-5.967c0.304-1.782,1.268-3.351,2.625-4.259
					c2.745,0.276,5.398,1.14,7.939,2.708c1.287,0.794,2.694,1.453,4.122,1.953c0.421,0.147,0.844,0.29,1.267,0.43
					c1.294,0.5,2.579,1,3.842,1.614c1.127,0.547,3.951,1.093,4.191,2.545c0.098,0.595,0.061,2.432,0.445,3.603
					c-1.078,1.586-2.906,2.693-4.92,1.716c-1.87,1.97-3.809,1.133-4.956-1.141c-0.239-0.474-0.517-0.925-0.765-1.393
					c-1.344-2.528-1.34-2.5-4.227-2.179C2555.121,130.368,2552.271,130.746,2549.467,130.424z"/>
				<path class="st5" d="M2544.322,142.22c2.83-1.291,5.628-1.801,8.492-1.468c-2.923,0.797-4.998,2.986-5.982,5.926
					c-1.948,6.234,1.768,12.276,8.347,13.296c-0.605,0.458,0.249,1.335-0.085,1.397c-1.766,0.479-3.697,1.018-5.623,1.404
					c-1.96-0.064-3.92-0.187-5.878-0.372c-0.229-0.022-0.458-0.049-0.688-0.08c-3.008-1.579-3.934-5.366-3.893-8.49
					C2539.069,149.555,2541.277,145.049,2544.322,142.22z"/>
				<path class="st5" d="M2596.425,134.676c4.667,0.943,9.368,1.731,14.071,2.486c1.557,0.25,3.021-0.217,3.6-1.876
					c1.097-3.141,5.769-2.992,7.486-1.223c1.023,1.055,2.091,2.09,3.257,2.978c0.813,0.62,1.811,1.018,2.759,1.438
					c1.473,0.654,3.131,1.017,4.429,1.911c2.028,1.397,3.822,3.136,5.714,4.729c-0.085,0.176-0.17,0.351-0.257,0.526
					c-2.53,0.199-5.059,0.399-7.862,0.619c1.094,1.321,1.977,2.388,2.859,3.454c-0.09,0.178-0.179,0.357-0.269,0.536
					c-1.199,0.138-2.404,0.43-3.594,0.383c-3.352-0.132-6.755-0.09-10.033-0.691c-5.788-1.061-11.4-0.405-17.171,0.29
					c-1.761,0.212-3.498,0.484-5.215,0.807c-0.51-1.336,0.334-3.129,0.053-4.334l11.384-2.798c-0.027-0.178-0.055-0.358-0.083-0.536
					c-4.294,0.555-8.5,1.454-12.641,2.613c-0.402-0.098-0.79-0.225-0.984-0.482c-1.641-3.765-1.192-7.775,0.727-11.146
					C2595.242,134.449,2595.833,134.556,2596.425,134.676z"/>
				<path class="st5" d="M2463.608,128.352c1.678-0.649,3.429-1.199,5.167-1.456c2.457-0.364,3.103,0.262,4.504,3.568
					c3.703,0.172,5.816,0.414,9.422,0.39c1.128,2.233,1.474,4.705-0.31,7.108c-0.627,0.883-1.092,1.462-2.055,1.923
					c-2.198-1.744-4.936-2.881-7.879-2.62c0,0-2.711,0.872-3.026,0.996c-1.422,0.557-3.487,0.807-4.223-0.703
					c-1.119-2.298-1.769-4.874-2.446-7.393C2462.632,129.683,2463.174,128.521,2463.608,128.352z"/>
			</g>
		</g>
	</g>
</g>
<g>
	<path class="st0" d="M2212.226,136.685c0,0,1.908-5.976,18.045-13.547c16.482-7.732,20.03-1.184,34.324-0.572
		c19.645,0.841,40.491,3.272,45.794,4.095c9.557,1.482,22.166,0.229,22.618,1.583s-9.708,3.528-12.127,10.173
		c-4.621,12.691-6.259,22.069-18.107,25.771c-23.032,7.198-8.519,26.463-29.521,12.855c-11.32-7.335-31.834-12.741-45.386-25.737
		C2222.334,145.449,2210.773,138.464,2212.226,136.685z"/>
	<g>
		<path class="st1" d="M2236.838,150.67c0.314-1.039,0.758-2.057,1.312-3.039c0.871-1.544,2.014-2.994,3.365-4.281
			c0.535-0.069,1.035-0.202,1.47-0.435c0.427-0.229,0.852-0.439,1.277-0.633c-1.547,1.438-2.876,3.309-3.819,5.363
			c-0.488,1.062-0.867,2.174-1.124,3.299c-0.223,0.98-0.354,1.971-0.367,2.951c-0.042,3.124,0.885,6.911,3.893,8.49
			c-1.219-0.163-2.438-0.448-3.63-0.806c-0.538-0.475-1.012-1.06-1.407-1.773C2236.099,156.895,2235.922,153.699,2236.838,150.67z"
			/>
		<path class="st2" d="M2210.767,135.141c3.088-5.215,6.004-9.74,6.932-10.818c0.192,0.045,0.187-0.234,0.238-0.13
			c0.167-0.339,0.265-0.209,0.45-0.504c-0.053,0.188-0.104,0.376-0.15,0.563c-1.393,4.576-1.224,11.97-6.701,13.163
			c-0.665,0.124-1.11-0.631-1.119-1.344c0.001-0.001,0.003-0.002,0.005-0.003c-0.001,0.001-0.003,0.002-0.005,0.003
			C2210.413,135.711,2210.519,135.361,2210.767,135.141z"/>
		<g>
			<path class="st3" d="M2296.193,146.769l-12.728,3.128c3.749-1.47,7.54-2.772,11.388-3.849c-0.402-0.098-0.79-0.225-0.984-0.482
				c-1.641-3.765-1.192-7.775,0.727-11.146c-0.11-0.017-0.22-0.038-0.33-0.053c-2.344-0.331-4.648-0.303-6.866,0.838
				c-1.208,0.622-2.42,1.493-3.234,2.555c-0.949,1.237-2.004,1.71-3.457,1.646c-5.83-0.26-11.526,0.416-16.955,2.649
				c-2.163,0.891-4.312,0.878-6.363,0.013c-1.573-0.663-3.113-1.077-4.634-1.254c-2.923,0.797-4.998,2.986-5.982,5.926
				c-1.947,6.234,1.768,12.276,8.347,13.296c-0.605,0.458,0.249,1.335-0.085,1.397c-1.766,0.479-3.697,1.018-5.623,1.404
				c5.326,0.174,10.652-0.102,15.937-0.88c2.563-0.376,5.182-1.269,7.463-2.503c7.41-4.007,15.128-6.808,23.329-8.351
				C2295.63,149.766,2296.475,147.974,2296.193,146.769z"/>
			<path class="st3" d="M2248.333,124.518c0.304-1.782,1.268-3.351,2.625-4.259c-2.065-0.207-4.181-0.083-6.34,0.33
				c-1.991,0.381-3.703,0.272-5.538-0.828c-2.56-1.534-5.481-1.008-8.29-0.657c-2.037,0.255-4.059,0.644-6.098,0.873
				c-2.645,0.296-4.778,1.278-6.305,3.711c-0.053,0.188-0.104,0.376-0.15,0.563c-1.393,4.576-1.224,11.97-6.7,13.163
				c-0.666,0.124-1.111-0.631-1.119-1.344c-0.431,0.241-0.812,0.76-1.44,0.675c0.143,0.118,0.286,0.241,0.431,0.374
				c0.198,0.136,0.718,1.075-0.085,1.397c-2.336,0.435-4.995,0.067-6.296-2.281c-0.158-0.236-0.18-0.465-0.108-0.672
				c-3.854-1.211-9.55-1.195-12.226-2.769c-2.748-1.614-7.343-2.152-10.51-1.76c-0.002,0-0.004,0.001-0.007,0.001
				c1.428,1.827,2.206,3.943,1.079,6.221c-0.389,0.834-0.935,1.56-1.703,2.06c0.007,0.004,0.014,0.008,0.021,0.012
				c2.608,1.475,5.689,3.414,8.695,3.279c1.292-0.058,7.168,2.016,8.469,2.364c2.159,0.577,4.859,0.035,7.05,0.43
				c1.246,0.225,1.994,0.676,2.56,1.777c1.031,2.008,2.216,3.896,4.623,4.562c0.487,0.134,0.951,0.493,1.332,0.849
				c3.51,3.279,7.882,4.285,12.456,4.75c4.385,0.446,8.41,2.086,12.497,3.584c0.643,0.236,1.299,0.455,1.962,0.654
				c-0.538-0.475-1.012-1.06-1.407-1.773c-1.71-2.91-1.887-6.106-0.971-9.136c0.314-1.039,0.759-2.057,1.312-3.039
				c0.871-1.544,2.014-2.994,3.365-4.281c-1.318,0.169-2.853-0.067-4.176-0.265c-0.719-0.107-1.587-1.387-1.807-2.276
				c-0.687-2.776-1.135-5.614-1.571-8.445c-0.066-0.43,0.299-1.169,0.68-1.388c3.409-1.948,6.926-3.125,10.872-1.479
				c1.284,0.535,2.584,0.837,3.894,0.988C2248.168,128.765,2247.924,126.342,2248.333,124.518z"/>
		</g>
		<path class="st2" d="M2203.028,136.237c-0.158-0.236-0.18-0.465-0.108-0.672c2.264-0.458,2.919-1.073,3.615-0.596
			c0.822,0.633,1.61,1.089,2.442,1.777c-0.052-0.007-0.106-0.017-0.162-0.033c0.056,0.016,0.11,0.026,0.162,0.033
			c0.143,0.118,0.286,0.241,0.431,0.374c0.198,0.136,0.718,1.075-0.085,1.397C2206.988,138.953,2204.329,138.584,2203.028,136.237z"
			/>
		<g>
			<g>
				<path d="M2213.927,125.028c1.203-1.376,1.778-7.188-1.572-5.701c-0.803,0.322-0.539,1.976-0.822,3.238
					c-0.532-0.074-1.533,0.113-1.397-0.085c0.566-2.523-0.246-4.194-2.392-5.426c-2.659-0.368-4.637-1.295-7.428,2.765
					c0,0-0.26,0.048-0.519-0.029c-0.197-0.71-0.777-1.398-2.28-2.616c0.922-0.319,1.48-0.505,2.579-0.811
					c0.27-0.075-3.898-1.8-3.622-1.872c0.421-0.111,5.226-0.885,7.552-0.824c3.54,0.093,5.228-0.065,7.382,0.115
					c4.794,0.398,4.766,3.492,4.415,8.482c-0.059,0.836,0.296,3.005,0.701,3.772c-0.071,0.14-0.139,0.274-0.206,0.404
					C2215.496,125.92,2213.862,125.501,2213.927,125.028z"/>
				<path class="st4" d="M2198.895,125.271l1.343-3.013l-0.357-1.47c0.016-0.368,0.003-0.685-0.084-0.997
					c0.259,0.078,0.519,0.029,0.519,0.029c2.755-4.085,4.905-3.331,7.564-2.963c2.25,0.777,2.822,3.101,2.256,5.624
					c-0.136,0.198,0.865,0.011,1.397,0.085c0.283-1.261-0.365-2.085,0.578-3.389c3.349-1.487,3.552,3.31,2.256,5.624
					c-0.066,0.473,1.129,1.12,1.951,1.639c-0.283,0.551-0.536,1.023-0.775,1.449l0.076,0.032l-4.626,7.887
					c0,0-1.199,1.305-1.846,1.096c-0.392-0.126-1.055-0.71-1.517-1.151c-0.363-0.25-0.726-0.499-1.095-0.783
					c0.1-0.021,0.199-0.043,0.299-0.065c0.046-0.634-0.995-1.614-1.459-1.547c-4.329,0.631-5.59-0.574-5.053-4.871l-0.111-1.058
					c-0.01,0.041-0.019,0.082-0.029,0.122c0,0.002-0.004,0.001-0.004-0.001c0.007-0.066,0.017-0.126,0.026-0.187l-0.14-1.33
					L2198.895,125.271z"/>
			</g>
			<g>
				<path class="st5" d="M2249.408,130.485c-1.24-1.721-1.485-4.144-1.076-5.967c0.304-1.782,1.268-3.351,2.625-4.259
					c2.745,0.276,5.398,1.14,7.939,2.708c1.287,0.794,2.694,1.453,4.122,1.953c0.421,0.147,0.844,0.29,1.267,0.43
					c1.294,0.5,2.579,1,3.842,1.614c1.127,0.547,3.951,1.093,4.191,2.545c0.098,0.595,0.061,2.432,0.445,3.603
					c-1.078,1.586-2.906,2.693-4.92,1.716c-1.87,1.97-3.809,1.133-4.956-1.141c-0.239-0.474-0.517-0.925-0.765-1.393
					c-1.344-2.528-1.34-2.5-4.227-2.179C2255.062,130.429,2252.212,130.807,2249.408,130.485z"/>
				<path class="st5" d="M2244.263,142.282c2.83-1.291,5.628-1.801,8.492-1.468c-2.923,0.797-4.998,2.986-5.982,5.926
					c-1.948,6.234,1.768,12.276,8.347,13.296c-0.605,0.458,0.249,1.335-0.085,1.397c-1.766,0.479-3.697,1.018-5.623,1.404
					c-1.96-0.064-3.92-0.187-5.878-0.372c-0.229-0.022-0.458-0.049-0.687-0.08c-3.008-1.579-3.935-5.366-3.893-8.49
					C2239.01,149.617,2241.218,145.111,2244.263,142.282z"/>
				<path class="st5" d="M2296.366,134.737c4.667,0.943,9.368,1.731,14.071,2.486c1.557,0.25,3.021-0.217,3.6-1.876
					c1.097-3.141,5.769-2.992,7.486-1.223c1.023,1.055,2.091,2.09,3.257,2.978c0.813,0.62,1.811,1.018,2.759,1.438
					c1.473,0.654,3.131,1.017,4.429,1.911c2.028,1.397,3.822,3.136,5.714,4.729c-0.085,0.176-0.17,0.351-0.257,0.526
					c-2.53,0.199-5.059,0.399-7.863,0.619c1.094,1.321,1.977,2.388,2.859,3.454c-0.09,0.178-0.179,0.357-0.269,0.536
					c-1.199,0.138-2.403,0.43-3.594,0.383c-3.353-0.132-6.755-0.09-10.033-0.691c-5.788-1.061-11.4-0.405-17.171,0.29
					c-1.761,0.212-3.498,0.484-5.215,0.807c-0.51-1.336,0.334-3.129,0.052-4.334l11.384-2.798c-0.027-0.178-0.055-0.358-0.083-0.536
					c-4.294,0.555-8.5,1.454-12.641,2.613c-0.402-0.098-0.79-0.225-0.984-0.482c-1.641-3.765-1.192-7.775,0.727-11.146
					C2295.184,134.511,2295.774,134.618,2296.366,134.737z"/>
				<path class="st5" d="M2163.549,128.414c1.678-0.649,3.429-1.199,5.167-1.456c2.457-0.364,3.103,0.262,4.504,3.568
					c3.703,0.172,5.816,0.414,9.422,0.39c1.128,2.233,1.474,4.705-0.31,7.108c-0.627,0.883-1.092,1.462-2.055,1.923
					c-2.198-1.744-4.936-2.881-7.879-2.62c0,0-2.711,0.872-3.027,0.996c-1.422,0.557-3.487,0.807-4.223-0.703
					c-1.119-2.298-1.769-4.874-2.446-7.393C2162.573,129.744,2163.115,128.582,2163.549,128.414z"/>
			</g>
		</g>
	</g>
</g>
<g>
	<path class="st0" d="M1911.757,139.747c0,0,0.919-6.622,16.34-15.562c14.185-8.224,20.25-1.356,34.518-2.418
		c19.608-1.46,39.293-5.951,44.656-5.754c9.665,0.356,22.066,1.947,21.931,11.417c-0.139,9.693-4.848,13.724-9.903,19.587
		c-8.819,10.229-8.401,12.165-15.404,20.317c-3.523,4.101-8.239,25.779-30.687,14.717c-12.099-5.962-29.231-18.287-44.207-29.611
		C1922.82,147.27,1910.522,141.684,1911.757,139.747z"/>
	<g>
		<path class="st1" d="M1936.779,150.636c0.314-1.039,0.758-2.057,1.312-3.039c0.871-1.544,2.015-2.994,3.365-4.281
			c0.535-0.069,1.036-0.202,1.47-0.435c0.427-0.229,0.852-0.439,1.277-0.633c-1.547,1.438-2.876,3.309-3.819,5.363
			c-0.488,1.062-0.868,2.174-1.124,3.299c-0.223,0.98-0.354,1.971-0.367,2.951c-0.042,3.124,0.885,6.911,3.893,8.49
			c-1.219-0.163-2.437-0.448-3.63-0.806c-0.538-0.475-1.012-1.06-1.407-1.773C1936.04,156.862,1935.863,153.666,1936.779,150.636z"
			/>
		<path class="st2" d="M1910.708,135.107c3.088-5.215,6.004-9.74,6.932-10.818c0.193,0.045,0.187-0.234,0.238-0.13
			c0.167-0.339,0.265-0.209,0.45-0.504c-0.053,0.188-0.104,0.376-0.15,0.563c-1.393,4.576-1.224,11.97-6.701,13.163
			c-0.665,0.124-1.11-0.631-1.119-1.344c0.002-0.001,0.003-0.002,0.005-0.003c-0.002,0.001-0.003,0.002-0.005,0.003
			C1910.354,135.678,1910.46,135.328,1910.708,135.107z"/>
		<g>
			<path class="st3" d="M1996.134,146.736l-12.728,3.128c3.749-1.47,7.54-2.772,11.388-3.849c-0.402-0.098-0.79-0.225-0.984-0.482
				c-1.641-3.765-1.192-7.775,0.727-11.146c-0.11-0.017-0.221-0.038-0.331-0.053c-2.344-0.331-4.648-0.303-6.866,0.838
				c-1.208,0.622-2.42,1.493-3.235,2.555c-0.949,1.237-2.004,1.71-3.457,1.646c-5.83-0.26-11.526,0.416-16.955,2.649
				c-2.163,0.891-4.312,0.878-6.363,0.013c-1.573-0.663-3.113-1.077-4.634-1.254c-2.922,0.797-4.998,2.986-5.982,5.926
				c-1.947,6.234,1.768,12.276,8.347,13.296c-0.605,0.458,0.249,1.335-0.085,1.397c-1.766,0.479-3.697,1.018-5.623,1.404
				c5.326,0.174,10.652-0.102,15.937-0.88c2.563-0.376,5.182-1.269,7.463-2.503c7.41-4.007,15.128-6.808,23.328-8.351
				C1995.571,149.733,1996.416,147.941,1996.134,146.736z"/>
			<path class="st3" d="M1948.274,124.485c0.304-1.782,1.268-3.351,2.624-4.259c-2.065-0.207-4.181-0.083-6.34,0.33
				c-1.99,0.381-3.703,0.272-5.538-0.828c-2.559-1.534-5.481-1.008-8.289-0.657c-2.037,0.255-4.059,0.644-6.098,0.873
				c-2.645,0.296-4.778,1.278-6.305,3.711c-0.053,0.188-0.104,0.376-0.15,0.563c-1.393,4.576-1.224,11.97-6.701,13.163
				c-0.665,0.124-1.11-0.631-1.119-1.344c-0.432,0.241-0.812,0.76-1.44,0.675c0.143,0.118,0.286,0.241,0.432,0.374
				c0.198,0.136,0.718,1.075-0.085,1.397c-2.336,0.435-4.995,0.067-6.296-2.281c-0.158-0.236-0.181-0.465-0.108-0.672
				c-3.854-1.211-9.55-1.195-12.226-2.769c-2.748-1.614-7.343-2.152-10.51-1.759c-0.002,0-0.004,0.001-0.006,0.001
				c1.428,1.827,2.206,3.943,1.079,6.221c-0.389,0.834-0.935,1.56-1.703,2.06c0.007,0.004,0.014,0.008,0.021,0.012
				c2.609,1.475,5.689,3.414,8.695,3.279c1.292-0.058,7.168,2.016,8.469,2.364c2.159,0.577,4.86,0.035,7.05,0.43
				c1.246,0.225,1.994,0.676,2.56,1.777c1.031,2.007,2.216,3.896,4.622,4.562c0.487,0.134,0.952,0.493,1.332,0.849
				c3.51,3.279,7.882,4.285,12.456,4.75c4.385,0.446,8.41,2.086,12.497,3.584c0.643,0.236,1.299,0.455,1.962,0.654
				c-0.538-0.475-1.012-1.06-1.407-1.773c-1.71-2.91-1.888-6.106-0.971-9.136c0.314-1.039,0.758-2.057,1.312-3.039
				c0.871-1.544,2.015-2.994,3.365-4.281c-1.318,0.169-2.853-0.067-4.175-0.265c-0.72-0.107-1.587-1.387-1.807-2.276
				c-0.687-2.776-1.135-5.614-1.571-8.445c-0.066-0.43,0.299-1.169,0.68-1.388c3.41-1.948,6.926-3.125,10.872-1.479
				c1.284,0.535,2.584,0.837,3.894,0.988C1948.109,128.731,1947.865,126.309,1948.274,124.485z"/>
		</g>
		<path class="st2" d="M1902.969,136.203c-0.158-0.236-0.181-0.465-0.108-0.672c2.264-0.458,2.919-1.073,3.615-0.596
			c0.822,0.633,1.611,1.089,2.443,1.777c-0.052-0.007-0.106-0.017-0.162-0.033c0.056,0.016,0.11,0.026,0.162,0.033
			c0.143,0.118,0.286,0.241,0.432,0.374c0.198,0.136,0.718,1.075-0.085,1.397C1906.929,138.92,1904.27,138.551,1902.969,136.203z"/>
		<g>
			<g>
				<path d="M1913.868,124.995c1.203-1.376,1.778-7.188-1.572-5.701c-0.803,0.322-0.539,1.976-0.822,3.238
					c-0.532-0.074-1.533,0.113-1.397-0.085c0.566-2.523-0.246-4.194-2.392-5.426c-2.659-0.368-4.637-1.295-7.428,2.765
					c0,0-0.26,0.048-0.519-0.029c-0.197-0.71-0.777-1.398-2.28-2.616c0.922-0.319,1.48-0.505,2.579-0.811
					c0.27-0.075-3.898-1.8-3.622-1.872c0.421-0.111,5.226-0.885,7.552-0.824c3.54,0.093,5.227-0.065,7.382,0.115
					c4.794,0.398,4.766,3.492,4.415,8.482c-0.059,0.836,0.296,3.005,0.701,3.772c-0.071,0.14-0.139,0.274-0.206,0.404
					C1915.438,125.887,1913.803,125.468,1913.868,124.995z"/>
				<path class="st4" d="M1898.836,125.237l1.343-3.013l-0.357-1.47c0.016-0.368,0.003-0.685-0.084-0.997
					c0.259,0.078,0.519,0.029,0.519,0.029c2.756-4.085,4.905-3.331,7.564-2.963c2.25,0.777,2.822,3.101,2.256,5.624
					c-0.136,0.198,0.865,0.011,1.397,0.085c0.283-1.261-0.365-2.085,0.578-3.389c3.349-1.487,3.552,3.31,2.256,5.624
					c-0.066,0.473,1.129,1.12,1.951,1.639c-0.283,0.551-0.536,1.023-0.775,1.449l0.076,0.032l-4.626,7.887
					c0,0-1.199,1.305-1.846,1.096c-0.392-0.126-1.055-0.71-1.517-1.151c-0.363-0.25-0.726-0.499-1.095-0.783
					c0.1-0.021,0.199-0.043,0.299-0.065c0.046-0.634-0.995-1.614-1.459-1.547c-4.329,0.631-5.589-0.574-5.053-4.871l-0.111-1.058
					c-0.01,0.041-0.019,0.082-0.029,0.122c0,0.002-0.004,0.001-0.004-0.001c0.007-0.066,0.016-0.126,0.026-0.187l-0.139-1.33
					L1898.836,125.237z"/>
			</g>
			<g>
				<path class="st5" d="M1949.35,130.452c-1.241-1.721-1.485-4.144-1.076-5.967c0.304-1.782,1.268-3.351,2.624-4.259
					c2.745,0.276,5.398,1.14,7.94,2.708c1.287,0.794,2.694,1.453,4.122,1.953c0.421,0.147,0.844,0.29,1.267,0.43
					c1.294,0.5,2.579,1,3.842,1.614c1.127,0.547,3.952,1.093,4.191,2.545c0.098,0.595,0.061,2.432,0.445,3.603
					c-1.078,1.586-2.906,2.693-4.92,1.716c-1.87,1.97-3.809,1.133-4.956-1.141c-0.239-0.474-0.517-0.925-0.766-1.393
					c-1.344-2.528-1.339-2.5-4.227-2.179C1955.003,130.396,1952.154,130.774,1949.35,130.452z"/>
				<path class="st5" d="M1944.204,142.248c2.83-1.291,5.628-1.801,8.492-1.468c-2.922,0.797-4.998,2.986-5.982,5.926
					c-1.947,6.234,1.768,12.276,8.347,13.296c-0.605,0.458,0.249,1.335-0.085,1.397c-1.766,0.479-3.697,1.018-5.623,1.404
					c-1.96-0.064-3.92-0.187-5.878-0.372c-0.229-0.022-0.458-0.049-0.687-0.08c-3.008-1.579-3.935-5.366-3.893-8.49
					C1938.951,149.584,1941.159,145.078,1944.204,142.248z"/>
				<path class="st5" d="M1996.307,134.704c4.667,0.943,9.368,1.731,14.071,2.486c1.557,0.25,3.021-0.217,3.6-1.876
					c1.097-3.141,5.769-2.992,7.486-1.223c1.023,1.055,2.091,2.09,3.257,2.978c0.813,0.62,1.811,1.018,2.759,1.438
					c1.473,0.654,3.131,1.017,4.429,1.911c2.028,1.397,3.822,3.136,5.714,4.729c-0.085,0.176-0.17,0.351-0.256,0.526
					c-2.53,0.199-5.059,0.399-7.862,0.619c1.094,1.321,1.977,2.388,2.859,3.454c-0.09,0.178-0.179,0.357-0.269,0.536
					c-1.199,0.138-2.404,0.43-3.594,0.383c-3.352-0.132-6.755-0.09-10.033-0.691c-5.788-1.061-11.4-0.405-17.171,0.29
					c-1.761,0.212-3.498,0.484-5.215,0.807c-0.51-1.336,0.335-3.129,0.053-4.334l11.384-2.798c-0.027-0.178-0.055-0.358-0.083-0.536
					c-4.294,0.555-8.501,1.454-12.642,2.613c-0.402-0.098-0.79-0.225-0.984-0.482c-1.641-3.765-1.192-7.775,0.727-11.146
					C1995.125,134.478,1995.715,134.584,1996.307,134.704z"/>
				<path class="st5" d="M1863.49,128.38c1.678-0.649,3.429-1.199,5.167-1.456c2.457-0.364,3.103,0.262,4.504,3.568
					c3.703,0.172,5.816,0.414,9.422,0.39c1.128,2.233,1.474,4.705-0.31,7.108c-0.627,0.883-1.092,1.462-2.055,1.923
					c-2.198-1.744-4.936-2.881-7.879-2.62c0,0-2.711,0.872-3.027,0.996c-1.422,0.557-3.487,0.807-4.223-0.703
					c-1.119-2.298-1.768-4.874-2.446-7.393C1862.514,129.711,1863.056,128.549,1863.49,128.38z"/>
			</g>
		</g>
	</g>
</g>
<g>
	<path class="st0" d="M1611.936,137.567c0,0,0.291-3.221,14.41-14.102c11.896-9.167,24.289,0.437,38.492-1.289
		c18.717-2.274,36.52-7.182,41.878-6.867c9.655,0.568,19.792,4.11,20.764,13.531c1.125,10.906,1.73,12.768-2.073,20.386
		c-6.033,12.083-15.445,7.747-19.738,18.612c-1.987,5.028-11.028,24.924-33.227,13.371c-11.965-6.227-28.822-18.925-43.546-30.575
		C1622.831,145.332,1610.659,139.477,1611.936,137.567z"/>
	<g>
		<path class="st1" d="M1636.72,150.532c0.314-1.039,0.758-2.057,1.312-3.039c0.871-1.544,2.015-2.994,3.366-4.281
			c0.535-0.069,1.036-0.202,1.47-0.435c0.427-0.229,0.852-0.439,1.277-0.633c-1.547,1.438-2.876,3.309-3.819,5.363
			c-0.488,1.062-0.868,2.174-1.124,3.299c-0.223,0.98-0.354,1.971-0.367,2.951c-0.042,3.124,0.885,6.911,3.893,8.49
			c-1.219-0.163-2.437-0.448-3.63-0.806c-0.538-0.475-1.012-1.06-1.407-1.773C1635.981,156.757,1635.804,153.562,1636.72,150.532z"
			/>
		<path class="st2" d="M1610.649,135.003c3.088-5.215,6.004-9.74,6.932-10.818c0.193,0.045,0.188-0.234,0.238-0.13
			c0.167-0.339,0.265-0.209,0.45-0.504c-0.053,0.188-0.104,0.376-0.15,0.563c-1.393,4.576-1.224,11.97-6.701,13.163
			c-0.665,0.124-1.11-0.631-1.119-1.344c0.001-0.001,0.003-0.002,0.005-0.003c-0.001,0.001-0.003,0.002-0.005,0.003
			C1610.295,135.573,1610.401,135.223,1610.649,135.003z"/>
		<g>
			<path class="st3" d="M1696.076,146.631l-12.728,3.128c3.749-1.47,7.54-2.772,11.388-3.849c-0.402-0.098-0.79-0.225-0.984-0.482
				c-1.641-3.765-1.192-7.775,0.727-11.146c-0.11-0.017-0.221-0.038-0.33-0.053c-2.344-0.331-4.648-0.303-6.866,0.838
				c-1.208,0.622-2.42,1.493-3.235,2.555c-0.949,1.237-2.004,1.71-3.457,1.646c-5.83-0.26-11.527,0.416-16.955,2.649
				c-2.163,0.891-4.312,0.878-6.363,0.013c-1.573-0.663-3.113-1.077-4.634-1.254c-2.922,0.797-4.998,2.986-5.982,5.926
				c-1.947,6.234,1.768,12.276,8.347,13.296c-0.605,0.458,0.249,1.335-0.085,1.397c-1.766,0.479-3.697,1.018-5.623,1.404
				c5.326,0.174,10.652-0.102,15.937-0.88c2.563-0.376,5.182-1.269,7.463-2.503c7.41-4.007,15.129-6.808,23.329-8.351
				C1695.513,149.628,1696.358,147.836,1696.076,146.631z"/>
			<path class="st3" d="M1648.215,124.38c0.304-1.782,1.268-3.351,2.624-4.259c-2.065-0.207-4.181-0.083-6.34,0.33
				c-1.99,0.381-3.703,0.272-5.538-0.828c-2.559-1.534-5.481-1.008-8.289-0.657c-2.037,0.255-4.059,0.644-6.098,0.873
				c-2.645,0.296-4.778,1.278-6.305,3.711c-0.053,0.188-0.104,0.376-0.15,0.563c-1.393,4.576-1.224,11.97-6.701,13.163
				c-0.665,0.124-1.11-0.631-1.119-1.344c-0.432,0.241-0.812,0.76-1.44,0.675c0.142,0.118,0.286,0.241,0.431,0.374
				c0.198,0.136,0.718,1.075-0.085,1.397c-2.337,0.435-4.995,0.067-6.296-2.281c-0.158-0.236-0.181-0.465-0.108-0.672
				c-3.854-1.211-9.55-1.195-12.226-2.769c-2.748-1.614-7.343-2.152-10.51-1.76c-0.002,0-0.004,0.001-0.006,0.001
				c1.428,1.827,2.206,3.943,1.079,6.221c-0.389,0.834-0.935,1.56-1.703,2.06c0.007,0.004,0.014,0.008,0.021,0.012
				c2.609,1.475,5.69,3.414,8.695,3.279c1.292-0.058,7.168,2.016,8.469,2.364c2.159,0.577,4.86,0.035,7.05,0.43
				c1.246,0.225,1.994,0.676,2.56,1.777c1.031,2.007,2.216,3.896,4.623,4.562c0.487,0.134,0.952,0.493,1.332,0.849
				c3.51,3.279,7.882,4.285,12.456,4.75c4.385,0.446,8.411,2.086,12.497,3.584c0.643,0.236,1.299,0.455,1.962,0.654
				c-0.538-0.475-1.012-1.06-1.407-1.773c-1.71-2.91-1.888-6.106-0.971-9.136c0.314-1.039,0.758-2.057,1.312-3.039
				c0.871-1.544,2.015-2.994,3.366-4.281c-1.318,0.169-2.853-0.067-4.175-0.265c-0.72-0.107-1.587-1.387-1.807-2.276
				c-0.687-2.776-1.135-5.614-1.571-8.445c-0.066-0.43,0.299-1.169,0.68-1.388c3.41-1.948,6.926-3.125,10.872-1.479
				c1.284,0.535,2.584,0.837,3.894,0.988C1648.05,128.627,1647.806,126.204,1648.215,124.38z"/>
		</g>
		<path class="st2" d="M1602.91,136.099c-0.158-0.236-0.181-0.465-0.108-0.672c2.264-0.458,2.919-1.073,3.615-0.596
			c0.822,0.633,1.61,1.089,2.443,1.777c-0.053-0.007-0.106-0.017-0.162-0.033c0.056,0.016,0.11,0.026,0.162,0.033
			c0.142,0.118,0.286,0.241,0.431,0.374c0.198,0.136,0.718,1.075-0.085,1.397C1606.87,138.815,1604.211,138.447,1602.91,136.099z"/>
		<g>
			<g>
				<path d="M1613.809,124.891c1.203-1.376,1.778-7.188-1.572-5.701c-0.803,0.322-0.539,1.976-0.822,3.238
					c-0.532-0.074-1.533,0.113-1.397-0.085c0.566-2.523-0.246-4.194-2.392-5.426c-2.659-0.368-4.637-1.295-7.428,2.765
					c0,0-0.26,0.048-0.519-0.029c-0.197-0.71-0.777-1.398-2.28-2.616c0.922-0.319,1.48-0.505,2.579-0.811
					c0.27-0.075-3.898-1.8-3.622-1.872c0.421-0.111,5.226-0.885,7.552-0.824c3.54,0.093,5.227-0.065,7.382,0.115
					c4.794,0.398,4.766,3.492,4.415,8.482c-0.059,0.836,0.296,3.005,0.701,3.772c-0.071,0.14-0.139,0.274-0.206,0.404
					C1615.378,125.782,1613.744,125.363,1613.809,124.891z"/>
				<path class="st4" d="M1598.777,125.133l1.343-3.013l-0.357-1.47c0.016-0.368,0.003-0.685-0.084-0.997
					c0.259,0.078,0.519,0.029,0.519,0.029c2.756-4.085,4.905-3.331,7.564-2.963c2.25,0.777,2.822,3.101,2.256,5.624
					c-0.136,0.198,0.866,0.011,1.397,0.085c0.283-1.261-0.365-2.085,0.578-3.389c3.349-1.487,3.552,3.31,2.256,5.624
					c-0.065,0.473,1.129,1.12,1.952,1.639c-0.283,0.551-0.536,1.023-0.776,1.449l0.076,0.032l-4.626,7.887
					c0,0-1.199,1.305-1.846,1.096c-0.392-0.126-1.055-0.71-1.517-1.151c-0.363-0.25-0.726-0.499-1.095-0.783
					c0.1-0.021,0.199-0.043,0.299-0.065c0.046-0.634-0.995-1.614-1.459-1.547c-4.329,0.631-5.589-0.574-5.053-4.871l-0.111-1.058
					c-0.01,0.041-0.019,0.082-0.029,0.122c0,0.002-0.004,0.001-0.004-0.001c0.007-0.066,0.016-0.126,0.026-0.187l-0.139-1.33
					L1598.777,125.133z"/>
			</g>
			<g>
				<path class="st5" d="M1649.291,130.348c-1.241-1.721-1.485-4.144-1.076-5.967c0.304-1.782,1.268-3.351,2.624-4.259
					c2.745,0.276,5.398,1.14,7.94,2.708c1.287,0.794,2.694,1.453,4.122,1.953c0.421,0.147,0.844,0.29,1.267,0.43
					c1.294,0.5,2.579,1,3.842,1.614c1.127,0.547,3.952,1.093,4.191,2.545c0.098,0.595,0.061,2.432,0.445,3.603
					c-1.078,1.586-2.906,2.693-4.92,1.716c-1.87,1.97-3.81,1.133-4.956-1.141c-0.239-0.474-0.517-0.925-0.766-1.393
					c-1.344-2.528-1.339-2.5-4.227-2.179C1654.945,130.291,1652.095,130.67,1649.291,130.348z"/>
				<path class="st5" d="M1644.145,142.144c2.83-1.291,5.628-1.801,8.492-1.468c-2.922,0.797-4.998,2.986-5.982,5.926
					c-1.947,6.234,1.768,12.276,8.347,13.296c-0.605,0.458,0.249,1.335-0.085,1.397c-1.766,0.479-3.697,1.018-5.623,1.404
					c-1.96-0.064-3.92-0.187-5.879-0.372c-0.229-0.022-0.458-0.049-0.687-0.08c-3.008-1.579-3.935-5.366-3.893-8.49
					C1638.892,149.479,1641.1,144.973,1644.145,142.144z"/>
				<path class="st5" d="M1696.249,134.599c4.667,0.943,9.368,1.731,14.071,2.486c1.557,0.25,3.021-0.217,3.6-1.876
					c1.097-3.141,5.769-2.992,7.486-1.223c1.023,1.055,2.091,2.09,3.257,2.978c0.813,0.62,1.811,1.018,2.759,1.438
					c1.473,0.654,3.131,1.017,4.429,1.911c2.028,1.397,3.822,3.136,5.714,4.729c-0.085,0.176-0.17,0.351-0.256,0.526
					c-2.53,0.199-5.059,0.399-7.863,0.619c1.094,1.321,1.977,2.388,2.859,3.454c-0.09,0.178-0.179,0.357-0.269,0.536
					c-1.199,0.138-2.404,0.43-3.594,0.383c-3.352-0.132-6.755-0.09-10.034-0.691c-5.788-1.061-11.4-0.405-17.171,0.29
					c-1.761,0.212-3.498,0.484-5.215,0.807c-0.51-1.336,0.334-3.129,0.053-4.334l11.384-2.798c-0.027-0.178-0.056-0.358-0.083-0.536
					c-4.294,0.555-8.501,1.454-12.642,2.613c-0.402-0.098-0.79-0.225-0.984-0.482c-1.641-3.765-1.192-7.775,0.727-11.146
					C1695.066,134.373,1695.656,134.48,1696.249,134.599z"/>
				<path class="st5" d="M1563.431,128.276c1.678-0.649,3.428-1.199,5.167-1.456c2.457-0.364,3.103,0.262,4.504,3.568
					c3.703,0.172,5.816,0.414,9.422,0.39c1.128,2.233,1.474,4.705-0.31,7.108c-0.627,0.883-1.092,1.462-2.056,1.923
					c-2.198-1.744-4.936-2.881-7.879-2.62c0,0-2.711,0.872-3.026,0.996c-1.422,0.557-3.487,0.807-4.223-0.703
					c-1.119-2.298-1.768-4.874-2.446-7.393C1562.455,129.606,1562.996,128.445,1563.431,128.276z"/>
			</g>
		</g>
	</g>
</g>
<g>
	<path class="st0" d="M1318.575,139.601c0,0,3.28-6.922,17.637-17.486c7.49-5.511,20.98,0.358,35.083-2.051
		c18.585-3.175,33.671-5.515,39.019-5.062c7.622,0.645,17.695,2.345,22.126,10.716c5.524,10.435,3.693,14.567,0.262,22.36
		c-5.442,12.361-17.641,13.392-21.404,24.452c-1.741,5.119-8.242,17.556-30.974,7.089c-12.252-5.641-30.942-22.502-46.211-33.428
		C1327.799,141.186,1317.391,141.57,1318.575,139.601z"/>
	<g>
		<path class="st1" d="M1336.661,150.525c0.314-1.039,0.758-2.057,1.312-3.039c0.871-1.544,2.014-2.994,3.365-4.281
			c0.535-0.069,1.036-0.202,1.47-0.435c0.427-0.229,0.852-0.439,1.277-0.633c-1.547,1.438-2.876,3.309-3.819,5.363
			c-0.488,1.062-0.868,2.174-1.124,3.299c-0.223,0.98-0.354,1.971-0.367,2.951c-0.042,3.124,0.885,6.911,3.893,8.49
			c-1.219-0.163-2.437-0.448-3.63-0.806c-0.538-0.475-1.012-1.06-1.407-1.773C1335.923,156.75,1335.745,153.555,1336.661,150.525z"
			/>
		<path class="st2" d="M1310.591,134.996c3.088-5.215,6.004-9.74,6.932-10.818c0.193,0.045,0.188-0.234,0.238-0.13
			c0.167-0.339,0.265-0.209,0.45-0.504c-0.053,0.188-0.104,0.376-0.15,0.563c-1.393,4.576-1.224,11.97-6.701,13.163
			c-0.665,0.124-1.11-0.631-1.119-1.344c0.001-0.001,0.003-0.002,0.005-0.003c-0.001,0.001-0.003,0.002-0.005,0.003
			C1310.236,135.566,1310.342,135.216,1310.591,134.996z"/>
		<g>
			<path class="st3" d="M1396.017,146.624l-12.728,3.128c3.749-1.47,7.54-2.772,11.388-3.849c-0.402-0.098-0.79-0.225-0.984-0.482
				c-1.641-3.765-1.192-7.775,0.727-11.146c-0.11-0.017-0.221-0.038-0.33-0.053c-2.344-0.331-4.648-0.303-6.866,0.838
				c-1.208,0.622-2.42,1.493-3.235,2.555c-0.949,1.237-2.004,1.71-3.457,1.646c-5.83-0.26-11.527,0.416-16.955,2.649
				c-2.163,0.891-4.312,0.878-6.363,0.013c-1.573-0.663-3.113-1.077-4.634-1.254c-2.922,0.797-4.998,2.986-5.982,5.926
				c-1.947,6.234,1.768,12.276,8.347,13.296c-0.605,0.458,0.249,1.335-0.085,1.397c-1.766,0.479-3.697,1.018-5.623,1.404
				c5.326,0.174,10.652-0.102,15.937-0.88c2.563-0.376,5.182-1.269,7.463-2.503c7.41-4.007,15.129-6.808,23.329-8.351
				C1395.454,149.622,1396.299,147.829,1396.017,146.624z"/>
			<path class="st3" d="M1348.156,124.374c0.304-1.782,1.268-3.351,2.625-4.259c-2.065-0.207-4.181-0.083-6.34,0.33
				c-1.99,0.381-3.703,0.272-5.538-0.828c-2.559-1.534-5.481-1.008-8.289-0.657c-2.037,0.255-4.059,0.644-6.098,0.873
				c-2.645,0.296-4.778,1.278-6.305,3.711c-0.053,0.188-0.104,0.376-0.15,0.563c-1.393,4.576-1.224,11.97-6.701,13.163
				c-0.665,0.124-1.11-0.631-1.119-1.344c-0.432,0.241-0.812,0.76-1.44,0.675c0.142,0.118,0.286,0.241,0.431,0.374
				c0.198,0.136,0.718,1.075-0.085,1.397c-2.337,0.435-4.995,0.067-6.296-2.281c-0.158-0.236-0.181-0.465-0.108-0.672
				c-3.854-1.211-9.55-1.195-12.227-2.769c-2.748-1.614-7.343-2.152-10.51-1.76c-0.002,0-0.004,0.001-0.006,0.001
				c1.428,1.827,2.206,3.943,1.079,6.221c-0.389,0.834-0.935,1.56-1.703,2.06c0.007,0.004,0.014,0.008,0.021,0.012
				c2.609,1.475,5.69,3.414,8.695,3.279c1.292-0.058,7.168,2.016,8.469,2.364c2.159,0.577,4.86,0.035,7.05,0.43
				c1.246,0.225,1.994,0.676,2.56,1.777c1.031,2.007,2.216,3.896,4.623,4.562c0.487,0.134,0.952,0.493,1.332,0.849
				c3.51,3.279,7.882,4.285,12.456,4.75c4.385,0.446,8.411,2.086,12.497,3.584c0.643,0.236,1.299,0.455,1.962,0.654
				c-0.538-0.475-1.012-1.06-1.407-1.773c-1.71-2.91-1.888-6.106-0.971-9.136c0.314-1.039,0.758-2.057,1.312-3.039
				c0.871-1.544,2.014-2.994,3.365-4.281c-1.318,0.169-2.853-0.067-4.175-0.265c-0.72-0.107-1.587-1.387-1.807-2.276
				c-0.687-2.776-1.135-5.614-1.571-8.445c-0.066-0.43,0.299-1.169,0.68-1.388c3.41-1.948,6.926-3.125,10.872-1.479
				c1.284,0.535,2.584,0.837,3.894,0.988C1347.991,128.62,1347.747,126.197,1348.156,124.374z"/>
		</g>
		<path class="st2" d="M1302.851,136.092c-0.158-0.236-0.181-0.465-0.108-0.672c2.264-0.458,2.919-1.073,3.615-0.596
			c0.822,0.633,1.61,1.089,2.443,1.777c-0.053-0.007-0.106-0.017-0.162-0.033c0.056,0.016,0.11,0.026,0.162,0.033
			c0.142,0.118,0.286,0.241,0.431,0.374c0.198,0.136,0.718,1.075-0.085,1.397C1306.811,138.808,1304.152,138.44,1302.851,136.092z"
			/>
		<g>
			<g>
				<path d="M1313.75,124.884c1.203-1.376,1.778-7.188-1.572-5.701c-0.803,0.322-0.539,1.976-0.822,3.238
					c-0.532-0.074-1.533,0.113-1.397-0.085c0.566-2.523-0.246-4.194-2.392-5.426c-2.659-0.368-4.637-1.295-7.428,2.765
					c0,0-0.26,0.048-0.519-0.029c-0.197-0.71-0.777-1.398-2.28-2.616c0.922-0.319,1.48-0.505,2.579-0.811
					c0.27-0.075-3.898-1.8-3.622-1.872c0.421-0.111,5.226-0.885,7.552-0.824c3.54,0.093,5.227-0.065,7.382,0.115
					c4.794,0.398,4.766,3.492,4.415,8.482c-0.059,0.836,0.296,3.005,0.701,3.772c-0.071,0.14-0.139,0.274-0.206,0.404
					C1315.32,125.775,1313.685,125.357,1313.75,124.884z"/>
				<path class="st4" d="M1298.718,125.126l1.343-3.013l-0.357-1.47c0.016-0.368,0.003-0.685-0.084-0.997
					c0.259,0.078,0.519,0.029,0.519,0.029c2.756-4.085,4.905-3.331,7.564-2.963c2.25,0.777,2.822,3.101,2.256,5.624
					c-0.136,0.198,0.866,0.011,1.397,0.085c0.283-1.261-0.365-2.085,0.578-3.389c3.349-1.487,3.552,3.31,2.256,5.624
					c-0.065,0.473,1.129,1.12,1.952,1.639c-0.283,0.551-0.536,1.023-0.776,1.449l0.076,0.032l-4.626,7.887
					c0,0-1.199,1.305-1.846,1.096c-0.392-0.126-1.055-0.71-1.517-1.151c-0.363-0.25-0.726-0.499-1.095-0.783
					c0.1-0.021,0.199-0.043,0.299-0.065c0.046-0.634-0.995-1.614-1.459-1.547c-4.329,0.631-5.59-0.574-5.053-4.871l-0.111-1.058
					c-0.01,0.041-0.019,0.082-0.029,0.122c0,0.002-0.004,0.001-0.004-0.001c0.007-0.066,0.017-0.126,0.026-0.187l-0.139-1.33
					L1298.718,125.126z"/>
			</g>
			<g>
				<path class="st5" d="M1349.232,130.341c-1.241-1.721-1.485-4.144-1.076-5.967c0.304-1.782,1.268-3.351,2.624-4.259
					c2.745,0.276,5.398,1.14,7.94,2.708c1.287,0.794,2.694,1.453,4.122,1.953c0.421,0.147,0.844,0.29,1.267,0.43
					c1.294,0.5,2.579,1,3.842,1.614c1.127,0.547,3.952,1.093,4.191,2.545c0.098,0.595,0.061,2.432,0.445,3.603
					c-1.078,1.586-2.906,2.693-4.92,1.716c-1.87,1.97-3.81,1.133-4.956-1.141c-0.239-0.474-0.517-0.925-0.766-1.393
					c-1.344-2.528-1.339-2.5-4.227-2.179C1354.886,130.285,1352.036,130.663,1349.232,130.341z"/>
				<path class="st5" d="M1344.086,142.137c2.83-1.291,5.628-1.801,8.492-1.468c-2.922,0.797-4.998,2.986-5.982,5.926
					c-1.947,6.234,1.768,12.276,8.347,13.296c-0.605,0.458,0.249,1.335-0.085,1.397c-1.766,0.479-3.697,1.018-5.623,1.404
					c-1.96-0.064-3.92-0.187-5.878-0.372c-0.229-0.022-0.458-0.049-0.687-0.08c-3.008-1.579-3.935-5.366-3.893-8.49
					C1338.833,149.472,1341.041,144.966,1344.086,142.137z"/>
				<path class="st5" d="M1396.19,134.593c4.667,0.943,9.368,1.731,14.071,2.486c1.557,0.25,3.021-0.217,3.6-1.876
					c1.097-3.141,5.769-2.992,7.486-1.223c1.023,1.055,2.091,2.09,3.257,2.978c0.813,0.62,1.811,1.018,2.759,1.438
					c1.473,0.654,3.131,1.017,4.429,1.911c2.028,1.397,3.822,3.136,5.714,4.729c-0.085,0.176-0.17,0.351-0.256,0.526
					c-2.53,0.199-5.059,0.399-7.863,0.619c1.094,1.321,1.977,2.388,2.859,3.454c-0.09,0.178-0.179,0.357-0.269,0.536
					c-1.199,0.138-2.404,0.43-3.594,0.383c-3.352-0.132-6.755-0.09-10.034-0.691c-5.788-1.061-11.4-0.405-17.171,0.29
					c-1.761,0.212-3.498,0.484-5.215,0.807c-0.51-1.336,0.334-3.129,0.053-4.334l11.384-2.798c-0.027-0.178-0.056-0.358-0.083-0.536
					c-4.294,0.555-8.501,1.454-12.642,2.613c-0.402-0.098-0.79-0.225-0.984-0.482c-1.641-3.765-1.192-7.775,0.727-11.146
					C1395.007,134.366,1395.598,134.473,1396.19,134.593z"/>
				<path class="st5" d="M1263.372,128.269c1.678-0.649,3.428-1.199,5.167-1.456c2.457-0.364,3.103,0.262,4.504,3.568
					c3.703,0.172,5.816,0.414,9.422,0.39c1.128,2.233,1.474,4.705-0.31,7.108c-0.627,0.883-1.092,1.462-2.056,1.923
					c-2.198-1.744-4.936-2.881-7.879-2.62c0,0-2.711,0.872-3.027,0.996c-1.422,0.557-3.487,0.807-4.223-0.703
					c-1.119-2.298-1.768-4.874-2.446-7.393C1262.396,129.6,1262.938,128.438,1263.372,128.269z"/>
			</g>
		</g>
	</g>
</g>
<g>
	<path class="st0" d="M1004.76,135.877c0,0,1.092-9.144,17.522-14.573c7.43-2.455,29.434,2.423,43.291,2.16
		c15.896-0.301,33.4,5.052,38.435,6.291c7.176,1.767,21.561,7.161,16.938,12.224c-7.725,8.459-11.139,13.808-13.859,19.217
		c-5.873,11.679-17.713,10.184-24.96,14.351c-4.552,2.617-5.576,14.99-25.598,1.594c-10.792-7.22-29.714-19.073-37.991-32.645
		C1013.315,138.78,1003.312,137.571,1004.76,135.877z"/>
	<g>
		<path class="st1" d="M1036.603,151.703c0.314-1.039,0.758-2.057,1.312-3.039c0.871-1.544,2.014-2.994,3.365-4.281
			c0.535-0.069,1.036-0.202,1.47-0.435c0.427-0.229,0.852-0.439,1.277-0.633c-1.547,1.438-2.876,3.309-3.819,5.363
			c-0.488,1.062-0.868,2.174-1.124,3.299c-0.223,0.98-0.354,1.971-0.367,2.951c-0.042,3.124,0.885,6.911,3.893,8.49
			c-1.219-0.163-2.437-0.448-3.63-0.806c-0.538-0.475-1.012-1.06-1.407-1.773C1035.864,157.929,1035.686,154.733,1036.603,151.703z"
			/>
		<path class="st2" d="M1010.532,136.174c3.088-5.215,6.004-9.74,6.932-10.818c0.193,0.045,0.187-0.234,0.238-0.13
			c0.167-0.339,0.265-0.209,0.45-0.504c-0.053,0.188-0.104,0.376-0.15,0.563c-1.393,4.576-1.224,11.97-6.701,13.163
			c-0.665,0.124-1.11-0.631-1.119-1.344c0.002-0.001,0.003-0.002,0.005-0.003c-0.002,0.001-0.003,0.002-0.005,0.003
			C1010.178,136.744,1010.283,136.395,1010.532,136.174z"/>
		<g>
			<path class="st3" d="M1095.958,147.803l-12.728,3.128c3.749-1.47,7.54-2.772,11.388-3.849c-0.402-0.098-0.79-0.225-0.984-0.482
				c-1.641-3.765-1.192-7.775,0.727-11.146c-0.11-0.017-0.221-0.038-0.33-0.053c-2.344-0.331-4.648-0.303-6.866,0.838
				c-1.208,0.622-2.42,1.493-3.235,2.555c-0.949,1.237-2.004,1.71-3.457,1.646c-5.83-0.26-11.527,0.416-16.955,2.649
				c-2.163,0.891-4.312,0.878-6.363,0.013c-1.573-0.663-3.113-1.077-4.634-1.254c-2.922,0.797-4.998,2.986-5.982,5.926
				c-1.947,6.234,1.768,12.276,8.347,13.296c-0.605,0.458,0.249,1.335-0.085,1.397c-1.766,0.479-3.697,1.018-5.623,1.404
				c5.326,0.174,10.652-0.102,15.937-0.88c2.563-0.376,5.182-1.269,7.463-2.503c7.41-4.007,15.129-6.808,23.329-8.351
				C1095.395,150.8,1096.24,149.007,1095.958,147.803z"/>
			<path class="st3" d="M1048.097,125.552c0.304-1.782,1.268-3.351,2.625-4.259c-2.065-0.207-4.181-0.083-6.34,0.33
				c-1.99,0.381-3.703,0.272-5.538-0.828c-2.559-1.534-5.481-1.008-8.289-0.657c-2.037,0.255-4.059,0.644-6.098,0.873
				c-2.645,0.296-4.778,1.278-6.305,3.711c-0.053,0.188-0.104,0.376-0.15,0.563c-1.393,4.576-1.224,11.97-6.701,13.163
				c-0.665,0.124-1.11-0.631-1.119-1.344c-0.431,0.241-0.812,0.76-1.44,0.675c0.143,0.118,0.286,0.241,0.431,0.374
				c0.198,0.136,0.718,1.075-0.085,1.397c-2.336,0.435-4.995,0.067-6.296-2.281c-0.158-0.236-0.181-0.465-0.108-0.672
				c-3.854-1.211-9.55-1.195-12.227-2.769c-2.748-1.614-7.343-2.152-10.51-1.76c-0.002,0-0.004,0.001-0.006,0.001
				c1.428,1.827,2.206,3.943,1.079,6.221c-0.389,0.834-0.935,1.56-1.703,2.06c0.007,0.004,0.014,0.008,0.021,0.012
				c2.609,1.475,5.69,3.414,8.695,3.279c1.292-0.058,7.168,2.016,8.469,2.364c2.159,0.577,4.86,0.035,7.05,0.43
				c1.246,0.225,1.994,0.676,2.56,1.777c1.031,2.008,2.216,3.896,4.622,4.562c0.487,0.134,0.952,0.493,1.332,0.849
				c3.51,3.279,7.882,4.285,12.456,4.75c4.385,0.446,8.411,2.086,12.497,3.584c0.643,0.236,1.299,0.455,1.962,0.654
				c-0.538-0.475-1.012-1.06-1.407-1.773c-1.71-2.91-1.888-6.106-0.971-9.136c0.314-1.039,0.758-2.057,1.312-3.039
				c0.871-1.544,2.015-2.994,3.365-4.281c-1.318,0.169-2.853-0.067-4.175-0.265c-0.72-0.107-1.587-1.387-1.807-2.276
				c-0.687-2.776-1.135-5.614-1.571-8.445c-0.066-0.43,0.299-1.169,0.68-1.388c3.41-1.948,6.926-3.125,10.872-1.479
				c1.284,0.535,2.584,0.837,3.894,0.988C1047.932,129.798,1047.688,127.375,1048.097,125.552z"/>
		</g>
		<path class="st2" d="M1002.792,137.27c-0.158-0.236-0.18-0.465-0.108-0.672c2.264-0.458,2.919-1.073,3.615-0.596
			c0.822,0.633,1.61,1.089,2.443,1.777c-0.053-0.007-0.106-0.017-0.162-0.033c0.056,0.016,0.11,0.026,0.162,0.033
			c0.143,0.118,0.286,0.241,0.431,0.374c0.198,0.136,0.718,1.075-0.085,1.397C1006.752,139.986,1004.093,139.618,1002.792,137.27z"
			/>
		<g>
			<g>
				<path d="M1013.692,126.062c1.203-1.376,1.778-7.188-1.572-5.701c-0.803,0.322-0.539,1.976-0.822,3.238
					c-0.532-0.074-1.533,0.113-1.397-0.085c0.566-2.523-0.246-4.194-2.392-5.426c-2.659-0.368-4.637-1.295-7.428,2.765
					c0,0-0.26,0.048-0.519-0.029c-0.197-0.71-0.777-1.398-2.28-2.616c0.922-0.319,1.48-0.505,2.579-0.811
					c0.27-0.075-3.899-1.8-3.622-1.872c0.421-0.111,5.226-0.885,7.552-0.824c3.54,0.093,5.227-0.065,7.382,0.115
					c4.794,0.398,4.766,3.492,4.415,8.482c-0.059,0.836,0.296,3.005,0.701,3.772c-0.071,0.14-0.139,0.274-0.206,0.404
					C1015.261,126.954,1013.626,126.535,1013.692,126.062z"/>
				<path class="st4" d="M998.659,126.304l1.343-3.013l-0.357-1.47c0.016-0.368,0.003-0.685-0.084-0.997
					c0.259,0.078,0.519,0.029,0.519,0.029c2.756-4.085,4.905-3.331,7.564-2.963c2.25,0.777,2.822,3.101,2.256,5.624
					c-0.136,0.198,0.866,0.011,1.397,0.085c0.283-1.261-0.365-2.085,0.578-3.389c3.349-1.487,3.552,3.31,2.256,5.624
					c-0.065,0.473,1.129,1.12,1.951,1.639c-0.283,0.551-0.536,1.023-0.775,1.449l0.076,0.032l-4.626,7.887
					c0,0-1.199,1.305-1.846,1.096c-0.392-0.126-1.055-0.71-1.517-1.151c-0.363-0.25-0.726-0.499-1.095-0.783
					c0.1-0.021,0.199-0.043,0.299-0.065c0.046-0.634-0.995-1.614-1.459-1.547c-4.329,0.631-5.59-0.574-5.053-4.871l-0.111-1.058
					c-0.01,0.041-0.019,0.082-0.029,0.122c0,0.002-0.004,0.001-0.004-0.001c0.007-0.066,0.017-0.126,0.026-0.187l-0.139-1.33
					L998.659,126.304z"/>
			</g>
			<g>
				<path class="st5" d="M1049.173,131.519c-1.241-1.721-1.485-4.144-1.076-5.967c0.304-1.782,1.268-3.351,2.624-4.259
					c2.745,0.276,5.398,1.14,7.94,2.708c1.287,0.794,2.694,1.453,4.122,1.953c0.421,0.147,0.844,0.29,1.267,0.43
					c1.294,0.5,2.579,1,3.842,1.614c1.127,0.547,3.952,1.093,4.191,2.545c0.098,0.595,0.06,2.432,0.445,3.603
					c-1.078,1.586-2.906,2.693-4.92,1.716c-1.87,1.97-3.81,1.133-4.956-1.141c-0.239-0.474-0.517-0.925-0.766-1.393
					c-1.344-2.528-1.339-2.5-4.227-2.179C1054.827,131.463,1051.977,131.841,1049.173,131.519z"/>
				<path class="st5" d="M1044.027,143.315c2.83-1.291,5.628-1.801,8.492-1.468c-2.922,0.797-4.998,2.986-5.982,5.926
					c-1.947,6.234,1.768,12.276,8.347,13.296c-0.605,0.458,0.249,1.335-0.085,1.397c-1.766,0.479-3.697,1.018-5.623,1.404
					c-1.96-0.064-3.92-0.187-5.878-0.372c-0.229-0.022-0.458-0.049-0.687-0.08c-3.008-1.579-3.935-5.366-3.893-8.49
					C1038.774,150.65,1040.982,146.145,1044.027,143.315z"/>
				<path class="st5" d="M1096.131,135.771c4.667,0.943,9.368,1.731,14.071,2.486c1.557,0.25,3.021-0.217,3.6-1.876
					c1.097-3.141,5.769-2.992,7.486-1.223c1.023,1.055,2.091,2.09,3.257,2.978c0.813,0.62,1.811,1.018,2.759,1.438
					c1.473,0.654,3.131,1.017,4.429,1.911c2.028,1.397,3.822,3.136,5.714,4.729c-0.085,0.176-0.171,0.351-0.257,0.526
					c-2.53,0.199-5.059,0.399-7.862,0.619c1.094,1.321,1.977,2.388,2.859,3.454c-0.09,0.178-0.179,0.357-0.269,0.536
					c-1.199,0.138-2.404,0.43-3.594,0.383c-3.352-0.132-6.755-0.09-10.034-0.691c-5.788-1.061-11.4-0.405-17.171,0.29
					c-1.761,0.212-3.498,0.484-5.215,0.807c-0.51-1.336,0.334-3.129,0.053-4.334l11.384-2.798c-0.027-0.178-0.055-0.358-0.083-0.536
					c-4.294,0.555-8.501,1.454-12.642,2.613c-0.402-0.098-0.79-0.225-0.984-0.482c-1.641-3.765-1.192-7.775,0.727-11.146
					C1094.949,135.545,1095.539,135.651,1096.131,135.771z"/>
				<path class="st5" d="M963.313,129.447c1.678-0.649,3.429-1.199,5.167-1.456c2.457-0.364,3.103,0.262,4.504,3.568
					c3.703,0.172,5.816,0.414,9.422,0.39c1.128,2.233,1.474,4.705-0.31,7.108c-0.627,0.883-1.092,1.462-2.055,1.923
					c-2.198-1.744-4.936-2.881-7.879-2.62c0,0-2.711,0.872-3.027,0.996c-1.422,0.557-3.487,0.807-4.223-0.703
					c-1.119-2.298-1.768-4.874-2.446-7.393C962.337,130.778,962.879,129.616,963.313,129.447z"/>
			</g>
		</g>
	</g>
</g>
<g>
	<path class="st0" d="M717.243,133.782c0,0,2.23-8.935,19.211-12.261c7.679-1.504,28.898,6.094,42.679,7.571
		c15.809,1.694,32.503,9.2,37.343,11.061c6.898,2.652,20.493,9.807,15.271,14.251c-8.724,7.423-12.782,12.302-16.159,17.328
		c-7.291,10.851-18.85,7.883-26.562,11.108c-4.844,2.026-7.412,14.173-25.596-1.628c-9.801-8.516-27.088-22.648-33.598-37.15
		C725.366,137.735,715.594,135.281,717.243,133.782z"/>
	<g>
		<path class="st1" d="M736.544,152.53c0.314-1.039,0.758-2.057,1.312-3.039c0.871-1.544,2.015-2.994,3.365-4.281
			c0.535-0.069,1.036-0.202,1.47-0.435c0.427-0.229,0.852-0.439,1.277-0.633c-1.547,1.438-2.876,3.309-3.819,5.363
			c-0.488,1.062-0.868,2.174-1.124,3.299c-0.223,0.98-0.354,1.971-0.367,2.951c-0.041,3.124,0.885,6.911,3.893,8.49
			c-1.219-0.163-2.437-0.448-3.63-0.806c-0.538-0.475-1.012-1.06-1.407-1.773C735.805,158.755,735.627,155.56,736.544,152.53z"/>
		<path class="st2" d="M710.473,137.001c3.088-5.215,6.004-9.74,6.932-10.818c0.193,0.045,0.187-0.234,0.238-0.13
			c0.167-0.339,0.265-0.209,0.45-0.504c-0.053,0.188-0.104,0.376-0.15,0.563c-1.393,4.576-1.224,11.97-6.701,13.163
			c-0.665,0.124-1.11-0.631-1.119-1.344c0.002-0.001,0.003-0.002,0.005-0.003c-0.002,0.001-0.003,0.002-0.005,0.003
			C710.119,137.571,710.224,137.221,710.473,137.001z"/>
		<g>
			<path class="st3" d="M795.899,148.629l-12.728,3.128c3.749-1.47,7.54-2.772,11.388-3.849c-0.402-0.098-0.79-0.225-0.984-0.482
				c-1.641-3.765-1.192-7.775,0.727-11.146c-0.11-0.017-0.221-0.038-0.33-0.053c-2.344-0.331-4.648-0.303-6.866,0.838
				c-1.208,0.622-2.42,1.493-3.235,2.555c-0.949,1.237-2.004,1.71-3.457,1.646c-5.83-0.26-11.526,0.416-16.955,2.649
				c-2.163,0.891-4.312,0.878-6.363,0.013c-1.573-0.663-3.113-1.077-4.634-1.254c-2.922,0.797-4.998,2.986-5.982,5.926
				c-1.947,6.234,1.768,12.276,8.347,13.296c-0.605,0.458,0.249,1.335-0.085,1.397c-1.766,0.479-3.697,1.018-5.623,1.404
				c5.326,0.174,10.652-0.102,15.937-0.88c2.564-0.376,5.182-1.269,7.463-2.503c7.41-4.007,15.128-6.808,23.329-8.351
				C795.336,151.627,796.181,149.834,795.899,148.629z"/>
			<path class="st3" d="M748.039,126.379c0.304-1.782,1.268-3.351,2.624-4.259c-2.065-0.207-4.181-0.083-6.34,0.33
				c-1.991,0.381-3.703,0.272-5.538-0.828c-2.559-1.534-5.481-1.008-8.289-0.657c-2.037,0.255-4.059,0.644-6.098,0.873
				c-2.645,0.296-4.778,1.278-6.305,3.711c-0.053,0.188-0.104,0.376-0.15,0.563c-1.393,4.576-1.224,11.97-6.701,13.163
				c-0.665,0.124-1.11-0.631-1.119-1.344c-0.431,0.241-0.812,0.76-1.44,0.675c0.143,0.118,0.286,0.241,0.431,0.374
				c0.198,0.136,0.718,1.075-0.085,1.397c-2.336,0.435-4.995,0.067-6.296-2.281c-0.158-0.236-0.181-0.465-0.108-0.672
				c-3.854-1.211-9.55-1.195-12.226-2.769c-2.748-1.614-7.343-2.152-10.51-1.76c-0.002,0-0.004,0.001-0.006,0.001
				c1.428,1.827,2.206,3.943,1.079,6.221c-0.389,0.834-0.935,1.56-1.703,2.06c0.007,0.004,0.014,0.008,0.021,0.012
				c2.608,1.475,5.689,3.414,8.695,3.279c1.292-0.058,7.168,2.016,8.469,2.364c2.159,0.577,4.86,0.035,7.05,0.43
				c1.246,0.225,1.994,0.676,2.56,1.777c1.031,2.008,2.216,3.896,4.622,4.562c0.487,0.134,0.952,0.493,1.332,0.849
				c3.51,3.279,7.882,4.285,12.456,4.75c4.385,0.446,8.41,2.086,12.497,3.584c0.643,0.236,1.299,0.455,1.962,0.654
				c-0.538-0.475-1.012-1.06-1.407-1.773c-1.71-2.91-1.888-6.106-0.971-9.136c0.314-1.039,0.758-2.057,1.312-3.039
				c0.871-1.544,2.015-2.994,3.365-4.281c-1.318,0.169-2.853-0.067-4.175-0.265c-0.72-0.107-1.587-1.387-1.807-2.276
				c-0.687-2.776-1.135-5.614-1.571-8.445c-0.066-0.43,0.299-1.169,0.68-1.388c3.41-1.948,6.926-3.125,10.872-1.479
				c1.284,0.535,2.584,0.837,3.894,0.988C747.874,130.625,747.629,128.202,748.039,126.379z"/>
		</g>
		<path class="st2" d="M702.734,138.097c-0.158-0.236-0.181-0.465-0.108-0.672c2.264-0.458,2.919-1.073,3.615-0.596
			c0.822,0.633,1.61,1.089,2.443,1.777c-0.053-0.007-0.106-0.017-0.162-0.033c0.056,0.016,0.11,0.026,0.162,0.033
			c0.143,0.118,0.286,0.241,0.431,0.374c0.198,0.136,0.718,1.075-0.085,1.397C706.693,140.813,704.035,140.445,702.734,138.097z"/>
		<g>
			<g>
				<path d="M713.633,126.889c1.203-1.376,1.778-7.188-1.572-5.701c-0.803,0.322-0.539,1.976-0.822,3.238
					c-0.532-0.074-1.533,0.113-1.397-0.085c0.566-2.523-0.246-4.194-2.392-5.426c-2.659-0.368-4.637-1.295-7.428,2.765
					c0,0-0.26,0.048-0.519-0.029c-0.197-0.71-0.777-1.398-2.28-2.616c0.922-0.319,1.48-0.505,2.579-0.811
					c0.27-0.075-3.898-1.8-3.622-1.872c0.421-0.111,5.227-0.885,7.552-0.824c3.539,0.093,5.227-0.065,7.382,0.115
					c4.794,0.398,4.766,3.492,4.415,8.482c-0.059,0.836,0.296,3.005,0.701,3.772c-0.071,0.14-0.139,0.274-0.206,0.404
					C715.202,127.78,713.567,127.362,713.633,126.889z"/>
				<path class="st4" d="M698.601,127.131l1.343-3.013l-0.357-1.47c0.016-0.368,0.003-0.685-0.084-0.997
					c0.259,0.078,0.519,0.029,0.519,0.029c2.756-4.085,4.905-3.331,7.564-2.963c2.25,0.777,2.822,3.101,2.256,5.624
					c-0.136,0.198,0.866,0.011,1.397,0.085c0.283-1.261-0.365-2.085,0.578-3.389c3.349-1.487,3.552,3.31,2.256,5.624
					c-0.065,0.473,1.129,1.12,1.952,1.639c-0.283,0.551-0.536,1.023-0.776,1.449l0.076,0.032l-4.626,7.887
					c0,0-1.199,1.305-1.846,1.096c-0.392-0.126-1.055-0.71-1.517-1.151c-0.363-0.25-0.726-0.499-1.095-0.783
					c0.1-0.021,0.199-0.043,0.299-0.065c0.046-0.634-0.995-1.614-1.459-1.547c-4.329,0.631-5.59-0.574-5.053-4.871l-0.111-1.058
					c-0.01,0.041-0.019,0.082-0.029,0.122c0,0.002-0.004,0.001-0.004-0.001c0.007-0.066,0.016-0.126,0.026-0.187l-0.139-1.33
					L698.601,127.131z"/>
			</g>
			<g>
				<path class="st5" d="M749.114,132.346c-1.241-1.721-1.485-4.144-1.076-5.967c0.304-1.782,1.268-3.351,2.624-4.259
					c2.745,0.276,5.398,1.14,7.94,2.708c1.287,0.794,2.694,1.453,4.122,1.953c0.421,0.147,0.844,0.29,1.267,0.43
					c1.294,0.5,2.579,1,3.842,1.614c1.127,0.547,3.951,1.093,4.191,2.545c0.098,0.595,0.061,2.432,0.445,3.603
					c-1.078,1.586-2.906,2.693-4.92,1.716c-1.87,1.97-3.81,1.133-4.956-1.141c-0.239-0.474-0.517-0.925-0.766-1.393
					c-1.344-2.528-1.339-2.5-4.227-2.179C754.768,132.289,751.918,132.668,749.114,132.346z"/>
				<path class="st5" d="M743.969,144.142c2.83-1.291,5.628-1.801,8.492-1.468c-2.923,0.797-4.998,2.986-5.982,5.926
					c-1.947,6.234,1.768,12.276,8.347,13.296c-0.605,0.458,0.249,1.335-0.085,1.397c-1.766,0.479-3.697,1.018-5.623,1.404
					c-1.96-0.064-3.92-0.187-5.878-0.372c-0.229-0.022-0.458-0.049-0.687-0.08c-3.008-1.579-3.935-5.366-3.893-8.49
					C738.716,151.477,740.924,146.971,743.969,144.142z"/>
				<path class="st5" d="M796.072,136.597c4.667,0.943,9.368,1.731,14.071,2.486c1.557,0.25,3.021-0.217,3.6-1.876
					c1.097-3.141,5.769-2.992,7.486-1.223c1.023,1.055,2.091,2.09,3.257,2.978c0.813,0.62,1.811,1.018,2.759,1.438
					c1.473,0.654,3.131,1.017,4.429,1.911c2.028,1.397,3.822,3.136,5.714,4.729c-0.085,0.176-0.17,0.351-0.257,0.526
					c-2.53,0.199-5.059,0.399-7.862,0.619c1.094,1.321,1.977,2.388,2.859,3.454c-0.09,0.178-0.179,0.357-0.269,0.536
					c-1.199,0.138-2.404,0.43-3.594,0.383c-3.352-0.132-6.755-0.09-10.034-0.691c-5.788-1.061-11.4-0.405-17.171,0.29
					c-1.761,0.212-3.498,0.484-5.215,0.807c-0.51-1.336,0.334-3.129,0.053-4.334l11.384-2.798c-0.027-0.178-0.055-0.358-0.083-0.536
					c-4.294,0.555-8.501,1.454-12.642,2.613c-0.402-0.098-0.79-0.225-0.984-0.482c-1.641-3.765-1.192-7.775,0.727-11.146
					C794.89,136.371,795.48,136.478,796.072,136.597z"/>
				<path class="st5" d="M663.255,130.274c1.678-0.649,3.429-1.199,5.167-1.456c2.457-0.364,3.103,0.262,4.504,3.568
					c3.703,0.172,5.816,0.414,9.422,0.39c1.128,2.233,1.474,4.705-0.31,7.108c-0.627,0.883-1.092,1.462-2.055,1.923
					c-2.198-1.744-4.936-2.881-7.879-2.62c0,0-2.711,0.872-3.027,0.996c-1.422,0.557-3.487,0.807-4.223-0.703
					c-1.119-2.298-1.768-4.874-2.446-7.393C662.279,131.604,662.82,130.443,663.255,130.274z"/>
			</g>
		</g>
	</g>
</g>
<g>
	<path class="st0" d="M422.733,128.706c0,0,19.346-6.608,27.069-5.354c7.724,1.254,21.67,7.993,35.312,10.437
		c15.916,2.852,39.034,10.128,43.39,12.94c6.208,4.008,5.345,7.493,0.533,13.847c-5.657,7.471-14.55,9.18-20.391,10.775
		c-5.866,1.602-16.027,8.13-21.153,9.267s-21.144,8.083-35.708-11.107c-7.85-10.343-18.835-28.167-18.835-28.167
		S420.812,129.836,422.733,128.706z"/>
	<g>
		<path class="st1" d="M436.485,153.631c0.314-1.039,0.758-2.057,1.312-3.039c0.871-1.544,2.014-2.994,3.366-4.281
			c0.535-0.069,1.036-0.202,1.47-0.435c0.427-0.229,0.852-0.439,1.277-0.633c-1.547,1.438-2.876,3.309-3.819,5.363
			c-0.488,1.062-0.868,2.174-1.124,3.299c-0.223,0.98-0.354,1.971-0.367,2.951c-0.042,3.124,0.885,6.911,3.893,8.49
			c-1.219-0.163-2.437-0.448-3.63-0.806c-0.538-0.475-1.012-1.06-1.407-1.773C435.746,159.857,435.568,156.661,436.485,153.631z"/>
		<path class="st2" d="M410.414,138.102c3.088-5.215,6.004-9.74,6.932-10.818c0.193,0.045,0.187-0.234,0.238-0.13
			c0.167-0.339,0.265-0.209,0.45-0.504c-0.053,0.188-0.104,0.376-0.15,0.563c-1.393,4.576-1.224,11.97-6.701,13.163
			c-0.665,0.124-1.11-0.631-1.119-1.344c0.002-0.001,0.003-0.002,0.005-0.003c-0.002,0.001-0.003,0.002-0.005,0.003
			C410.06,138.672,410.165,138.322,410.414,138.102z"/>
		<g>
			<path class="st3" d="M495.84,149.731l-12.728,3.128c3.749-1.47,7.54-2.772,11.388-3.849c-0.402-0.098-0.79-0.225-0.984-0.482
				c-1.641-3.765-1.192-7.775,0.727-11.146c-0.11-0.017-0.221-0.038-0.33-0.053c-2.344-0.331-4.648-0.303-6.866,0.838
				c-1.208,0.622-2.42,1.493-3.235,2.555c-0.949,1.237-2.004,1.71-3.457,1.646c-5.83-0.26-11.526,0.416-16.955,2.649
				c-2.163,0.891-4.312,0.878-6.363,0.013c-1.573-0.663-3.113-1.077-4.634-1.254c-2.923,0.797-4.998,2.986-5.982,5.926
				c-1.947,6.234,1.768,12.276,8.347,13.296c-0.605,0.458,0.249,1.335-0.085,1.397c-1.766,0.479-3.697,1.018-5.623,1.404
				c5.326,0.174,10.652-0.102,15.937-0.88c2.564-0.376,5.182-1.269,7.463-2.503c7.41-4.007,15.128-6.808,23.329-8.351
				C495.277,152.728,496.122,150.935,495.84,149.731z"/>
			<path class="st3" d="M447.98,127.48c0.304-1.782,1.268-3.351,2.624-4.259c-2.065-0.207-4.181-0.083-6.34,0.33
				c-1.991,0.381-3.703,0.272-5.538-0.828c-2.559-1.534-5.481-1.008-8.289-0.657c-2.037,0.255-4.059,0.644-6.098,0.873
				c-2.645,0.296-4.778,1.278-6.305,3.711c-0.053,0.188-0.104,0.376-0.15,0.563c-1.393,4.576-1.224,11.97-6.701,13.163
				c-0.665,0.124-1.11-0.631-1.119-1.344c-0.431,0.241-0.812,0.76-1.44,0.675c0.142,0.118,0.286,0.241,0.431,0.374
				c0.198,0.136,0.718,1.075-0.085,1.397c-2.336,0.435-4.995,0.067-6.296-2.281c-0.158-0.236-0.181-0.465-0.108-0.672
				c-3.854-1.211-9.55-1.195-12.227-2.769c-2.748-1.614-7.343-2.152-10.51-1.759c-0.002,0-0.004,0.001-0.006,0.001
				c1.428,1.827,2.206,3.943,1.079,6.221c-0.389,0.834-0.935,1.56-1.703,2.06c0.007,0.004,0.014,0.008,0.021,0.012
				c2.608,1.475,5.69,3.414,8.695,3.279c1.292-0.058,7.168,2.016,8.469,2.364c2.159,0.577,4.86,0.035,7.05,0.43
				c1.246,0.225,1.994,0.676,2.56,1.777c1.031,2.007,2.216,3.896,4.623,4.562c0.487,0.134,0.952,0.493,1.332,0.849
				c3.51,3.279,7.882,4.285,12.456,4.75c4.385,0.446,8.41,2.086,12.497,3.584c0.643,0.236,1.299,0.455,1.962,0.654
				c-0.538-0.475-1.012-1.06-1.407-1.773c-1.71-2.91-1.888-6.106-0.971-9.136c0.314-1.039,0.758-2.057,1.312-3.039
				c0.871-1.544,2.015-2.994,3.366-4.281c-1.318,0.169-2.853-0.067-4.175-0.265c-0.72-0.107-1.587-1.387-1.807-2.276
				c-0.687-2.776-1.135-5.614-1.571-8.445c-0.066-0.43,0.299-1.169,0.68-1.388c3.41-1.948,6.926-3.125,10.872-1.479
				c1.284,0.535,2.584,0.837,3.894,0.988C447.815,131.726,447.571,129.303,447.98,127.48z"/>
		</g>
		<path class="st2" d="M402.675,139.198c-0.158-0.236-0.181-0.465-0.108-0.672c2.264-0.458,2.919-1.073,3.615-0.596
			c0.822,0.633,1.611,1.089,2.443,1.777c-0.053-0.007-0.106-0.017-0.163-0.033c0.056,0.016,0.11,0.026,0.163,0.033
			c0.143,0.118,0.286,0.241,0.431,0.374c0.198,0.136,0.718,1.075-0.085,1.397C406.634,141.914,403.976,141.546,402.675,139.198z"/>
		<g>
			<g>
				<path d="M413.574,127.99c1.203-1.376,1.778-7.188-1.572-5.701c-0.803,0.322-0.539,1.976-0.822,3.238
					c-0.532-0.074-1.533,0.113-1.397-0.085c0.566-2.523-0.246-4.194-2.392-5.426c-2.659-0.368-4.637-1.295-7.428,2.765
					c0,0-0.26,0.048-0.519-0.029c-0.197-0.71-0.777-1.398-2.28-2.616c0.922-0.319,1.48-0.505,2.579-0.811
					c0.27-0.075-3.898-1.8-3.622-1.872c0.421-0.111,5.226-0.885,7.552-0.824c3.54,0.093,5.227-0.065,7.382,0.115
					c4.794,0.398,4.766,3.492,4.415,8.482c-0.059,0.836,0.296,3.005,0.701,3.772c-0.071,0.14-0.139,0.274-0.206,0.404
					C415.143,128.881,413.508,128.463,413.574,127.99z"/>
				<path class="st4" d="M398.542,128.232l1.343-3.013l-0.357-1.47c0.016-0.368,0.003-0.685-0.084-0.997
					c0.259,0.078,0.519,0.029,0.519,0.029c2.756-4.085,4.905-3.331,7.564-2.963c2.25,0.777,2.822,3.101,2.256,5.624
					c-0.136,0.198,0.866,0.011,1.397,0.085c0.283-1.261-0.365-2.085,0.578-3.389c3.349-1.487,3.552,3.31,2.256,5.624
					c-0.065,0.473,1.129,1.12,1.952,1.639c-0.283,0.551-0.536,1.023-0.775,1.449l0.076,0.032l-4.626,7.887
					c0,0-1.199,1.305-1.846,1.096c-0.392-0.126-1.055-0.71-1.517-1.151c-0.363-0.25-0.726-0.499-1.095-0.783
					c0.1-0.021,0.199-0.043,0.299-0.065c0.046-0.634-0.995-1.614-1.459-1.547c-4.329,0.631-5.59-0.574-5.053-4.871l-0.111-1.058
					c-0.01,0.041-0.019,0.082-0.029,0.122c0,0.002-0.004,0.001-0.004-0.001c0.007-0.066,0.017-0.126,0.026-0.187l-0.139-1.33
					L398.542,128.232z"/>
			</g>
			<g>
				<path class="st5" d="M449.055,133.447c-1.241-1.721-1.485-4.144-1.076-5.967c0.304-1.782,1.268-3.351,2.624-4.259
					c2.745,0.276,5.398,1.14,7.94,2.708c1.287,0.794,2.694,1.453,4.122,1.953c0.421,0.147,0.844,0.29,1.267,0.43
					c1.294,0.5,2.579,1,3.842,1.614c1.127,0.547,3.952,1.093,4.191,2.545c0.098,0.595,0.061,2.432,0.445,3.603
					c-1.078,1.586-2.906,2.693-4.92,1.716c-1.87,1.97-3.81,1.133-4.956-1.141c-0.239-0.474-0.517-0.925-0.766-1.393
					c-1.344-2.528-1.339-2.5-4.227-2.179C454.709,133.391,451.86,133.769,449.055,133.447z"/>
				<path class="st5" d="M443.91,145.243c2.83-1.291,5.628-1.801,8.492-1.468c-2.923,0.797-4.998,2.986-5.982,5.926
					c-1.947,6.234,1.768,12.276,8.347,13.296c-0.605,0.458,0.249,1.335-0.085,1.397c-1.766,0.479-3.697,1.018-5.623,1.404
					c-1.96-0.064-3.92-0.187-5.878-0.372c-0.229-0.022-0.458-0.049-0.687-0.08c-3.008-1.579-3.935-5.366-3.893-8.49
					C438.657,152.578,440.865,148.073,443.91,145.243z"/>
				<path class="st5" d="M496.013,137.699c4.667,0.943,9.368,1.731,14.071,2.486c1.557,0.25,3.022-0.217,3.6-1.876
					c1.097-3.141,5.769-2.992,7.486-1.223c1.023,1.055,2.091,2.09,3.257,2.978c0.813,0.62,1.811,1.018,2.759,1.438
					c1.473,0.654,3.131,1.017,4.429,1.911c2.028,1.397,3.822,3.136,5.714,4.729c-0.085,0.176-0.17,0.351-0.256,0.526
					c-2.53,0.199-5.059,0.399-7.863,0.619c1.094,1.321,1.977,2.388,2.859,3.454c-0.09,0.178-0.179,0.357-0.269,0.536
					c-1.199,0.138-2.404,0.43-3.594,0.383c-3.352-0.132-6.755-0.09-10.034-0.691c-5.788-1.061-11.4-0.405-17.171,0.29
					c-1.761,0.212-3.498,0.484-5.215,0.807c-0.51-1.336,0.335-3.129,0.053-4.334l11.384-2.798c-0.027-0.178-0.055-0.358-0.083-0.536
					c-4.294,0.555-8.501,1.454-12.642,2.613c-0.402-0.098-0.79-0.225-0.984-0.482c-1.641-3.765-1.192-7.775,0.727-11.146
					C494.831,137.472,495.421,137.579,496.013,137.699z"/>
				<path class="st5" d="M363.195,131.375c1.678-0.649,3.429-1.199,5.167-1.456c2.457-0.364,3.103,0.262,4.504,3.568
					c3.703,0.172,5.816,0.414,9.422,0.39c1.128,2.233,1.474,4.705-0.31,7.108c-0.627,0.883-1.092,1.462-2.055,1.923
					c-2.198-1.744-4.936-2.881-7.879-2.62c0,0-2.711,0.872-3.027,0.996c-1.422,0.557-3.487,0.807-4.223-0.703
					c-1.119-2.298-1.768-4.874-2.446-7.393C362.22,132.706,362.761,131.544,363.195,131.375z"/>
			</g>
		</g>
	</g>
</g>
<g>
	<path class="st0" d="M123.599,129.239c0,0,19.346-6.608,27.069-5.354c7.724,1.254,21.378,7.148,35.19,8.296
		c13.812,1.148,36.341,0.774,40.677,2.678c4.336,1.905,7.047,4.882,5.066,9.674s-1.128,8.431-8.821,10.518
		s-17.562,0.789-21.57,5.362c-4.008,4.573-9.206,10.896-14.333,12.033c-5.126,1.137-20.242,1.152-29.221-8.226
		s-23.84-22.342-23.84-22.342S121.678,130.369,123.599,129.239z"/>
	<g>
		<path class="st1" d="M136.426,154.242c0.314-1.039,0.758-2.057,1.312-3.039c0.871-1.544,2.014-2.994,3.365-4.281
			c0.535-0.069,1.036-0.202,1.47-0.435c0.427-0.229,0.852-0.439,1.277-0.633c-1.547,1.438-2.876,3.309-3.819,5.363
			c-0.488,1.062-0.868,2.174-1.124,3.299c-0.223,0.98-0.354,1.971-0.367,2.951c-0.042,3.124,0.885,6.911,3.893,8.49
			c-1.219-0.163-2.437-0.448-3.63-0.806c-0.538-0.475-1.012-1.06-1.407-1.773C135.687,160.468,135.51,157.272,136.426,154.242z"/>
		<path class="st2" d="M110.355,138.713c3.088-5.215,6.004-9.74,6.932-10.818c0.193,0.045,0.187-0.234,0.238-0.13
			c0.167-0.339,0.265-0.209,0.45-0.504c-0.053,0.188-0.104,0.376-0.15,0.563c-1.393,4.576-1.224,11.97-6.701,13.163
			c-0.665,0.124-1.11-0.631-1.119-1.344c0.002-0.001,0.003-0.002,0.005-0.003c-0.002,0.001-0.003,0.002-0.005,0.003
			C110.001,139.283,110.106,138.934,110.355,138.713z"/>
		<g>
			<path class="st3" d="M195.781,150.342l-12.728,3.128c3.749-1.47,7.54-2.772,11.388-3.849c-0.402-0.098-0.79-0.225-0.984-0.482
				c-1.641-3.765-1.192-7.775,0.727-11.146c-0.11-0.017-0.221-0.038-0.33-0.053c-2.344-0.331-4.648-0.303-6.866,0.838
				c-1.208,0.622-2.42,1.493-3.235,2.555c-0.949,1.237-2.004,1.71-3.457,1.646c-5.83-0.26-11.526,0.416-16.955,2.649
				c-2.163,0.891-4.312,0.878-6.363,0.013c-1.573-0.663-3.113-1.077-4.634-1.254c-2.923,0.797-4.998,2.986-5.982,5.926
				c-1.947,6.234,1.768,12.276,8.347,13.296c-0.605,0.458,0.249,1.335-0.085,1.397c-1.766,0.479-3.697,1.018-5.623,1.404
				c5.326,0.174,10.652-0.102,15.937-0.88c2.564-0.376,5.182-1.269,7.463-2.503c7.41-4.007,15.128-6.808,23.329-8.351
				C195.219,153.339,196.063,151.547,195.781,150.342z"/>
			<path class="st3" d="M147.921,128.091c0.304-1.782,1.268-3.351,2.624-4.259c-2.065-0.207-4.181-0.083-6.34,0.33
				c-1.991,0.381-3.703,0.272-5.538-0.828c-2.559-1.534-5.481-1.008-8.289-0.657c-2.037,0.255-4.059,0.644-6.098,0.873
				c-2.645,0.296-4.778,1.278-6.305,3.711c-0.053,0.188-0.104,0.376-0.15,0.563c-1.393,4.576-1.224,11.97-6.701,13.163
				c-0.665,0.124-1.11-0.631-1.119-1.344c-0.431,0.241-0.812,0.76-1.44,0.675c0.143,0.118,0.286,0.241,0.431,0.374
				c0.198,0.136,0.718,1.075-0.085,1.397c-2.336,0.435-4.995,0.067-6.296-2.281c-0.158-0.236-0.181-0.465-0.108-0.672
				c-3.854-1.211-9.55-1.195-12.226-2.769c-2.748-1.614-7.343-2.152-10.51-1.76c-0.002,0-0.004,0.001-0.006,0.001
				c1.428,1.827,2.206,3.943,1.079,6.221c-0.389,0.834-0.935,1.56-1.703,2.06c0.007,0.004,0.014,0.008,0.021,0.012
				c2.608,1.475,5.689,3.414,8.695,3.279c1.292-0.058,7.168,2.016,8.469,2.364c2.159,0.577,4.86,0.035,7.05,0.43
				c1.246,0.225,1.994,0.676,2.56,1.777c1.031,2.008,2.216,3.896,4.623,4.562c0.487,0.134,0.952,0.493,1.332,0.849
				c3.51,3.279,7.882,4.285,12.456,4.75c4.385,0.446,8.41,2.086,12.497,3.584c0.643,0.236,1.299,0.455,1.962,0.654
				c-0.538-0.475-1.012-1.06-1.407-1.773c-1.71-2.91-1.888-6.106-0.971-9.136c0.314-1.039,0.758-2.057,1.312-3.039
				c0.871-1.544,2.015-2.994,3.365-4.281c-1.318,0.169-2.853-0.067-4.175-0.265c-0.72-0.107-1.587-1.387-1.807-2.276
				c-0.687-2.776-1.135-5.614-1.571-8.445c-0.066-0.43,0.299-1.169,0.68-1.388c3.41-1.948,6.926-3.125,10.872-1.479
				c1.284,0.535,2.584,0.837,3.894,0.988C147.756,132.337,147.512,129.914,147.921,128.091z"/>
		</g>
		<path class="st2" d="M102.616,139.809c-0.158-0.236-0.181-0.465-0.108-0.672c2.264-0.458,2.919-1.073,3.615-0.596
			c0.822,0.633,1.611,1.089,2.443,1.777c-0.053-0.007-0.106-0.017-0.162-0.033c0.056,0.016,0.11,0.026,0.162,0.033
			c0.143,0.118,0.286,0.241,0.431,0.374c0.198,0.136,0.718,1.075-0.085,1.397C106.576,142.526,103.917,142.157,102.616,139.809z"/>
		<g>
			<g>
				<path d="M113.515,128.601c1.203-1.376,1.778-7.188-1.572-5.701c-0.803,0.322-0.539,1.976-0.822,3.238
					c-0.532-0.074-1.533,0.113-1.397-0.085c0.566-2.523-0.246-4.194-2.392-5.426c-2.659-0.368-4.637-1.295-7.428,2.765
					c0,0-0.26,0.048-0.519-0.029c-0.197-0.71-0.777-1.398-2.28-2.616c0.922-0.319,1.48-0.505,2.579-0.811
					c0.27-0.075-3.899-1.8-3.622-1.872c0.421-0.111,5.226-0.885,7.552-0.824c3.54,0.093,5.227-0.065,7.382,0.115
					c4.794,0.398,4.766,3.492,4.415,8.482c-0.059,0.836,0.296,3.005,0.701,3.772c-0.071,0.14-0.139,0.274-0.206,0.404
					C115.084,129.493,113.45,129.074,113.515,128.601z"/>
				<path class="st4" d="M98.483,128.843l1.343-3.013l-0.357-1.47c0.016-0.368,0.003-0.685-0.084-0.997
					c0.259,0.078,0.519,0.029,0.519,0.029c2.756-4.085,4.905-3.331,7.564-2.963c2.25,0.777,2.822,3.101,2.256,5.624
					c-0.136,0.198,0.866,0.011,1.397,0.085c0.283-1.261-0.365-2.085,0.578-3.389c3.349-1.487,3.552,3.31,2.256,5.624
					c-0.065,0.473,1.129,1.12,1.952,1.639c-0.283,0.551-0.536,1.023-0.775,1.449l0.076,0.032l-4.626,7.887
					c0,0-1.199,1.305-1.846,1.096c-0.392-0.126-1.055-0.71-1.517-1.151c-0.363-0.25-0.726-0.499-1.095-0.783
					c0.1-0.021,0.199-0.043,0.299-0.065c0.046-0.634-0.995-1.614-1.459-1.547c-4.329,0.631-5.59-0.574-5.053-4.871l-0.111-1.058
					c-0.01,0.041-0.019,0.082-0.029,0.122c0,0.002-0.004,0.001-0.004-0.001c0.007-0.066,0.016-0.126,0.026-0.187l-0.139-1.33
					L98.483,128.843z"/>
			</g>
			<g>
				<path class="st5" d="M148.997,134.058c-1.241-1.721-1.485-4.144-1.076-5.967c0.304-1.782,1.268-3.351,2.624-4.259
					c2.745,0.276,5.398,1.14,7.94,2.708c1.287,0.794,2.694,1.453,4.122,1.953c0.421,0.147,0.844,0.29,1.267,0.43
					c1.294,0.5,2.579,1,3.842,1.614c1.127,0.547,3.951,1.093,4.191,2.545c0.098,0.595,0.061,2.432,0.445,3.603
					c-1.078,1.586-2.906,2.693-4.92,1.716c-1.87,1.97-3.81,1.133-4.956-1.141c-0.239-0.474-0.517-0.925-0.766-1.393
					c-1.344-2.528-1.339-2.5-4.227-2.179C154.65,134.002,151.801,134.38,148.997,134.058z"/>
				<path class="st5" d="M143.851,145.854c2.83-1.291,5.628-1.801,8.492-1.468c-2.923,0.797-4.998,2.986-5.982,5.926
					c-1.947,6.234,1.768,12.276,8.347,13.296c-0.605,0.458,0.249,1.335-0.085,1.397c-1.766,0.479-3.697,1.018-5.623,1.404
					c-1.96-0.064-3.92-0.187-5.878-0.372c-0.229-0.022-0.458-0.049-0.687-0.08c-3.008-1.579-3.935-5.366-3.893-8.49
					C138.598,153.19,140.806,148.684,143.851,145.854z"/>
				<path class="st5" d="M195.954,138.31c4.667,0.943,9.368,1.731,14.071,2.486c1.557,0.25,3.021-0.217,3.6-1.876
					c1.097-3.141,5.769-2.992,7.486-1.223c1.023,1.055,2.091,2.09,3.257,2.978c0.814,0.62,1.811,1.018,2.759,1.438
					c1.473,0.654,3.131,1.017,4.429,1.911c2.028,1.397,3.822,3.136,5.714,4.729c-0.085,0.176-0.17,0.351-0.257,0.526
					c-2.53,0.199-5.059,0.399-7.862,0.619c1.094,1.321,1.977,2.388,2.859,3.454c-0.09,0.178-0.179,0.357-0.269,0.536
					c-1.199,0.138-2.404,0.43-3.594,0.383c-3.352-0.132-6.755-0.09-10.034-0.691c-5.788-1.061-11.4-0.405-17.171,0.29
					c-1.761,0.212-3.498,0.484-5.215,0.807c-0.51-1.336,0.335-3.129,0.053-4.334l11.384-2.798c-0.027-0.178-0.055-0.358-0.083-0.536
					c-4.294,0.555-8.501,1.454-12.642,2.613c-0.402-0.098-0.79-0.225-0.984-0.482c-1.641-3.765-1.192-7.775,0.727-11.146
					C194.772,138.084,195.362,138.19,195.954,138.31z"/>
				<path class="st5" d="M63.137,131.986c1.678-0.649,3.429-1.199,5.167-1.456c2.457-0.364,3.103,0.262,4.504,3.568
					c3.703,0.172,5.816,0.414,9.422,0.39c1.128,2.233,1.474,4.705-0.31,7.108c-0.627,0.883-1.092,1.462-2.055,1.923
					c-2.198-1.744-4.936-2.881-7.879-2.62c0,0-2.711,0.872-3.027,0.996c-1.422,0.557-3.487,0.807-4.223-0.703
					c-1.119-2.298-1.768-4.874-2.446-7.393C62.161,133.317,62.703,132.155,63.137,131.986z"/>
			</g>
		</g>
	</g>
</g>
<g>
	<path class="st0" d="M2826.516,125.864c0,0,19.345-6.608,27.069-5.354s21.379,7.148,35.19,8.296
		c13.812,1.148,36.34,0.774,40.677,2.678c4.337,1.905,7.047,4.882,5.066,9.674c-1.98,4.792-1.128,8.431-8.821,10.518
		s-17.562,0.789-21.57,5.362s-9.207,10.896-14.333,12.033s-20.241,1.152-29.221-8.226c-8.979-9.378-23.84-22.342-23.84-22.342
		S2824.595,126.994,2826.516,125.864z"/>
	<g>
		<path class="st1" d="M2836.956,150.867c0.314-1.039,0.758-2.057,1.312-3.039c0.871-1.544,2.015-2.994,3.365-4.281
			c0.535-0.069,1.036-0.202,1.47-0.435c0.427-0.229,0.852-0.439,1.277-0.633c-1.547,1.438-2.876,3.309-3.819,5.363
			c-0.488,1.062-0.867,2.174-1.124,3.299c-0.223,0.98-0.354,1.971-0.367,2.951c-0.042,3.124,0.885,6.911,3.893,8.49
			c-1.219-0.163-2.437-0.448-3.63-0.806c-0.538-0.475-1.012-1.06-1.407-1.773C2836.217,157.093,2836.039,153.897,2836.956,150.867z"
			/>
		<path class="st2" d="M2810.885,135.338c3.088-5.215,6.004-9.74,6.932-10.818c0.193,0.045,0.188-0.234,0.238-0.13
			c0.167-0.339,0.265-0.209,0.45-0.504c-0.053,0.188-0.104,0.376-0.15,0.563c-1.393,4.576-1.224,11.97-6.701,13.163
			c-0.665,0.124-1.11-0.631-1.119-1.344c0.001-0.001,0.003-0.002,0.004-0.003c-0.001,0.001-0.003,0.002-0.004,0.003
			C2810.531,135.908,2810.636,135.559,2810.885,135.338z"/>
		<g>
			<path class="st3" d="M2896.311,146.967l-12.728,3.128c3.749-1.47,7.54-2.772,11.387-3.849c-0.402-0.098-0.79-0.225-0.984-0.482
				c-1.641-3.765-1.192-7.775,0.727-11.146c-0.11-0.017-0.221-0.038-0.331-0.053c-2.344-0.331-4.648-0.303-6.866,0.838
				c-1.208,0.622-2.42,1.493-3.235,2.555c-0.949,1.237-2.004,1.71-3.457,1.646c-5.83-0.26-11.527,0.416-16.955,2.649
				c-2.163,0.891-4.312,0.878-6.364,0.013c-1.573-0.663-3.113-1.077-4.634-1.254c-2.923,0.797-4.998,2.986-5.982,5.926
				c-1.948,6.234,1.768,12.276,8.347,13.296c-0.605,0.458,0.249,1.335-0.085,1.397c-1.766,0.479-3.697,1.018-5.623,1.404
				c5.326,0.174,10.652-0.102,15.937-0.88c2.563-0.376,5.182-1.269,7.463-2.503c7.41-4.007,15.128-6.808,23.329-8.351
				C2895.748,149.964,2896.593,148.172,2896.311,146.967z"/>
			<path class="st3" d="M2848.45,124.716c0.304-1.782,1.268-3.351,2.625-4.259c-2.065-0.207-4.181-0.083-6.34,0.33
				c-1.99,0.381-3.703,0.272-5.538-0.828c-2.56-1.534-5.481-1.008-8.29-0.657c-2.037,0.255-4.059,0.644-6.098,0.873
				c-2.645,0.296-4.778,1.278-6.305,3.711c-0.053,0.188-0.104,0.376-0.15,0.563c-1.393,4.576-1.224,11.97-6.701,13.163
				c-0.665,0.124-1.11-0.631-1.119-1.344c-0.432,0.241-0.812,0.76-1.44,0.675c0.143,0.118,0.286,0.241,0.432,0.374
				c0.198,0.136,0.718,1.075-0.085,1.397c-2.336,0.435-4.995,0.067-6.296-2.281c-0.158-0.236-0.181-0.465-0.108-0.672
				c-3.854-1.211-9.55-1.195-12.226-2.769c-2.748-1.614-7.343-2.152-10.51-1.76c-0.002,0-0.004,0.001-0.007,0.001
				c1.428,1.827,2.206,3.943,1.079,6.221c-0.389,0.834-0.935,1.56-1.703,2.06c0.007,0.004,0.014,0.008,0.021,0.012
				c2.608,1.475,5.689,3.414,8.695,3.279c1.292-0.058,7.168,2.016,8.469,2.364c2.159,0.577,4.86,0.035,7.05,0.43
				c1.246,0.225,1.994,0.676,2.56,1.777c1.031,2.008,2.216,3.896,4.623,4.562c0.487,0.134,0.951,0.493,1.332,0.849
				c3.51,3.279,7.883,4.285,12.456,4.75c4.385,0.446,8.41,2.086,12.497,3.584c0.643,0.236,1.299,0.455,1.962,0.654
				c-0.538-0.475-1.012-1.06-1.407-1.773c-1.71-2.91-1.888-6.106-0.971-9.136c0.314-1.039,0.758-2.057,1.312-3.039
				c0.871-1.544,2.015-2.994,3.365-4.281c-1.318,0.169-2.853-0.067-4.175-0.265c-0.72-0.107-1.587-1.387-1.807-2.276
				c-0.687-2.776-1.135-5.614-1.571-8.445c-0.066-0.43,0.299-1.169,0.68-1.388c3.41-1.948,6.926-3.125,10.872-1.479
				c1.284,0.535,2.584,0.837,3.894,0.988C2848.286,128.962,2848.041,126.539,2848.45,124.716z"/>
		</g>
		<path class="st2" d="M2803.146,136.434c-0.158-0.236-0.181-0.465-0.108-0.672c2.264-0.458,2.919-1.073,3.615-0.596
			c0.822,0.633,1.611,1.089,2.442,1.777c-0.052-0.007-0.106-0.017-0.162-0.033c0.056,0.016,0.11,0.026,0.162,0.033
			c0.143,0.118,0.286,0.241,0.432,0.374c0.198,0.136,0.718,1.075-0.085,1.397C2807.105,139.151,2804.446,138.782,2803.146,136.434z"
			/>
		<g>
			<g>
				<path d="M2814.045,125.226c1.203-1.376,1.778-7.188-1.572-5.701c-0.803,0.322-0.539,1.976-0.822,3.238
					c-0.532-0.074-1.533,0.113-1.397-0.085c0.566-2.523-0.246-4.194-2.392-5.426c-2.659-0.368-4.637-1.295-7.428,2.765
					c0,0-0.26,0.048-0.519-0.029c-0.197-0.71-0.777-1.398-2.28-2.616c0.922-0.319,1.48-0.505,2.579-0.811
					c0.27-0.075-3.898-1.8-3.622-1.872c0.421-0.111,5.226-0.885,7.552-0.824c3.54,0.093,5.227-0.065,7.382,0.115
					c4.794,0.398,4.766,3.492,4.415,8.482c-0.059,0.836,0.296,3.005,0.7,3.772c-0.071,0.14-0.139,0.274-0.206,0.404
					C2815.614,126.118,2813.979,125.699,2814.045,125.226z"/>
				<path class="st4" d="M2799.012,125.468l1.344-3.013l-0.357-1.47c0.016-0.368,0.003-0.685-0.084-0.997
					c0.259,0.078,0.519,0.029,0.519,0.029c2.756-4.085,4.905-3.331,7.564-2.963c2.25,0.777,2.822,3.101,2.256,5.624
					c-0.136,0.198,0.865,0.011,1.397,0.085c0.283-1.261-0.365-2.085,0.578-3.389c3.349-1.487,3.552,3.31,2.256,5.624
					c-0.065,0.473,1.129,1.12,1.951,1.639c-0.282,0.551-0.536,1.023-0.775,1.449l0.076,0.032l-4.626,7.887
					c0,0-1.199,1.305-1.846,1.096c-0.392-0.126-1.055-0.71-1.517-1.151c-0.363-0.25-0.726-0.499-1.095-0.783
					c0.1-0.021,0.199-0.043,0.299-0.065c0.046-0.634-0.995-1.614-1.459-1.547c-4.329,0.631-5.589-0.574-5.053-4.871l-0.111-1.058
					c-0.01,0.041-0.019,0.082-0.029,0.122c0,0.002-0.004,0.001-0.004-0.001c0.007-0.066,0.017-0.126,0.026-0.187l-0.139-1.33
					L2799.012,125.468z"/>
			</g>
			<g>
				<path class="st5" d="M2849.526,130.683c-1.24-1.721-1.485-4.144-1.076-5.967c0.304-1.782,1.268-3.351,2.625-4.259
					c2.745,0.276,5.398,1.14,7.939,2.708c1.287,0.794,2.694,1.453,4.122,1.953c0.421,0.147,0.844,0.29,1.267,0.43
					c1.294,0.5,2.579,1,3.842,1.614c1.127,0.547,3.952,1.093,4.191,2.545c0.098,0.595,0.061,2.432,0.445,3.603
					c-1.078,1.586-2.906,2.693-4.92,1.716c-1.87,1.97-3.81,1.133-4.956-1.141c-0.239-0.474-0.517-0.925-0.765-1.393
					c-1.344-2.528-1.339-2.5-4.227-2.179C2855.18,130.627,2852.33,131.005,2849.526,130.683z"/>
				<path class="st5" d="M2844.38,142.479c2.83-1.291,5.628-1.801,8.492-1.468c-2.923,0.797-4.998,2.986-5.982,5.926
					c-1.948,6.234,1.768,12.276,8.347,13.296c-0.605,0.458,0.249,1.335-0.085,1.397c-1.766,0.479-3.697,1.018-5.623,1.404
					c-1.96-0.064-3.92-0.187-5.878-0.372c-0.229-0.022-0.458-0.049-0.688-0.08c-3.008-1.579-3.935-5.366-3.893-8.49
					C2839.127,149.815,2841.335,145.309,2844.38,142.479z"/>
				<path class="st5" d="M2896.484,134.935c4.667,0.943,9.368,1.731,14.071,2.486c1.557,0.25,3.021-0.217,3.6-1.876
					c1.097-3.141,5.769-2.992,7.486-1.223c1.023,1.055,2.091,2.09,3.257,2.978c0.813,0.62,1.811,1.018,2.759,1.438
					c1.473,0.654,3.131,1.017,4.429,1.911c2.028,1.397,3.822,3.136,5.714,4.729c-0.085,0.176-0.17,0.351-0.257,0.526
					c-2.53,0.199-5.059,0.399-7.862,0.619c1.094,1.321,1.977,2.388,2.859,3.454c-0.09,0.178-0.179,0.357-0.269,0.536
					c-1.199,0.138-2.404,0.43-3.594,0.383c-3.353-0.132-6.755-0.09-10.034-0.691c-5.788-1.061-11.4-0.405-17.171,0.29
					c-1.761,0.212-3.498,0.484-5.215,0.807c-0.51-1.336,0.334-3.129,0.052-4.334l11.384-2.798c-0.027-0.178-0.055-0.358-0.083-0.536
					c-4.294,0.555-8.5,1.454-12.642,2.613c-0.402-0.098-0.79-0.225-0.984-0.482c-1.641-3.765-1.192-7.775,0.727-11.146
					C2895.302,134.709,2895.892,134.815,2896.484,134.935z"/>
				<path class="st5" d="M2763.666,128.611c1.678-0.649,3.428-1.199,5.167-1.456c2.457-0.364,3.103,0.262,4.504,3.568
					c3.703,0.172,5.816,0.414,9.422,0.39c1.128,2.233,1.474,4.705-0.31,7.108c-0.627,0.883-1.092,1.462-2.055,1.923
					c-2.198-1.744-4.936-2.881-7.879-2.62c0,0-2.711,0.872-3.026,0.996c-1.422,0.557-3.487,0.807-4.223-0.703
					c-1.119-2.298-1.769-4.874-2.446-7.393C2762.69,129.942,2763.232,128.78,2763.666,128.611z"/>
			</g>
		</g>
	</g>
</g>
<g id="Layer_2_1_">
</g>
<g>
	<g>
		<path class="st6" d="M2508.591,138.005c0.252-0.235,4.035-1.218,4.441-0.793c0.405,0.425-0.744,4.037-1.064,4.335
			C2511.649,141.845,2508.34,138.24,2508.591,138.005z M2507.909,135.804c1.904-1.773,4.841-1.748,6.56,0.055
			c1.719,1.803,1.57,4.703-0.334,6.476c-1.903,1.773-4.842,1.749-6.561-0.055C2505.855,140.477,2506.005,137.577,2507.909,135.804z"
			/>
		<path class="st0" d="M2508.591,138.005c0.252-0.235,4.035-1.218,4.441-0.793c0.405,0.425-0.744,4.037-1.064,4.335
			C2511.649,141.845,2508.34,138.24,2508.591,138.005z"/>
		<g>
			<path class="st2" d="M2508.591,138.005c-0.032,0.03-0.006,0.114,0.064,0.238c0.362-0.255,4.023-1.198,4.423-0.779
				c0.015,0.016,0.027,0.038,0.039,0.062c-0.005-0.149-0.031-0.259-0.084-0.314C2512.626,136.787,2508.843,137.771,2508.591,138.005
				z"/>
		</g>
	</g>
	<g>
		<path class="st1" d="M2513.115,137.514c0,0.003,0,0.007,0,0.011c0,0.001,0,0.001,0.001,0.001
			C2513.116,137.522,2513.116,137.519,2513.115,137.514z"/>
		<path class="st1" d="M2513.042,137.437c0.042,1.009-0.887,3.845-1.171,4.111c-0.003,0.003-0.007,0.005-0.011,0.007
			c0.049,0.015,0.086,0.014,0.109-0.007c0.278-0.259,1.185-3.029,1.148-4.022c-0.011-0.024-0.023-0.045-0.038-0.061
			C2513.068,137.454,2513.055,137.445,2513.042,137.437z"/>
	</g>
</g>
<g>
	<g>
		<path class="st6" d="M2208.633,138.005c0.252-0.235,4.035-1.218,4.44-0.793c0.406,0.425-0.744,4.037-1.064,4.335
			C2211.691,141.845,2208.381,138.24,2208.633,138.005z M2207.95,135.804c1.904-1.773,4.842-1.748,6.56,0.055
			c1.719,1.803,1.57,4.703-0.334,6.476s-4.842,1.749-6.561-0.055C2205.896,140.477,2206.047,137.577,2207.95,135.804z"/>
		<path class="st0" d="M2208.633,138.005c0.252-0.235,4.035-1.218,4.44-0.793c0.406,0.425-0.744,4.037-1.064,4.335
			C2211.691,141.845,2208.381,138.24,2208.633,138.005z"/>
		<g>
			<path class="st2" d="M2208.633,138.005c-0.032,0.03-0.006,0.114,0.064,0.238c0.362-0.255,4.023-1.198,4.423-0.779
				c0.015,0.016,0.027,0.038,0.039,0.062c-0.005-0.149-0.032-0.259-0.084-0.314C2212.667,136.787,2208.884,137.771,2208.633,138.005
				z"/>
		</g>
	</g>
	<g>
		<path class="st1" d="M2213.157,137.514c0,0.003,0,0.007,0,0.011c0,0.001,0,0.001,0.001,0.001
			C2213.158,137.522,2213.157,137.519,2213.157,137.514z"/>
		<path class="st1" d="M2213.083,137.437c0.042,1.009-0.886,3.845-1.171,4.111c-0.003,0.003-0.007,0.005-0.011,0.007
			c0.049,0.015,0.086,0.014,0.108-0.007c0.279-0.259,1.185-3.029,1.148-4.022c-0.011-0.024-0.023-0.045-0.038-0.061
			C2213.11,137.454,2213.096,137.445,2213.083,137.437z"/>
	</g>
</g>
<g>
	<g>
		<path class="st6" d="M1908.674,138.005c0.252-0.235,4.035-1.218,4.441-0.793c0.405,0.425-0.744,4.037-1.064,4.335
			C1911.732,141.845,1908.423,138.24,1908.674,138.005z M1907.992,135.804c1.904-1.773,4.841-1.748,6.56,0.055
			c1.719,1.803,1.569,4.703-0.334,6.476s-4.842,1.749-6.561-0.055C1905.938,140.477,1906.088,137.577,1907.992,135.804z"/>
		<path class="st0" d="M1908.674,138.005c0.252-0.235,4.035-1.218,4.441-0.793c0.405,0.425-0.744,4.037-1.064,4.335
			C1911.732,141.845,1908.423,138.24,1908.674,138.005z"/>
		<g>
			<path class="st2" d="M1908.674,138.005c-0.032,0.03-0.006,0.114,0.064,0.238c0.362-0.255,4.023-1.198,4.423-0.779
				c0.015,0.016,0.027,0.038,0.039,0.062c-0.005-0.149-0.032-0.259-0.084-0.314C1912.709,136.787,1908.926,137.771,1908.674,138.005
				z"/>
		</g>
	</g>
	<g>
		<path class="st1" d="M1913.199,137.514c0,0.003,0,0.007,0,0.011c0,0.001,0,0.001,0.001,0.001
			C1913.2,137.522,1913.199,137.519,1913.199,137.514z"/>
		<path class="st1" d="M1913.125,137.437c0.042,1.009-0.887,3.845-1.171,4.111c-0.003,0.003-0.007,0.005-0.011,0.007
			c0.049,0.015,0.086,0.014,0.109-0.007c0.278-0.259,1.185-3.029,1.148-4.022c-0.011-0.024-0.023-0.045-0.038-0.061
			C1913.151,137.454,1913.138,137.445,1913.125,137.437z"/>
	</g>
</g>
<g>
	<g>
		<path class="st6" d="M1608.716,138.005c0.252-0.235,4.035-1.218,4.441-0.793c0.405,0.425-0.744,4.037-1.064,4.335
			C1611.774,141.845,1608.465,138.24,1608.716,138.005z M1608.034,135.804c1.904-1.773,4.841-1.748,6.56,0.055
			c1.719,1.803,1.57,4.703-0.334,6.476c-1.903,1.773-4.842,1.749-6.561-0.055C1605.98,140.477,1606.13,137.577,1608.034,135.804z"/>
		<path class="st0" d="M1608.716,138.005c0.252-0.235,4.035-1.218,4.441-0.793c0.405,0.425-0.744,4.037-1.064,4.335
			C1611.774,141.845,1608.465,138.24,1608.716,138.005z"/>
		<g>
			<path class="st2" d="M1608.716,138.005c-0.032,0.03-0.006,0.114,0.064,0.238c0.362-0.255,4.023-1.198,4.423-0.779
				c0.015,0.016,0.027,0.038,0.039,0.062c-0.005-0.149-0.031-0.259-0.084-0.314C1612.751,136.787,1608.968,137.771,1608.716,138.005
				z"/>
		</g>
	</g>
	<g>
		<path class="st1" d="M1613.241,137.514c0,0.003,0,0.007,0,0.011c0,0.001,0.001,0.001,0.001,0.001
			C1613.241,137.522,1613.241,137.519,1613.241,137.514z"/>
		<path class="st1" d="M1613.167,137.437c0.042,1.009-0.887,3.845-1.171,4.111c-0.003,0.003-0.007,0.005-0.011,0.007
			c0.049,0.015,0.086,0.014,0.109-0.007c0.278-0.259,1.185-3.029,1.148-4.022c-0.012-0.024-0.023-0.045-0.038-0.061
			C1613.193,137.454,1613.18,137.445,1613.167,137.437z"/>
	</g>
</g>
<g>
	<g>
		<path class="st6" d="M1308.758,138.005c0.252-0.235,4.035-1.218,4.441-0.793c0.405,0.425-0.744,4.037-1.064,4.335
			C1311.816,141.845,1308.506,138.24,1308.758,138.005z M1308.076,135.804c1.904-1.773,4.841-1.748,6.56,0.055
			c1.719,1.803,1.569,4.703-0.334,6.476s-4.842,1.749-6.561-0.055C1306.021,140.477,1306.172,137.577,1308.076,135.804z"/>
		<path class="st0" d="M1308.758,138.005c0.252-0.235,4.035-1.218,4.441-0.793c0.405,0.425-0.744,4.037-1.064,4.335
			C1311.816,141.845,1308.506,138.24,1308.758,138.005z"/>
		<g>
			<path class="st2" d="M1308.758,138.005c-0.032,0.03-0.006,0.114,0.064,0.238c0.362-0.255,4.023-1.198,4.423-0.779
				c0.015,0.016,0.027,0.038,0.039,0.062c-0.005-0.149-0.032-0.259-0.084-0.314C1312.792,136.787,1309.009,137.771,1308.758,138.005
				z"/>
		</g>
	</g>
	<g>
		<path class="st1" d="M1313.282,137.514c0,0.003,0,0.007,0,0.011c0,0.001,0.001,0.001,0.001,0.001
			C1313.283,137.522,1313.283,137.519,1313.282,137.514z"/>
		<path class="st1" d="M1313.208,137.437c0.042,1.009-0.887,3.845-1.171,4.111c-0.003,0.003-0.007,0.005-0.011,0.007
			c0.049,0.015,0.086,0.014,0.109-0.007c0.278-0.259,1.185-3.029,1.148-4.022c-0.012-0.024-0.023-0.045-0.038-0.061
			C1313.235,137.454,1313.222,137.445,1313.208,137.437z"/>
	</g>
</g>
<g>
	<g>
		<path class="st6" d="M1008.799,139.005c0.252-0.235,4.035-1.218,4.441-0.793c0.405,0.425-0.744,4.037-1.064,4.335
			C1011.857,142.845,1008.548,139.24,1008.799,139.005z M1008.117,136.804c1.904-1.773,4.841-1.748,6.56,0.055
			c1.719,1.803,1.57,4.703-0.334,6.476c-1.904,1.773-4.842,1.749-6.561-0.055C1006.063,141.477,1006.213,138.577,1008.117,136.804z"
			/>
		<path class="st0" d="M1008.799,139.005c0.252-0.235,4.035-1.218,4.441-0.793c0.405,0.425-0.744,4.037-1.064,4.335
			C1011.857,142.845,1008.548,139.24,1008.799,139.005z"/>
		<g>
			<path class="st2" d="M1008.799,139.005c-0.032,0.03-0.006,0.114,0.064,0.238c0.362-0.255,4.023-1.198,4.423-0.779
				c0.015,0.016,0.027,0.038,0.039,0.062c-0.005-0.149-0.032-0.259-0.084-0.314C1012.834,137.787,1009.051,138.771,1008.799,139.005
				z"/>
		</g>
	</g>
	<g>
		<path class="st1" d="M1013.324,138.514c0,0.003,0,0.007,0,0.011c0,0.001,0.001,0.001,0.001,0.001
			C1013.325,138.522,1013.324,138.519,1013.324,138.514z"/>
		<path class="st1" d="M1013.25,138.437c0.042,1.009-0.887,3.845-1.171,4.111c-0.003,0.003-0.007,0.005-0.011,0.007
			c0.049,0.015,0.086,0.014,0.109-0.007c0.278-0.259,1.185-3.029,1.148-4.022c-0.012-0.024-0.023-0.045-0.038-0.061
			C1013.276,138.454,1013.263,138.445,1013.25,138.437z"/>
	</g>
</g>
<g>
	<g>
		<path class="st6" d="M708.841,140.005c0.252-0.235,4.035-1.218,4.441-0.793c0.405,0.425-0.744,4.037-1.064,4.335
			C711.899,143.845,708.59,140.24,708.841,140.005z M708.159,137.804c1.904-1.773,4.841-1.748,6.56,0.055
			c1.719,1.803,1.57,4.703-0.334,6.476c-1.903,1.773-4.842,1.749-6.561-0.055C706.105,142.477,706.255,139.577,708.159,137.804z"/>
		<path class="st0" d="M708.841,140.005c0.252-0.235,4.035-1.218,4.441-0.793c0.405,0.425-0.744,4.037-1.064,4.335
			C711.899,143.845,708.59,140.24,708.841,140.005z"/>
		<g>
			<path class="st2" d="M708.841,140.005c-0.032,0.03-0.006,0.114,0.064,0.238c0.362-0.255,4.023-1.198,4.423-0.779
				c0.015,0.016,0.027,0.038,0.039,0.062c-0.005-0.149-0.032-0.259-0.084-0.314C712.876,138.787,709.093,139.771,708.841,140.005z"
				/>
		</g>
	</g>
	<g>
		<path class="st1" d="M713.366,139.514c0,0.003,0,0.007,0,0.011c0,0.001,0.001,0.001,0.001,0.001
			C713.366,139.522,713.366,139.519,713.366,139.514z"/>
		<path class="st1" d="M713.292,139.437c0.042,1.009-0.887,3.845-1.171,4.111c-0.003,0.003-0.007,0.005-0.011,0.007
			c0.049,0.015,0.086,0.014,0.109-0.007c0.278-0.259,1.185-3.029,1.148-4.022c-0.012-0.024-0.023-0.045-0.038-0.061
			C713.318,139.454,713.305,139.445,713.292,139.437z"/>
	</g>
</g>
<g>
	<g>
		<path class="st6" d="M408.883,141.005c0.252-0.235,4.035-1.218,4.441-0.793c0.405,0.425-0.744,4.037-1.064,4.335
			C411.941,144.845,408.631,141.24,408.883,141.005z M408.201,138.804c1.904-1.773,4.841-1.748,6.56,0.055
			c1.719,1.803,1.569,4.703-0.334,6.476s-4.842,1.749-6.561-0.055C406.146,143.477,406.297,140.577,408.201,138.804z"/>
		<path class="st0" d="M408.883,141.005c0.252-0.235,4.035-1.218,4.441-0.793c0.405,0.425-0.744,4.037-1.064,4.335
			C411.941,144.845,408.631,141.24,408.883,141.005z"/>
		<g>
			<path class="st2" d="M408.883,141.005c-0.032,0.03-0.006,0.114,0.064,0.238c0.362-0.255,4.023-1.198,4.423-0.779
				c0.015,0.016,0.027,0.038,0.039,0.062c-0.005-0.149-0.032-0.259-0.084-0.314C412.918,139.787,409.134,140.771,408.883,141.005z"
				/>
		</g>
	</g>
	<g>
		<path class="st1" d="M413.407,140.514c0,0.003,0,0.007,0,0.011c0,0.001,0.001,0.001,0.001,0.001
			C413.408,140.522,413.408,140.519,413.407,140.514z"/>
		<path class="st1" d="M413.333,140.437c0.042,1.009-0.887,3.845-1.171,4.111c-0.003,0.003-0.007,0.005-0.011,0.007
			c0.049,0.015,0.086,0.014,0.109-0.007c0.278-0.259,1.185-3.029,1.148-4.022c-0.012-0.024-0.023-0.045-0.038-0.061
			C413.36,140.454,413.347,140.445,413.333,140.437z"/>
	</g>
</g>
<g>
	<g>
		<path class="st6" d="M108.924,142.005c0.252-0.235,4.035-1.218,4.441-0.793c0.405,0.425-0.744,4.037-1.064,4.335
			C111.982,145.845,108.673,142.24,108.924,142.005z M108.242,139.804c1.904-1.773,4.841-1.748,6.56,0.055
			c1.719,1.803,1.57,4.703-0.334,6.476s-4.842,1.749-6.561-0.055C106.188,144.477,106.338,141.577,108.242,139.804z"/>
		<path class="st0" d="M108.924,142.005c0.252-0.235,4.035-1.218,4.441-0.793c0.405,0.425-0.744,4.037-1.064,4.335
			C111.982,145.845,108.673,142.24,108.924,142.005z"/>
		<g>
			<path class="st2" d="M108.924,142.005c-0.032,0.03-0.006,0.114,0.064,0.238c0.362-0.255,4.023-1.198,4.423-0.779
				c0.015,0.016,0.027,0.038,0.039,0.062c-0.005-0.149-0.032-0.259-0.084-0.314C112.959,140.787,109.176,141.771,108.924,142.005z"
				/>
		</g>
	</g>
	<g>
		<path class="st1" d="M113.449,141.514c0,0.003,0,0.007,0,0.011c0,0.001,0.001,0.001,0.001,0.001
			C113.45,141.522,113.449,141.519,113.449,141.514z"/>
		<path class="st1" d="M113.375,141.437c0.042,1.009-0.887,3.845-1.171,4.111c-0.003,0.003-0.007,0.005-0.011,0.007
			c0.049,0.015,0.086,0.014,0.109-0.007c0.278-0.259,1.185-3.029,1.148-4.022c-0.012-0.024-0.023-0.045-0.038-0.061
			C113.401,141.454,113.388,141.445,113.375,141.437z"/>
	</g>
</g>
<g>
	<g>
		<path class="st6" d="M2808.549,138.005c0.252-0.235,4.035-1.218,4.441-0.793c0.406,0.425-0.744,4.037-1.064,4.335
			C2811.607,141.845,2808.298,138.24,2808.549,138.005z M2807.867,135.804c1.904-1.773,4.841-1.748,6.56,0.055
			c1.719,1.803,1.57,4.703-0.334,6.476c-1.903,1.773-4.842,1.749-6.561-0.055C2805.813,140.477,2805.963,137.577,2807.867,135.804z"
			/>
		<path class="st0" d="M2808.549,138.005c0.252-0.235,4.035-1.218,4.441-0.793c0.406,0.425-0.744,4.037-1.064,4.335
			C2811.607,141.845,2808.298,138.24,2808.549,138.005z"/>
		<g>
			<path class="st2" d="M2808.549,138.005c-0.032,0.03-0.006,0.114,0.064,0.238c0.362-0.255,4.023-1.198,4.423-0.779
				c0.015,0.016,0.027,0.038,0.039,0.062c-0.005-0.149-0.031-0.259-0.084-0.314C2812.584,136.787,2808.801,137.771,2808.549,138.005
				z"/>
		</g>
	</g>
	<g>
		<path class="st1" d="M2813.074,137.514c0,0.003,0,0.007,0,0.011c0,0.001,0.001,0.001,0.001,0.001
			C2813.075,137.522,2813.074,137.519,2813.074,137.514z"/>
		<path class="st1" d="M2813,137.437c0.042,1.009-0.887,3.845-1.171,4.111c-0.003,0.003-0.007,0.005-0.011,0.007
			c0.049,0.015,0.086,0.014,0.108-0.007c0.278-0.259,1.185-3.029,1.148-4.022c-0.012-0.024-0.023-0.045-0.038-0.061
			C2813.026,137.454,2813.013,137.445,2813,137.437z"/>
	</g>
</g>
</svg>
