<?xml version="1.0" encoding="utf-8"?>
<!-- Generator: Adobe Illustrator 22.1.0, SVG Export Plug-In . SVG Version: 6.00 Build 0)  -->
<svg version="1.1" id="Layer_1_copy_2" xmlns="http://www.w3.org/2000/svg" xmlns:xlink="http://www.w3.org/1999/xlink" x="0px"
	 y="0px" viewBox="0 0 3000 300" style="enable-background:new 0 0 3000 300;" xml:space="preserve">
<style type="text/css">
	.st0{fill:#FFFFFF;}
	.st1{fill:#DBD9D8;}
	.st2{fill:#231F20;}
	.st3{opacity:0.47;}
	.st4{fill:#00ADEB;}
	.st5{opacity:0.2;}
	.st6{fill:#5BBA47;}
	.st7{opacity:0.7;}
</style>
<g>
	<g>
		<path class="st0" d="M227.747,121.25c2.494-0.146,4.962-0.218,7.401-0.218c12.275,0,23.705,1.831,32.757,5.298
			c9.062,3.471,14.794,8.33,16.113,13.537c-4.016,10.093-29.796,18.233-53.507,19.62c-15.094,0.881-29.38-0.509-40.226-3.922
			c-9.072-2.855-14.733-6.848-15.875-11.101C177.935,133.05,200.68,122.833,227.747,121.25z"/>
		<path class="st1" d="M170.568,141.167c-1.054,2.331-1.547,4.745-1.403,7.205c0.859,14.68,23.931,25.119,53.878,25.119
			c2.536,0,5.124-0.075,7.749-0.229c33.626-1.967,59.235-15.983,58.304-31.907c-0.197-3.368-1.566-6.551-3.986-9.456
			c-12.016,7.941-33.093,18.859-59.026,19.616C199.734,152.284,180.869,146.019,170.568,141.167z"/>
		<path class="st2" d="M289.094,141.354c-0.465-7.942-7.381-14.868-19.474-19.501c-11.472-4.395-26.442-6.306-42.153-5.39
			c-33.626,1.967-59.235,15.983-58.304,31.908c0.859,14.68,23.931,25.119,53.878,25.119c2.536,0,5.124-0.075,7.749-0.229
			C264.416,171.294,290.026,157.279,289.094,141.354z M227.747,121.25c2.494-0.146,4.962-0.218,7.401-0.218
			c12.275,0,23.705,1.831,32.757,5.298c9.062,3.471,14.794,8.33,16.113,13.537c-4.016,10.093-29.796,18.233-53.507,19.62
			c-15.094,0.881-29.38-0.509-40.226-3.922c-9.072-2.855-14.733-6.848-15.875-11.101C177.935,133.05,200.68,122.833,227.747,121.25z
			 M230.511,168.476c-25.667,1.512-48.37-5.161-54.769-15.174c2.905,2.671,7.196,4.977,13.105,6.836
			c9.176,2.887,20.629,4.402,32.927,4.402c2.963,0,5.977-0.089,9.017-0.266c24.859-1.455,44.218-8.236,52.307-17.173
			C277.837,157.753,256.114,166.978,230.511,168.476z"/>
		<g>
			<g>
				<path class="st2" d="M223.321,136.214c-8.249,0-22.809-0.987-23.067-7.923c-0.263-7.074,2.237-14.577,6.857-20.587
					c4.972-6.466,11.551-10.17,18.526-10.429c6.967-0.259,13.81,2.946,19.248,9.025c5.054,5.65,8.103,12.948,8.366,20.022l0,0
					c0.304,8.201-19.952,9.592-26.168,9.823C226.123,136.181,224.826,136.214,223.321,136.214z M226.415,102.055
					c-0.2,0-0.4,0.004-0.6,0.011c-10.039,0.373-21.298,11.832-20.771,26.047c0.549,1.412,8.335,3.743,21.867,3.241
					c13.48-0.502,21.058-3.388,21.548-4.876c-0.225-5.882-2.896-12.228-7.148-16.982
					C237.004,104.681,231.736,102.055,226.415,102.055z"/>
			</g>
			<g class="st3">
				<path class="st4" d="M226.415,102.055c-0.2,0-0.4,0.004-0.6,0.011c-10.039,0.373-21.298,11.832-20.771,26.047
					c0.549,1.412,8.335,3.743,21.867,3.241c13.48-0.502,21.058-3.388,21.548-4.876c-0.225-5.882-2.896-12.228-7.148-16.982
					C237.004,104.681,231.736,102.055,226.415,102.055z"/>
			</g>
			<g class="st5">
				<path class="st0" d="M242.99,129.162c-0.106-3.289-0.625-9.865-2.976-15.85c-2.04-5.193-7.81-9.007-12.019-11.16
					c-0.526-0.051-1.052-0.097-1.58-0.097c-0.2,0-0.4,0.004-0.6,0.011c-1.358,0.05-2.738,0.31-4.108,0.746
					c2.838,1.312,6.669,4.071,9.769,9.901c3.741,7.036,2.667,14.174,1.51,18.22C237.123,130.511,240.476,129.865,242.99,129.162z"/>
				
					<ellipse transform="matrix(0.4211 -0.907 0.907 0.4211 21.5331 260.2126)" class="st0" cx="214.617" cy="113.237" rx="5.358" ry="3.141"/>
			</g>
		</g>
	</g>
	<g>
		<circle class="st2" cx="177.229" cy="142.216" r="2.247"/>
		<circle class="st2" cx="186.867" cy="146.76" r="2.247"/>
		<circle class="st2" cx="197.565" cy="150.393" r="2.247"/>
		<circle class="st2" cx="208.44" cy="152.753" r="2.247"/>
		<circle class="st2" cx="219.473" cy="153.636" r="2.247"/>
		<circle class="st2" cx="230.92" cy="153.562" r="2.247"/>
		<circle class="st2" cx="241.999" cy="151.914" r="2.247"/>
		<circle class="st2" cx="252.784" cy="149.057" r="2.247"/>
		<circle class="st2" cx="263.333" cy="144.937" r="2.247"/>
		<circle class="st2" cx="273.059" cy="139.769" r="2.247"/>
		<circle class="st2" cx="281.709" cy="133.39" r="2.247"/>
	</g>
	<circle class="st6" cx="240.599" cy="174.825" r="2.247"/>
	<circle class="st6" cx="227.116" cy="188.308" r="1.124"/>
	<circle class="st6" cx="242.237" cy="209.052" r="3.112"/>
	<circle class="st6" cx="232.36" cy="211.079" r="1.124"/>
	<circle class="st6" cx="208.993" cy="238.649" r="3.525"/>
	<g>
		<path class="st0" d="M227.747,121.25c2.494-0.146,4.962-0.218,7.401-0.218c12.275,0,23.705,1.831,32.757,5.298
			c9.062,3.471,14.794,8.33,16.113,13.537c-4.016,10.093-29.796,18.233-53.507,19.62c-15.094,0.881-29.38-0.509-40.226-3.922
			c-9.072-2.855-14.733-6.848-15.875-11.101C177.935,133.05,200.68,122.833,227.747,121.25z"/>
		<path class="st1" d="M170.568,141.167c-1.054,2.331-1.547,4.745-1.403,7.205c0.859,14.68,23.931,25.119,53.878,25.119
			c2.536,0,5.124-0.075,7.749-0.229c33.626-1.967,59.235-15.983,58.304-31.907c-0.197-3.368-1.566-6.551-3.986-9.456
			c-12.016,7.941-33.093,18.859-59.026,19.616C199.734,152.284,180.869,146.019,170.568,141.167z"/>
		<path class="st2" d="M289.094,141.354c-0.465-7.942-7.381-14.868-19.474-19.501c-11.472-4.395-26.442-6.306-42.153-5.39
			c-33.626,1.967-59.235,15.983-58.304,31.908c0.859,14.68,23.931,25.119,53.878,25.119c2.536,0,5.124-0.075,7.749-0.229
			C264.416,171.294,290.026,157.279,289.094,141.354z M227.747,121.25c2.494-0.146,4.962-0.218,7.401-0.218
			c12.275,0,23.705,1.831,32.757,5.298c9.062,3.471,14.794,8.33,16.113,13.537c-4.016,10.093-29.796,18.233-53.507,19.62
			c-15.094,0.881-29.38-0.509-40.226-3.922c-9.072-2.855-14.733-6.848-15.875-11.101C177.935,133.05,200.68,122.833,227.747,121.25z
			 M230.511,168.476c-25.667,1.512-48.37-5.161-54.769-15.174c2.905,2.671,7.196,4.977,13.105,6.836
			c9.176,2.887,20.629,4.402,32.927,4.402c2.963,0,5.977-0.089,9.017-0.266c24.859-1.455,44.218-8.236,52.307-17.173
			C277.837,157.753,256.114,166.978,230.511,168.476z"/>
		<g>
			<g>
				<path class="st2" d="M223.321,136.214c-8.249,0-22.809-0.987-23.067-7.923c-0.263-7.074,2.237-14.577,6.857-20.587
					c4.972-6.466,11.551-10.17,18.526-10.429c6.967-0.259,13.81,2.946,19.248,9.025c5.054,5.65,8.103,12.948,8.366,20.022l0,0
					c0.304,8.201-19.952,9.592-26.168,9.823C226.123,136.181,224.826,136.214,223.321,136.214z M226.415,102.055
					c-0.2,0-0.4,0.004-0.6,0.011c-10.039,0.373-21.298,11.832-20.771,26.047c0.549,1.412,8.335,3.743,21.867,3.241
					c13.48-0.502,21.058-3.388,21.548-4.876c-0.225-5.882-2.896-12.228-7.148-16.982
					C237.004,104.681,231.736,102.055,226.415,102.055z"/>
			</g>
			<g class="st7">
				<path class="st4" d="M226.415,102.055c-0.2,0-0.4,0.004-0.6,0.011c-10.039,0.373-21.298,11.832-20.771,26.047
					c0.549,1.412,8.335,3.743,21.867,3.241c13.48-0.502,21.058-3.388,21.548-4.876c-0.225-5.882-2.896-12.228-7.148-16.982
					C237.004,104.681,231.736,102.055,226.415,102.055z"/>
			</g>
			<g class="st5">
				<path class="st0" d="M242.99,129.162c-0.106-3.289-0.625-9.865-2.976-15.85c-2.04-5.193-7.81-9.007-12.019-11.16
					c-0.526-0.051-1.052-0.097-1.58-0.097c-0.2,0-0.4,0.004-0.6,0.011c-1.358,0.05-2.738,0.31-4.108,0.746
					c2.838,1.312,6.669,4.071,9.769,9.901c3.741,7.036,2.667,14.174,1.51,18.22C237.123,130.511,240.476,129.865,242.99,129.162z"/>
				
					<ellipse transform="matrix(0.4211 -0.907 0.907 0.4211 21.5331 260.2126)" class="st0" cx="214.617" cy="113.237" rx="5.358" ry="3.141"/>
			</g>
		</g>
	</g>
	<g>
		<circle class="st2" cx="177.229" cy="142.216" r="2.247"/>
		<circle class="st2" cx="186.867" cy="146.76" r="2.247"/>
		<circle class="st2" cx="197.565" cy="150.393" r="2.247"/>
		<circle class="st2" cx="208.44" cy="152.753" r="2.247"/>
		<circle class="st2" cx="219.473" cy="153.636" r="2.247"/>
		<circle class="st2" cx="230.92" cy="153.562" r="2.247"/>
		<circle class="st2" cx="241.999" cy="151.914" r="2.247"/>
		<circle class="st2" cx="252.784" cy="149.057" r="2.247"/>
		<circle class="st2" cx="263.333" cy="144.937" r="2.247"/>
		<circle class="st2" cx="273.059" cy="139.769" r="2.247"/>
		<circle class="st2" cx="281.709" cy="133.39" r="2.247"/>
	</g>
	<circle class="st6" cx="240.599" cy="174.825" r="2.247"/>
	<circle class="st6" cx="227.116" cy="188.308" r="1.124"/>
	<circle class="st6" cx="242.237" cy="209.052" r="3.112"/>
	<circle class="st6" cx="232.36" cy="211.079" r="1.124"/>
	<circle class="st6" cx="208.993" cy="238.649" r="3.525"/>
</g>
<g>
	<g>
		<path class="st0" d="M527.935,113.451c2.495-0.116,4.965-0.159,7.403-0.131c12.274,0.145,23.682,2.11,32.692,5.684
			c9.02,3.578,14.694,8.504,15.952,13.725c-4.134,10.045-30.008,17.88-53.734,18.989c-15.103,0.703-29.372-0.855-40.177-4.396
			c-9.038-2.962-14.652-7.021-15.743-11.288C477.987,124.664,500.851,114.715,527.935,113.451z"/>
		<path class="st1" d="M470.525,132.693c-1.082,2.319-1.603,4.726-1.488,7.188c0.686,14.689,23.633,25.399,53.578,25.752
			c2.536,0.03,5.125-0.015,7.751-0.138c33.646-1.571,59.419-15.284,58.675-31.218c-0.157-3.37-1.489-6.569-3.875-9.502
			c-12.108,7.799-33.313,18.468-59.253,18.919C499.558,144.153,480.768,137.666,470.525,132.693z"/>
		<path class="st2" d="M589.041,134.277c-0.371-7.947-7.205-14.954-19.243-19.729c-11.42-4.53-26.366-6.617-42.086-5.886
			c-33.646,1.571-59.419,15.284-58.675,31.219c0.686,14.689,23.633,25.399,53.578,25.752c2.536,0.03,5.125-0.015,7.751-0.138
			C564.012,163.924,589.785,150.211,589.041,134.277z M527.935,113.451c2.495-0.116,4.965-0.159,7.403-0.131
			c12.274,0.145,23.682,2.11,32.692,5.684c9.02,3.578,14.694,8.504,15.952,13.725c-4.134,10.045-30.008,17.88-53.734,18.989
			c-15.103,0.703-29.372-0.855-40.177-4.396c-9.038-2.962-14.652-7.021-15.743-11.288
			C477.987,124.664,500.851,114.715,527.935,113.451z M530.142,160.706c-25.683,1.209-48.305-5.73-54.587-15.818
			c2.874,2.705,7.137,5.061,13.023,6.99c9.141,2.995,20.576,4.645,32.873,4.789c2.963,0.035,5.977-0.019,9.02-0.159
			c24.875-1.162,44.312-7.715,52.505-16.556C577.592,150.542,555.761,159.51,530.142,160.706z"/>
		<g>
			<g>
				<path class="st2" d="M523.333,128.362c-8.248-0.097-22.796-1.256-22.972-8.194c-0.179-7.077,2.408-14.55,7.099-20.505
					c5.048-6.407,11.67-10.033,18.647-10.21c6.969-0.177,13.774,3.108,19.14,9.251c4.987,5.709,7.95,13.043,8.13,20.119l0,0
					c0.208,8.204-20.064,9.356-26.282,9.514C526.135,128.362,524.838,128.38,523.333,128.362z M526.829,94.242
					c-0.2-0.002-0.4-0.001-0.6,0.004c-10.042,0.254-21.436,11.58-21.076,25.801c0.533,1.418,8.29,3.841,21.827,3.499
					c13.484-0.343,21.096-3.139,21.604-4.622c-0.155-5.884-2.751-12.262-6.947-17.065C537.386,96.992,532.15,94.305,526.829,94.242z
					"/>
			</g>
			<g class="st7">
				<path class="st4" d="M526.829,94.242c-0.2-0.002-0.4-0.001-0.6,0.004c-10.042,0.254-21.436,11.58-21.076,25.801
					c0.533,1.418,8.29,3.841,21.827,3.499c13.484-0.343,21.096-3.139,21.604-4.622c-0.155-5.884-2.751-12.262-6.947-17.065
					C537.386,96.992,532.15,94.305,526.829,94.242z"/>
			</g>
			<g class="st5">
				<path class="st0" d="M543.084,121.543c-0.067-3.29-0.509-9.872-2.789-15.884c-1.979-5.217-7.704-9.098-11.886-11.301
					c-0.525-0.057-1.051-0.109-1.579-0.116c-0.2-0.002-0.4-0.001-0.6,0.004c-1.359,0.034-2.742,0.278-4.117,0.697
					c2.823,1.346,6.621,4.149,9.651,10.016c3.657,7.08,2.5,14.205,1.295,18.237C537.201,122.822,540.562,122.216,543.084,121.543z"
					/>
				
					<ellipse transform="matrix(0.4318 -0.902 0.902 0.4318 197.6252 524.2662)" class="st0" cx="514.92" cy="105.279" rx="5.358" ry="3.141"/>
			</g>
		</g>
	</g>
	<g>
		<circle class="st2" cx="474.549" cy="133.276" r="2.247"/>
		<circle class="st2" cx="484.012" cy="138.174" r="2.247"/>
		<circle class="st2" cx="494.569" cy="142.2" r="2.247"/>
		<circle class="st2" cx="505.348" cy="144.96" r="2.247"/>
		<circle class="st2" cx="516.341" cy="146.251" r="2.247"/>
		<circle class="st2" cx="527.783" cy="146.601" r="2.247"/>
		<circle class="st2" cx="538.915" cy="145.363" r="2.247"/>
		<circle class="st2" cx="549.799" cy="142.908" r="2.247"/>
		<circle class="st2" cx="560.493" cy="139.18" r="2.247"/>
		<circle class="st2" cx="570.403" cy="134.376" r="2.247"/>
		<circle class="st2" cx="579.283" cy="128.321" r="2.247"/>
	</g>
	<circle class="st6" cx="515.922" cy="176.023" r="2.247"/>
	<circle class="st6" cx="540.366" cy="210.78" r="1.124"/>
	<circle class="st6" cx="514.962" cy="193.472" r="3.112"/>
	<circle class="st6" cx="527.232" cy="233.551" r="1.124"/>
	<circle class="st6" cx="542.089" cy="246.934" r="3.525"/>
	<circle class="st6" cx="540.89" cy="222.365" r="2.247"/>
	<circle class="st6" cx="531.103" cy="181.616" r="1.124"/>
</g>
<g>
	<g>
		<path class="st0" d="M827.845,107.449c2.495-0.116,4.965-0.159,7.403-0.13c12.274,0.145,23.682,2.11,32.692,5.684
			c9.02,3.578,14.694,8.504,15.952,13.725c-4.134,10.045-30.008,17.88-53.734,18.989c-15.103,0.703-29.372-0.855-40.177-4.396
			c-9.038-2.962-14.652-7.021-15.744-11.288C777.896,118.662,800.761,108.714,827.845,107.449z"/>
		<path class="st1" d="M770.434,126.692c-1.082,2.319-1.603,4.726-1.488,7.188c0.686,14.689,23.633,25.399,53.578,25.752
			c2.535,0.03,5.125-0.015,7.751-0.138c33.646-1.571,59.419-15.284,58.675-31.218c-0.157-3.37-1.489-6.569-3.875-9.502
			c-12.108,7.799-33.313,18.468-59.253,18.919C799.467,138.151,780.678,131.665,770.434,126.692z"/>
		<path class="st2" d="M888.95,128.275c-0.371-7.947-7.205-14.954-19.243-19.729c-11.42-4.53-26.366-6.617-42.086-5.886
			c-33.646,1.571-59.419,15.284-58.675,31.219c0.686,14.689,23.633,25.399,53.578,25.752c2.535,0.03,5.125-0.015,7.751-0.138
			C863.921,157.922,889.694,144.209,888.95,128.275z M827.845,107.449c2.495-0.116,4.965-0.159,7.403-0.13
			c12.274,0.145,23.682,2.11,32.692,5.684c9.02,3.578,14.694,8.504,15.952,13.725c-4.134,10.045-30.008,17.88-53.734,18.989
			c-15.103,0.703-29.372-0.855-40.177-4.396c-9.038-2.962-14.652-7.021-15.744-11.288
			C777.896,118.662,800.761,108.714,827.845,107.449z M830.052,154.705c-25.683,1.209-48.306-5.73-54.587-15.818
			c2.874,2.705,7.137,5.061,13.023,6.99c9.141,2.995,20.576,4.645,32.873,4.789c2.963,0.035,5.977-0.019,9.02-0.159
			c24.875-1.162,44.312-7.715,52.505-16.556C877.501,144.541,855.671,153.509,830.052,154.705z"/>
		<g>
			<g>
				<path class="st2" d="M823.242,122.361c-8.248-0.097-22.796-1.256-22.972-8.194c-0.179-7.077,2.408-14.55,7.099-20.505
					c5.048-6.407,11.67-10.033,18.647-10.21c6.969-0.177,13.774,3.108,19.14,9.251c4.987,5.709,7.95,13.043,8.13,20.119l0,0
					c0.208,8.204-20.064,9.356-26.282,9.514C826.044,122.36,824.747,122.379,823.242,122.361z M826.739,88.24
					c-0.2-0.002-0.4-0.001-0.601,0.004c-10.042,0.254-21.436,11.58-21.076,25.801c0.533,1.418,8.29,3.841,21.827,3.499
					c13.484-0.343,21.096-3.139,21.604-4.622c-0.155-5.884-2.751-12.262-6.947-17.065C837.296,90.991,832.059,88.303,826.739,88.24z
					"/>
			</g>
			<g class="st7">
				<path class="st4" d="M826.739,88.24c-0.2-0.002-0.4-0.001-0.601,0.004c-10.042,0.254-21.436,11.58-21.076,25.801
					c0.533,1.418,8.29,3.841,21.827,3.499c13.484-0.343,21.096-3.139,21.604-4.622c-0.155-5.884-2.751-12.262-6.947-17.065
					C837.296,90.991,832.059,88.303,826.739,88.24z"/>
			</g>
			<g class="st5">
				<path class="st0" d="M842.994,115.541c-0.067-3.29-0.509-9.872-2.789-15.884c-1.979-5.217-7.704-9.098-11.886-11.301
					c-0.525-0.057-1.051-0.109-1.579-0.116c-0.2-0.002-0.4-0.001-0.601,0.004c-1.359,0.034-2.741,0.278-4.117,0.697
					c2.822,1.346,6.621,4.149,9.651,10.016c3.657,7.08,2.5,14.205,1.295,18.237C837.11,116.821,840.471,116.215,842.994,115.541z"/>
				
					<ellipse transform="matrix(0.4318 -0.902 0.902 0.4318 373.4602 791.3699)" class="st0" cx="814.837" cy="99.271" rx="5.358" ry="3.141"/>
			</g>
		</g>
	</g>
	<g>
		<circle class="st2" cx="774.638" cy="124.223" r="2.247"/>
		<circle class="st2" cx="781.49" cy="129.546" r="2.247"/>
		<circle class="st2" cx="791.728" cy="134.323" r="2.247"/>
		<circle class="st2" cx="802.281" cy="137.854" r="2.247"/>
		<circle class="st2" cx="813.152" cy="139.935" r="2.247"/>
		<circle class="st2" cx="824.539" cy="141.109" r="2.247"/>
		<circle class="st2" cx="835.731" cy="140.678" r="2.247"/>
		<circle class="st2" cx="846.763" cy="139.014" r="2.247"/>
		<circle class="st2" cx="857.699" cy="136.068" r="2.247"/>
		<circle class="st2" cx="867.93" cy="131.991" r="2.247"/>
		<circle class="st2" cx="877.223" cy="126.593" r="2.247"/>
	</g>
	<circle class="st6" cx="832.884" cy="177.422" r="2.247"/>
	<circle class="st6" cx="842.003" cy="210.78" r="1.124"/>
	<circle class="st6" cx="810.113" cy="207.584" r="3.112"/>
	<circle class="st6" cx="832.085" cy="241.466" r="1.124"/>
	<circle class="st6" cx="815.706" cy="248.332" r="3.525"/>
	<circle class="st6" cx="841.873" cy="188.807" r="2.247"/>
	<circle class="st6" cx="826.092" cy="169.307" r="1.124"/>
</g>
<g>
	<g>
		<path class="st0" d="M1128.42,106.222c2.497-0.046,4.967-0.019,7.404,0.078c12.265,0.49,23.613,2.775,32.519,6.601
			c8.916,3.83,14.449,8.914,15.559,14.169c-4.415,9.925-30.5,17.029-54.247,17.469c-15.117,0.278-29.336-1.681-40.037-5.524
			c-8.951-3.215-14.448-7.43-15.42-11.726C1078.176,116.025,1101.311,106.724,1128.42,106.222z"/>
		<path class="st1" d="M1070.49,123.842c-1.146,2.287-1.735,4.679-1.69,7.143c0.273,14.703,22.909,26.054,52.832,27.249
			c2.534,0.101,5.123,0.13,7.752,0.08c33.677-0.624,59.826-13.606,59.531-29.555c-0.062-3.373-1.303-6.608-3.606-9.607
			c-12.323,7.455-33.82,17.523-59.761,17.245C1099.19,136.114,1080.59,129.101,1070.49,123.842z"/>
		<path class="st2" d="M1188.915,128.759c-0.147-7.955-6.781-15.151-18.68-20.262c-11.288-4.849-26.169-7.356-41.904-7.068
			c-33.677,0.624-59.826,13.606-59.531,29.556c0.273,14.703,22.909,26.054,52.832,27.249c2.534,0.101,5.123,0.13,7.752,0.08
			C1163.062,157.69,1189.21,144.708,1188.915,128.759z M1128.42,106.222c2.497-0.046,4.967-0.019,7.404,0.078
			c12.265,0.49,23.613,2.775,32.519,6.601c8.916,3.83,14.449,8.914,15.559,14.169c-4.415,9.925-30.5,17.029-54.247,17.469
			c-15.117,0.278-29.336-1.681-40.037-5.524c-8.951-3.215-14.448-7.43-15.42-11.726
			C1078.176,116.025,1101.311,106.724,1128.42,106.222z M1129.296,153.521c-25.707,0.486-48.125-7.087-54.12-17.348
			c2.797,2.785,6.992,5.26,12.822,7.354c9.053,3.251,20.437,5.222,32.725,5.712c2.961,0.118,5.975,0.15,9.021,0.094
			c24.897-0.462,44.511-6.465,52.95-15.072C1177.013,144.696,1154.939,153.046,1129.296,153.521z"/>
		<g>
			<g>
				<path class="st2" d="M1123.399,120.998c-8.242-0.329-22.751-1.897-22.732-8.837c0.02-7.079,2.817-14.476,7.674-20.297
					c5.226-6.263,11.947-9.701,18.927-9.681c6.972,0.019,13.681,3.495,18.872,9.786c4.824,5.847,7.58,13.261,7.56,20.34l0,0
					c-0.023,8.207-20.319,8.788-26.54,8.77C1126.2,121.077,1124.903,121.058,1123.399,120.998z M1127.855,86.99
					c-0.2-0.008-0.4-0.012-0.6-0.013c-10.045-0.028-21.754,10.973-21.793,25.198c0.493,1.433,8.179,4.073,21.72,4.112
					c13.489,0.036,21.176-2.545,21.726-4.012c0.01-5.886-2.405-12.334-6.464-17.254C1138.33,90.036,1133.171,87.202,1127.855,86.99z
					"/>
			</g>
			<g class="st7">
				<path class="st4" d="M1127.855,86.99c-0.2-0.008-0.4-0.012-0.6-0.013c-10.045-0.028-21.754,10.973-21.793,25.198
					c0.493,1.433,8.179,4.073,21.72,4.112c13.489,0.036,21.176-2.545,21.726-4.012c0.01-5.886-2.405-12.334-6.464-17.254
					C1138.33,90.036,1133.171,87.202,1127.855,86.99z"/>
			</g>
			<g class="st5">
				<path class="st0" d="M1143.335,114.737c0.026-3.29-0.231-9.882-2.341-15.956c-1.831-5.271-7.445-9.312-11.564-11.631
					c-0.523-0.072-1.048-0.139-1.575-0.16c-0.2-0.008-0.4-0.012-0.6-0.013c-1.359-0.004-2.748,0.201-4.135,0.581
					c2.783,1.425,6.501,4.334,9.365,10.283c3.457,7.18,2.099,14.269,0.781,18.266
					C1137.418,115.851,1140.794,115.339,1143.335,114.737z"/>
				
					<ellipse transform="matrix(0.457 -0.8895 0.8895 0.457 518.9385 1045.3746)" class="st0" cx="1115.648" cy="97.668" rx="5.358" ry="3.141"/>
			</g>
		</g>
	</g>
	<g>
		<circle class="st2" cx="1077.71" cy="124.386" r="2.247"/>
		<circle class="st2" cx="1087.639" cy="129.779" r="2.247"/>
		<circle class="st2" cx="1097.956" cy="133.946" r="2.247"/>
		<circle class="st2" cx="1108.68" cy="136.686" r="2.247"/>
		<circle class="st2" cx="1119.975" cy="138.552" r="2.247"/>
		<circle class="st2" cx="1131.172" cy="138.804" r="2.247"/>
		<circle class="st2" cx="1142.286" cy="137.816" r="2.247"/>
		<circle class="st2" cx="1153.38" cy="135.542" r="2.247"/>
		<circle class="st2" cx="1163.84" cy="132.096" r="2.247"/>
		<circle class="st2" cx="1173.446" cy="127.274" r="2.247"/>
	</g>
	<circle class="st6" cx="1130.214" cy="160.593" r="2.247"/>
	<circle class="st6" cx="1125.795" cy="210.03" r="1.124"/>
	<circle class="st6" cx="1140.151" cy="196.797" r="3.112"/>
	<circle class="st6" cx="1130.663" cy="241.466" r="1.124"/>
	<circle class="st6" cx="1142.349" cy="228.757" r="3.525"/>
	<circle class="st6" cx="1115.283" cy="169.482" r="2.247"/>
	<circle class="st6" cx="1140.851" cy="175.124" r="1.124"/>
</g>
<g>
	<g>
		<path class="st0" d="M1429.223,108.439c2.497,0.048,4.964,0.168,7.396,0.358c12.238,0.953,23.491,3.666,32.246,7.826
			c8.765,4.164,14.102,9.454,15.013,14.747c-4.787,9.751-31.121,15.864-54.869,15.406c-15.117-0.293-29.252-2.789-39.8-7.034
			c-8.823-3.551-14.157-7.971-14.965-12.301C1378.645,116.336,1402.115,107.916,1429.223,108.439z"/>
		<path class="st1" d="M1370.67,123.857c-1.232,2.242-1.911,4.61-1.959,7.074c-0.283,14.703,21.908,26.902,51.764,29.227
			c2.528,0.197,5.114,0.323,7.743,0.373c33.677,0.65,60.297-11.335,60.605-27.284c0.065-3.373-1.053-6.652-3.24-9.737
			c-12.596,6.984-34.458,16.232-60.371,14.973C1398.884,137.204,1380.563,129.494,1370.67,123.857z"/>
		<path class="st2" d="M1488.824,133.247c0.153-7.954-6.204-15.396-17.901-20.954c-11.096-5.272-25.872-8.34-41.607-8.647
			c-33.677-0.65-60.297,11.335-60.605,27.284c-0.283,14.703,21.908,26.902,51.764,29.227c2.528,0.197,5.114,0.323,7.743,0.373
			C1461.895,161.18,1488.516,149.195,1488.824,133.247z M1429.223,108.439c2.497,0.048,4.964,0.168,7.396,0.358
			c12.238,0.953,23.491,3.666,32.246,7.826c8.765,4.164,14.102,9.454,15.013,14.747c-4.787,9.751-31.121,15.864-54.869,15.406
			c-15.117-0.293-29.252-2.789-39.8-7.034c-8.823-3.551-14.157-7.971-14.965-12.301
			C1378.645,116.336,1402.115,107.916,1429.223,108.439z M1428.311,155.737c-25.707-0.486-47.823-8.901-53.426-19.381
			c2.689,2.889,6.788,5.52,12.535,7.833c8.924,3.591,20.225,5.99,32.486,6.945c2.954,0.23,5.966,0.375,9.011,0.435
			c24.897,0.479,44.724-4.778,53.482-13.06C1476.328,148.722,1453.954,156.232,1428.311,155.737z"/>
		<g>
			<g>
				<path class="st2" d="M1423.648,123.015c-8.224-0.641-22.663-2.755-22.382-9.69c0.287-7.073,3.362-14.36,8.435-19.992
					c5.459-6.061,12.306-9.242,19.28-8.959c6.966,0.283,13.539,4.009,18.489,10.492c4.6,6.025,7.073,13.538,6.786,20.611l0,0
					c-0.333,8.2-20.637,8.014-26.852,7.761C1426.444,123.199,1425.149,123.132,1423.648,123.015z M1429.386,89.199
					c-0.2-0.016-0.399-0.028-0.599-0.036c-10.037-0.408-22.153,10.143-22.73,24.356c0.438,1.45,8.019,4.379,21.549,4.93
					c13.478,0.546,21.257-1.742,21.862-3.188c0.233-5.882-1.937-12.416-5.807-17.486
					C1439.739,92.639,1434.691,89.612,1429.386,89.199z"/>
			</g>
			<g class="st7">
				<path class="st4" d="M1429.386,89.199c-0.2-0.016-0.399-0.028-0.599-0.036c-10.037-0.408-22.153,10.143-22.73,24.356
					c0.438,1.45,8.019,4.379,21.549,4.93c13.478,0.546,21.257-1.742,21.862-3.188c0.233-5.882-1.937-12.416-5.807-17.486
					C1439.739,92.639,1434.691,89.612,1429.386,89.199z"/>
			</g>
			<g class="st5">
				<path class="st0" d="M1443.806,117.512c0.15-3.287,0.143-9.884-1.736-16.033c-1.631-5.336-7.087-9.586-11.116-12.06
					c-0.52-0.092-1.042-0.178-1.568-0.219c-0.2-0.016-0.399-0.028-0.599-0.036c-1.358-0.055-2.754,0.097-4.154,0.424
					c2.728,1.529,6.333,4.577,8.97,10.63c3.183,7.306,1.558,14.339,0.09,18.282C1437.851,118.401,1441.245,118.018,1443.806,117.512
					z"/>
				
					<ellipse transform="matrix(0.4903 -0.8716 0.8716 0.4903 635.5457 1285.4905)" class="st0" cx="1416.797" cy="99.389" rx="5.358" ry="3.141"/>
			</g>
		</g>
	</g>
	<g>
		<circle class="st6" cx="1414.363" cy="222.964" r="2.247"/>
		<circle class="st6" cx="1416.959" cy="210.979" r="1.124"/>
		<circle class="st6" cx="1441.918" cy="170.829" r="3.112"/>
		<circle class="st6" cx="1429.943" cy="210.979" r="1.124"/>
		<circle class="st6" cx="1441.728" cy="259.318" r="3.525"/>
		<circle class="st6" cx="1408.171" cy="172.827" r="2.247"/>
		<circle class="st6" cx="1439.041" cy="177.762" r="1.124"/>
		<g>
			<path class="st2" d="M1375.257,121.964c-1.206-0.294-2.421,0.446-2.715,1.652s0.446,2.421,1.651,2.715
				c1.206,0.294,2.422-0.446,2.715-1.652C1377.202,123.473,1376.463,122.258,1375.257,121.964z"/>
			<path class="st2" d="M1384.791,128.026c-1.206-0.294-2.421,0.446-2.715,1.652s0.446,2.421,1.651,2.715
				c1.206,0.294,2.422-0.446,2.715-1.652C1386.736,129.535,1385.997,128.319,1384.791,128.026z"/>
			<path class="st2" d="M1394.798,132.892c-1.206-0.294-2.421,0.446-2.715,1.652s0.446,2.421,1.651,2.715
				c1.206,0.294,2.422-0.446,2.715-1.652C1396.744,134.401,1396.004,133.185,1394.798,132.892z"/>
			<path class="st2" d="M1405.309,136.361c-1.206-0.294-2.421,0.446-2.715,1.652s0.446,2.421,1.651,2.715s2.422-0.446,2.715-1.652
				C1407.254,137.871,1406.515,136.655,1405.309,136.361z"/>
			<path class="st2" d="M1416.449,138.998c-1.206-0.294-2.421,0.446-2.715,1.652s0.446,2.421,1.652,2.715s2.421-0.446,2.715-1.652
				C1418.394,140.508,1417.655,139.292,1416.449,138.998z"/>
			<path class="st2" d="M1427.603,140.019c-1.206-0.294-2.422,0.446-2.715,1.652c-0.294,1.206,0.446,2.421,1.652,2.715
				c1.206,0.294,2.421-0.446,2.715-1.652C1429.548,141.528,1428.809,140.312,1427.603,140.019z"/>
			<path class="st2" d="M1438.758,139.796c-1.206-0.294-2.421,0.446-2.715,1.652s0.446,2.421,1.651,2.715
				c1.206,0.294,2.422-0.446,2.715-1.652C1440.703,141.305,1439.963,140.089,1438.758,139.796z"/>
			<path class="st2" d="M1449.982,138.288c-1.206-0.294-2.421,0.446-2.715,1.652s0.446,2.421,1.651,2.715
				c1.206,0.294,2.421-0.446,2.715-1.652C1451.927,139.798,1451.188,138.582,1449.982,138.288z"/>
			<path class="st2" d="M1460.654,135.569c-1.206-0.294-2.422,0.446-2.715,1.652c-0.294,1.206,0.446,2.421,1.652,2.715
				c1.206,0.294,2.421-0.446,2.715-1.652C1462.599,137.078,1461.86,135.863,1460.654,135.569z"/>
			<path class="st2" d="M1470.568,131.418c-1.206-0.294-2.421,0.446-2.715,1.652s0.446,2.421,1.651,2.715
				c1.206,0.294,2.422-0.446,2.715-1.652C1472.513,132.928,1471.774,131.712,1470.568,131.418z"/>
			
				<ellipse transform="matrix(0.1491 -0.9888 0.9888 0.1491 1133.3159 1572.0657)" class="st2" cx="1480.102" cy="127.523" rx="2.247" ry="2.247"/>
		</g>
		<circle class="st6" cx="1440.173" cy="244.812" r="1.124"/>
		<circle class="st6" cx="1426.148" cy="252.926" r="2.247"/>
	</g>
</g>
<g>
	<g>
		<path class="st0" d="M1729.782,115.874c2.495,0.117,4.958,0.304,7.383,0.56c12.207,1.289,23.382,4.309,32.019,8.708
			c8.647,4.403,13.837,9.837,14.603,15.153c-5.053,9.616-31.545,15.004-55.271,13.895c-15.103-0.708-29.164-3.59-39.592-8.123
			c-8.722-3.792-13.933-8.356-14.622-12.707C1679.005,122.38,1702.698,114.607,1729.782,115.874z"/>
		<path class="st1" d="M1670.827,129.679c-1.293,2.208-2.037,4.556-2.152,7.018c-0.687,14.689,21.161,27.492,50.943,30.636
			c2.522,0.266,5.104,0.463,7.73,0.585c33.646,1.573,60.586-9.677,61.331-25.611c0.158-3.37-0.87-6.679-2.972-9.822
			c-12.783,6.636-34.89,15.281-60.759,13.312C1698.665,143.796,1680.562,135.585,1670.827,129.679z"/>
		<path class="st2" d="M1788.679,142.307c0.372-7.947-5.779-15.561-17.319-21.437c-10.948-5.575-25.634-9.046-41.354-9.785
			c-33.646-1.573-60.586,9.677-61.331,25.611c-0.687,14.689,21.161,27.492,50.943,30.636c2.522,0.266,5.104,0.463,7.73,0.585
			C1760.994,169.491,1787.934,158.241,1788.679,142.307z M1729.782,115.874c2.495,0.117,4.958,0.304,7.383,0.56
			c12.207,1.289,23.382,4.309,32.019,8.708c8.647,4.403,13.837,9.837,14.603,15.153c-5.053,9.616-31.545,15.004-55.271,13.895
			c-15.103-0.708-29.164-3.59-39.592-8.123c-8.722-3.792-13.933-8.356-14.622-12.707
			C1679.005,122.38,1702.698,114.607,1729.782,115.874z M1727.572,163.129c-25.684-1.191-47.561-10.21-52.874-20.839
			c2.609,2.961,6.634,5.705,12.315,8.174c8.822,3.835,20.053,6.543,32.283,7.834c2.946,0.311,5.953,0.539,8.995,0.682
			c24.875,1.162,44.838-3.549,53.82-11.588C1775.763,157.434,1753.191,164.327,1727.572,163.129z"/>
		<g>
			<g>
				<path class="st2" d="M1723.809,130.291c-8.203-0.866-22.579-3.376-22.108-10.301c0.481-7.062,3.755-14.262,8.981-19.753
					c5.623-5.909,12.554-8.901,19.518-8.427c6.956,0.474,13.424,4.379,18.194,10.996c4.433,6.149,6.699,13.727,6.218,20.79l0,0
					c-0.558,8.188-20.849,7.445-27.055,7.021C1726.599,130.552,1725.306,130.449,1723.809,130.291z M1730.472,96.645
					c-0.199-0.021-0.398-0.039-0.598-0.052c-10.022-0.683-22.423,9.531-23.39,23.723c0.398,1.462,7.896,4.597,21.406,5.519
					c13.458,0.916,21.297-1.159,21.941-2.587c0.394-5.873-1.596-12.465-5.326-17.638
					C1740.726,100.368,1735.763,97.204,1730.472,96.645z"/>
			</g>
			<g class="st7">
				<path class="st4" d="M1730.472,96.645c-0.199-0.021-0.398-0.039-0.598-0.052c-10.022-0.683-22.423,9.531-23.39,23.723
					c0.398,1.462,7.896,4.597,21.406,5.519c13.458,0.916,21.297-1.159,21.941-2.587c0.394-5.873-1.596-12.465-5.326-17.638
					C1740.726,100.368,1735.763,97.204,1730.472,96.645z"/>
			</g>
			<g class="st5">
				<path class="st0" d="M1744.11,125.343c0.24-3.282,0.414-9.876-1.296-16.075c-1.484-5.379-6.822-9.777-10.781-12.36
					c-0.518-0.106-1.036-0.207-1.561-0.262c-0.199-0.021-0.398-0.039-0.598-0.052c-1.356-0.092-2.755,0.021-4.164,0.31
					c2.685,1.603,6.205,4.749,8.675,10.872c2.981,7.39,1.165,14.376-0.411,18.278
					C1738.133,126.068,1741.536,125.778,1744.11,125.343z"/>
				
					<ellipse transform="matrix(0.514 -0.8578 0.8578 0.514 743.3823 1525.0793)" class="st0" cx="1717.566" cy="106.509" rx="5.358" ry="3.141"/>
			</g>
		</g>
	</g>
	<circle class="st6" cx="1742.158" cy="174.993" r="3.112"/>
	<circle class="st6" cx="1744.335" cy="208.912" r="3.525"/>
	<circle class="st6" cx="1710.138" cy="237.945" r="2.247"/>
	<circle class="st6" cx="1728.837" cy="187.882" r="1.124"/>
	<g>
		<path class="st2" d="M1684.386,130.755c-1.183-0.376-2.446,0.277-2.823,1.46c-0.376,1.183,0.277,2.446,1.46,2.823
			c1.182,0.376,2.447-0.277,2.823-1.46C1686.222,132.395,1685.569,131.131,1684.386,130.755z"/>
		<path class="st2" d="M1694.033,136.302c-1.182-0.376-2.446,0.277-2.823,1.46s0.277,2.446,1.46,2.823s2.447-0.277,2.823-1.46
			C1695.869,137.942,1695.215,136.678,1694.033,136.302z"/>
		<path class="st2" d="M1704.278,140.49c-1.183-0.376-2.446,0.277-2.823,1.46c-0.377,1.183,0.277,2.446,1.46,2.823
			c1.183,0.376,2.447-0.277,2.823-1.46C1706.114,142.13,1705.461,140.867,1704.278,140.49z"/>
		<path class="st2" d="M1715.208,143.892c-1.183-0.376-2.446,0.277-2.823,1.46c-0.377,1.183,0.277,2.447,1.46,2.823
			c1.183,0.376,2.446-0.277,2.823-1.46C1717.045,145.532,1716.391,144.268,1715.208,143.892z"/>
		<path class="st2" d="M1726.265,145.681c-1.183-0.376-2.447,0.277-2.823,1.46c-0.376,1.183,0.277,2.447,1.46,2.823
			c1.182,0.376,2.446-0.277,2.823-1.46C1728.101,147.322,1727.448,146.058,1726.265,145.681z"/>
		<path class="st2" d="M1737.409,146.231c-1.182-0.376-2.446,0.277-2.823,1.46c-0.376,1.183,0.277,2.447,1.46,2.823
			c1.183,0.376,2.447-0.277,2.823-1.46C1739.245,147.871,1738.591,146.607,1737.409,146.231z"/>
		<path class="st2" d="M1748.711,145.504c-1.182-0.376-2.446,0.277-2.823,1.46c-0.376,1.183,0.277,2.446,1.46,2.823
			c1.183,0.376,2.446-0.277,2.823-1.46C1750.547,147.144,1749.893,145.88,1748.711,145.504z"/>
		<path class="st2" d="M1759.545,143.53c-1.183-0.376-2.447,0.277-2.823,1.46c-0.376,1.183,0.277,2.446,1.46,2.823
			c1.183,0.376,2.446-0.277,2.823-1.46C1761.382,145.17,1760.728,143.906,1759.545,143.53z"/>
		<path class="st2" d="M1769.723,140.075c-1.183-0.376-2.446,0.277-2.823,1.46c-0.377,1.183,0.277,2.447,1.46,2.823
			c1.182,0.376,2.447-0.277,2.823-1.46C1771.559,141.715,1770.905,140.451,1769.723,140.075z"/>
		
			<ellipse transform="matrix(0.2171 -0.9761 0.9761 0.2171 1259.4626 1844.1045)" class="st2" cx="1779.394" cy="136.871" rx="2.247" ry="2.247"/>
	</g>
	<circle class="st6" cx="1734.43" cy="211.452" r="1.124"/>
</g>
<g>
	<g>
		<path class="st0" d="M2030.1,123.391c2.493,0.16,4.952,0.39,7.372,0.688c12.183,1.5,23.303,4.713,31.864,9.261
			c8.57,4.552,13.665,10.075,14.338,15.404c-5.219,9.527-31.8,14.455-55.503,12.935c-15.089-0.97-29.098-4.095-39.445-8.808
			c-8.655-3.942-13.786-8.597-14.4-12.958C1979.219,129.017,2003.042,121.655,2030.1,123.391z"/>
		<path class="st1" d="M1970.915,136.173c-1.331,2.185-2.115,4.52-2.273,6.979c-0.941,14.675,20.682,27.855,50.405,31.514
			c2.517,0.31,5.095,0.552,7.719,0.719c33.614,2.156,60.744-8.626,61.765-24.544c0.216-3.367-0.754-6.693-2.801-9.872
			c-12.896,6.413-35.15,14.674-60.98,12.257C1998.504,150.77,1980.547,142.247,1970.915,136.173z"/>
		<path class="st2" d="M2088.531,150.841c0.509-7.94-5.509-15.659-16.945-21.734c-10.849-5.764-25.473-9.489-41.178-10.5
			c-33.614-2.156-60.744,8.625-61.765,24.545c-0.941,14.675,20.682,27.855,50.405,31.514c2.517,0.31,5.095,0.552,7.719,0.719
			C2060.379,177.541,2087.51,166.759,2088.531,150.841z M2030.1,123.391c2.493,0.16,4.952,0.39,7.372,0.688
			c12.183,1.5,23.303,4.713,31.864,9.261c8.57,4.552,13.665,10.075,14.338,15.404c-5.219,9.527-31.8,14.455-55.503,12.935
			c-15.089-0.97-29.098-4.095-39.445-8.808c-8.655-3.942-13.786-8.597-14.4-12.958
			C1979.219,129.017,2003.042,121.655,2030.1,123.391z M2027.073,170.601c-25.66-1.636-47.377-11.032-52.505-21.752
			c2.557,3.006,6.534,5.819,12.171,8.386c8.754,3.987,19.937,6.889,32.142,8.392c2.941,0.362,5.943,0.642,8.982,0.838
			c24.851,1.593,44.893-2.772,54.013-10.654C2075.355,165.742,2052.667,172.243,2027.073,170.601z"/>
		<g>
			<g>
				<path class="st2" d="M2023.879,137.703c-8.187-1.008-22.517-3.767-21.926-10.682c0.604-7.053,4.001-14.195,9.321-19.595
					c5.725-5.811,12.707-8.682,19.661-8.087c6.946,0.594,13.346,4.611,18.001,11.309c4.325,6.225,6.46,13.841,5.857,20.894l0,0
					c-0.7,8.177-20.975,7.082-27.173,6.552C2026.664,138.012,2025.372,137.887,2023.879,137.703z M2031.124,104.177
					c-0.199-0.024-0.398-0.045-0.597-0.062c-10.009-0.857-22.584,9.141-23.797,23.314c0.373,1.469,7.815,4.733,21.307,5.889
					c13.44,1.149,21.314-0.789,21.983-2.206c0.496-5.865-1.38-12.491-5.019-17.728
					C2041.312,108.077,2036.404,104.827,2031.124,104.177z"/>
			</g>
			<g class="st7">
				<path class="st4" d="M2031.124,104.177c-0.199-0.024-0.398-0.045-0.597-0.062c-10.009-0.857-22.584,9.141-23.797,23.314
					c0.373,1.469,7.815,4.733,21.307,5.889c13.44,1.149,21.314-0.789,21.983-2.206c0.496-5.865-1.38-12.491-5.019-17.728
					C2041.312,108.077,2036.404,104.827,2031.124,104.177z"/>
			</g>
			<g class="st5">
				<path class="st0" d="M2044.262,133.107c0.297-3.277,0.585-9.867-1.017-16.095c-1.39-5.404-6.651-9.894-10.565-12.545
					c-0.516-0.115-1.033-0.225-1.557-0.289c-0.199-0.024-0.398-0.045-0.597-0.062c-1.354-0.116-2.755-0.027-4.169,0.238
					c2.657,1.649,6.122,4.855,8.486,11.021c2.853,7.441,0.915,14.394-0.728,18.268
					C2038.274,133.729,2041.681,133.498,2044.262,133.107z"/>
				
					<ellipse transform="matrix(0.5288 -0.8488 0.8488 0.5288 854.4271 1766.4716)" class="st0" cx="2018.084" cy="113.745" rx="5.358" ry="3.141"/>
			</g>
		</g>
	</g>
	<circle class="st6" cx="2016.582" cy="194.251" r="3.112"/>
	<circle class="st6" cx="2042.973" cy="247.333" r="3.525"/>
	<circle class="st6" cx="2042.973" cy="221.94" r="2.247"/>
	<circle class="st6" cx="2032.186" cy="181.417" r="1.124"/>
	<g>
		<path class="st2" d="M1980.399,136.461c-1.171-0.411-2.453,0.205-2.865,1.376c-0.411,1.171,0.205,2.454,1.376,2.865
			c1.171,0.411,2.454-0.205,2.865-1.376C1982.186,138.154,1981.57,136.872,1980.399,136.461z"/>
		<path class="st2" d="M1989.878,142.29c-1.171-0.411-2.453,0.205-2.865,1.376s0.205,2.454,1.376,2.865
			c1.171,0.411,2.454-0.205,2.865-1.376S1991.049,142.701,1989.878,142.29z"/>
		<path class="st2" d="M1999.995,146.779c-1.171-0.411-2.453,0.205-2.865,1.376c-0.411,1.171,0.205,2.454,1.376,2.865
			c1.171,0.411,2.454-0.205,2.865-1.376C2001.781,148.473,2001.166,147.19,1999.995,146.779z"/>
		<path class="st2" d="M2010.82,150.502c-1.171-0.411-2.454,0.205-2.865,1.376s0.205,2.454,1.376,2.865
			c1.171,0.411,2.454-0.205,2.865-1.376C2012.607,152.196,2011.991,150.913,2010.82,150.502z"/>
		<path class="st2" d="M2021.819,152.617c-1.171-0.411-2.454,0.205-2.865,1.376s0.205,2.454,1.376,2.865
			c1.171,0.411,2.453-0.205,2.865-1.376C2023.606,154.311,2022.99,153.028,2021.819,152.617z"/>
		<path class="st2" d="M2032.942,153.495c-1.171-0.411-2.454,0.205-2.865,1.376s0.205,2.454,1.376,2.865
			c1.171,0.411,2.454-0.205,2.865-1.376C2034.728,155.189,2034.112,153.907,2032.942,153.495z"/>
		<path class="st2" d="M2044.26,153.103c-1.171-0.411-2.454,0.205-2.865,1.376s0.205,2.454,1.376,2.865
			c1.171,0.411,2.454-0.205,2.865-1.376C2046.047,154.796,2045.431,153.514,2044.26,153.103z"/>
		<path class="st2" d="M2055.148,151.449c-1.171-0.411-2.454,0.205-2.865,1.376s0.205,2.454,1.376,2.865
			c1.171,0.411,2.454-0.205,2.865-1.376S2056.319,151.86,2055.148,151.449z"/>
		<path class="st2" d="M2065.423,148.296c-1.171-0.411-2.453,0.205-2.865,1.376c-0.411,1.171,0.205,2.454,1.375,2.865
			c1.171,0.411,2.454-0.205,2.865-1.376C2067.21,149.99,2066.594,148.707,2065.423,148.296z"/>
		
			<ellipse transform="matrix(0.2459 -0.9693 0.9693 0.2459 1424.1416 2121.1912)" class="st2" cx="2075.324" cy="145.324" rx="2.247" ry="2.247"/>
	</g>
	<circle class="st6" cx="2028.141" cy="233.551" r="1.124"/>
	<circle class="st6" cx="2042.373" cy="210.03" r="1.124"/>
	<circle class="st6" cx="2018.104" cy="176.173" r="1.124"/>
</g>
<g>
	<g>
		<path class="st0" d="M2329.206,128.141c2.497,0.075,4.962,0.222,7.391,0.437c12.227,1.085,23.45,3.918,32.16,8.172
			c8.719,4.258,14,9.605,14.854,14.907c-4.892,9.699-31.29,15.529-55.031,14.816c-15.113-0.456-29.22-3.103-39.721-7.461
			c-8.785-3.645-14.071-8.123-14.833-12.461C2278.546,135.494,2302.105,127.326,2329.206,128.141z"/>
		<path class="st1" d="M2270.49,142.928c-1.256,2.229-1.961,4.59-2.035,7.053c-0.441,14.699,21.618,27.135,51.448,29.781
			c2.526,0.224,5.111,0.378,7.739,0.456c33.668,1.011,60.416-10.687,60.895-26.631c0.101-3.372-0.981-6.663-3.135-9.771
			c-12.67,6.848-34.63,15.861-60.528,14.324C2298.56,156.578,2280.323,148.671,2270.49,142.928z"/>
		<path class="st2" d="M2388.536,153.587c0.239-7.952-6.038-15.462-17.675-21.145c-11.039-5.391-25.781-8.617-41.511-9.093
			c-33.668-1.011-60.416,10.687-60.895,26.632c-0.441,14.699,21.618,27.135,51.448,29.781c2.526,0.224,5.111,0.378,7.739,0.456
			C2361.31,181.23,2388.057,169.532,2388.536,153.587z M2329.206,128.141c2.497,0.075,4.962,0.222,7.391,0.437
			c12.227,1.085,23.45,3.918,32.16,8.172c8.719,4.258,14,9.605,14.854,14.907c-4.892,9.699-31.29,15.529-55.031,14.816
			c-15.113-0.456-29.22-3.103-39.721-7.461c-8.785-3.645-14.071-8.123-14.833-12.461
			C2278.546,135.494,2302.105,127.326,2329.206,128.141z M2327.786,175.427c-25.7-0.762-47.724-9.414-53.214-19.954
			c2.658,2.917,6.728,5.593,12.449,7.967c8.885,3.687,20.159,6.207,32.409,7.294c2.951,0.262,5.961,0.439,9.006,0.532
			c24.891,0.747,44.772-4.297,53.62-12.485C2375.875,168.928,2353.422,176.197,2327.786,175.427z"/>
		<g>
			<g>
				<path class="st2" d="M2323.475,142.656c-8.217-0.729-22.632-2.999-22.277-9.93c0.363-7.069,3.516-14.323,8.649-19.9
					c5.524-6.002,12.404-9.109,19.375-8.751c6.962,0.357,13.495,4.155,18.375,10.69c4.535,6.075,6.927,13.613,6.564,20.683l0,0
					c-0.422,8.196-20.722,7.792-26.934,7.472C2326.269,142.87,2324.974,142.789,2323.475,142.656z M2329.575,108.904
					c-0.199-0.018-0.399-0.032-0.599-0.042c-10.032-0.516-22.26,9.904-22.991,24.11c0.423,1.455,7.972,4.465,21.495,5.161
					c13.471,0.691,21.275-1.514,21.895-2.953c0.296-5.879-1.804-12.436-5.619-17.547
					C2339.891,112.455,2334.875,109.374,2329.575,108.904z"/>
			</g>
			<g class="st7">
				<path class="st4" d="M2329.575,108.904c-0.199-0.018-0.399-0.032-0.599-0.042c-10.032-0.516-22.26,9.904-22.991,24.11
					c0.423,1.455,7.972,4.465,21.495,5.161c13.471,0.691,21.275-1.514,21.895-2.953c0.296-5.879-1.804-12.436-5.619-17.547
					C2339.891,112.455,2334.875,109.374,2329.575,108.904z"/>
			</g>
			<g class="st5">
				<path class="st0" d="M2343.69,137.37c0.185-3.285,0.249-9.882-1.564-16.051c-1.573-5.353-6.984-9.662-10.986-12.179
					c-0.519-0.098-1.04-0.19-1.565-0.236c-0.199-0.018-0.399-0.032-0.599-0.042c-1.357-0.07-2.755,0.067-4.158,0.38
					c2.711,1.558,6.283,4.644,8.855,10.726c3.104,7.339,1.404,14.355-0.106,18.282
					C2337.727,138.195,2341.124,137.848,2343.69,137.37z"/>
				
					<ellipse transform="matrix(0.4996 -0.8663 0.8663 0.4996 1056.3956 2066.4788)" class="st0" cx="2316.822" cy="118.885" rx="5.358" ry="3.141"/>
			</g>
		</g>
	</g>
	<circle class="st6" cx="2343.323" cy="189.007" r="3.112"/>
	<circle class="st6" cx="2318.155" cy="248.931" r="3.525"/>
	<circle class="st6" cx="2310.318" cy="208.074" r="2.247"/>
	<circle class="st6" cx="2318.555" cy="240.542" r="1.124"/>
	<g>
		<path class="st2" d="M2277.644,142.851c-1.174-0.402-2.452,0.223-2.854,1.397s0.223,2.452,1.397,2.854
			c1.174,0.402,2.452-0.223,2.854-1.397C2279.444,144.531,2278.818,143.253,2277.644,142.851z"/>
		<path class="st2" d="M2287.167,148.608c-1.174-0.402-2.452,0.223-2.854,1.397s0.223,2.452,1.397,2.854
			c1.174,0.402,2.452-0.223,2.854-1.397C2288.966,150.288,2288.341,149.01,2287.167,148.608z"/>
		<path class="st2" d="M2297.317,153.02c-1.174-0.402-2.452,0.223-2.854,1.398c-0.402,1.174,0.223,2.452,1.397,2.854
			c1.174,0.402,2.452-0.223,2.854-1.397C2299.117,154.7,2298.491,153.422,2297.317,153.02z"/>
		<path class="st2" d="M2308.171,156.66c-1.174-0.402-2.452,0.223-2.854,1.397s0.223,2.452,1.397,2.854s2.452-0.223,2.854-1.397
			C2309.97,158.341,2309.345,157.063,2308.171,156.66z"/>
		<path class="st2" d="M2319.186,158.692c-1.174-0.402-2.452,0.223-2.854,1.397s0.224,2.452,1.397,2.854
			c1.174,0.402,2.452-0.223,2.854-1.397C2320.985,160.372,2320.36,159.094,2319.186,158.692z"/>
		<path class="st2" d="M2330.314,159.486c-1.174-0.402-2.452,0.223-2.854,1.397s0.223,2.452,1.397,2.854
			c1.174,0.402,2.452-0.223,2.854-1.397C2332.114,161.166,2331.489,159.888,2330.314,159.486z"/>
		<path class="st2" d="M2341.63,159.007c-1.174-0.402-2.452,0.223-2.854,1.398c-0.403,1.174,0.223,2.452,1.397,2.854
			c1.174,0.402,2.452-0.223,2.854-1.397C2343.429,160.687,2342.803,159.409,2341.63,159.007z"/>
		<path class="st2" d="M2352.505,157.271c-1.174-0.402-2.452,0.223-2.854,1.397s0.223,2.452,1.397,2.854
			c1.174,0.402,2.452-0.223,2.854-1.397S2353.679,157.673,2352.505,157.271z"/>
		<path class="st2" d="M2362.755,154.04c-1.174-0.402-2.452,0.223-2.854,1.397s0.223,2.452,1.397,2.854
			c1.174,0.402,2.452-0.223,2.854-1.397C2364.555,155.72,2363.93,154.442,2362.755,154.04z"/>
		<path class="st2" d="M2373.314,148.863c-1.174-0.402-2.452,0.223-2.854,1.397s0.223,2.452,1.397,2.854
			c1.174,0.402,2.452-0.223,2.854-1.397S2374.489,149.265,2373.314,148.863z"/>
		<path class="st2" d="M2383.102,143.869c-1.174-0.402-2.452,0.223-2.854,1.397s0.223,2.452,1.397,2.854
			c1.174,0.402,2.452-0.223,2.854-1.397C2384.902,145.549,2384.276,144.271,2383.102,143.869z"/>
	</g>
	<circle class="st6" cx="2332.083" cy="242.264" r="1.124"/>
</g>
<g>
	<g>
		<path class="st0" d="M2628.378,131.761c2.498-0.003,4.967,0.067,7.401,0.206c12.255,0.703,23.561,3.185,32.4,7.165
			c8.848,3.984,14.292,9.164,15.311,14.437c-4.587,9.846-30.791,16.497-54.542,16.525c-15.12,0.016-29.303-2.19-39.935-6.219
			c-8.894-3.37-14.317-7.68-15.214-11.992C2577.971,140.691,2601.265,131.792,2628.378,131.761z"/>
		<path class="st1" d="M2570.152,148.373c-1.186,2.267-1.816,4.649-1.814,7.113c0.017,14.705,22.453,26.448,52.351,28.163
			c2.531,0.145,5.12,0.219,7.749,0.215c33.683-0.039,60.053-12.565,60.035-28.517c-0.004-3.374-1.188-6.63-3.438-9.668
			c-12.45,7.24-34.119,16.933-60.052,16.204C2598.634,161.141,2580.159,153.806,2570.152,148.373z"/>
		<path class="st2" d="M2688.473,155.345c-0.009-7.956-6.517-15.266-18.325-20.584c-11.202-5.044-26.037-7.809-41.775-7.794
			c-33.683,0.039-60.053,12.565-60.035,28.518c0.017,14.705,22.453,26.448,52.351,28.163c2.531,0.145,5.12,0.219,7.749,0.215
			C2662.121,183.823,2688.491,171.297,2688.473,155.345z M2628.378,131.761c2.498-0.003,4.967,0.067,7.401,0.206
			c12.255,0.703,23.561,3.185,32.4,7.165c8.848,3.984,14.292,9.164,15.311,14.437c-4.587,9.846-30.791,16.497-54.542,16.525
			c-15.12,0.016-29.303-2.19-39.935-6.219c-8.894-3.37-14.317-7.68-15.214-11.992
			C2577.971,140.691,2601.265,131.792,2628.378,131.761z M2628.433,179.068c-25.712,0.04-47.995-7.922-53.811-18.285
			c2.748,2.833,6.899,5.38,12.692,7.575c8.996,3.408,20.343,5.576,32.621,6.28c2.958,0.17,5.972,0.253,9.018,0.251
			c24.902-0.03,44.617-5.691,53.204-14.15C2676.296,171.073,2654.08,179.039,2628.433,179.068z"/>
		<g>
			<g>
				<path class="st2" d="M2623.102,146.448c-8.236-0.472-22.715-2.292-22.575-9.231c0.143-7.077,3.068-14.425,8.025-20.16
					c5.334-6.171,12.114-9.492,19.092-9.351c6.97,0.14,13.618,3.732,18.699,10.112c4.722,5.93,7.349,13.391,7.206,20.468l0,0
					c-0.166,8.205-20.469,8.434-26.688,8.308C2625.902,146.575,2624.605,146.534,2623.102,146.448z M2628.147,112.522
					c-0.2-0.011-0.4-0.019-0.6-0.023c-10.043-0.203-21.941,10.593-22.228,24.815c0.468,1.441,8.107,4.214,21.645,4.488
					c13.486,0.27,21.217-2.176,21.792-3.634c0.113-5.885-2.191-12.374-6.164-17.363
					C2638.568,115.75,2633.459,112.827,2628.147,112.522z"/>
			</g>
			<g class="st7">
				<path class="st4" d="M2628.147,112.522c-0.2-0.011-0.4-0.019-0.6-0.023c-10.043-0.203-21.941,10.593-22.228,24.815
					c0.468,1.441,8.107,4.214,21.645,4.488c13.486,0.27,21.217-2.176,21.792-3.634c0.113-5.885-2.191-12.374-6.164-17.363
					C2638.568,115.75,2633.459,112.827,2628.147,112.522z"/>
			</g>
			<g class="st5">
				<path class="st0" d="M2643.143,140.534c0.083-3.289-0.059-9.885-2.064-15.994c-1.74-5.302-7.282-9.439-11.36-11.83
					c-0.522-0.081-1.045-0.157-1.572-0.187c-0.2-0.011-0.4-0.019-0.6-0.023c-1.359-0.027-2.751,0.153-4.144,0.509
					c2.758,1.473,6.425,4.446,9.186,10.444c3.332,7.239,1.851,14.304,0.464,18.277
					C2637.208,141.545,2640.593,141.092,2643.143,140.534z"/>
				
					<ellipse transform="matrix(0.4724 -0.8814 0.8814 0.4724 1271.694 2370.4856)" class="st0" cx="2615.842" cy="123.035" rx="5.358" ry="3.141"/>
			</g>
		</g>
	</g>
	<circle class="st6" cx="2642.121" cy="225.561" r="3.112"/>
	<circle class="st6" cx="2641.322" cy="191.604" r="2.247"/>
	<circle class="st6" cx="2626.816" cy="206.166" r="1.124"/>
	<g>
		<path class="st2" d="M2574.202,144.045c-1.161-0.439-2.458,0.147-2.896,1.308c-0.439,1.161,0.147,2.458,1.308,2.896
			c1.161,0.439,2.458-0.147,2.896-1.308S2575.363,144.483,2574.202,144.045z"/>
		<path class="st2" d="M2582.942,149.296c-1.161-0.439-2.458,0.147-2.896,1.308s0.147,2.458,1.308,2.896
			c1.161,0.439,2.458-0.147,2.897-1.308C2584.689,151.031,2584.103,149.734,2582.942,149.296z"/>
		<path class="st2" d="M2592.951,154.021c-1.161-0.439-2.458,0.147-2.896,1.308s0.147,2.458,1.308,2.896
			c1.161,0.439,2.458-0.147,2.896-1.308C2594.698,155.756,2594.112,154.459,2592.951,154.021z"/>
		<path class="st2" d="M2603.686,157.996c-1.161-0.439-2.458,0.147-2.896,1.308c-0.439,1.161,0.147,2.458,1.308,2.896
			c1.161,0.439,2.458-0.147,2.896-1.308C2605.433,159.732,2604.847,158.435,2603.686,157.996z"/>
		<path class="st2" d="M2614.632,160.369c-1.161-0.439-2.458,0.147-2.896,1.308s0.147,2.458,1.308,2.896
			c1.161,0.439,2.458-0.147,2.896-1.308C2616.379,162.104,2615.793,160.808,2614.632,160.369z"/>
		<path class="st2" d="M2625.731,161.508c-1.161-0.439-2.458,0.147-2.896,1.308s0.147,2.458,1.308,2.896
			c1.161,0.439,2.458-0.147,2.896-1.308C2627.478,163.243,2626.892,161.947,2625.731,161.508z"/>
		<path class="st2" d="M2637.056,161.381c-1.161-0.439-2.458,0.147-2.896,1.308c-0.439,1.161,0.147,2.458,1.308,2.896
			c1.161,0.439,2.458-0.147,2.896-1.308S2638.217,161.82,2637.056,161.381z"/>
		<path class="st2" d="M2647.98,159.983c-1.161-0.439-2.458,0.147-2.896,1.308s0.147,2.458,1.308,2.896
			c1.161,0.439,2.457-0.147,2.896-1.308C2649.726,161.718,2649.141,160.422,2647.98,159.983z"/>
		<path class="st2" d="M2658.326,157.072c-1.161-0.439-2.458,0.147-2.896,1.308c-0.439,1.161,0.147,2.458,1.308,2.896
			c1.161,0.439,2.458-0.147,2.896-1.308C2660.073,158.807,2659.487,157.511,2658.326,157.072z"/>
		<path class="st2" d="M2669.04,152.225c-1.161-0.439-2.458,0.147-2.896,1.308s0.147,2.458,1.308,2.896
			c1.161,0.439,2.458-0.147,2.896-1.308C2670.787,153.961,2670.201,152.664,2669.04,152.225z"/>
		<path class="st2" d="M2678.979,147.538c-1.161-0.439-2.458,0.147-2.896,1.308c-0.439,1.161,0.147,2.458,1.308,2.896
			c1.161,0.439,2.458-0.147,2.896-1.308S2680.139,147.976,2678.979,147.538z"/>
	</g>
	<circle class="st6" cx="2633.457" cy="236.766" r="1.124"/>
</g>
<g>
	<g>
		<path class="st0" d="M2927.787,127.617c2.497-0.056,4.967-0.038,7.404,0.05c12.267,0.443,23.623,2.685,32.544,6.477
			c8.93,3.796,14.483,8.859,15.614,14.109c-4.377,9.941-30.434,17.145-54.18,17.676c-15.116,0.336-29.343-1.569-40.058-5.371
			c-8.963-3.181-14.477-7.375-15.464-11.667C2877.581,137.612,2900.68,128.223,2927.787,127.617z"/>
		<path class="st1" d="M2869.925,145.458c-1.138,2.292-1.718,4.686-1.663,7.149c0.329,14.702,23.009,25.966,52.936,27.047
			c2.534,0.092,5.123,0.11,7.752,0.05c33.675-0.753,59.773-13.835,59.417-29.782c-0.075-3.373-1.329-6.603-3.643-9.593
			c-12.294,7.502-33.752,17.652-59.695,17.473C2898.671,157.62,2880.045,150.678,2869.925,145.458z"/>
		<path class="st2" d="M2988.368,149.923c-0.178-7.954-6.839-15.125-18.757-20.191c-11.306-4.806-26.197-7.256-41.931-6.908
			c-33.675,0.753-59.773,13.835-59.417,29.783c0.329,14.702,23.009,25.966,52.936,27.047c2.534,0.092,5.123,0.11,7.752,0.05
			C2962.625,178.953,2988.724,165.871,2988.368,149.923z M2927.787,127.617c2.497-0.056,4.967-0.038,7.404,0.05
			c12.267,0.443,23.623,2.685,32.544,6.477c8.93,3.796,14.483,8.859,15.614,14.109c-4.377,9.941-30.434,17.145-54.18,17.676
			c-15.116,0.336-29.343-1.569-40.058-5.371c-8.963-3.181-14.477-7.375-15.464-11.667
			C2877.581,137.612,2900.68,128.223,2927.787,127.617z M2928.844,174.912c-25.705,0.584-48.152-6.903-54.186-17.141
			c2.807,2.774,7.012,5.233,12.85,7.305c9.066,3.217,20.457,5.144,32.747,5.587c2.961,0.107,5.976,0.127,9.021,0.06
			c24.896-0.557,44.486-6.635,52.893-15.274C2976.527,165.905,2954.485,174.34,2928.844,174.912z"/>
		<g>
			<g>
				<path class="st2" d="M2922.823,142.412c-8.244-0.298-22.758-1.81-22.766-8.75c-0.007-7.079,2.761-14.487,7.596-20.326
					c5.202-6.283,11.91-9.746,18.89-9.753c6.972-0.008,13.694,3.442,18.909,9.714c4.847,5.829,7.631,13.232,7.638,20.311l0,0
					c0.008,8.207-20.286,8.866-26.506,8.872C2925.624,142.48,2924.327,142.467,2922.823,142.412z M2927.148,108.387
					c-0.2-0.007-0.4-0.011-0.6-0.011c-10.045,0.01-21.712,11.056-21.697,25.281c0.498,1.431,8.194,4.041,21.735,4.029
					c13.489-0.015,21.166-2.625,21.71-4.095c-0.012-5.886-2.452-12.325-6.53-17.229
					C2937.635,111.393,2932.466,108.579,2927.148,108.387z"/>
			</g>
			<g class="st7">
				<path class="st4" d="M2927.148,108.387c-0.2-0.007-0.4-0.011-0.6-0.011c-10.045,0.01-21.712,11.056-21.697,25.281
					c0.498,1.431,8.194,4.041,21.735,4.029c13.489-0.015,21.166-2.625,21.71-4.095c-0.012-5.886-2.452-12.325-6.53-17.229
					C2937.635,111.393,2932.466,108.579,2927.148,108.387z"/>
			</g>
			<g class="st5">
				<path class="st0" d="M2942.734,136.075c0.013-3.29-0.269-9.881-2.402-15.947c-1.852-5.264-7.48-9.283-11.608-11.587
					c-0.524-0.07-1.048-0.135-1.576-0.154c-0.2-0.007-0.4-0.011-0.6-0.011c-1.359,0.001-2.748,0.211-4.133,0.597
					c2.789,1.414,6.518,4.309,9.405,10.247c3.484,7.167,2.154,14.261,0.851,18.263
					C2936.822,137.211,2940.196,136.687,2942.734,136.075z"/>
				
					<ellipse transform="matrix(0.4536 -0.8912 0.8912 0.4536 1486.5397 2662.9963)" class="st0" cx="2915.015" cy="119.185" rx="5.358" ry="3.141"/>
			</g>
		</g>
	</g>
	<circle class="st6" cx="2941.716" cy="259.257" r="3.112"/>
	<circle class="st6" cx="2941.219" cy="245.935" r="2.247"/>
	<circle class="st6" cx="2930.632" cy="211.379" r="1.124"/>
	<g>
		<path class="st2" d="M2880.498,145.966c-1.158-0.445-2.458,0.133-2.904,1.292c-0.445,1.159,0.134,2.458,1.292,2.904
			c1.158,0.445,2.458-0.133,2.904-1.292C2882.235,147.711,2881.656,146.411,2880.498,145.966z"/>
		<path class="st2" d="M2890.48,150.747c-1.159-0.445-2.458,0.133-2.904,1.292c-0.445,1.158,0.134,2.458,1.292,2.903
			s2.458-0.133,2.904-1.292C2892.217,152.492,2891.638,151.192,2890.48,150.747z"/>
		<path class="st2" d="M2901.193,154.783c-1.159-0.445-2.459,0.133-2.904,1.292c-0.445,1.159,0.133,2.459,1.292,2.904
			c1.158,0.445,2.458-0.133,2.904-1.292C2902.929,156.528,2902.351,155.228,2901.193,154.783z"/>
		<path class="st2" d="M2912.125,157.217c-1.158-0.445-2.458,0.133-2.904,1.292c-0.445,1.159,0.134,2.459,1.292,2.904
			c1.159,0.445,2.458-0.133,2.904-1.292C2913.863,158.962,2913.284,157.662,2912.125,157.217z"/>
		<path class="st2" d="M2923.218,158.418c-1.158-0.445-2.458,0.133-2.903,1.292c-0.445,1.159,0.133,2.459,1.292,2.904
			c1.158,0.445,2.458-0.133,2.903-1.292S2924.376,158.863,2923.218,158.418z"/>
		<path class="st2" d="M2934.543,158.354c-1.159-0.445-2.459,0.133-2.903,1.292c-0.446,1.159,0.133,2.458,1.292,2.903
			s2.458-0.133,2.904-1.292C2936.28,160.099,2935.701,158.799,2934.543,158.354z"/>
		<path class="st2" d="M2945.475,157.018c-1.159-0.445-2.459,0.133-2.904,1.292c-0.445,1.159,0.133,2.458,1.292,2.903
			c1.158,0.445,2.458-0.133,2.903-1.292S2946.633,157.463,2945.475,157.018z"/>
		<path class="st2" d="M2955.837,154.165c-1.158-0.445-2.458,0.133-2.903,1.292c-0.445,1.159,0.133,2.459,1.292,2.904
			c1.158,0.445,2.458-0.133,2.904-1.292C2957.574,155.91,2956.995,154.61,2955.837,154.165z"/>
		<path class="st2" d="M2966.578,149.378c-1.158-0.445-2.458,0.133-2.904,1.292c-0.445,1.159,0.134,2.458,1.292,2.904
			c1.159,0.445,2.458-0.133,2.904-1.292C2968.315,151.123,2967.737,149.823,2966.578,149.378z"/>
		<path class="st2" d="M2976.542,144.746c-1.159-0.445-2.458,0.133-2.904,1.292s0.133,2.459,1.292,2.904s2.458-0.133,2.904-1.292
			C2978.279,146.491,2977.701,145.191,2976.542,144.746z"/>
	</g>
	<circle class="st6" cx="2925.713" cy="252.731" r="1.124"/>
	<circle class="st6" cx="2915.851" cy="222.764" r="3.112"/>
	<circle class="st6" cx="2916.45" cy="210.38" r="1.124"/>
</g>
</svg>
