<?xml version="1.0" encoding="utf-8"?>
<!-- Generator: Adobe Illustrator 22.0.1, SVG Export Plug-In . SVG Version: 6.00 Build 0)  -->
<svg version="1.1" id="Layer_1" xmlns="http://www.w3.org/2000/svg" xmlns:xlink="http://www.w3.org/1999/xlink" x="0px" y="0px"
	 viewBox="0 0 3000 300" style="enable-background:new 0 0 3000 300;" xml:space="preserve">
<style type="text/css">
	.st0{fill:#497CBF;}
	.st1{fill:#FFFFFF;}
	.st2{fill:#2F5382;}
	.st3{fill:#EF3730;}
	.st4{fill:#FDBA14;}
	.st5{fill:#00AC4E;}
	.st6{fill:#D1D3D4;}
</style>
<g>
	<g>
		<g>
			<path d="M163.468,164.523l-31.645-16.702c-0.23-0.122-0.359-0.296-0.358-0.48c0.002-0.184,0.136-0.357,0.371-0.475l31.645-16.154
				l1.353,0.961l-30.72,15.68l30.733,16.219L163.468,164.523z"/>
		</g>
	</g>
	<g>
		<path class="st0" d="M137.764,129.181c-12.297,0-23.472,11.071-28.732,17.223c-13.257-3.278-14.52-5.674-31.114-6.744
			c-4.775-10.107-15.121-18.394-30.273-18.394c-21.462,0-33.285,14.709-33.285,25.73c0,0.141,0.004,0.281,0.009,0.419
			c-9.48,5.016-12.418,10.946-12.418,13.761c0,5.378,10.71,22.136,57.329,22.136c41.228,0,76.543-9.911,76.543-22.136
			C137.764,153.907,142.611,129.181,137.764,129.181z"/>
		<path class="st1" d="M14.704,143.647c28.155,9.914,41.179-9.785,19.048-20.043C22.781,127.596,16.224,136.028,14.704,143.647z"/>
		<path class="st1" d="M66.21,141.996c0,3.396-2.751,6.148-6.148,6.148c-3.396,0-6.147-2.751-6.147-6.148
			c0-3.394,2.751-6.148,6.147-6.148C63.459,135.848,66.21,138.602,66.21,141.996z"/>
		<path class="st2" d="M133.076,166.09c-57.798-25.789-91.184-11.468-126.301,3.528c6.788,6.481,21.917,13.696,52.506,13.696
			C94.812,183.313,121.985,175.951,133.076,166.09z"/>
		<g>
			<path class="st3" d="M95.994,167.918c6.042,13.626,8.481,35.761-0.829,35.761c-10.85,0-41.25-20.08-41.25-35.761
				c0-6.443,9.421-9.778,21.04-9.778C86.573,158.142,93.381,162.03,95.994,167.918z"/>
			<path class="st4" d="M59.004,180.347c9.125,12.177,28.074,23.334,36.159,23.334c8.673,0,7.15-19.214,2.013-32.86
				C83.359,168.396,71.279,172.454,59.004,180.347z"/>
		</g>
		<g>
			<path class="st3" d="M133.116,162.865c3.056,6.888,7.174,20.933,2.468,20.933c-5.485,0-23.741-13.005-23.741-20.933
				c0-3.257,4.762-4.942,10.635-4.942C128.354,157.921,131.794,159.888,133.116,162.865z"/>
			<path class="st4" d="M120.902,175.682c5.424,4.542,11.806,8.116,14.683,8.116c4.707,0,0.587-14.045-2.468-20.933
				c-0.035-0.077-0.074-0.149-0.112-0.225C128.4,165.511,124.541,170.124,120.902,175.682z"/>
		</g>
	</g>
	<path class="st5" d="M137.764,129.181c-7.517,0-14.61,4.141-20.194,8.766c3.08,4.587,9.506,7.753,16.956,7.753
		c1.53,0,3.01-0.147,4.435-0.399C140.144,137.105,140.506,129.181,137.764,129.181z"/>
</g>
<g id="TVbOgR_1_">
	<g>
		<path class="st3" d="M159.032,133.321c0.447-0.954,0.967-1.868,1.522-2.76c2.723-4.372,6.286-7.904,10.681-10.585
			c2.905-1.772,6.02-3.041,9.335-3.821c1.548-0.364,3.113-0.612,4.698-0.747c1.41-0.121,2.821-0.154,4.234-0.092
			c1.677,0.073,3.339,0.274,4.985,0.609c4.613,0.943,8.805,2.83,12.61,5.595c0.763,0.552,1.495,1.142,2.212,1.754
			c0.103,0.087,0.103,0.127,0.009,0.221c-1.169,1.162-2.333,2.328-3.499,3.494c-1.894,1.894-3.789,3.786-5.678,5.685
			c-0.108,0.108-0.164,0.105-0.278,0.013c-2.302-1.85-4.895-3.1-7.781-3.729c-1.91-0.417-3.843-0.524-5.79-0.34
			c-6.884,0.658-12.799,4.872-15.649,11.153c-0.276,0.609-0.504,1.238-0.737,1.866C166.28,138.862,162.656,136.093,159.032,133.321z
			"/>
		<path class="st5" d="M209.183,171.973c-0.691,0.667-1.429,1.276-2.195,1.857c-3.503,2.655-7.414,4.435-11.696,5.411
			c-2.484,0.565-4.999,0.824-7.544,0.801c-1.743-0.017-3.477-0.176-5.196-0.469c-3.231-0.551-6.308-1.568-9.228-3.056
			c-3.052-1.557-5.788-3.552-8.206-5.981c-2.455-2.466-4.462-5.26-6.016-8.375c-0.029-0.057-0.051-0.118-0.074-0.177
			c0.024-0.016,0.052-0.029,0.074-0.046c2.576-1.975,5.152-3.951,7.731-5.926c1.022-0.783,2.045-1.563,3.07-2.346
			c0.307,0.875,0.64,1.738,1.064,2.565c2.183,4.262,5.481,7.323,9.905,9.162c1.677,0.697,3.427,1.118,5.231,1.302
			c1.599,0.164,3.196,0.122,4.79-0.057c2.045-0.23,4.019-0.725,5.902-1.563c0.715-0.318,1.398-0.695,2.067-1.099
			c0.384,0.301,0.769,0.599,1.155,0.898C203.07,167.24,206.127,169.606,209.183,171.973z"/>
		<path class="st0" d="M209.183,171.973c-3.056-2.366-6.112-4.731-9.168-7.099c-0.385-0.298-0.769-0.599-1.155-0.898
			c0.546-0.377,1.094-0.752,1.605-1.18c1.791-1.493,3.132-3.317,4.045-5.461c0.391-0.921,0.684-1.872,0.899-2.848
			c0.038-0.171-0.003-0.193-0.158-0.193c-2.602,0.004-5.202,0.003-7.805,0.003c-3.049,0-6.099-0.003-9.147,0.004
			c-0.169,0-0.212-0.039-0.212-0.211c0.004-4.038,0.004-8.077,0-12.113c0-0.167,0.035-0.215,0.208-0.215
			c9.925,0.004,19.848,0.004,29.773,0.003c0.147,0,0.208,0.033,0.241,0.191c0.234,1.09,0.421,2.188,0.552,3.295
			c0.145,1.237,0.158,2.478,0.123,3.718c-0.031,1.116-0.109,2.232-0.241,3.341c-0.371,3.151-1.107,6.209-2.313,9.149
			c-1.177,2.872-2.747,5.507-4.735,7.891c-0.752,0.901-1.558,1.747-2.411,2.552C209.251,171.928,209.216,171.95,209.183,171.973z"/>
		<path class="st4" d="M169.9,153.665c-1.023,0.782-2.048,1.563-3.07,2.346c-2.576,1.975-5.154,3.951-7.731,5.926
			c-0.024,0.017-0.051,0.031-0.074,0.046c-0.32-0.59-0.579-1.206-0.837-1.824c-0.917-2.192-1.574-4.462-1.987-6.803
			c-0.285-1.625-0.443-3.262-0.482-4.911c-0.033-1.39,0.018-2.778,0.16-4.159c0.349-3.361,1.19-6.594,2.55-9.693
			c0.189-0.43,0.377-0.862,0.6-1.273c3.624,2.772,7.25,5.542,10.875,8.314c-0.149,0.538-0.315,1.07-0.443,1.612
			c-0.439,1.892-0.594,3.804-0.462,5.742c0.108,1.572,0.399,3.109,0.885,4.609C169.895,153.619,169.898,153.642,169.9,153.665z"/>
	</g>
</g>
<path class="st6" d="M188.77,185.953c-0.733,0-1.439,0.113-2.104,0.321c-1.205-0.981-2.741-1.571-4.417-1.571
	c-2.921,0-5.421,1.79-6.47,4.331c-2.24,1.032-3.799,3.291-3.799,5.919c0,3.6,2.919,6.519,6.519,6.519c2.3,0,4.317-1.194,5.478-2.993
	c0.111-0.028,0.223-0.052,0.332-0.085c1.213,0.999,2.766,1.599,4.46,1.599c3.877,0,7.02-3.143,7.02-7.02
	S192.647,185.953,188.77,185.953z"/>
<path class="st6" d="M245.75,197.577c0-2.102-1.936-3.806-4.324-3.806c-0.096,0-0.191,0.007-0.286,0.013
	c-0.784-1.23-2.157-2.047-3.723-2.047c-2.439,0-4.417,1.977-4.417,4.417c0,1.353,0.61,2.563,1.568,3.373
	c0.033,2.244,1.859,4.053,4.11,4.053c1.615,0,3.008-0.933,3.681-2.287C244.299,200.916,245.75,199.397,245.75,197.577z"/>
<g>
	<g>
		<g>
			<path d="M2562.695,164.523l-31.645-16.702c-0.23-0.122-0.359-0.296-0.357-0.48c0.002-0.184,0.136-0.357,0.371-0.475
				l31.645-16.154l1.353,0.961l-30.72,15.68l30.733,16.219L2562.695,164.523z"/>
		</g>
	</g>
	<g>
		<path class="st0" d="M2536.99,129.181c-12.297,0-23.472,11.071-28.732,17.223c-13.257-3.278-14.52-5.674-31.114-6.744
			c-4.775-10.107-15.121-18.394-30.273-18.394c-21.462,0-33.285,14.709-33.285,25.73c0,0.141,0.004,0.281,0.009,0.419
			c-9.479,5.016-12.418,10.946-12.418,13.761c0,5.378,10.71,22.136,57.329,22.136c41.228,0,76.543-9.911,76.543-22.136
			C2536.99,153.907,2541.838,129.181,2536.99,129.181z"/>
		<path class="st1" d="M2413.931,143.647c28.155,9.914,41.179-9.785,19.048-20.043
			C2422.008,127.596,2415.451,136.028,2413.931,143.647z"/>
		<path class="st1" d="M2465.437,141.996c0,3.396-2.751,6.148-6.148,6.148c-3.396,0-6.147-2.751-6.147-6.148
			c0-3.394,2.751-6.148,6.147-6.148C2462.686,135.848,2465.437,138.602,2465.437,141.996z"/>
		<path class="st2" d="M2532.303,166.09c-57.798-25.789-91.184-11.468-126.301,3.528c6.788,6.481,21.917,13.696,52.506,13.696
			C2494.039,183.313,2521.212,175.951,2532.303,166.09z"/>
		<g>
			<path class="st3" d="M2495.221,167.918c6.042,13.626,8.481,35.761-0.829,35.761c-10.85,0-41.25-20.08-41.25-35.761
				c0-6.443,9.421-9.778,21.04-9.778C2485.8,158.142,2492.608,162.03,2495.221,167.918z"/>
			<path class="st4" d="M2458.231,180.347c9.125,12.177,28.073,23.334,36.159,23.334c8.673,0,7.15-19.214,2.013-32.86
				C2482.586,168.396,2470.506,172.454,2458.231,180.347z"/>
		</g>
		<g>
			<path class="st3" d="M2532.342,162.865c3.056,6.888,7.174,20.933,2.468,20.933c-5.485,0-23.741-13.005-23.741-20.933
				c0-3.257,4.762-4.942,10.635-4.942C2527.581,157.921,2531.021,159.888,2532.342,162.865z"/>
			<path class="st4" d="M2520.129,175.682c5.424,4.542,11.806,8.116,14.683,8.116c4.707,0,0.587-14.045-2.468-20.933
				c-0.035-0.077-0.074-0.149-0.112-0.225C2527.627,165.511,2523.768,170.124,2520.129,175.682z"/>
		</g>
	</g>
	<path class="st5" d="M2536.99,129.181c-7.518,0-14.61,4.141-20.194,8.766c3.08,4.587,9.506,7.753,16.956,7.753
		c1.531,0,3.01-0.147,4.435-0.399C2539.371,137.105,2539.733,129.181,2536.99,129.181z"/>
</g>
<g id="TVbOgR_2_">
	<g>
		<path class="st3" d="M2558.259,129.321c0.448-0.954,0.967-1.868,1.522-2.76c2.723-4.372,6.286-7.904,10.681-10.585
			c2.905-1.772,6.02-3.041,9.335-3.821c1.548-0.364,3.113-0.612,4.698-0.747c1.41-0.121,2.822-0.154,4.234-0.092
			c1.677,0.073,3.339,0.274,4.985,0.609c4.613,0.943,8.805,2.83,12.61,5.595c0.763,0.552,1.495,1.142,2.212,1.754
			c0.103,0.087,0.103,0.127,0.009,0.221c-1.169,1.162-2.333,2.328-3.499,3.494c-1.894,1.894-3.789,3.786-5.678,5.685
			c-0.108,0.108-0.164,0.105-0.278,0.013c-2.302-1.85-4.895-3.1-7.781-3.729c-1.91-0.417-3.843-0.524-5.79-0.34
			c-6.884,0.658-12.799,4.872-15.649,11.153c-0.276,0.609-0.504,1.238-0.737,1.866
			C2565.507,134.862,2561.883,132.093,2558.259,129.321z"/>
		<path class="st5" d="M2608.41,167.973c-0.69,0.667-1.429,1.276-2.195,1.857c-3.503,2.655-7.414,4.435-11.696,5.411
			c-2.484,0.565-4.999,0.824-7.544,0.801c-1.743-0.017-3.477-0.176-5.196-0.469c-3.231-0.551-6.308-1.568-9.228-3.056
			c-3.052-1.557-5.788-3.552-8.206-5.981c-2.455-2.466-4.462-5.26-6.016-8.375c-0.029-0.057-0.051-0.118-0.074-0.177
			c0.024-0.016,0.052-0.029,0.074-0.046c2.576-1.975,5.153-3.951,7.731-5.926c1.022-0.783,2.045-1.563,3.07-2.346
			c0.307,0.875,0.64,1.738,1.064,2.565c2.183,4.262,5.481,7.323,9.905,9.162c1.677,0.697,3.427,1.118,5.231,1.302
			c1.599,0.164,3.196,0.122,4.791-0.057c2.045-0.23,4.019-0.725,5.902-1.563c0.715-0.318,1.398-0.695,2.067-1.099
			c0.384,0.301,0.769,0.599,1.155,0.898C2602.297,163.24,2605.354,165.606,2608.41,167.973z"/>
		<path class="st0" d="M2608.41,167.973c-3.056-2.366-6.112-4.731-9.168-7.099c-0.385-0.298-0.769-0.599-1.156-0.898
			c0.546-0.377,1.094-0.752,1.605-1.18c1.791-1.493,3.133-3.317,4.045-5.461c0.391-0.921,0.684-1.872,0.899-2.848
			c0.038-0.171-0.003-0.193-0.158-0.193c-2.602,0.004-5.202,0.003-7.805,0.003c-3.05,0-6.099-0.003-9.146,0.004
			c-0.169,0-0.212-0.039-0.212-0.211c0.004-4.038,0.004-8.077,0-12.113c0-0.167,0.035-0.215,0.208-0.215
			c9.925,0.004,19.848,0.004,29.772,0.003c0.147,0,0.208,0.033,0.241,0.191c0.234,1.09,0.421,2.188,0.552,3.295
			c0.145,1.237,0.158,2.478,0.123,3.718c-0.031,1.116-0.109,2.232-0.241,3.341c-0.371,3.151-1.107,6.209-2.313,9.149
			c-1.177,2.872-2.747,5.507-4.735,7.891c-0.752,0.901-1.558,1.747-2.412,2.552C2608.477,167.928,2608.443,167.95,2608.41,167.973z"
			/>
		<path class="st4" d="M2569.126,149.665c-1.024,0.782-2.048,1.563-3.07,2.346c-2.576,1.975-5.154,3.951-7.731,5.926
			c-0.024,0.017-0.051,0.031-0.074,0.046c-0.32-0.59-0.579-1.206-0.837-1.824c-0.917-2.192-1.574-4.462-1.987-6.803
			c-0.285-1.625-0.443-3.262-0.482-4.911c-0.033-1.39,0.018-2.778,0.16-4.159c0.349-3.361,1.19-6.594,2.55-9.693
			c0.189-0.43,0.377-0.862,0.6-1.273c3.624,2.772,7.25,5.542,10.875,8.314c-0.15,0.538-0.316,1.07-0.443,1.612
			c-0.439,1.892-0.594,3.804-0.462,5.742c0.107,1.572,0.399,3.109,0.885,4.609C2569.122,149.619,2569.125,149.642,2569.126,149.665z
			"/>
	</g>
</g>
<path class="st6" d="M2622.997,190.953c-0.733,0-1.439,0.113-2.104,0.321c-1.205-0.981-2.741-1.571-4.417-1.571
	c-2.921,0-5.421,1.79-6.47,4.331c-2.24,1.032-3.799,3.291-3.799,5.919c0,3.6,2.919,6.519,6.519,6.519c2.3,0,4.317-1.194,5.478-2.993
	c0.111-0.028,0.223-0.052,0.332-0.085c1.213,0.999,2.766,1.599,4.46,1.599c3.877,0,7.02-3.143,7.02-7.02
	S2626.874,190.953,2622.997,190.953z"/>
<path class="st6" d="M2679.977,202.577c0-2.102-1.936-3.806-4.324-3.806c-0.096,0-0.191,0.007-0.286,0.013
	c-0.784-1.23-2.157-2.047-3.723-2.047c-2.439,0-4.417,1.977-4.417,4.417c0,1.353,0.61,2.563,1.569,3.373
	c0.032,2.244,1.859,4.053,4.11,4.053c1.615,0,3.008-0.933,3.681-2.287C2678.526,205.916,2679.977,204.397,2679.977,202.577z"/>
<g>
	<g>
		<g>
			<path d="M2262.791,164.523l-31.645-16.702c-0.23-0.122-0.359-0.296-0.357-0.48c0.002-0.184,0.136-0.357,0.37-0.475l31.645-16.154
				l1.353,0.961l-30.72,15.68l30.733,16.219L2262.791,164.523z"/>
		</g>
	</g>
	<g>
		<path class="st0" d="M2237.087,129.181c-12.298,0-23.472,11.071-28.732,17.223c-13.257-3.278-14.52-5.674-31.114-6.744
			c-4.775-10.107-15.121-18.394-30.272-18.394c-21.462,0-33.285,14.709-33.285,25.73c0,0.141,0.004,0.281,0.009,0.419
			c-9.479,5.016-12.418,10.946-12.418,13.761c0,5.378,10.71,22.136,57.329,22.136c41.228,0,76.543-9.911,76.543-22.136
			C2237.087,153.907,2241.934,129.181,2237.087,129.181z"/>
		<path class="st1" d="M2114.028,143.647c28.155,9.914,41.179-9.785,19.047-20.043
			C2122.104,127.596,2115.547,136.028,2114.028,143.647z"/>
		<path class="st1" d="M2165.533,141.996c0,3.396-2.751,6.148-6.148,6.148c-3.396,0-6.147-2.751-6.147-6.148
			c0-3.394,2.751-6.148,6.147-6.148C2162.782,135.848,2165.533,138.602,2165.533,141.996z"/>
		<path class="st2" d="M2232.4,166.09c-57.798-25.789-91.184-11.468-126.301,3.528c6.788,6.481,21.917,13.696,52.506,13.696
			C2194.136,183.313,2221.308,175.951,2232.4,166.09z"/>
		<g>
			<path class="st3" d="M2195.318,167.918c6.042,13.626,8.48,35.761-0.829,35.761c-10.85,0-41.25-20.08-41.25-35.761
				c0-6.443,9.421-9.778,21.04-9.778C2185.896,158.142,2192.704,162.03,2195.318,167.918z"/>
			<path class="st4" d="M2158.327,180.347c9.125,12.177,28.074,23.334,36.159,23.334c8.673,0,7.15-19.214,2.013-32.86
				C2182.683,168.396,2170.603,172.454,2158.327,180.347z"/>
		</g>
		<g>
			<path class="st3" d="M2232.439,162.865c3.056,6.888,7.174,20.933,2.468,20.933c-5.485,0-23.741-13.005-23.741-20.933
				c0-3.257,4.762-4.942,10.635-4.942C2227.677,157.921,2231.117,159.888,2232.439,162.865z"/>
			<path class="st4" d="M2220.225,175.682c5.424,4.542,11.806,8.116,14.683,8.116c4.707,0,0.587-14.045-2.468-20.933
				c-0.035-0.077-0.074-0.149-0.112-0.225C2227.724,165.511,2223.865,170.124,2220.225,175.682z"/>
		</g>
	</g>
	<path class="st5" d="M2237.087,129.181c-7.518,0-14.61,4.141-20.194,8.766c3.08,4.587,9.506,7.753,16.956,7.753
		c1.53,0,3.01-0.147,4.435-0.399C2239.468,137.105,2239.83,129.181,2237.087,129.181z"/>
</g>
<g id="TVbOgR_3_">
	<g>
		<path class="st3" d="M2258.355,128.321c0.448-0.954,0.967-1.868,1.522-2.76c2.722-4.372,6.286-7.904,10.681-10.585
			c2.905-1.772,6.02-3.041,9.335-3.821c1.548-0.364,3.113-0.612,4.698-0.747c1.41-0.121,2.821-0.154,4.234-0.092
			c1.677,0.073,3.339,0.274,4.985,0.609c4.613,0.943,8.805,2.83,12.61,5.595c0.763,0.552,1.495,1.142,2.212,1.754
			c0.103,0.087,0.103,0.127,0.009,0.221c-1.169,1.162-2.333,2.328-3.499,3.494c-1.894,1.894-3.789,3.786-5.678,5.685
			c-0.108,0.108-0.164,0.105-0.278,0.013c-2.302-1.85-4.895-3.1-7.781-3.729c-1.91-0.417-3.843-0.524-5.79-0.34
			c-6.884,0.658-12.799,4.872-15.649,11.153c-0.276,0.609-0.504,1.238-0.737,1.866
			C2265.604,133.862,2261.979,131.093,2258.355,128.321z"/>
		<path class="st5" d="M2308.507,166.973c-0.69,0.667-1.429,1.276-2.195,1.857c-3.503,2.655-7.415,4.435-11.696,5.411
			c-2.484,0.565-4.999,0.824-7.543,0.801c-1.743-0.017-3.477-0.176-5.196-0.469c-3.231-0.551-6.308-1.568-9.228-3.056
			c-3.052-1.557-5.788-3.552-8.206-5.981c-2.455-2.466-4.462-5.26-6.016-8.375c-0.029-0.057-0.051-0.118-0.074-0.177
			c0.024-0.016,0.052-0.029,0.074-0.046c2.576-1.975,5.152-3.951,7.731-5.926c1.022-0.783,2.045-1.563,3.07-2.346
			c0.307,0.875,0.64,1.738,1.064,2.565c2.183,4.262,5.481,7.323,9.905,9.162c1.677,0.697,3.427,1.118,5.231,1.302
			c1.599,0.164,3.196,0.122,4.791-0.057c2.045-0.23,4.019-0.725,5.902-1.563c0.715-0.318,1.398-0.695,2.067-1.099
			c0.384,0.301,0.769,0.599,1.155,0.898C2302.394,162.24,2305.45,164.606,2308.507,166.973z"/>
		<path class="st0" d="M2308.507,166.973c-3.056-2.366-6.112-4.731-9.168-7.099c-0.385-0.298-0.769-0.599-1.156-0.898
			c0.546-0.377,1.094-0.752,1.605-1.18c1.791-1.493,3.133-3.317,4.045-5.461c0.391-0.921,0.684-1.872,0.899-2.848
			c0.037-0.171-0.003-0.193-0.158-0.193c-2.602,0.004-5.202,0.003-7.805,0.003c-3.05,0-6.099-0.003-9.147,0.004
			c-0.168,0-0.212-0.039-0.212-0.211c0.004-4.038,0.004-8.077,0-12.113c0-0.167,0.035-0.215,0.208-0.215
			c9.925,0.004,19.848,0.004,29.772,0.003c0.147,0,0.208,0.033,0.241,0.191c0.234,1.09,0.421,2.188,0.552,3.295
			c0.145,1.237,0.158,2.478,0.123,3.718c-0.031,1.116-0.109,2.232-0.241,3.341c-0.37,3.151-1.107,6.209-2.312,9.149
			c-1.177,2.872-2.747,5.507-4.736,7.891c-0.751,0.901-1.558,1.747-2.411,2.552C2308.574,166.928,2308.539,166.95,2308.507,166.973z
			"/>
		<path class="st4" d="M2269.223,148.665c-1.024,0.782-2.048,1.563-3.07,2.346c-2.576,1.975-5.154,3.951-7.731,5.926
			c-0.024,0.017-0.051,0.031-0.074,0.046c-0.32-0.59-0.579-1.206-0.837-1.824c-0.917-2.192-1.574-4.462-1.987-6.803
			c-0.285-1.625-0.443-3.262-0.482-4.911c-0.033-1.39,0.017-2.778,0.16-4.159c0.349-3.361,1.19-6.594,2.55-9.693
			c0.189-0.43,0.377-0.862,0.6-1.273c3.624,2.772,7.25,5.542,10.875,8.314c-0.149,0.538-0.315,1.07-0.443,1.612
			c-0.439,1.892-0.594,3.804-0.462,5.742c0.107,1.572,0.399,3.109,0.885,4.609C2269.219,148.619,2269.221,148.642,2269.223,148.665z
			"/>
	</g>
</g>
<path class="st6" d="M2318.094,190.953c-0.733,0-1.439,0.113-2.104,0.321c-1.205-0.981-2.741-1.571-4.417-1.571
	c-2.921,0-5.421,1.79-6.47,4.331c-2.24,1.032-3.799,3.291-3.799,5.919c0,3.6,2.919,6.519,6.519,6.519c2.3,0,4.317-1.194,5.478-2.993
	c0.111-0.028,0.223-0.052,0.332-0.085c1.213,0.999,2.766,1.599,4.46,1.599c3.877,0,7.02-3.143,7.02-7.02
	S2321.971,190.953,2318.094,190.953z"/>
<path class="st6" d="M2375.073,202.577c0-2.102-1.936-3.806-4.324-3.806c-0.096,0-0.191,0.007-0.286,0.013
	c-0.784-1.23-2.157-2.047-3.723-2.047c-2.439,0-4.417,1.977-4.417,4.417c0,1.353,0.61,2.563,1.568,3.373
	c0.033,2.244,1.859,4.053,4.11,4.053c1.615,0,3.008-0.933,3.681-2.287C2373.622,205.916,2375.073,204.397,2375.073,202.577z"/>
<g>
	<g>
		<g>
			<path d="M1962.888,164.523l-31.645-16.702c-0.23-0.122-0.359-0.296-0.358-0.48c0.002-0.184,0.136-0.357,0.37-0.475l31.645-16.154
				l1.353,0.961l-30.72,15.68l30.733,16.219L1962.888,164.523z"/>
		</g>
	</g>
	<g>
		<path class="st0" d="M1937.184,129.181c-12.297,0-23.472,11.071-28.732,17.223c-13.257-3.278-14.52-5.674-31.114-6.744
			c-4.775-10.107-15.121-18.394-30.273-18.394c-21.462,0-33.285,14.709-33.285,25.73c0,0.141,0.004,0.281,0.009,0.419
			c-9.48,5.016-12.418,10.946-12.418,13.761c0,5.378,10.71,22.136,57.329,22.136c41.228,0,76.543-9.911,76.543-22.136
			C1937.184,153.907,1942.031,129.181,1937.184,129.181z"/>
		<path class="st1" d="M1814.124,143.647c28.155,9.914,41.18-9.785,19.047-20.043
			C1822.201,127.596,1815.644,136.028,1814.124,143.647z"/>
		<path class="st1" d="M1865.63,141.996c0,3.396-2.751,6.148-6.148,6.148c-3.396,0-6.147-2.751-6.147-6.148
			c0-3.394,2.751-6.148,6.147-6.148C1862.879,135.848,1865.63,138.602,1865.63,141.996z"/>
		<path class="st2" d="M1932.496,166.09c-57.798-25.789-91.184-11.468-126.301,3.528c6.788,6.481,21.917,13.696,52.506,13.696
			C1894.233,183.313,1921.405,175.951,1932.496,166.09z"/>
		<g>
			<path class="st3" d="M1895.414,167.918c6.042,13.626,8.481,35.761-0.828,35.761c-10.85,0-41.25-20.08-41.25-35.761
				c0-6.443,9.421-9.778,21.04-9.778C1885.993,158.142,1892.801,162.03,1895.414,167.918z"/>
			<path class="st4" d="M1858.424,180.347c9.125,12.177,28.074,23.334,36.159,23.334c8.673,0,7.15-19.214,2.013-32.86
				C1882.779,168.396,1870.7,172.454,1858.424,180.347z"/>
		</g>
		<g>
			<path class="st3" d="M1932.536,162.865c3.056,6.888,7.174,20.933,2.468,20.933c-5.485,0-23.741-13.005-23.741-20.933
				c0-3.257,4.762-4.942,10.635-4.942C1927.774,157.921,1931.214,159.888,1932.536,162.865z"/>
			<path class="st4" d="M1920.322,175.682c5.424,4.542,11.806,8.116,14.683,8.116c4.707,0,0.587-14.045-2.468-20.933
				c-0.035-0.077-0.074-0.149-0.112-0.225C1927.82,165.511,1923.961,170.124,1920.322,175.682z"/>
		</g>
	</g>
	<path class="st5" d="M1937.184,129.181c-7.517,0-14.61,4.141-20.194,8.766c3.08,4.587,9.506,7.753,16.956,7.753
		c1.53,0,3.01-0.147,4.435-0.399C1939.565,137.105,1939.926,129.181,1937.184,129.181z"/>
</g>
<g id="TVbOgR_4_">
	<g>
		<path class="st3" d="M1958.452,138.321c0.448-0.954,0.967-1.868,1.522-2.76c2.723-4.372,6.286-7.904,10.681-10.585
			c2.905-1.772,6.02-3.041,9.335-3.821c1.548-0.364,3.113-0.612,4.698-0.747c1.41-0.121,2.821-0.154,4.234-0.092
			c1.677,0.073,3.339,0.274,4.985,0.609c4.613,0.943,8.805,2.83,12.61,5.595c0.763,0.552,1.495,1.142,2.212,1.754
			c0.103,0.087,0.103,0.127,0.009,0.221c-1.169,1.162-2.333,2.328-3.499,3.494c-1.894,1.894-3.789,3.786-5.678,5.685
			c-0.108,0.108-0.164,0.105-0.278,0.013c-2.302-1.85-4.895-3.1-7.781-3.729c-1.91-0.417-3.843-0.524-5.79-0.34
			c-6.884,0.658-12.799,4.872-15.649,11.153c-0.276,0.609-0.504,1.238-0.737,1.866
			C1965.7,143.862,1962.076,141.093,1958.452,138.321z"/>
		<path class="st5" d="M2008.604,176.973c-0.691,0.667-1.429,1.276-2.195,1.857c-3.503,2.655-7.414,4.435-11.696,5.411
			c-2.484,0.565-4.998,0.824-7.544,0.801c-1.743-0.017-3.477-0.176-5.196-0.469c-3.231-0.551-6.308-1.568-9.228-3.056
			c-3.052-1.557-5.788-3.552-8.206-5.981c-2.455-2.466-4.462-5.26-6.016-8.375c-0.029-0.057-0.051-0.118-0.074-0.177
			c0.024-0.016,0.052-0.029,0.074-0.046c2.576-1.975,5.152-3.951,7.731-5.926c1.022-0.783,2.045-1.563,3.07-2.346
			c0.307,0.875,0.64,1.738,1.064,2.565c2.183,4.262,5.481,7.323,9.905,9.162c1.677,0.697,3.427,1.118,5.231,1.302
			c1.599,0.164,3.196,0.122,4.791-0.057c2.045-0.23,4.019-0.725,5.902-1.563c0.715-0.318,1.398-0.695,2.067-1.099
			c0.384,0.301,0.769,0.599,1.155,0.898C2002.491,172.24,2005.547,174.606,2008.604,176.973z"/>
		<path class="st0" d="M2008.604,176.973c-3.056-2.366-6.112-4.731-9.168-7.099c-0.385-0.298-0.769-0.599-1.156-0.898
			c0.546-0.377,1.094-0.752,1.605-1.18c1.791-1.493,3.132-3.317,4.045-5.461c0.391-0.921,0.684-1.872,0.899-2.848
			c0.037-0.171-0.003-0.193-0.158-0.193c-2.602,0.004-5.202,0.003-7.805,0.003c-3.05,0-6.099-0.003-9.147,0.004
			c-0.169,0-0.213-0.039-0.213-0.211c0.004-4.038,0.004-8.077,0-12.113c0-0.167,0.035-0.215,0.208-0.215
			c9.925,0.004,19.848,0.004,29.773,0.003c0.147,0,0.208,0.033,0.241,0.191c0.234,1.09,0.421,2.188,0.552,3.295
			c0.145,1.237,0.158,2.478,0.123,3.718c-0.031,1.116-0.109,2.232-0.241,3.341c-0.37,3.151-1.107,6.209-2.313,9.149
			c-1.177,2.872-2.747,5.507-4.735,7.891c-0.752,0.901-1.558,1.747-2.411,2.552C2008.671,176.928,2008.636,176.95,2008.604,176.973z
			"/>
		<path class="st4" d="M1969.32,158.665c-1.024,0.782-2.048,1.563-3.07,2.346c-2.576,1.975-5.154,3.951-7.731,5.926
			c-0.024,0.017-0.051,0.031-0.074,0.046c-0.32-0.59-0.579-1.206-0.837-1.824c-0.917-2.192-1.574-4.462-1.987-6.803
			c-0.285-1.625-0.443-3.262-0.483-4.911c-0.033-1.39,0.018-2.778,0.16-4.159c0.349-3.361,1.191-6.594,2.55-9.693
			c0.189-0.43,0.377-0.862,0.6-1.273c3.624,2.772,7.25,5.542,10.875,8.314c-0.15,0.538-0.316,1.07-0.443,1.612
			c-0.439,1.892-0.594,3.804-0.462,5.742c0.108,1.572,0.399,3.109,0.885,4.609C1969.315,158.619,1969.318,158.642,1969.32,158.665z"
			/>
	</g>
</g>
<path class="st6" d="M2008.19,190.953c-0.733,0-1.439,0.113-2.104,0.321c-1.205-0.981-2.741-1.571-4.417-1.571
	c-2.921,0-5.421,1.79-6.47,4.331c-2.24,1.032-3.799,3.291-3.799,5.919c0,3.6,2.919,6.519,6.519,6.519c2.3,0,4.317-1.194,5.478-2.993
	c0.111-0.028,0.223-0.052,0.332-0.085c1.213,0.999,2.766,1.599,4.46,1.599c3.877,0,7.02-3.143,7.02-7.02
	S2012.067,190.953,2008.19,190.953z"/>
<path class="st6" d="M2070.17,197.577c0-2.102-1.936-3.806-4.324-3.806c-0.096,0-0.191,0.007-0.286,0.013
	c-0.784-1.23-2.157-2.047-3.723-2.047c-2.439,0-4.417,1.977-4.417,4.417c0,1.353,0.61,2.563,1.568,3.373
	c0.033,2.244,1.859,4.053,4.11,4.053c1.615,0,3.008-0.933,3.681-2.287C2068.719,200.916,2070.17,199.397,2070.17,197.577z"/>
<g>
	<g>
		<g>
			<path d="M1662.984,164.523l-31.645-16.702c-0.23-0.122-0.359-0.296-0.358-0.48c0.002-0.184,0.136-0.357,0.37-0.475l31.645-16.154
				l1.353,0.961l-30.72,15.68l30.733,16.219L1662.984,164.523z"/>
		</g>
	</g>
	<g>
		<path class="st0" d="M1637.28,129.181c-12.297,0-23.472,11.071-28.732,17.223c-13.257-3.278-14.52-5.674-31.114-6.744
			c-4.775-10.107-15.121-18.394-30.273-18.394c-21.462,0-33.285,14.709-33.285,25.73c0,0.141,0.004,0.281,0.009,0.419
			c-9.48,5.016-12.418,10.946-12.418,13.761c0,5.378,10.71,22.136,57.329,22.136c41.228,0,76.543-9.911,76.543-22.136
			C1637.28,153.907,1642.128,129.181,1637.28,129.181z"/>
		<path class="st1" d="M1514.221,143.647c28.155,9.914,41.179-9.785,19.047-20.043
			C1522.298,127.596,1515.741,136.028,1514.221,143.647z"/>
		<path class="st1" d="M1565.727,141.996c0,3.396-2.751,6.148-6.148,6.148c-3.396,0-6.147-2.751-6.147-6.148
			c0-3.394,2.751-6.148,6.147-6.148C1562.975,135.848,1565.727,138.602,1565.727,141.996z"/>
		<path class="st2" d="M1632.593,166.09c-57.798-25.789-91.184-11.468-126.301,3.528c6.788,6.481,21.917,13.696,52.506,13.696
			C1594.329,183.313,1621.502,175.951,1632.593,166.09z"/>
		<g>
			<path class="st3" d="M1595.511,167.918c6.042,13.626,8.481,35.761-0.829,35.761c-10.85,0-41.25-20.08-41.25-35.761
				c0-6.443,9.421-9.778,21.04-9.778C1586.09,158.142,1592.898,162.03,1595.511,167.918z"/>
			<path class="st4" d="M1558.521,180.347c9.125,12.177,28.074,23.334,36.159,23.334c8.673,0,7.15-19.214,2.013-32.86
				C1582.876,168.396,1570.796,172.454,1558.521,180.347z"/>
		</g>
		<g>
			<path class="st3" d="M1632.632,162.865c3.056,6.888,7.174,20.933,2.468,20.933c-5.485,0-23.741-13.005-23.741-20.933
				c0-3.257,4.762-4.942,10.635-4.942C1627.871,157.921,1631.311,159.888,1632.632,162.865z"/>
			<path class="st4" d="M1620.419,175.682c5.424,4.542,11.806,8.116,14.683,8.116c4.707,0,0.587-14.045-2.468-20.933
				c-0.035-0.077-0.074-0.149-0.112-0.225C1627.917,165.511,1624.058,170.124,1620.419,175.682z"/>
		</g>
	</g>
	<path class="st5" d="M1637.28,129.181c-7.517,0-14.61,4.141-20.194,8.766c3.08,4.587,9.506,7.753,16.956,7.753
		c1.53,0,3.01-0.147,4.435-0.399C1639.661,137.105,1640.023,129.181,1637.28,129.181z"/>
</g>
<g id="TVbOgR_5_">
	<g>
		<path class="st3" d="M1658.549,138.321c0.447-0.954,0.967-1.868,1.522-2.76c2.723-4.372,6.286-7.904,10.681-10.585
			c2.905-1.772,6.02-3.041,9.335-3.821c1.548-0.364,3.113-0.612,4.698-0.747c1.41-0.121,2.821-0.154,4.234-0.092
			c1.677,0.073,3.339,0.274,4.985,0.609c4.613,0.943,8.805,2.83,12.61,5.595c0.763,0.552,1.495,1.142,2.212,1.754
			c0.103,0.087,0.103,0.127,0.009,0.221c-1.169,1.162-2.333,2.328-3.499,3.494c-1.894,1.894-3.789,3.786-5.678,5.685
			c-0.108,0.108-0.164,0.105-0.278,0.013c-2.302-1.85-4.895-3.1-7.781-3.729c-1.91-0.417-3.843-0.524-5.79-0.34
			c-6.884,0.658-12.799,4.872-15.649,11.153c-0.276,0.609-0.504,1.238-0.737,1.866
			C1665.797,143.862,1662.172,141.093,1658.549,138.321z"/>
		<path class="st5" d="M1708.7,176.973c-0.69,0.667-1.429,1.276-2.195,1.857c-3.503,2.655-7.414,4.435-11.696,5.411
			c-2.484,0.565-4.999,0.824-7.544,0.801c-1.743-0.017-3.477-0.176-5.196-0.469c-3.231-0.551-6.308-1.568-9.228-3.056
			c-3.052-1.557-5.788-3.552-8.206-5.981c-2.455-2.466-4.462-5.26-6.016-8.375c-0.029-0.057-0.051-0.118-0.074-0.177
			c0.024-0.016,0.052-0.029,0.074-0.046c2.576-1.975,5.152-3.951,7.731-5.926c1.022-0.783,2.045-1.563,3.069-2.346
			c0.307,0.875,0.64,1.738,1.064,2.565c2.183,4.262,5.481,7.323,9.905,9.162c1.677,0.697,3.427,1.118,5.231,1.302
			c1.599,0.164,3.196,0.122,4.79-0.057c2.045-0.23,4.019-0.725,5.902-1.563c0.715-0.318,1.398-0.695,2.067-1.099
			c0.384,0.301,0.769,0.599,1.156,0.898C1702.587,172.24,1705.644,174.606,1708.7,176.973z"/>
		<path class="st0" d="M1708.7,176.973c-3.056-2.366-6.112-4.731-9.168-7.099c-0.385-0.298-0.769-0.599-1.155-0.898
			c0.546-0.377,1.094-0.752,1.605-1.18c1.791-1.493,3.132-3.317,4.045-5.461c0.391-0.921,0.684-1.872,0.899-2.848
			c0.038-0.171-0.003-0.193-0.158-0.193c-2.602,0.004-5.202,0.003-7.805,0.003c-3.049,0-6.099-0.003-9.147,0.004
			c-0.169,0-0.212-0.039-0.212-0.211c0.004-4.038,0.004-8.077,0-12.113c0-0.167,0.035-0.215,0.208-0.215
			c9.925,0.004,19.848,0.004,29.773,0.003c0.147,0,0.208,0.033,0.241,0.191c0.234,1.09,0.421,2.188,0.552,3.295
			c0.145,1.237,0.158,2.478,0.123,3.718c-0.031,1.116-0.109,2.232-0.241,3.341c-0.37,3.151-1.107,6.209-2.313,9.149
			c-1.177,2.872-2.747,5.507-4.735,7.891c-0.752,0.901-1.558,1.747-2.411,2.552C1708.767,176.928,1708.732,176.95,1708.7,176.973z"
			/>
		<path class="st4" d="M1669.416,158.665c-1.024,0.782-2.048,1.563-3.07,2.346c-2.576,1.975-5.154,3.951-7.731,5.926
			c-0.024,0.017-0.051,0.031-0.074,0.046c-0.32-0.59-0.579-1.206-0.837-1.824c-0.917-2.192-1.574-4.462-1.987-6.803
			c-0.285-1.625-0.443-3.262-0.482-4.911c-0.033-1.39,0.017-2.778,0.16-4.159c0.349-3.361,1.19-6.594,2.55-9.693
			c0.189-0.43,0.377-0.862,0.6-1.273c3.624,2.772,7.25,5.542,10.875,8.314c-0.149,0.538-0.315,1.07-0.443,1.612
			c-0.439,1.892-0.594,3.804-0.462,5.742c0.108,1.572,0.4,3.109,0.885,4.609C1669.412,158.619,1669.415,158.642,1669.416,158.665z"
			/>
	</g>
</g>
<path class="st6" d="M1703.287,190.953c-0.733,0-1.439,0.113-2.104,0.321c-1.205-0.981-2.741-1.571-4.417-1.571
	c-2.921,0-5.421,1.79-6.47,4.331c-2.24,1.032-3.799,3.291-3.799,5.919c0,3.6,2.919,6.519,6.519,6.519c2.3,0,4.317-1.194,5.478-2.993
	c0.111-0.028,0.223-0.052,0.332-0.085c1.213,0.999,2.766,1.599,4.46,1.599c3.877,0,7.02-3.143,7.02-7.02
	S1707.164,190.953,1703.287,190.953z"/>
<path class="st6" d="M1765.267,197.577c0-2.102-1.936-3.806-4.324-3.806c-0.096,0-0.191,0.007-0.286,0.013
	c-0.784-1.23-2.157-2.047-3.723-2.047c-2.439,0-4.417,1.977-4.417,4.417c0,1.353,0.61,2.563,1.568,3.373
	c0.033,2.244,1.859,4.053,4.11,4.053c1.615,0,3.008-0.933,3.681-2.287C1763.815,200.916,1765.267,199.397,1765.267,197.577z"/>
<g>
	<g>
		<g>
			<path d="M1363.081,164.523l-31.645-16.702c-0.23-0.122-0.359-0.296-0.358-0.48c0.002-0.184,0.136-0.357,0.371-0.475
				l31.645-16.154l1.353,0.961l-30.72,15.68l30.733,16.219L1363.081,164.523z"/>
		</g>
	</g>
	<g>
		<path class="st0" d="M1337.377,129.181c-12.297,0-23.472,11.071-28.732,17.223c-13.257-3.278-14.52-5.674-31.114-6.744
			c-4.775-10.107-15.121-18.394-30.273-18.394c-21.462,0-33.285,14.709-33.285,25.73c0,0.141,0.004,0.281,0.009,0.419
			c-9.48,5.016-12.418,10.946-12.418,13.761c0,5.378,10.71,22.136,57.329,22.136c41.228,0,76.543-9.911,76.543-22.136
			C1337.377,153.907,1342.224,129.181,1337.377,129.181z"/>
		<path class="st1" d="M1214.318,143.647c28.155,9.914,41.179-9.785,19.047-20.043
			C1222.394,127.596,1215.837,136.028,1214.318,143.647z"/>
		<path class="st1" d="M1265.823,141.996c0,3.396-2.751,6.148-6.148,6.148c-3.396,0-6.147-2.751-6.147-6.148
			c0-3.394,2.751-6.148,6.147-6.148C1263.072,135.848,1265.823,138.602,1265.823,141.996z"/>
		<path class="st2" d="M1332.69,166.09c-57.798-25.789-91.184-11.468-126.301,3.528c6.788,6.481,21.917,13.696,52.506,13.696
			C1294.426,183.313,1321.598,175.951,1332.69,166.09z"/>
		<g>
			<path class="st3" d="M1295.608,167.918c6.042,13.626,8.481,35.761-0.829,35.761c-10.85,0-41.25-20.08-41.25-35.761
				c0-6.443,9.421-9.778,21.04-9.778C1286.186,158.142,1292.994,162.03,1295.608,167.918z"/>
			<path class="st4" d="M1258.617,180.347c9.125,12.177,28.073,23.334,36.159,23.334c8.673,0,7.15-19.214,2.013-32.86
				C1282.973,168.396,1270.893,172.454,1258.617,180.347z"/>
		</g>
		<g>
			<path class="st3" d="M1332.729,162.865c3.056,6.888,7.174,20.933,2.468,20.933c-5.485,0-23.741-13.005-23.741-20.933
				c0-3.257,4.762-4.942,10.635-4.942C1327.967,157.921,1331.407,159.888,1332.729,162.865z"/>
			<path class="st4" d="M1320.515,175.682c5.424,4.542,11.806,8.116,14.683,8.116c4.707,0,0.587-14.045-2.468-20.933
				c-0.035-0.077-0.074-0.149-0.112-0.225C1328.014,165.511,1324.155,170.124,1320.515,175.682z"/>
		</g>
	</g>
	<path class="st5" d="M1337.377,129.181c-7.517,0-14.61,4.141-20.194,8.766c3.08,4.587,9.506,7.753,16.956,7.753
		c1.53,0,3.01-0.147,4.435-0.399C1339.758,137.105,1340.12,129.181,1337.377,129.181z"/>
</g>
<g id="TVbOgR_6_">
	<g>
		<path class="st3" d="M1358.645,138.321c0.448-0.954,0.967-1.868,1.522-2.76c2.723-4.372,6.286-7.904,10.681-10.585
			c2.905-1.772,6.02-3.041,9.335-3.821c1.548-0.364,3.113-0.612,4.698-0.747c1.41-0.121,2.821-0.154,4.234-0.092
			c1.677,0.073,3.339,0.274,4.985,0.609c4.613,0.943,8.805,2.83,12.61,5.595c0.763,0.552,1.495,1.142,2.212,1.754
			c0.103,0.087,0.103,0.127,0.009,0.221c-1.169,1.162-2.333,2.328-3.499,3.494c-1.894,1.894-3.789,3.786-5.678,5.685
			c-0.108,0.108-0.164,0.105-0.278,0.013c-2.302-1.85-4.895-3.1-7.781-3.729c-1.91-0.417-3.843-0.524-5.79-0.34
			c-6.884,0.658-12.799,4.872-15.649,11.153c-0.276,0.609-0.504,1.238-0.737,1.866
			C1365.894,143.862,1362.269,141.093,1358.645,138.321z"/>
		<path class="st5" d="M1408.797,176.973c-0.691,0.667-1.429,1.276-2.195,1.857c-3.503,2.655-7.414,4.435-11.696,5.411
			c-2.484,0.565-4.999,0.824-7.544,0.801c-1.743-0.017-3.477-0.176-5.196-0.469c-3.231-0.551-6.308-1.568-9.228-3.056
			c-3.052-1.557-5.788-3.552-8.206-5.981c-2.455-2.466-4.462-5.26-6.016-8.375c-0.029-0.057-0.051-0.118-0.074-0.177
			c0.024-0.016,0.052-0.029,0.074-0.046c2.576-1.975,5.152-3.951,7.731-5.926c1.022-0.783,2.045-1.563,3.07-2.346
			c0.307,0.875,0.64,1.738,1.064,2.565c2.183,4.262,5.481,7.323,9.905,9.162c1.677,0.697,3.427,1.118,5.231,1.302
			c1.599,0.164,3.196,0.122,4.79-0.057c2.045-0.23,4.019-0.725,5.902-1.563c0.715-0.318,1.398-0.695,2.067-1.099
			c0.384,0.301,0.769,0.599,1.156,0.898C1402.684,172.24,1405.74,174.606,1408.797,176.973z"/>
		<path class="st0" d="M1408.797,176.973c-3.056-2.366-6.112-4.731-9.168-7.099c-0.385-0.298-0.769-0.599-1.156-0.898
			c0.546-0.377,1.094-0.752,1.605-1.18c1.791-1.493,3.133-3.317,4.045-5.461c0.391-0.921,0.684-1.872,0.899-2.848
			c0.038-0.171-0.003-0.193-0.158-0.193c-2.602,0.004-5.202,0.003-7.805,0.003c-3.049,0-6.099-0.003-9.147,0.004
			c-0.169,0-0.212-0.039-0.212-0.211c0.004-4.038,0.004-8.077,0-12.113c0-0.167,0.035-0.215,0.208-0.215
			c9.925,0.004,19.848,0.004,29.773,0.003c0.147,0,0.208,0.033,0.241,0.191c0.234,1.09,0.421,2.188,0.552,3.295
			c0.145,1.237,0.158,2.478,0.123,3.718c-0.031,1.116-0.109,2.232-0.241,3.341c-0.371,3.151-1.107,6.209-2.313,9.149
			c-1.177,2.872-2.747,5.507-4.735,7.891c-0.752,0.901-1.558,1.747-2.411,2.552C1408.864,176.928,1408.829,176.95,1408.797,176.973z
			"/>
		<path class="st4" d="M1369.513,158.665c-1.023,0.782-2.048,1.563-3.069,2.346c-2.576,1.975-5.154,3.951-7.731,5.926
			c-0.024,0.017-0.051,0.031-0.074,0.046c-0.32-0.59-0.578-1.206-0.837-1.824c-0.917-2.192-1.574-4.462-1.987-6.803
			c-0.285-1.625-0.443-3.262-0.482-4.911c-0.033-1.39,0.017-2.778,0.16-4.159c0.349-3.361,1.19-6.594,2.549-9.693
			c0.189-0.43,0.377-0.862,0.6-1.273c3.624,2.772,7.25,5.542,10.875,8.314c-0.15,0.538-0.316,1.07-0.443,1.612
			c-0.439,1.892-0.594,3.804-0.462,5.742c0.108,1.572,0.399,3.109,0.885,4.609C1369.509,158.619,1369.511,158.642,1369.513,158.665z
			"/>
	</g>
</g>
<path class="st6" d="M1398.383,190.953c-0.733,0-1.439,0.113-2.104,0.321c-1.205-0.981-2.741-1.571-4.417-1.571
	c-2.921,0-5.421,1.79-6.47,4.331c-2.24,1.032-3.799,3.291-3.799,5.919c0,3.6,2.919,6.519,6.519,6.519c2.3,0,4.317-1.194,5.478-2.993
	c0.111-0.028,0.223-0.052,0.332-0.085c1.213,0.999,2.766,1.599,4.46,1.599c3.877,0,7.02-3.143,7.02-7.02
	S1402.26,190.953,1398.383,190.953z"/>
<path class="st6" d="M1460.363,197.577c0-2.102-1.936-3.806-4.324-3.806c-0.096,0-0.191,0.007-0.286,0.013
	c-0.784-1.23-2.157-2.047-3.723-2.047c-2.439,0-4.417,1.977-4.417,4.417c0,1.353,0.61,2.563,1.568,3.373
	c0.033,2.244,1.859,4.053,4.11,4.053c1.615,0,3.008-0.933,3.682-2.287C1458.912,200.916,1460.363,199.397,1460.363,197.577z"/>
<g>
	<g>
		<g>
			<path d="M1063.178,164.523l-31.645-16.702c-0.23-0.122-0.359-0.296-0.358-0.48c0.002-0.184,0.136-0.357,0.371-0.475
				l31.645-16.154l1.353,0.961l-30.72,15.68l30.733,16.219L1063.178,164.523z"/>
		</g>
	</g>
	<g>
		<path class="st0" d="M1037.474,129.181c-12.297,0-23.472,11.071-28.732,17.223c-13.257-3.278-14.52-5.674-31.114-6.744
			c-4.775-10.107-15.121-18.394-30.273-18.394c-21.462,0-33.285,14.709-33.285,25.73c0,0.141,0.004,0.281,0.009,0.419
			c-9.48,5.016-12.418,10.946-12.418,13.761c0,5.378,10.71,22.136,57.329,22.136c41.228,0,76.543-9.911,76.543-22.136
			C1037.474,153.907,1042.321,129.181,1037.474,129.181z"/>
		<path class="st1" d="M914.414,143.647c28.155,9.914,41.18-9.785,19.047-20.043C922.491,127.596,915.934,136.028,914.414,143.647z"
			/>
		<path class="st1" d="M965.92,141.996c0,3.396-2.751,6.148-6.148,6.148c-3.396,0-6.147-2.751-6.147-6.148
			c0-3.394,2.751-6.148,6.147-6.148C963.169,135.848,965.92,138.602,965.92,141.996z"/>
		<path class="st2" d="M1032.786,166.09c-57.798-25.789-91.184-11.468-126.301,3.528c6.788,6.481,21.917,13.696,52.506,13.696
			C994.522,183.313,1021.695,175.951,1032.786,166.09z"/>
		<g>
			<path class="st3" d="M995.704,167.918c6.042,13.626,8.481,35.761-0.829,35.761c-10.85,0-41.25-20.08-41.25-35.761
				c0-6.443,9.421-9.778,21.04-9.778C986.283,158.142,993.091,162.03,995.704,167.918z"/>
			<path class="st4" d="M958.714,180.347c9.125,12.177,28.074,23.334,36.159,23.334c8.673,0,7.15-19.214,2.013-32.86
				C983.069,168.396,970.99,172.454,958.714,180.347z"/>
		</g>
		<g>
			<path class="st3" d="M1032.826,162.865c3.056,6.888,7.174,20.933,2.468,20.933c-5.485,0-23.741-13.005-23.741-20.933
				c0-3.257,4.762-4.942,10.635-4.942C1028.064,157.921,1031.504,159.888,1032.826,162.865z"/>
			<path class="st4" d="M1020.612,175.682c5.424,4.542,11.806,8.116,14.683,8.116c4.707,0,0.587-14.045-2.468-20.933
				c-0.035-0.077-0.074-0.149-0.112-0.225C1028.11,165.511,1024.251,170.124,1020.612,175.682z"/>
		</g>
	</g>
	<path class="st5" d="M1037.474,129.181c-7.517,0-14.61,4.141-20.194,8.766c3.08,4.587,9.506,7.753,16.956,7.753
		c1.53,0,3.01-0.147,4.435-0.399C1039.854,137.105,1040.216,129.181,1037.474,129.181z"/>
</g>
<g id="TVbOgR_7_">
	<g>
		<path class="st3" d="M1058.742,128.321c0.448-0.954,0.967-1.868,1.522-2.76c2.723-4.372,6.286-7.904,10.681-10.585
			c2.905-1.772,6.02-3.041,9.335-3.821c1.548-0.364,3.113-0.612,4.698-0.747c1.41-0.121,2.821-0.154,4.234-0.092
			c1.677,0.073,3.339,0.274,4.985,0.609c4.613,0.943,8.805,2.83,12.61,5.595c0.763,0.552,1.495,1.142,2.212,1.754
			c0.103,0.087,0.103,0.127,0.009,0.221c-1.169,1.162-2.333,2.328-3.499,3.494c-1.894,1.894-3.789,3.786-5.678,5.685
			c-0.108,0.108-0.164,0.105-0.278,0.013c-2.302-1.85-4.895-3.1-7.781-3.729c-1.91-0.417-3.843-0.524-5.79-0.34
			c-6.884,0.658-12.799,4.872-15.649,11.153c-0.276,0.609-0.504,1.238-0.737,1.866
			C1065.99,133.862,1062.366,131.093,1058.742,128.321z"/>
		<path class="st5" d="M1108.893,166.973c-0.691,0.667-1.429,1.276-2.195,1.857c-3.503,2.655-7.414,4.435-11.696,5.411
			c-2.484,0.565-4.999,0.824-7.544,0.801c-1.743-0.017-3.477-0.176-5.196-0.469c-3.231-0.551-6.308-1.568-9.228-3.056
			c-3.052-1.557-5.788-3.552-8.206-5.981c-2.455-2.466-4.462-5.26-6.016-8.375c-0.029-0.057-0.051-0.118-0.074-0.177
			c0.024-0.016,0.052-0.029,0.074-0.046c2.576-1.975,5.152-3.951,7.731-5.926c1.022-0.783,2.045-1.563,3.07-2.346
			c0.307,0.875,0.64,1.738,1.064,2.565c2.183,4.262,5.481,7.323,9.905,9.162c1.677,0.697,3.427,1.118,5.231,1.302
			c1.599,0.164,3.196,0.122,4.791-0.057c2.045-0.23,4.019-0.725,5.902-1.563c0.715-0.318,1.398-0.695,2.067-1.099
			c0.384,0.301,0.769,0.599,1.155,0.898C1102.781,162.24,1105.837,164.606,1108.893,166.973z"/>
		<path class="st0" d="M1108.893,166.973c-3.056-2.366-6.112-4.731-9.168-7.099c-0.385-0.298-0.769-0.599-1.156-0.898
			c0.546-0.377,1.094-0.752,1.605-1.18c1.791-1.493,3.132-3.317,4.045-5.461c0.391-0.921,0.684-1.872,0.899-2.848
			c0.038-0.171-0.003-0.193-0.158-0.193c-2.602,0.004-5.202,0.003-7.805,0.003c-3.05,0-6.099-0.003-9.147,0.004
			c-0.169,0-0.212-0.039-0.212-0.211c0.004-4.038,0.004-8.077,0-12.113c0-0.167,0.035-0.215,0.208-0.215
			c9.925,0.004,19.848,0.004,29.773,0.003c0.147,0,0.208,0.033,0.241,0.191c0.234,1.09,0.421,2.188,0.552,3.295
			c0.145,1.237,0.158,2.478,0.123,3.718c-0.031,1.116-0.109,2.232-0.241,3.341c-0.371,3.151-1.107,6.209-2.313,9.149
			c-1.177,2.872-2.747,5.507-4.735,7.891c-0.752,0.901-1.558,1.747-2.411,2.552C1108.961,166.928,1108.926,166.95,1108.893,166.973z
			"/>
		<path class="st4" d="M1069.61,148.665c-1.024,0.782-2.048,1.563-3.07,2.346c-2.576,1.975-5.154,3.951-7.731,5.926
			c-0.025,0.017-0.051,0.031-0.074,0.046c-0.32-0.59-0.579-1.206-0.837-1.824c-0.917-2.192-1.574-4.462-1.987-6.803
			c-0.285-1.625-0.443-3.262-0.483-4.911c-0.033-1.39,0.018-2.778,0.16-4.159c0.349-3.361,1.191-6.594,2.55-9.693
			c0.189-0.43,0.377-0.862,0.6-1.273c3.624,2.772,7.25,5.542,10.875,8.314c-0.15,0.538-0.316,1.07-0.443,1.612
			c-0.439,1.892-0.594,3.804-0.462,5.742c0.108,1.572,0.399,3.109,0.885,4.609C1069.605,148.619,1069.608,148.642,1069.61,148.665z"
			/>
	</g>
</g>
<path class="st6" d="M1098.48,185.953c-0.733,0-1.439,0.113-2.104,0.321c-1.205-0.981-2.741-1.571-4.417-1.571
	c-2.921,0-5.421,1.79-6.47,4.331c-2.24,1.032-3.799,3.291-3.799,5.919c0,3.6,2.919,6.519,6.519,6.519c2.3,0,4.317-1.194,5.478-2.993
	c0.111-0.028,0.223-0.052,0.332-0.085c1.213,0.999,2.766,1.599,4.46,1.599c3.877,0,7.02-3.143,7.02-7.02
	S1102.357,185.953,1098.48,185.953z"/>
<path class="st6" d="M1160.46,197.577c0-2.102-1.936-3.806-4.324-3.806c-0.096,0-0.191,0.007-0.286,0.013
	c-0.784-1.23-2.157-2.047-3.723-2.047c-2.439,0-4.417,1.977-4.417,4.417c0,1.353,0.61,2.563,1.568,3.373
	c0.033,2.244,1.859,4.053,4.11,4.053c1.615,0,3.008-0.933,3.681-2.287C1159.009,200.916,1160.46,199.397,1160.46,197.577z"/>
<g>
	<g>
		<g>
			<path d="M763.274,164.523l-31.645-16.702c-0.23-0.122-0.359-0.296-0.357-0.48c0.002-0.184,0.136-0.357,0.37-0.475l31.645-16.154
				l1.353,0.961l-30.72,15.68l30.733,16.219L763.274,164.523z"/>
		</g>
	</g>
	<g>
		<path class="st0" d="M737.57,129.181c-12.297,0-23.472,11.071-28.732,17.223c-13.257-3.278-14.52-5.674-31.114-6.744
			c-4.775-10.107-15.121-18.394-30.273-18.394c-21.462,0-33.285,14.709-33.285,25.73c0,0.141,0.004,0.281,0.009,0.419
			c-9.48,5.016-12.418,10.946-12.418,13.761c0,5.378,10.71,22.136,57.329,22.136c41.228,0,76.543-9.911,76.543-22.136
			C737.57,153.907,742.418,129.181,737.57,129.181z"/>
		<path class="st1" d="M614.511,143.647c28.155,9.914,41.18-9.785,19.048-20.043C622.588,127.596,616.031,136.028,614.511,143.647z"
			/>
		<path class="st1" d="M666.017,141.996c0,3.396-2.751,6.148-6.148,6.148c-3.396,0-6.147-2.751-6.147-6.148
			c0-3.394,2.751-6.148,6.147-6.148C663.265,135.848,666.017,138.602,666.017,141.996z"/>
		<path class="st2" d="M732.883,166.09c-57.798-25.789-91.184-11.468-126.301,3.528c6.788,6.481,21.917,13.696,52.506,13.696
			C694.619,183.313,721.792,175.951,732.883,166.09z"/>
		<g>
			<path class="st3" d="M695.801,167.918c6.042,13.626,8.481,35.761-0.829,35.761c-10.85,0-41.25-20.08-41.25-35.761
				c0-6.443,9.421-9.778,21.04-9.778C686.38,158.142,693.188,162.03,695.801,167.918z"/>
			<path class="st4" d="M658.81,180.347c9.125,12.177,28.074,23.334,36.159,23.334c8.673,0,7.15-19.214,2.013-32.86
				C683.166,168.396,671.086,172.454,658.81,180.347z"/>
		</g>
		<g>
			<path class="st3" d="M732.922,162.865c3.056,6.888,7.174,20.933,2.468,20.933c-5.485,0-23.741-13.005-23.741-20.933
				c0-3.257,4.762-4.942,10.635-4.942C728.16,157.921,731.601,159.888,732.922,162.865z"/>
			<path class="st4" d="M720.709,175.682c5.424,4.542,11.806,8.116,14.683,8.116c4.707,0,0.587-14.045-2.468-20.933
				c-0.035-0.077-0.074-0.149-0.112-0.225C728.207,165.511,724.348,170.124,720.709,175.682z"/>
		</g>
	</g>
	<path class="st5" d="M737.57,129.181c-7.517,0-14.61,4.141-20.194,8.766c3.08,4.587,9.506,7.753,16.956,7.753
		c1.53,0,3.01-0.147,4.435-0.399C739.951,137.105,740.313,129.181,737.57,129.181z"/>
</g>
<g id="TVbOgR_8_">
	<g>
		<path class="st3" d="M758.839,123.321c0.448-0.954,0.967-1.868,1.522-2.76c2.723-4.372,6.286-7.904,10.681-10.585
			c2.905-1.772,6.02-3.041,9.335-3.821c1.548-0.364,3.113-0.612,4.698-0.747c1.41-0.121,2.821-0.154,4.234-0.092
			c1.677,0.073,3.339,0.274,4.985,0.609c4.613,0.943,8.805,2.83,12.61,5.595c0.763,0.552,1.495,1.142,2.212,1.754
			c0.103,0.087,0.103,0.127,0.009,0.221c-1.169,1.162-2.333,2.328-3.499,3.494c-1.894,1.894-3.789,3.786-5.678,5.685
			c-0.108,0.108-0.164,0.105-0.278,0.013c-2.302-1.85-4.895-3.1-7.781-3.729c-1.91-0.417-3.843-0.524-5.79-0.34
			c-6.884,0.658-12.799,4.872-15.649,11.153c-0.276,0.609-0.504,1.238-0.737,1.866C766.087,128.862,762.462,126.093,758.839,123.321
			z"/>
		<path class="st5" d="M808.99,161.973c-0.69,0.667-1.429,1.276-2.195,1.857c-3.503,2.655-7.414,4.435-11.696,5.411
			c-2.484,0.565-4.999,0.824-7.544,0.801c-1.743-0.017-3.477-0.176-5.196-0.469c-3.231-0.551-6.308-1.568-9.228-3.056
			c-3.052-1.557-5.788-3.552-8.206-5.981c-2.455-2.466-4.462-5.26-6.016-8.375c-0.029-0.057-0.051-0.118-0.074-0.177
			c0.024-0.016,0.053-0.029,0.074-0.046c2.576-1.975,5.152-3.951,7.731-5.926c1.022-0.783,2.045-1.563,3.07-2.346
			c0.307,0.875,0.64,1.738,1.064,2.565c2.183,4.262,5.481,7.323,9.905,9.162c1.677,0.697,3.427,1.118,5.231,1.302
			c1.599,0.164,3.196,0.122,4.79-0.057c2.045-0.23,4.019-0.725,5.902-1.563c0.715-0.318,1.398-0.695,2.067-1.099
			c0.384,0.301,0.769,0.599,1.155,0.898C802.877,157.24,805.934,159.606,808.99,161.973z"/>
		<path class="st0" d="M808.99,161.973c-3.056-2.366-6.112-4.731-9.168-7.099c-0.385-0.298-0.769-0.599-1.156-0.898
			c0.546-0.377,1.094-0.752,1.605-1.18c1.791-1.493,3.132-3.317,4.045-5.461c0.391-0.921,0.684-1.872,0.899-2.848
			c0.038-0.171-0.003-0.193-0.158-0.193c-2.602,0.004-5.202,0.003-7.805,0.003c-3.049,0-6.099-0.003-9.147,0.004
			c-0.169,0-0.212-0.039-0.212-0.211c0.004-4.038,0.004-8.077,0-12.113c0-0.167,0.035-0.215,0.208-0.215
			c9.925,0.004,19.848,0.004,29.773,0.003c0.147,0,0.208,0.033,0.241,0.191c0.234,1.09,0.421,2.188,0.552,3.295
			c0.145,1.237,0.158,2.478,0.123,3.718c-0.031,1.116-0.109,2.232-0.241,3.341c-0.37,3.151-1.107,6.209-2.313,9.149
			c-1.177,2.872-2.747,5.507-4.735,7.891c-0.752,0.901-1.558,1.747-2.411,2.552C809.057,161.928,809.022,161.95,808.99,161.973z"/>
		<path class="st4" d="M769.706,143.665c-1.023,0.782-2.048,1.563-3.07,2.346c-2.576,1.975-5.154,3.951-7.731,5.926
			c-0.024,0.017-0.051,0.031-0.074,0.046c-0.32-0.59-0.579-1.206-0.837-1.824c-0.917-2.192-1.574-4.462-1.987-6.803
			c-0.285-1.625-0.443-3.262-0.482-4.911c-0.033-1.39,0.018-2.778,0.16-4.159c0.349-3.361,1.19-6.594,2.549-9.693
			c0.189-0.43,0.377-0.862,0.6-1.273c3.624,2.772,7.25,5.542,10.875,8.314c-0.149,0.538-0.315,1.07-0.443,1.612
			c-0.439,1.892-0.594,3.804-0.462,5.742c0.108,1.572,0.399,3.109,0.885,4.609C769.702,143.619,769.705,143.642,769.706,143.665z"/>
	</g>
</g>
<path class="st6" d="M798.577,185.953c-0.733,0-1.439,0.113-2.104,0.321c-1.205-0.981-2.741-1.571-4.417-1.571
	c-2.921,0-5.421,1.79-6.47,4.331c-2.24,1.032-3.799,3.291-3.799,5.919c0,3.6,2.919,6.519,6.519,6.519c2.3,0,4.317-1.194,5.478-2.993
	c0.111-0.028,0.223-0.052,0.332-0.085c1.213,0.999,2.766,1.599,4.46,1.599c3.877,0,7.02-3.143,7.02-7.02
	S802.454,185.953,798.577,185.953z"/>
<path class="st6" d="M855.557,197.577c0-2.102-1.936-3.806-4.324-3.806c-0.096,0-0.191,0.007-0.286,0.013
	c-0.784-1.23-2.157-2.047-3.723-2.047c-2.439,0-4.417,1.977-4.417,4.417c0,1.353,0.61,2.563,1.568,3.373
	c0.033,2.244,1.859,4.053,4.11,4.053c1.615,0,3.008-0.933,3.681-2.287C854.105,200.916,855.557,199.397,855.557,197.577z"/>
<g>
	<g>
		<g>
			<path d="M463.371,164.523l-31.645-16.702c-0.23-0.122-0.359-0.296-0.358-0.48c0.002-0.184,0.136-0.357,0.371-0.475l31.645-16.154
				l1.353,0.961l-30.72,15.68l30.733,16.219L463.371,164.523z"/>
		</g>
	</g>
	<g>
		<path class="st0" d="M437.667,129.181c-12.297,0-23.472,11.071-28.732,17.223c-13.257-3.278-14.52-5.674-31.114-6.744
			c-4.775-10.107-15.121-18.394-30.273-18.394c-21.462,0-33.285,14.709-33.285,25.73c0,0.141,0.004,0.281,0.009,0.419
			c-9.48,5.016-12.418,10.946-12.418,13.761c0,5.378,10.71,22.136,57.329,22.136c41.228,0,76.543-9.911,76.543-22.136
			C437.667,153.907,442.514,129.181,437.667,129.181z"/>
		<path class="st1" d="M314.607,143.647c28.155,9.914,41.18-9.785,19.048-20.043C322.684,127.596,316.127,136.028,314.607,143.647z"
			/>
		<path class="st1" d="M366.113,141.996c0,3.396-2.751,6.148-6.148,6.148c-3.396,0-6.147-2.751-6.147-6.148
			c0-3.394,2.751-6.148,6.147-6.148C363.362,135.848,366.113,138.602,366.113,141.996z"/>
		<path class="st2" d="M432.98,166.09c-57.798-25.789-91.184-11.468-126.301,3.528c6.788,6.481,21.917,13.696,52.506,13.696
			C394.716,183.313,421.888,175.951,432.98,166.09z"/>
		<g>
			<path class="st3" d="M395.897,167.918c6.042,13.626,8.481,35.761-0.829,35.761c-10.85,0-41.25-20.08-41.25-35.761
				c0-6.443,9.421-9.778,21.04-9.778C386.476,158.142,393.284,162.03,395.897,167.918z"/>
			<path class="st4" d="M358.907,180.347c9.125,12.177,28.074,23.334,36.159,23.334c8.673,0,7.15-19.214,2.013-32.86
				C383.263,168.396,371.183,172.454,358.907,180.347z"/>
		</g>
		<g>
			<path class="st3" d="M433.019,162.865c3.056,6.888,7.174,20.933,2.468,20.933c-5.485,0-23.741-13.005-23.741-20.933
				c0-3.257,4.762-4.942,10.635-4.942C428.257,157.921,431.697,159.888,433.019,162.865z"/>
			<path class="st4" d="M420.805,175.682c5.424,4.542,11.806,8.116,14.683,8.116c4.707,0,0.587-14.045-2.468-20.933
				c-0.035-0.077-0.074-0.149-0.112-0.225C428.304,165.511,424.445,170.124,420.805,175.682z"/>
		</g>
	</g>
	<path class="st5" d="M437.667,129.181c-7.517,0-14.61,4.141-20.194,8.766c3.08,4.587,9.506,7.753,16.956,7.753
		c1.53,0,3.01-0.147,4.435-0.399C440.048,137.105,440.41,129.181,437.667,129.181z"/>
</g>
<g id="TVbOgR_9_">
	<g>
		<path class="st3" d="M458.935,128.321c0.447-0.954,0.967-1.868,1.522-2.76c2.723-4.372,6.286-7.904,10.681-10.585
			c2.905-1.772,6.02-3.041,9.335-3.821c1.548-0.364,3.113-0.612,4.698-0.747c1.41-0.121,2.821-0.154,4.234-0.092
			c1.677,0.073,3.339,0.274,4.985,0.609c4.613,0.943,8.805,2.83,12.61,5.595c0.763,0.552,1.495,1.142,2.212,1.754
			c0.103,0.087,0.103,0.127,0.009,0.221c-1.169,1.162-2.333,2.328-3.499,3.494c-1.894,1.894-3.789,3.786-5.678,5.685
			c-0.108,0.108-0.164,0.105-0.278,0.013c-2.302-1.85-4.895-3.1-7.781-3.729c-1.91-0.417-3.843-0.524-5.79-0.34
			c-6.884,0.658-12.799,4.872-15.649,11.153c-0.276,0.609-0.504,1.238-0.737,1.866C466.184,133.862,462.559,131.093,458.935,128.321
			z"/>
		<path class="st5" d="M509.087,166.973c-0.691,0.667-1.429,1.276-2.195,1.857c-3.503,2.655-7.414,4.435-11.696,5.411
			c-2.484,0.565-4.999,0.824-7.544,0.801c-1.743-0.017-3.477-0.176-5.196-0.469c-3.231-0.551-6.308-1.568-9.228-3.056
			c-3.052-1.557-5.788-3.552-8.206-5.981c-2.455-2.466-4.462-5.26-6.016-8.375c-0.029-0.057-0.051-0.118-0.074-0.177
			c0.024-0.016,0.052-0.029,0.074-0.046c2.576-1.975,5.152-3.951,7.731-5.926c1.022-0.783,2.045-1.563,3.07-2.346
			c0.307,0.875,0.64,1.738,1.064,2.565c2.183,4.262,5.481,7.323,9.905,9.162c1.677,0.697,3.427,1.118,5.231,1.302
			c1.599,0.164,3.196,0.122,4.79-0.057c2.045-0.23,4.019-0.725,5.902-1.563c0.715-0.318,1.398-0.695,2.067-1.099
			c0.384,0.301,0.769,0.599,1.155,0.898C502.974,162.24,506.03,164.606,509.087,166.973z"/>
		<path class="st0" d="M509.087,166.973c-3.056-2.366-6.112-4.731-9.168-7.099c-0.385-0.298-0.769-0.599-1.155-0.898
			c0.546-0.377,1.094-0.752,1.605-1.18c1.791-1.493,3.132-3.317,4.045-5.461c0.391-0.921,0.684-1.872,0.899-2.848
			c0.038-0.171-0.003-0.193-0.158-0.193c-2.602,0.004-5.202,0.003-7.805,0.003c-3.049,0-6.099-0.003-9.147,0.004
			c-0.169,0-0.212-0.039-0.212-0.211c0.004-4.038,0.004-8.077,0-12.113c0-0.167,0.035-0.215,0.208-0.215
			c9.925,0.004,19.848,0.004,29.773,0.003c0.147,0,0.208,0.033,0.241,0.191c0.234,1.09,0.421,2.188,0.552,3.295
			c0.145,1.237,0.158,2.478,0.123,3.718c-0.031,1.116-0.109,2.232-0.241,3.341c-0.371,3.151-1.107,6.209-2.313,9.149
			c-1.177,2.872-2.747,5.507-4.735,7.891c-0.752,0.901-1.558,1.747-2.411,2.552C509.154,166.928,509.119,166.95,509.087,166.973z"/>
		<path class="st4" d="M469.803,148.665c-1.023,0.782-2.048,1.563-3.07,2.346c-2.576,1.975-5.154,3.951-7.731,5.926
			c-0.024,0.017-0.051,0.031-0.074,0.046c-0.32-0.59-0.579-1.206-0.837-1.824c-0.917-2.192-1.574-4.462-1.987-6.803
			c-0.285-1.625-0.443-3.262-0.482-4.911c-0.033-1.39,0.017-2.778,0.16-4.159c0.349-3.361,1.19-6.594,2.55-9.693
			c0.189-0.43,0.377-0.862,0.6-1.273c3.624,2.772,7.25,5.542,10.875,8.314c-0.149,0.538-0.315,1.07-0.443,1.612
			c-0.439,1.892-0.594,3.804-0.462,5.742c0.108,1.572,0.399,3.109,0.885,4.609C469.799,148.619,469.801,148.642,469.803,148.665z"/>
	</g>
</g>
<path class="st6" d="M493.673,185.953c-0.733,0-1.439,0.113-2.104,0.321c-1.205-0.981-2.741-1.571-4.417-1.571
	c-2.921,0-5.421,1.79-6.47,4.331c-2.24,1.032-3.799,3.291-3.799,5.919c0,3.6,2.919,6.519,6.519,6.519c2.3,0,4.317-1.194,5.478-2.993
	c0.111-0.028,0.223-0.052,0.332-0.085c1.213,0.999,2.766,1.599,4.46,1.599c3.877,0,7.02-3.143,7.02-7.02
	S497.55,185.953,493.673,185.953z"/>
<path class="st6" d="M550.653,197.577c0-2.102-1.936-3.806-4.324-3.806c-0.096,0-0.191,0.007-0.286,0.013
	c-0.784-1.23-2.157-2.047-3.723-2.047c-2.439,0-4.417,1.977-4.417,4.417c0,1.353,0.61,2.563,1.568,3.373
	c0.033,2.244,1.859,4.053,4.11,4.053c1.615,0,3.008-0.933,3.681-2.287C549.202,200.916,550.653,199.397,550.653,197.577z"/>
<g>
	<g>
		<g>
			<path d="M2862.598,164.523l-31.645-16.702c-0.23-0.122-0.359-0.296-0.357-0.48c0.002-0.184,0.136-0.357,0.371-0.475
				l31.645-16.154l1.353,0.961l-30.72,15.68l30.733,16.219L2862.598,164.523z"/>
		</g>
	</g>
	<g>
		<path class="st0" d="M2836.894,129.181c-12.297,0-23.472,11.071-28.732,17.223c-13.257-3.278-14.52-5.674-31.114-6.744
			c-4.775-10.107-15.121-18.394-30.273-18.394c-21.462,0-33.285,14.709-33.285,25.73c0,0.141,0.004,0.281,0.009,0.419
			c-9.479,5.016-12.418,10.946-12.418,13.761c0,5.378,10.71,22.136,57.329,22.136c41.228,0,76.543-9.911,76.543-22.136
			C2836.894,153.907,2841.741,129.181,2836.894,129.181z"/>
		<path class="st1" d="M2713.834,143.647c28.155,9.914,41.179-9.785,19.048-20.043
			C2721.911,127.596,2715.354,136.028,2713.834,143.647z"/>
		<path class="st1" d="M2765.34,141.996c0,3.396-2.751,6.148-6.148,6.148c-3.396,0-6.147-2.751-6.147-6.148
			c0-3.394,2.751-6.148,6.147-6.148C2762.589,135.848,2765.34,138.602,2765.34,141.996z"/>
		<path class="st2" d="M2832.206,166.09c-57.798-25.789-91.184-11.468-126.301,3.528c6.788,6.481,21.917,13.696,52.506,13.696
			C2793.943,183.313,2821.115,175.951,2832.206,166.09z"/>
		<g>
			<path class="st3" d="M2795.124,167.918c6.042,13.626,8.481,35.761-0.829,35.761c-10.85,0-41.25-20.08-41.25-35.761
				c0-6.443,9.421-9.778,21.04-9.778C2785.703,158.142,2792.511,162.03,2795.124,167.918z"/>
			<path class="st4" d="M2758.134,180.347c9.125,12.177,28.073,23.334,36.159,23.334c8.673,0,7.15-19.214,2.013-32.86
				C2782.49,168.396,2770.41,172.454,2758.134,180.347z"/>
		</g>
		<g>
			<path class="st3" d="M2832.246,162.865c3.056,6.888,7.174,20.933,2.468,20.933c-5.485,0-23.741-13.005-23.741-20.933
				c0-3.257,4.762-4.942,10.635-4.942C2827.484,157.921,2830.924,159.888,2832.246,162.865z"/>
			<path class="st4" d="M2820.032,175.682c5.424,4.542,11.806,8.116,14.683,8.116c4.707,0,0.587-14.045-2.468-20.933
				c-0.035-0.077-0.074-0.149-0.112-0.225C2827.53,165.511,2823.672,170.124,2820.032,175.682z"/>
		</g>
	</g>
	<path class="st5" d="M2836.894,129.181c-7.517,0-14.61,4.141-20.194,8.766c3.08,4.587,9.506,7.753,16.956,7.753
		c1.531,0,3.01-0.147,4.435-0.399C2839.275,137.105,2839.636,129.181,2836.894,129.181z"/>
</g>
<g id="TVbOgR_10_">
	<g>
		<path class="st3" d="M2858.162,128.321c0.448-0.954,0.967-1.868,1.522-2.76c2.723-4.372,6.286-7.904,10.681-10.585
			c2.905-1.772,6.02-3.041,9.335-3.821c1.548-0.364,3.113-0.612,4.698-0.747c1.41-0.121,2.822-0.154,4.234-0.092
			c1.677,0.073,3.339,0.274,4.985,0.609c4.613,0.943,8.805,2.83,12.61,5.595c0.763,0.552,1.496,1.142,2.212,1.754
			c0.103,0.087,0.103,0.127,0.009,0.221c-1.169,1.162-2.333,2.328-3.499,3.494c-1.894,1.894-3.789,3.786-5.678,5.685
			c-0.108,0.108-0.164,0.105-0.278,0.013c-2.302-1.85-4.896-3.1-7.781-3.729c-1.91-0.417-3.843-0.524-5.791-0.34
			c-6.884,0.658-12.799,4.872-15.649,11.153c-0.276,0.609-0.504,1.238-0.737,1.866
			C2865.41,133.862,2861.786,131.093,2858.162,128.321z"/>
		<path class="st5" d="M2908.313,166.973c-0.69,0.667-1.429,1.276-2.195,1.857c-3.503,2.655-7.414,4.435-11.696,5.411
			c-2.484,0.565-4.999,0.824-7.544,0.801c-1.743-0.017-3.477-0.176-5.196-0.469c-3.231-0.551-6.308-1.568-9.228-3.056
			c-3.052-1.557-5.788-3.552-8.206-5.981c-2.455-2.466-4.462-5.26-6.016-8.375c-0.029-0.057-0.051-0.118-0.074-0.177
			c0.024-0.016,0.052-0.029,0.074-0.046c2.576-1.975,5.152-3.951,7.73-5.926c1.022-0.783,2.045-1.563,3.07-2.346
			c0.307,0.875,0.64,1.738,1.064,2.565c2.183,4.262,5.481,7.323,9.905,9.162c1.677,0.697,3.427,1.118,5.231,1.302
			c1.598,0.164,3.196,0.122,4.79-0.057c2.045-0.23,4.019-0.725,5.902-1.563c0.715-0.318,1.398-0.695,2.067-1.099
			c0.384,0.301,0.769,0.599,1.156,0.898C2902.201,162.24,2905.257,164.606,2908.313,166.973z"/>
		<path class="st0" d="M2908.313,166.973c-3.056-2.366-6.112-4.731-9.168-7.099c-0.385-0.298-0.769-0.599-1.156-0.898
			c0.546-0.377,1.094-0.752,1.605-1.18c1.791-1.493,3.133-3.317,4.045-5.461c0.391-0.921,0.684-1.872,0.899-2.848
			c0.038-0.171-0.003-0.193-0.158-0.193c-2.602,0.004-5.202,0.003-7.805,0.003c-3.049,0-6.099-0.003-9.146,0.004
			c-0.169,0-0.212-0.039-0.212-0.211c0.004-4.038,0.004-8.077,0-12.113c0-0.167,0.035-0.215,0.208-0.215
			c9.925,0.004,19.848,0.004,29.773,0.003c0.147,0,0.208,0.033,0.241,0.191c0.234,1.09,0.421,2.188,0.552,3.295
			c0.145,1.237,0.158,2.478,0.123,3.718c-0.031,1.116-0.109,2.232-0.241,3.341c-0.371,3.151-1.107,6.209-2.313,9.149
			c-1.177,2.872-2.747,5.507-4.735,7.891c-0.752,0.901-1.558,1.747-2.412,2.552C2908.381,166.928,2908.346,166.95,2908.313,166.973z
			"/>
		<path class="st4" d="M2869.03,148.665c-1.023,0.782-2.048,1.563-3.07,2.346c-2.576,1.975-5.154,3.951-7.731,5.926
			c-0.024,0.017-0.051,0.031-0.074,0.046c-0.32-0.59-0.579-1.206-0.837-1.824c-0.917-2.192-1.574-4.462-1.987-6.803
			c-0.285-1.625-0.443-3.262-0.482-4.911c-0.033-1.39,0.018-2.778,0.16-4.159c0.349-3.361,1.19-6.594,2.55-9.693
			c0.189-0.43,0.377-0.862,0.6-1.273c3.624,2.772,7.25,5.542,10.875,8.314c-0.15,0.538-0.316,1.07-0.443,1.612
			c-0.439,1.892-0.594,3.804-0.462,5.742c0.107,1.572,0.399,3.109,0.885,4.609C2869.025,148.619,2869.028,148.642,2869.03,148.665z"
			/>
	</g>
</g>
<path class="st6" d="M2919.9,199.953c-0.733,0-1.439,0.113-2.104,0.321c-1.205-0.981-2.741-1.571-4.417-1.571
	c-2.92,0-5.421,1.79-6.47,4.331c-2.24,1.032-3.799,3.291-3.799,5.919c0,3.6,2.919,6.519,6.519,6.519c2.3,0,4.317-1.194,5.478-2.993
	c0.111-0.028,0.223-0.052,0.332-0.085c1.213,0.999,2.766,1.599,4.46,1.599c3.877,0,7.02-3.143,7.02-7.02
	S2923.777,199.953,2919.9,199.953z"/>
<path class="st6" d="M2980.88,212.577c0-2.102-1.936-3.806-4.324-3.806c-0.096,0-0.191,0.007-0.286,0.013
	c-0.784-1.23-2.157-2.047-3.723-2.047c-2.439,0-4.417,1.977-4.417,4.417c0,1.353,0.61,2.563,1.569,3.373
	c0.032,2.244,1.859,4.053,4.11,4.053c1.615,0,3.008-0.933,3.682-2.287C2979.429,215.916,2980.88,214.397,2980.88,212.577z"/>
</svg>
