<?xml version="1.0" encoding="utf-8"?>
<!-- Generator: Adobe Illustrator 22.0.1, SVG Export Plug-In . SVG Version: 6.00 Build 0)  -->
<svg version="1.1" id="Layer_1" xmlns="http://www.w3.org/2000/svg" xmlns:xlink="http://www.w3.org/1999/xlink" x="0px" y="0px"
	 viewBox="0 0 5 5" style="enable-background:new 0 0 5 5;" xml:space="preserve">
<style type="text/css">
	.st0{fill:#FFFFFF;}
	.st1{fill:#E1E3E4;}
	.st2{fill:#00B4E4;}
	.st3{fill:#CAD3D4;}
</style>
<path class="st0" d="M1.974,3.722c0.013,0.016,0.019,0,0.026-0.006c0.022-0.021,0.042-0.043,0.064-0.064
	c0.074-0.07,0.139-0.148,0.218-0.211c0.212,0.106,0.425,0.212,0.637,0.32c0.029,0.015,0.04,0.014,0.053-0.02
	c0.253-0.658,0.506-1.315,0.761-1.971C3.798,1.602,3.864,1.435,3.93,1.267C3.928,1.266,3.927,1.264,3.926,1.262
	C3.927,1.264,3.928,1.266,3.93,1.268C3.908,1.254,3.894,1.272,3.878,1.28C2.966,1.735,2.054,2.191,1.142,2.647
	c-0.013,0.007-0.029,0.01-0.041,0.028C1.274,2.79,1.446,2.904,1.619,3.018c0.009,0.017,0.018,0.033,0.027,0.05
	C1.755,3.286,1.864,3.504,1.974,3.722z"/>
<g id="_x36_S5mHE_1_">
	<g>
		<polygon class="st1" points="146.973,-121.02 147.189,-121.195 147.018,-120.974 		"/>
		<polygon class="st1" points="147.018,-120.974 146.805,-120.812 146.973,-121.019 		"/>
	</g>
</g>
<path class="st2" d="M2.313,0.054c0.13,0,0.26,0,0.391,0c0.006,0.014,0.019,0.009,0.029,0.01c0.093,0.009,0.186,0.021,0.278,0.041
	c1.013,0.218,1.766,1.021,1.917,2.041c0.009,0.059,0.008,0.119,0.025,0.176c0,0.121,0,0.241,0,0.362
	c-0.011,0.005-0.009,0.016-0.01,0.025C4.93,2.854,4.904,2.997,4.866,3.138C4.619,4.063,3.819,4.771,2.871,4.906
	C2.812,4.915,2.752,4.913,2.695,4.933c-0.127,0-0.254,0-0.381,0C2.306,4.917,2.291,4.923,2.28,4.922
	c-0.139-0.015-0.276-0.04-0.411-0.076C0.904,4.588,0.177,3.728,0.085,2.733C0.044,2.288,0.109,1.857,0.307,1.456
	c0.381-0.772,0.999-1.232,1.85-1.376C2.209,0.071,2.264,0.075,2.313,0.054z M1.974,3.722c0.013,0.016,0.019,0,0.026-0.006
	c0.022-0.021,0.042-0.043,0.064-0.064c0.074-0.07,0.139-0.148,0.218-0.211c0.212,0.106,0.425,0.212,0.637,0.32
	c0.029,0.015,0.04,0.014,0.053-0.02c0.253-0.658,0.506-1.315,0.761-1.971C3.798,1.602,3.864,1.435,3.93,1.267
	C3.928,1.266,3.927,1.264,3.926,1.262C3.927,1.264,3.928,1.266,3.93,1.268C3.908,1.254,3.894,1.272,3.878,1.28
	C2.966,1.735,2.054,2.191,1.142,2.647c-0.013,0.007-0.029,0.01-0.041,0.028C1.274,2.79,1.446,2.904,1.619,3.018
	c0.009,0.017,0.018,0.033,0.027,0.05C1.755,3.286,1.864,3.504,1.974,3.722z"/>
<path class="st1" d="M1.619,3.018c0.028,0,0.046-0.021,0.065-0.036C1.972,2.761,2.26,2.539,2.548,2.317
	c0.405-0.311,0.809-0.623,1.214-0.934c0.02-0.015,0.038-0.036,0.067-0.042c0.003,0.027-0.015,0.036-0.026,0.047
	C3.616,1.583,3.427,1.776,3.242,1.971c-0.138,0.145-0.275,0.29-0.414,0.433c-0.213,0.22-0.425,0.441-0.634,0.664
	C2.135,3.13,2.077,3.19,2.018,3.251C2.006,3.263,1.992,3.274,1.99,3.293C1.97,3.339,1.983,3.387,1.98,3.434
	C1.976,3.53,1.987,3.626,1.974,3.722C1.864,3.504,1.755,3.286,1.646,3.068C1.637,3.051,1.628,3.034,1.619,3.018z"/>
<path class="st3" d="M1.974,3.722C1.987,3.626,1.976,3.53,1.98,3.434c0.002-0.047-0.01-0.095,0.009-0.14
	c0.098,0.049,0.195,0.098,0.292,0.148c-0.08,0.063-0.145,0.142-0.218,0.211C2.042,3.673,2.021,3.695,1.999,3.716
	C1.993,3.722,1.987,3.738,1.974,3.722z"/>
</svg>
