<?xml version="1.0" encoding="utf-8"?>
<!-- Generator: Adobe Illustrator 21.0.2, SVG Export Plug-In . SVG Version: 6.00 Build 0)  -->
<svg version="1.1" id="Layer_1" xmlns="http://www.w3.org/2000/svg" xmlns:xlink="http://www.w3.org/1999/xlink" x="0px" y="0px"
	 viewBox="0 0 24 10" style="enable-background:new 0 0 24 10;" xml:space="preserve">
<style type="text/css">
	.st0{opacity:0.75;fill:#ECEEEF;enable-background:new    ;}
	.st1{fill:#00B3E3;}
	.st2{fill:#2374BA;}
	.st3{fill:#FFFFFF;}
	.st4{opacity:0.75;enable-background:new    ;}
	.st5{fill:#ECEEEF;}
</style>
<path class="st0" d="M14.498,6.496h-3.023c-0.182,0-0.33-0.147-0.33-0.329c0-0.182,0.148-0.33,0.33-0.33h3.023
	c0.182,0,0.33,0.148,0.33,0.33C14.828,6.349,14.681,6.496,14.498,6.496z M15.021,5.186h-3.546c-0.182,0-0.33-0.147-0.33-0.329
	c0-0.182,0.148-0.33,0.33-0.33h3.546c0.182,0,0.33,0.148,0.33,0.33C15.351,5.038,15.204,5.186,15.021,5.186z M13.965,3.875h-2.49
	c-0.182,0-0.33-0.147-0.33-0.329c0-0.182,0.148-0.33,0.33-0.33h2.49c0.182,0,0.33,0.148,0.33,0.33
	C14.294,3.727,14.147,3.875,13.965,3.875z"/>
<path class="st0" d="M10.634,6.496h-0.476c-0.024,0-0.044-0.147-0.044-0.329c0-0.182,0.02-0.33,0.044-0.33h0.476
	c0.024,0,0.044,0.148,0.044,0.33C10.679,6.349,10.659,6.496,10.634,6.496z M10.634,5.186h-0.476c-0.024,0-0.044-0.147-0.044-0.329
	c0-0.182,0.02-0.33,0.044-0.33h0.476c0.024,0,0.044,0.148,0.044,0.33C10.679,5.038,10.659,5.186,10.634,5.186z M10.634,3.875h-0.476
	c-0.024,0-0.044-0.147-0.044-0.329c0-0.182,0.02-0.33,0.044-0.33h0.476c0.024,0,0.044,0.148,0.044,0.33
	C10.679,3.727,10.659,3.875,10.634,3.875z"/>
<g>
	<rect x="0.577" y="2.15" class="st1" width="5.925" height="4.671"/>
	<polygon class="st2" points="6.502,2.15 6.502,6.821 0.577,6.821 1.655,7.54 7.583,7.54 7.583,3.228 	"/>
	<polygon class="st3" points="1.561,5.801 1.609,3.072 1.088,3.128 1.023,2.79 2.694,2.866 2.626,3.025 2.059,3.05 1.771,5.849 	"/>
	<g>
		<path class="st3" d="M3.995,5.482c-0.092,0.063-0.27,0.115-0.447,0.141c-0.742,0.107-1.05-0.448-1.136-0.946
			C2.304,4.052,2.493,3.506,3.006,3.432C3.025,3.429,3.05,3.43,3.069,3.427c0.519-0.035,0.728,0.347,0.807,0.801
			C3.891,4.32,3.896,4.377,3.906,4.492L2.684,4.575c0.098,0.679,0.457,0.766,0.754,0.75C3.462,5.321,3.486,5.322,3.51,5.319
			c0.153-0.022,0.262-0.074,0.337-0.125L3.995,5.482z M3.52,4.244C3.451,3.846,3.264,3.618,3.015,3.654
			C2.732,3.695,2.664,4.036,2.697,4.34L3.52,4.244z"/>
		<path class="st3" d="M5.309,6.529l0.14-1.089L5.435,5.438C5.335,5.585,5.106,5.717,4.848,5.68C4.24,5.592,4.173,4.929,4.267,4.392
			c0.119-0.685,0.564-0.988,0.942-0.933c0.182,0.026,0.36,0.133,0.451,0.369L5.67,3.829l0.005-0.397l0.418,0.19L5.982,4.264
			L5.571,6.491L5.309,6.529z M5.572,4.366c0.041-0.321-0.096-0.605-0.35-0.641C4.911,3.68,4.706,3.981,4.635,4.392
			C4.573,4.749,4.601,5.317,5.023,5.378C5.186,5.402,5.465,5.29,5.51,4.889L5.572,4.366z"/>
	</g>
</g>
<g class="st4">
	<path class="st5" d="M16.663,4.042l0.644,1.538l0.645-1.538h0.196v1.743H18V5.026l0.013-0.778l-0.649,1.537H17.25l-0.646-1.531
		l0.013,0.768v0.763h-0.148V4.042H16.663z"/>
	<path class="st5" d="M19.551,4.949h-0.814V5.66h0.936v0.125h-1.084V4.042h1.079v0.125h-0.931v0.658h0.814V4.949z"/>
	<path class="st5" d="M21.281,5.785h-0.148l-1.001-1.491v1.491h-0.149V4.042h0.149l1.003,1.493V4.042h0.146V5.785z"/>
	<path class="st5" d="M22.925,4.042v1.19c-0.001,0.117-0.027,0.219-0.078,0.306c-0.052,0.087-0.123,0.154-0.216,0.201
		c-0.093,0.046-0.2,0.07-0.321,0.07c-0.183,0-0.331-0.05-0.441-0.151c-0.109-0.1-0.167-0.239-0.172-0.415V4.042h0.146v1.179
		c0,0.147,0.042,0.261,0.126,0.342s0.197,0.122,0.341,0.122s0.257-0.041,0.341-0.122c0.083-0.081,0.125-0.195,0.125-0.34V4.042
		H22.925z"/>
</g>
</svg>
