<?xml version="1.0" encoding="utf-8"?>
<!-- Generator: Adobe Illustrator 22.0.1, SVG Export Plug-In . SVG Version: 6.00 Build 0)  -->
<svg version="1.1" id="Layer_1" xmlns="http://www.w3.org/2000/svg" xmlns:xlink="http://www.w3.org/1999/xlink" x="0px" y="0px"
	 viewBox="0 0 200 16" style="enable-background:new 0 0 200 16;" xml:space="preserve">
<style type="text/css">
	.st0{opacity:0.46;}
	.st1{opacity:0.33;fill:#5C6A75;enable-background:new    ;}
	.st2{fill:url(#SVGID_1_);}
	.st3{fill:url(#SVGID_2_);}
	.st4{fill:url(#SVGID_3_);}
	.st5{opacity:0.44;fill:#FFFFFF;enable-background:new    ;}
	.st6{fill:#50C5DD;}
	.st7{fill:#2EA8D6;}
	.st8{opacity:0.33;fill:#FFFFFF;enable-background:new    ;}
	.st9{fill:#FFFFFF;}
</style>
<g class="st0">
	<path class="st1" d="M30.129,0.153v3.608c-0.653-0.349-1.396-0.548-2.187-0.548c-2.579,0-4.669,2.109-4.669,4.711
		s2.09,4.711,4.669,4.711c0.791,0,1.535-0.199,2.187-0.548v0.548h2.482V0.153H30.129z M27.994,10.139
		c-1.179,0-2.135-0.965-2.135-2.156c0.001-1.191,0.957-2.156,2.135-2.156c1.179,0,2.135,0.965,2.135,2.156
		C30.129,9.173,29.173,10.139,27.994,10.139z"/>
	<path class="st1" d="M18.496,3.553c-0.791,0-1.535,0.199-2.187,0.548V3.553h-2.482v12.481h2.482v-3.608
		c0.653,0.349,1.396,0.548,2.187,0.548c2.579,0,4.669-2.109,4.669-4.711C23.165,5.662,21.075,3.553,18.496,3.553z M18.445,10.359
		c-1.179,0-2.135-0.965-2.135-2.155c0-1.189,0.957-2.155,2.135-2.155c1.179,0,2.135,0.965,2.135,2.155S19.624,10.359,18.445,10.359z
		"/>
	<path class="st1" d="M13.157,5.246c-0.002-0.005-0.005-0.011-0.007-0.016c-0.023-0.056-0.05-0.11-0.074-0.165
		c-0.055-0.124-0.112-0.246-0.174-0.367c-0.035-0.067-0.071-0.133-0.108-0.2c-0.062-0.11-0.127-0.219-0.194-0.325
		C12.563,4.115,12.528,4.057,12.49,4c-0.104-0.153-0.212-0.302-0.328-0.446c-0.031-0.039-0.065-0.075-0.097-0.112
		c-0.092-0.11-0.187-0.217-0.286-0.32c-0.049-0.051-0.098-0.1-0.148-0.149c-0.093-0.091-0.189-0.18-0.287-0.265
		c-0.049-0.042-0.096-0.085-0.145-0.126c-0.144-0.119-0.293-0.234-0.447-0.34c-0.027-0.019-0.057-0.035-0.084-0.054
		C10.536,2.1,10.4,2.015,10.261,1.937c-0.055-0.031-0.112-0.061-0.168-0.091C9.971,1.781,9.848,1.721,9.721,1.664
		C9.666,1.639,9.613,1.613,9.557,1.591C9.379,1.516,9.198,1.447,9.013,1.389C8.997,1.384,8.981,1.381,8.965,1.376
		C8.793,1.323,8.617,1.278,8.44,1.238C8.381,1.225,8.321,1.214,8.262,1.203c-0.143-0.027-0.288-0.05-0.435-0.067
		c-0.06-0.007-0.119-0.015-0.18-0.021c-0.201-0.019-0.404-0.032-0.61-0.032c-0.208,0-0.414,0.013-0.617,0.032
		C6.356,1.121,6.294,1.131,6.233,1.138C6.091,1.155,5.95,1.176,5.811,1.202c-0.067,0.013-0.134,0.026-0.2,0.041
		c-0.143,0.033-0.284,0.07-0.422,0.111C5.136,1.37,5.082,1.383,5.029,1.401c-0.187,0.06-0.371,0.128-0.55,0.204
		C4.444,1.62,4.41,1.638,4.376,1.653C4.231,1.718,4.09,1.787,3.951,1.862c-0.06,0.032-0.118,0.067-0.176,0.1
		C3.662,2.027,3.551,2.095,3.442,2.167C3.383,2.206,3.325,2.245,3.267,2.285C3.152,2.367,3.041,2.452,2.932,2.54
		C2.89,2.575,2.845,2.607,2.803,2.643C2.66,2.764,2.522,2.892,2.39,3.025C2.343,3.071,2.301,3.12,2.256,3.168
		C2.168,3.261,2.082,3.357,2,3.454C1.949,3.516,1.9,3.578,1.85,3.642C1.778,3.734,1.709,3.83,1.642,3.926
		C1.596,3.991,1.55,4.056,1.506,4.124c-0.074,0.114-0.143,0.233-0.21,0.352C1.259,4.54,1.222,4.604,1.187,4.67
		C1.109,4.82,1.036,4.975,0.969,5.132C0.937,5.206,0.909,5.283,0.88,5.359c-0.027,0.07-0.057,0.138-0.082,0.209
		C0.8,5.569,0.801,5.57,0.803,5.571C0.558,6.274,0.418,7.027,0.418,7.816c0,3.719,2.964,6.734,6.619,6.734s6.619-3.014,6.619-6.734
		C13.657,6.906,13.478,6.038,13.157,5.246C13.156,5.247,13.157,5.247,13.157,5.246z"/>
</g>
<g>
	
		<linearGradient id="SVGID_1_" gradientUnits="userSpaceOnUse" x1="6.9315" y1="-791.0641" x2="6.9315" y2="-804.5321" gradientTransform="matrix(1 0 0 -1 0 -790.1943)">
		<stop  offset="0" style="stop-color:#FFFFFF"/>
		<stop  offset="0.3126" style="stop-color:#E2E1E0"/>
		<stop  offset="0.4767" style="stop-color:#E0E0DF"/>
		<stop  offset="0.7198" style="stop-color:#C8C8C8"/>
	</linearGradient>
	<path class="st2" d="M5.491,3.969c0.484,0,5.285,2.774,5.285,3.652c0,0.877-4.671,3.652-5.285,3.652
		C4.878,11.274,5.008,3.969,5.491,3.969z M6.932,0.87c3.656,0,6.619,3.016,6.619,6.734c0,3.719-2.964,6.734-6.619,6.734
		s-6.62-3.016-6.62-6.735S3.276,0.87,6.932,0.87z"/>
	
		<linearGradient id="SVGID_2_" gradientUnits="userSpaceOnUse" x1="27.836" y1="-656.1342" x2="27.836" y2="-679.4977" gradientTransform="matrix(1 0 0 -1 0 -656.1943)">
		<stop  offset="0" style="stop-color:#FFFFFF"/>
		<stop  offset="0.1656" style="stop-color:#EAEAEA"/>
		<stop  offset="0.6628" style="stop-color:#B6B8B8"/>
	</linearGradient>
	<path class="st3" d="M27.887,5.614c1.179,0,2.135,0.965,2.135,2.156s-0.956,2.156-2.135,2.156s-2.135-0.965-2.135-2.156
		C25.753,6.579,26.709,5.614,27.887,5.614z M30.023-0.06v3.608C29.37,3.199,28.627,3,27.836,3c-2.579,0-4.669,2.109-4.669,4.711
		s2.09,4.711,4.669,4.711c0.791,0,1.534-0.199,2.187-0.548v0.548h2.482V-0.06H30.023z"/>
	
		<linearGradient id="SVGID_3_" gradientUnits="userSpaceOnUse" x1="18.39" y1="-659.5352" x2="18.39" y2="-680.1368" gradientTransform="matrix(1 0 0 -1 0 -656.1943)">
		<stop  offset="0" style="stop-color:#FFFFFF"/>
		<stop  offset="0.2611" style="stop-color:#D4D5D5"/>
		<stop  offset="0.6575" style="stop-color:#B9BBBB"/>
		<stop  offset="0.8092" style="stop-color:#B6B8B8"/>
	</linearGradient>
	<path class="st4" d="M18.338,5.837c1.179,0,2.135,0.965,2.135,2.155s-0.956,2.155-2.135,2.155s-2.135-0.965-2.135-2.155
		S17.16,5.837,18.338,5.837z M18.39,3.341c-0.791,0-1.535,0.199-2.187,0.548V3.341h-2.482v12.482h2.482v-3.608
		c0.653,0.349,1.396,0.548,2.187,0.548c2.579,0,4.669-2.109,4.669-4.711S20.969,3.341,18.39,3.341z"/>
	<path class="st5" d="M6.932,0.87c-2.881,0-5.33,1.873-6.24,4.486c1.143,0.826,2.672,1.412,4.399,1.638
		c0.043-1.595,0.187-3.025,0.4-3.025c0.358,0,3.077,1.519,4.469,2.663c1.219-0.36,2.279-0.912,3.09-1.598
		C12.058,2.59,9.693,0.87,6.932,0.87z"/>
	<path class="st6" d="M5.491,3.969c0.484,0,5.285,2.774,5.285,3.652c0,0.877-4.671,3.652-5.285,3.652
		C4.878,11.274,5.008,3.969,5.491,3.969z"/>
	<g>
		<path class="st7" d="M5.491,3.969c-0.061,0-0.117,0.118-0.166,0.325c0.615,0.09,5.254,2.784,5.254,3.648
			c0,0.033-0.009,0.069-0.021,0.108c0.139-0.168,0.219-0.315,0.219-0.428C10.776,6.743,5.974,3.969,5.491,3.969z"/>
	</g>
	<path class="st8" d="M5.091,6.994c0.51,0.067,1.036,0.102,1.575,0.102c1.174,0,2.288-0.166,3.294-0.463
		C8.568,5.488,5.849,3.971,5.491,3.971C5.278,3.969,5.134,5.4,5.091,6.994z"/>
</g>
<g>
	<path class="st9" d="M36.681,4.117c0,0.295-0.052,0.553-0.156,0.775c-0.104,0.222-0.253,0.393-0.447,0.514
		c-0.194,0.12-0.416,0.181-0.667,0.181c-0.248,0-0.469-0.059-0.663-0.178c-0.194-0.119-0.345-0.289-0.452-0.511
		c-0.107-0.221-0.161-0.476-0.162-0.763v-0.15c0-0.294,0.053-0.553,0.16-0.778c0.106-0.224,0.256-0.396,0.45-0.516
		s0.416-0.18,0.665-0.18s0.471,0.06,0.665,0.18s0.344,0.292,0.45,0.516s0.159,0.482,0.159,0.776L36.681,4.117L36.681,4.117z
		 M36.056,3.981c0-0.314-0.056-0.552-0.168-0.715s-0.273-0.244-0.481-0.244c-0.207,0-0.366,0.08-0.478,0.241
		c-0.112,0.161-0.169,0.397-0.17,0.708v0.146c0,0.305,0.056,0.543,0.168,0.711s0.274,0.253,0.485,0.253
		c0.207,0,0.366-0.081,0.476-0.243c0.111-0.162,0.167-0.399,0.168-0.71C36.056,4.128,36.056,3.981,36.056,3.981z"/>
	<path class="st9" d="M37.531,3.322l0.019,0.257c0.159-0.199,0.372-0.298,0.639-0.298c0.236,0,0.411,0.069,0.526,0.208
		c0.115,0.138,0.174,0.345,0.176,0.621v1.436h-0.593V4.12c0-0.126-0.027-0.218-0.082-0.275s-0.146-0.086-0.273-0.086
		c-0.167,0-0.293,0.071-0.376,0.214v1.571h-0.593V3.322H37.531z"/>
	<path class="st9" d="M39.863,5.545h-0.596V2.389h0.596V5.545z"/>
	<path class="st9" d="M40.242,2.746c0-0.089,0.03-0.162,0.089-0.22c0.059-0.057,0.14-0.086,0.243-0.086
		c0.102,0,0.182,0.029,0.242,0.086c0.061,0.058,0.09,0.131,0.09,0.22c0,0.09-0.031,0.164-0.091,0.222s-0.14,0.086-0.24,0.086
		s-0.18-0.029-0.241-0.086S40.242,2.837,40.242,2.746z M40.874,5.545h-0.596V3.322h0.596V5.545z"/>
	<path class="st9" d="M41.804,3.322l0.019,0.257c0.159-0.199,0.372-0.298,0.639-0.298c0.235,0,0.411,0.069,0.526,0.208
		c0.115,0.138,0.174,0.345,0.176,0.621v1.436h-0.593V4.12c0-0.126-0.027-0.218-0.082-0.275s-0.146-0.086-0.273-0.086
		c-0.167,0-0.293,0.071-0.376,0.214v1.571h-0.595V3.322H41.804z"/>
	<path class="st9" d="M44.531,5.586c-0.326,0-0.591-0.1-0.796-0.3s-0.307-0.466-0.307-0.8V4.429c0-0.224,0.043-0.423,0.13-0.599
		c0.086-0.176,0.208-0.311,0.367-0.407c0.158-0.095,0.339-0.143,0.542-0.143c0.304,0,0.544,0.096,0.718,0.288
		c0.175,0.192,0.262,0.464,0.262,0.816v0.242h-1.416c0.019,0.145,0.077,0.261,0.174,0.349c0.096,0.088,0.219,0.132,0.367,0.132
		c0.229,0,0.407-0.082,0.536-0.249L45.4,5.185c-0.089,0.126-0.21,0.224-0.362,0.295C44.885,5.551,44.716,5.586,44.531,5.586z
		 M44.463,3.759c-0.118,0-0.213,0.04-0.287,0.12c-0.073,0.08-0.12,0.194-0.141,0.343h0.826V4.174
		c-0.003-0.132-0.038-0.234-0.107-0.307C44.687,3.796,44.59,3.759,44.463,3.759z"/>
	<path class="st9" d="M47.275,4.491v1.054h-0.617V2.554h1.167c0.224,0,0.422,0.041,0.593,0.123c0.17,0.082,0.302,0.199,0.394,0.351
		s0.138,0.323,0.138,0.517c0,0.293-0.1,0.524-0.301,0.693c-0.201,0.169-0.478,0.253-0.833,0.253
		C47.816,4.491,47.275,4.491,47.275,4.491z M47.275,3.992h0.551c0.163,0,0.287-0.039,0.373-0.115
		c0.086-0.077,0.128-0.186,0.128-0.329c0-0.146-0.043-0.265-0.13-0.355c-0.086-0.09-0.206-0.137-0.357-0.14h-0.565V3.992z"/>
	<path class="st9" d="M50.478,3.878c-0.081-0.011-0.153-0.017-0.214-0.017c-0.225,0-0.372,0.076-0.442,0.228v1.454h-0.593V3.322
		h0.561l0.017,0.265c0.119-0.204,0.284-0.306,0.495-0.306c0.066,0,0.128,0.009,0.185,0.027L50.478,3.878z"/>
	<path class="st9" d="M50.492,4.412c0-0.22,0.043-0.417,0.127-0.589c0.085-0.173,0.207-0.306,0.367-0.4
		c0.16-0.094,0.345-0.142,0.555-0.142c0.3,0,0.545,0.092,0.734,0.275c0.19,0.184,0.295,0.433,0.317,0.748l0.004,0.152
		c0,0.341-0.095,0.615-0.285,0.821s-0.446,0.309-0.766,0.309s-0.576-0.102-0.768-0.308C50.586,5.072,50.49,4.793,50.49,4.44V4.412
		H50.492z M51.086,4.455c0,0.211,0.039,0.373,0.119,0.484c0.08,0.112,0.193,0.168,0.341,0.168c0.144,0,0.256-0.055,0.337-0.166
		s0.121-0.287,0.121-0.53c0-0.207-0.041-0.368-0.121-0.482c-0.08-0.114-0.194-0.171-0.341-0.171c-0.145,0-0.257,0.057-0.337,0.17
		C51.125,4.042,51.086,4.217,51.086,4.455z"/>
	<path class="st9" d="M53.02,5.545V3.757h-0.331V3.322h0.331v-0.19c0-0.249,0.072-0.443,0.215-0.581s0.343-0.206,0.601-0.206
		c0.082,0,0.183,0.013,0.302,0.041l-0.006,0.456c-0.049-0.012-0.11-0.018-0.181-0.018c-0.224,0-0.335,0.106-0.335,0.317v0.18h0.442
		v0.435h-0.442v1.788L53.02,5.545L53.02,5.545z"/>
	<path class="st9" d="M55.235,5.586c-0.326,0-0.591-0.1-0.796-0.3s-0.307-0.466-0.307-0.8V4.429c0-0.224,0.043-0.423,0.13-0.599
		c0.086-0.176,0.208-0.311,0.367-0.407c0.158-0.095,0.339-0.143,0.542-0.143c0.304,0,0.544,0.096,0.718,0.288
		c0.175,0.192,0.262,0.464,0.262,0.816v0.242h-1.416c0.019,0.145,0.077,0.261,0.174,0.349c0.096,0.088,0.219,0.132,0.367,0.132
		c0.229,0,0.407-0.082,0.536-0.249l0.292,0.327c-0.089,0.126-0.21,0.224-0.362,0.295C55.588,5.551,55.419,5.586,55.235,5.586z
		 M55.167,3.759c-0.118,0-0.213,0.04-0.287,0.12c-0.073,0.08-0.12,0.194-0.141,0.343h0.826V4.174
		c-0.003-0.132-0.038-0.234-0.107-0.307C55.39,3.796,55.293,3.759,55.167,3.759z"/>
	<path class="st9" d="M57.585,4.931c0-0.073-0.036-0.13-0.108-0.172c-0.072-0.042-0.188-0.079-0.347-0.112
		c-0.529-0.11-0.793-0.335-0.793-0.674c0-0.198,0.082-0.362,0.245-0.494c0.164-0.132,0.378-0.198,0.642-0.198
		c0.282,0,0.508,0.067,0.677,0.2s0.254,0.305,0.254,0.518h-0.593c0-0.085-0.027-0.155-0.082-0.211
		c-0.056-0.058-0.141-0.085-0.257-0.085c-0.1,0-0.178,0.023-0.232,0.068c-0.054,0.045-0.082,0.103-0.082,0.173
		c0,0.066,0.031,0.118,0.094,0.159c0.063,0.041,0.168,0.075,0.315,0.105c0.148,0.029,0.272,0.063,0.374,0.1
		c0.314,0.115,0.47,0.314,0.47,0.598c0,0.203-0.087,0.367-0.261,0.492s-0.398,0.188-0.674,0.188c-0.186,0-0.352-0.033-0.496-0.1
		c-0.144-0.066-0.257-0.158-0.34-0.273c-0.082-0.116-0.123-0.241-0.123-0.375h0.563c0.005,0.106,0.045,0.186,0.117,0.242
		s0.17,0.084,0.292,0.084c0.114,0,0.2-0.021,0.258-0.065C57.555,5.057,57.585,5,57.585,4.931z"/>
	<path class="st9" d="M59.643,4.931c0-0.073-0.036-0.13-0.108-0.172c-0.072-0.042-0.188-0.079-0.347-0.112
		c-0.529-0.11-0.793-0.335-0.793-0.674c0-0.198,0.082-0.362,0.245-0.494c0.164-0.132,0.378-0.198,0.642-0.198
		c0.282,0,0.508,0.067,0.677,0.2c0.17,0.133,0.253,0.305,0.253,0.518h-0.593c0-0.085-0.027-0.155-0.082-0.211
		c-0.055-0.058-0.14-0.085-0.257-0.085c-0.1,0-0.178,0.023-0.232,0.068c-0.055,0.045-0.082,0.103-0.082,0.173
		c0,0.066,0.031,0.118,0.094,0.159c0.063,0.041,0.168,0.075,0.315,0.105c0.148,0.029,0.272,0.063,0.374,0.1
		c0.313,0.115,0.471,0.314,0.471,0.598c0,0.203-0.087,0.367-0.261,0.492s-0.398,0.188-0.674,0.188c-0.186,0-0.352-0.033-0.496-0.1
		c-0.144-0.066-0.257-0.158-0.34-0.273c-0.083-0.116-0.124-0.241-0.124-0.375h0.563c0.005,0.106,0.045,0.186,0.117,0.242
		s0.17,0.084,0.292,0.084c0.114,0,0.2-0.021,0.258-0.065C59.614,5.057,59.643,5,59.643,4.931z"/>
	<path class="st9" d="M60.493,2.746c0-0.089,0.029-0.162,0.089-0.22c0.06-0.057,0.14-0.086,0.243-0.086
		c0.101,0,0.182,0.029,0.242,0.086c0.061,0.058,0.09,0.131,0.09,0.22c0,0.09-0.031,0.164-0.091,0.222
		c-0.061,0.058-0.142,0.086-0.241,0.086c-0.1,0-0.18-0.029-0.241-0.086C60.524,2.911,60.493,2.837,60.493,2.746z M61.124,5.545
		h-0.595V3.322h0.595V5.545z"/>
	<path class="st9" d="M61.415,4.412c0-0.22,0.043-0.417,0.127-0.589c0.084-0.173,0.207-0.306,0.367-0.4
		c0.16-0.094,0.345-0.142,0.555-0.142c0.3,0,0.545,0.092,0.734,0.275c0.19,0.184,0.295,0.433,0.318,0.748l0.004,0.152
		c0,0.341-0.095,0.615-0.285,0.821s-0.446,0.309-0.766,0.309c-0.321,0-0.576-0.102-0.767-0.308
		c-0.191-0.206-0.287-0.485-0.287-0.838C61.415,4.44,61.415,4.412,61.415,4.412z M62.009,4.455c0,0.211,0.04,0.373,0.12,0.484
		c0.079,0.112,0.193,0.168,0.341,0.168c0.144,0,0.255-0.055,0.337-0.166c0.08-0.11,0.121-0.287,0.121-0.53
		c0-0.207-0.041-0.368-0.121-0.482c-0.08-0.114-0.194-0.171-0.341-0.171c-0.145,0-0.257,0.057-0.337,0.17
		C62.049,4.042,62.009,4.217,62.009,4.455z"/>
	<path class="st9" d="M64.328,3.322l0.019,0.257c0.159-0.199,0.371-0.298,0.639-0.298c0.235,0,0.41,0.069,0.526,0.208
		c0.115,0.138,0.174,0.345,0.176,0.621v1.436h-0.594V4.12c0-0.126-0.027-0.218-0.082-0.275s-0.146-0.086-0.273-0.086
		c-0.167,0-0.292,0.071-0.376,0.214v1.571H63.77V3.322H64.328z"/>
	<path class="st9" d="M67.321,5.545c-0.028-0.053-0.047-0.12-0.06-0.2c-0.144,0.16-0.331,0.24-0.561,0.24
		c-0.218,0-0.398-0.063-0.542-0.189c-0.143-0.126-0.215-0.285-0.215-0.476c0-0.235,0.087-0.416,0.262-0.543
		c0.174-0.126,0.427-0.19,0.757-0.191h0.273V4.059c0-0.103-0.027-0.185-0.079-0.247C67.103,3.75,67.02,3.72,66.907,3.72
		c-0.1,0-0.178,0.024-0.235,0.072s-0.085,0.114-0.085,0.197h-0.594c0-0.128,0.04-0.247,0.12-0.357
		c0.079-0.11,0.192-0.196,0.337-0.258c0.146-0.063,0.309-0.094,0.49-0.094c0.273,0,0.491,0.069,0.652,0.206
		c0.161,0.138,0.241,0.331,0.241,0.581V5.03c0.001,0.211,0.031,0.371,0.088,0.479v0.034h-0.6
		C67.321,5.543,67.321,5.545,67.321,5.545z M66.83,5.131c0.087,0,0.168-0.019,0.242-0.059c0.074-0.039,0.128-0.092,0.164-0.157
		V4.533h-0.222c-0.297,0-0.456,0.102-0.474,0.309l-0.002,0.035c0,0.074,0.026,0.135,0.078,0.183
		C66.668,5.108,66.74,5.131,66.83,5.131z"/>
	<path class="st9" d="M68.81,5.545h-0.595V2.389h0.595V5.545z"/>
	<path class="st9" d="M70.175,5.545V2.554h0.921c0.263,0,0.498,0.059,0.706,0.178s0.369,0.287,0.486,0.506
		c0.116,0.218,0.174,0.467,0.174,0.745v0.138c0,0.278-0.057,0.526-0.172,0.742c-0.114,0.216-0.275,0.385-0.484,0.504
		c-0.208,0.119-0.443,0.18-0.704,0.181h-0.927V5.545z M70.792,3.053V5.05h0.298c0.241,0,0.425-0.078,0.552-0.236
		s0.193-0.383,0.196-0.676V3.979c0-0.304-0.063-0.534-0.19-0.691c-0.126-0.156-0.31-0.235-0.552-0.235L70.792,3.053L70.792,3.053z"
		/>
	<path class="st9" d="M73.789,5.586c-0.326,0-0.591-0.1-0.796-0.3s-0.307-0.466-0.307-0.8V4.429c0-0.224,0.043-0.423,0.13-0.599
		c0.086-0.176,0.209-0.311,0.367-0.407c0.158-0.095,0.339-0.143,0.542-0.143c0.305,0,0.544,0.096,0.718,0.288
		c0.175,0.192,0.262,0.464,0.262,0.816v0.242h-1.416c0.019,0.145,0.077,0.261,0.173,0.349c0.097,0.088,0.219,0.132,0.367,0.132
		c0.229,0,0.407-0.082,0.536-0.249l0.292,0.327c-0.089,0.126-0.21,0.224-0.361,0.295C74.142,5.551,73.974,5.586,73.789,5.586z
		 M73.722,3.759c-0.118,0-0.214,0.04-0.287,0.12c-0.073,0.08-0.12,0.194-0.14,0.343h0.826V4.174
		c-0.003-0.132-0.039-0.234-0.107-0.307C73.945,3.796,73.847,3.759,73.722,3.759z"/>
	<path class="st9" d="M75.741,4.819l0.413-1.497h0.621l-0.75,2.223h-0.567l-0.75-2.223h0.621L75.741,4.819z"/>
	<path class="st9" d="M77.926,5.586c-0.326,0-0.591-0.1-0.796-0.3s-0.307-0.466-0.307-0.8V4.429c0-0.224,0.043-0.423,0.13-0.599
		c0.086-0.176,0.209-0.311,0.367-0.407c0.158-0.095,0.339-0.143,0.542-0.143c0.305,0,0.544,0.096,0.718,0.288
		c0.175,0.192,0.262,0.464,0.262,0.816v0.242h-1.417c0.019,0.145,0.077,0.261,0.173,0.349c0.097,0.088,0.219,0.132,0.367,0.132
		c0.229,0,0.407-0.082,0.536-0.249l0.292,0.327c-0.089,0.126-0.21,0.224-0.361,0.295C78.279,5.551,78.111,5.586,77.926,5.586z
		 M77.858,3.759c-0.118,0-0.214,0.04-0.287,0.12c-0.073,0.08-0.12,0.194-0.14,0.343h0.826V4.174
		c-0.003-0.132-0.039-0.234-0.107-0.307C78.082,3.796,77.984,3.759,77.858,3.759z"/>
	<path class="st9" d="M79.698,5.545h-0.595V2.389h0.595V5.545z"/>
	<path class="st9" d="M79.99,4.412c0-0.22,0.043-0.417,0.127-0.589c0.084-0.173,0.207-0.306,0.367-0.4
		c0.16-0.094,0.345-0.142,0.555-0.142c0.3,0,0.545,0.092,0.734,0.275c0.19,0.184,0.295,0.433,0.318,0.748l0.004,0.152
		c0,0.341-0.095,0.615-0.285,0.821s-0.446,0.309-0.766,0.309c-0.321,0-0.576-0.102-0.767-0.308C80.086,5.072,79.99,4.793,79.99,4.44
		V4.412z M80.583,4.455c0,0.211,0.04,0.373,0.12,0.484c0.079,0.112,0.193,0.168,0.341,0.168c0.144,0,0.255-0.055,0.337-0.166
		c0.08-0.11,0.121-0.287,0.121-0.53c0-0.207-0.041-0.368-0.121-0.482s-0.194-0.171-0.341-0.171c-0.145,0-0.257,0.057-0.337,0.17
		C80.623,4.042,80.583,4.217,80.583,4.455z"/>
	<path class="st9" d="M84.358,4.454c0,0.343-0.078,0.617-0.234,0.823c-0.155,0.206-0.365,0.309-0.629,0.309
		c-0.225,0-0.406-0.078-0.545-0.234V6.4h-0.593V3.322h0.551l0.021,0.218c0.144-0.173,0.331-0.259,0.563-0.259
		c0.273,0,0.486,0.102,0.639,0.304c0.152,0.203,0.228,0.482,0.228,0.838C84.358,4.423,84.358,4.454,84.358,4.454z M83.764,4.408
		c0-0.208-0.037-0.368-0.11-0.48c-0.074-0.112-0.18-0.169-0.32-0.169c-0.186,0-0.314,0.071-0.385,0.214v0.913
		c0.073,0.147,0.202,0.221,0.389,0.221C83.622,5.107,83.764,4.874,83.764,4.408z"/>
	<path class="st9" d="M85.177,3.322l0.018,0.249c0.158-0.193,0.371-0.29,0.639-0.29c0.286,0,0.483,0.113,0.589,0.339
		c0.156-0.226,0.379-0.339,0.668-0.339c0.241,0,0.42,0.071,0.538,0.211s0.176,0.351,0.176,0.634v1.42H87.21V4.124
		c0-0.126-0.025-0.219-0.075-0.277c-0.05-0.058-0.136-0.087-0.261-0.087c-0.178,0-0.301,0.085-0.37,0.255l0.002,1.53h-0.594v-1.42
		c0-0.129-0.025-0.222-0.076-0.28c-0.051-0.058-0.137-0.086-0.259-0.086c-0.168,0-0.29,0.07-0.366,0.21v1.575h-0.593V3.322H85.177z"
		/>
	<path class="st9" d="M89.18,5.586c-0.326,0-0.591-0.1-0.796-0.3s-0.307-0.466-0.307-0.8V4.429c0-0.224,0.043-0.423,0.13-0.599
		c0.086-0.176,0.209-0.311,0.367-0.407c0.158-0.095,0.339-0.143,0.542-0.143c0.305,0,0.544,0.096,0.718,0.288
		c0.175,0.192,0.262,0.464,0.262,0.816v0.242H88.68c0.019,0.145,0.077,0.261,0.173,0.349c0.097,0.088,0.219,0.132,0.367,0.132
		c0.229,0,0.407-0.082,0.536-0.249l0.292,0.327c-0.089,0.126-0.21,0.224-0.361,0.295C89.533,5.551,89.365,5.586,89.18,5.586z
		 M89.113,3.759c-0.118,0-0.214,0.04-0.287,0.12c-0.073,0.08-0.12,0.194-0.14,0.343h0.826V4.174
		c-0.003-0.132-0.039-0.234-0.107-0.307C89.336,3.796,89.239,3.759,89.113,3.759z"/>
	<path class="st9" d="M90.873,3.322l0.019,0.257c0.159-0.199,0.371-0.298,0.639-0.298c0.236,0,0.41,0.069,0.526,0.208
		c0.115,0.138,0.174,0.345,0.176,0.621v1.436h-0.594V4.12c0-0.126-0.027-0.218-0.082-0.275s-0.146-0.086-0.273-0.086
		c-0.167,0-0.292,0.071-0.376,0.214v1.571h-0.593V3.322H90.873z"/>
	<path class="st9" d="M93.289,2.775v0.546h0.381v0.435h-0.381v1.11c0,0.082,0.015,0.141,0.047,0.176
		c0.031,0.036,0.092,0.053,0.181,0.053c0.066,0,0.124-0.005,0.174-0.015v0.45c-0.116,0.036-0.235,0.053-0.359,0.053
		c-0.416,0-0.629-0.21-0.637-0.631V3.757H92.37V3.322h0.325V2.775H93.289z"/>
</g>
<g>
	<path class="st9" d="M36.979,8.226h-1.267v3.432H35.4V8.226h-1.264V7.963h2.843V8.226z"/>
	<path class="st9" d="M37.676,9.376c0.1-0.164,0.228-0.291,0.383-0.381c0.156-0.09,0.326-0.134,0.51-0.134
		c0.295,0,0.514,0.083,0.657,0.249c0.144,0.166,0.217,0.414,0.218,0.746v1.802h-0.302V9.853c-0.002-0.245-0.054-0.428-0.156-0.549
		c-0.102-0.12-0.266-0.18-0.492-0.18c-0.188,0-0.354,0.059-0.499,0.176s-0.251,0.276-0.321,0.476v1.881h-0.302V7.758h0.302v1.617
		h0.002V9.376z"/>
	<path class="st9" d="M41.161,11.709c-0.234,0-0.444-0.058-0.633-0.173c-0.189-0.115-0.335-0.275-0.44-0.481
		s-0.158-0.436-0.158-0.691v-0.11c0-0.264,0.051-0.502,0.154-0.713c0.102-0.212,0.245-0.378,0.428-0.499s0.381-0.182,0.594-0.182
		c0.333,0,0.598,0.114,0.793,0.341c0.195,0.228,0.293,0.539,0.293,0.933v0.17h-1.959v0.059c0,0.311,0.089,0.57,0.267,0.778
		c0.178,0.207,0.403,0.311,0.674,0.311c0.162,0,0.306-0.03,0.43-0.089s0.237-0.154,0.339-0.284l0.19,0.144
		C41.91,11.548,41.586,11.709,41.161,11.709z M41.105,9.12c-0.228,0-0.421,0.084-0.577,0.251c-0.156,0.167-0.251,0.392-0.285,0.675
		h1.647v-0.033c-0.009-0.264-0.084-0.479-0.226-0.645C41.522,9.203,41.335,9.12,41.105,9.12z"/>
	<path class="st9" d="M45.894,9.93H44.17v1.729h-0.312V7.963h2.29v0.264h-1.977v1.44h1.724L45.894,9.93L45.894,9.93z"/>
	<path class="st9" d="M48.292,11.311c-0.183,0.265-0.475,0.398-0.875,0.398c-0.293,0-0.515-0.085-0.667-0.255
		s-0.23-0.422-0.234-0.755V8.912h0.302v1.749c0,0.523,0.212,0.784,0.635,0.784c0.44,0,0.718-0.182,0.835-0.546V8.913h0.305v2.746
		h-0.294L48.292,11.311z"/>
	<path class="st9" d="M50.896,10.96c0-0.15-0.061-0.272-0.182-0.363s-0.303-0.163-0.547-0.214c-0.243-0.051-0.432-0.11-0.567-0.178
		c-0.134-0.067-0.234-0.148-0.3-0.245c-0.065-0.096-0.098-0.213-0.098-0.35c0-0.217,0.09-0.396,0.272-0.537
		c0.181-0.141,0.412-0.212,0.695-0.212c0.307,0,0.552,0.076,0.737,0.227c0.186,0.152,0.278,0.349,0.278,0.593H50.88
		c0-0.16-0.067-0.295-0.202-0.4c-0.134-0.107-0.304-0.16-0.509-0.16c-0.2,0-0.36,0.045-0.481,0.133
		c-0.121,0.089-0.182,0.205-0.182,0.347c0,0.137,0.051,0.243,0.151,0.319s0.285,0.144,0.551,0.206
		c0.266,0.063,0.466,0.13,0.599,0.201s0.232,0.156,0.295,0.256c0.065,0.1,0.096,0.221,0.096,0.363c0,0.232-0.094,0.417-0.281,0.555
		c-0.187,0.138-0.431,0.208-0.732,0.208c-0.32,0-0.579-0.078-0.778-0.233s-0.299-0.351-0.299-0.587h0.305
		c0.011,0.178,0.086,0.316,0.224,0.414c0.138,0.099,0.32,0.149,0.548,0.149c0.212,0,0.383-0.047,0.513-0.14
		C50.831,11.22,50.896,11.103,50.896,10.96z"/>
	<path class="st9" d="M51.736,8.119c0-0.057,0.019-0.106,0.056-0.145c0.037-0.039,0.088-0.059,0.152-0.059
		c0.065,0,0.116,0.02,0.154,0.059c0.038,0.039,0.057,0.088,0.057,0.145s-0.019,0.105-0.057,0.144
		c-0.038,0.039-0.089,0.058-0.154,0.058s-0.115-0.019-0.152-0.058C51.755,8.224,51.736,8.176,51.736,8.119z M52.094,11.658h-0.305
		V8.912h0.305V11.658z"/>
	<path class="st9" d="M52.621,10.245c0-0.264,0.051-0.502,0.154-0.713c0.102-0.212,0.247-0.377,0.434-0.494
		c0.187-0.118,0.399-0.176,0.636-0.176c0.365,0,0.661,0.128,0.888,0.385c0.227,0.256,0.34,0.596,0.34,1.019v0.063
		c0,0.265-0.051,0.505-0.154,0.717c-0.102,0.212-0.247,0.376-0.432,0.491c-0.186,0.115-0.398,0.173-0.637,0.173
		c-0.364,0-0.66-0.128-0.887-0.385c-0.228-0.256-0.341-0.596-0.341-1.019L52.621,10.245L52.621,10.245z M52.926,10.328
		c0,0.328,0.085,0.598,0.255,0.809c0.17,0.21,0.393,0.316,0.669,0.316c0.274,0,0.496-0.106,0.666-0.316
		c0.17-0.211,0.255-0.489,0.255-0.834v-0.059c0-0.21-0.039-0.402-0.117-0.576s-0.187-0.309-0.327-0.404
		c-0.14-0.096-0.301-0.144-0.482-0.144c-0.271,0-0.492,0.106-0.663,0.318c-0.171,0.213-0.256,0.49-0.256,0.834
		C52.926,10.272,52.926,10.328,52.926,10.328z"/>
	<path class="st9" d="M55.86,8.912l0.01,0.47c0.103-0.17,0.232-0.299,0.386-0.387c0.154-0.089,0.324-0.134,0.51-0.134
		c0.295,0,0.514,0.083,0.657,0.249c0.144,0.166,0.217,0.414,0.218,0.746v1.802h-0.302V9.853c-0.002-0.245-0.054-0.428-0.156-0.549
		c-0.102-0.12-0.266-0.18-0.492-0.18c-0.188,0-0.354,0.059-0.499,0.176s-0.251,0.276-0.321,0.476v1.881h-0.302V8.911
		C55.569,8.912,55.86,8.912,55.86,8.912z"/>
	<path class="st9" d="M59.262,10.245c0-0.264,0.051-0.502,0.154-0.713c0.102-0.212,0.247-0.377,0.434-0.494
		c0.187-0.118,0.399-0.176,0.636-0.176c0.365,0,0.661,0.128,0.889,0.385c0.226,0.256,0.34,0.596,0.34,1.019v0.063
		c0,0.265-0.051,0.505-0.153,0.717s-0.247,0.376-0.433,0.491c-0.186,0.115-0.398,0.173-0.637,0.173c-0.364,0-0.66-0.128-0.887-0.385
		c-0.228-0.256-0.341-0.596-0.341-1.019v-0.061H59.262z M59.567,10.328c0,0.328,0.085,0.598,0.255,0.809
		c0.17,0.21,0.393,0.316,0.669,0.316c0.274,0,0.496-0.106,0.667-0.316c0.17-0.211,0.255-0.489,0.255-0.834v-0.059
		c0-0.21-0.039-0.402-0.117-0.576s-0.186-0.309-0.327-0.404c-0.141-0.096-0.301-0.144-0.482-0.144c-0.271,0-0.492,0.106-0.663,0.318
		c-0.171,0.213-0.256,0.49-0.256,0.834v0.056C59.568,10.328,59.567,10.328,59.567,10.328z"/>
	<path class="st9" d="M62.43,11.658V9.16h-0.454V8.911h0.454V8.578c0-0.281,0.071-0.496,0.214-0.647
		c0.143-0.151,0.342-0.226,0.598-0.226c0.115,0,0.223,0.015,0.322,0.043l-0.023,0.251c-0.084-0.02-0.176-0.031-0.277-0.031
		c-0.167,0-0.298,0.053-0.39,0.156c-0.092,0.104-0.14,0.252-0.14,0.444v0.341h0.655v0.249h-0.654v2.498H62.43V11.658z"/>
	<path class="st9" d="M67.414,8.226h-1.267v3.432h-0.312V8.226H64.57V7.963h2.843L67.414,8.226L67.414,8.226z"/>
	<path class="st9" d="M68.623,11.709c-0.234,0-0.445-0.058-0.633-0.173c-0.189-0.115-0.336-0.275-0.44-0.481
		c-0.105-0.206-0.157-0.436-0.157-0.691v-0.11c0-0.264,0.051-0.502,0.154-0.713s0.245-0.378,0.428-0.499
		c0.183-0.121,0.381-0.182,0.594-0.182c0.333,0,0.598,0.114,0.793,0.341c0.195,0.228,0.293,0.539,0.293,0.933v0.17h-1.96v0.059
		c0,0.311,0.09,0.57,0.268,0.778c0.179,0.207,0.403,0.311,0.674,0.311c0.163,0,0.306-0.03,0.43-0.089s0.237-0.154,0.339-0.284
		l0.19,0.144C69.371,11.548,69.047,11.709,68.623,11.709z M68.567,9.12c-0.229,0-0.421,0.084-0.577,0.251
		c-0.156,0.167-0.252,0.392-0.285,0.675h1.647v-0.033c-0.009-0.264-0.084-0.479-0.226-0.645S68.796,9.12,68.567,9.12z"/>
	<path class="st9" d="M71.13,11.453c0.212,0,0.389-0.06,0.532-0.18c0.143-0.119,0.22-0.273,0.233-0.463h0.292
		c-0.008,0.167-0.061,0.32-0.157,0.458c-0.097,0.138-0.225,0.245-0.385,0.324c-0.16,0.078-0.331,0.117-0.514,0.117
		c-0.361,0-0.646-0.125-0.856-0.376c-0.211-0.25-0.316-0.587-0.316-1.011v-0.091c0-0.271,0.048-0.51,0.142-0.718
		s0.23-0.369,0.407-0.482c0.176-0.114,0.384-0.17,0.621-0.17c0.301,0,0.549,0.09,0.745,0.269c0.196,0.18,0.299,0.416,0.313,0.708
		h-0.292c-0.014-0.215-0.091-0.388-0.233-0.52c-0.141-0.132-0.319-0.198-0.534-0.198c-0.274,0-0.487,0.099-0.638,0.297
		c-0.152,0.198-0.228,0.476-0.228,0.833v0.089c0,0.35,0.076,0.623,0.228,0.82C70.64,11.355,70.854,11.453,71.13,11.453z"/>
	<path class="st9" d="M72.964,9.376c0.1-0.164,0.228-0.291,0.383-0.381c0.156-0.09,0.326-0.134,0.51-0.134
		c0.295,0,0.514,0.083,0.658,0.249c0.144,0.166,0.216,0.414,0.218,0.746v1.802H74.43V9.853c-0.001-0.245-0.054-0.428-0.156-0.549
		c-0.102-0.12-0.265-0.18-0.491-0.18c-0.188,0-0.355,0.059-0.499,0.176s-0.252,0.276-0.321,0.476v1.881h-0.302V7.758h0.302
		L72.964,9.376L72.964,9.376z"/>
	<path class="st9" d="M75.674,8.912l0.01,0.47c0.104-0.17,0.232-0.299,0.386-0.387c0.154-0.089,0.325-0.134,0.51-0.134
		c0.295,0,0.514,0.083,0.658,0.249c0.144,0.166,0.216,0.414,0.218,0.746v1.802h-0.302V9.853c-0.002-0.245-0.054-0.428-0.156-0.549
		c-0.102-0.12-0.265-0.18-0.491-0.18c-0.188,0-0.355,0.059-0.499,0.176s-0.252,0.276-0.321,0.476v1.881h-0.302V8.911
		C75.385,8.912,75.674,8.912,75.674,8.912z"/>
	<path class="st9" d="M77.943,10.245c0-0.264,0.051-0.502,0.154-0.713c0.102-0.212,0.247-0.377,0.434-0.494
		c0.187-0.118,0.399-0.176,0.636-0.176c0.365,0,0.661,0.128,0.889,0.385c0.226,0.256,0.34,0.596,0.34,1.019v0.063
		c0,0.265-0.051,0.505-0.154,0.717c-0.102,0.212-0.247,0.376-0.433,0.491s-0.398,0.173-0.637,0.173c-0.364,0-0.66-0.128-0.887-0.385
		s-0.341-0.596-0.341-1.019L77.943,10.245L77.943,10.245z M78.248,10.328c0,0.328,0.085,0.598,0.255,0.809
		c0.17,0.21,0.393,0.316,0.669,0.316c0.274,0,0.496-0.106,0.667-0.316c0.17-0.211,0.255-0.489,0.255-0.834v-0.059
		c0-0.21-0.039-0.402-0.117-0.576c-0.078-0.174-0.186-0.309-0.327-0.404c-0.141-0.096-0.301-0.144-0.482-0.144
		c-0.271,0-0.492,0.106-0.663,0.318c-0.171,0.213-0.256,0.49-0.256,0.834L78.248,10.328L78.248,10.328z"/>
	<path class="st9" d="M81.233,11.658h-0.305V7.759h0.305V11.658z"/>
	<path class="st9" d="M81.761,10.245c0-0.264,0.051-0.502,0.154-0.713c0.102-0.212,0.247-0.377,0.434-0.494
		c0.187-0.118,0.399-0.176,0.636-0.176c0.365,0,0.661,0.128,0.889,0.385c0.226,0.256,0.34,0.596,0.34,1.019v0.063
		c0,0.265-0.051,0.505-0.154,0.717c-0.102,0.212-0.247,0.376-0.433,0.491s-0.398,0.173-0.637,0.173c-0.364,0-0.66-0.128-0.887-0.385
		c-0.228-0.256-0.341-0.596-0.341-1.019L81.761,10.245L81.761,10.245z M82.065,10.328c0,0.328,0.085,0.598,0.255,0.809
		c0.17,0.21,0.393,0.316,0.669,0.316c0.274,0,0.496-0.106,0.667-0.316c0.17-0.211,0.255-0.489,0.255-0.834v-0.059
		c0-0.21-0.039-0.402-0.117-0.576c-0.078-0.174-0.186-0.309-0.327-0.404c-0.141-0.096-0.301-0.144-0.482-0.144
		c-0.271,0-0.492,0.106-0.663,0.318c-0.171,0.213-0.256,0.49-0.256,0.834L82.065,10.328L82.065,10.328z"/>
	<path class="st9" d="M84.587,10.26c0-0.43,0.095-0.77,0.285-1.022c0.19-0.251,0.449-0.377,0.776-0.377
		c0.374,0,0.658,0.149,0.853,0.447l0.015-0.396h0.285v2.69c0,0.354-0.099,0.634-0.297,0.84s-0.466,0.309-0.804,0.309
		c-0.192,0-0.374-0.043-0.548-0.128c-0.173-0.086-0.31-0.2-0.41-0.341l0.17-0.183c0.215,0.264,0.47,0.396,0.767,0.396
		c0.253,0,0.452-0.075,0.594-0.225s0.216-0.357,0.221-0.623v-0.344c-0.195,0.271-0.478,0.406-0.85,0.406
		c-0.318,0-0.574-0.127-0.767-0.381s-0.289-0.597-0.289-1.028L84.587,10.26L84.587,10.26z M84.895,10.313
		c0,0.351,0.071,0.627,0.211,0.829c0.14,0.202,0.338,0.303,0.594,0.303c0.374,0,0.638-0.168,0.794-0.503V9.665
		c-0.071-0.176-0.174-0.311-0.307-0.402c-0.134-0.092-0.295-0.138-0.482-0.138c-0.255,0-0.454,0.1-0.597,0.301
		S84.895,9.923,84.895,10.313z"/>
	<path class="st9" d="M88.333,11.222l0.802-2.31h0.328l-1.173,3.214l-0.061,0.142c-0.15,0.334-0.383,0.5-0.698,0.5
		c-0.073,0-0.15-0.012-0.234-0.035l-0.002-0.251l0.157,0.015c0.149,0,0.269-0.037,0.361-0.11c0.092-0.074,0.17-0.2,0.236-0.38
		l0.134-0.371l-1.036-2.724h0.332L88.333,11.222z"/>
	<path class="st9" d="M92.671,11.658c-0.031-0.086-0.05-0.214-0.058-0.383c-0.107,0.138-0.242,0.245-0.407,0.321
		c-0.165,0.075-0.34,0.113-0.524,0.113c-0.264,0-0.478-0.074-0.641-0.221c-0.163-0.147-0.245-0.333-0.245-0.559
		c0-0.267,0.11-0.479,0.333-0.635s0.533-0.234,0.931-0.234h0.551V9.748c0-0.196-0.061-0.351-0.182-0.464
		c-0.12-0.112-0.297-0.169-0.53-0.169c-0.212,0-0.387,0.055-0.526,0.163s-0.208,0.239-0.208,0.391L90.86,9.666
		c0-0.218,0.101-0.407,0.305-0.567c0.203-0.16,0.453-0.239,0.749-0.239c0.306,0,0.548,0.077,0.724,0.23
		c0.176,0.154,0.267,0.367,0.273,0.641v1.299c0,0.265,0.028,0.465,0.084,0.597v0.031C92.995,11.658,92.671,11.658,92.671,11.658z
		 M91.716,11.441c0.203,0,0.385-0.049,0.545-0.147c0.16-0.098,0.276-0.23,0.349-0.394v-0.604h-0.543
		c-0.303,0.003-0.54,0.059-0.71,0.166c-0.171,0.107-0.256,0.255-0.256,0.443c0,0.154,0.057,0.282,0.171,0.384
		C91.386,11.389,91.534,11.441,91.716,11.441z"/>
	<path class="st9" d="M93.881,8.912l0.01,0.47c0.104-0.17,0.232-0.299,0.386-0.387c0.154-0.089,0.325-0.134,0.51-0.134
		c0.295,0,0.514,0.083,0.658,0.249c0.144,0.166,0.216,0.414,0.218,0.746v1.802h-0.302V9.853c-0.001-0.245-0.054-0.428-0.156-0.549
		c-0.102-0.12-0.265-0.18-0.491-0.18c-0.188,0-0.355,0.059-0.499,0.176s-0.252,0.276-0.321,0.476v1.881h-0.302V8.911
		C93.592,8.912,93.881,8.912,93.881,8.912z"/>
	<path class="st9" d="M96.195,10.26c0-0.427,0.095-0.766,0.285-1.019s0.449-0.38,0.776-0.38c0.371,0,0.653,0.146,0.848,0.439V7.759
		h0.302v3.899h-0.285l-0.012-0.365c-0.195,0.277-0.481,0.416-0.858,0.416c-0.317,0-0.572-0.127-0.766-0.382
		s-0.291-0.599-0.291-1.032L96.195,10.26L96.195,10.26z M96.503,10.313c0,0.351,0.071,0.627,0.211,0.829
		c0.14,0.202,0.338,0.303,0.594,0.303c0.374,0,0.639-0.165,0.796-0.495V9.66c-0.157-0.357-0.421-0.536-0.792-0.536
		c-0.255,0-0.454,0.1-0.597,0.301C96.574,9.627,96.503,9.923,96.503,10.313z"/>
	<path class="st9" d="M100.596,11.394h1.825v0.264h-2.139V7.963h0.315L100.596,11.394L100.596,11.394z"/>
	<path class="st9" d="M103.883,11.709c-0.233,0-0.445-0.058-0.633-0.173c-0.189-0.115-0.336-0.275-0.44-0.481
		c-0.105-0.206-0.157-0.436-0.157-0.691v-0.11c0-0.264,0.051-0.502,0.153-0.713s0.245-0.378,0.428-0.499
		c0.183-0.121,0.381-0.182,0.594-0.182c0.333,0,0.598,0.114,0.793,0.341s0.293,0.539,0.293,0.933v0.17h-1.96v0.059
		c0,0.311,0.09,0.57,0.268,0.778c0.179,0.207,0.403,0.311,0.674,0.311c0.163,0,0.306-0.03,0.43-0.089s0.237-0.154,0.339-0.284
		l0.19,0.144C104.631,11.548,104.307,11.709,103.883,11.709z M103.827,9.12c-0.229,0-0.421,0.084-0.577,0.251
		c-0.157,0.167-0.252,0.392-0.285,0.675h1.647v-0.033c-0.009-0.264-0.084-0.479-0.226-0.645
		C104.243,9.203,104.057,9.12,103.827,9.12z"/>
	<path class="st9" d="M107.108,11.658c-0.031-0.086-0.05-0.214-0.058-0.383c-0.107,0.138-0.242,0.245-0.407,0.321
		c-0.165,0.075-0.34,0.113-0.524,0.113c-0.264,0-0.478-0.074-0.641-0.221c-0.163-0.147-0.245-0.333-0.245-0.559
		c0-0.267,0.11-0.479,0.333-0.635s0.533-0.234,0.931-0.234h0.551V9.748c0-0.196-0.061-0.351-0.182-0.464
		c-0.12-0.112-0.297-0.169-0.53-0.169c-0.212,0-0.387,0.055-0.526,0.163s-0.208,0.239-0.208,0.391l-0.305-0.003
		c0-0.218,0.101-0.407,0.305-0.567c0.203-0.16,0.453-0.239,0.749-0.239c0.306,0,0.548,0.077,0.724,0.23
		c0.176,0.154,0.267,0.367,0.273,0.641v1.299c0,0.265,0.028,0.465,0.084,0.597v0.031C107.433,11.658,107.108,11.658,107.108,11.658z
		 M106.154,11.441c0.203,0,0.385-0.049,0.545-0.147c0.16-0.098,0.276-0.23,0.349-0.394v-0.604h-0.543
		c-0.303,0.003-0.54,0.059-0.71,0.166c-0.171,0.107-0.256,0.255-0.256,0.443c0,0.154,0.057,0.282,0.171,0.384
		C105.823,11.389,105.971,11.441,106.154,11.441z"/>
	<path class="st9" d="M109.298,9.171c-0.065-0.011-0.133-0.018-0.206-0.018c-0.19,0-0.351,0.053-0.481,0.159
		c-0.131,0.106-0.225,0.259-0.281,0.46v1.886h-0.302V8.912h0.297l0.005,0.436c0.16-0.325,0.419-0.487,0.774-0.487
		c0.084,0,0.152,0.011,0.201,0.033L109.298,9.171z"/>
	<path class="st9" d="M109.938,8.912l0.01,0.47c0.104-0.17,0.232-0.299,0.386-0.387c0.154-0.089,0.325-0.134,0.51-0.134
		c0.295,0,0.514,0.083,0.658,0.249c0.144,0.166,0.216,0.414,0.218,0.746v1.802h-0.302V9.853c-0.001-0.245-0.054-0.428-0.156-0.549
		c-0.102-0.12-0.265-0.18-0.491-0.18c-0.188,0-0.355,0.059-0.499,0.176s-0.252,0.276-0.321,0.476v1.881h-0.302V8.911
		C109.649,8.912,109.938,8.912,109.938,8.912z"/>
	<path class="st9" d="M112.356,8.119c0-0.057,0.019-0.106,0.056-0.145c0.037-0.039,0.088-0.059,0.152-0.059s0.116,0.02,0.154,0.059
		c0.038,0.039,0.057,0.088,0.057,0.145s-0.019,0.105-0.057,0.144c-0.038,0.039-0.09,0.058-0.154,0.058
		c-0.065,0-0.115-0.019-0.152-0.058C112.374,8.224,112.356,8.176,112.356,8.119z M112.714,11.658h-0.305V8.912h0.305V11.658z"/>
	<path class="st9" d="M113.698,8.912l0.01,0.47c0.104-0.17,0.232-0.299,0.386-0.387c0.154-0.089,0.325-0.134,0.51-0.134
		c0.295,0,0.514,0.083,0.658,0.249c0.144,0.166,0.216,0.414,0.218,0.746v1.802h-0.302V9.853c-0.002-0.245-0.054-0.428-0.156-0.549
		c-0.102-0.12-0.265-0.18-0.491-0.18c-0.188,0-0.355,0.059-0.499,0.176s-0.252,0.276-0.321,0.476v1.881h-0.302V8.911
		C113.409,8.912,113.698,8.912,113.698,8.912z"/>
	<path class="st9" d="M116.013,10.26c0-0.43,0.095-0.77,0.285-1.022c0.19-0.251,0.449-0.377,0.776-0.377
		c0.374,0,0.658,0.149,0.853,0.447l0.015-0.396h0.285v2.69c0,0.354-0.099,0.634-0.297,0.84s-0.466,0.309-0.804,0.309
		c-0.192,0-0.374-0.043-0.548-0.128c-0.173-0.086-0.31-0.2-0.41-0.341l0.17-0.183c0.215,0.264,0.47,0.396,0.767,0.396
		c0.253,0,0.452-0.075,0.594-0.225s0.216-0.357,0.221-0.623v-0.344c-0.195,0.271-0.478,0.406-0.85,0.406
		c-0.318,0-0.574-0.127-0.767-0.381s-0.289-0.597-0.289-1.028L116.013,10.26L116.013,10.26z M116.32,10.313
		c0,0.351,0.071,0.627,0.211,0.829c0.14,0.202,0.338,0.303,0.594,0.303c0.374,0,0.638-0.168,0.794-0.503V9.665
		c-0.071-0.176-0.174-0.311-0.307-0.402c-0.134-0.092-0.295-0.138-0.482-0.138c-0.255,0-0.454,0.1-0.597,0.301
		C116.391,9.627,116.32,9.923,116.32,10.313z"/>
</g>
</svg>
