<?xml version="1.0" encoding="utf-8"?>
<!-- Generator: Adobe Illustrator 22.0.1, SVG Export Plug-In . SVG Version: 6.00 Build 0)  -->
<svg version="1.1" id="Layer_1" xmlns="http://www.w3.org/2000/svg" xmlns:xlink="http://www.w3.org/1999/xlink" x="0px" y="0px"
	 viewBox="0 0 180 20" style="enable-background:new 0 0 180 20;" xml:space="preserve">
<style type="text/css">
	.st0{opacity:0.46;}
	.st1{opacity:0.33;fill:#5C6A75;enable-background:new    ;}
	.st2{fill:url(#SVGID_1_);}
	.st3{fill:url(#SVGID_2_);}
	.st4{fill:url(#SVGID_3_);}
	.st5{opacity:0.44;fill:#FFFFFF;enable-background:new    ;}
	.st6{fill:#50C5DD;}
	.st7{fill:#2EA8D6;}
	.st8{opacity:0.33;fill:#FFFFFF;enable-background:new    ;}
	.st9{fill:#FFFFFF;}
</style>
<g class="st0">
	<path class="st1" d="M68.882,1.032v4.08c-0.738-0.395-1.579-0.62-2.473-0.62c-2.916,0-5.28,2.385-5.28,5.327
		s2.363,5.327,5.28,5.327c0.894,0,1.736-0.225,2.473-0.62v0.62h2.807V1.032H68.882z M66.468,12.324
		c-1.333,0-2.414-1.091-2.414-2.438c0.001-1.347,1.082-2.438,2.414-2.438c1.333,0,2.414,1.091,2.414,2.438
		C68.882,11.232,67.801,12.324,66.468,12.324z"/>
	<path class="st1" d="M55.728,4.877c-0.894,0-1.736,0.225-2.473,0.62v-0.62h-2.807V18.99h2.807v-4.08
		c0.738,0.395,1.579,0.62,2.473,0.62c2.916,0,5.28-2.385,5.28-5.327C61.008,7.262,58.645,4.877,55.728,4.877z M55.671,12.573
		c-1.333,0-2.414-1.091-2.414-2.437c0-1.344,1.082-2.437,2.414-2.437c1.333,0,2.414,1.091,2.414,2.437S57.004,12.573,55.671,12.573z
		"/>
	<path class="st1" d="M49.691,6.791c-0.002-0.006-0.006-0.012-0.008-0.018C49.657,6.71,49.627,6.649,49.6,6.587
		c-0.062-0.14-0.127-0.278-0.197-0.415c-0.04-0.076-0.08-0.15-0.122-0.226c-0.07-0.124-0.144-0.248-0.219-0.367
		c-0.042-0.066-0.081-0.131-0.124-0.196c-0.118-0.173-0.24-0.341-0.371-0.504c-0.035-0.044-0.073-0.085-0.11-0.127
		c-0.104-0.124-0.211-0.245-0.323-0.362c-0.055-0.058-0.111-0.113-0.167-0.168c-0.105-0.103-0.214-0.204-0.325-0.3
		c-0.055-0.047-0.109-0.096-0.164-0.142c-0.163-0.135-0.331-0.265-0.505-0.384c-0.031-0.021-0.064-0.04-0.095-0.061
		c-0.149-0.1-0.303-0.196-0.46-0.284c-0.062-0.035-0.127-0.069-0.19-0.103c-0.138-0.073-0.277-0.141-0.421-0.206
		c-0.062-0.028-0.122-0.058-0.185-0.083c-0.201-0.085-0.406-0.163-0.615-0.228c-0.018-0.006-0.036-0.009-0.054-0.015
		c-0.194-0.06-0.394-0.111-0.594-0.156c-0.067-0.015-0.135-0.027-0.201-0.04c-0.162-0.031-0.326-0.057-0.492-0.076
		c-0.068-0.008-0.135-0.017-0.204-0.024c-0.227-0.021-0.457-0.036-0.69-0.036c-0.235,0-0.468,0.015-0.698,0.036
		c-0.072,0.007-0.142,0.018-0.211,0.026c-0.161,0.019-0.32,0.043-0.477,0.072c-0.076,0.015-0.152,0.029-0.226,0.046
		c-0.162,0.037-0.321,0.079-0.477,0.126c-0.06,0.018-0.121,0.033-0.181,0.053c-0.211,0.068-0.42,0.145-0.622,0.231
		c-0.04,0.017-0.078,0.037-0.116,0.054C39.6,2.801,39.441,2.88,39.283,2.964C39.215,3,39.15,3.04,39.084,3.077
		c-0.128,0.073-0.253,0.15-0.377,0.232c-0.067,0.044-0.132,0.088-0.198,0.133c-0.13,0.093-0.256,0.189-0.379,0.288
		c-0.047,0.04-0.098,0.076-0.146,0.116c-0.162,0.137-0.318,0.282-0.467,0.432c-0.053,0.052-0.101,0.107-0.152,0.162
		c-0.1,0.105-0.197,0.214-0.289,0.323c-0.058,0.07-0.113,0.14-0.17,0.213c-0.081,0.104-0.159,0.213-0.235,0.321
		c-0.052,0.073-0.104,0.147-0.154,0.224c-0.084,0.129-0.162,0.263-0.237,0.398c-0.042,0.072-0.084,0.145-0.123,0.219
		c-0.088,0.17-0.171,0.345-0.247,0.522c-0.036,0.084-0.068,0.171-0.101,0.257c-0.031,0.079-0.064,0.156-0.093,0.236
		c0.002,0.001,0.003,0.002,0.006,0.003c-0.277,0.795-0.435,1.646-0.435,2.539c0,4.205,3.352,7.615,7.484,7.615
		s7.484-3.408,7.484-7.615C50.257,8.668,50.054,7.687,49.691,6.791C49.69,6.793,49.691,6.793,49.691,6.791z"/>
</g>
<g>
	
		<linearGradient id="SVGID_1_" gradientUnits="userSpaceOnUse" x1="42.651" y1="-782.0373" x2="42.651" y2="-797.2673" gradientTransform="matrix(1 0 0 -1 0 -780.1943)">
		<stop  offset="0" style="stop-color:#FFFFFF"/>
		<stop  offset="0.3126" style="stop-color:#E2E1E0"/>
		<stop  offset="0.4767" style="stop-color:#E0E0DF"/>
		<stop  offset="0.7198" style="stop-color:#C8C8C8"/>
	</linearGradient>
	<path class="st2" d="M41.023,5.347c0.547,0,5.976,3.137,5.976,4.13c0,0.992-5.282,4.13-5.976,4.13
		C40.33,13.608,40.477,5.347,41.023,5.347z M42.652,1.843c4.134,0,7.484,3.41,7.484,7.615s-3.352,7.615-7.484,7.615
		s-7.486-3.41-7.486-7.616S38.518,1.843,42.652,1.843z"/>
	
		<linearGradient id="SVGID_2_" gradientUnits="userSpaceOnUse" x1="66.29" y1="-646.9863" x2="66.29" y2="-673.4047" gradientTransform="matrix(1 0 0 -1 0 -646.1943)">
		<stop  offset="0" style="stop-color:#FFFFFF"/>
		<stop  offset="0.1656" style="stop-color:#EAEAEA"/>
		<stop  offset="0.6628" style="stop-color:#B6B8B8"/>
	</linearGradient>
	<path class="st3" d="M66.347,7.208c1.333,0,2.414,1.091,2.414,2.438s-1.081,2.438-2.414,2.438s-2.414-1.091-2.414-2.438
		C63.934,8.299,65.015,7.208,66.347,7.208z M68.763,0.792v4.08c-0.738-0.395-1.579-0.62-2.473-0.62c-2.916,0-5.28,2.385-5.28,5.327
		s2.363,5.327,5.28,5.327c0.894,0,1.735-0.225,2.473-0.62v0.62h2.807V0.792H68.763z"/>
	
		<linearGradient id="SVGID_3_" gradientUnits="userSpaceOnUse" x1="55.609" y1="-650.8313" x2="55.609" y2="-674.1267" gradientTransform="matrix(1 0 0 -1 0 -646.1943)">
		<stop  offset="0" style="stop-color:#FFFFFF"/>
		<stop  offset="0.2611" style="stop-color:#D4D5D5"/>
		<stop  offset="0.6575" style="stop-color:#B9BBBB"/>
		<stop  offset="0.8092" style="stop-color:#B6B8B8"/>
	</linearGradient>
	<path class="st4" d="M55.55,7.46c1.333,0,2.414,1.091,2.414,2.437s-1.081,2.437-2.414,2.437s-2.414-1.091-2.414-2.437
		S54.218,7.46,55.55,7.46z M55.609,4.637c-0.894,0-1.736,0.225-2.473,0.62v-0.62h-2.807v14.114h2.807v-4.08
		c0.738,0.395,1.579,0.62,2.473,0.62c2.916,0,5.28-2.385,5.28-5.327S58.525,4.637,55.609,4.637z"/>
	<path class="st5" d="M42.652,1.843c-3.258,0-6.027,2.118-7.056,5.073c1.292,0.934,3.021,1.597,4.974,1.852
		c0.049-1.804,0.211-3.421,0.452-3.421c0.405,0,3.479,1.718,5.053,3.011c1.378-0.407,2.577-1.031,3.494-1.807
		C48.449,3.788,45.774,1.843,42.652,1.843z"/>
	<path class="st6" d="M41.023,5.347c0.547,0,5.976,3.137,5.976,4.13c0,0.992-5.282,4.13-5.976,4.13
		C40.33,13.608,40.477,5.347,41.023,5.347z"/>
	<g>
		<path class="st7" d="M41.023,5.347c-0.069,0-0.132,0.133-0.188,0.367c0.695,0.102,5.941,3.148,5.941,4.125
			c0,0.037-0.01,0.078-0.024,0.122C46.91,9.772,47,9.606,47,9.478C46.999,8.484,41.569,5.347,41.023,5.347z"/>
	</g>
	<path class="st8" d="M40.571,8.768c0.577,0.076,1.171,0.115,1.781,0.115c1.328,0,2.587-0.188,3.725-0.524
		c-1.574-1.295-4.649-3.01-5.053-3.01C40.782,5.347,40.619,6.966,40.571,8.768z"/>
</g>
<g>
	<path class="st9" d="M76.291,5.515c0,0.334-0.059,0.625-0.176,0.876c-0.118,0.251-0.286,0.444-0.505,0.581
		c-0.219,0.136-0.47,0.205-0.754,0.205c-0.28,0-0.53-0.067-0.75-0.201c-0.219-0.135-0.39-0.327-0.511-0.578
		c-0.121-0.25-0.182-0.538-0.183-0.863v-0.17c0-0.332,0.06-0.625,0.181-0.88c0.12-0.253,0.289-0.448,0.509-0.583
		c0.219-0.136,0.47-0.204,0.752-0.204s0.533,0.068,0.752,0.204s0.389,0.33,0.509,0.583s0.18,0.545,0.18,0.877L76.291,5.515
		L76.291,5.515z M75.584,5.361c0-0.355-0.063-0.624-0.19-0.808s-0.309-0.276-0.544-0.276c-0.234,0-0.414,0.09-0.54,0.273
		c-0.127,0.182-0.191,0.449-0.192,0.801v0.165c0,0.345,0.063,0.614,0.19,0.804s0.31,0.286,0.548,0.286
		c0.234,0,0.414-0.092,0.538-0.275c0.126-0.183,0.189-0.451,0.19-0.803C75.584,5.527,75.584,5.361,75.584,5.361z"/>
	<path class="st9" d="M77.252,4.616l0.021,0.291c0.18-0.225,0.421-0.337,0.723-0.337c0.267,0,0.465,0.078,0.595,0.235
		c0.13,0.156,0.197,0.39,0.199,0.702v1.624h-0.67V5.518c0-0.142-0.031-0.247-0.093-0.311c-0.062-0.064-0.165-0.097-0.309-0.097
		c-0.189,0-0.331,0.08-0.425,0.242v1.776h-0.671V4.616H77.252z"/>
	<path class="st9" d="M79.889,7.129h-0.674V3.561h0.674V7.129z"/>
	<path class="st9" d="M80.318,3.965c0-0.101,0.034-0.183,0.101-0.249c0.067-0.064,0.158-0.097,0.275-0.097
		c0.115,0,0.206,0.033,0.274,0.097c0.069,0.066,0.102,0.148,0.102,0.249c0,0.102-0.035,0.185-0.103,0.251
		c-0.068,0.066-0.158,0.097-0.271,0.097c-0.113,0-0.204-0.033-0.273-0.097S80.318,4.067,80.318,3.965z M81.032,7.129h-0.674V4.616
		h0.674V7.129z"/>
	<path class="st9" d="M82.084,4.616l0.021,0.291c0.18-0.225,0.421-0.337,0.723-0.337c0.266,0,0.465,0.078,0.595,0.235
		c0.13,0.156,0.197,0.39,0.199,0.702v1.624h-0.671V5.518c0-0.142-0.031-0.247-0.093-0.311C82.796,5.143,82.694,5.11,82.55,5.11
		c-0.189,0-0.331,0.08-0.425,0.242v1.776h-0.673V4.616H82.084z"/>
	<path class="st9" d="M85.168,7.176c-0.369,0-0.668-0.113-0.9-0.339C84.036,6.61,83.92,6.31,83.92,5.932V5.868
		c0-0.253,0.049-0.478,0.147-0.677c0.097-0.199,0.235-0.352,0.415-0.46c0.179-0.107,0.383-0.162,0.613-0.162
		c0.344,0,0.615,0.109,0.812,0.326c0.198,0.217,0.296,0.525,0.296,0.923V6.09h-1.601c0.021,0.164,0.087,0.295,0.197,0.395
		c0.109,0.1,0.248,0.149,0.415,0.149c0.259,0,0.46-0.093,0.606-0.282l0.33,0.37c-0.101,0.142-0.237,0.253-0.409,0.334
		C85.568,7.136,85.377,7.176,85.168,7.176z M85.091,5.11c-0.133,0-0.241,0.045-0.325,0.136c-0.083,0.09-0.136,0.219-0.159,0.388
		h0.934V5.579c-0.003-0.149-0.043-0.265-0.121-0.347C85.344,5.152,85.234,5.11,85.091,5.11z"/>
	<path class="st9" d="M88.27,5.938V7.13h-0.698V3.747h1.32c0.253,0,0.477,0.046,0.671,0.139c0.192,0.093,0.341,0.225,0.446,0.397
		c0.104,0.172,0.156,0.365,0.156,0.585c0,0.331-0.113,0.593-0.34,0.784s-0.541,0.286-0.942,0.286
		C88.882,5.938,88.27,5.938,88.27,5.938z M88.27,5.373h0.623c0.184,0,0.325-0.044,0.422-0.13c0.097-0.087,0.145-0.21,0.145-0.372
		c0-0.165-0.049-0.3-0.147-0.401c-0.097-0.102-0.233-0.155-0.404-0.158H88.27V5.373z"/>
	<path class="st9" d="M91.892,5.245C91.8,5.233,91.719,5.226,91.65,5.226c-0.254,0-0.421,0.086-0.5,0.258v1.644h-0.67V4.616h0.634
		l0.019,0.3c0.135-0.231,0.321-0.346,0.56-0.346c0.075,0,0.145,0.01,0.209,0.031L91.892,5.245z"/>
	<path class="st9" d="M91.908,5.848c0-0.249,0.049-0.472,0.144-0.666c0.096-0.196,0.234-0.346,0.415-0.452s0.39-0.161,0.628-0.161
		c0.339,0,0.616,0.104,0.83,0.311c0.215,0.208,0.334,0.49,0.358,0.846l0.005,0.172c0,0.386-0.107,0.695-0.322,0.928
		S93.462,7.175,93.1,7.175s-0.651-0.115-0.868-0.348c-0.216-0.233-0.325-0.548-0.325-0.948L91.908,5.848L91.908,5.848z M92.58,5.897
		c0,0.239,0.044,0.422,0.135,0.547c0.09,0.127,0.218,0.19,0.386,0.19c0.163,0,0.289-0.062,0.381-0.188
		c0.092-0.126,0.137-0.325,0.137-0.599c0-0.234-0.046-0.416-0.137-0.545c-0.09-0.129-0.219-0.193-0.386-0.193
		c-0.164,0-0.291,0.064-0.381,0.192C92.624,5.43,92.58,5.628,92.58,5.897z"/>
	<path class="st9" d="M94.767,7.129V5.108h-0.374V4.616h0.374V4.401c0-0.282,0.081-0.501,0.243-0.657
		c0.162-0.156,0.388-0.233,0.68-0.233c0.093,0,0.207,0.015,0.341,0.046l-0.007,0.516c-0.055-0.014-0.124-0.02-0.205-0.02
		c-0.253,0-0.379,0.12-0.379,0.358v0.204h0.5v0.492h-0.5v2.022L94.767,7.129L94.767,7.129z"/>
	<path class="st9" d="M97.271,7.176c-0.369,0-0.668-0.113-0.9-0.339c-0.232-0.226-0.347-0.527-0.347-0.905V5.868
		c0-0.253,0.049-0.478,0.147-0.677c0.097-0.199,0.235-0.352,0.415-0.46c0.179-0.107,0.383-0.162,0.613-0.162
		c0.344,0,0.615,0.109,0.812,0.326c0.198,0.217,0.296,0.525,0.296,0.923V6.09h-1.601c0.021,0.164,0.087,0.295,0.197,0.395
		c0.109,0.1,0.248,0.149,0.415,0.149c0.259,0,0.46-0.093,0.606-0.282l0.33,0.37c-0.101,0.142-0.237,0.253-0.409,0.334
		C97.67,7.136,97.479,7.176,97.271,7.176z M97.194,5.11c-0.133,0-0.241,0.045-0.325,0.136c-0.083,0.09-0.136,0.219-0.159,0.388
		h0.934V5.579c-0.003-0.149-0.043-0.265-0.121-0.347C97.447,5.152,97.337,5.11,97.194,5.11z"/>
	<path class="st9" d="M99.929,6.435c0-0.083-0.041-0.147-0.122-0.194s-0.213-0.089-0.392-0.127
		c-0.598-0.124-0.897-0.379-0.897-0.762c0-0.224,0.093-0.409,0.277-0.559c0.185-0.149,0.427-0.224,0.726-0.224
		c0.319,0,0.574,0.076,0.766,0.226c0.191,0.15,0.287,0.345,0.287,0.586h-0.671c0-0.096-0.031-0.175-0.093-0.239
		c-0.063-0.066-0.159-0.096-0.291-0.096c-0.113,0-0.201,0.026-0.262,0.077c-0.061,0.051-0.093,0.116-0.093,0.196
		c0,0.075,0.035,0.133,0.106,0.18c0.071,0.046,0.19,0.085,0.356,0.119c0.167,0.033,0.308,0.071,0.423,0.113
		c0.355,0.13,0.531,0.355,0.531,0.676c0,0.23-0.098,0.415-0.295,0.556c-0.197,0.141-0.45,0.213-0.762,0.213
		c-0.21,0-0.398-0.037-0.561-0.113c-0.163-0.075-0.291-0.179-0.384-0.309c-0.093-0.131-0.139-0.273-0.139-0.424h0.637
		c0.006,0.12,0.051,0.21,0.132,0.274c0.081,0.063,0.192,0.095,0.33,0.095c0.129,0,0.226-0.024,0.292-0.073
		C99.895,6.578,99.929,6.513,99.929,6.435z"/>
	<path class="st9" d="M102.256,6.435c0-0.083-0.041-0.147-0.122-0.194s-0.213-0.089-0.392-0.127
		c-0.598-0.124-0.897-0.379-0.897-0.762c0-0.224,0.093-0.409,0.277-0.559c0.185-0.149,0.427-0.224,0.726-0.224
		c0.319,0,0.574,0.076,0.766,0.226c0.192,0.15,0.286,0.345,0.286,0.586h-0.671c0-0.096-0.031-0.175-0.093-0.239
		c-0.062-0.066-0.158-0.096-0.291-0.096c-0.113,0-0.201,0.026-0.262,0.077c-0.062,0.051-0.093,0.117-0.093,0.196
		c0,0.075,0.035,0.133,0.106,0.18c0.071,0.046,0.19,0.085,0.356,0.119c0.167,0.033,0.308,0.071,0.423,0.113
		c0.354,0.13,0.533,0.355,0.533,0.676c0,0.23-0.098,0.415-0.295,0.556s-0.45,0.213-0.762,0.213c-0.21,0-0.398-0.037-0.561-0.113
		c-0.163-0.075-0.291-0.179-0.384-0.309c-0.094-0.131-0.14-0.273-0.14-0.424h0.637c0.006,0.12,0.051,0.21,0.132,0.274
		c0.081,0.063,0.192,0.095,0.33,0.095c0.129,0,0.226-0.024,0.292-0.073C102.223,6.578,102.256,6.513,102.256,6.435z"/>
	<path class="st9" d="M103.217,3.965c0-0.101,0.033-0.183,0.101-0.249c0.068-0.064,0.158-0.097,0.275-0.097
		c0.114,0,0.206,0.033,0.274,0.097c0.069,0.066,0.102,0.148,0.102,0.249c0,0.102-0.035,0.185-0.103,0.251
		c-0.069,0.066-0.161,0.097-0.273,0.097c-0.113,0-0.204-0.033-0.273-0.097C103.252,4.151,103.217,4.067,103.217,3.965z
		 M103.93,7.129h-0.673V4.616h0.673V7.129z"/>
	<path class="st9" d="M104.259,5.848c0-0.249,0.049-0.472,0.144-0.666c0.095-0.196,0.234-0.346,0.415-0.452s0.39-0.161,0.628-0.161
		c0.339,0,0.616,0.104,0.83,0.311c0.215,0.208,0.334,0.49,0.36,0.846l0.005,0.172c0,0.386-0.107,0.695-0.322,0.928
		s-0.504,0.349-0.866,0.349c-0.363,0-0.651-0.115-0.867-0.348c-0.216-0.233-0.325-0.548-0.325-0.948
		C104.259,5.88,104.259,5.848,104.259,5.848z M104.931,5.897c0,0.239,0.045,0.422,0.136,0.547c0.089,0.127,0.218,0.19,0.386,0.19
		c0.163,0,0.288-0.062,0.381-0.188c0.09-0.124,0.137-0.325,0.137-0.599c0-0.234-0.046-0.416-0.137-0.545
		c-0.09-0.129-0.219-0.193-0.386-0.193c-0.164,0-0.291,0.064-0.381,0.192C104.976,5.43,104.931,5.628,104.931,5.897z"/>
	<path class="st9" d="M107.553,4.616l0.021,0.291c0.18-0.225,0.42-0.337,0.723-0.337c0.266,0,0.464,0.078,0.595,0.235
		c0.13,0.156,0.197,0.39,0.199,0.702v1.624h-0.672V5.518c0-0.142-0.031-0.247-0.093-0.311c-0.062-0.064-0.165-0.097-0.309-0.097
		c-0.189,0-0.33,0.08-0.425,0.242v1.776h-0.671V4.616H107.553z"/>
	<path class="st9" d="M110.938,7.129c-0.032-0.06-0.053-0.136-0.068-0.226c-0.163,0.181-0.374,0.271-0.634,0.271
		c-0.247,0-0.45-0.071-0.613-0.214c-0.162-0.142-0.243-0.322-0.243-0.538c0-0.266,0.098-0.47,0.296-0.614
		c0.197-0.142,0.483-0.215,0.856-0.216h0.309V5.449c0-0.116-0.031-0.209-0.089-0.279c-0.06-0.07-0.154-0.104-0.282-0.104
		c-0.113,0-0.201,0.027-0.266,0.081c-0.064,0.054-0.096,0.129-0.096,0.223h-0.672c0-0.145,0.045-0.279,0.136-0.404
		c0.089-0.124,0.217-0.222,0.381-0.292c0.165-0.071,0.349-0.106,0.554-0.106c0.309,0,0.555,0.078,0.737,0.233
		c0.182,0.156,0.273,0.374,0.273,0.657v1.089c0.001,0.239,0.035,0.42,0.1,0.542v0.038h-0.678
		C110.938,7.127,110.938,7.129,110.938,7.129z M110.382,6.661c0.098,0,0.19-0.021,0.274-0.067c0.084-0.044,0.145-0.104,0.185-0.178
		V5.985h-0.251c-0.336,0-0.516,0.115-0.536,0.349l-0.002,0.04c0,0.084,0.029,0.153,0.088,0.207
		C110.199,6.635,110.281,6.661,110.382,6.661z"/>
	<path class="st9" d="M112.621,7.129h-0.673V3.561h0.673V7.129z"/>
	<path class="st9" d="M114.165,7.129V3.747h1.041c0.297,0,0.563,0.067,0.798,0.201c0.235,0.135,0.417,0.325,0.55,0.572
		c0.131,0.247,0.197,0.528,0.197,0.842v0.156c0,0.314-0.064,0.595-0.194,0.839c-0.129,0.244-0.311,0.435-0.547,0.57
		c-0.235,0.135-0.501,0.204-0.796,0.205h-1.048V7.129H114.165z M114.862,4.312V6.57h0.337c0.273,0,0.481-0.088,0.624-0.267
		c0.144-0.179,0.218-0.433,0.222-0.764v-0.18c0-0.344-0.071-0.604-0.215-0.781c-0.142-0.176-0.351-0.266-0.624-0.266L114.862,4.312
		L114.862,4.312z"/>
	<path class="st9" d="M118.251,7.176c-0.369,0-0.668-0.113-0.9-0.339c-0.232-0.226-0.347-0.527-0.347-0.905V5.868
		c0-0.253,0.049-0.478,0.147-0.677c0.097-0.199,0.236-0.352,0.415-0.46c0.179-0.107,0.383-0.162,0.613-0.162
		c0.345,0,0.615,0.109,0.812,0.326c0.198,0.217,0.296,0.525,0.296,0.923V6.09h-1.601c0.021,0.164,0.087,0.295,0.196,0.395
		c0.11,0.1,0.248,0.149,0.415,0.149c0.259,0,0.46-0.093,0.606-0.282l0.33,0.37c-0.101,0.142-0.237,0.253-0.408,0.334
		C118.651,7.136,118.461,7.176,118.251,7.176z M118.176,5.11c-0.133,0-0.242,0.045-0.325,0.136c-0.083,0.09-0.136,0.219-0.158,0.388
		h0.934V5.579c-0.003-0.149-0.044-0.265-0.121-0.347C118.428,5.152,118.317,5.11,118.176,5.11z"/>
	<path class="st9" d="M120.459,6.309l0.467-1.693h0.702L120.78,7.13h-0.641l-0.848-2.514h0.702L120.459,6.309z"/>
	<path class="st9" d="M122.929,7.176c-0.369,0-0.668-0.113-0.9-0.339c-0.232-0.226-0.347-0.527-0.347-0.905V5.868
		c0-0.253,0.049-0.478,0.147-0.677c0.097-0.199,0.236-0.352,0.415-0.46c0.179-0.107,0.383-0.162,0.613-0.162
		c0.345,0,0.615,0.109,0.812,0.326c0.198,0.217,0.296,0.525,0.296,0.923V6.09h-1.602c0.021,0.164,0.087,0.295,0.196,0.395
		c0.11,0.1,0.248,0.149,0.415,0.149c0.259,0,0.46-0.093,0.606-0.282l0.33,0.37c-0.101,0.142-0.237,0.253-0.408,0.334
		C123.328,7.136,123.139,7.176,122.929,7.176z M122.852,5.11c-0.133,0-0.242,0.045-0.325,0.136c-0.083,0.09-0.136,0.219-0.158,0.388
		h0.934V5.579c-0.003-0.149-0.044-0.265-0.121-0.347C123.106,5.152,122.995,5.11,122.852,5.11z"/>
	<path class="st9" d="M124.933,7.129h-0.673V3.561h0.673V7.129z"/>
	<path class="st9" d="M125.263,5.848c0-0.249,0.049-0.472,0.144-0.666c0.095-0.196,0.234-0.346,0.415-0.452s0.39-0.161,0.628-0.161
		c0.339,0,0.616,0.104,0.83,0.311c0.215,0.208,0.334,0.49,0.36,0.846l0.005,0.172c0,0.386-0.107,0.695-0.322,0.928
		s-0.504,0.349-0.866,0.349c-0.363,0-0.651-0.115-0.867-0.348c-0.216-0.233-0.325-0.548-0.325-0.948V5.848H125.263z M125.934,5.897
		c0,0.239,0.045,0.422,0.136,0.547c0.089,0.127,0.218,0.19,0.386,0.19c0.163,0,0.288-0.062,0.381-0.188
		c0.09-0.124,0.137-0.325,0.137-0.599c0-0.234-0.046-0.416-0.137-0.545s-0.219-0.193-0.386-0.193c-0.164,0-0.291,0.064-0.381,0.192
		C125.979,5.43,125.934,5.628,125.934,5.897z"/>
	<path class="st9" d="M130.202,5.896c0,0.388-0.088,0.698-0.265,0.931c-0.175,0.233-0.413,0.349-0.711,0.349
		c-0.254,0-0.459-0.088-0.616-0.265v1.185h-0.671v-3.48h0.623l0.024,0.247c0.163-0.196,0.374-0.293,0.637-0.293
		c0.309,0,0.55,0.115,0.723,0.344c0.172,0.23,0.258,0.545,0.258,0.948C130.202,5.861,130.202,5.896,130.202,5.896z M129.531,5.844
		c0-0.235-0.042-0.416-0.124-0.543c-0.084-0.127-0.204-0.191-0.362-0.191c-0.21,0-0.355,0.08-0.435,0.242v1.032
		c0.083,0.166,0.228,0.25,0.44,0.25C129.37,6.634,129.531,6.371,129.531,5.844z"/>
	<path class="st9" d="M131.128,4.616l0.02,0.282c0.179-0.218,0.42-0.328,0.723-0.328c0.323,0,0.546,0.128,0.666,0.383
		c0.176-0.256,0.429-0.383,0.755-0.383c0.273,0,0.475,0.08,0.608,0.239c0.133,0.158,0.199,0.397,0.199,0.717v1.606h-0.673V5.523
		c0-0.142-0.028-0.248-0.085-0.313c-0.057-0.066-0.154-0.098-0.295-0.098c-0.201,0-0.34,0.096-0.418,0.288l0.002,1.73h-0.672V5.524
		c0-0.146-0.028-0.251-0.086-0.317s-0.155-0.097-0.293-0.097c-0.19,0-0.328,0.079-0.414,0.237v1.781h-0.671V4.616H131.128z"/>
	<path class="st9" d="M135.655,7.176c-0.369,0-0.668-0.113-0.9-0.339s-0.347-0.527-0.347-0.905V5.868
		c0-0.253,0.049-0.478,0.147-0.677c0.097-0.199,0.236-0.352,0.415-0.46c0.179-0.107,0.383-0.162,0.613-0.162
		c0.345,0,0.615,0.109,0.812,0.326c0.198,0.217,0.296,0.525,0.296,0.923V6.09h-1.601c0.021,0.164,0.087,0.295,0.196,0.395
		c0.11,0.1,0.248,0.149,0.415,0.149c0.259,0,0.46-0.093,0.606-0.282l0.33,0.37c-0.101,0.142-0.237,0.253-0.408,0.334
		C136.054,7.136,135.864,7.176,135.655,7.176z M135.579,5.11c-0.133,0-0.242,0.045-0.325,0.136c-0.083,0.09-0.136,0.219-0.158,0.388
		h0.934V5.579c-0.003-0.149-0.044-0.265-0.121-0.347C135.831,5.152,135.722,5.11,135.579,5.11z"/>
	<path class="st9" d="M137.569,4.616l0.021,0.291c0.18-0.225,0.42-0.337,0.723-0.337c0.267,0,0.464,0.078,0.595,0.235
		c0.13,0.156,0.197,0.39,0.199,0.702v1.624h-0.672V5.518c0-0.142-0.031-0.247-0.093-0.311c-0.062-0.064-0.165-0.097-0.309-0.097
		c-0.189,0-0.33,0.08-0.425,0.242v1.776h-0.671V4.616H137.569z"/>
	<path class="st9" d="M140.301,3.997v0.617h0.431v0.492h-0.431v1.255c0,0.093,0.017,0.159,0.053,0.199
		c0.035,0.041,0.104,0.06,0.205,0.06c0.075,0,0.14-0.006,0.197-0.017v0.509c-0.131,0.041-0.266,0.06-0.406,0.06
		c-0.47,0-0.711-0.237-0.72-0.714v-1.35h-0.367V4.616h0.367V3.997H140.301z"/>
</g>
<g>
	<path class="st9" d="M76.628,10.161h-1.433v3.881h-0.353v-3.881h-1.429V9.864h3.215V10.161z"/>
	<path class="st9" d="M77.416,11.461c0.113-0.185,0.258-0.329,0.433-0.431c0.176-0.102,0.369-0.152,0.577-0.152
		c0.334,0,0.581,0.094,0.743,0.282c0.163,0.188,0.245,0.468,0.246,0.844v2.038h-0.341v-2.041c-0.002-0.277-0.061-0.484-0.176-0.621
		c-0.115-0.136-0.301-0.204-0.556-0.204c-0.213,0-0.4,0.067-0.564,0.199s-0.284,0.312-0.363,0.538v2.127h-0.341V9.632h0.341v1.828
		h0.002L77.416,11.461L77.416,11.461z"/>
	<path class="st9" d="M81.357,14.099c-0.265,0-0.502-0.066-0.716-0.196c-0.214-0.13-0.379-0.311-0.498-0.544
		s-0.179-0.493-0.179-0.781v-0.124c0-0.299,0.058-0.568,0.174-0.806c0.115-0.24,0.277-0.427,0.484-0.564s0.431-0.206,0.672-0.206
		c0.377,0,0.676,0.129,0.897,0.386c0.22,0.258,0.331,0.609,0.331,1.055v0.192h-2.215v0.067c0,0.352,0.101,0.645,0.302,0.88
		c0.201,0.234,0.456,0.352,0.762,0.352c0.183,0,0.346-0.034,0.486-0.101c0.14-0.067,0.268-0.174,0.383-0.321l0.215,0.163
		C82.204,13.917,81.838,14.099,81.357,14.099z M81.294,11.172c-0.258,0-0.476,0.095-0.652,0.284s-0.284,0.443-0.322,0.763h1.862
		v-0.037c-0.01-0.299-0.095-0.542-0.256-0.729C81.765,11.266,81.554,11.172,81.294,11.172z"/>
	<path class="st9" d="M86.709,12.088H84.76v1.955h-0.353V9.864h2.589v0.299H84.76v1.628h1.949V12.088L86.709,12.088z"/>
	<path class="st9" d="M89.42,13.649c-0.207,0.3-0.537,0.45-0.989,0.45c-0.331,0-0.582-0.096-0.754-0.288s-0.26-0.477-0.265-0.854
		v-2.021h0.341v1.978c0,0.591,0.24,0.887,0.718,0.887c0.498,0,0.812-0.206,0.944-0.617v-2.246h0.345v3.105h-0.332L89.42,13.649z"/>
	<path class="st9" d="M92.365,13.253c0-0.17-0.069-0.308-0.206-0.41c-0.137-0.103-0.343-0.184-0.619-0.242
		c-0.275-0.058-0.488-0.124-0.641-0.201c-0.152-0.076-0.265-0.167-0.339-0.277c-0.073-0.109-0.111-0.241-0.111-0.396
		c0-0.245,0.102-0.448,0.308-0.607c0.205-0.159,0.466-0.24,0.786-0.24c0.347,0,0.624,0.086,0.833,0.257
		c0.21,0.172,0.314,0.395,0.314,0.671h-0.344c0-0.181-0.076-0.334-0.228-0.452c-0.152-0.121-0.344-0.181-0.576-0.181
		c-0.226,0-0.407,0.051-0.544,0.15c-0.137,0.101-0.206,0.232-0.206,0.392c0,0.155,0.058,0.275,0.171,0.361s0.322,0.163,0.623,0.233
		c0.301,0.071,0.527,0.147,0.677,0.227s0.262,0.176,0.334,0.289c0.074,0.113,0.109,0.25,0.109,0.41c0,0.262-0.106,0.472-0.318,0.628
		c-0.211,0.156-0.487,0.235-0.828,0.235c-0.362,0-0.655-0.088-0.88-0.263s-0.338-0.397-0.338-0.664h0.345
		c0.012,0.201,0.097,0.357,0.253,0.468c0.156,0.112,0.362,0.168,0.62,0.168c0.24,0,0.433-0.053,0.58-0.158
		C92.291,13.547,92.365,13.414,92.365,13.253z"/>
	<path class="st9" d="M93.315,10.04c0-0.064,0.021-0.12,0.063-0.164s0.1-0.067,0.172-0.067c0.073,0,0.131,0.023,0.174,0.067
		s0.064,0.1,0.064,0.164c0,0.064-0.021,0.119-0.064,0.163s-0.101,0.066-0.174,0.066c-0.074,0-0.13-0.021-0.172-0.066
		C93.336,10.159,93.315,10.105,93.315,10.04z M93.72,14.042h-0.345v-3.105h0.345V14.042z"/>
	<path class="st9" d="M94.315,12.444c0-0.299,0.058-0.568,0.174-0.806c0.115-0.24,0.279-0.426,0.491-0.559
		c0.211-0.133,0.451-0.199,0.719-0.199c0.413,0,0.747,0.145,1.004,0.435c0.257,0.289,0.384,0.674,0.384,1.152v0.071
		c0,0.3-0.058,0.571-0.174,0.811c-0.115,0.24-0.279,0.425-0.488,0.555c-0.21,0.13-0.45,0.196-0.72,0.196
		c-0.412,0-0.746-0.145-1.003-0.435c-0.258-0.289-0.386-0.674-0.386-1.152L94.315,12.444L94.315,12.444z M94.66,12.538
		c0,0.371,0.096,0.676,0.288,0.915c0.192,0.237,0.444,0.357,0.756,0.357c0.31,0,0.561-0.12,0.753-0.357
		c0.192-0.239,0.288-0.553,0.288-0.943v-0.067c0-0.237-0.044-0.455-0.132-0.651c-0.088-0.197-0.211-0.349-0.37-0.457
		c-0.158-0.109-0.34-0.163-0.545-0.163c-0.306,0-0.556,0.12-0.75,0.36c-0.193,0.241-0.289,0.554-0.289,0.943
		C94.66,12.475,94.66,12.538,94.66,12.538z"/>
	<path class="st9" d="M97.978,10.937l0.011,0.531c0.116-0.192,0.262-0.338,0.436-0.438c0.174-0.101,0.366-0.152,0.577-0.152
		c0.334,0,0.581,0.094,0.743,0.282c0.163,0.188,0.245,0.468,0.247,0.844v2.038H99.65v-2.041c-0.002-0.277-0.061-0.484-0.176-0.621
		c-0.115-0.136-0.301-0.204-0.556-0.204c-0.213,0-0.4,0.067-0.564,0.199s-0.284,0.312-0.363,0.538v2.127H97.65v-3.105
		C97.649,10.937,97.978,10.937,97.978,10.937z"/>
	<path class="st9" d="M101.825,12.444c0-0.299,0.058-0.568,0.174-0.806c0.115-0.24,0.279-0.426,0.491-0.559
		c0.211-0.133,0.451-0.199,0.719-0.199c0.413,0,0.747,0.145,1.005,0.435c0.256,0.289,0.384,0.674,0.384,1.152v0.071
		c0,0.3-0.058,0.571-0.173,0.811s-0.279,0.425-0.49,0.555c-0.21,0.13-0.45,0.196-0.72,0.196c-0.412,0-0.746-0.145-1.003-0.435
		c-0.258-0.289-0.386-0.674-0.386-1.152v-0.069H101.825z M102.17,12.538c0,0.371,0.096,0.676,0.288,0.915
		c0.192,0.237,0.444,0.357,0.756,0.357c0.31,0,0.561-0.12,0.754-0.357c0.192-0.239,0.288-0.553,0.288-0.943v-0.067
		c0-0.237-0.044-0.455-0.132-0.651c-0.088-0.197-0.21-0.349-0.37-0.457c-0.159-0.109-0.34-0.163-0.545-0.163
		c-0.306,0-0.556,0.12-0.75,0.36c-0.193,0.241-0.289,0.554-0.289,0.943L102.17,12.538C102.171,12.538,102.17,12.538,102.17,12.538z"
		/>
	<path class="st9" d="M105.407,14.042v-2.825h-0.513v-0.282h0.513v-0.377c0-0.318,0.08-0.561,0.242-0.732
		c0.162-0.171,0.387-0.256,0.676-0.256c0.13,0,0.252,0.017,0.364,0.049l-0.026,0.284c-0.095-0.023-0.199-0.035-0.313-0.035
		c-0.189,0-0.337,0.06-0.441,0.176c-0.104,0.118-0.158,0.285-0.158,0.502v0.386h0.741v0.282h-0.74v2.825h-0.345
		C105.407,14.039,105.407,14.042,105.407,14.042z"/>
	<path class="st9" d="M111.043,10.161h-1.433v3.881h-0.353v-3.881h-1.43V9.864h3.215L111.043,10.161L111.043,10.161z"/>
	<path class="st9" d="M112.41,14.099c-0.265,0-0.503-0.066-0.716-0.196c-0.214-0.13-0.38-0.311-0.498-0.544
		c-0.119-0.233-0.178-0.493-0.178-0.781v-0.124c0-0.299,0.058-0.568,0.174-0.806s0.277-0.427,0.484-0.564s0.431-0.206,0.672-0.206
		c0.377,0,0.676,0.129,0.897,0.386c0.22,0.258,0.331,0.609,0.331,1.055v0.192h-2.216v0.067c0,0.352,0.102,0.645,0.303,0.88
		c0.202,0.234,0.456,0.352,0.762,0.352c0.184,0,0.346-0.034,0.486-0.101c0.14-0.067,0.268-0.174,0.383-0.321l0.215,0.163
		C113.256,13.917,112.889,14.099,112.41,14.099z M112.347,11.172c-0.259,0-0.476,0.095-0.652,0.284s-0.285,0.443-0.322,0.763h1.862
		v-0.037c-0.01-0.299-0.095-0.542-0.256-0.729C112.818,11.265,112.605,11.172,112.347,11.172z"/>
	<path class="st9" d="M115.245,13.81c0.24,0,0.44-0.068,0.602-0.204c0.162-0.135,0.249-0.309,0.263-0.524h0.33
		c-0.009,0.189-0.069,0.362-0.178,0.518c-0.11,0.156-0.254,0.277-0.435,0.366c-0.181,0.088-0.374,0.132-0.581,0.132
		c-0.408,0-0.73-0.141-0.968-0.425c-0.239-0.283-0.357-0.664-0.357-1.143v-0.103c0-0.306,0.054-0.577,0.161-0.812
		s0.26-0.417,0.46-0.545c0.199-0.129,0.434-0.192,0.702-0.192c0.34,0,0.621,0.102,0.842,0.304c0.222,0.204,0.338,0.47,0.354,0.801
		h-0.33c-0.016-0.243-0.103-0.439-0.263-0.588c-0.159-0.149-0.361-0.224-0.604-0.224c-0.31,0-0.551,0.112-0.721,0.336
		c-0.172,0.224-0.258,0.538-0.258,0.942v0.101c0,0.396,0.086,0.704,0.258,0.927C114.691,13.699,114.933,13.81,115.245,13.81z"/>
	<path class="st9" d="M117.318,11.461c0.113-0.185,0.258-0.329,0.433-0.431c0.176-0.102,0.369-0.152,0.577-0.152
		c0.334,0,0.581,0.094,0.744,0.282s0.244,0.468,0.247,0.844v2.038h-0.343v-2.041c-0.001-0.277-0.061-0.484-0.176-0.621
		c-0.115-0.136-0.3-0.204-0.555-0.204c-0.213,0-0.401,0.067-0.564,0.199s-0.285,0.312-0.363,0.538v2.127h-0.341V9.632h0.341V11.461
		L117.318,11.461z"/>
	<path class="st9" d="M120.383,10.937l0.011,0.531c0.118-0.192,0.262-0.338,0.436-0.438c0.174-0.101,0.367-0.152,0.577-0.152
		c0.334,0,0.581,0.094,0.744,0.282s0.244,0.468,0.247,0.844v2.038h-0.341v-2.041c-0.002-0.277-0.061-0.484-0.176-0.621
		c-0.115-0.136-0.3-0.204-0.555-0.204c-0.213,0-0.401,0.067-0.564,0.199s-0.285,0.312-0.363,0.538v2.127h-0.341v-3.105
		C120.056,10.937,120.383,10.937,120.383,10.937z"/>
	<path class="st9" d="M122.949,12.444c0-0.299,0.058-0.568,0.174-0.806c0.115-0.24,0.279-0.426,0.491-0.559
		c0.211-0.133,0.451-0.199,0.719-0.199c0.413,0,0.747,0.145,1.005,0.435c0.256,0.289,0.384,0.674,0.384,1.152v0.071
		c0,0.3-0.058,0.571-0.174,0.811c-0.115,0.24-0.279,0.425-0.49,0.555c-0.21,0.13-0.45,0.196-0.72,0.196
		c-0.412,0-0.746-0.145-1.003-0.435c-0.257-0.291-0.386-0.674-0.386-1.152V12.444L122.949,12.444z M123.293,12.538
		c0,0.371,0.096,0.676,0.288,0.915c0.192,0.237,0.444,0.357,0.756,0.357c0.31,0,0.561-0.12,0.754-0.357
		c0.192-0.239,0.288-0.553,0.288-0.943v-0.067c0-0.237-0.044-0.455-0.132-0.651c-0.088-0.197-0.21-0.349-0.37-0.457
		c-0.159-0.109-0.34-0.163-0.545-0.163c-0.306,0-0.556,0.12-0.75,0.36c-0.193,0.241-0.289,0.554-0.289,0.943L123.293,12.538
		L123.293,12.538z"/>
	<path class="st9" d="M126.669,14.042h-0.345V9.633h0.345V14.042z"/>
	<path class="st9" d="M127.266,12.444c0-0.299,0.058-0.568,0.174-0.806c0.115-0.24,0.279-0.426,0.491-0.559
		c0.211-0.133,0.451-0.199,0.719-0.199c0.413,0,0.747,0.145,1.005,0.435c0.256,0.289,0.384,0.674,0.384,1.152v0.071
		c0,0.3-0.058,0.571-0.174,0.811c-0.115,0.24-0.279,0.425-0.49,0.555c-0.21,0.13-0.45,0.196-0.72,0.196
		c-0.412,0-0.746-0.145-1.003-0.435c-0.258-0.289-0.386-0.674-0.386-1.152V12.444L127.266,12.444z M127.61,12.538
		c0,0.371,0.096,0.676,0.288,0.915c0.192,0.237,0.444,0.357,0.756,0.357c0.31,0,0.561-0.12,0.754-0.357
		c0.192-0.239,0.288-0.553,0.288-0.943v-0.067c0-0.237-0.044-0.455-0.132-0.651c-0.088-0.197-0.21-0.349-0.37-0.457
		c-0.159-0.109-0.34-0.163-0.545-0.163c-0.306,0-0.556,0.12-0.75,0.36c-0.193,0.241-0.289,0.554-0.289,0.943L127.61,12.538
		L127.61,12.538z"/>
	<path class="st9" d="M130.461,12.461c0-0.486,0.107-0.871,0.322-1.156c0.215-0.284,0.508-0.426,0.877-0.426
		c0.423,0,0.744,0.168,0.965,0.505l0.017-0.448h0.322v3.042c0,0.4-0.112,0.717-0.336,0.95s-0.527,0.349-0.909,0.349
		c-0.217,0-0.423-0.049-0.62-0.145c-0.196-0.097-0.351-0.226-0.464-0.386l0.192-0.207c0.243,0.299,0.531,0.448,0.867,0.448
		c0.286,0,0.511-0.085,0.672-0.254c0.161-0.17,0.244-0.404,0.25-0.704V13.64c-0.22,0.306-0.54,0.459-0.961,0.459
		c-0.36,0-0.649-0.144-0.867-0.431s-0.327-0.675-0.327-1.162V12.461L130.461,12.461z M130.81,12.521c0,0.397,0.08,0.709,0.239,0.937
		c0.158,0.228,0.382,0.343,0.672,0.343c0.423,0,0.721-0.19,0.898-0.569v-1.444c-0.08-0.199-0.197-0.352-0.347-0.455
		c-0.152-0.104-0.334-0.156-0.545-0.156c-0.288,0-0.513,0.113-0.675,0.34C130.89,11.744,130.81,12.08,130.81,12.521z"/>
	<path class="st9" d="M134.697,13.549l0.907-2.612h0.371l-1.326,3.634l-0.069,0.161c-0.17,0.378-0.433,0.565-0.789,0.565
		c-0.083,0-0.17-0.014-0.265-0.04l-0.002-0.284l0.178,0.017c0.168,0,0.304-0.042,0.408-0.124c0.104-0.084,0.192-0.226,0.267-0.43
		l0.152-0.42l-1.171-3.08h0.375L134.697,13.549z"/>
	<path class="st9" d="M139.602,14.042c-0.035-0.097-0.057-0.242-0.066-0.433c-0.121,0.156-0.274,0.277-0.46,0.363
		c-0.187,0.085-0.384,0.128-0.593,0.128c-0.299,0-0.54-0.084-0.725-0.25c-0.184-0.166-0.277-0.377-0.277-0.632
		c0-0.302,0.124-0.542,0.377-0.718c0.252-0.176,0.603-0.265,1.053-0.265h0.623v-0.353c0-0.222-0.069-0.397-0.206-0.525
		c-0.136-0.127-0.336-0.191-0.599-0.191c-0.24,0-0.438,0.062-0.595,0.184s-0.235,0.27-0.235,0.442l-0.345-0.003
		c0-0.247,0.114-0.46,0.345-0.641c0.23-0.181,0.512-0.27,0.847-0.27c0.346,0,0.62,0.087,0.819,0.26
		c0.199,0.174,0.302,0.415,0.309,0.725v1.469c0,0.3,0.032,0.526,0.095,0.675v0.035C139.969,14.042,139.602,14.042,139.602,14.042z
		 M138.522,13.796c0.23,0,0.435-0.055,0.616-0.166s0.312-0.26,0.395-0.446v-0.683h-0.614c-0.343,0.003-0.611,0.067-0.803,0.188
		c-0.193,0.121-0.289,0.288-0.289,0.501c0,0.174,0.064,0.319,0.193,0.434C138.149,13.738,138.317,13.796,138.522,13.796z"/>
	<path class="st9" d="M140.971,10.937l0.011,0.531c0.118-0.192,0.262-0.338,0.436-0.438c0.174-0.101,0.367-0.152,0.577-0.152
		c0.334,0,0.581,0.094,0.744,0.282c0.163,0.188,0.244,0.468,0.247,0.844v2.038h-0.341v-2.041c-0.001-0.277-0.061-0.484-0.176-0.621
		c-0.115-0.136-0.3-0.204-0.555-0.204c-0.213,0-0.401,0.067-0.564,0.199s-0.285,0.312-0.363,0.538v2.127h-0.341v-3.105
		C140.644,10.937,140.971,10.937,140.971,10.937z"/>
	<path class="st9" d="M143.587,12.461c0-0.483,0.107-0.866,0.322-1.152c0.215-0.286,0.508-0.43,0.877-0.43
		c0.42,0,0.738,0.165,0.959,0.496V9.633h0.341v4.409h-0.322l-0.014-0.413c-0.22,0.313-0.544,0.47-0.97,0.47
		c-0.358,0-0.647-0.144-0.866-0.432s-0.329-0.677-0.329-1.167L143.587,12.461L143.587,12.461z M143.935,12.521
		c0,0.397,0.08,0.709,0.239,0.937c0.158,0.228,0.382,0.343,0.672,0.343c0.423,0,0.723-0.187,0.9-0.56v-1.459
		c-0.178-0.404-0.476-0.606-0.896-0.606c-0.288,0-0.513,0.113-0.675,0.34C144.016,11.745,143.935,12.08,143.935,12.521z"/>
	<path class="st9" d="M148.564,13.743h2.064v0.299h-2.419V9.864h0.356L148.564,13.743L148.564,13.743z"/>
	<path class="st9" d="M152.28,14.099c-0.263,0-0.503-0.066-0.716-0.196c-0.214-0.13-0.38-0.311-0.498-0.544
		c-0.119-0.233-0.178-0.493-0.178-0.781v-0.124c0-0.299,0.058-0.568,0.173-0.806c0.115-0.239,0.277-0.427,0.484-0.564
		s0.431-0.206,0.672-0.206c0.377,0,0.676,0.129,0.897,0.386c0.221,0.257,0.331,0.609,0.331,1.055v0.192h-2.216v0.067
		c0,0.352,0.102,0.645,0.303,0.88c0.202,0.234,0.456,0.352,0.762,0.352c0.184,0,0.346-0.034,0.486-0.101
		c0.14-0.067,0.268-0.174,0.383-0.321l0.215,0.163C153.126,13.917,152.76,14.099,152.28,14.099z M152.217,11.172
		c-0.259,0-0.476,0.095-0.652,0.284c-0.178,0.189-0.285,0.443-0.322,0.763h1.862v-0.037c-0.01-0.299-0.095-0.542-0.256-0.729
		C152.687,11.266,152.477,11.172,152.217,11.172z"/>
	<path class="st9" d="M155.927,14.042c-0.035-0.097-0.057-0.242-0.066-0.433c-0.121,0.156-0.274,0.277-0.46,0.363
		c-0.187,0.085-0.384,0.128-0.593,0.128c-0.299,0-0.54-0.084-0.725-0.25c-0.184-0.166-0.277-0.377-0.277-0.632
		c0-0.302,0.124-0.542,0.377-0.718c0.252-0.176,0.603-0.265,1.053-0.265h0.623v-0.353c0-0.222-0.069-0.397-0.206-0.525
		c-0.136-0.127-0.336-0.191-0.599-0.191c-0.24,0-0.438,0.062-0.595,0.184s-0.235,0.27-0.235,0.442l-0.345-0.003
		c0-0.247,0.114-0.46,0.345-0.641c0.23-0.181,0.512-0.27,0.847-0.27c0.346,0,0.62,0.087,0.819,0.26
		c0.199,0.174,0.302,0.415,0.309,0.725v1.469c0,0.3,0.032,0.526,0.095,0.675v0.035C156.295,14.042,155.927,14.042,155.927,14.042z
		 M154.848,13.796c0.23,0,0.435-0.055,0.616-0.166s0.312-0.26,0.395-0.446v-0.683h-0.614c-0.343,0.003-0.611,0.067-0.803,0.188
		c-0.193,0.121-0.289,0.288-0.289,0.501c0,0.174,0.064,0.319,0.193,0.434C154.474,13.738,154.641,13.796,154.848,13.796z"/>
	<path class="st9" d="M158.403,11.23c-0.074-0.012-0.15-0.02-0.233-0.02c-0.215,0-0.397,0.06-0.544,0.18
		c-0.148,0.12-0.254,0.293-0.318,0.52v2.133h-0.341v-3.105h0.336l0.006,0.493c0.181-0.367,0.474-0.551,0.875-0.551
		c0.095,0,0.172,0.012,0.227,0.037L158.403,11.23z"/>
	<path class="st9" d="M159.127,10.937l0.011,0.531c0.118-0.192,0.262-0.338,0.436-0.438c0.174-0.101,0.367-0.152,0.577-0.152
		c0.334,0,0.581,0.094,0.744,0.282c0.163,0.188,0.244,0.468,0.247,0.844v2.038h-0.341v-2.041c-0.001-0.277-0.061-0.484-0.176-0.621
		c-0.115-0.136-0.3-0.204-0.555-0.204c-0.213,0-0.401,0.067-0.564,0.199s-0.285,0.312-0.363,0.538v2.127H158.8v-3.105
		C158.8,10.937,159.127,10.937,159.127,10.937z"/>
	<path class="st9" d="M161.861,10.04c0-0.064,0.021-0.12,0.063-0.164s0.1-0.067,0.172-0.067s0.131,0.023,0.174,0.067
		c0.043,0.044,0.064,0.1,0.064,0.164c0,0.064-0.021,0.119-0.064,0.163s-0.102,0.066-0.174,0.066c-0.074,0-0.13-0.021-0.172-0.066
		C161.882,10.159,161.861,10.105,161.861,10.04z M162.266,14.042h-0.345v-3.105h0.345V14.042z"/>
	<path class="st9" d="M163.379,10.937l0.011,0.531c0.118-0.192,0.262-0.338,0.436-0.438c0.174-0.101,0.367-0.152,0.577-0.152
		c0.334,0,0.581,0.094,0.744,0.282c0.163,0.188,0.244,0.468,0.247,0.844v2.038h-0.341v-2.041c-0.002-0.277-0.061-0.484-0.176-0.621
		c-0.115-0.136-0.3-0.204-0.555-0.204c-0.213,0-0.401,0.067-0.564,0.199s-0.285,0.312-0.363,0.538v2.127h-0.341v-3.105
		C163.052,10.937,163.379,10.937,163.379,10.937z"/>
	<path class="st9" d="M165.996,12.461c0-0.486,0.107-0.871,0.322-1.156c0.215-0.284,0.508-0.426,0.877-0.426
		c0.423,0,0.744,0.168,0.965,0.505l0.017-0.448h0.322v3.042c0,0.4-0.112,0.717-0.336,0.95s-0.527,0.349-0.909,0.349
		c-0.217,0-0.423-0.049-0.62-0.145c-0.196-0.097-0.351-0.226-0.464-0.386l0.192-0.207c0.243,0.299,0.531,0.448,0.867,0.448
		c0.286,0,0.511-0.085,0.672-0.254c0.161-0.17,0.244-0.404,0.25-0.704V13.64c-0.221,0.306-0.54,0.459-0.961,0.459
		c-0.36,0-0.649-0.144-0.867-0.431s-0.327-0.675-0.327-1.162L165.996,12.461L165.996,12.461z M166.344,12.521
		c0,0.397,0.08,0.709,0.239,0.937c0.158,0.228,0.382,0.343,0.672,0.343c0.423,0,0.721-0.19,0.898-0.569v-1.444
		c-0.08-0.199-0.197-0.352-0.347-0.455c-0.152-0.104-0.334-0.156-0.545-0.156c-0.288,0-0.513,0.113-0.675,0.34
		C166.424,11.745,166.344,12.08,166.344,12.521z"/>
</g>
</svg>
