<?xml version="1.0" encoding="utf-8"?>
<!-- Generator: Adobe Illustrator 22.0.1, SVG Export Plug-In . SVG Version: 6.00 Build 0)  -->
<svg version="1.1" id="Layer_1" xmlns="http://www.w3.org/2000/svg" xmlns:xlink="http://www.w3.org/1999/xlink" x="0px" y="0px"
	 viewBox="0 0 180 20" style="enable-background:new 0 0 180 20;" xml:space="preserve">
<style type="text/css">
	.st0{opacity:0.46;}
	.st1{opacity:0.33;fill:#5C6A75;enable-background:new    ;}
	.st2{fill:url(#SVGID_1_);}
	.st3{fill:url(#SVGID_2_);}
	.st4{fill:url(#SVGID_3_);}
	.st5{opacity:0.44;fill:#FFFFFF;enable-background:new    ;}
	.st6{fill:#50C5DD;}
	.st7{fill:#2EA8D6;}
	.st8{opacity:0.33;fill:#FFFFFF;enable-background:new    ;}
	.st9{fill:#FFFFFF;}
</style>
<g class="st0">
	<path class="st1" d="M83.882,1.032v4.08c-0.738-0.395-1.579-0.62-2.473-0.62c-2.916,0-5.28,2.385-5.28,5.327
		s2.363,5.327,5.28,5.327c0.894,0,1.736-0.225,2.473-0.62v0.62h2.807V1.032H83.882z M81.468,12.324
		c-1.333,0-2.414-1.091-2.414-2.438c0.001-1.347,1.082-2.438,2.414-2.438c1.333,0,2.414,1.091,2.414,2.438
		C83.882,11.232,82.801,12.324,81.468,12.324z"/>
	<path class="st1" d="M70.728,4.877c-0.894,0-1.736,0.225-2.473,0.62v-0.62h-2.807V18.99h2.807v-4.08
		c0.738,0.395,1.579,0.62,2.473,0.62c2.916,0,5.28-2.385,5.28-5.327C76.008,7.262,73.645,4.877,70.728,4.877z M70.671,12.573
		c-1.333,0-2.414-1.091-2.414-2.437c0-1.344,1.082-2.437,2.414-2.437c1.333,0,2.414,1.091,2.414,2.437S72.004,12.573,70.671,12.573z
		"/>
	<path class="st1" d="M64.691,6.791c-0.002-0.006-0.006-0.012-0.008-0.018C64.657,6.71,64.627,6.649,64.6,6.587
		c-0.062-0.14-0.127-0.278-0.197-0.415c-0.04-0.076-0.08-0.15-0.122-0.226c-0.07-0.124-0.144-0.248-0.219-0.367
		c-0.042-0.066-0.081-0.131-0.124-0.196c-0.118-0.173-0.24-0.341-0.371-0.504c-0.035-0.044-0.073-0.085-0.11-0.127
		c-0.104-0.124-0.211-0.245-0.323-0.362c-0.055-0.058-0.111-0.113-0.167-0.168c-0.105-0.103-0.214-0.204-0.325-0.3
		c-0.055-0.047-0.109-0.096-0.164-0.142c-0.163-0.135-0.331-0.265-0.505-0.384c-0.031-0.021-0.064-0.04-0.095-0.061
		c-0.149-0.1-0.303-0.196-0.46-0.284c-0.062-0.035-0.127-0.069-0.19-0.103c-0.138-0.073-0.277-0.141-0.421-0.206
		c-0.062-0.028-0.122-0.058-0.185-0.083c-0.201-0.085-0.406-0.163-0.615-0.228c-0.018-0.006-0.036-0.009-0.054-0.015
		c-0.194-0.06-0.394-0.111-0.594-0.156c-0.067-0.015-0.135-0.027-0.201-0.04c-0.162-0.031-0.326-0.057-0.492-0.076
		c-0.068-0.008-0.135-0.017-0.204-0.024c-0.227-0.021-0.457-0.036-0.69-0.036c-0.235,0-0.468,0.015-0.698,0.036
		c-0.072,0.007-0.142,0.018-0.211,0.026c-0.161,0.019-0.32,0.043-0.477,0.072c-0.076,0.015-0.152,0.029-0.226,0.046
		c-0.162,0.037-0.321,0.079-0.477,0.126c-0.06,0.018-0.121,0.033-0.181,0.053c-0.211,0.068-0.42,0.145-0.622,0.231
		c-0.04,0.017-0.078,0.037-0.116,0.054C54.6,2.801,54.441,2.88,54.283,2.964C54.215,3,54.15,3.04,54.084,3.077
		c-0.128,0.073-0.253,0.15-0.377,0.232c-0.067,0.044-0.132,0.088-0.198,0.133c-0.13,0.093-0.256,0.189-0.379,0.288
		c-0.047,0.04-0.098,0.076-0.146,0.116c-0.162,0.137-0.318,0.282-0.467,0.432c-0.053,0.052-0.101,0.107-0.152,0.162
		c-0.1,0.105-0.197,0.214-0.289,0.323c-0.058,0.07-0.113,0.14-0.17,0.213c-0.081,0.104-0.159,0.213-0.235,0.321
		c-0.052,0.073-0.104,0.147-0.154,0.224c-0.084,0.129-0.162,0.263-0.237,0.398c-0.042,0.072-0.084,0.145-0.123,0.219
		c-0.088,0.17-0.171,0.345-0.247,0.522c-0.036,0.084-0.068,0.171-0.101,0.257c-0.031,0.079-0.064,0.156-0.093,0.236
		c0.002,0.001,0.003,0.002,0.006,0.003c-0.277,0.795-0.435,1.646-0.435,2.539c0,4.205,3.352,7.615,7.484,7.615
		s7.484-3.408,7.484-7.615C65.257,8.668,65.054,7.687,64.691,6.791C64.69,6.793,64.691,6.793,64.691,6.791z"/>
</g>
<g>
	
		<linearGradient id="SVGID_1_" gradientUnits="userSpaceOnUse" x1="57.651" y1="792.0373" x2="57.651" y2="807.2673" gradientTransform="matrix(1 0 0 1 0 -790.1943)">
		<stop  offset="0" style="stop-color:#FFFFFF"/>
		<stop  offset="0.3126" style="stop-color:#E2E1E0"/>
		<stop  offset="0.4767" style="stop-color:#E0E0DF"/>
		<stop  offset="0.7198" style="stop-color:#C8C8C8"/>
	</linearGradient>
	<path class="st2" d="M56.023,5.347c0.547,0,5.976,3.137,5.976,4.13c0,0.992-5.282,4.13-5.976,4.13
		C55.33,13.608,55.477,5.347,56.023,5.347z M57.652,1.843c4.134,0,7.484,3.41,7.484,7.615s-3.352,7.615-7.484,7.615
		s-7.486-3.41-7.486-7.616S53.518,1.843,57.652,1.843z"/>
	
		<linearGradient id="SVGID_2_" gradientUnits="userSpaceOnUse" x1="81.29" y1="656.9863" x2="81.29" y2="683.4047" gradientTransform="matrix(1 0 0 1 0 -656.1943)">
		<stop  offset="0" style="stop-color:#FFFFFF"/>
		<stop  offset="0.1656" style="stop-color:#EAEAEA"/>
		<stop  offset="0.6628" style="stop-color:#B6B8B8"/>
	</linearGradient>
	<path class="st3" d="M81.347,7.208c1.333,0,2.414,1.091,2.414,2.438s-1.081,2.438-2.414,2.438s-2.414-1.091-2.414-2.438
		C78.934,8.299,80.015,7.208,81.347,7.208z M83.763,0.792v4.08c-0.738-0.395-1.579-0.62-2.473-0.62c-2.916,0-5.28,2.385-5.28,5.327
		s2.363,5.327,5.28,5.327c0.894,0,1.735-0.225,2.473-0.62v0.62h2.807V0.792H83.763z"/>
	
		<linearGradient id="SVGID_3_" gradientUnits="userSpaceOnUse" x1="70.609" y1="660.8313" x2="70.609" y2="684.1267" gradientTransform="matrix(1 0 0 1 0 -656.1943)">
		<stop  offset="0" style="stop-color:#FFFFFF"/>
		<stop  offset="0.2611" style="stop-color:#D4D5D5"/>
		<stop  offset="0.6575" style="stop-color:#B9BBBB"/>
		<stop  offset="0.8092" style="stop-color:#B6B8B8"/>
	</linearGradient>
	<path class="st4" d="M70.55,7.46c1.333,0,2.414,1.091,2.414,2.437s-1.081,2.437-2.414,2.437s-2.414-1.091-2.414-2.437
		S69.218,7.46,70.55,7.46z M70.609,4.637c-0.894,0-1.736,0.225-2.473,0.62v-0.62h-2.807v14.114h2.807v-4.08
		c0.738,0.395,1.579,0.62,2.473,0.62c2.916,0,5.28-2.385,5.28-5.327S73.525,4.637,70.609,4.637z"/>
	<path class="st5" d="M57.652,1.843c-3.258,0-6.027,2.118-7.056,5.073c1.292,0.934,3.021,1.597,4.974,1.852
		c0.049-1.804,0.211-3.421,0.452-3.421c0.405,0,3.479,1.718,5.053,3.011c1.378-0.407,2.577-1.031,3.494-1.807
		C63.449,3.788,60.774,1.843,57.652,1.843z"/>
	<path class="st6" d="M56.023,5.347c0.547,0,5.976,3.137,5.976,4.13c0,0.992-5.282,4.13-5.976,4.13
		C55.33,13.608,55.477,5.347,56.023,5.347z"/>
	<g>
		<path class="st7" d="M56.023,5.347c-0.069,0-0.132,0.133-0.188,0.367c0.695,0.102,5.941,3.148,5.941,4.125
			c0,0.037-0.01,0.078-0.024,0.122C61.91,9.772,62,9.606,62,9.478C61.999,8.484,56.569,5.347,56.023,5.347z"/>
	</g>
	<path class="st8" d="M55.571,8.768c0.577,0.076,1.171,0.115,1.781,0.115c1.328,0,2.587-0.188,3.725-0.524
		c-1.574-1.295-4.649-3.01-5.053-3.01C55.782,5.347,55.619,6.966,55.571,8.768z"/>
</g>
<g>
	<path class="st9" d="M96.807,10.4c-0.111,1.021-0.477,1.804-1.097,2.346s-1.445,0.812-2.476,0.812c-0.72,0-1.356-0.18-1.91-0.539
		c-0.553-0.36-0.981-0.87-1.283-1.53c-0.302-0.659-0.456-1.413-0.46-2.262v-1.26c0-0.862,0.151-1.626,0.453-2.292
		s0.736-1.181,1.303-1.542c0.566-0.362,1.218-0.543,1.956-0.543c1.04,0,1.861,0.28,2.463,0.84s0.952,1.335,1.05,2.326H95.98
		c-0.205-1.648-1.1-2.472-2.686-2.472c-0.879,0-1.581,0.329-2.103,0.987c-0.522,0.658-0.783,1.567-0.783,2.728v1.187
		c0,1.121,0.254,2.014,0.763,2.681s1.196,1.001,2.063,1.001c0.857,0,1.504-0.206,1.939-0.617c0.435-0.41,0.704-1.027,0.806-1.849
		h0.828V10.4z"/>
	<path class="st9" d="M97.49,9.714c0-0.693,0.135-1.317,0.403-1.873c0.269-0.555,0.649-0.987,1.14-1.296s1.047-0.463,1.669-0.463
		c0.96,0,1.737,0.336,2.333,1.01c0.596,0.673,0.893,1.565,0.893,2.676v0.167c0,0.697-0.134,1.325-0.403,1.883
		c-0.269,0.558-0.648,0.987-1.137,1.289c-0.489,0.303-1.046,0.453-1.672,0.453c-0.956,0-1.732-0.336-2.33-1.009
		c-0.598-0.674-0.896-1.565-0.896-2.676C97.49,9.875,97.49,9.714,97.49,9.714z M98.29,9.934c0,0.862,0.224,1.569,0.67,2.123
		c0.446,0.553,1.032,0.829,1.756,0.829c0.72,0,1.303-0.276,1.749-0.829c0.447-0.554,0.67-1.283,0.67-2.19V9.714
		c0-0.551-0.102-1.055-0.307-1.513c-0.204-0.458-0.491-0.812-0.859-1.063c-0.369-0.251-0.791-0.376-1.267-0.376
		c-0.711,0-1.291,0.279-1.739,0.836S98.29,8.885,98.29,9.787V9.934z"/>
	<path class="st9" d="M109.529,12.513c-0.479,0.697-1.246,1.046-2.299,1.046c-0.768,0-1.352-0.223-1.752-0.669
		c-0.4-0.447-0.604-1.107-0.613-1.983V6.215h0.793v4.592c0,1.373,0.555,2.06,1.666,2.06c1.154,0,1.887-0.478,2.193-1.434V6.215
		h0.799v7.211h-0.773L109.529,12.513z"/>
	<path class="st9" d="M115.039,6.895c-0.169-0.031-0.349-0.047-0.54-0.047c-0.498,0-0.919,0.139-1.263,0.417
		c-0.345,0.277-0.59,0.681-0.736,1.209v4.952h-0.793V6.215h0.779l0.014,1.146c0.422-0.853,1.1-1.279,2.032-1.279
		c0.223,0,0.397,0.029,0.526,0.086L115.039,6.895z"/>
	<path class="st9" d="M119.936,11.593c0-0.396-0.159-0.713-0.477-0.953c-0.317-0.239-0.797-0.427-1.437-0.563
		c-0.64-0.135-1.136-0.29-1.489-0.466c-0.354-0.175-0.615-0.39-0.786-0.643c-0.172-0.253-0.257-0.56-0.257-0.92
		c0-0.568,0.237-1.039,0.713-1.409c0.476-0.371,1.084-0.557,1.826-0.557c0.805,0,1.449,0.199,1.937,0.596
		c0.486,0.398,0.729,0.917,0.729,1.556h-0.8c0-0.422-0.177-0.773-0.53-1.053s-0.798-0.42-1.336-0.42
		c-0.524,0-0.945,0.117-1.263,0.35c-0.317,0.233-0.477,0.536-0.477,0.91c0,0.36,0.132,0.639,0.396,0.836s0.746,0.378,1.446,0.543
		c0.699,0.165,1.224,0.34,1.572,0.526c0.35,0.187,0.608,0.411,0.776,0.673c0.169,0.263,0.254,0.58,0.254,0.953
		c0,0.609-0.246,1.096-0.736,1.46c-0.491,0.364-1.132,0.546-1.923,0.546c-0.84,0-1.521-0.203-2.043-0.609s-0.783-0.921-0.783-1.543
		h0.8c0.031,0.467,0.228,0.83,0.59,1.09s0.841,0.39,1.437,0.39c0.556,0,1.004-0.122,1.346-0.366
		C119.765,12.275,119.936,11.966,119.936,11.593z"/>
	<path class="st9" d="M124.638,13.559c-0.613,0-1.167-0.15-1.663-0.453c-0.495-0.302-0.881-0.723-1.156-1.263
		s-0.413-1.145-0.413-1.815V9.74c0-0.693,0.135-1.317,0.403-1.873c0.269-0.556,0.644-0.992,1.123-1.31
		c0.479-0.318,1-0.477,1.56-0.477c0.875,0,1.569,0.299,2.083,0.896c0.513,0.598,0.77,1.414,0.77,2.449v0.446h-5.146v0.154
		c0,0.817,0.234,1.498,0.703,2.042c0.469,0.545,1.059,0.816,1.77,0.816c0.427,0,0.804-0.077,1.13-0.233
		c0.326-0.155,0.623-0.404,0.89-0.746l0.5,0.38C126.604,13.135,125.753,13.559,124.638,13.559z M124.491,6.761
		c-0.6,0-1.105,0.22-1.517,0.66s-0.66,1.031-0.749,1.773h4.325V9.107c-0.022-0.693-0.221-1.257-0.594-1.692
		S125.096,6.761,124.491,6.761z"/>
	<path class="st9" d="M132.532,11.593c0-0.396-0.159-0.713-0.477-0.953c-0.317-0.239-0.797-0.427-1.437-0.563
		c-0.64-0.135-1.136-0.29-1.489-0.466c-0.354-0.175-0.615-0.39-0.786-0.643c-0.172-0.253-0.257-0.56-0.257-0.92
		c0-0.568,0.237-1.039,0.713-1.409c0.476-0.371,1.084-0.557,1.826-0.557c0.805,0,1.449,0.199,1.937,0.596
		c0.486,0.398,0.729,0.917,0.729,1.556h-0.8c0-0.422-0.177-0.773-0.53-1.053s-0.798-0.42-1.336-0.42
		c-0.524,0-0.945,0.117-1.263,0.35c-0.317,0.233-0.477,0.536-0.477,0.91c0,0.36,0.132,0.639,0.396,0.836s0.746,0.378,1.446,0.543
		c0.699,0.165,1.224,0.34,1.572,0.526c0.35,0.187,0.608,0.411,0.776,0.673c0.169,0.263,0.254,0.58,0.254,0.953
		c0,0.609-0.246,1.096-0.736,1.46c-0.491,0.364-1.132,0.546-1.923,0.546c-0.84,0-1.521-0.203-2.043-0.609s-0.783-0.921-0.783-1.543
		h0.8c0.031,0.467,0.228,0.83,0.59,1.09s0.841,0.39,1.437,0.39c0.556,0,1.004-0.122,1.346-0.366
		C132.361,12.275,132.532,11.966,132.532,11.593z"/>
</g>
</svg>
