<?xml version="1.0" encoding="utf-8"?>
<!-- Generator: Adobe Illustrator 22.0.1, SVG Export Plug-In . SVG Version: 6.00 Build 0)  -->
<svg version="1.1" id="Layer_1" xmlns="http://www.w3.org/2000/svg" xmlns:xlink="http://www.w3.org/1999/xlink" x="0px" y="0px"
	 viewBox="0 0 25 20" style="enable-background:new 0 0 25 20;" xml:space="preserve">
<style type="text/css">
	.st0{fill:#02B3E0;}
</style>
<polygon class="st0" points="8.9,4.463 7.8,3.363 6.2,4.963 4.5,3.363 3.4,4.463 5.1,6.063 3.4,7.763 4.5,8.863 6.2,7.163 
	7.8,8.863 8.9,7.763 7.3,6.063 "/>
<path class="st0" d="M11.8,6.063c0,3.1-2.5,5.6-5.6,5.6s-5.6-2.5-5.6-5.6s2.5-5.6,5.6-5.6S11.8,2.963,11.8,6.063z M6.2,0.863
	c-2.9,0-5.2,2.4-5.2,5.2s2.3,5.2,5.2,5.2s5.2-2.3,5.2-5.2S9,0.863,6.2,0.863z"/>
</svg>
