<?xml version="1.0" encoding="utf-8"?>
<!-- Generator: Adobe Illustrator 22.0.1, SVG Export Plug-In . SVG Version: 6.00 Build 0)  -->
<svg version="1.1" id="Layer_1" xmlns="http://www.w3.org/2000/svg" xmlns:xlink="http://www.w3.org/1999/xlink" x="0px" y="0px"
	 viewBox="0 0 180 20" style="enable-background:new 0 0 180 20;" xml:space="preserve">
<style type="text/css">
	.st0{fill:#FFFFFF;}
</style>
<g>
	<g>
		<polygon class="st0" points="38.304,16.036 38.548,2.109 35.889,2.395 35.558,0.671 44.086,1.057 43.735,1.866 40.843,1.998 
			39.373,16.279 		"/>
		<g>
			<path class="st0" d="M50.723,14.404c-0.471,0.319-1.376,0.587-2.28,0.717c-3.787,0.547-5.356-2.286-5.797-4.826
				c-0.553-3.185,0.415-5.973,3.029-6.351c0.098-0.014,0.224-0.009,0.321-0.023c2.649-0.177,3.714,1.77,4.116,4.086
				c0.081,0.468,0.107,0.761,0.159,1.347l-6.237,0.421c0.502,3.467,2.332,3.91,3.846,3.829c0.122-0.018,0.248-0.013,0.37-0.03
				c0.782-0.113,1.337-0.376,1.718-0.636L50.723,14.404z M48.298,8.086c-0.352-2.027-1.305-3.191-2.576-3.007
				c-1.442,0.208-1.79,1.948-1.621,3.499L48.298,8.086z"/>
			<path class="st0" d="M57.427,19.75l0.716-5.559l-0.073-0.01c-0.505,0.749-1.675,1.425-2.994,1.235
				c-3.102-0.448-3.441-3.831-2.965-6.571c0.607-3.497,2.879-5.042,4.809-4.763c0.929,0.134,1.836,0.676,2.302,1.885l0.048,0.007
				l0.027-2.028l2.135,0.971l-0.57,3.273l-2.099,11.365L57.427,19.75z M58.769,8.71c0.209-1.637-0.491-3.085-1.786-3.272
				c-1.588-0.229-2.632,1.309-2.995,3.403c-0.317,1.826-0.17,4.725,1.98,5.036c0.831,0.12,2.257-0.451,2.487-2.495L58.769,8.71z"/>
		</g>
	</g>
</g>
<g>
	<path class="st0" d="M85.744,8.587c0.462-0.601,0.692-1.295,0.692-2.081c0-1.141-0.368-2.028-1.105-2.663
		c-0.737-0.635-1.76-0.952-3.072-0.952h-3.99v12.285h1.046v-5.121h3.568l2.971,5.121h1.105v-0.11l-3.072-5.23
		C84.665,9.604,85.283,9.188,85.744,8.587z M82.496,9.176h-3.181V3.768h2.927c0.996,0,1.769,0.24,2.321,0.718
		c0.552,0.479,0.826,1.152,0.826,2.02c0,0.788-0.264,1.431-0.792,1.927C84.068,8.928,83.367,9.176,82.496,9.176z"/>
	<path class="st0" d="M96.477,9.699V8.231C96.46,7.134,96.255,6.17,95.86,5.337c-0.393-0.832-0.951-1.477-1.674-1.932
		c-0.723-0.455-1.557-0.684-2.503-0.684c-0.945,0-1.78,0.232-2.506,0.696c-0.724,0.465-1.285,1.128-1.683,1.991
		c-0.396,0.864-0.595,1.855-0.595,2.975v1.265c0,1.744,0.442,3.129,1.325,4.156c0.883,1.026,2.042,1.54,3.475,1.54
		c0.951,0,1.789-0.23,2.515-0.692c0.726-0.461,1.284-1.119,1.674-1.974C96.281,11.823,96.477,10.83,96.477,9.699z M95.44,9.665
		c0,1.502-0.33,2.673-0.988,3.515c-0.658,0.841-1.575,1.261-2.751,1.261c-1.159,0-2.074-0.426-2.75-1.278
		c-0.675-0.852-1.013-2.007-1.013-3.464V8.417c0-1.507,0.339-2.682,1.016-3.523c0.678-0.841,1.587-1.261,2.729-1.261
		c1.165,0,2.082,0.418,2.751,1.257s1.005,1.997,1.005,3.476L95.44,9.665L95.44,9.665z"/>
	<path class="st0" d="M112.008,3.577c-0.798-0.458-1.701-0.687-2.709-0.687h-3.434v11.824L101.389,2.89h-0.986l-4.65,12.285h1.088
		l1.267-3.451h5.576l1.275,3.451h0.906h0.174h3.184c1.047,0,1.973-0.23,2.78-0.692c0.808-0.461,1.433-1.117,1.877-1.966
		s0.667-1.823,0.667-2.919V8.467c0-1.091-0.223-2.064-0.672-2.919C113.429,4.693,112.806,4.036,112.008,3.577z M98.428,10.846
		l2.463-6.691l2.464,6.691H98.428z M113.518,9.526c0,1.463-0.391,2.625-1.173,3.483c-0.783,0.858-1.82,1.288-3.113,1.288h-2.329
		V3.768h2.412c1.261,0.005,2.276,0.433,3.047,1.283c0.771,0.851,1.156,1.982,1.156,3.395V9.526z"/>
	<polygon class="st0" points="121.223,13.732 116.692,2.89 115.316,2.89 115.316,15.175 116.354,15.175 116.354,9.792 116.27,4.383 
		120.826,15.175 121.627,15.175 126.201,4.341 126.117,9.825 126.117,15.175 127.154,15.175 127.154,2.89 125.77,2.89 	"/>
	<path class="st0" d="M145.692,3.869c-0.74-0.653-1.748-0.979-3.024-0.979h-4.186v12.127l-4.59-12.127h-0.986l-4.65,12.285h1.088
		l1.267-3.451h5.576l1.275,3.451h1.021h0.06h0.979v-5.004h3.121c1.35,0,2.381-0.314,3.093-0.941c0.71-0.626,1.067-1.517,1.067-2.67
		C146.801,5.418,146.432,4.521,145.692,3.869z M130.931,10.846l2.463-6.691l2.464,6.691H130.931z M144.97,8.576
		c-0.529,0.479-1.296,0.718-2.303,0.718h-3.147V3.768h3.215c0.966,0.011,1.714,0.269,2.239,0.773
		c0.526,0.505,0.789,1.182,0.789,2.032C145.764,7.43,145.499,8.097,144.97,8.576z"/>
</g>
<path class="st0" d="M71.016,12.407c0.004-0.57-0.229-1.03-0.696-1.378c-0.467-0.348-1.172-0.623-2.118-0.825
	c-0.943-0.201-1.675-0.43-2.196-0.686c-0.52-0.257-0.906-0.568-1.156-0.934c-0.251-0.366-0.374-0.809-0.37-1.328
	c0.006-0.819,0.362-1.494,1.069-2.023c0.705-0.529,1.608-0.791,2.705-0.783c1.187,0.008,2.141,0.301,2.854,0.878
	c0.716,0.577,1.071,1.328,1.064,2.249L70.99,7.57c0.005-0.609-0.253-1.115-0.774-1.522c-0.518-0.407-1.176-0.613-1.969-0.618
	c-0.775-0.006-1.4,0.158-1.871,0.491c-0.472,0.332-0.709,0.768-0.713,1.305c-0.003,0.519,0.189,0.922,0.578,1.208
	c0.389,0.288,1.099,0.554,2.132,0.798s1.805,0.502,2.32,0.774c0.512,0.272,0.893,0.597,1.139,0.977
	c0.247,0.379,0.368,0.837,0.364,1.374c-0.006,0.877-0.372,1.576-1.102,2.094c-0.731,0.52-1.679,0.776-2.849,0.768
	c-1.241-0.008-2.245-0.308-3.013-0.899c-0.768-0.59-1.148-1.334-1.141-2.23l1.183,0.008c0.04,0.672,0.328,1.198,0.859,1.576
	c0.534,0.378,1.24,0.57,2.119,0.576c0.821,0.006,1.486-0.166,1.994-0.514C70.755,13.388,71.012,12.945,71.016,12.407z"/>
<path class="st0" d="M63.36,4.225l-0.35-0.26c0.3-0.398,0.457-0.816,0.47-1.255l0.005-0.649l0.584,0.004l-0.003,0.5
	C64.061,3.256,63.825,3.809,63.36,4.225z"/>
</svg>
