<?xml version="1.0" encoding="utf-8"?>
<!-- Generator: Adobe Illustrator 22.1.0, SVG Export Plug-In . SVG Version: 6.00 Build 0)  -->
<svg version="1.1" id="Layer_1" xmlns="http://www.w3.org/2000/svg" xmlns:xlink="http://www.w3.org/1999/xlink" x="0px" y="0px"
	 viewBox="0 0 400 175" style="enable-background:new 0 0 400 175;" xml:space="preserve">
<style type="text/css">
	.st0{fill:url(#SVGID_1_);}
	.st1{fill:url(#SVGID_2_);}
	.st2{fill:url(#SVGID_3_);}
	.st3{fill:url(#SVGID_4_);}
	.st4{fill:url(#SVGID_5_);}
	.st5{fill:url(#SVGID_6_);}
</style>
<g>
	
		<linearGradient id="SVGID_1_" gradientUnits="userSpaceOnUse" x1="370.3253" y1="-241.6477" x2="370.3253" y2="-226.3414" gradientTransform="matrix(1 0 0 1 0 310)">
		<stop  offset="0" style="stop-color:#FFFFFF"/>
		<stop  offset="1" style="stop-color:#C3E8FA"/>
	</linearGradient>
	<path class="st0" d="M392.127,81.687c-0.731,0.849-2.094,1.067-3.053,0.488c-0.299,0.933-3.486,2.52-5.711-0.15
		c-1.2,1.021-3.183,0.949-4.305-0.159c-0.83,1.047-2.546,1.234-3.58,0.387c-2.621,2.143-6.922,1.791-9.156-0.752
		c-0.825,0.885-2.47,0.761-3.151-0.237c-1.051,1.331-3.296,1.466-4.5,0.273c-1.821,3.23-8.419,0.8-9.342,0.133
		c-0.657-0.475-1.117-1.209-1.287-2c-0.072-0.335-0.092-0.68-0.055-1.021c0.084,1.058,1.42,1.599,2.454,1.351
		c1.032-0.248,1.858-0.995,2.764-1.548c0.906-0.555,2.097-0.915,3.002-0.358c-0.387-6.087,4.676-5.216,6.271-4.036
		c1.02-8.56,8.216-5.546,9.413-3.321c1.64-1.051,3.152-0.986,4.732-0.645c2.017,0.436,3.704,2.254,4.711,3.811
		c3.277-0.571,3.661,0.156,4.254,2.104c1.831-0.708,3.546,0,3.604,1.539c0.853-0.298,1.718,0.021,2.349,0.482
		c0.117,0.087,0.227,0.177,0.326,0.27c0.108,0.099,0.204,0.201,0.287,0.302c0.146,0.175,0.261,0.372,0.345,0.582
		C392.834,79.998,392.708,81.01,392.127,81.687z"/>
	
		<linearGradient id="SVGID_2_" gradientUnits="userSpaceOnUse" x1="370.3623" y1="-237.8987" x2="370.3623" y2="-226.3414" gradientTransform="matrix(1 0 0 1 0 310)">
		<stop  offset="0" style="stop-color:#CDE8F7"/>
		<stop  offset="1" style="stop-color:#86C6EB"/>
	</linearGradient>
	<path class="st1" d="M392.127,81.687c-0.731,0.849-2.094,1.067-3.053,0.488c-0.299,0.933-3.486,2.52-5.711-0.15
		c-1.2,1.021-3.183,0.949-4.305-0.159c-0.83,1.047-2.546,1.234-3.58,0.387c-2.621,2.143-6.922,1.791-9.156-0.752
		c-0.825,0.885-2.47,0.761-3.151-0.237c-1.051,1.331-3.296,1.466-4.5,0.273c-1.821,3.23-8.419,0.8-9.342,0.133
		c-0.657-0.475-1.117-1.209-1.287-2c1.678,1.741,6.777,2.47,7.853,2.046c1.464-0.576,1.562-2.67,1.427-4.094
		c2.053,4.091,5.053,2.536,5.831,1.296c0.982-1.564-0.255-3.553,0.16-5.265c0.209-0.869,1.009-1.679,1.892-1.535
		c-0.582,0.228-1.339,1.273-0.954,1.764c0.693,0.881,2.216,0.296,3.314-0.516c-0.777,1.316-2.878,1.514-2.929,3.206
		c-0.032,1.025,0.279,1.941,1.3,1.862c1.021-0.08,2.305-1.005,3.252-1.434c-1.626,1.493-1.53,2.864-0.321,3.759
		c1.207,0.895,2.957-0.104,3.216-1.585c0.241,1.472,2.415,2.579,3.725,1.869c-1.374-0.887-2.149-2.618-1.892-4.232
		c0.266,1.321,2.046,2.654,3.308,2.186c1.262-0.47,1.684-2.618,1.025-3.795c1.356,1.232,1.516,3.562,0.339,4.966
		c2.048,0.58,3.98-1.281,3.479-3.351c0.787,1.278,0.782,3-0.012,4.273c1.392-0.303,2.345-1.906,1.948-3.273
		c0.727,1.06,0.443,2.136,0.991,2.934c0.548,0.796,1.45,1.151,2.358,0.814c0.906-0.337,0.954-1.122,0.468-2.31
		c0.722,0.988,1.562,1.596,2.548,1.227c0.938-0.351,1.476-1.505,1.174-2.452c-0.016-0.048-0.033-0.096-0.053-0.143
		c0.131,0.131,0.259,0.27,0.38,0.413c0.234,0.275,0.446,0.571,0.633,0.883C392.834,79.998,392.708,81.01,392.127,81.687z"/>
</g>
<g>
	
		<linearGradient id="SVGID_3_" gradientUnits="userSpaceOnUse" x1="1123.1506" y1="-215.3806" x2="1123.1506" y2="-201.6353" gradientTransform="matrix(-1 0 0 1 1175.0414 310)">
		<stop  offset="0" style="stop-color:#FFFFFF"/>
		<stop  offset="1" style="stop-color:#C3E8FA"/>
	</linearGradient>
	<path class="st2" d="M31.977,104.344c0.076-0.188,0.18-0.364,0.31-0.522c0.075-0.091,0.161-0.182,0.258-0.271
		c0.089-0.082,0.188-0.164,0.293-0.242c0.567-0.414,1.344-0.7,2.11-0.433c0.052-1.382,1.592-2.017,3.237-1.382
		c0.531-1.749,0.877-2.402,3.819-1.89c0.905-1.398,2.419-3.03,4.231-3.422c1.418-0.306,2.777-0.365,4.25,0.579
		c1.075-1.998,7.538-4.705,8.453,2.982c1.433-1.06,5.979-1.842,5.632,3.624c0.812-0.5,1.883-0.177,2.696,0.321
		c0.814,0.497,1.556,1.167,2.483,1.39c0.928,0.223,2.129-0.263,2.203-1.213c0.033,0.306,0.015,0.616-0.05,0.917
		c-0.153,0.71-0.566,1.369-1.156,1.796c-0.83,0.599-6.755,2.782-8.39-0.119c-1.081,1.071-3.097,0.95-4.041-0.245
		c-0.612,0.896-2.089,1.008-2.83,0.213c-2.006,2.284-5.869,2.6-8.223,0.675c-0.928,0.761-2.469,0.594-3.214-0.347
		c-1.008,0.995-2.788,1.06-3.866,0.143c-1.998,2.398-4.86,0.973-5.129,0.135c-0.861,0.52-2.086,0.325-2.741-0.438
		C31.79,105.989,31.677,105.08,31.977,104.344z"/>
	
		<linearGradient id="SVGID_4_" gradientUnits="userSpaceOnUse" x1="1123.1841" y1="-212.0149" x2="1123.1841" y2="-201.6343" gradientTransform="matrix(-1 0 0 1 1175.0414 310)">
		<stop  offset="0" style="stop-color:#CDE8F7"/>
		<stop  offset="1" style="stop-color:#86C6EB"/>
	</linearGradient>
	<path class="st3" d="M31.974,104.344c0.167-0.28,0.358-0.546,0.568-0.793c0.109-0.129,0.224-0.253,0.341-0.371
		c-0.018,0.043-0.033,0.086-0.048,0.129c-0.271,0.851,0.212,1.887,1.054,2.202c0.885,0.331,1.64-0.215,2.288-1.102
		c-0.436,1.067-0.393,1.772,0.421,2.075c0.815,0.303,1.626-0.016,2.118-0.731c0.493-0.716,0.237-1.683,0.89-2.635
		c-0.356,1.228,0.5,2.667,1.75,2.939c-0.713-1.143-0.718-2.689-0.011-3.837c-0.451,1.86,1.285,3.531,3.124,3.01
		c-1.057-1.261-0.914-3.353,0.304-4.46c-0.592,1.056-0.213,2.986,0.92,3.407c1.134,0.42,2.732-0.777,2.971-1.963
		c0.231,1.449-0.464,3.004-1.698,3.801c1.177,0.638,3.129-0.356,3.346-1.678c0.232,1.329,1.804,2.227,2.888,1.423
		c1.087-0.804,1.172-2.035-0.288-3.376c0.851,0.385,2.004,1.216,2.921,1.288C56.75,103.743,57.028,102.92,57,102
		c-0.046-1.519-1.932-1.697-2.63-2.879c0.986,0.729,2.354,1.255,2.976,0.464c0.345-0.441-0.335-1.379-0.857-1.585
		c0.794-0.129,1.512,0.599,1.699,1.379c0.372,1.538-0.739,3.324,0.143,4.729c0.699,1.113,3.393,2.51,5.237-1.164
		c-0.121,1.279-0.033,3.159,1.282,3.676c0.967,0.38,5.545-0.273,7.052-1.837c-0.153,0.71-0.566,1.369-1.156,1.796
		c-0.83,0.599-6.755,2.782-8.39-0.119c-1.081,1.071-3.097,0.95-4.041-0.245c-0.612,0.896-2.089,1.008-2.83,0.213
		c-2.006,2.284-5.869,2.6-8.223,0.675c-0.928,0.761-2.469,0.594-3.214-0.347c-1.008,0.995-2.788,1.06-3.866,0.143
		c-1.998,2.398-4.86,0.973-5.129,0.135c-0.861,0.52-2.086,0.325-2.741-0.438C31.79,105.989,31.677,105.08,31.974,104.344z"/>
</g>
<g>
	
		<linearGradient id="SVGID_5_" gradientUnits="userSpaceOnUse" x1="66.6198" y1="452.0064" x2="66.6198" y2="446.0818" gradientTransform="matrix(1 0 0 -1 0 495)">
		<stop  offset="0" style="stop-color:#FFFFFF"/>
		<stop  offset="1" style="stop-color:#C3E8FA"/>
	</linearGradient>
	<path class="st4" d="M75.058,48.155c-0.283,0.329-0.81,0.413-1.182,0.189c-0.116,0.361-1.349,0.975-2.21-0.058
		c-0.464,0.395-1.232,0.367-1.666-0.062c-0.321,0.406-0.986,0.477-1.386,0.15c-1.014,0.83-2.679,0.693-3.544-0.291
		c-0.319,0.343-0.956,0.294-1.219-0.092c-0.407,0.515-1.276,0.567-1.742,0.106c-0.705,1.25-3.258,0.31-3.616,0.051
		c-0.255-0.184-0.432-0.468-0.498-0.774c-0.028-0.13-0.036-0.264-0.021-0.395c0.032,0.41,0.55,0.619,0.95,0.523
		c0.4-0.096,0.719-0.385,1.07-0.599c0.351-0.215,0.812-0.354,1.162-0.139c-0.15-2.356,1.81-2.019,2.427-1.562
		c0.395-3.313,3.18-2.147,3.643-1.285c0.635-0.407,1.22-0.381,1.832-0.25c0.781,0.169,1.434,0.872,1.823,1.475
		c1.268-0.221,1.417,0.061,1.646,0.814c0.709-0.274,1.373,0,1.395,0.596c0.33-0.115,0.665,0.008,0.909,0.186
		c0.045,0.034,0.088,0.069,0.126,0.104c0.042,0.038,0.079,0.077,0.111,0.117c0.056,0.068,0.101,0.144,0.134,0.225
		C75.332,47.501,75.283,47.893,75.058,48.155z"/>
	
		<linearGradient id="SVGID_6_" gradientUnits="userSpaceOnUse" x1="66.634" y1="450.5555" x2="66.634" y2="446.0818" gradientTransform="matrix(1 0 0 -1 0 495)">
		<stop  offset="0" style="stop-color:#CDE8F7"/>
		<stop  offset="1" style="stop-color:#86C6EB"/>
	</linearGradient>
	<path class="st5" d="M75.058,48.155c-0.283,0.329-0.81,0.413-1.182,0.189c-0.116,0.361-1.349,0.975-2.21-0.058
		c-0.464,0.395-1.232,0.367-1.666-0.062c-0.321,0.406-0.986,0.477-1.386,0.15c-1.014,0.83-2.679,0.693-3.544-0.291
		c-0.319,0.343-0.956,0.294-1.219-0.092c-0.407,0.515-1.276,0.567-1.742,0.106c-0.705,1.25-3.258,0.31-3.616,0.051
		c-0.255-0.184-0.432-0.468-0.498-0.774c0.649,0.674,2.623,0.956,3.039,0.792c0.567-0.223,0.604-1.034,0.552-1.585
		c0.795,1.583,1.956,0.981,2.257,0.502c0.38-0.605-0.099-1.375,0.062-2.038c0.081-0.336,0.391-0.65,0.732-0.594
		c-0.225,0.089-0.518,0.493-0.369,0.683c0.268,0.341,0.858,0.115,1.283-0.2c-0.301,0.509-1.114,0.586-1.134,1.241
		c-0.012,0.397,0.108,0.751,0.503,0.721c0.395-0.031,0.892-0.389,1.258-0.555c-0.629,0.578-0.592,1.108-0.124,1.455
		c0.468,0.347,1.145-0.04,1.245-0.614c0.093,0.57,0.935,0.999,1.442,0.723c-0.532-0.343-0.832-1.014-0.732-1.638
		c0.103,0.511,0.792,1.027,1.28,0.846c0.489-0.182,0.652-1.014,0.397-1.468c0.525,0.477,0.587,1.379,0.131,1.922
		c0.793,0.224,1.541-0.496,1.346-1.297c0.305,0.495,0.303,1.161-0.005,1.654c0.539-0.118,0.908-0.738,0.754-1.267
		c0.281,0.41,0.172,0.827,0.384,1.136c0.212,0.308,0.561,0.445,0.913,0.315c0.351-0.131,0.369-0.434,0.181-0.894
		c0.279,0.382,0.605,0.618,0.986,0.475c0.363-0.136,0.571-0.583,0.454-0.949c-0.006-0.019-0.013-0.037-0.02-0.056
		c0.051,0.051,0.1,0.104,0.147,0.16c0.09,0.106,0.173,0.221,0.245,0.342C75.332,47.501,75.283,47.893,75.058,48.155z"/>
</g>
</svg>
