<?xml version="1.0" encoding="utf-8"?>
<!-- Generator: Adobe Illustrator 22.0.1, SVG Export Plug-In . SVG Version: 6.00 Build 0)  -->
<svg version="1.1" id="Layer_1" xmlns="http://www.w3.org/2000/svg" xmlns:xlink="http://www.w3.org/1999/xlink" x="0px" y="0px"
	 viewBox="0 0 400 200" style="enable-background:new 0 0 400 200;" xml:space="preserve">
<style type="text/css">
	.st0{opacity:0.46;fill:#FFFFFF;}
	.st1{opacity:0.24;fill:#FFFFFF;}
</style>
<path class="st0" d="M80.412,155.987c0.001-0.083-0.042-0.184-0.183-0.29c-0.002-0.002-0.004-0.005-0.006-0.007
	c-0.211-0.232-0.709-0.311-1.033-0.336c-0.145-0.031-0.282-0.056-0.416-0.074c-0.034-0.005-0.07-0.008-0.105-0.01
	c-0.136-0.043-0.266-0.078-0.393-0.105c-0.201-0.082-0.423-0.143-0.664-0.182c-0.047-0.008-0.095-0.013-0.144-0.016
	c-1.584-0.098-3.166-0.2-4.748-0.302l-0.869-0.063c-0.373-0.028-0.747-0.057-1.125-0.087c-2.187-0.17-4.393-0.345-6.555-0.521
	c-0.048-0.004-0.096-0.005-0.144-0.005c-0.355,0.006-0.71,0.01-1.065,0.013l-0.384,0.004l-3.941-0.313
	c-2.673-0.616-5.334-0.591-7.916,0.074c-2.222-0.137-3.947-0.251-5.569-0.367c-2.67-0.191-5.362-0.43-7.965-0.661
	c-0.808-0.072-1.617-0.144-2.425-0.214c-1.889-0.17-3.811-0.318-5.714-0.44c-1.905-0.121-3.846-0.198-5.752-0.227
	c-0.192-0.006-0.375,0.017-0.529,0.063c-0.079-0.002-0.155-0.003-0.225-0.005c-0.353-0.01-0.662,0.072-0.829,0.217
	c-0.021,0.018-0.041,0.039-0.059,0.061c-0.08,0.04-0.14,0.086-0.18,0.132c-0.269,0.308,0.246,0.582,0.419,0.674
	c0.005,0.003,0.01,0.005,0.015,0.008c0.007,0.003,0.014,0.007,0.021,0.011c0.017,0.066,0.064,0.139,0.157,0.218
	c0.039,0.033,0.087,0.063,0.144,0.089c0.095,0.044,0.201,0.087,0.324,0.132c0.06,0.023,0.124,0.045,0.193,0.066
	c0.012,0.004,0.024,0.008,0.036,0.012c0.195,0.066,0.404,0.122,0.62,0.167c0.022,0.005,0.044,0.008,0.067,0.012
	c0.027,0.012,0.055,0.024,0.083,0.036c0.077,0.039,0.161,0.074,0.25,0.105c0.16,0.083,0.339,0.146,0.532,0.189
	c0.088,0.02,0.183,0.031,0.278,0.032c0.297,0.005,0.595,0.012,0.892,0.02c0.109,0.107,0.265,0.198,0.459,0.266
	c0.106,0.07,0.232,0.13,0.375,0.178c0.098,0.033,0.211,0.054,0.327,0.061c0.878,0.055,1.751,0.149,2.597,0.28
	c0.015,0.002,0.03,0.005,0.044,0.006c0.568,0.069,1.135,0.158,1.707,0.268c1.156,0.201,2.317,0.439,3.44,0.669
	c0.295,0.06,0.591,0.121,0.887,0.181c1.948,0.395,3.489,0.664,4.994,0.874c2.415,0.336,4.817,0.564,7.137,0.678
	c2.192,0.108,4.478,0.161,6.923,0.161c1.063,0,2.157-0.01,3.285-0.03c0.226-0.004,0.453-0.009,0.679-0.015l0.439-0.01
	c0.354-0.006,0.708-0.012,1.062-0.02c2.534-0.055,5.1-0.153,7.582-0.247l0.478-0.018c1.982-0.085,3.994-0.159,5.99-0.219
	c0.718-0.027,1.49-0.051,2.353-0.073c1.087-0.023,1.989-0.039,2.851-0.049c0.048-0.001,0.096-0.003,0.144-0.008l0.157-0.002
	c0.144-0.002,0.288-0.004,0.446-0.006c0.456-0.008,0.722-0.155,0.82-0.29c0.106-0.146,0.046-0.282-0.068-0.395
	C80.646,156.203,80.549,156.084,80.412,155.987z"/>
<path class="st1" d="M296.512,149.916c0.073-0.159-0.177-0.306-0.511-0.428c0.005-0.11-0.119-0.223-0.37-0.33
	c-0.065-0.028-0.142-0.056-0.23-0.083c-0.243-0.093-0.595-0.172-1.051-0.237c-0.603-0.104-1.487-0.221-2.238-0.27
	c-0.076-0.006-0.151-0.01-0.226-0.016c-0.271-0.053-0.537-0.099-0.803-0.136c-0.485-0.119-1.046-0.215-1.673-0.284
	c-0.129-0.015-0.264-0.026-0.402-0.033c-5.922-0.333-10.985-0.537-15.937-0.644c-3.502-0.075-7.035-0.106-10.452-0.137
	c-1.847-0.017-3.695-0.033-5.546-0.056l-0.166-0.002c-2.598-0.092-4.761-0.174-6.802-0.256c-0.035-0.001-0.07-0.003-0.105-0.003
	l-10.417-0.294c-0.048-0.001-0.096-0.002-0.143-0.003c-1.142-0.013-2.287-0.012-3.428,0.004c0.029-0.149-0.194-0.31-0.666-0.479
	c-0.047-0.017-0.093-0.033-0.137-0.049c0.273-0.171,0.218-0.356-0.135-0.505c-0.094-0.056-0.225-0.108-0.39-0.156
	c-0.828-0.237-1.612-0.461-3.185-0.651c-0.839-0.101-1.765-0.182-2.98-0.26c-1.45-0.162-3.117-0.274-5.065-0.339
	c-0.219-0.008-0.438-0.015-0.659-0.02l-0.188-0.006c-0.008,0-0.016-0.001-0.026-0.001c-0.366-0.01-0.731-0.019-1.049-0.025
	l-0.612-0.015c-0.069-0.001-0.137-0.002-0.205-0.002h-0.262c-1.334-0.014-2.637-0.01-4.015-0.006
	c-0.519,0.001-1.044,0.003-1.576,0.004c-1.776-0.019-3.635-0.019-5.531-0.001h-1.011c-4.815,0.024-7.454,0.052-9.653,0.103
	c-3.628-0.006-6.854-0.006-9.855,0.001c-10.651,0.021-21.459,0.114-31.911,0.204c-6.205,0.053-12.622,0.109-18.928,0.149
	c-0.412,0.003-0.795,0.028-1.128,0.072l-0.842,0.004c-0.912,0.004-1.698,0.112-2.102,0.29c-0.034,0.015-0.066,0.031-0.096,0.048
	c-0.265,0.06-0.45,0.131-0.558,0.199c-0.512,0.324,0.388,0.612,1.222,0.796l0.016,0.003c0.169,0.205,0.775,0.36,1.013,0.415
	c0.446,0.101,1.836,0.36,3.209,0.421c0.082,0.015,0.165,0.031,0.248,0.045c0.177,0.038,0.365,0.073,0.562,0.104
	c0.461,0.108,0.997,0.19,1.597,0.244c0.171,0.015,0.349,0.025,0.53,0.029c13.719,0.317,27.393,0.641,40.641,0.964
	c5.938,0.148,11.918,0.289,17.779,0.419c5.031,0.177,10.168,0.235,15.278,0.17c1.721,0.073,3.169,0.13,4.491,0.177
	c5.036,0.213,10.17,0.384,15.248,0.506c7.438,0.192,15.22,0.312,23.786,0.367c10.938,0.279,22.246,0.567,33.365,0.864
	c0.105,0.003,0.208,0.004,0.309,0.004c0.35,0,0.685-0.016,0.99-0.047l0.644,0.017c1.386,0.037,2.285-0.161,2.566-0.374
	C296.96,150.228,296.807,150.061,296.512,149.916z M195.487,146.209c0.013-0.001,0.025-0.002,0.037-0.003
	c1.433,0.002,2.866,0.005,4.295,0.009c0.04,0.044,0.094,0.086,0.154,0.126C198.479,146.297,196.983,146.253,195.487,146.209z"/>
<path class="st1" d="M257.902,142.261c-0.061,0.229,0.147,0.441,0.424,0.617c-0.004,0.158,0.099,0.321,0.307,0.476
	c0.054,0.04,0.118,0.08,0.191,0.12c0.202,0.134,0.494,0.248,0.873,0.341c0.501,0.15,1.235,0.319,1.859,0.389
	c0.063,0.008,0.125,0.015,0.188,0.023c0.225,0.077,0.446,0.142,0.667,0.196c0.403,0.171,0.869,0.309,1.389,0.409
	c0.107,0.021,0.219,0.037,0.334,0.048c4.918,0.479,9.123,0.773,13.235,0.927c2.908,0.108,5.842,0.153,8.68,0.197
	c1.534,0.024,3.069,0.047,4.606,0.08l0.138,0.003c2.158,0.132,3.954,0.25,5.649,0.369c0.029,0.002,0.058,0.004,0.087,0.005
	l8.651,0.423c0.04,0.002,0.08,0.003,0.119,0.004c0.948,0.019,1.899,0.017,2.847-0.006c-0.024,0.215,0.161,0.446,0.553,0.69
	c0.039,0.024,0.077,0.047,0.114,0.07c-0.227,0.246-0.181,0.513,0.112,0.728c0.078,0.08,0.187,0.156,0.324,0.224
	c0.688,0.342,1.339,0.664,2.645,0.937c0.697,0.145,1.466,0.262,2.475,0.374c1.204,0.234,2.589,0.394,4.206,0.488
	c0.182,0.012,0.364,0.021,0.547,0.029l0.156,0.008c0.007,0,0.013,0.001,0.022,0.001c0.304,0.015,0.607,0.028,0.871,0.036
	l0.508,0.021c0.057,0.002,0.114,0.003,0.17,0.003h0.218c1.108,0.02,2.19,0.014,3.334,0.008c0.431-0.002,0.867-0.005,1.309-0.006
	c1.475,0.027,3.019,0.028,4.593,0.002h0.84c3.999-0.034,6.19-0.075,8.017-0.149c3.013,0.008,5.692,0.008,8.184-0.001
	c8.845-0.03,17.821-0.164,26.501-0.294c5.153-0.077,10.482-0.157,15.719-0.214c0.342-0.004,0.66-0.04,0.937-0.104l0.699-0.006
	c0.757-0.006,1.41-0.162,1.746-0.417c0.028-0.021,0.055-0.044,0.08-0.069c0.22-0.087,0.374-0.189,0.463-0.287
	c0.425-0.466-0.322-0.882-1.015-1.146l-0.013-0.005c-0.14-0.295-0.644-0.519-0.841-0.597c-0.37-0.146-1.525-0.519-2.665-0.606
	c-0.068-0.022-0.137-0.044-0.206-0.065c-0.147-0.055-0.303-0.105-0.467-0.15c-0.383-0.156-0.828-0.273-1.326-0.351
	c-0.142-0.022-0.29-0.036-0.44-0.042c-11.393-0.456-22.749-0.923-33.751-1.389c-4.931-0.213-9.898-0.416-14.765-0.603
	c-4.178-0.255-8.444-0.338-12.688-0.245c-1.429-0.105-2.632-0.187-3.73-0.255c-4.182-0.307-8.446-0.553-12.663-0.729
	c-6.177-0.276-12.64-0.449-19.754-0.529c-9.084-0.402-18.475-0.817-27.709-1.244c-0.087-0.004-0.173-0.006-0.257-0.006
	c-0.291,0-0.569,0.023-0.822,0.067l-0.535-0.025c-1.151-0.053-1.898,0.232-2.131,0.539
	C257.53,141.812,257.657,142.052,257.902,142.261z M341.801,147.6c-0.011,0.001-0.021,0.003-0.031,0.004
	c-1.19-0.003-2.38-0.007-3.567-0.013c-0.033-0.063-0.078-0.124-0.128-0.181C339.316,147.474,340.558,147.537,341.801,147.6z"/>
</svg>
