<?xml version="1.0" encoding="utf-8"?>
<!-- Generator: Adobe Illustrator 22.0.1, SVG Export Plug-In . SVG Version: 6.00 Build 0)  -->
<svg version="1.1" id="Layer_1" xmlns="http://www.w3.org/2000/svg" xmlns:xlink="http://www.w3.org/1999/xlink" x="0px" y="0px"
	 viewBox="0 0 180 20" style="enable-background:new 0 0 180 20;" xml:space="preserve">
<style type="text/css">
	.st0{fill:#FFFFFF;}
</style>
<g>
	<g>
		<polygon class="st0" points="48.669,15.829 48.915,1.818 46.24,2.106 45.906,0.37 54.487,0.759 54.133,1.573 51.224,1.706 
			49.744,16.075 		"/>
		<g>
			<path class="st0" d="M61.165,14.188c-0.474,0.321-1.385,0.59-2.294,0.721c-3.81,0.55-5.389-2.3-5.833-4.856
				c-0.556-3.205,0.418-6.01,3.048-6.39c0.098-0.014,0.225-0.01,0.322-0.023c2.666-0.178,3.736,1.781,4.141,4.111
				c0.082,0.471,0.108,0.766,0.16,1.355l-6.275,0.423c0.505,3.488,2.346,3.934,3.87,3.852c0.123-0.018,0.25-0.014,0.373-0.03
				c0.787-0.113,1.345-0.378,1.729-0.64L61.165,14.188z M58.724,7.831c-0.354-2.039-1.312-3.211-2.592-3.025
				c-1.45,0.209-1.801,1.96-1.631,3.521L58.724,7.831z"/>
			<path class="st0" d="M67.91,19.567l0.721-5.594l-0.074-0.01c-0.508,0.754-1.685,1.434-3.013,1.243
				c-3.12-0.451-3.462-3.854-2.983-6.611c0.61-3.518,2.897-5.073,4.838-4.792c0.934,0.135,1.848,0.68,2.316,1.897l0.048,0.007
				l0.027-2.04l2.148,0.976l-0.574,3.293l-2.111,11.435L67.91,19.567z M69.26,8.459c0.21-1.647-0.494-3.104-1.797-3.293
				c-1.598-0.231-2.648,1.316-3.014,3.424c-0.32,1.837-0.171,4.754,1.992,5.067c0.836,0.12,2.271-0.453,2.502-2.51L69.26,8.459z"/>
		</g>
	</g>
</g>
<g>
	<path class="st0" d="M119.797,5.317v5.091c-0.005,0.501-0.114,0.94-0.333,1.313s-0.528,0.657-0.926,0.858
		c-0.398,0.201-0.855,0.299-1.371,0.299c-0.785,0-1.415-0.214-1.888-0.643c-0.474-0.427-0.717-1.021-0.734-1.779V5.317h0.625v5.046
		c0,0.628,0.179,1.115,0.538,1.461c0.359,0.346,0.845,0.52,1.459,0.52c0.614,0,1.102-0.173,1.458-0.521
		c0.356-0.35,0.535-0.833,0.535-1.455V5.317H119.797z"/>
	<path class="st0" d="M125.342,10.061c0,0.864-0.19,1.549-0.572,2.056c-0.383,0.508-0.895,0.761-1.537,0.761
		c-0.759,0-1.339-0.267-1.742-0.799v2.826h-0.611V7.233h0.569l0.031,0.784c0.4-0.591,0.978-0.886,1.736-0.886
		c0.663,0,1.183,0.251,1.561,0.753c0.376,0.501,0.565,1.199,0.565,2.089C125.342,9.973,125.342,10.061,125.342,10.061z
		 M124.728,9.954c0-0.708-0.145-1.265-0.435-1.675c-0.29-0.41-0.694-0.614-1.213-0.614c-0.376,0-0.699,0.091-0.969,0.272
		c-0.27,0.181-0.477,0.444-0.619,0.79v2.658c0.147,0.318,0.355,0.56,0.629,0.728c0.273,0.167,0.597,0.251,0.967,0.251
		c0.517,0,0.919-0.207,1.206-0.617C124.584,11.332,124.728,10.735,124.728,9.954z"/>
	<path class="st0" d="M125.93,9.954c0-0.862,0.193-1.547,0.577-2.058c0.384-0.509,0.906-0.765,1.564-0.765
		c0.748,0,1.317,0.295,1.711,0.886V4.908h0.611v7.868h-0.574l-0.026-0.739c-0.393,0.56-0.97,0.841-1.731,0.841
		c-0.639,0-1.154-0.258-1.544-0.771c-0.392-0.514-0.588-1.208-0.588-2.083C125.93,10.023,125.93,9.954,125.93,9.954z M126.55,10.061
		c0,0.707,0.142,1.264,0.424,1.672c0.282,0.409,0.682,0.611,1.197,0.611c0.754,0,1.291-0.333,1.609-0.998V8.743
		c-0.318-0.72-0.85-1.08-1.598-1.08c-0.515,0-0.916,0.202-1.203,0.608C126.693,8.674,126.55,9.271,126.55,10.061z"/>
	<path class="st0" d="M134.979,12.776c-0.062-0.174-0.1-0.432-0.119-0.773c-0.214,0.279-0.488,0.495-0.821,0.648
		c-0.333,0.153-0.685,0.227-1.058,0.227c-0.534,0-0.964-0.15-1.294-0.446c-0.33-0.296-0.494-0.673-0.494-1.126
		c0-0.54,0.225-0.966,0.674-1.28c0.449-0.313,1.075-0.472,1.878-0.472h1.112V8.924c0-0.396-0.122-0.708-0.366-0.933
		c-0.244-0.227-0.6-0.341-1.068-0.341c-0.426,0-0.781,0.108-1.061,0.327c-0.281,0.219-0.42,0.481-0.42,0.79l-0.614-0.006
		c0-0.44,0.205-0.821,0.614-1.145c0.41-0.322,0.915-0.483,1.51-0.483c0.619,0,1.106,0.156,1.463,0.464
		c0.356,0.309,0.541,0.739,0.551,1.293v2.623c0,0.537,0.056,0.936,0.168,1.203v0.062h-0.656
		C134.979,12.777,134.979,12.776,134.979,12.776z M133.052,12.336c0.41,0,0.776-0.099,1.1-0.298
		c0.322-0.197,0.557-0.463,0.703-0.795v-1.219h-1.097c-0.611,0.008-1.089,0.119-1.435,0.336c-0.346,0.218-0.517,0.515-0.517,0.893
		c0,0.31,0.116,0.569,0.347,0.774C132.386,12.234,132.684,12.336,133.052,12.336z"/>
	<path class="st0" d="M137.529,5.813v1.419h1.146v0.501h-1.146v3.696c0,0.309,0.056,0.538,0.165,0.688
		c0.111,0.151,0.296,0.225,0.555,0.225c0.102,0,0.268-0.017,0.497-0.051l0.026,0.498c-0.16,0.057-0.38,0.086-0.656,0.086
		c-0.42,0-0.727-0.122-0.918-0.366s-0.287-0.605-0.287-1.078V7.736h-1.02V7.233h1.02V5.813H137.529z"/>
	<path class="st0" d="M141.568,12.878c-0.472,0-0.898-0.116-1.277-0.349c-0.381-0.231-0.677-0.555-0.889-0.972
		c-0.213-0.415-0.318-0.879-0.318-1.395V9.942c0-0.534,0.103-1.012,0.31-1.441c0.207-0.426,0.494-0.762,0.864-1.006
		c0.367-0.244,0.768-0.366,1.197-0.366c0.674,0,1.206,0.23,1.601,0.688c0.395,0.46,0.591,1.088,0.591,1.884v0.344h-3.953v0.117
		c0,0.628,0.179,1.151,0.54,1.571s0.813,0.628,1.361,0.628c0.329,0,0.617-0.06,0.867-0.179c0.251-0.12,0.48-0.312,0.683-0.574
		l0.384,0.292C143.079,12.552,142.425,12.878,141.568,12.878z M141.454,7.652c-0.461,0-0.85,0.168-1.165,0.508
		c-0.316,0.338-0.508,0.791-0.577,1.362h3.325V9.456c-0.017-0.534-0.168-0.967-0.457-1.302
		C142.295,7.82,141.919,7.652,141.454,7.652z"/>
	<path class="st0" d="M147.636,11.367c0-0.304-0.122-0.548-0.366-0.733c-0.245-0.185-0.612-0.329-1.105-0.434
		c-0.492-0.103-0.873-0.224-1.145-0.358c-0.272-0.134-0.474-0.298-0.605-0.494c-0.133-0.194-0.197-0.429-0.197-0.707
		c0-0.437,0.182-0.799,0.548-1.083c0.364-0.285,0.833-0.427,1.402-0.427c0.617,0,1.115,0.154,1.489,0.458
		c0.373,0.305,0.56,0.705,0.56,1.196h-0.614c0-0.324-0.136-0.594-0.407-0.808c-0.272-0.214-0.614-0.322-1.027-0.322
		c-0.403,0-0.727,0.089-0.97,0.268c-0.244,0.179-0.366,0.413-0.366,0.7c0,0.276,0.1,0.489,0.304,0.642
		c0.204,0.153,0.574,0.292,1.112,0.418c0.538,0.127,0.94,0.262,1.208,0.406c0.268,0.143,0.467,0.316,0.597,0.517
		c0.131,0.202,0.196,0.446,0.196,0.734c0,0.467-0.19,0.841-0.566,1.122c-0.378,0.281-0.87,0.42-1.478,0.42
		c-0.645,0-1.169-0.157-1.571-0.469c-0.401-0.313-0.603-0.708-0.603-1.186h0.614c0.025,0.358,0.176,0.637,0.454,0.838
		c0.279,0.199,0.646,0.299,1.105,0.299c0.426,0,0.771-0.096,1.035-0.282C147.503,11.89,147.636,11.653,147.636,11.367z"/>
</g>
<g>
	<path class="st0" d="M79.553,10.148v2.627h-1.537V5.317h2.91c0.56,0,1.054,0.102,1.478,0.307s0.751,0.497,0.981,0.873
		c0.228,0.378,0.344,0.807,0.344,1.288c0,0.731-0.25,1.307-0.75,1.729c-0.5,0.423-1.193,0.633-2.078,0.633L79.553,10.148
		L79.553,10.148z M79.553,8.903h1.373c0.407,0,0.716-0.096,0.93-0.287s0.321-0.464,0.321-0.819c0-0.366-0.108-0.66-0.324-0.886
		c-0.214-0.225-0.512-0.341-0.89-0.349h-1.41C79.553,6.563,79.553,8.903,79.553,8.903z"/>
	<path class="st0" d="M87.277,8.621c-0.202-0.028-0.38-0.04-0.534-0.04c-0.56,0-0.929,0.19-1.102,0.568v3.627h-1.479V7.233h1.396
		l0.042,0.66c0.296-0.509,0.708-0.764,1.234-0.764c0.164,0,0.318,0.023,0.461,0.066L87.277,8.621z"/>
	<path class="st0" d="M87.047,9.953c0-0.549,0.106-1.04,0.318-1.47c0.213-0.43,0.517-0.764,0.915-0.998s0.861-0.353,1.385-0.353
		c0.747,0,1.358,0.228,1.831,0.687c0.474,0.458,0.737,1.08,0.793,1.865l0.009,0.38c0,0.85-0.236,1.532-0.711,2.047
		c-0.475,0.514-1.112,0.771-1.91,0.771c-0.801,0-1.438-0.256-1.913-0.768c-0.475-0.512-0.716-1.21-0.716-2.089V9.953H87.047z
		 M88.528,10.059c0,0.526,0.099,0.93,0.296,1.208c0.199,0.279,0.481,0.418,0.852,0.418c0.358,0,0.637-0.137,0.839-0.413
		c0.202-0.275,0.302-0.716,0.302-1.321c0-0.517-0.1-0.916-0.302-1.2s-0.484-0.426-0.85-0.426c-0.361,0-0.642,0.14-0.841,0.423
		C88.629,9.03,88.528,9.467,88.528,10.059z"/>
	<path class="st0" d="M92.455,9.963c0-0.864,0.194-1.552,0.582-2.064c0.389-0.512,0.918-0.768,1.591-0.768
		c0.54,0,0.986,0.202,1.336,0.605V4.908h1.486v7.868h-1.336l-0.073-0.589c-0.367,0.461-0.842,0.691-1.424,0.691
		c-0.653,0-1.176-0.258-1.571-0.771C92.652,11.592,92.455,10.878,92.455,9.963z M93.936,10.07c0,0.521,0.091,0.921,0.272,1.199
		c0.181,0.278,0.444,0.418,0.79,0.418c0.458,0,0.781-0.194,0.967-0.582V8.907c-0.184-0.387-0.503-0.582-0.957-0.582
		C94.292,8.325,93.936,8.907,93.936,10.07z"/>
	<path class="st0" d="M101.393,12.213c-0.366,0.444-0.87,0.666-1.517,0.666c-0.594,0-1.048-0.171-1.359-0.512
		c-0.313-0.341-0.474-0.841-0.48-1.501V7.233h1.479v3.585c0,0.579,0.264,0.867,0.79,0.867c0.501,0,0.847-0.174,1.035-0.523V7.233
		h1.486v5.543h-1.393L101.393,12.213z"/>
	<path class="st0" d="M105.724,11.685c0.275,0,0.495-0.076,0.666-0.225c0.171-0.15,0.261-0.35,0.267-0.599h1.388
		c-0.005,0.375-0.106,0.719-0.307,1.032c-0.202,0.313-0.478,0.555-0.827,0.728c-0.352,0.171-0.739,0.258-1.162,0.258
		c-0.791,0-1.416-0.251-1.874-0.756s-0.687-1.199-0.687-2.087V9.939c0-0.855,0.227-1.535,0.682-2.044
		c0.454-0.509,1.077-0.764,1.87-0.764c0.693,0,1.25,0.197,1.666,0.592c0.418,0.393,0.631,0.919,0.639,1.575h-1.388
		c-0.006-0.288-0.096-0.523-0.267-0.703c-0.17-0.181-0.396-0.27-0.676-0.27c-0.346,0-0.606,0.127-0.782,0.376
		c-0.176,0.251-0.264,0.659-0.264,1.223v0.154c0,0.571,0.088,0.981,0.261,1.231C105.104,11.56,105.369,11.685,105.724,11.685z"/>
	<path class="st0" d="M110.137,5.87v1.362h0.947v1.086h-0.947v2.766c0,0.205,0.039,0.352,0.117,0.441
		c0.079,0.089,0.228,0.133,0.45,0.133c0.164,0,0.309-0.012,0.435-0.035v1.122c-0.29,0.089-0.589,0.133-0.896,0.133
		c-1.038,0-1.567-0.525-1.587-1.574V8.319h-0.808V7.233h0.808V5.87H110.137z"/>
</g>
</svg>
