<?xml version="1.0" encoding="utf-8"?>
<!-- Generator: Adobe Illustrator 22.0.1, SVG Export Plug-In . SVG Version: 6.00 Build 0)  -->
<svg version="1.1" id="Layer_1" xmlns="http://www.w3.org/2000/svg" xmlns:xlink="http://www.w3.org/1999/xlink" x="0px" y="0px"
	 viewBox="0 0 400 175" style="enable-background:new 0 0 400 175;" xml:space="preserve">
<style type="text/css">
	.st0{fill:url(#SVGID_1_);}
	.st1{fill:url(#SVGID_2_);}
	.st2{fill:url(#SVGID_3_);}
	.st3{fill:#88A2C7;}
	.st4{fill:#F4F4F4;}
	.st5{fill:#666994;}
	.st6{fill:#BAC0DA;}
	.st7{fill:#2F3558;}
	.st8{fill:url(#SVGID_4_);}
	.st9{fill:url(#SVGID_5_);}
</style>
<linearGradient id="SVGID_1_" gradientUnits="userSpaceOnUse" x1="194.4879" y1="84.9062" x2="194.4879" y2="69.3543">
	<stop  offset="0" style="stop-color:#FFFFFF"/>
	<stop  offset="1" style="stop-color:#C3E8FA"/>
</linearGradient>
<path class="st0" d="M221.099,80.434c-0.084-0.21-0.199-0.407-0.345-0.582c-0.083-0.101-0.179-0.203-0.287-0.302
	c-0.099-0.093-0.209-0.183-0.326-0.27c-0.631-0.461-1.496-0.78-2.349-0.482c-0.058-1.539-1.773-2.247-3.604-1.539
	c-0.593-1.948-0.977-2.675-4.254-2.104c-1.007-1.557-2.694-3.375-4.711-3.811c-1.58-0.341-3.092-0.406-4.732,0.645
	c-0.942-1.751-5.599-3.987-8.037-0.688c-0.276,0.119-0.555,0.257-0.838,0.438c-1.197-2.225-8.393-5.239-9.413,3.321
	c-1.595-1.18-6.658-2.051-6.271,4.036c-0.905-0.557-2.096-0.197-3.002,0.358c-0.906,0.553-1.732,1.3-2.764,1.548
	c-1.034,0.248-2.37-0.293-2.454-1.351c-0.037,0.341-0.017,0.686,0.055,1.021c0.17,0.791,0.63,1.525,1.287,2
	c0.874,0.631,6.827,2.835,9.005,0.329c1.179,0.707,6.718,2.648,8.843,0.293c2.354,1.797,5.983,1.856,8.301-0.039
	c0.201,0.165,0.433,0.279,0.674,0.367c2.264,1.655,5.635,1.739,7.922,0.087c1.757,1.364,3.814,0.696,4.644-0.054
	c1.118,0.544,2.564,0.436,3.52-0.377c2.225,2.67,5.412,1.083,5.711,0.15c0.959,0.579,2.322,0.361,3.053-0.488
	C221.308,82.262,221.434,81.25,221.099,80.434z"/>
<g>
	
		<linearGradient id="SVGID_2_" gradientUnits="userSpaceOnUse" x1="219.1107" y1="-388.0234" x2="219.1107" y2="-382.0988" gradientTransform="matrix(1 0 0 1 0 470)">
		<stop  offset="0" style="stop-color:#FFFFFF"/>
		<stop  offset="1" style="stop-color:#C3E8FA"/>
	</linearGradient>
	<path class="st1" d="M227.549,87.138c-0.283,0.329-0.81,0.413-1.182,0.189c-0.116,0.361-1.349,0.975-2.21-0.058
		c-0.464,0.395-1.232,0.367-1.666-0.062c-0.321,0.406-0.986,0.477-1.386,0.15c-1.014,0.83-2.679,0.693-3.544-0.291
		c-0.319,0.343-0.956,0.294-1.219-0.092c-0.407,0.515-1.276,0.567-1.742,0.106c-0.705,1.25-3.258,0.31-3.616,0.051
		c-0.255-0.184-0.432-0.468-0.498-0.774c-0.028-0.13-0.036-0.264-0.021-0.395c0.032,0.41,0.55,0.619,0.95,0.523
		s0.719-0.385,1.07-0.599c0.351-0.215,0.812-0.354,1.162-0.139c-0.15-2.356,1.81-2.019,2.427-1.562
		c0.395-3.313,3.18-2.147,3.643-1.285c0.635-0.407,1.22-0.381,1.832-0.25c0.781,0.169,1.434,0.872,1.823,1.475
		c1.268-0.221,1.417,0.061,1.646,0.814c0.709-0.274,1.373,0,1.395,0.596c0.33-0.115,0.665,0.008,0.909,0.186
		c0.045,0.034,0.088,0.069,0.126,0.104c0.042,0.038,0.079,0.077,0.111,0.117c0.056,0.068,0.101,0.144,0.134,0.225
		C227.823,86.484,227.774,86.876,227.549,87.138z"/>
	
		<linearGradient id="SVGID_3_" gradientUnits="userSpaceOnUse" x1="219.125" y1="-386.5725" x2="219.125" y2="-382.0988" gradientTransform="matrix(1 0 0 1 0 470)">
		<stop  offset="0" style="stop-color:#CDE8F7"/>
		<stop  offset="1" style="stop-color:#86C6EB"/>
	</linearGradient>
	<path class="st2" d="M227.549,87.138c-0.283,0.329-0.81,0.413-1.182,0.189c-0.116,0.361-1.349,0.975-2.21-0.058
		c-0.464,0.395-1.232,0.367-1.666-0.062c-0.321,0.406-0.986,0.477-1.386,0.15c-1.014,0.83-2.679,0.693-3.544-0.291
		c-0.319,0.343-0.956,0.294-1.219-0.092c-0.407,0.515-1.276,0.567-1.742,0.106c-0.705,1.25-3.258,0.31-3.616,0.051
		c-0.255-0.184-0.432-0.468-0.498-0.774c0.649,0.674,2.623,0.956,3.039,0.792c0.567-0.223,0.604-1.034,0.552-1.585
		c0.795,1.583,1.956,0.981,2.257,0.502c0.38-0.605-0.099-1.375,0.062-2.038c0.081-0.336,0.391-0.65,0.732-0.594
		c-0.225,0.089-0.518,0.493-0.369,0.683c0.268,0.341,0.858,0.115,1.283-0.2c-0.301,0.509-1.114,0.586-1.134,1.241
		c-0.012,0.397,0.108,0.751,0.503,0.721c0.395-0.031,0.892-0.389,1.258-0.555c-0.629,0.578-0.592,1.108-0.124,1.455
		s1.145-0.04,1.245-0.614c0.093,0.57,0.935,0.999,1.442,0.723c-0.532-0.343-0.832-1.014-0.732-1.638
		c0.103,0.511,0.792,1.027,1.28,0.846c0.489-0.182,0.652-1.014,0.397-1.468c0.525,0.477,0.587,1.379,0.131,1.922
		c0.793,0.224,1.541-0.496,1.346-1.297c0.305,0.495,0.303,1.161-0.005,1.654c0.539-0.118,0.908-0.738,0.754-1.267
		c0.281,0.41,0.172,0.827,0.384,1.136c0.212,0.308,0.561,0.445,0.913,0.315c0.351-0.131,0.369-0.434,0.181-0.894
		c0.279,0.382,0.605,0.618,0.986,0.475c0.363-0.136,0.571-0.583,0.454-0.949c-0.006-0.019-0.013-0.037-0.02-0.056
		c0.051,0.051,0.1,0.104,0.147,0.16c0.09,0.106,0.173,0.221,0.245,0.342C227.823,86.484,227.774,86.876,227.549,87.138z"/>
</g>
<g>
	<path class="st3" d="M159.667,94.917c1.353,0.889,6.516-2.748,7.812-2.358c3.68,1.104,8.003,0.336,11.365-0.05
		c10.208-1.191,0.997,6.576,10.146,5.374c2.579-0.334,5.049-0.668,7.375-0.99c2.502-0.349,4.837-0.686,6.957-1.004
		c0.456-0.067,0.903-0.135,1.338-0.204c0.62-0.092,1.222-0.185,1.798-0.277c17.427-2.597,31.942,3.608,22.725-1.846
		c0.269-1.187,6.517-0.581,5.066-1.242c-0.286-0.127-0.724-2.577-1.072-2.646c-0.755-0.152-1.661-1.594-2.47-1.668
		c-0.983-0.092-1.719-0.575-2.53-0.975c-0.809-0.396-1.868-0.733-2.87-0.393c-0.401,0.138-0.786,0.389-1.202,0.385
		c-0.744-0.004-0.958-0.774-1.207-1.357c-0.41-0.953-1.314-1.667-2.33-2.321c-0.365-0.235-0.746-0.462-1.121-0.686
		c-1.171-0.701-2.351-1.442-3.545-2.227c0,0-0.002,0-0.002-0.002c-0.668-0.439-1.133-1.05-1.498-1.755
		c-0.228-0.437-0.482-0.981-0.987-1.074c-0.163-0.03-0.328-0.004-0.487-0.052c-0.232-0.07-0.392-0.28-0.563-0.453
		c-0.517-0.519-1.307-0.794-1.994-0.671c-0.112,0.019-0.225,0.05-0.338,0.053c-0.052,0.002-0.105-0.001-0.158-0.014
		c-0.613-0.15-0.608-1.253-1.223-1.43c-0.349-0.098-0.619,0.193-0.918,0.341c-0.386,0.191-0.866,0.132-1.318,0.121
		c-0.45-0.008-0.945,0.061-1.185,0.437c-0.136,0.214-0.174,0.503-0.35,0.682c-0.223,0.232-0.599,0.206-0.876,0.367
		c-0.302,0.178-0.453,0.562-0.732,0.782c-0.321,0.252-0.775,0.257-1.081,0.533c-0.142,0.13-0.242,0.31-0.363,0.463
		c-0.262,0.336-0.633,0.561-1.036,0.622c-0.111,0.018-0.23,0.023-0.317,0.1c-0.121,0.107-0.142,0.311-0.205,0.476
		c-0.136,0.357-0.488,0.529-0.829,0.552c-0.341,0.025-0.687-0.072-1.03-0.101c-0.289-0.024-0.572,0.001-0.854,0.04
		c-0.399,0.053-0.796,0.133-1.2,0.139c-0.691,0.013-1.486-0.284-1.865-1.076c-0.277-0.578-0.726-0.984-1.211-1.28
		s-0.999-0.531-1.435-0.962c-0.39-0.388-0.729-0.938-1.193-1.112c-0.379-0.142-0.748,0.009-1.1,0.133
		c-0.662,0.229-1.438,0.336-2.084-0.221c-0.298-0.255-0.536-0.629-0.78-0.984c-0.799-1.173-1.836-2.33-2.948-2.438
		c-0.43-0.041-0.856,0.084-1.284-0.101c-0.024-0.009-0.048-0.021-0.072-0.033c-0.341-0.173-0.639-0.544-0.978-0.747
		c-0.72-0.434-1.418-0.023-2.061,0.288c-0.688,0.33-1.427,0.53-2.192,0.581c-0.47,0.034-0.967,0.015-1.366,0.285
		c-0.29,0.195-0.551,0.553-0.907,0.444c-0.361-0.474-0.922-0.14-1.21,0.24c-0.289,0.376-0.504,0.911-0.894,1.064
		c-0.363,0.145-0.802-0.085-1.196-0.065c-0.177,0.01-0.351,0.113-0.471,0.278c-0.147,0.209-0.213,0.515-0.098,0.846
		c-1.154,0.439-2.526-1.577-3.829-1.81c-1.031-0.181-1.868,0.858-2.913,0.421c-0.406-0.684-3.905-1.811-3.912-1.818
		c0-0.001-6.502,0.702-6.672,0.962c-0.167,0.26-0.456,0.241-0.702,0.32c-1.351,0.43-1.294,3.946-2.613,4.425
		c-0.438,0.156-1.047-0.003-1.198,0.701c-0.075,0.349-0.004,0.824-0.023,1.226c-0.039,0.831-0.417,1.201-0.82,1.546
		c-0.398,0.338-0.817,0.66-0.968,1.379c-0.093,0.447-0.067,1.011-0.097,1.526c-0.061,0.972-0.339,1.755-0.763,2.192
		c-0.133,0.139-0.283,0.245-0.443,0.307c-0.34,0.133-0.77,0.148-0.867,0.746c-0.052,0.315,0.005,0.718,0.031,1.098
		c0.084,1.221-2.629,3.792-2.806,4.804C146.611,93.737,159.495,92.263,159.667,94.917z"/>
	<path class="st4" d="M195.79,82.384c1.297-0.649,2.829-0.603,4.185,0.019c-0.192-0.557-0.489-1.068-0.864-1.489
		c0.615,0.197,1.158,0.756,1.406,1.449c0.058,0.16,0.108,0.336,0.224,0.439c0.182,0.162,0.431,0.073,0.652,0.096
		c0.342,0.034,0.622,0.334,0.908,0.559c0.289,0.224,0.687,0.375,0.948,0.131c-0.346-0.78-0.86-1.475-1.486-2.008
		c-0.335-0.288-0.762-0.776-0.532-1.149c1.113,0.474,2.079,1.419,2.643,2.578c0.073,0.151,0.141,0.32,0.114,0.486
		c-0.017,0.105-0.072,0.212-0.035,0.314c0.05,0.139,0.222,0.135,0.328,0.221c0.206,0.168,0.047,0.577-0.192,0.651
		c-0.241,0.075-0.491-0.048-0.736-0.108c-0.758-0.191-1.703,0.279-1.981,1.483c0.574,0.003,1.145,0.052,1.712,0.141
		c-0.292,0.285-0.558,0.611-0.791,0.97c0.28-0.012,0.564,0.069,0.81,0.231c-0.439,0.882-0.161,1.089,0.027,1.367
		c0.234,0.345,0.334,0.821,0.267,1.27c0.387-0.156,0.134,1.159,0.485,0.895c0.685-0.51,0.972,0.908,1.193,0.774
		c0.477-0.279,0.401,0.46,0.556,1.042c0.15,0.58,1.054,0.654,0.923,1.272c2.532-0.758,5.077-0.278,7.617-0.715
		c0.396-0.065,0.82-0.164,1.138-0.471c0.007-0.006,0.013-0.012,0.018-0.018c0.303-0.313,0.414-0.863,0.116-1.073
		c-0.139-0.1-0.363-0.137-0.378-0.324c-0.009-0.103,0.054-0.207,0.102-0.308c0.254-0.523,0.032-1.168-0.457-1.339
		c-0.086-0.03-0.185-0.054-0.221-0.138c-0.038-0.09,0.015-0.202,0.038-0.304c0.077-0.341-0.197-0.62-0.484-0.772
		c-0.285-0.151-0.619-0.262-0.789-0.549c-0.175-0.294-0.12-0.689-0.06-1.046c-0.46,0.028-1.06-0.047-1.135-0.522
		c-0.022-0.145,0.015-0.298,0.006-0.446c-0.026-0.418-0.516-0.714-0.89-0.532c0.029-0.237,0.154-0.46,0.338-0.603
		c-0.441-0.143-0.92-0.325-1.143-0.756c-0.223-0.43,0.069-1.125,0.529-1.03c-0.673-0.269-1.302-0.679-1.845-1.205
		c0.527-0.256,1.037-0.537,1.549-0.81c0.121-0.065,0.242-0.128,0.363-0.19c0.704-0.368,1.415-0.72,2.06-1.153
		c-0.453-0.081-0.927,0.036-1.264,0.32c-0.147,0.124-0.331,0.29-0.51,0.195c-0.051-0.028-0.089-0.072-0.124-0.115
		c-0.684-0.809-1.509-2.431-1.158-3.476c0.019-0.055,0.039-0.107,0.06-0.158c-0.052,0.002-0.105-0.001-0.158-0.014
		c-0.613-0.15-0.608-1.253-1.223-1.43c-0.349-0.098-0.619,0.193-0.918,0.341c-0.386,0.191-0.866,0.132-1.318,0.121
		c-0.45-0.008-0.945,0.061-1.185,0.437c-0.136,0.214-0.174,0.503-0.35,0.682c-0.223,0.232-0.599,0.206-0.876,0.367
		c-0.302,0.178-0.453,0.562-0.732,0.782c-0.321,0.252-0.775,0.257-1.081,0.533c-0.142,0.13-0.242,0.31-0.363,0.463
		c-0.262,0.336-0.633,0.561-1.036,0.622c-0.111,0.018-0.23,0.023-0.317,0.1c-0.121,0.107-0.142,0.311-0.205,0.476
		c-0.136,0.357-0.488,0.529-0.829,0.552c-0.341,0.025-0.687-0.072-1.03-0.101c-0.289-0.024-0.572,0.001-0.854,0.04
		C197.075,81.213,196.028,81.4,195.79,82.384z"/>
	<path class="st4" d="M168.259,82.12c1.004-0.349,2.357,0.84,3.15-0.064c0.07-0.079,0.135-0.176,0.226-0.201
		c0.217-0.065,0.452,0.285,0.688,0.37c0.517,0.184,0.697-0.895,1.162-1.104c0.54-0.238,1.213,0.739,1.771,0.576
		c-0.233-0.518-0.497-1.011-0.786-1.47c0.745-0.302,1.634-0.087,2.401,0.556c-0.313-0.409-0.626-0.821-0.94-1.236
		c-0.168-0.223-0.36-0.572-0.263-0.811c0.038-0.09,0.111-0.132,0.184-0.154c0.48-0.159,1.037,0.238,1.504,0.704
		c0.467,0.467,0.907,1.031,1.412,1.314c0.501,0.284,1.019,0.27,1.528,0.417s1.071,0.534,1.3,1.238
		c0.123,0.385,0.153,0.857,0.386,1.113c0.27,0.297,0.603,0.085,0.911,0.064c0.481-0.04,0.956,0.4,1.393,0.791
		c1.181,1.065,2.396,1.946,3.633,2.649c0.088-0.2-0.038-0.492-0.19-0.631c-0.154-0.136-0.336-0.197-0.475-0.364
		c-0.356-0.424-0.245-1.239-0.519-1.775c-0.126-0.245-0.318-0.405-0.458-0.636c-0.232-0.378-0.29-0.889-0.379-1.359
		c-0.201-1.068-0.623-2.09-1.207-2.919c-0.127-0.181-0.265-0.36-0.351-0.583c-0.118-0.317-0.11-0.666-0.151-1.003
		c-0.174-1.442-1.276-2.611-1.543-4.071c-0.058-0.318-0.116-0.651-0.185-0.987c-0.024-0.009-0.048-0.021-0.072-0.033
		c-0.341-0.173-0.639-0.544-0.978-0.747c-0.033-0.019-0.063-0.035-0.096-0.051c-0.685-0.347-1.351,0.042-1.966,0.339
		c-0.688,0.33-1.427,0.53-2.192,0.581c-0.47,0.034-0.967,0.015-1.366,0.285c-0.29,0.195-0.551,0.553-0.907,0.444
		c-0.361-0.474-0.922-0.14-1.21,0.24c-0.289,0.376-0.504,0.911-0.894,1.064c-0.363,0.145-0.802-0.085-1.196-0.065
		c-0.177,0.01-0.351,0.113-0.471,0.278c0.002,0.15,0.005,0.298,0.011,0.45c0.007,0.26,0.015,0.517,0.024,0.775
		c-0.461-0.181-0.914,0.107-1.079,0.698c-0.049,0.181-0.061,0.441,0.054,0.603c0.075,0.106,0.175,0.125,0.264,0.138
		c0.545,0.081,1.089,0.161,1.631,0.241c-0.028,0.951-0.529,1.677-1.154,1.655c0.733,0.04,1.464,0.076,2.194,0.113
		c-0.106,0.835-0.58,1.426-1.149,1.421c-0.324-0.006-0.659-0.187-0.991-0.326c-0.606-0.256-1.22-0.381-1.811-0.361
		c-0.327,0.009-0.663,0.073-0.874,0.402C168.017,81.017,167.994,81.694,168.259,82.12z"/>
	<path class="st4" d="M148.229,82.538c0.017,0.132,0.057,0.264,0.104,0.39c0.303,0.815,0.878,1.369,1.294,1.243
		s0.63-0.901,0.483-1.747c0.385,0.805,0.985,0.566,1.291,0.064c0.305-0.499,0.611-1.182,1.121-0.945
		c0,0.815,1.149,4.655,1.511,4.321c0.361-0.339,0.051-4.289,0.083-5.072c0.026-0.794,0.047-1.654,0.366-2.088
		c0.099,0.511,0.457,0.96,0.726,0.91c0.151-0.027,0.266-0.183,0.421-0.202c0.549-0.061,0.97,1.412,1.528,1.992
		c0.366,0.381,0.754,0.331,1.134,0.462c0.381,0.131,0.857,0.649,0.882,1.284c-0.787,1.409-1.566,1.826-1.921,2.499
		c-0.712,1.365-0.489,2.077-0.524,2.49c0.357,0.519,2.65-0.255,2.976,0.364c0.511,0.961-0.267,2.134,0.106,3.26
		c0.169-0.544,0.241-1.216,0.197-1.923c-0.014-0.225,0.154-0.459,0.2-0.642c0.115-0.448,0.939-0.216,1.163-0.488
		c-0.001-0.002,0.497-1.445,0.813-2.393c0.92-2.757,2.203-3.467,2.957-5.008c0.226-0.455,0.363-0.56,0.561-1.052
		c0.199-0.488,0.243-1.224-0.004-1.845c-0.651-0.097-1.182,0.618-1.213,1.65c-0.299-0.711-0.901-0.28-1.361-0.675
		c-0.515-0.44-0.567-1.562-0.68-2.433c-0.096-0.733-1.872-3.718-2.084-4.434c-6.5-0.5-7.127,1.202-7.373,1.281
		c-1.351,0.43-1.294,3.946-2.613,4.425c-0.438,0.156-1.047-0.003-1.198,0.701c-0.075,0.349-0.004,0.824-0.023,1.226
		c-0.039,0.831-0.417,1.201-0.82,1.546c-0.007,0.067-0.016,0.129-0.028,0.192C148.264,82.095,148.198,82.286,148.229,82.538z"/>
	<path class="st4" d="M216.138,81.849c0.33,0.412,0.761,0.765,0.939,1.238c0.053,0.139,0.094,0.303,0.235,0.373
		c0.108,0.055,0.243,0.034,0.369,0.026c0.347-0.022,0.699,0.066,0.986,0.234c0.187,0.111,0.345,0.255,0.501,0.395
		c1.184,1.068,2.351,2.069,3.501,3.002c0.169-0.297,0.093-0.656-0.179-0.845c-0.076-0.053-0.167-0.094-0.221-0.164
		c-0.106-0.135-0.05-0.326-0.044-0.497c0.043-0.877-1.231-1.485-1.652-2.257c-0.001-0.003-0.003-0.005-0.004-0.008
		c-0.365-0.235-0.746-0.462-1.121-0.686c-1.171-0.701-2.351-1.442-3.545-2.227c0,0-0.002,0-0.002-0.002
		c-0.017-0.001-0.031-0.002-0.048-0.004C215.575,80.855,215.81,81.438,216.138,81.849z"/>
	<path class="st5" d="M188.768,79.736c0.438,0.447,0.99,0.513,1.492,0.748c0.075,0.035,0.153,0.078,0.202,0.163
		c0.096,0.164,0.035,0.381,0.041,0.578c0.015,0.437,0.356,0.749,0.649,0.977s0.626,0.559,0.612,0.989
		c0.325,0.083,0.614,0.454,0.69,0.883c0.015,0.088,0.019,0.192-0.03,0.245c-0.044,0.047-0.109,0.033-0.167,0.018
		c-0.295-0.08-0.59-0.162-0.886-0.244c-0.034-0.009-0.072-0.023-0.09-0.064c-0.018-0.04-0.009-0.087-0.009-0.131
		c-0.003-0.16-0.139-0.278-0.258-0.284c-0.119-0.006-0.226,0.061-0.34,0.092c-0.114,0.03-0.255,0.01-0.331-0.125
		c-0.069-0.122-0.081-0.324-0.187-0.365c-0.052-0.02-0.106,0.014-0.158-0.005c-0.076-0.027-0.115-0.145-0.166-0.231
		c-0.126-0.21-0.349-0.237-0.533-0.2s-0.37,0.117-0.558,0.043c0.048-0.367-0.107-0.795-0.36-0.996
		c-0.103-0.081-0.224-0.134-0.296-0.266c-0.035-0.064-0.055-0.141-0.063-0.217c-0.04-0.36,0.21-0.67,0.47-0.586
		c0.061-0.216,0.174-0.394,0.322-0.504c0.053-0.039,0.111-0.072,0.145-0.138c0.034-0.066,0.031-0.179-0.025-0.229
		c-0.027-0.023-0.059-0.027-0.089-0.029c-0.149-0.013-0.299-0.027-0.448-0.04"/>
	<path class="st5" d="M186.158,77.143c0.007,0.183-0.019,0.36-0.076,0.514c-0.023,0.061-0.051,0.122-0.049,0.195
		c0.005,0.194,0.191,0.293,0.33,0.359c0.49,0.234,0.898,0.873,0.988,1.549c0.026,0.196,0.027,0.4-0.026,0.571
		c-0.044,0.141-0.121,0.252-0.179,0.381c-0.151,0.342-0.155,0.787-0.155,1.213c-0.2,0.084-0.393-0.264-0.472-0.562
		c-0.138-0.526-0.191-1.102-0.45-1.551c-0.125-0.217-0.289-0.386-0.427-0.588c-0.247-0.359-0.409-0.808-0.591-1.234
		c-0.195-0.456-0.419-0.895-0.668-1.312c-0.165-0.275-0.348-0.56-0.408-0.891c-0.055-0.306,0.023-0.615,0.182-0.784
		c0.231-0.245,0.26-0.097,0.419,0.147C185.047,75.874,185.641,76.503,186.158,77.143z"/>
	<path class="st5" d="M193.398,80.35c0.198-0.015,0.449-0.083,0.564,0.142c0.076,0.149,0.032,0.338,0.07,0.506
		c0.105,0.471,0.754,0.548,0.782,1.023c0.014,0.231-0.145,0.401-0.305,0.491c-0.088,0.049-0.199,0.144-0.153,0.262
		c0.009,0.023,0.024,0.042,0.039,0.059c0.131,0.142,0.314,0.116,0.478,0.125s0.369,0.116,0.385,0.327
		c0.011,0.143-0.073,0.258-0.158,0.342c-0.263,0.265-0.59,0.429-0.931,0.463c-0.112,0.011-0.238,0.001-0.322-0.106
		c-0.118-0.151-0.086-0.401-0.148-0.599c-0.076-0.243-0.284-0.377-0.478-0.44c-0.193-0.063-0.397-0.083-0.575-0.216
		c0.091-0.234-0.017-0.545-0.167-0.752c-0.222-0.306-0.543-0.487-0.849-0.476c-0.028,0.001-0.06,0.001-0.082-0.025
		s-0.025-0.067-0.026-0.103c-0.011-0.233-0.021-0.466-0.032-0.698c-0.012-0.264-0.023-0.531,0.024-0.778s0.163-0.473,0.345-0.556
		c0.325-0.148,0.548,0.23,0.744,0.526C192.816,80.186,193.078,80.376,193.398,80.35z"/>
	<path class="st4" d="M198.757,83.064c0.458,0.017,0.932,0.108,1.36-0.062c0.151,0.404,0.037,0.912-0.254,1.153
		c-0.201,0.166-0.457,0.203-0.673,0.34c-0.216,0.137-0.395,0.463-0.278,0.74c0.055,0.132,0.166,0.22,0.216,0.354
		c0.126,0.338-0.197,0.71-0.115,1.071c-0.343-0.497-0.876-0.787-1.392-0.751c-0.209,0.015-0.417,0.081-0.627,0.043
		c-0.235-0.043-0.446-0.214-0.668-0.334s-0.488-0.185-0.682-0.019c-0.192,0.165-0.32,0.55-0.551,0.478
		c-0.168-0.053-0.24-0.322-0.271-0.547c-0.062-0.448-0.092-0.9-0.087-1.348c0.001-0.07,0.003-0.144,0.034-0.199
		c0.03-0.054,0.083-0.079,0.132-0.1c0.276-0.121,0.607-0.228,0.854,0.006c0.313,0.297,0.318,1.004,0.676,1.172
		c0.268,0.125,0.52-0.151,0.744-0.354c0.21-0.192,0.549-0.302,0.748-0.005c0.074-0.031,0.168-0.117,0.215-0.196
		c-0.17-0.277-0.521-0.698-0.384-1.086C197.892,83.034,198.466,83.053,198.757,83.064z"/>
	<path class="st6" d="M206.207,82.27c0.378-0.38,0.76-0.755,1.078-1.184c0.11-0.148,0.216-0.307,0.367-0.404
		c0.152-0.098,0.364-0.152,0.409-0.336c0.01-0.039,0.01-0.079,0.02-0.117c0.043-0.164,0.26-0.214,0.404-0.123
		c0.144,0.092,0.212,0.278,0.211,0.448c-0.004,0.457-0.403,0.78-0.784,0.992c-0.381,0.211-0.815,0.412-0.998,0.837
		c-0.082,0.191-0.107,0.413-0.22,0.585c-0.188,0.286-0.531,0.319-0.822,0.386c-0.196,0.044-0.77,0.429-0.924,0.254
		c-0.183-0.21,0.185-0.512,0.316-0.616C205.584,82.736,205.912,82.567,206.207,82.27z"/>
	<path class="st6" d="M203.78,85.49c0.186-0.165,0.423-0.22,0.652-0.27c0.281-0.061,0.561-0.122,0.842-0.181
		c0.045-0.009,0.094-0.019,0.135,0.004c0.032,0.017,0.054,0.05,0.072,0.084c0.108,0.221,0,0.496-0.124,0.708
		c-0.124,0.211-0.273,0.44-0.245,0.694c0.017,0.158,0.087,0.359-0.028,0.447s-0.246-0.072-0.318-0.207
		c-0.125-0.231-0.339-0.475-0.561-0.382c-0.197,0.083-0.278,0.398-0.48,0.461c-0.058,0.018-0.119,0.011-0.178,0.002
		c-0.167-0.03-0.345-0.103-0.433-0.278C202.932,86.215,203.573,85.671,203.78,85.49z"/>
	<path class="st5" d="M176.996,87.843c0.117-0.154,0.103-0.515,0.008-0.775s-0.248-0.436-0.399-0.581
		c-0.385-0.369-0.826-0.654-1.092-1.305c-0.22-0.539-0.348-1.346-0.689-1.488c-0.089-0.037-0.179-0.015-0.267-0.081
		c-0.255-0.194-0.273-0.921-0.517-1.183c-0.082-0.088-0.174-0.103-0.259-0.106c-0.246-0.008-0.483,0.072-0.692,0.235
		c-0.28,0.217-0.561,0.591-0.894,0.36c-0.083-0.058-0.164-0.151-0.248-0.185c-0.139-0.056-0.258,0.062-0.364,0.177
		c-0.176,0.191-0.351,0.383-0.526,0.577c0.145,0.901,0.675,1.577,1.158,1.796c0.484,0.219,0.95,0.107,1.422,0.112
		c0.31,0.003,0.697,0.137,0.873,0.675c0.335,1.028,0.522,1.118,1.112,1.163C175.968,87.264,176.764,88.152,176.996,87.843z"/>
	<path class="st6" d="M159.877,76.538c0.052,0.007,0.11,0.017,0.157,0.079c0.08,0.106,0.08,0.285,0.122,0.432
		c0.063,0.221,0.224,0.36,0.357,0.375s0.246-0.062,0.362-0.12c0.253-0.125,0.534-0.164,0.824-0.113
		c0.097,0.017,0.198,0.045,0.293,0.131c0.235,0.214,0.34,0.681,0.407,1.081c0.15,0.894,0.276,1.791,0.375,2.688
		c-0.283,0.045-0.577-0.429-0.87-0.696c-0.523-0.477-1.065-0.288-1.539-0.076c-0.226-0.78-0.698-1.416-1.176-1.701
		c-0.603-0.36-1.042,0.301-1.536,0.071c-0.428-0.2-0.63-1.245-0.514-1.794C157.405,75.652,159.171,76.453,159.877,76.538z"/>
	<g>
		<path class="st6" d="M216.626,82.075c0.042,0.075,0.113,0.132,0.182,0.188c0.244,0.196,0.503,0.396,0.818,0.45
			c0.153,0.026,0.312,0.017,0.465,0.042c0.154,0.025,0.312,0.096,0.37,0.226c0.064,0.142-0.02,0.314-0.16,0.406
			c-0.14,0.091-0.322,0.114-0.492,0.101c-0.658-0.046-1.151-0.539-1.641-0.961c-0.143-0.123-0.301-0.246-0.492-0.28
			c-0.162-0.029-0.326,0.011-0.491,0.02c-0.522,0.04-1.482-1.492-0.552-1.621C215.509,80.536,216.302,81.503,216.626,82.075z"/>
	</g>
	<g>
		<path class="st6" d="M210.909,76.677c0.05,0.141,0.199,0.228,0.325,0.317c0.424,0.298,0.709,0.776,0.747,1.257
			c-0.194,0.021-0.393,0.041-0.588-0.007c-0.195-0.048-0.388-0.182-0.45-0.372c-0.023-0.069-0.028-0.143-0.068-0.206
			c-0.03-0.046-0.075-0.079-0.115-0.118c-0.137-0.133-0.203-0.335-0.164-0.509c0.038-0.173,0.18-0.309,0.357-0.343"/>
	</g>
	<g>
		<path class="st6" d="M212.904,81.032c-0.114,0.084-0.136,0.241-0.168,0.379c-0.11,0.463-0.455,0.868-0.9,1.057
			c-0.097-0.171-0.195-0.347-0.227-0.541c-0.031-0.194,0.019-0.412,0.174-0.524c0.056-0.041,0.125-0.067,0.167-0.122
			c0.031-0.04,0.045-0.091,0.065-0.138c0.071-0.163,0.236-0.278,0.416-0.29c0.18-0.012,0.367,0.077,0.473,0.224"/>
	</g>
	<path class="st5" d="M178.729,82.266c0.027,0.061,0.06,0.124,0.104,0.15c0.04,0.024,0.081,0.012,0.119,0
		c0.157-0.05,0.315-0.1,0.472-0.149c-0.066,0.392-0.083,0.815-0.051,1.242c0.222,0.166,0.43,0.39,0.608,0.657
		c-0.319,0.094-0.638,0.189-0.957,0.286c-0.044,0.013-0.091,0.026-0.136,0c-0.1-0.056-0.132-0.249-0.164-0.404
		c-0.032-0.154-0.129-0.341-0.217-0.288c-0.035,0.021-0.055,0.076-0.085,0.11c-0.073,0.083-0.195,0.019-0.275-0.092
		c-0.08-0.11-0.134-0.256-0.204-0.383c-0.161-0.296-0.394-0.472-0.618-0.638c-0.284-0.21-0.568-0.42-0.853-0.632
		c0.3,0.223,0.933-0.392,1.104-0.661c0.269-0.429,0.287-0.795,0.822-0.653C178.441,81.312,178.522,81.808,178.729,82.266z"/>
	<g>
		<g>
			<path class="st6" d="M213.637,92.282c-0.136-0.097-0.274-0.194-0.41-0.293c-0.122-0.088-0.258-0.179-0.405-0.151
				c-0.088,0.017-0.179,0.077-0.261,0.042c-0.036-0.016-0.064-0.047-0.09-0.08c-0.103-0.129-0.187-0.281-0.247-0.446
				c0.145-0.121,0.327-0.174,0.499-0.147c0.154,0.024,0.32,0.106,0.457,0.011c0.143-0.098,0.173-0.34,0.318-0.432
				c0.088-0.056,0.198-0.04,0.286,0.007c0.088,0.047,0.161,0.121,0.24,0.184c0.028,0.022,0.06,0.044,0.095,0.039
				c0.035-0.004,0.069-0.048,0.054-0.083c0.122,0.18,0.141,0.443,0.048,0.658c-0.027,0.062-0.063,0.122-0.077,0.189
				c-0.026,0.124,0.026,0.247,0.017,0.374c-0.007,0.089-0.075,0.42-0.144,0.436C213.934,92.612,213.71,92.335,213.637,92.282z"/>
		</g>
		<g>
			<path class="st6" d="M208.035,92.713c-0.036-0.064-0.014-0.16,0.031-0.215c0.045-0.056,0.108-0.081,0.169-0.105
				c0.004-0.116-0.11-0.165-0.198-0.203c-0.196-0.085-0.357-0.289-0.424-0.537c-0.162,0.018-0.321,0.085-0.458,0.195
				c-0.111-0.175-0.065-0.46,0.073-0.602s0.338-0.159,0.508-0.091c0.17,0.068,0.314,0.208,0.444,0.357
				c0.053,0.061,0.106,0.124,0.172,0.158c0.057,0.028,0.12,0.032,0.181,0.044c0.185,0.037,0.91,0.477,0.627,0.786
				c-0.109,0.12-0.344,0.123-0.479,0.162C208.542,92.704,208.141,92.901,208.035,92.713z"/>
		</g>
		<g>
			<path class="st6" d="M207.629,86.101c0.054,0.079,0.127,0.141,0.209,0.165s0.171,0.008,0.235-0.051
				c0.027-0.025,0.049-0.056,0.079-0.075c0.055-0.034,0.127-0.016,0.182,0.026c0.051,0.039,0.095,0.099,0.132,0.155
				c-0.043-0.176-0.111-0.361-0.275-0.399C208.107,85.903,207.606,86.069,207.629,86.101z"/>
		</g>
		<g>
			<path class="st6" d="M211.625,89.293c-0.116-0.231-0.265-0.438-0.425-0.633c-0.182-0.221-0.383-0.431-0.625-0.56
				c-0.242-0.128-0.53-0.167-0.77-0.04c-0.078-0.085-0.064-0.242,0.002-0.337c0.131-0.185,0.381-0.162,0.578-0.083
				s0.396,0.2,0.6,0.162c0.093-0.017,0.178-0.065,0.261-0.112c0.096-0.054,0.192-0.109,0.288-0.163
				c0.027-0.015,0.054-0.03,0.084-0.03c0.051,0.001,0.093,0.047,0.137,0.077c0.174,0.118,0.391-0.008,0.561-0.13
				c0.176,0.173,0.299,0.412,0.344,0.667c0.006,0.035,0.011,0.073,0.001,0.108c-0.031,0.109-0.163,0.111-0.26,0.142
				c-0.146,0.046-0.251,0.202-0.283,0.371s0.001,0.346,0.062,0.503c0.028,0.074,0.064,0.153,0.045,0.232
				c-0.019,0.078-0.085,0.126-0.145,0.168c-0.068,0.047-0.138,0.095-0.215,0.112c-0.077,0.018-0.165-0.001-0.216-0.07
				C211.64,89.55,211.633,89.422,211.625,89.293z"/>
		</g>
		<g>
			<path class="st6" d="M210.276,89.99c-0.34,0.034-0.725,0.052-0.974-0.231c-0.046-0.052-0.093-0.118-0.156-0.116
				c-0.045,0.002-0.083,0.038-0.125,0.058c-0.167,0.083-0.341-0.099-0.451-0.275c-0.081-0.129-0.156-0.264-0.225-0.404
				c-0.045-0.093-0.09-0.194-0.087-0.301c0.006-0.182,0.157-0.319,0.307-0.319c0.15-0.001,0.291,0.107,0.392,0.241
				c0.101,0.135,0.172,0.297,0.249,0.452c0.027,0.053,0.056,0.107,0.099,0.141c0.074,0.059,0.17,0.045,0.258,0.043
				c0.334-0.012,0.671,0.154,0.899,0.439c0.097,0.123,0.177,0.307,0.104,0.453c-0.045,0.09-0.138,0.134-0.226,0.136
				s-0.173-0.032-0.256-0.066C210.148,90.159,210.212,90.074,210.276,89.99z"/>
		</g>
		<g>
			<path class="st6" d="M207.006,88.282c-0.13-0.001-0.267-0.06-0.353-0.186c-0.085-0.126-0.105-0.323-0.025-0.446
				c-0.067-0.276-0.152-0.581-0.359-0.726c-0.098-0.069-0.212-0.09-0.315-0.146c-0.103-0.055-0.205-0.165-0.209-0.302
				c-0.002-0.073,0.025-0.141,0.062-0.196c0.156-0.24,0.492-0.256,0.687-0.037c0.098,0.109,0.157,0.258,0.213,0.403
				c0.02,0.052,0.04,0.105,0.043,0.161c0.003,0.05-0.009,0.098-0.012,0.147c-0.015,0.191,0.083,0.371,0.175,0.532
				c0.043,0.075,0.092,0.155,0.163,0.183c0.14,0.055,0.553-0.133,0.534,0.234C207.596,88.166,207.169,88.282,207.006,88.282z"/>
		</g>
		<g>
			<path class="st6" d="M210.135,86.15c-0.096-0.177-0.22-0.274-0.33-0.412c-0.115-0.144-0.232-0.29-0.376-0.394
				c-0.145-0.103-0.323-0.16-0.479-0.103c-0.017,0.006-0.036,0.014-0.054,0.009c-0.02-0.005-0.036-0.024-0.048-0.044
				c-0.074-0.121-0.051-0.291-0.124-0.413c-0.055-0.092-0.151-0.137-0.239-0.181c-0.285-0.141-0.587-0.392-0.623-0.747
				c-0.007-0.07-0.002-0.142,0.023-0.203c0.068-0.165,0.267-0.197,0.421-0.124c0.154,0.072,0.275,0.219,0.394,0.355
				c0.227,0.261,0.467,0.503,0.72,0.723c0.127,0.11,0.292,0.22,0.426,0.143c0.027-0.016,0.053-0.039,0.084-0.036
				c0.027,0.002,0.051,0.023,0.072,0.044c0.111,0.109,0.209,0.234,0.289,0.372c0.02,0.034,0.04,0.072,0.04,0.112
				c0.001,0.042-0.019,0.08-0.029,0.12c-0.03,0.119,0.029,0.246,0.086,0.356c0.051,0.098,0.101,0.196,0.152,0.294
				c0.033,0.063,0.067,0.137,0.048,0.205c-0.02,0.074-0.098,0.109-0.166,0.099c-0.068-0.011-0.126-0.132-0.187-0.1
				C210.171,86.258,210.147,86.173,210.135,86.15z"/>
		</g>
	</g>
	<g>
		<g>
			<path class="st6" d="M160.159,75.015c-0.016-0.043-0.02-0.088-0.028-0.131c-0.027-0.142-0.113-0.288-0.208-0.356
				c-0.031-0.022-0.063-0.037-0.09-0.071c-0.021-0.026-0.036-0.061-0.048-0.095c-0.061-0.174-0.037-0.361,0.055-0.415
				c0.091-0.055,0.238,0.029,0.328,0.186c-0.026-0.114,0.061-0.164,0.138-0.113s0.14,0.158,0.203,0.253
				c0.063,0.096,0.141,0.192,0.214,0.199c0.072,0.007,0.112-0.079,0.12-0.177c0.094,0.076,0.155,0.239,0.179,0.38
				s0.025,0.277,0.056,0.418c0.007,0.033,0.016,0.066,0.031,0.097c0.063,0.131,0.198,0.148,0.256,0.281
				c0.044,0.1,0.012,0.205-0.048,0.225c-0.06,0.019-0.136-0.023-0.205-0.073c-0.069-0.05-0.141-0.112-0.196-0.202
				c-0.045-0.073-0.075-0.159-0.116-0.237c-0.104-0.204-0.248-0.338-0.349-0.25C160.4,74.972,160.288,75.363,160.159,75.015z"/>
		</g>
		<g>
			<path class="st6" d="M157.632,86.652c0.078,0.285,0.282,0.408,0.457,0.474c0.131,0.049,0.261,0.089,0.392,0.12
				c0.045,0.011,0.106-0.011,0.093-0.087c-0.007-0.04-0.035-0.068-0.042-0.108c-0.01-0.055,0.022-0.092,0.049-0.112
				c0.113-0.084,0.226-0.168,0.339-0.251c0.024-0.018,0.049-0.035,0.076-0.032c0.077,0.011,0.142,0.177,0.217,0.172
				c0.091-0.005,0.085-0.228,0.133-0.346c0.057-0.139,0.205-0.154,0.217-0.332c0.003-0.046-0.005-0.098,0.004-0.14
				c0.012-0.052,0.046-0.076,0.065-0.12c0.019-0.044,0.007-0.137-0.028-0.14c-0.097,0.044-0.159,0.19-0.254,0.242
				c-0.128,0.069-0.28-0.045-0.421-0.126c-0.099-0.056-0.199-0.098-0.299-0.139c-0.082-0.034-0.17-0.067-0.242-0.021
				c-0.066,0.043-0.106,0.146-0.151,0.234c-0.09,0.174-0.236,0.23-0.318,0.393C157.91,86.355,157.684,86.843,157.632,86.652z"/>
		</g>
		<g>
			<path class="st6" d="M161.367,85.575c-0.015,0.046-0.032,0.094-0.06,0.114c-0.03,0.02-0.066,0.005-0.099-0.013
				c-0.206-0.109-0.409-0.279-0.596-0.501c-0.016-0.019-0.032-0.039-0.039-0.069c-0.01-0.04-0.003-0.082,0.007-0.117
				c0.146-0.526,0.601-0.48,0.797-0.939c-0.082-0.105-0.08-0.327-0.027-0.449c0.053-0.122,0.138-0.181,0.208-0.271
				c0.034-0.044,0.067-0.112,0.053-0.193c-0.009-0.051-0.033-0.091-0.055-0.131c-0.143-0.263-0.193-0.669-0.115-0.952
				c0.016-0.056,0.037-0.11,0.07-0.133c0.029-0.019,0.064-0.014,0.096-0.007c0.447,0.086,0.893,0.171,1.337,0.255
				c0.047,0.009,0.104,0.032,0.124,0.111c0.009,0.034,0.007,0.071,0.004,0.104c-0.04,0.428-0.312,0.587-0.478,0.88
				c-0.069,0.121-0.123,0.274-0.214,0.344c-0.12,0.092-0.293,0.029-0.369,0.215c-0.055,0.136-0.029,0.341-0.039,0.517
				c-0.017,0.308-0.135,0.435-0.274,0.54c-0.093,0.071-0.086,0.03-0.156,0.174C161.472,85.2,161.423,85.407,161.367,85.575z"/>
		</g>
		<g>
			<path class="st6" d="M156.145,79.346c0.064,0.165,0.163,0.347,0.274,0.366c0.075,0.013,0.13-0.056,0.2-0.07
				c0.158-0.03,0.333,0.211,0.476,0.416c0.348,0.5,0.729,0.931,1.108,1.357c0.167,0.188,0.334,0.376,0.501,0.563
				c0.04-0.202-0.124-0.449-0.264-0.613c0.088,0.014,0.175,0.027,0.263,0.041c-0.096-0.384-0.487-0.561-0.572-0.948
				c-0.049-0.223,0.014-0.478-0.113-0.644c-0.133-0.172-0.32-0.021-0.449-0.2c-0.077-0.106-0.089-0.277-0.166-0.383
				c-0.042-0.059-0.096-0.085-0.146-0.104c-0.28-0.102-0.558-0.059-0.835-0.165c-0.279-0.106-0.278-0.549-0.476-0.695
				C155.884,78.539,156.029,79.042,156.145,79.346z"/>
		</g>
	</g>
	<g>
		<g>
			<path class="st6" d="M208.473,77.524c0.08-0.004,0.163-0.009,0.229-0.05c0.112-0.07,0.14-0.223,0.144-0.362
				s-0.005-0.288,0.064-0.401c0.068-0.112,0.198-0.163,0.304-0.238c0.011-0.008,0.023-0.018,0.028-0.032
				c0.013-0.042-0.046-0.075-0.09-0.086c-0.168-0.04-0.339-0.065-0.508-0.071c-0.08-0.003-0.17,0.003-0.214,0.065
				c-0.027,0.038-0.03,0.09-0.032,0.139c-0.008,0.154-0.015,0.308-0.023,0.462c-0.001,0.025-0.003,0.052-0.018,0.07
				c-0.017,0.02-0.045,0.025-0.072,0.028c-0.118,0.015-0.236,0.03-0.354,0.046c-0.05,0.007-0.101,0.014-0.14,0.042
				c-0.063,0.045-0.08,0.132-0.093,0.213C207.638,77.704,208.275,77.532,208.473,77.524z"/>
		</g>
		<g>
			<path class="st6" d="M207.035,77.363c-0.272-0.063-0.554-0.04-0.797,0.068c-0.264,0.117-0.501,0.336-0.798,0.313
				c-0.123-0.01-0.248-0.063-0.369-0.049c-0.138,0.016-0.247,0.115-0.339,0.22c-0.237,0.269-0.418,0.598-0.532,0.961
				c0.434-0.383,0.959-0.637,1.52-0.743c0.085,0.198-0.062,0.407-0.233,0.495c-0.171,0.088-0.375,0.109-0.531,0.225
				c-0.039,0.029-0.077,0.071-0.075,0.125c0.002,0.076,0.081,0.127,0.148,0.148c0.26,0.084,0.532,0.012,0.763-0.11
				c0.212-0.112,0.423-0.312,0.395-0.573c-0.009-0.086-0.044-0.176-0.016-0.254c0.018-0.049,0.058-0.082,0.097-0.113
				c0.143-0.114,0.311-0.315,0.492-0.353c0.116-0.025,0.151,0.051,0.227-0.048C207.009,77.647,207.042,77.364,207.035,77.363z"/>
		</g>
		<g>
			<path class="st6" d="M207.278,80.205c0.045-0.069,0.048-0.173,0.117-0.214c0.093-0.055,0.217,0.079,0.201,0.193
				c-0.015,0.115-0.111,0.191-0.206,0.245c-0.316,0.179-0.708,0.236-0.952,0.518c-0.054,0.062-0.102,0.137-0.175,0.169
				c-0.043,0.02-0.092,0.023-0.139,0.024c-0.134,0.003-0.808-0.037-0.697-0.299c0.075-0.176,0.467-0.122,0.616-0.138
				c0.23-0.025,0.44-0.13,0.623-0.273c0.136-0.106,0.165-0.13,0.331-0.138C207.101,80.288,207.21,80.308,207.278,80.205z"/>
		</g>
		<g>
			<path class="st6" d="M204.258,79.781c0.007-0.035,0.044-0.047,0.075-0.054c0.217-0.05,0.434-0.1,0.652-0.148
				c0.173-0.039,0.347-0.077,0.524-0.093c-0.003,0.173-0.134,0.31-0.282,0.363C205.144,79.878,204.228,79.918,204.258,79.781z"/>
		</g>
		<g>
			<path class="st6" d="M203.51,79.909c0.029-0.003,0.047-0.034,0.061-0.062c0.089-0.181,0.165-0.373,0.289-0.524
				c0.123-0.151,0.307-0.256,0.497-0.213c0.062,0.118,0.039,0.269-0.034,0.366c-0.073,0.098-0.188,0.149-0.303,0.168
				c-0.048,0.008-0.101,0.014-0.13,0.055c-0.038,0.055-0.012,0.137-0.013,0.209c-0.001,0.135-0.102,0.241-0.216,0.278
				c-0.114,0.036-0.239,0.018-0.359-0.001c-0.027-0.004-0.057-0.01-0.076-0.034c-0.01-0.013-0.015-0.029-0.019-0.045
				c-0.022-0.092,0.009-0.196,0.078-0.242c0.07-0.046,0.177-0.024,0.227,0.054C203.51,79.916,203.51,79.913,203.51,79.909z"/>
		</g>
		<g>
			<path class="st6" d="M202.204,79.698c0.027-0.001,0.056,0,0.081-0.012c0.063-0.03,0.073-0.126,0.075-0.206
				c0.001-0.043,0.002-0.086,0.003-0.129c0.001-0.01,0-0.021-0.005-0.031c-0.005-0.009-0.015-0.015-0.024-0.018
				c-0.141-0.065-0.312,0.025-0.349,0.186c-0.009,0.04-0.013,0.086-0.043,0.107c-0.018,0.013-0.041,0.014-0.063,0.014
				c-0.077,0.003-0.156,0.017-0.22,0.063c-0.064,0.046-0.111,0.127-0.106,0.217c0.002,0.038,0.015,0.079,0.045,0.098
				c0.017,0.011,0.037,0.013,0.056,0.015c0.191,0.018,0.164,0.024,0.243-0.118C201.962,79.766,202.076,79.705,202.204,79.698z"/>
		</g>
	</g>
	<path class="st6" d="M171.122,75.328c0.009,0.028,0.02,0.057,0.032,0.082c0.028,0.064,0.06,0.125,0.101,0.163
		c0.05,0.048,0.104,0.064,0.156,0.076c0.338,0.083,0.674,0.166,1.01,0.248c0.06,0.013,0.124,0.033,0.175,0.095
		c0.149,0.187,0.038,0.523,0.144,0.765c0.218-0.369,0.407-0.776,0.568-1.211c0.041,0.362,0.081,0.725,0.125,1.091
		c0.205-0.368,0.392-0.754,0.556-1.165c-0.181,0.581-0.258,1.26-0.219,1.969c0.056-0.459,0.264-0.796,0.468-1.109
		c0.478-0.724,0.975-1.414,1.493-2.065c0.046,0.328,0.133,0.655,0.256,0.959c0.199-0.153,0.363-0.38,0.478-0.657
		c0.062,0.185,0.104,0.382,0.12,0.575c0.253-0.203,0.449-0.526,0.555-0.924c0.024,0.275,0.05,0.55,0.075,0.825
		c0.854-0.71,1.673-1.484,2.453-2.314c0.148,0.161,0.223,0.451,0.169,0.659c0.238-0.224,0.455-0.484,0.647-0.776
		c-0.007,0.124-0.031,0.242-0.07,0.347c0.236-0.504,0.56-0.885,0.899-1.249c-0.685-0.347-1.351,0.042-1.966,0.339
		c-0.688,0.33-1.427,0.53-2.192,0.581c-0.47,0.034-0.967,0.015-1.366,0.285c-0.29,0.195-0.551,0.553-0.907,0.444
		c-0.361-0.474-0.922-0.14-1.21,0.24c-0.289,0.376-0.504,0.911-0.894,1.064c-0.363,0.145-0.802-0.085-1.196-0.065
		c-0.177,0.01-0.351,0.113-0.471,0.278C171.113,75.029,171.116,75.177,171.122,75.328z"/>
	<g>
		<path class="st5" d="M175.145,73.801c0.036-0.014,0.079,0.052,0.089,0.112c0.011,0.06,0.003,0.117,0.013,0.177
			c0.03,0.188,0.219,0.279,0.312,0.185c0.094-0.095,0.11-0.293,0.099-0.478c-0.003-0.047-0.009-0.1-0.035-0.135
			c-0.022-0.028-0.051-0.036-0.078-0.041c-0.206-0.039-0.412-0.079-0.619-0.119c-0.089-0.017-0.18-0.034-0.262-0.008
			c-0.182,0.059-0.274,0.318-0.41,0.483c-0.258,0.312-0.706,0.323-0.832,0.8c0.235,0.097,0.401-0.181,0.607-0.28
			c0.028-0.014,0.058-0.024,0.091-0.012c0.056,0.021,0.102,0.103,0.158,0.135c0.11,0.063,0.186-0.092,0.288-0.125
			c0.147-0.048,0.293,0.096,0.393-0.079C175.03,74.295,175.026,73.848,175.145,73.801z"/>
		<path class="st5" d="M177.23,73.896c0.006-0.021,0.011-0.045,0.022-0.061c0.031-0.042,0.093,0.002,0.126,0.061
			c0.034,0.059,0.054,0.13,0.094,0.181c0.082,0.105,0.2,0.061,0.255-0.039c0.055-0.1,0.072-0.239,0.115-0.351
			c0.051-0.135,0.143-0.232,0.252-0.266c0.054-0.017,0.113-0.021,0.156-0.065s0.058-0.148,0.011-0.212
			c-0.028-0.039-0.068-0.049-0.103-0.056c-0.064-0.013-0.128-0.026-0.192-0.039c-0.038-0.008-0.076-0.015-0.11,0.001
			c-0.035,0.017-0.058,0.056-0.085,0.089c-0.06,0.073-0.142,0.111-0.229,0.107c-0.101-0.005-0.213-0.065-0.302-0.018
			c-0.08,0.042-0.119,0.161-0.155,0.271c-0.091,0.275-0.203,0.514-0.394,0.652C176.853,74.311,177.169,74.096,177.23,73.896z"/>
	</g>
	<g>
		<g>
			<path class="st6" d="M185.757,83.718c0.078,0.061,0.143,0.156,0.201,0.253c0.055,0.092,0.108,0.228,0.06,0.311
				c-0.046,0.081-0.144,0.033-0.215-0.025c-0.119-0.098-0.232-0.213-0.338-0.343c-0.127-0.156-0.242-0.332-0.35-0.516
				c-0.04-0.067-0.081-0.141-0.092-0.224c-0.012-0.084,0.019-0.177,0.076-0.181c0.06-0.004,0.109,0.08,0.147,0.155
				c0.065,0.13,0.152,0.394,0.246,0.479C185.57,83.697,185.669,83.643,185.757,83.718z"/>
		</g>
		<g>
			<path class="st6" d="M184.086,82.656c-0.046,0.141-0.179,0.179-0.293,0.127c-0.114-0.051-0.212-0.17-0.306-0.285
				c-0.4-0.489-0.804-0.984-1.169-1.544c-0.043-0.066-0.087-0.136-0.111-0.217c-0.024-0.082-0.025-0.18,0.014-0.233
				c0.033-0.046,0.086-0.051,0.136-0.04c0.126,0.028,0.244,0.147,0.338,0.287c0.093,0.14,0.167,0.303,0.248,0.458
				c0.17,0.328,0.378,0.64,0.596,0.899C183.597,82.175,184.125,82.538,184.086,82.656z"/>
		</g>
		<g>
			<path class="st6" d="M180.383,77.993c0.18,0.104,0.347,0.276,0.479,0.492c-0.059,0.078-0.148,0.099-0.236,0.083
				s-0.175-0.065-0.26-0.113c-0.124-0.07-0.254-0.147-0.347-0.294c-0.099-0.158-0.136-0.366-0.163-0.563
				c-0.004-0.034-0.008-0.074,0.009-0.092c0.015-0.015,0.037-0.008,0.056,0.001C180.277,77.674,180.224,77.902,180.383,77.993z"/>
		</g>
		<g>
			<path class="st6" d="M179.066,78.721c0.18,0.104,0.349,0.277,0.481,0.496c-0.058,0.08-0.147,0.102-0.234,0.087
				c-0.087-0.015-0.174-0.064-0.26-0.112c-0.124-0.07-0.255-0.146-0.348-0.296c-0.1-0.16-0.138-0.372-0.167-0.571
				c-0.005-0.035-0.008-0.075,0.009-0.094c0.014-0.016,0.037-0.009,0.056,0.001C178.959,78.397,178.908,78.629,179.066,78.721z"/>
		</g>
		<g>
			<path class="st6" d="M181.805,80.702c-0.003,0.033-0.019,0.056-0.036,0.074c-0.071,0.072-0.173,0.067-0.265,0.019
				c-0.092-0.047-0.176-0.132-0.257-0.218c-0.224-0.233-0.444-0.476-0.66-0.729c-0.007-0.055,0.024-0.096,0.057-0.114
				c0.088-0.047,0.198,0.007,0.291,0.084c0.189,0.157,0.294,0.435,0.467,0.612C181.486,80.517,181.82,80.523,181.805,80.702z"/>
		</g>
		<g>
			<path class="st6" d="M182.669,79.186c-0.003,0.032-0.019,0.055-0.037,0.072c-0.072,0.069-0.175,0.063-0.266,0.014
				c-0.092-0.048-0.176-0.133-0.257-0.218c-0.224-0.233-0.443-0.476-0.659-0.729c-0.007-0.054,0.024-0.095,0.058-0.111
				c0.089-0.045,0.199,0.01,0.292,0.088c0.189,0.158,0.293,0.433,0.466,0.61C182.349,78.998,182.686,79.01,182.669,79.186z"/>
		</g>
		<g>
			<path class="st6" d="M181.892,81.3c0.061,0.037,0.121,0.073,0.179,0.122c0.056,0.048,0.108,0.107,0.16,0.165
				c0.082,0.092,0.163,0.184,0.244,0.276c0.046,0.052,0.095,0.11,0.114,0.187c0.028,0.116-0.029,0.231-0.106,0.252
				c-0.077,0.021-0.163-0.033-0.232-0.111s-0.125-0.177-0.185-0.269c-0.162-0.247-0.357-0.442-0.549-0.636
				c-0.096-0.097-0.193-0.193-0.29-0.29c-0.051-0.05-0.104-0.103-0.161-0.108c-0.034-0.003-0.065,0.011-0.098,0.01
				c-0.117-0.005-0.208-0.188-0.274-0.347c0.009-0.112,0.099-0.162,0.178-0.133c0.08,0.029,0.149,0.114,0.212,0.198
				c0.11,0.147,0.22,0.312,0.352,0.411C181.581,81.137,181.743,81.21,181.892,81.3z"/>
		</g>
	</g>
	<g>
		<path class="st5" d="M218.417,84.544c-0.12-0.156-0.278-0.347-0.489-0.306c-0.114,0.022-0.243,0.11-0.329,0.042
			c-0.046-0.036-0.051-0.101-0.089-0.144c-0.062-0.07-0.183-0.058-0.279-0.028c-0.096,0.031-0.198,0.074-0.291,0.043
			c-0.097-0.032-0.145-0.13-0.217-0.198c-0.175-0.164-0.464-0.135-0.712-0.093c0.033,0.077-0.002,0.175-0.078,0.219
			c-0.075,0.045-0.182,0.03-0.238-0.034c-0.024-0.028-0.039-0.063-0.068-0.087c-0.097-0.079-0.254,0.044-0.256,0.167
			s0.082,0.228,0.14,0.335c0.015,0.029,0.03,0.059,0.027,0.092c-0.008,0.079-0.106,0.119-0.187,0.126
			c-0.082,0.008-0.174,0.006-0.232,0.064c-0.074,0.074-0.044,0.193-0.063,0.295c-0.02,0.108-0.108,0.203-0.215,0.235
			c0.199,0.174,0.536,0.169,0.749-0.006c0.052-0.044,0.098-0.096,0.153-0.135c0.141-0.098,0.345-0.094,0.473,0.006
			c0.01-0.063-0.002-0.128-0.033-0.183c0.149,0.085,0.283,0.192,0.394,0.316c0.087,0.097,0.192,0.216,0.328,0.187
			c0.087-0.018,0.152-0.096,0.176-0.177c0.025-0.081,0.018-0.165,0.01-0.247c0.113-0.032,0.206,0.069,0.267,0.157
			c0.048,0.069,0.096,0.141,0.101,0.224s-0.052,0.18-0.141,0.193c0.12,0.13,0.295,0.212,0.482,0.226
			c0.039,0.003,0.08,0.003,0.118-0.011c0.079-0.031,0.118-0.121,0.111-0.197c-0.007-0.077-0.05-0.144-0.092-0.209
			c0.107-0.007,0.202,0.045,0.294,0.091c0.091,0.046,0.196,0.088,0.3,0.062c0.105-0.026,0.185-0.154,0.118-0.226
			c-0.197-0.21,0.157-0.101,0.162-0.319C218.815,84.877,218.51,84.664,218.417,84.544z"/>
		<path class="st5" d="M214.931,83.224c0.119-0.053,0.256-0.049,0.387-0.043c0.039-0.04,0.013-0.111-0.036-0.138
			c-0.049-0.028-0.11-0.026-0.167-0.023c-0.086,0.004-0.172,0.008-0.258,0.013c0.019-0.081,0.039-0.161,0.059-0.242
			c0.005-0.019,0.009-0.041-0.002-0.058c-0.012-0.018-0.036-0.023-0.058-0.026c-0.144-0.02-0.292-0.019-0.437,0.002
			c-0.071,0.01-0.15,0.033-0.182,0.095c-0.021,0.04-0.016,0.089-0.035,0.129c-0.015,0.032-0.045,0.058-0.081,0.068
			c-0.08,0.024-0.165-0.035-0.199-0.109c-0.034-0.074-0.029-0.16-0.024-0.241c-0.153-0.06-0.309,0.069-0.42,0.188
			c-0.027,0.028-0.054,0.059-0.062,0.097c-0.02,0.093,0.082,0.165,0.171,0.2c0.089,0.034,0.197,0.076,0.216,0.169
			c0.022,0.115-0.115,0.2-0.233,0.211c-0.02,0.002-0.042,0.004-0.056,0.019c-0.028,0.032,0.015,0.077,0.054,0.095
			c0.132,0.064,0.274,0.109,0.419,0.133c0.156,0.026,0.355,0.005,0.416-0.138c0.015,0.22-0.038,0.445-0.149,0.641
			c-0.019,0.032-0.039,0.068-0.033,0.104c0.008,0.045,0.056,0.071,0.102,0.072c0.046,0,0.089-0.02,0.132-0.039
			c0.083-0.039,0.174-0.084,0.21-0.167c0.036-0.084,0.006-0.18,0.029-0.267c0.051-0.189,0.132-0.215,0.087-0.415
			C214.75,83.412,214.766,83.298,214.931,83.224z"/>
		<path class="st5" d="M213.916,85.508c-0.109-0.013-0.22,0.009-0.329,0.03c-0.037-0.042,0.014-0.117-0.014-0.167
			c-0.011-0.019-0.032-0.031-0.052-0.039c-0.179-0.075-0.404-0.037-0.556,0.096c-0.063,0.056-0.116,0.127-0.192,0.162
			c-0.055,0.025-0.115,0.029-0.175,0.031c-0.125,0.006-0.265,0.007-0.353-0.082c-0.005,0.186,0.036,0.383,0.164,0.506
			c0.159,0.152,0.412,0.148,0.627,0.082c0.133-0.041,0.269-0.104,0.404-0.083c0.135,0.021,0.251,0.178,0.174,0.297
			c0.02-0.03,0.416-0.015,0.481-0.049c0.094-0.048,0.114-0.093,0.129-0.193C214.266,85.845,214.208,85.542,213.916,85.508z"/>
	</g>
	<g>
		<path class="st4" d="M214.93,87.4c0.09-0.085,0.186-0.182,0.181-0.288c-0.003-0.076-0.059-0.142-0.078-0.216
			c-0.019-0.074,0.024-0.175,0.12-0.182c0.042-0.003,0.083,0.013,0.123,0.004c0.034-0.007,0.059-0.031,0.077-0.055
			c0.102-0.131,0.077-0.322,0.237-0.409c0.034-0.018,0.072-0.03,0.102-0.052c0.073-0.054,0.059-0.149,0.008-0.214
			c-0.05-0.065-0.128-0.114-0.176-0.179c-0.049-0.066-0.058-0.162,0.018-0.213c-0.1-0.035-0.208-0.054-0.319-0.057
			c-0.083-0.003-0.17,0.006-0.24,0.043c-0.106,0.056-0.146,0.165-0.156,0.265c-0.011,0.1,0,0.203-0.041,0.299
			c-0.064,0.154-0.246,0.267-0.31,0.423c-0.027,0.065-0.032,0.132-0.037,0.2c-0.018,0.242-0.035,0.485-0.053,0.728
			c-0.006,0.082,0.097,0.189,0.211,0.18C214.711,87.666,214.858,87.467,214.93,87.4z"/>
	</g>
</g>
<g>
	<path class="st7" d="M235.644,90.358c-0.65,0.205-1.301,0.407-1.952,0.605c-1.864,0.043-3.727-1.354-5.591-1.296
		c-1.248,0.455-2.498-0.9-3.749-0.479c-1.174-0.092-2.347-0.176-3.52-0.251c-1.666,0.154-3.333,0.307-5,0.46
		c-2.667-0.131-5.334-0.263-8-0.397c-1.744,0.151-3.488,0.314-5.231,0.487c-1.921-0.492-3.841-1.006-5.762-1.542
		c-2.792,0.008-5.582,0.027-8.373,0.055c-0.997-0.229-1.994-0.462-2.991-0.7c-10.55,0.318-21.09,4.08-31.612,4.804
		c-1.005,0.069-2.01,0.139-3.014,0.211c-2.117,0.154-4.231,0.338-6.346,0.508c-0.763-0.376-1.523-0.741-2.288-1.124
		c-0.001-0.004-2.289,0.82-5.301,1.564c-0.184-0.004-0.367-0.009-0.551-0.013c-0.796-0.019-1.593-0.038-2.389-0.057
		c14.727,2.809,29.906,5.557,45.007,6.885c0.284,0.043,0.539,0.086,0.799,0.129l0.201-0.129h3.114h0.835h16.044h16.093h0.835h2.064
		c2.731-0.036,8.613-0.65,16.854-1.611L235.644,90.358z"/>
</g>
<g>
	
		<linearGradient id="SVGID_4_" gradientUnits="userSpaceOnUse" x1="1423.0527" y1="402.9929" x2="1423.0527" y2="398.3783" gradientTransform="matrix(-1 0 0 -1 1573.0414 485)">
		<stop  offset="0" style="stop-color:#FFFFFF"/>
		<stop  offset="1" style="stop-color:#C3E8FA"/>
	</linearGradient>
	<path class="st8" d="M143.305,85.271c0.026-0.063,0.06-0.122,0.104-0.175c0.025-0.031,0.054-0.061,0.087-0.091
		c0.03-0.028,0.063-0.055,0.098-0.081c0.19-0.139,0.451-0.235,0.708-0.145c0.017-0.464,0.534-0.677,1.087-0.464
		c0.178-0.587,0.294-0.806,1.282-0.634c0.304-0.469,0.812-1.017,1.42-1.149c0.476-0.103,0.932-0.123,1.427,0.194
		c0.361-0.671,2.53-1.579,2.837,1.001c0.481-0.356,2.007-0.618,1.89,1.216c0.273-0.168,0.632-0.059,0.905,0.108
		s0.522,0.392,0.833,0.467c0.311,0.075,0.715-0.088,0.739-0.407c0.011,0.103,0.005,0.207-0.017,0.308
		c-0.051,0.238-0.19,0.46-0.388,0.603c-0.279,0.201-2.267,0.934-2.816-0.04c-0.363,0.359-1.04,0.319-1.356-0.082
		c-0.205,0.301-0.701,0.338-0.95,0.071c-0.673,0.767-1.97,0.873-2.76,0.227c-0.311,0.255-0.829,0.199-1.079-0.116
		c-0.338,0.334-0.936,0.356-1.298,0.048c-0.671,0.805-1.631,0.327-1.722,0.045c-0.289,0.175-0.7,0.109-0.92-0.147
		C143.242,85.823,143.204,85.518,143.305,85.271z"/>
	
		<linearGradient id="SVGID_5_" gradientUnits="userSpaceOnUse" x1="1423.0646" y1="401.863" x2="1423.0646" y2="398.3793" gradientTransform="matrix(-1 0 0 -1 1573.0414 485)">
		<stop  offset="0" style="stop-color:#CDE8F7"/>
		<stop  offset="1" style="stop-color:#86C6EB"/>
	</linearGradient>
	<path class="st9" d="M143.304,85.271c0.056-0.094,0.12-0.183,0.191-0.266c0.037-0.043,0.075-0.085,0.114-0.125
		c-0.006,0.014-0.011,0.029-0.016,0.043c-0.091,0.286,0.071,0.633,0.354,0.739c0.297,0.111,0.55-0.072,0.768-0.37
		c-0.146,0.358-0.132,0.595,0.141,0.696c0.274,0.102,0.546-0.005,0.711-0.245c0.165-0.24,0.08-0.565,0.299-0.884
		c-0.119,0.412,0.168,0.895,0.587,0.986c-0.239-0.384-0.241-0.903-0.004-1.288c-0.151,0.624,0.431,1.185,1.049,1.01
		c-0.355-0.423-0.307-1.125,0.102-1.497c-0.199,0.354-0.071,1.002,0.309,1.144c0.381,0.141,0.917-0.261,0.997-0.659
		c0.078,0.486-0.156,1.008-0.57,1.276c0.395,0.214,1.05-0.119,1.123-0.563c0.078,0.446,0.606,0.747,0.969,0.478
		c0.365-0.27,0.393-0.683-0.097-1.133c0.286,0.129,0.673,0.408,0.98,0.432c0.308,0.024,0.401-0.252,0.392-0.561
		c-0.015-0.51-0.648-0.57-0.883-0.966c0.331,0.245,0.79,0.421,0.999,0.156c0.116-0.148-0.112-0.463-0.288-0.532
		c0.267-0.043,0.508,0.201,0.57,0.463c0.125,0.516-0.248,1.116,0.048,1.587c0.235,0.374,1.139,0.842,1.758-0.391
		c-0.041,0.429-0.011,1.06,0.43,1.234c0.325,0.128,1.861-0.092,2.367-0.617c-0.051,0.238-0.19,0.46-0.388,0.603
		c-0.279,0.201-2.267,0.934-2.816-0.04c-0.363,0.359-1.04,0.319-1.356-0.082c-0.205,0.301-0.701,0.338-0.95,0.071
		c-0.673,0.767-1.97,0.873-2.76,0.227c-0.311,0.255-0.829,0.199-1.079-0.116c-0.338,0.334-0.936,0.356-1.298,0.048
		c-0.671,0.805-1.631,0.327-1.722,0.045c-0.289,0.175-0.7,0.109-0.92-0.147C143.242,85.823,143.204,85.518,143.304,85.271z"/>
</g>
</svg>
