<?xml version="1.0" encoding="utf-8"?>
<!-- Generator: Adobe Illustrator 22.0.1, SVG Export Plug-In . SVG Version: 6.00 Build 0)  -->
<svg version="1.1" id="Layer_1" xmlns="http://www.w3.org/2000/svg" xmlns:xlink="http://www.w3.org/1999/xlink" x="0px" y="0px"
	 viewBox="0 0 400 1200" style="enable-background:new 0 0 400 1200;" xml:space="preserve">
<style type="text/css">
	.st0{fill:#FAD046;}
</style>
<g>
	<polygon class="st0" points="198.493,86.783 201.366,86.783 201.311,48.929 198.548,48.929 	"/>
	<polygon class="st0" points="201.274,24.217 201.246,5.17 198.612,5.17 198.585,24.217 	"/>
	<polygon class="st0" points="198.439,123.023 201.42,123.023 201.392,103.976 198.467,103.976 	"/>
	<polygon class="st0" points="198.346,186.36 201.513,186.36 201.457,148.506 198.402,148.506 	"/>
	<polygon class="st0" points="198.293,222.6 201.566,222.6 201.538,203.553 198.321,203.553 	"/>
	<polygon class="st0" points="198.209,280.11 201.65,280.11 201.595,242.257 198.264,242.257 	"/>
	<polygon class="st0" points="198.155,316.351 201.703,316.351 201.676,297.304 198.183,297.304 	"/>
	<polygon class="st0" points="198.062,379.687 201.797,379.687 201.741,341.834 198.118,341.834 	"/>
	<polygon class="st0" points="198.009,415.928 201.85,415.928 201.822,396.881 198.037,396.881 	"/>
	<polygon class="st0" points="197.917,478.734 201.942,478.734 201.887,440.881 197.972,440.881 	"/>
	<polygon class="st0" points="197.863,514.975 201.995,514.975 201.967,495.928 197.892,495.928 	"/>
	<polygon class="st0" points="197.77,578.311 202.089,578.311 202.033,540.458 197.826,540.458 	"/>
	<polygon class="st0" points="197.717,614.552 202.142,614.552 202.114,595.505 197.745,595.505 	"/>
	<polygon class="st0" points="197.633,672.062 202.226,672.062 202.17,634.208 197.688,634.208 	"/>
	<polygon class="st0" points="197.579,708.303 202.279,708.303 202.252,689.255 197.607,689.255 	"/>
	<polygon class="st0" points="197.486,771.639 202.372,771.639 202.317,733.785 197.542,733.785 	"/>
	<polygon class="st0" points="197.433,807.879 202.426,807.879 202.398,788.832 197.461,788.832 	"/>
	<polygon class="st0" points="197.343,869.534 202.516,869.534 202.461,831.681 197.398,831.681 	"/>
	<polygon class="st0" points="197.289,905.775 202.569,905.775 202.542,886.727 197.317,886.727 	"/>
	<polygon class="st0" points="197.196,969.111 202.662,969.111 202.607,931.258 197.252,931.258 	"/>
	<polygon class="st0" points="197.143,1005.352 202.716,1005.352 202.688,986.304 197.171,986.304 	"/>
	<polygon class="st0" points="197.058,1062.862 202.8,1062.862 202.745,1025.008 197.114,1025.008 	"/>
	<polygon class="st0" points="197.005,1099.102 202.854,1099.102 202.825,1080.055 197.034,1080.055 	"/>
	<polygon class="st0" points="196.912,1162.439 202.947,1162.439 202.891,1124.585 196.968,1124.585 	"/>
	<polygon class="st0" points="196.887,1179.632 196.859,1198.679 203,1198.679 202.972,1179.632 	"/>
</g>
</svg>
