<?xml version="1.0" encoding="utf-8"?>
<!-- Generator: Adobe Illustrator 22.0.1, SVG Export Plug-In . SVG Version: 6.00 Build 0)  -->
<svg version="1.1" id="Layer_1" xmlns="http://www.w3.org/2000/svg" xmlns:xlink="http://www.w3.org/1999/xlink" x="0px" y="0px"
	 viewBox="0 0 180 20" style="enable-background:new 0 0 180 20;" xml:space="preserve">
<style type="text/css">
	.st0{fill:#FFFFFF;}
</style>
<g>
	<g>
		<polygon class="st0" points="79.5,15.829 79.746,1.818 77.071,2.106 76.737,0.37 85.318,0.759 84.965,1.573 82.055,1.706 
			80.576,16.075 		"/>
		<g>
			<path class="st0" d="M91.996,14.188c-0.474,0.321-1.385,0.59-2.294,0.721c-3.81,0.55-5.389-2.3-5.833-4.856
				c-0.556-3.205,0.418-6.01,3.048-6.39c0.098-0.014,0.225-0.01,0.322-0.023c2.666-0.178,3.736,1.781,4.141,4.111
				c0.082,0.471,0.108,0.766,0.16,1.355l-6.275,0.423c0.505,3.488,2.346,3.934,3.87,3.852c0.123-0.018,0.25-0.014,0.373-0.03
				c0.787-0.113,1.345-0.378,1.729-0.64L91.996,14.188z M89.555,7.831c-0.354-2.039-1.312-3.211-2.592-3.025
				c-1.45,0.209-1.801,1.96-1.631,3.521L89.555,7.831z"/>
			<path class="st0" d="M98.741,19.567l0.721-5.594l-0.074-0.01c-0.508,0.754-1.685,1.434-3.013,1.243
				c-3.12-0.451-3.462-3.854-2.983-6.611c0.61-3.518,2.897-5.073,4.838-4.792c0.934,0.135,1.848,0.68,2.316,1.897l0.048,0.007
				l0.027-2.04l2.148,0.976l-0.574,3.293l-2.111,11.435L98.741,19.567z M100.091,8.459c0.21-1.647-0.494-3.104-1.797-3.293
				c-1.598-0.231-2.648,1.316-3.014,3.424c-0.32,1.837-0.171,4.754,1.992,5.067c0.836,0.12,2.271-0.453,2.502-2.51L100.091,8.459z"
				/>
		</g>
	</g>
</g>
</svg>
