<?xml version="1.0" encoding="utf-8"?>
<!-- Generator: Adobe Illustrator 22.0.1, SVG Export Plug-In . SVG Version: 6.00 Build 0)  -->
<svg version="1.1" id="Layer_1" xmlns="http://www.w3.org/2000/svg" xmlns:xlink="http://www.w3.org/1999/xlink" x="0px" y="0px"
	 viewBox="0 0 400 200" style="enable-background:new 0 0 400 200;" xml:space="preserve">
<style type="text/css">
	.st0{fill:url(#SVGID_1_);}
	.st1{fill:url(#SVGID_2_);}
	.st2{fill:url(#SVGID_3_);}
	.st3{fill:url(#SVGID_4_);}
	.st4{fill:url(#SVGID_5_);}
	.st5{fill:url(#SVGID_6_);}
</style>
<g>
	
		<linearGradient id="SVGID_1_" gradientUnits="userSpaceOnUse" x1="138.1025" y1="-172.8796" x2="138.1025" y2="-161.2599" gradientTransform="matrix(1 0 0 1 0 325)">
		<stop  offset="0" style="stop-color:#FFFFFF"/>
		<stop  offset="1" style="stop-color:#C3E8FA"/>
	</linearGradient>
	<path class="st0" d="M154.653,162.243c-0.555,0.645-1.59,0.81-2.318,0.37c-0.227,0.708-2.646,1.913-4.336-0.114
		c-0.911,0.775-2.416,0.72-3.268-0.121c-0.63,0.795-1.933,0.937-2.718,0.294c-1.99,1.627-5.255,1.36-6.951-0.571
		c-0.626,0.672-1.875,0.578-2.392-0.18c-0.798,1.01-2.502,1.113-3.416,0.207c-1.382,2.452-6.391,0.607-7.092,0.101
		c-0.499-0.361-0.848-0.918-0.977-1.518c-0.055-0.254-0.07-0.516-0.042-0.775c0.064,0.803,1.078,1.214,1.863,1.026
		c0.783-0.188,1.41-0.755,2.098-1.175c0.688-0.421,1.592-0.695,2.279-0.272c-0.294-4.621,3.55-3.96,4.761-3.064
		c0.774-6.498,6.237-4.21,7.146-2.521c1.245-0.798,2.393-0.749,3.592-0.49c1.531,0.331,2.812,1.711,3.576,2.893
		c2.488-0.433,2.779,0.118,3.229,1.597c1.39-0.537,2.692,0,2.736,1.168c0.648-0.226,1.304,0.016,1.783,0.366
		c0.089,0.066,0.172,0.134,0.247,0.205c0.082,0.075,0.155,0.153,0.218,0.229c0.111,0.133,0.198,0.282,0.262,0.442
		C155.19,160.961,155.094,161.729,154.653,162.243z"/>
	
		<linearGradient id="SVGID_2_" gradientUnits="userSpaceOnUse" x1="138.1305" y1="-170.0336" x2="138.1305" y2="-161.2599" gradientTransform="matrix(1 0 0 1 0 325)">
		<stop  offset="0" style="stop-color:#CDE8F7"/>
		<stop  offset="1" style="stop-color:#86C6EB"/>
	</linearGradient>
	<path class="st1" d="M154.653,162.243c-0.555,0.645-1.59,0.81-2.318,0.37c-0.227,0.708-2.646,1.913-4.336-0.114
		c-0.911,0.775-2.416,0.72-3.268-0.121c-0.63,0.795-1.933,0.937-2.718,0.294c-1.99,1.627-5.255,1.36-6.951-0.571
		c-0.626,0.672-1.875,0.578-2.392-0.18c-0.798,1.01-2.502,1.113-3.416,0.207c-1.382,2.452-6.391,0.607-7.092,0.101
		c-0.499-0.361-0.848-0.918-0.977-1.518c1.274,1.322,5.145,1.875,5.962,1.553c1.111-0.437,1.186-2.027,1.083-3.108
		c1.559,3.106,3.836,1.925,4.427,0.984c0.745-1.187-0.194-2.697,0.121-3.997c0.159-0.66,0.766-1.275,1.436-1.165
		c-0.442,0.173-1.016,0.966-0.724,1.339c0.526,0.669,1.682,0.225,2.516-0.392c-0.59,0.999-2.185,1.149-2.224,2.434
		c-0.024,0.778,0.212,1.474,0.987,1.414c0.775-0.061,1.75-0.763,2.469-1.089c-1.234,1.133-1.161,2.174-0.244,2.854
		c0.916,0.679,2.245-0.079,2.441-1.203c0.183,1.117,1.833,1.958,2.828,1.419c-1.043-0.673-1.631-1.987-1.436-3.213
		c0.202,1.003,1.553,2.015,2.511,1.66c0.958-0.357,1.278-1.987,0.778-2.881c1.029,0.935,1.151,2.704,0.257,3.77
		c1.555,0.44,3.021-0.972,2.641-2.544c0.597,0.97,0.594,2.277-0.009,3.244c1.057-0.23,1.78-1.447,1.479-2.485
		c0.552,0.805,0.336,1.622,0.752,2.227c0.416,0.604,1.101,0.874,1.79,0.618c0.688-0.256,0.724-0.852,0.355-1.754
		c0.548,0.75,1.186,1.212,1.934,0.931c0.712-0.266,1.121-1.143,0.891-1.861c-0.012-0.036-0.025-0.073-0.04-0.109
		c0.099,0.099,0.197,0.205,0.288,0.314c0.178,0.209,0.339,0.433,0.481,0.67C155.19,160.961,155.094,161.729,154.653,162.243z"/>
</g>
<g>
	
		<linearGradient id="SVGID_3_" gradientUnits="userSpaceOnUse" x1="794.5918" y1="-193.2654" x2="794.5918" y2="-182.8307" gradientTransform="matrix(-1 0 0 1 1125.0414 325)">
		<stop  offset="0" style="stop-color:#FFFFFF"/>
		<stop  offset="1" style="stop-color:#C3E8FA"/>
	</linearGradient>
	<path class="st2" d="M315.332,139.117c0.058-0.143,0.137-0.276,0.235-0.396c0.057-0.069,0.122-0.138,0.196-0.206
		c0.068-0.062,0.143-0.124,0.222-0.184c0.43-0.314,1.02-0.531,1.602-0.329c0.039-1.049,1.209-1.531,2.457-1.049
		c0.403-1.328,0.666-1.823,2.899-1.435c0.687-1.061,1.836-2.3,3.212-2.598c1.076-0.232,2.108-0.277,3.226,0.44
		c0.816-1.517,5.722-3.572,6.417,2.264c1.088-0.805,4.539-1.398,4.276,2.751c0.616-0.38,1.429-0.134,2.047,0.244
		c0.618,0.377,1.181,0.886,1.885,1.055c0.704,0.169,1.616-0.2,1.672-0.921c0.025,0.232,0.011,0.468-0.038,0.696
		c-0.116,0.539-0.43,1.039-0.878,1.363c-0.63,0.455-5.128,2.112-6.369-0.09c-0.821,0.813-2.351,0.721-3.068-0.186
		c-0.465,0.68-1.586,0.765-2.148,0.162c-1.523,1.734-4.455,1.974-6.242,0.512c-0.704,0.578-1.874,0.451-2.44-0.263
		c-0.765,0.755-2.117,0.805-2.935,0.109c-1.517,1.82-3.689,0.739-3.894,0.102c-0.654,0.395-1.584,0.247-2.081-0.333
		C315.19,140.366,315.104,139.676,315.332,139.117z"/>
	
		<linearGradient id="SVGID_4_" gradientUnits="userSpaceOnUse" x1="794.6172" y1="-190.7104" x2="794.6172" y2="-182.83" gradientTransform="matrix(-1 0 0 1 1125.0414 325)">
		<stop  offset="0" style="stop-color:#CDE8F7"/>
		<stop  offset="1" style="stop-color:#86C6EB"/>
	</linearGradient>
	<path class="st3" d="M315.33,139.117c0.127-0.213,0.272-0.414,0.431-0.602c0.083-0.098,0.17-0.192,0.259-0.282
		c-0.014,0.033-0.025,0.065-0.036,0.098c-0.206,0.646,0.161,1.433,0.8,1.672c0.672,0.251,1.245-0.163,1.737-0.837
		c-0.331,0.81-0.298,1.345,0.32,1.575c0.619,0.23,1.234-0.012,1.608-0.555c0.374-0.544,0.18-1.278,0.676-2
		c-0.27,0.932,0.38,2.025,1.329,2.231c-0.541-0.868-0.545-2.041-0.008-2.913c-0.342,1.412,0.975,2.681,2.372,2.285
		c-0.802-0.957-0.694-2.545,0.231-3.386c-0.449,0.802-0.162,2.267,0.698,2.586c0.861,0.319,2.074-0.59,2.255-1.49
		c0.175,1.1-0.352,2.28-1.289,2.886c0.894,0.484,2.375-0.27,2.54-1.274c0.176,1.009,1.37,1.691,2.192,1.08
		c0.825-0.61,0.89-1.545-0.219-2.563c0.646,0.292,1.521,0.923,2.217,0.978c0.696,0.054,0.907-0.571,0.886-1.269
		c-0.035-1.153-1.467-1.288-1.997-2.186c0.749,0.553,1.787,0.953,2.259,0.352c0.262-0.335-0.254-1.047-0.651-1.203
		c0.603-0.098,1.148,0.455,1.29,1.047c0.282,1.168-0.561,2.523,0.109,3.59c0.531,0.845,2.576,1.905,3.976-0.884
		c-0.092,0.971-0.025,2.398,0.973,2.791c0.734,0.288,4.21-0.207,5.354-1.395c-0.116,0.539-0.43,1.039-0.878,1.363
		c-0.63,0.455-5.128,2.112-6.369-0.09c-0.821,0.813-2.351,0.721-3.068-0.186c-0.465,0.68-1.586,0.765-2.148,0.162
		c-1.523,1.734-4.455,1.974-6.242,0.512c-0.704,0.578-1.874,0.451-2.44-0.263c-0.765,0.755-2.116,0.805-2.935,0.109
		c-1.517,1.82-3.689,0.739-3.894,0.102c-0.654,0.395-1.584,0.247-2.081-0.333C315.19,140.366,315.104,139.676,315.33,139.117z"/>
</g>
<g>
	
		<linearGradient id="SVGID_5_" gradientUnits="userSpaceOnUse" x1="43.6691" y1="400.0178" x2="43.6691" y2="395.5201" gradientTransform="matrix(1 0 0 -1 0 520)">
		<stop  offset="0" style="stop-color:#FFFFFF"/>
		<stop  offset="1" style="stop-color:#C3E8FA"/>
	</linearGradient>
	<path class="st4" d="M50.075,123.901c-0.215,0.25-0.615,0.314-0.897,0.143c-0.088,0.274-1.024,0.74-1.678-0.044
		c-0.352,0.3-0.935,0.279-1.265-0.047c-0.244,0.308-0.749,0.362-1.052,0.114c-0.77,0.63-2.034,0.526-2.69-0.221
		c-0.242,0.26-0.726,0.223-0.925-0.07c-0.309,0.391-0.969,0.43-1.322,0.08c-0.535,0.949-2.473,0.235-2.745,0.039
		c-0.194-0.14-0.328-0.355-0.378-0.588c-0.021-0.099-0.027-0.2-0.016-0.3c0.024,0.311,0.418,0.47,0.721,0.397
		c0.304-0.073,0.546-0.292,0.812-0.455c0.266-0.163,0.616-0.269,0.882-0.106c-0.114-1.789,1.374-1.533,1.842-1.186
		c0.3-2.515,2.414-1.63,2.766-0.976c0.482-0.309,0.926-0.289,1.391-0.19c0.593,0.128,1.089,0.662,1.384,1.12
		c0.963-0.168,1.076,0.046,1.25,0.618c0.538-0.208,1.042,0,1.059,0.452c0.251-0.087,0.505,0.006,0.69,0.141
		c0.034,0.026,0.067,0.052,0.096,0.079c0.032,0.029,0.06,0.058,0.084,0.089c0.043,0.052,0.077,0.109,0.102,0.171
		C50.283,123.404,50.246,123.702,50.075,123.901z"/>
	
		<linearGradient id="SVGID_6_" gradientUnits="userSpaceOnUse" x1="43.6799" y1="398.9163" x2="43.6799" y2="395.5201" gradientTransform="matrix(1 0 0 -1 0 520)">
		<stop  offset="0" style="stop-color:#CDE8F7"/>
		<stop  offset="1" style="stop-color:#86C6EB"/>
	</linearGradient>
	<path class="st5" d="M50.075,123.901c-0.215,0.25-0.615,0.314-0.897,0.143c-0.088,0.274-1.024,0.74-1.678-0.044
		c-0.352,0.3-0.935,0.279-1.265-0.047c-0.244,0.308-0.749,0.362-1.052,0.114c-0.77,0.63-2.034,0.526-2.69-0.221
		c-0.242,0.26-0.726,0.223-0.925-0.07c-0.309,0.391-0.969,0.43-1.322,0.08c-0.535,0.949-2.473,0.235-2.745,0.039
		c-0.194-0.14-0.328-0.355-0.378-0.588c0.493,0.512,1.991,0.726,2.307,0.601c0.43-0.169,0.459-0.785,0.419-1.203
		c0.604,1.202,1.485,0.745,1.713,0.381c0.288-0.459-0.075-1.044,0.047-1.547c0.061-0.255,0.297-0.493,0.556-0.451
		c-0.171,0.068-0.393,0.374-0.28,0.518c0.203,0.259,0.651,0.087,0.974-0.152c-0.229,0.386-0.846,0.445-0.861,0.942
		c-0.009,0.301,0.082,0.57,0.382,0.547c0.3-0.024,0.677-0.295,0.955-0.421c-0.478,0.439-0.449,0.841-0.094,1.105
		c0.355,0.263,0.869-0.03,0.945-0.466c0.071,0.433,0.71,0.758,1.095,0.549c-0.404-0.26-0.632-0.77-0.556-1.243
		c0.078,0.388,0.601,0.78,0.972,0.642c0.371-0.138,0.495-0.77,0.301-1.114c0.399,0.362,0.446,1.047,0.099,1.459
		c0.602,0.17,1.17-0.377,1.022-0.985c0.232,0.376,0.23,0.881-0.004,1.256c0.409-0.09,0.689-0.56,0.572-0.962
		c0.213,0.311,0.131,0.628,0.292,0.862c0.161,0.234,0.426,0.338,0.693,0.239c0.266-0.099,0.28-0.329,0.137-0.679
		c0.212,0.29,0.459,0.469,0.749,0.361c0.276-0.103,0.433-0.443,0.345-0.72c-0.005-0.014-0.01-0.028-0.015-0.043
		c0.039,0.039,0.076,0.079,0.112,0.121c0.068,0.08,0.131,0.168,0.186,0.26C50.283,123.404,50.246,123.702,50.075,123.901z"/>
</g>
</svg>
