<?xml version="1.0" encoding="utf-8"?>
<!-- Generator: Adobe Illustrator 22.0.1, SVG Export Plug-In . SVG Version: 6.00 Build 0)  -->
<svg version="1.1" id="Layer_1" xmlns="http://www.w3.org/2000/svg" xmlns:xlink="http://www.w3.org/1999/xlink" x="0px" y="0px"
	 viewBox="0 0 400 1200" style="enable-background:new 0 0 400 1200;" xml:space="preserve">
<style type="text/css">
	.st0{fill:#FAD046;}
</style>
<g>
	<polygon class="st0" points="195.237,86.783 202.497,86.783 202.357,48.929 195.377,48.929 	"/>
	<polygon class="st0" points="202.265,24.217 202.194,5.17 195.539,5.17 195.469,24.217 	"/>
	<polygon class="st0" points="195.102,123.023 202.632,123.023 202.561,103.976 195.173,103.976 	"/>
	<polygon class="st0" points="194.867,186.36 202.867,186.36 202.726,148.506 195.007,148.506 	"/>
	<polygon class="st0" points="194.732,222.6 203.001,222.6 202.931,203.553 194.803,203.553 	"/>
	<polygon class="st0" points="194.519,280.11 203.215,280.11 203.074,242.257 194.659,242.257 	"/>
	<polygon class="st0" points="194.384,316.351 203.349,316.351 203.279,297.304 194.455,297.304 	"/>
	<polygon class="st0" points="194.149,379.687 203.585,379.687 203.444,341.834 194.29,341.834 	"/>
	<polygon class="st0" points="194.015,415.928 203.719,415.928 203.648,396.881 194.085,396.881 	"/>
	<polygon class="st0" points="193.782,478.734 203.952,478.734 203.812,440.881 193.922,440.881 	"/>
	<polygon class="st0" points="193.647,514.975 204.087,514.975 204.016,495.928 193.718,495.928 	"/>
	<polygon class="st0" points="193.412,578.311 204.322,578.311 204.181,540.458 193.552,540.458 	"/>
	<polygon class="st0" points="193.277,614.552 204.456,614.552 204.386,595.505 193.348,595.505 	"/>
	<polygon class="st0" points="193.064,672.062 204.67,672.062 204.529,634.208 193.204,634.208 	"/>
	<polygon class="st0" points="192.929,708.303 204.804,708.303 204.734,689.255 193,689.255 	"/>
	<polygon class="st0" points="192.694,771.639 205.039,771.639 204.899,733.785 192.835,733.785 	"/>
	<polygon class="st0" points="192.56,807.879 205.174,807.879 205.103,788.832 192.631,788.832 	"/>
	<polygon class="st0" points="192.331,869.534 205.403,869.534 205.262,831.681 192.471,831.681 	"/>
	<polygon class="st0" points="192.196,905.775 205.537,905.775 205.467,886.727 192.267,886.727 	"/>
	<polygon class="st0" points="191.961,969.111 205.772,969.111 205.632,931.258 192.102,931.258 	"/>
	<polygon class="st0" points="191.827,1005.352 205.907,1005.352 205.836,986.304 191.898,986.304 	"/>
	<polygon class="st0" points="191.613,1062.862 206.12,1062.862 205.98,1025.008 191.754,1025.008 	"/>
	<polygon class="st0" points="191.479,1099.102 206.255,1099.102 206.184,1080.055 191.55,1080.055 	"/>
	<polygon class="st0" points="191.244,1162.439 206.49,1162.439 206.349,1124.585 191.384,1124.585 	"/>
	<polygon class="st0" points="191.18,1179.632 191.109,1198.679 206.625,1198.679 206.554,1179.632 	"/>
</g>
</svg>
