<?xml version="1.0" encoding="utf-8"?>
<!-- Generator: Adobe Illustrator 22.0.1, SVG Export Plug-In . SVG Version: 6.00 Build 0)  -->
<svg version="1.1" id="Layer_1" xmlns="http://www.w3.org/2000/svg" xmlns:xlink="http://www.w3.org/1999/xlink" x="0px" y="0px"
	 viewBox="0 0 120 50" style="enable-background:new 0 0 120 50;" xml:space="preserve">
<style type="text/css">
	.st0{fill:#EBEBEC;}
	.st1{fill:#C3C3C3;}
	.st2{fill:#E1E1E2;}
	.st3{opacity:0.2;}
	.st4{opacity:0.09;}
	.st5{fill:#6B69BE;}
	.st6{fill:#FFFFFF;}
	.st7{fill:#817ECC;}
	.st8{fill:#10677E;}
	.st9{fill:#328C9E;}
	.st10{fill:#5AA73F;}
	.st11{fill:#64B946;}
</style>
<g>
	<g>
		<circle class="st0" cx="59.942" cy="25.887" r="18.557"/>
		<path class="st1" d="M59.942,44.513c-10.271,0-18.626-8.356-18.626-18.626S49.671,7.26,59.942,7.26s18.626,8.356,18.626,18.627
			S70.212,44.513,59.942,44.513z M59.942,7.4c-10.193,0-18.487,8.293-18.487,18.487c0,10.193,8.293,18.487,18.487,18.487
			c10.193,0,18.486-8.293,18.486-18.487S70.135,7.4,59.942,7.4z"/>
	</g>
	<g>
		<circle class="st2" cx="59.942" cy="25.887" r="6.624"/>
		<path class="st1" d="M59.942,32.58c-3.691,0-6.694-3.003-6.694-6.694s3.003-6.694,6.694-6.694s6.694,3.003,6.694,6.694
			C66.636,29.578,63.633,32.58,59.942,32.58z M59.942,19.333c-3.614,0-6.554,2.94-6.554,6.554s2.94,6.554,6.554,6.554
			s6.554-2.94,6.554-6.554S63.556,19.333,59.942,19.333z"/>
	</g>
	<g class="st3">
		<g>
			<g>
				<path d="M58.088,26.684c-0.032,0.338-0.148,0.597-0.349,0.778s-0.475,0.271-0.82,0.271c-0.233,0-0.439-0.059-0.618-0.177
					s-0.319-0.285-0.418-0.502c-0.099-0.217-0.149-0.465-0.151-0.744v-0.507c0-0.279,0.049-0.529,0.146-0.749
					c0.098-0.22,0.237-0.39,0.418-0.51s0.389-0.18,0.623-0.18c0.342,0,0.615,0.09,0.818,0.27s0.32,0.439,0.351,0.775h-0.122
					c-0.035-0.302-0.14-0.531-0.315-0.688c-0.176-0.157-0.42-0.235-0.732-0.235c-0.318,0-0.576,0.12-0.771,0.36
					c-0.196,0.24-0.294,0.562-0.294,0.966v0.482c0,0.258,0.044,0.487,0.131,0.686c0.087,0.199,0.212,0.354,0.375,0.465
					s0.35,0.167,0.56,0.167c0.314,0,0.559-0.077,0.735-0.232s0.28-0.387,0.312-0.696H58.088L58.088,26.684z"/>
			</g>
		</g>
		<g>
			<g>
				<path d="M58.484,26.422c0-0.233,0.045-0.442,0.134-0.627c0.089-0.185,0.216-0.33,0.378-0.434
					c0.163-0.104,0.347-0.155,0.553-0.155c0.204,0,0.387,0.05,0.55,0.151c0.162,0.101,0.289,0.243,0.38,0.428
					c0.091,0.185,0.137,0.393,0.138,0.624v0.108c0,0.234-0.044,0.444-0.133,0.628c-0.089,0.185-0.215,0.329-0.377,0.432
					c-0.163,0.104-0.347,0.155-0.553,0.155s-0.39-0.051-0.553-0.153s-0.289-0.245-0.38-0.429c-0.09-0.184-0.136-0.391-0.137-0.621
					V26.422z M58.605,26.517c0,0.203,0.04,0.389,0.12,0.557c0.08,0.169,0.192,0.301,0.336,0.395s0.308,0.142,0.492,0.142
					c0.278,0,0.504-0.104,0.679-0.313s0.262-0.477,0.262-0.806v-0.07c0-0.2-0.041-0.384-0.122-0.554s-0.193-0.302-0.337-0.398
					c-0.144-0.095-0.306-0.143-0.488-0.143c-0.278,0-0.504,0.106-0.68,0.318s-0.264,0.478-0.264,0.8L58.605,26.517L58.605,26.517z"
					/>
			</g>
		</g>
		<g>
			<g>
				<path d="M61.213,25.819c0.08-0.189,0.197-0.339,0.351-0.448c0.155-0.11,0.326-0.164,0.514-0.164
					c0.261,0,0.455,0.074,0.582,0.222s0.191,0.371,0.193,0.67v1.59h-0.122v-1.593c-0.002-0.261-0.055-0.454-0.16-0.579
					s-0.272-0.188-0.5-0.188c-0.21,0-0.392,0.075-0.546,0.224s-0.258,0.342-0.312,0.577v1.56h-0.122v-2.437h0.122V25.819
					L61.213,25.819z"/>
			</g>
		</g>
		<g>
			<g>
				<path d="M65.003,27.091c0-0.296-0.252-0.497-0.757-0.604c-0.303-0.065-0.514-0.147-0.633-0.249
					c-0.119-0.101-0.178-0.241-0.178-0.418c0-0.179,0.075-0.326,0.226-0.442s0.347-0.173,0.589-0.173
					c0.263,0,0.474,0.063,0.633,0.188c0.159,0.125,0.239,0.295,0.239,0.508h-0.124c0-0.164-0.069-0.3-0.207-0.41
					s-0.318-0.164-0.541-0.164c-0.213,0-0.382,0.046-0.507,0.14c-0.125,0.093-0.187,0.209-0.187,0.349
					c0,0.11,0.023,0.196,0.07,0.258c0.046,0.062,0.122,0.119,0.228,0.169c0.105,0.05,0.258,0.099,0.459,0.145
					c0.201,0.047,0.36,0.101,0.477,0.164s0.202,0.138,0.255,0.224c0.053,0.086,0.079,0.192,0.079,0.316
					c0,0.192-0.079,0.347-0.237,0.464s-0.364,0.176-0.619,0.176c-0.273,0-0.494-0.062-0.661-0.186
					c-0.168-0.124-0.251-0.283-0.251-0.479h0.122c0.012,0.171,0.087,0.304,0.226,0.4c0.139,0.095,0.327,0.143,0.564,0.143
					c0.218,0,0.394-0.051,0.53-0.152C64.935,27.358,65.003,27.236,65.003,27.091z"/>
			</g>
		</g>
		<g>
			<g>
				<path d="M67.314,27.688v-0.394c-0.072,0.135-0.177,0.242-0.315,0.321c-0.138,0.079-0.313,0.118-0.525,0.118
					c-0.266,0-0.465-0.078-0.598-0.233s-0.201-0.382-0.204-0.679v-1.57h0.122v1.574c0.003,0.258,0.062,0.454,0.176,0.587
					c0.114,0.133,0.281,0.199,0.5,0.199c0.233,0,0.422-0.055,0.568-0.164c0.146-0.11,0.238-0.27,0.277-0.482v-1.714h0.124v2.437
					L67.314,27.688L67.314,27.688z"/>
			</g>
		</g>
		<g>
			<g>
				<path d="M68.241,27.688H68.12v-3.46h0.122v3.46H68.241z"/>
			</g>
		</g>
		<g>
			<g>
				<path d="M69.198,24.594v0.658h0.554v0.122h-0.554v1.732c0,0.173,0.028,0.301,0.084,0.383c0.056,0.083,0.151,0.124,0.283,0.124
					c0.066,0,0.146-0.007,0.241-0.02l0.02,0.115c-0.05,0.018-0.134,0.027-0.255,0.027c-0.177,0-0.304-0.049-0.381-0.148
					c-0.077-0.098-0.116-0.254-0.117-0.466v-1.747h-0.45v-0.122h0.45v-0.658L69.198,24.594L69.198,24.594z"/>
			</g>
		</g>
		<g>
			<g>
				<path d="M70.236,24.49c0-0.035,0.012-0.064,0.036-0.089c0.024-0.025,0.053-0.037,0.088-0.037s0.064,0.012,0.089,0.037
					c0.025,0.025,0.037,0.054,0.037,0.089s-0.012,0.064-0.037,0.088s-0.054,0.036-0.089,0.036c-0.035,0-0.064-0.012-0.088-0.036
					C70.248,24.554,70.236,24.525,70.236,24.49z M70.421,27.688h-0.122v-2.437h0.122V27.688z"/>
			</g>
		</g>
		<g>
			<g>
				<path d="M71.227,25.819c0.08-0.189,0.197-0.339,0.351-0.448c0.155-0.11,0.326-0.164,0.514-0.164
					c0.261,0,0.455,0.074,0.582,0.222s0.191,0.371,0.193,0.67v1.59h-0.122v-1.593c-0.002-0.261-0.055-0.454-0.16-0.579
					s-0.272-0.188-0.5-0.188c-0.21,0-0.392,0.075-0.546,0.224s-0.258,0.342-0.312,0.577v1.56h-0.122v-2.437h0.122V25.819
					L71.227,25.819z"/>
			</g>
		</g>
		<g>
			<g>
				<path d="M73.4,26.445c0-0.389,0.082-0.693,0.245-0.911c0.164-0.218,0.388-0.328,0.673-0.328c0.182,0,0.343,0.042,0.484,0.125
					s0.255,0.205,0.34,0.366v-0.446h0.124v2.394c0,0.321-0.083,0.573-0.248,0.753c-0.165,0.181-0.39,0.271-0.673,0.271
					c-0.164,0-0.313-0.035-0.449-0.106c-0.136-0.071-0.252-0.172-0.348-0.305l0.086-0.081c0.094,0.12,0.198,0.211,0.311,0.275
					s0.245,0.095,0.396,0.095c0.251,0,0.446-0.076,0.586-0.228s0.212-0.367,0.216-0.644v-0.373
					c-0.084,0.138-0.198,0.244-0.341,0.319c-0.143,0.074-0.306,0.112-0.488,0.112c-0.282,0-0.505-0.112-0.669-0.336
					S73.4,26.866,73.4,26.476V26.445L73.4,26.445z M73.523,26.492c0,0.348,0.069,0.622,0.207,0.821s0.332,0.298,0.581,0.298
					c0.206,0,0.381-0.048,0.525-0.143c0.144-0.095,0.246-0.229,0.306-0.402V25.96c-0.132-0.422-0.408-0.633-0.827-0.633
					c-0.251,0-0.446,0.098-0.584,0.295C73.593,25.82,73.523,26.109,73.523,26.492z"/>
			</g>
		</g>
		<g>
			<g>
				<path d="M78.944,26.902c0-0.14-0.033-0.258-0.098-0.355s-0.168-0.182-0.308-0.257c-0.14-0.074-0.353-0.151-0.636-0.229
					c-0.284-0.078-0.497-0.157-0.639-0.237s-0.246-0.172-0.312-0.277c-0.066-0.105-0.099-0.233-0.099-0.383
					c0-0.239,0.1-0.432,0.302-0.58c0.201-0.148,0.463-0.222,0.786-0.222c0.21,0,0.399,0.041,0.566,0.123
					c0.168,0.082,0.297,0.197,0.389,0.345c0.092,0.148,0.137,0.315,0.137,0.501H78.91c0-0.245-0.09-0.447-0.27-0.607
					s-0.414-0.24-0.701-0.24c-0.288,0-0.521,0.064-0.699,0.193c-0.178,0.128-0.267,0.289-0.267,0.483
					c0,0.197,0.077,0.355,0.232,0.475s0.41,0.226,0.766,0.319c0.356,0.092,0.616,0.199,0.782,0.321
					c0.21,0.155,0.315,0.362,0.315,0.622c0,0.165-0.046,0.311-0.14,0.438c-0.093,0.127-0.225,0.225-0.396,0.294
					c-0.171,0.069-0.363,0.104-0.577,0.104c-0.237,0-0.45-0.039-0.64-0.118c-0.189-0.079-0.331-0.191-0.427-0.337
					c-0.095-0.146-0.143-0.318-0.143-0.516h0.122c0,0.269,0.1,0.477,0.302,0.626c0.201,0.149,0.463,0.223,0.786,0.223
					c0.287,0,0.523-0.066,0.71-0.197C78.851,27.283,78.944,27.112,78.944,26.902z"/>
			</g>
		</g>
		<g>
			<g>
				<path d="M80.405,27.733c-0.197,0-0.377-0.053-0.542-0.159c-0.164-0.106-0.293-0.251-0.386-0.436
					c-0.093-0.185-0.14-0.39-0.14-0.615v-0.101c0-0.225,0.045-0.432,0.135-0.619c0.09-0.188,0.214-0.334,0.372-0.439
					c0.158-0.105,0.33-0.158,0.516-0.158c0.272,0,0.494,0.097,0.667,0.291s0.259,0.448,0.259,0.764v0.128h-1.827v0.133
					c0,0.198,0.042,0.381,0.125,0.55c0.083,0.169,0.198,0.301,0.345,0.397c0.146,0.096,0.305,0.144,0.476,0.144
					c0.164,0,0.303-0.027,0.418-0.082c0.115-0.054,0.216-0.138,0.305-0.252l0.086,0.061C81.032,27.602,80.763,27.733,80.405,27.733z
					 M80.36,25.328c-0.237,0-0.438,0.088-0.604,0.265c-0.165,0.176-0.262,0.401-0.291,0.675h1.698v-0.029
					c0-0.165-0.035-0.319-0.105-0.461s-0.166-0.252-0.288-0.331C80.649,25.367,80.512,25.328,80.36,25.328z"/>
			</g>
		</g>
		<g>
			<g>
				<path d="M82.813,25.341l-0.158-0.013c-0.207,0-0.381,0.067-0.52,0.201c-0.14,0.134-0.231,0.322-0.275,0.564v1.595h-0.122v-2.437
					h0.122v0.507c0.066-0.17,0.165-0.304,0.297-0.403c0.132-0.099,0.298-0.149,0.498-0.149c0.07,0,0.128,0.009,0.171,0.025
					L82.813,25.341z"/>
			</g>
		</g>
		<g>
			<g>
				<path d="M83.923,27.495l0.876-2.243h0.131l-0.948,2.437h-0.119l-0.946-2.437h0.131L83.923,27.495z"/>
			</g>
		</g>
		<g>
			<g>
				<path d="M85.26,24.49c0-0.035,0.012-0.064,0.036-0.089c0.024-0.025,0.053-0.037,0.088-0.037c0.035,0,0.064,0.012,0.089,0.037
					c0.025,0.025,0.037,0.054,0.037,0.089s-0.012,0.064-0.037,0.088s-0.054,0.036-0.089,0.036c-0.035,0-0.064-0.012-0.088-0.036
					C85.272,24.554,85.26,24.525,85.26,24.49z M85.445,27.688h-0.122v-2.437h0.122V27.688z"/>
			</g>
		</g>
		<g>
			<g>
				<path d="M86.956,27.612c0.221,0,0.403-0.058,0.546-0.176c0.143-0.117,0.222-0.279,0.235-0.487h0.122
					c-0.012,0.236-0.103,0.425-0.272,0.569c-0.17,0.143-0.38,0.215-0.631,0.215c-0.305,0-0.547-0.11-0.726-0.331
					c-0.179-0.221-0.269-0.52-0.269-0.899v-0.081c0-0.369,0.09-0.664,0.269-0.885c0.18-0.221,0.42-0.331,0.722-0.331
					c0.258,0,0.471,0.077,0.64,0.232c0.168,0.155,0.257,0.36,0.268,0.617h-0.122c-0.01-0.219-0.088-0.395-0.231-0.528
					c-0.143-0.133-0.328-0.199-0.555-0.199c-0.272,0-0.485,0.098-0.639,0.294c-0.154,0.196-0.231,0.468-0.231,0.816v0.079
					c0,0.341,0.078,0.608,0.233,0.803C86.47,27.515,86.684,27.612,86.956,27.612z"/>
			</g>
		</g>
		<g>
			<g>
				<path d="M89.23,27.733c-0.197,0-0.377-0.053-0.542-0.159c-0.164-0.106-0.293-0.251-0.386-0.436
					c-0.093-0.185-0.14-0.39-0.14-0.615v-0.101c0-0.225,0.045-0.432,0.135-0.619c0.09-0.188,0.214-0.334,0.372-0.439
					c0.158-0.105,0.33-0.158,0.516-0.158c0.272,0,0.494,0.097,0.667,0.291s0.259,0.448,0.259,0.764v0.128h-1.827v0.133
					c0,0.198,0.042,0.381,0.125,0.55c0.083,0.169,0.198,0.301,0.345,0.397c0.146,0.096,0.305,0.144,0.476,0.144
					c0.164,0,0.303-0.027,0.418-0.082c0.115-0.054,0.216-0.138,0.305-0.252l0.086,0.061C89.857,27.602,89.588,27.733,89.23,27.733z
					 M89.185,25.328c-0.237,0-0.438,0.088-0.604,0.265c-0.165,0.176-0.262,0.401-0.291,0.675h1.698v-0.029
					c0-0.165-0.035-0.319-0.105-0.461s-0.166-0.252-0.288-0.331C89.474,25.367,89.337,25.328,89.185,25.328z"/>
			</g>
		</g>
		<g>
			<g>
				<path d="M92.066,27.091c0-0.296-0.252-0.497-0.757-0.604c-0.303-0.065-0.514-0.147-0.633-0.249
					c-0.119-0.101-0.178-0.241-0.178-0.418c0-0.179,0.075-0.326,0.226-0.442s0.347-0.173,0.589-0.173
					c0.263,0,0.474,0.063,0.633,0.188c0.159,0.125,0.239,0.295,0.239,0.508h-0.124c0-0.164-0.069-0.3-0.207-0.41
					s-0.318-0.164-0.541-0.164c-0.213,0-0.382,0.046-0.507,0.14c-0.125,0.093-0.187,0.209-0.187,0.349
					c0,0.11,0.023,0.196,0.07,0.258c0.046,0.062,0.122,0.119,0.228,0.169c0.105,0.05,0.258,0.099,0.459,0.145
					c0.201,0.047,0.36,0.101,0.477,0.164s0.202,0.138,0.255,0.224c0.053,0.086,0.079,0.192,0.079,0.316
					c0,0.192-0.079,0.347-0.237,0.464s-0.364,0.176-0.619,0.176c-0.273,0-0.494-0.062-0.661-0.186
					c-0.168-0.124-0.251-0.283-0.251-0.479h0.122c0.012,0.171,0.087,0.304,0.226,0.4c0.139,0.095,0.327,0.143,0.564,0.143
					c0.218,0,0.394-0.051,0.53-0.152C91.998,27.358,92.066,27.236,92.066,27.091z"/>
			</g>
		</g>
	</g>
	<g>
		<g>
			<g>
				<path d="M58.15,26.641c-0.032,0.338-0.148,0.597-0.349,0.778s-0.475,0.271-0.82,0.271c-0.233,0-0.439-0.059-0.618-0.177
					s-0.319-0.285-0.418-0.502c-0.099-0.217-0.149-0.465-0.151-0.744V25.76c0-0.279,0.049-0.529,0.146-0.749
					c0.098-0.22,0.237-0.39,0.418-0.51s0.389-0.18,0.623-0.18c0.342,0,0.615,0.09,0.818,0.27s0.32,0.439,0.351,0.775h-0.122
					c-0.035-0.302-0.14-0.531-0.315-0.688c-0.176-0.157-0.42-0.235-0.732-0.235c-0.318,0-0.576,0.12-0.771,0.36
					c-0.196,0.24-0.294,0.562-0.294,0.966v0.482c0,0.258,0.044,0.487,0.131,0.686c0.087,0.199,0.212,0.354,0.375,0.465
					s0.35,0.167,0.56,0.167c0.314,0,0.559-0.077,0.735-0.232s0.28-0.387,0.312-0.696H58.15L58.15,26.641z"/>
			</g>
		</g>
		<g>
			<g>
				<path d="M58.546,26.38c0-0.233,0.045-0.442,0.134-0.627c0.089-0.185,0.216-0.33,0.378-0.434
					c0.163-0.104,0.347-0.155,0.553-0.155c0.204,0,0.387,0.05,0.55,0.151c0.162,0.101,0.289,0.243,0.38,0.428
					c0.091,0.185,0.137,0.393,0.138,0.624v0.108c0,0.234-0.044,0.444-0.133,0.628c-0.089,0.185-0.215,0.329-0.377,0.432
					c-0.163,0.104-0.347,0.155-0.553,0.155s-0.39-0.051-0.553-0.153s-0.289-0.245-0.38-0.429c-0.09-0.184-0.136-0.391-0.137-0.621
					V26.38z M58.668,26.474c0,0.203,0.04,0.389,0.12,0.557c0.08,0.169,0.192,0.301,0.336,0.395c0.143,0.095,0.308,0.142,0.492,0.142
					c0.278,0,0.504-0.104,0.679-0.313s0.262-0.477,0.262-0.806v-0.07c0-0.2-0.041-0.384-0.122-0.554s-0.193-0.302-0.337-0.398
					c-0.144-0.095-0.306-0.143-0.488-0.143c-0.278,0-0.504,0.106-0.68,0.318s-0.264,0.478-0.264,0.8L58.668,26.474L58.668,26.474z"
					/>
			</g>
		</g>
		<g>
			<g>
				<path d="M61.276,25.776c0.08-0.189,0.197-0.339,0.351-0.448c0.155-0.11,0.326-0.164,0.514-0.164
					c0.261,0,0.455,0.074,0.582,0.222s0.191,0.371,0.193,0.67v1.59h-0.122v-1.593c-0.002-0.261-0.055-0.454-0.16-0.579
					s-0.272-0.188-0.5-0.188c-0.21,0-0.392,0.075-0.546,0.224s-0.258,0.342-0.312,0.577v1.56h-0.122V25.21h0.122V25.776
					L61.276,25.776z"/>
			</g>
		</g>
		<g>
			<g>
				<path d="M65.066,27.049c0-0.296-0.252-0.497-0.757-0.604c-0.303-0.065-0.514-0.147-0.633-0.249
					c-0.119-0.101-0.178-0.241-0.178-0.418c0-0.179,0.075-0.326,0.226-0.442s0.347-0.173,0.589-0.173
					c0.263,0,0.474,0.063,0.633,0.188c0.159,0.125,0.239,0.295,0.239,0.508h-0.124c0-0.164-0.069-0.3-0.207-0.41
					s-0.318-0.164-0.541-0.164c-0.213,0-0.382,0.046-0.507,0.14c-0.125,0.093-0.187,0.209-0.187,0.349
					c0,0.11,0.023,0.196,0.07,0.258c0.046,0.062,0.122,0.119,0.228,0.169c0.105,0.05,0.258,0.099,0.459,0.145
					c0.201,0.047,0.36,0.101,0.477,0.164s0.202,0.138,0.255,0.224c0.053,0.086,0.079,0.192,0.079,0.316
					c0,0.192-0.079,0.347-0.237,0.464s-0.364,0.176-0.619,0.176c-0.273,0-0.494-0.062-0.661-0.186
					c-0.168-0.124-0.251-0.283-0.251-0.479h0.122c0.012,0.171,0.087,0.304,0.226,0.4c0.139,0.095,0.327,0.143,0.564,0.143
					c0.218,0,0.395-0.051,0.53-0.152C64.998,27.316,65.066,27.193,65.066,27.049z"/>
			</g>
		</g>
		<g>
			<g>
				<path d="M67.376,27.645v-0.394c-0.072,0.135-0.177,0.242-0.315,0.321c-0.138,0.079-0.313,0.118-0.525,0.118
					c-0.266,0-0.465-0.078-0.598-0.233s-0.201-0.382-0.204-0.679v-1.57h0.122v1.574c0.003,0.258,0.062,0.454,0.176,0.587
					c0.114,0.133,0.281,0.199,0.5,0.199c0.233,0,0.422-0.055,0.568-0.164c0.146-0.11,0.238-0.27,0.277-0.482v-1.714H67.5v2.437
					L67.376,27.645L67.376,27.645z"/>
			</g>
		</g>
		<g>
			<g>
				<path d="M68.304,27.645h-0.122v-3.46h0.122V27.645z"/>
			</g>
		</g>
		<g>
			<g>
				<path d="M69.261,24.551v0.658h0.554v0.122h-0.554v1.732c0,0.173,0.028,0.301,0.084,0.383c0.056,0.083,0.15,0.124,0.283,0.124
					c0.066,0,0.146-0.007,0.241-0.02l0.02,0.115c-0.05,0.018-0.134,0.027-0.255,0.027c-0.177,0-0.304-0.049-0.381-0.148
					c-0.077-0.098-0.116-0.254-0.117-0.466V25.33h-0.45v-0.122h0.45V24.55h0.125V24.551z"/>
			</g>
		</g>
		<g>
			<g>
				<path d="M70.299,24.447c0-0.035,0.012-0.064,0.036-0.089c0.024-0.025,0.053-0.037,0.088-0.037c0.035,0,0.064,0.012,0.089,0.037
					c0.025,0.025,0.037,0.054,0.037,0.089s-0.012,0.064-0.037,0.088s-0.054,0.036-0.089,0.036c-0.035,0-0.064-0.012-0.088-0.036
					C70.311,24.511,70.299,24.482,70.299,24.447z M70.483,27.645h-0.122v-2.437h0.122V27.645z"/>
			</g>
		</g>
		<g>
			<g>
				<path d="M71.289,25.776c0.08-0.189,0.197-0.339,0.351-0.448c0.155-0.11,0.326-0.164,0.514-0.164
					c0.261,0,0.455,0.074,0.582,0.222s0.191,0.371,0.193,0.67v1.59h-0.122v-1.593c-0.002-0.261-0.055-0.454-0.16-0.579
					s-0.272-0.188-0.5-0.188c-0.21,0-0.392,0.075-0.546,0.224s-0.258,0.342-0.312,0.577v1.56h-0.122V25.21h0.122V25.776
					L71.289,25.776z"/>
			</g>
		</g>
		<g>
			<g>
				<path d="M73.462,26.402c0-0.389,0.082-0.693,0.245-0.911c0.164-0.218,0.388-0.328,0.673-0.328c0.182,0,0.343,0.042,0.484,0.125
					s0.255,0.205,0.34,0.366v-0.446h0.124v2.394c0,0.321-0.083,0.573-0.248,0.753c-0.165,0.181-0.39,0.271-0.673,0.271
					c-0.164,0-0.313-0.035-0.449-0.106c-0.136-0.071-0.252-0.172-0.348-0.305l0.086-0.081c0.094,0.12,0.198,0.211,0.311,0.275
					s0.245,0.095,0.396,0.095c0.251,0,0.446-0.076,0.586-0.228s0.212-0.367,0.216-0.644V27.26c-0.084,0.138-0.198,0.244-0.341,0.319
					c-0.143,0.074-0.306,0.112-0.488,0.112c-0.282,0-0.505-0.112-0.669-0.336s-0.245-0.531-0.245-0.921V26.402L73.462,26.402z
					 M73.586,26.45c0,0.348,0.069,0.622,0.207,0.821s0.332,0.298,0.581,0.298c0.206,0,0.381-0.048,0.525-0.143
					c0.144-0.095,0.246-0.229,0.306-0.402v-1.106c-0.132-0.422-0.408-0.633-0.827-0.633c-0.251,0-0.446,0.098-0.584,0.295
					S73.586,26.067,73.586,26.45z"/>
			</g>
		</g>
		<g>
			<g>
				<path d="M79.007,26.859c0-0.14-0.033-0.258-0.098-0.355s-0.168-0.182-0.308-0.257c-0.141-0.074-0.353-0.151-0.636-0.229
					c-0.284-0.078-0.497-0.157-0.639-0.237s-0.246-0.172-0.312-0.277c-0.066-0.105-0.099-0.233-0.099-0.383
					c0-0.239,0.1-0.432,0.302-0.58c0.201-0.148,0.463-0.222,0.786-0.222c0.21,0,0.399,0.041,0.566,0.123
					c0.168,0.082,0.297,0.197,0.389,0.345c0.092,0.148,0.137,0.315,0.137,0.501h-0.122c0-0.245-0.09-0.447-0.27-0.607
					s-0.414-0.24-0.701-0.24c-0.288,0-0.521,0.064-0.699,0.193c-0.178,0.128-0.267,0.289-0.267,0.483
					c0,0.197,0.077,0.355,0.232,0.475s0.41,0.226,0.766,0.319c0.356,0.092,0.616,0.199,0.782,0.321
					c0.21,0.155,0.315,0.362,0.315,0.622c0,0.165-0.046,0.311-0.14,0.438c-0.093,0.127-0.225,0.225-0.396,0.294
					c-0.171,0.069-0.363,0.104-0.577,0.104c-0.237,0-0.45-0.039-0.64-0.118c-0.189-0.079-0.331-0.191-0.427-0.337
					c-0.095-0.146-0.143-0.318-0.143-0.516h0.122c0,0.269,0.1,0.477,0.302,0.626c0.201,0.149,0.463,0.223,0.786,0.223
					c0.287,0,0.523-0.066,0.71-0.197C78.914,27.24,79.007,27.07,79.007,26.859z"/>
			</g>
		</g>
		<g>
			<g>
				<path d="M80.468,27.691c-0.197,0-0.377-0.053-0.542-0.159c-0.164-0.106-0.293-0.251-0.386-0.436
					c-0.093-0.185-0.14-0.39-0.14-0.615V26.38c0-0.225,0.045-0.432,0.135-0.619c0.09-0.188,0.214-0.334,0.372-0.439
					c0.158-0.105,0.33-0.158,0.516-0.158c0.272,0,0.494,0.097,0.667,0.291s0.259,0.448,0.259,0.764v0.128h-1.827v0.133
					c0,0.198,0.042,0.381,0.125,0.55c0.083,0.169,0.198,0.301,0.345,0.397c0.146,0.096,0.305,0.144,0.476,0.144
					c0.164,0,0.303-0.027,0.418-0.082c0.115-0.054,0.216-0.138,0.305-0.252l0.086,0.061C81.095,27.559,80.826,27.691,80.468,27.691z
					 M80.423,25.285c-0.237,0-0.438,0.088-0.604,0.265c-0.165,0.176-0.262,0.401-0.291,0.675h1.698v-0.029
					c0-0.165-0.035-0.319-0.105-0.461s-0.166-0.252-0.288-0.331C80.712,25.324,80.575,25.285,80.423,25.285z"/>
			</g>
		</g>
		<g>
			<g>
				<path d="M82.876,25.299l-0.158-0.013c-0.207,0-0.381,0.067-0.52,0.201c-0.14,0.134-0.231,0.322-0.275,0.564v1.595h-0.122v-2.437
					h0.122v0.507c0.066-0.17,0.165-0.304,0.297-0.403c0.132-0.099,0.298-0.149,0.498-0.149c0.07,0,0.128,0.009,0.171,0.025
					L82.876,25.299z"/>
			</g>
		</g>
		<g>
			<g>
				<path d="M83.985,27.452l0.876-2.243h0.131l-0.948,2.437h-0.119l-0.946-2.437h0.131L83.985,27.452z"/>
			</g>
		</g>
		<g>
			<g>
				<path d="M85.323,24.447c0-0.035,0.012-0.064,0.036-0.089c0.024-0.025,0.053-0.037,0.088-0.037c0.035,0,0.064,0.012,0.089,0.037
					c0.025,0.025,0.037,0.054,0.037,0.089s-0.012,0.064-0.037,0.088s-0.054,0.036-0.089,0.036s-0.064-0.012-0.088-0.036
					C85.335,24.511,85.323,24.482,85.323,24.447z M85.508,27.645h-0.122v-2.437h0.122V27.645z"/>
			</g>
		</g>
		<g>
			<g>
				<path d="M87.018,27.569c0.221,0,0.403-0.058,0.546-0.176c0.143-0.117,0.222-0.279,0.235-0.487h0.122
					c-0.012,0.236-0.103,0.425-0.272,0.569c-0.17,0.143-0.38,0.215-0.631,0.215c-0.305,0-0.547-0.11-0.726-0.331
					c-0.179-0.221-0.269-0.52-0.269-0.899v-0.08c0-0.369,0.09-0.664,0.269-0.885c0.18-0.221,0.42-0.331,0.722-0.331
					c0.258,0,0.471,0.077,0.64,0.232c0.168,0.155,0.257,0.36,0.268,0.617H87.8c-0.01-0.219-0.088-0.395-0.231-0.528
					c-0.143-0.133-0.328-0.199-0.555-0.199c-0.272,0-0.485,0.098-0.639,0.294c-0.154,0.196-0.231,0.468-0.231,0.816v0.079
					c0,0.341,0.078,0.608,0.233,0.803C86.533,27.472,86.747,27.569,87.018,27.569z"/>
			</g>
		</g>
		<g>
			<g>
				<path d="M89.293,27.691c-0.197,0-0.377-0.053-0.542-0.159c-0.164-0.106-0.293-0.251-0.386-0.436
					c-0.093-0.185-0.14-0.39-0.14-0.615V26.38c0-0.225,0.045-0.432,0.135-0.619c0.09-0.188,0.214-0.334,0.372-0.439
					c0.158-0.105,0.33-0.158,0.516-0.158c0.272,0,0.494,0.097,0.667,0.291s0.259,0.448,0.259,0.764v0.128h-1.827v0.133
					c0,0.198,0.042,0.381,0.125,0.55c0.083,0.169,0.198,0.301,0.345,0.397c0.146,0.096,0.305,0.144,0.476,0.144
					c0.164,0,0.303-0.027,0.418-0.082c0.115-0.054,0.216-0.138,0.305-0.252l0.086,0.061C89.92,27.559,89.65,27.691,89.293,27.691z
					 M89.248,25.285c-0.237,0-0.438,0.088-0.604,0.265c-0.165,0.176-0.262,0.401-0.291,0.675h1.698v-0.029
					c0-0.165-0.035-0.319-0.105-0.461s-0.166-0.252-0.288-0.331C89.537,25.324,89.4,25.285,89.248,25.285z"/>
			</g>
		</g>
		<g>
			<g>
				<path d="M92.128,27.049c0-0.296-0.252-0.497-0.757-0.604c-0.303-0.065-0.514-0.147-0.633-0.249
					c-0.119-0.101-0.178-0.241-0.178-0.418c0-0.179,0.075-0.326,0.226-0.442s0.347-0.173,0.589-0.173
					c0.263,0,0.474,0.063,0.633,0.188c0.159,0.125,0.239,0.295,0.239,0.508h-0.124c0-0.164-0.069-0.3-0.207-0.41
					s-0.318-0.164-0.541-0.164c-0.213,0-0.382,0.046-0.507,0.14c-0.125,0.093-0.187,0.209-0.187,0.349
					c0,0.11,0.023,0.196,0.07,0.258c0.046,0.062,0.122,0.119,0.228,0.169c0.105,0.05,0.258,0.099,0.459,0.145
					c0.201,0.047,0.36,0.101,0.477,0.164s0.202,0.138,0.255,0.224c0.053,0.086,0.079,0.192,0.079,0.316
					c0,0.192-0.079,0.347-0.237,0.464s-0.364,0.176-0.619,0.176c-0.273,0-0.494-0.062-0.661-0.186
					c-0.168-0.124-0.251-0.283-0.251-0.479h0.122c0.012,0.171,0.087,0.304,0.226,0.4c0.139,0.095,0.327,0.143,0.564,0.143
					c0.218,0,0.394-0.051,0.53-0.152C92.06,27.316,92.128,27.193,92.128,27.049z"/>
			</g>
		</g>
	</g>
	<g class="st4">
		<g>
			<g>
				<path d="M55.683,20.929C55.683,20.929,55.682,20.929,55.683,20.929C55.682,20.929,55.682,20.929,55.683,20.929L55.683,20.929
					L55.683,20.929L55.683,20.929c-0.038,0.024-20.785,13.278-13.435,28.608c0.007,0.037,0.013,0.073,0.021,0.111
					c0-0.001,0-0.002,0-0.002c0,0.001,0,0.002,0,0.002c-0.003-0.028-0.005-0.055-0.008-0.083c0.035,0.072,0.069,0.144,0.104,0.215
					l0,0l0,0c0,0-0.001-0.008-0.002-0.021c0-0.003-0.001-0.007-0.001-0.011c0-0.005-0.001-0.01-0.002-0.016
					c-0.001-0.01-0.002-0.022-0.003-0.036c0-0.006-0.001-0.012-0.001-0.019c-0.001-0.016-0.002-0.034-0.003-0.053
					c0-0.006-0.001-0.013-0.001-0.02c-0.001-0.022-0.001-0.045-0.002-0.07c0-0.007,0-0.015,0-0.022c0-0.027,0-0.057,0-0.088
					c0-0.006,0-0.013,0-0.019c0.001-0.034,0.002-0.07,0.003-0.108c0-0.004,0-0.009,0.001-0.013c0.002-0.038,0.004-0.078,0.007-0.119
					c0-0.005,0.001-0.01,0.001-0.014c0.003-0.043,0.008-0.089,0.013-0.136c0.001-0.007,0.001-0.015,0.002-0.022
					c0.005-0.046,0.011-0.095,0.018-0.145c0.001-0.009,0.002-0.018,0.004-0.027c0.007-0.05,0.016-0.102,0.025-0.154
					c0.002-0.01,0.004-0.02,0.005-0.03c0.01-0.054,0.021-0.109,0.033-0.166c0.002-0.01,0.004-0.02,0.007-0.03
					c0.013-0.058,0.027-0.117,0.042-0.178c0.002-0.009,0.005-0.018,0.007-0.027c0.016-0.063,0.034-0.127,0.053-0.193
					c0.002-0.006,0.004-0.013,0.006-0.019c0.021-0.069,0.043-0.138,0.067-0.209c0-0.001,0.001-0.002,0.001-0.003
					c0.024-0.071,0.051-0.143,0.079-0.217c0.003-0.007,0.005-0.014,0.008-0.021c0.028-0.071,0.058-0.142,0.089-0.215
					c0.005-0.01,0.009-0.021,0.014-0.031c0.031-0.071,0.065-0.143,0.101-0.216c0.006-0.012,0.012-0.024,0.018-0.037
					c0.036-0.072,0.074-0.145,0.114-0.219c0.007-0.013,0.014-0.025,0.021-0.038c0.041-0.074,0.084-0.149,0.13-0.224
					c0.007-0.012,0.015-0.024,0.022-0.036c0.047-0.077,0.097-0.154,0.149-0.231c0.007-0.01,0.014-0.02,0.02-0.029
					c0.055-0.08,0.112-0.161,0.173-0.243c0.004-0.005,0.008-0.01,0.012-0.015c0.061-0.081,0.124-0.162,0.191-0.243
					c0.005-0.006,0.01-0.012,0.015-0.019c0.066-0.081,0.136-0.162,0.209-0.243c0.01-0.011,0.02-0.022,0.03-0.033
					c0.071-0.078,0.145-0.156,0.222-0.234c0.014-0.014,0.027-0.028,0.041-0.042c0.076-0.077,0.156-0.153,0.238-0.23
					c0.016-0.015,0.032-0.03,0.048-0.044c0.083-0.076,0.169-0.152,0.259-0.228c0.017-0.015,0.035-0.03,0.053-0.045
					c0.091-0.076,0.186-0.152,0.284-0.228c0.017-0.013,0.035-0.026,0.052-0.039c0.101-0.077,0.206-0.154,0.315-0.231
					c0.014-0.01,0.029-0.02,0.043-0.029c0.11-0.077,0.223-0.153,0.341-0.228c0.011-0.007,0.021-0.014,0.032-0.021
					c0.118-0.075,0.24-0.149,0.366-0.223c0.019-0.011,0.037-0.022,0.056-0.033c0.124-0.072,0.253-0.143,0.384-0.213
					c0.031-0.017,0.062-0.033,0.093-0.05c0.033-0.017,0.066-0.034,0.099-0.051c0.054-0.028,0.109-0.056,0.164-0.084
					c0.032-0.016,0.065-0.032,0.098-0.048c0.058-0.028,0.116-0.057,0.176-0.085c0.029-0.014,0.06-0.027,0.089-0.041
					c0.064-0.03,0.128-0.06,0.194-0.089c0.008-0.003,0.016-0.007,0.024-0.01c0.086-0.038,0.173-0.076,0.262-0.114l0,0l0,0
					c0,0-0.131-0.435-0.241-1.231c0.02-0.01,0.039-0.02,0.059-0.03c0.072-0.036,0.145-0.072,0.218-0.107
					c0.117-0.057,0.235-0.114,0.356-0.172c0.078-0.037,0.156-0.074,0.236-0.111c0.126-0.058,0.254-0.116,0.383-0.174
					c0.076-0.034,0.151-0.068,0.229-0.102c0.174-0.077,0.353-0.153,0.534-0.23c0.032-0.013,0.062-0.027,0.094-0.04l0,0l0,0
					c0,0-4.41-6.199,5.84-19.736C55.682,20.93,55.682,20.93,55.683,20.929z"/>
			</g>
		</g>
		<g>
			<g>
				<path d="M42.968,1.772c0.638,0.23,1.818,0.826,2.817,2.277c0.069,0.1,0.137,0.204,0.204,0.313
					c0.134,0.217,0.263,0.451,0.386,0.703c0.492,1.008,0.881,2.308,1.045,3.981c0,0,0.4,0.004,1.101,0.112
					c0.001,0.006,0.002,0.012,0.003,0.019c0.009,0.051,0.017,0.104,0.026,0.155c0.02,0.116,0.039,0.234,0.057,0.353
					c0.01,0.064,0.019,0.129,0.029,0.195c0.017,0.112,0.033,0.225,0.048,0.339c0.009,0.067,0.018,0.135,0.027,0.203
					c0.016,0.121,0.031,0.245,0.046,0.369c0.007,0.062,0.015,0.122,0.022,0.185c0.021,0.18,0.04,0.363,0.059,0.549
					c0.001,0.006,0.001,0.012,0.002,0.018l0,0l0,0c0,0,7.22-2.399,17.157,11.371c0,0,0,0,0-0.001l0,0c0,0,0-0.001-0.001-0.004
					c-0.101-0.37-6.648-24.017-23.494-21.272l0,0l0,0c0,0,0.092,0.016,0.248,0.062c-0.091-0.011-0.183-0.022-0.277-0.03
					C42.64,1.702,42.803,1.738,42.968,1.772z"/>
			</g>
		</g>
		<g>
			<g>
				<path d="M87.955,32.906c0.022-0.024,0.043-0.05,0.065-0.074c0.135-0.155,0.269-0.313,0.401-0.476
					c-0.02,0.012-0.039,0.022-0.059,0.034c-0.023,0.012-0.052,0.028-0.087,0.046c-0.04,0.02-0.088,0.043-0.144,0.068
					c-0.014,0.006-0.029,0.013-0.044,0.019c-1.008,0.434-4.202,1.321-8.264-2.428c0,0-0.006,0.005-0.011,0.009
					c-0.002,0.002-0.004,0.004-0.007,0.006c-0.009,0.008-0.023,0.019-0.04,0.033c-0.003,0.003-0.007,0.006-0.011,0.009
					c-0.018,0.014-0.039,0.031-0.063,0.051c-0.003,0.002-0.005,0.004-0.009,0.007c-0.026,0.021-0.058,0.045-0.092,0.071
					c-0.008,0.006-0.016,0.012-0.025,0.019c-0.036,0.027-0.075,0.056-0.119,0.088c-0.008,0.006-0.016,0.012-0.024,0.017
					c-0.041,0.03-0.085,0.061-0.132,0.094c-0.01,0.007-0.018,0.013-0.028,0.02c-0.052,0.036-0.109,0.075-0.169,0.115
					c-0.015,0.01-0.03,0.02-0.045,0.03c-0.045,0.03-0.095,0.062-0.144,0.094c-0.038-0.031-0.078-0.063-0.116-0.094
					c-0.092-0.074-0.184-0.149-0.277-0.226c-0.05-0.042-0.101-0.084-0.151-0.126c-0.086-0.072-0.173-0.146-0.26-0.221
					c-0.052-0.045-0.104-0.089-0.157-0.135c-0.092-0.08-0.184-0.161-0.277-0.243c-0.047-0.042-0.094-0.083-0.142-0.126
					c-0.131-0.117-0.263-0.237-0.396-0.36c-0.008-0.008-0.017-0.015-0.025-0.023c0,0-0.051,0.088-0.165,0.237
					c0,0,0,0.001-0.001,0.001c-0.045,0.059-0.101,0.127-0.167,0.204c-0.002,0.003-0.004,0.005-0.006,0.007
					c-0.032,0.037-0.067,0.076-0.104,0.117c-0.001,0.001-0.001,0.001-0.002,0.002c-0.038,0.041-0.079,0.084-0.122,0.129
					c-0.004,0.004-0.008,0.008-0.012,0.012c-0.041,0.041-0.084,0.084-0.129,0.128c-0.004,0.004-0.008,0.008-0.012,0.012
					c-0.049,0.047-0.1,0.094-0.154,0.143c-0.006,0.005-0.012,0.011-0.018,0.016c-0.049,0.044-0.101,0.089-0.155,0.135
					c-0.008,0.007-0.017,0.014-0.025,0.021c-0.06,0.05-0.122,0.101-0.188,0.153c-0.007,0.006-0.015,0.012-0.022,0.017
					c-0.059,0.047-0.121,0.094-0.186,0.141c-0.012,0.009-0.024,0.018-0.037,0.028c-0.072,0.053-0.147,0.106-0.226,0.16
					c-0.007,0.005-0.014,0.009-0.021,0.014c-0.072,0.049-0.147,0.098-0.224,0.148c-0.017,0.011-0.034,0.022-0.052,0.033
					c-0.065,0.041-0.132,0.083-0.201,0.124c-0.009,0.006-0.018,0.011-0.027,0.017c-0.081,0.048-0.164,0.096-0.25,0.144
					c-0.013,0.007-0.026,0.014-0.039,0.022c-0.071,0.039-0.144,0.079-0.219,0.118c-0.024,0.013-0.049,0.025-0.074,0.038
					c-0.068,0.035-0.138,0.07-0.209,0.105c-0.025,0.012-0.05,0.024-0.075,0.037c-0.089,0.043-0.181,0.086-0.274,0.128
					c-0.006,0.003-0.012,0.006-0.018,0.008c-0.102,0.046-0.208,0.091-0.315,0.136c-0.023,0.009-0.046,0.019-0.069,0.028
					c-0.084,0.035-0.17,0.069-0.258,0.102c-0.033,0.013-0.065,0.025-0.099,0.037c-0.085,0.032-0.171,0.063-0.258,0.094
					c-0.031,0.011-0.062,0.022-0.094,0.033c-0.238,0.082-0.487,0.161-0.748,0.236c-0.033,0.01-0.067,0.019-0.101,0.028
					c-0.099,0.028-0.198,0.055-0.3,0.081c-0.042,0.011-0.085,0.022-0.127,0.033c-0.103,0.026-0.207,0.051-0.313,0.076
					c-0.038,0.009-0.074,0.018-0.112,0.026c-0.145,0.033-0.293,0.064-0.444,0.094c-0.002,0-0.005,0.001-0.007,0.001
					c-0.146,0.029-0.296,0.056-0.449,0.083c-0.045,0.008-0.091,0.015-0.136,0.023c-0.114,0.019-0.23,0.037-0.348,0.055
					c-0.052,0.008-0.103,0.015-0.155,0.023c-0.125,0.018-0.251,0.034-0.38,0.05c-0.042,0.005-0.083,0.011-0.125,0.016
					c-0.172,0.02-0.347,0.039-0.525,0.055c-0.023,0.002-0.047,0.004-0.07,0.006c-0.155,0.014-0.312,0.027-0.472,0.038
					c-0.056,0.004-0.112,0.007-0.168,0.011c-0.133,0.009-0.268,0.016-0.404,0.023c-0.06,0.003-0.121,0.006-0.182,0.008
					c-0.152,0.006-0.307,0.011-0.463,0.015c-0.043,0.001-0.085,0.003-0.128,0.003c-0.201,0.004-0.406,0.006-0.614,0.005
					c-0.039,0-0.079-0.001-0.118-0.001c-0.169-0.001-0.34-0.003-0.514-0.007c-0.067-0.002-0.134-0.003-0.201-0.005
					c-0.155-0.004-0.312-0.01-0.47-0.017c-0.068-0.003-0.136-0.006-0.205-0.009c-0.188-0.009-0.379-0.02-0.573-0.033
					c-0.037-0.002-0.072-0.004-0.109-0.007c-0.233-0.016-0.469-0.035-0.71-0.056c-0.055-0.005-0.112-0.011-0.168-0.016
					c-0.186-0.017-0.374-0.036-0.564-0.056c-0.078-0.008-0.156-0.017-0.234-0.026c-0.18-0.02-0.362-0.042-0.545-0.065
					c-0.075-0.01-0.15-0.019-0.226-0.029c-0.238-0.031-0.479-0.065-0.724-0.101c-0.019-0.003-0.037-0.005-0.055-0.008
					c-0.267-0.04-0.539-0.083-0.814-0.129c-0.069-0.012-0.14-0.024-0.21-0.036c-0.207-0.035-0.416-0.072-0.628-0.112
					c-0.087-0.016-0.176-0.033-0.264-0.049c-0.209-0.04-0.422-0.081-0.635-0.125c-0.079-0.016-0.158-0.031-0.238-0.048
					c-0.293-0.06-0.589-0.124-0.891-0.191l0,0l0,0l0,0l0,0l0,0l0.001,0.001c0.004,0.003,0.126,0.082,0.349,0.219
					c0.009,0.005,0.017,0.011,0.027,0.016c0.028,0.017,0.057,0.035,0.088,0.053c0.022,0.013,0.045,0.027,0.068,0.041
					c0.022,0.013,0.045,0.027,0.068,0.041c0.035,0.021,0.071,0.042,0.108,0.065c0.022,0.013,0.045,0.027,0.069,0.041
					c0.033,0.019,0.066,0.039,0.101,0.059c0.03,0.017,0.06,0.035,0.092,0.054c0.038,0.022,0.077,0.045,0.117,0.068
					c0.022,0.013,0.043,0.025,0.066,0.038c0.054,0.031,0.11,0.063,0.167,0.096c0.023,0.013,0.046,0.026,0.069,0.039
					c0.06,0.034,0.122,0.069,0.185,0.104c0.023,0.013,0.047,0.026,0.071,0.04c0.066,0.037,0.134,0.075,0.204,0.113
					c0.022,0.012,0.045,0.025,0.068,0.037c0.067,0.037,0.135,0.074,0.205,0.112c0.022,0.012,0.043,0.023,0.065,0.035
					c0.074,0.04,0.149,0.08,0.226,0.121c0.022,0.012,0.043,0.023,0.065,0.035c0.083,0.044,0.169,0.089,0.256,0.135
					c0.024,0.013,0.048,0.025,0.072,0.038c0.089,0.046,0.179,0.093,0.271,0.14c0.023,0.012,0.047,0.024,0.07,0.036
					c0.096,0.049,0.193,0.099,0.293,0.148c0.017,0.009,0.035,0.017,0.052,0.026c0.098,0.049,0.197,0.098,0.298,0.148
					c0.014,0.007,0.027,0.013,0.04,0.02c0.107,0.053,0.216,0.106,0.327,0.159c0.022,0.011,0.045,0.022,0.067,0.032
					c0.108,0.052,0.219,0.104,0.331,0.157c0.025,0.012,0.05,0.023,0.075,0.035c0.113,0.053,0.228,0.106,0.345,0.16
					c0.022,0.01,0.044,0.02,0.066,0.03c0.122,0.056,0.246,0.112,0.372,0.168c0.01,0.005,0.021,0.009,0.031,0.014
					c0.123,0.055,0.248,0.11,0.374,0.165c0.017,0.007,0.034,0.015,0.051,0.022c0.128,0.056,0.258,0.111,0.389,0.167
					c0.024,0.01,0.047,0.02,0.071,0.03c0.13,0.055,0.261,0.109,0.394,0.164c0.024,0.01,0.049,0.02,0.074,0.03
					c0.135,0.055,0.272,0.111,0.41,0.165c0.019,0.007,0.037,0.015,0.056,0.022c0.146,0.058,0.293,0.115,0.442,0.172
					c0,0,0.001,0,0.001,0.001c0.149,0.057,0.3,0.114,0.452,0.17c0.019,0.007,0.038,0.014,0.057,0.021
					c0.145,0.054,0.292,0.107,0.439,0.159c0.025,0.009,0.051,0.018,0.076,0.027c0.147,0.052,0.295,0.104,0.443,0.155
					c0.024,0.008,0.048,0.016,0.072,0.025c0.154,0.052,0.308,0.104,0.464,0.155c0.013,0.004,0.026,0.008,0.039,0.013
					c0.159,0.052,0.319,0.103,0.48,0.153c0.008,0.003,0.016,0.005,0.024,0.008c0.161,0.05,0.322,0.099,0.485,0.147
					c0.023,0.007,0.045,0.013,0.068,0.02c0.158,0.046,0.316,0.092,0.476,0.136c0.026,0.007,0.052,0.015,0.078,0.022
					c0.161,0.044,0.322,0.088,0.484,0.131c0.022,0.006,0.044,0.011,0.065,0.017c0.169,0.044,0.339,0.087,0.51,0.129
					c0.005,0.001,0.01,0.002,0.014,0.003c0.172,0.042,0.345,0.082,0.519,0.122c0.014,0.003,0.029,0.007,0.043,0.01
					c0.169,0.038,0.338,0.074,0.508,0.11c0.025,0.005,0.05,0.01,0.075,0.016c0.167,0.034,0.334,0.067,0.502,0.099
					c0.026,0.005,0.052,0.01,0.078,0.014c0.171,0.032,0.342,0.062,0.513,0.091c0.018,0.003,0.037,0.006,0.055,0.009
					c0.359,0.059,0.72,0.112,1.083,0.158c0.02,0.003,0.04,0.005,0.059,0.008c0.173,0.021,0.346,0.041,0.52,0.059
					c0.027,0.003,0.053,0.006,0.08,0.008c0.172,0.017,0.344,0.033,0.517,0.047c0.025,0.002,0.051,0.004,0.076,0.006
					c0.177,0.014,0.354,0.026,0.532,0.035c0.013,0.001,0.025,0.001,0.038,0.002c0.182,0.01,0.364,0.017,0.546,0.023
					c0.007,0,0.015,0.001,0.022,0.001c0.18,0.005,0.36,0.008,0.54,0.009c0.024,0,0.047,0,0.071,0c0.174,0,0.347-0.002,0.521-0.006
					c0.028-0.001,0.055-0.001,0.083-0.002c0.174-0.005,0.348-0.011,0.522-0.02c0.023-0.001,0.045-0.003,0.068-0.004
					c0.181-0.01,0.362-0.022,0.542-0.037c0.005,0,0.01-0.001,0.016-0.001c0.182-0.015,0.363-0.033,0.545-0.054
					c0.015-0.002,0.029-0.003,0.044-0.005c0.176-0.02,0.352-0.044,0.527-0.069c0.026-0.004,0.051-0.007,0.077-0.011
					c0.172-0.026,0.343-0.054,0.514-0.084c0.027-0.005,0.054-0.01,0.08-0.015c0.173-0.032,0.346-0.066,0.518-0.103
					c0.019-0.004,0.037-0.008,0.056-0.012c0.36-0.079,0.719-0.17,1.075-0.274c0.02-0.006,0.039-0.011,0.059-0.017
					c0.169-0.05,0.338-0.103,0.506-0.159c0.026-0.009,0.053-0.017,0.079-0.026c0.166-0.056,0.332-0.115,0.497-0.177
					c0.024-0.009,0.049-0.019,0.073-0.028c0.169-0.065,0.337-0.132,0.505-0.203c0.013-0.005,0.025-0.011,0.038-0.017
					c0.171-0.073,0.341-0.149,0.51-0.229c0.008-0.004,0.015-0.007,0.023-0.01c0.167-0.079,0.334-0.163,0.499-0.249
					c0.022-0.011,0.044-0.023,0.066-0.034c0.16-0.084,0.319-0.172,0.477-0.263c0.025-0.015,0.051-0.029,0.076-0.044
					c0.158-0.092,0.315-0.187,0.471-0.286c0.008-0.005,0.016-0.01,0.024-0.015c0.014-0.009,0.027-0.018,0.041-0.027
					c0.31-0.199,0.616-0.412,0.918-0.638c0.022-0.017,0.045-0.033,0.067-0.051c0.144-0.109,0.287-0.223,0.428-0.339
					c0.025-0.021,0.051-0.042,0.076-0.063c0.143-0.119,0.286-0.241,0.427-0.367c0.014-0.013,0.028-0.026,0.042-0.038
					c0.137-0.124,0.274-0.251,0.409-0.381c0.015-0.015,0.03-0.029,0.045-0.044c0.137-0.133,0.272-0.271,0.407-0.411
					c0.025-0.026,0.051-0.053,0.076-0.079C87.695,33.196,87.826,33.053,87.955,32.906z"/>
			</g>
		</g>
	</g>
	<g>
		<g>
			<g>
				<g>
					<g>
						<g>
							<g>
								<path class="st5" d="M49.332,40.189c0,0-4.205-6.341,6.486-19.535c0,0-15.723,10.361-14.35,28.263
									C40.795,45.195,43.047,42.581,49.332,40.189z"/>
							</g>
						</g>
					</g>
					<g>
						<g>
							<g>
								<path class="st6" d="M41.434,48.923c-0.117-0.645-0.145-1.262-0.083-1.833c-0.051-3.832,0.676-7.607,2.163-11.222
									c1.189-2.892,2.863-5.687,4.977-8.31c3.598-4.464,7.272-6.909,7.308-6.933l0.189-0.124l-0.142,0.176
									c-3.038,3.749-6.761,9.338-7.242,14.668c-0.274,3.034,0.633,4.622,0.746,4.807l0.279-0.038l-0.284,0.108
									c-0.957,0.364-1.83,0.739-2.596,1.113c-3.386,1.653-5.078,3.483-5.327,5.757c0.008,0.604,0.036,1.218,0.082,1.823
									L41.434,48.923z M55.64,20.819c-0.811,0.571-3.982,2.92-7.096,6.784c-2.109,2.617-3.779,5.407-4.966,8.292
									c-1.425,3.465-2.15,7.079-2.159,10.747c0.412-2.098,2.109-3.814,5.299-5.372c0.757-0.37,1.619-0.74,2.561-1.1
									c-0.015-0.025-0.035-0.062-0.063-0.116c-0.26-0.493-1.071-2.353-0.575-5.589c0.3-1.956,1.004-4.039,2.107-6.234
									c-1.154,2.297-2.02,4.741-2.231,7.132c-0.247,2.807,0.489,4.356,0.721,4.764l0.02,0.035l-0.038,0.015
									c-0.921,0.353-1.765,0.716-2.508,1.079c-2.999,1.465-4.653,3.039-5.204,4.955l-0.073,0.255L41.44,46.2
									c0.064-3.513,0.788-6.978,2.153-10.299c1.185-2.884,2.855-5.672,4.962-8.287c2.82-3.5,5.695-5.762,6.8-6.572l0.209-0.153
									l-0.161,0.203c-1.396,1.762-2.945,3.943-4.224,6.312C52.313,25.305,53.802,23.106,55.64,20.819z M55.184,21.257
									c-1.227,0.92-3.926,3.113-6.576,6.403c-2.103,2.61-3.769,5.393-4.952,8.27c-1.33,3.235-2.05,6.607-2.142,10.027
									c0.622-1.83,2.272-3.348,5.166-4.762c0.735-0.359,1.568-0.718,2.476-1.067c-0.254-0.461-0.953-2.017-0.71-4.769
									C48.697,32.514,50.074,27.768,55.184,21.257z"/>
							</g>
						</g>
					</g>
				</g>
			</g>
			<g>
				<g>
					<g>
						<g>
							<path class="st7" d="M47.394,42.323c0,0-2.686-10.071,8.425-21.669c0,0-21.443,12.708-14.257,28.399
								C41.561,49.053,41.117,44.74,47.394,42.323z"/>
						</g>
					</g>
					<g>
						<g>
							<path class="st6" d="M41.617,49.26l-0.088-0.193c-1.642-3.587-1.913-7.315-0.805-11.081c0.886-3.011,2.651-6.052,5.245-9.04
								c4.415-5.084,9.778-8.291,9.832-8.323l0.22-0.13l-0.177,0.185c-5.728,5.98-7.712,11.541-8.367,15.153
								c-0.712,3.927-0.055,6.458-0.049,6.483l0.008,0.03l-0.029,0.011c-0.407,0.157-0.8,0.327-1.167,0.507
								c-4.97,2.427-4.647,6.15-4.643,6.187L41.617,49.26z M55.607,20.824c-1.071,0.67-5.698,3.69-9.587,8.169
								c-2.587,2.98-4.347,6.012-5.23,9.013c-1.086,3.693-0.841,7.349,0.729,10.87c0-0.333,0.05-1.098,0.447-2.024
								c0.888-2.072,2.797-3.348,4.242-4.053c0.361-0.176,0.746-0.344,1.145-0.498c-0.084-0.337-0.613-2.79,0.052-6.47
								C48.053,32.246,50.005,26.748,55.607,20.824z M41.501,48.8l-0.059-0.137c-1.486-3.453-1.701-7.036-0.638-10.651
								c0.882-2.999,2.64-6.029,5.225-9.007c3.533-4.07,7.646-6.919,9.251-7.955l0.235-0.152l-0.19,0.205
								c-5.413,5.832-7.303,11.227-7.935,14.726c-0.371,2.054-0.364,3.713-0.293,4.743c0.063,0.905,0.182,1.484,0.23,1.691
								l0.007,0.03l-0.028,0.011c-0.384,0.15-0.756,0.313-1.104,0.483c-1.447,0.707-3.359,1.985-4.249,4.061
								c-0.325,0.759-0.421,1.4-0.443,1.804L41.501,48.8z M55.084,21.262c-1.741,1.144-5.635,3.912-9.001,7.79
								c-2.579,2.97-4.332,5.991-5.211,8.981c-1.045,3.552-0.85,7.074,0.578,10.47c0.036-0.41,0.145-0.999,0.438-1.683
								c0.898-2.096,2.824-3.384,4.282-4.096c0.342-0.167,0.706-0.326,1.082-0.474c-0.052-0.231-0.164-0.802-0.225-1.673
								c-0.072-1.034-0.079-2.699,0.294-4.76C47.948,32.35,49.806,27.027,55.084,21.262z"/>
						</g>
					</g>
				</g>
			</g>
		</g>
		<g>
			<g>
				<g>
					<g>
						<g>
							<path class="st8" d="M49.288,11.048c0,0,7.295-2.161,16.775,11.929c0,0-5.296-18.07-22.814-22.005
								C47.004,1.418,48.843,4.338,49.288,11.048z"/>
						</g>
					</g>
				</g>
				<g>
					<g>
						<g>
							<path class="st6" d="M66.161,23.184l-0.115-0.17l-0.008,0.001l-0.007-0.024c-2.7-4.013-6.96-9.216-11.923-11.231
								c-2.963-1.202-4.791-0.685-4.809-0.68l-0.042,0.012l-0.003-0.044c-0.367-5.527-1.676-8.484-4.246-9.589
								c-0.58-0.169-1.174-0.322-1.766-0.455l0.012-0.069c0.651,0.077,1.249,0.232,1.778,0.458c3.67,1.072,7.06,2.869,10.075,5.342
								c2.414,1.979,4.595,4.394,6.482,7.176c3.19,4.703,4.438,8.814,4.507,9.048l0.028,0.042l-0.015,0.002L66.161,23.184z
								 M50.425,10.897c0.841,0,2.113,0.152,3.709,0.799c2.725,1.106,6.978,3.923,11.825,11.063
								c-0.305-0.944-1.604-4.642-4.429-8.807c-1.883-2.777-4.06-5.186-6.468-7.161c-2.891-2.37-6.126-4.119-9.623-5.2
								c2.326,1.243,3.53,4.178,3.882,9.413C49.442,10.974,49.823,10.897,50.425,10.897z M65.911,22.663l-0.147-0.214
								c-2.638-3.83-6.797-8.807-11.625-10.767c-2.612-1.06-4.308-0.809-4.766-0.707l-0.04,0.009l-0.003-0.041
								c-0.337-4.899-1.452-7.804-3.507-9.142L45.6,1.656l0.253,0.083c3.34,1.091,6.44,2.799,9.214,5.077
								c2.41,1.979,4.586,4.392,6.469,7.174c2.52,3.723,3.839,7.134,4.289,8.428L65.911,22.663z M50.435,10.805
								c0.847,0,2.116,0.157,3.731,0.813c4.754,1.929,8.857,6.769,11.507,10.576c-0.519-1.442-1.825-4.665-4.194-8.165
								c-1.879-2.776-4.051-5.184-6.455-7.159c-2.702-2.219-5.714-3.896-8.957-4.987c1.939,1.403,3.001,4.281,3.332,9.015
								C49.589,10.859,49.939,10.805,50.435,10.805z"/>
						</g>
					</g>
				</g>
			</g>
			<g>
				<g>
					<g>
						<path class="st9" d="M47.95,8.506c0,0,10.378,0.422,18.113,14.471c0,0-5.724-24.244-22.784-22.036
							C43.279,0.94,47.514,1.795,47.95,8.506z"/>
					</g>
				</g>
				<g>
					<g>
						<path class="st6" d="M66.156,23.219l-0.124-0.225c-3.991-7.248-8.695-10.791-11.939-12.488
							c-1.836-0.96-3.409-1.444-4.406-1.68c-1.079-0.256-1.733-0.285-1.739-0.285L47.917,8.54l-0.002-0.031
							c-0.124-1.905-0.655-4.54-2.484-6.273c-1.093-1.035-2.148-1.258-2.158-1.261l-0.207-0.042l0.209-0.027
							c3.895-0.504,7.518,0.34,10.769,2.51c2.6,1.735,4.969,4.317,7.04,7.674c3.527,5.716,4.954,11.631,5.013,11.88L66.156,23.219z
							 M47.982,8.472c0.143,0.009,0.766,0.059,1.718,0.285c1,0.237,2.579,0.721,4.422,1.685c3.219,1.682,7.871,5.177,11.843,12.286
							c-0.316-1.225-1.788-6.493-4.94-11.602c-2.066-3.348-4.428-5.923-7.019-7.652C50.818,1.347,47.271,0.5,43.46,0.954
							c0.348,0.108,1.171,0.429,2.016,1.228C46.492,3.143,47.751,5.015,47.982,8.472z M65.92,22.614l-0.139-0.243
							c-3.941-6.897-8.512-10.301-11.652-11.943c-3.194-1.67-5.643-1.932-6.102-1.968l-0.03-0.002l-0.002-0.03
							C47.863,6.53,47.32,3.904,45.486,2.17c-0.699-0.66-1.369-0.995-1.808-1.16l-0.139-0.052l0.147-0.016
							c3.726-0.395,7.198,0.463,10.321,2.55c2.591,1.732,4.952,4.309,7.017,7.661c2.822,4.58,4.312,9.352,4.821,11.191L65.92,22.614
							z M48.062,8.393c0.53,0.044,2.957,0.331,6.099,1.973c3.112,1.627,7.623,4.978,11.54,11.727
							c-0.571-2.001-2.049-6.539-4.737-10.903c-2.059-3.343-4.413-5.913-6.996-7.639c-3.069-2.051-6.477-2.91-10.132-2.553
							c0.442,0.182,1.058,0.517,1.697,1.121C47.374,3.86,47.925,6.485,48.062,8.393z"/>
					</g>
				</g>
			</g>
		</g>
		<g>
			<g>
				<g>
					<g>
						<path class="st10" d="M76.957,29.628c0,0-4.019,6.461-20.463,2.224c0,0,15.961,9.991,31.67,1.299
							C85.06,35.31,81.746,34.349,76.957,29.628z"/>
					</g>
				</g>
				<g>
					<g>
						<path class="st6" d="M74.262,36.738c-2.755,0-5.589-0.367-8.442-1.094c-5.556-1.416-9.307-3.739-9.345-3.763l-0.192-0.12
							l0.219,0.056c4.617,1.19,8.689,1.645,12.105,1.354c2.504-0.213,4.612-0.818,6.266-1.796c1.491-0.882,2.048-1.757,2.053-1.766
							l0.023-0.037l0.031,0.031c3.945,3.889,6.888,5.23,9.544,4.348c0.542-0.257,1.088-0.537,1.622-0.832l0.037,0.059
							c-0.153,0.107-0.309,0.207-0.465,0.299c-0.386,0.228-0.78,0.41-1.171,0.54c-3.462,1.639-7.198,2.546-11.102,2.697
							C75.053,36.73,74.658,36.738,74.262,36.738z M56.719,31.945c0.857,0.5,4.311,2.407,9.121,3.632
							c3.257,0.829,6.488,1.188,9.606,1.068c3.744-0.145,7.331-0.987,10.671-2.504c-2.564,0.615-5.413-0.779-9.153-4.459
							c-0.122,0.175-0.717,0.963-2.053,1.753c-1.663,0.984-3.782,1.591-6.296,1.805C65.248,33.528,61.247,33.092,56.719,31.945z
							 M74.263,36.653c-2.747,0-5.572-0.365-8.416-1.09c-4.358-1.11-7.608-2.783-8.803-3.45l-0.227-0.127l0.252,0.062
							c9.818,2.423,15.125,1.011,17.849-0.599c1.24-0.733,1.829-1.44,2.024-1.71l0.024-0.033l0.029,0.028
							c3.506,3.438,6.267,4.87,8.693,4.506l0.263-0.04l-0.244,0.106c-3.221,1.402-6.673,2.183-10.259,2.323
							C75.054,36.645,74.659,36.653,74.263,36.653z M57.307,32.179c1.346,0.733,4.461,2.274,8.556,3.317
							c3.248,0.827,6.472,1.185,9.58,1.065c3.493-0.136,6.859-0.882,10.008-2.22c-2.384,0.238-5.086-1.208-8.478-4.527
							c-0.22,0.294-0.816,0.984-2.021,1.696C72.242,33.112,66.984,34.519,57.307,32.179z"/>
					</g>
				</g>
			</g>
			<g>
				<g>
					<g>
						<path class="st11" d="M79.644,30.608c0,0-8.029,6.588-23.151,1.244c0,0,20.4,14.295,31.67,1.299
							C88.164,33.15,84.433,35.329,79.644,30.608z"/>
					</g>
				</g>
				<g>
					<g>
						<path class="st6" d="M75.819,38.643c-0.249,0-0.5-0.005-0.753-0.013c-2.784-0.099-5.817-0.737-9.016-1.899
							c-5.445-1.977-9.536-4.822-9.577-4.85l-0.21-0.147l0.242,0.085c11.95,4.224,19.449,1.008,22.119-0.57
							c0.655-0.388,0.995-0.664,0.998-0.667l0.024-0.02l0.022,0.022c1.361,1.341,3.512,2.956,6.032,3.031
							c1.505,0.044,2.436-0.489,2.445-0.494l0.183-0.107l-0.139,0.16c-1.162,1.34-2.478,2.45-3.913,3.298
							C81.839,37.913,78.996,38.643,75.819,38.643z M56.736,31.973c0.923,0.615,4.623,2.98,9.339,4.692
							c3.192,1.158,6.218,1.796,8.994,1.894c3.467,0.122,6.554-0.6,9.173-2.149c1.38-0.816,2.651-1.876,3.779-3.151
							c-0.332,0.15-1.161,0.458-2.322,0.424c-2.529-0.075-4.686-1.684-6.057-3.03c-0.09,0.07-0.422,0.322-0.982,0.654
							C76,32.881,68.566,36.073,56.736,31.973z M75.819,38.558c-0.247,0-0.496-0.004-0.747-0.013
							c-2.774-0.098-5.798-0.735-8.988-1.892c-4.277-1.552-7.723-3.646-9.006-4.474l-0.235-0.152l0.265,0.089
							c11.634,3.911,18.953,0.747,21.56-0.795c0.518-0.306,0.837-0.541,0.95-0.628l0.024-0.018l0.022,0.021
							c1.361,1.329,3.514,2.929,6.036,3.003c0.96,0.028,1.684-0.167,2.122-0.337l0.138-0.053l-0.1,0.109
							c-1.089,1.199-2.308,2.201-3.624,2.979C81.809,37.833,78.98,38.558,75.819,38.558z M57.351,32.271
							c1.434,0.909,4.726,2.853,8.756,4.316c3.183,1.155,6.2,1.79,8.967,1.888c3.452,0.123,6.521-0.597,9.125-2.137
							c1.271-0.752,2.451-1.713,3.511-2.86c-0.451,0.158-1.133,0.318-2.013,0.292c-2.532-0.075-4.69-1.669-6.061-3.002
							c-0.131,0.099-0.445,0.326-0.933,0.614C76.108,32.916,68.858,36.054,57.351,32.271z"/>
					</g>
				</g>
			</g>
		</g>
	</g>
</g>
</svg>
