<?xml version="1.0" encoding="utf-8"?>
<!-- Generator: Adobe Illustrator 22.0.1, SVG Export Plug-In . SVG Version: 6.00 Build 0)  -->
<svg version="1.1" id="Layer_1" xmlns="http://www.w3.org/2000/svg" xmlns:xlink="http://www.w3.org/1999/xlink" x="0px" y="0px"
	 viewBox="0 0 180 20" style="enable-background:new 0 0 180 20;" xml:space="preserve">
<style type="text/css">
	.st0{fill:#FFFFFF;}
</style>
<g>
	<path class="st0" d="M89.9,5.356L89.9,5.356c-2.87,0-5.131,2.163-5.131,5.033v4.794c0,2.87,2.348,4.522,5.131,4.522l0,0
		c2.87,0,5.131-1.739,5.131-4.522v-4.794C95.031,7.519,92.683,5.356,89.9,5.356z M94.162,15.183c0,2.522-2.174,3.653-4.262,3.653
		s-4.262-1.131-4.262-3.653v-4.794c0-2.522,2.174-4.164,4.262-4.164s4.262,1.642,4.262,4.164V15.183z"/>
	<path class="st0" d="M89.813,7.878c-0.261,0-0.435,0.174-0.435,0.435v2.174c0,0.261,0.174,0.435,0.435,0.435
		c0.261,0,0.435-0.174,0.435-0.435V8.312C90.248,8.052,90.074,7.878,89.813,7.878z"/>
</g>
</svg>
