<?xml version="1.0" encoding="utf-8"?>
<!-- Generator: Adobe Illustrator 22.0.1, SVG Export Plug-In . SVG Version: 6.00 Build 0)  -->
<svg version="1.1" id="Layer_1" xmlns="http://www.w3.org/2000/svg" xmlns:xlink="http://www.w3.org/1999/xlink" x="0px" y="0px"
	 viewBox="0 0 10 8" style="enable-background:new 0 0 10 8;" xml:space="preserve">
<style type="text/css">
	.st0{fill:#00B3E3;}
	.st1{fill:#2374BB;}
	.st2{fill:#FFFFFF;}
</style>
<g>
	<rect x="0.2" y="1.2" class="st0" width="7" height="5.5"/>
	<polygon class="st1" points="7.2,1.2 7.2,6.7 0.2,6.7 1.5,7.6 8.5,7.6 8.5,2.5 	"/>
	<polygon class="st2" points="1.4,5.5 1.4,2.3 0.8,2.4 0.7,2 2.7,2.1 2.6,2.3 2,2.3 1.6,5.6 	"/>
	<g>
		<path class="st2" d="M4.3,5.2c-0.1,0-0.4,0.1-0.5,0.1c-1,0.1-1.3-0.5-1.4-1.1C2.3,3.5,2.5,2.8,3.1,2.7c0,0,0,0,0.1,0
			c0.6,0,0.9,0.4,1,1c0,0.1,0,0.2,0,0.3L2.7,4.1c0.1,0.9,0.6,1,1,0.9c0,0,0,0,0.1,0C3.9,5,4,4.9,4.1,4.8L4.3,5.2z M3.7,3.7
			C3.6,3.2,3.4,3,3.1,3C2.7,3,2.7,3.4,2.7,3.8L3.7,3.7z"/>
		<path class="st2" d="M5.8,6.4L6,5.1l0,0C5.9,5.3,5.6,5.4,5.3,5.4C4.6,5.3,4.5,4.5,4.6,3.8C4.7,3,5.2,2.7,5.7,2.7
			c0.2,0,0.4,0.1,0.5,0.4l0,0V2.7l0.5,0.2L6.6,3.7L6.1,6.4H5.8z M6.1,3.8C6.1,3.4,6,3.1,5.7,3C5.3,3,5.1,3.4,5,3.8
			C4.9,4.3,5,5,5.5,5C5.7,5,6,4.9,6.1,4.4V3.8z"/>
	</g>
</g>
<g>
	<path class="st2" d="M8.82,1.509H8.686V1.46h0.328v0.049H8.878v0.394H8.82V1.509z"/>
	<path class="st2" d="M9.434,1.708C9.43,1.646,9.426,1.572,9.427,1.517H9.425C9.409,1.569,9.392,1.624,9.369,1.685L9.291,1.9H9.248
		L9.176,1.689C9.155,1.627,9.138,1.57,9.125,1.517H9.124C9.122,1.572,9.119,1.646,9.115,1.713L9.104,1.902H9.049L9.08,1.46h0.072
		l0.075,0.214c0.019,0.055,0.034,0.103,0.045,0.149h0.002C9.286,1.778,9.302,1.73,9.321,1.674L9.399,1.46h0.073L9.5,1.902H9.444
		L9.434,1.708z"/>
</g>
</svg>
