<?xml version="1.0" encoding="utf-8"?>
<!-- Generator: Adobe Illustrator 22.0.1, SVG Export Plug-In . SVG Version: 6.00 Build 0)  -->
<svg version="1.1" id="Layer_1" xmlns="http://www.w3.org/2000/svg" xmlns:xlink="http://www.w3.org/1999/xlink" x="0px" y="0px"
	 viewBox="0 0 225 50" style="enable-background:new 0 0 225 50;" xml:space="preserve">
<style type="text/css">
	.st0{fill:#4DA8B6;}
	.st1{fill:#FFFFFF;}
	.st2{opacity:0.21;enable-background:new    ;}
</style>
<path class="st0" d="M211.101,0.35c-7.078,0-12.816,5.738-12.816,12.816s12.816,28.075,12.816,28.075s12.816-20.997,12.816-28.075
	S218.179,0.35,211.101,0.35z"/>
<circle class="st1" cx="211.101" cy="13.166" r="6.432"/>
<ellipse class="st2" cx="211.101" cy="47.338" rx="5.492" ry="1.662"/>
<g>
	<path class="st0" d="M211.338,13.251c0,0.425-0.07,0.795-0.211,1.111s-0.335,0.569-0.583,0.761l0.74,0.586l-0.683,0.58
		l-0.986-0.794c-0.093,0.013-0.185,0.019-0.277,0.019c-0.391,0-0.738-0.09-1.04-0.271c-0.302-0.181-0.537-0.439-0.707-0.775
		c-0.17-0.336-0.257-0.722-0.264-1.159v-0.243c0-0.451,0.083-0.848,0.247-1.191c0.165-0.343,0.4-0.607,0.706-0.794
		c0.305-0.187,0.656-0.28,1.051-0.28c0.389,0,0.734,0.093,1.039,0.277c0.305,0.185,0.542,0.448,0.71,0.789
		c0.17,0.341,0.255,0.732,0.257,1.173L211.338,13.251C211.337,13.251,211.338,13.251,211.338,13.251z M210.213,13.059
		c0-0.455-0.076-0.801-0.229-1.038c-0.152-0.236-0.37-0.355-0.653-0.355c-0.292,0-0.512,0.117-0.659,0.35
		c-0.147,0.233-0.221,0.575-0.223,1.024v0.211c0,0.452,0.074,0.798,0.223,1.038c0.15,0.241,0.371,0.36,0.665,0.36
		c0.281,0,0.497-0.118,0.647-0.356c0.15-0.236,0.227-0.578,0.229-1.023V13.059z"/>
</g>
<g>
	<path class="st0" d="M214.3,13.779h0.465v0.837H214.3v0.995h-1.059v-0.995h-1.77l-0.063-0.664l1.833-3.021v-0.009h1.059
		L214.3,13.779L214.3,13.779z M212.417,13.779h0.824v-1.443l-0.066,0.11L212.417,13.779z"/>
</g>
</svg>
