<?xml version="1.0" encoding="utf-8"?>
<!-- Generator: Adobe Illustrator 22.1.0, SVG Export Plug-In . SVG Version: 6.00 Build 0)  -->
<svg version="1.1" id="Layer_1" xmlns="http://www.w3.org/2000/svg" xmlns:xlink="http://www.w3.org/1999/xlink" x="0px" y="0px"
	 viewBox="0 0 10 8" style="enable-background:new 0 0 10 8;" xml:space="preserve">
<style type="text/css">
	.st0{fill:#00B2E3;}
	.st1{fill:#2374BA;}
	.st2{fill:#FFFFFF;}
</style>
<g>
	<g>
		<g>
			<rect x="0.218" y="0.758" class="st0" width="7.292" height="5.749"/>
			<polygon class="st1" points="7.511,0.758 7.511,6.507 0.218,6.507 1.545,7.391 8.842,7.391 8.842,2.084 			"/>
			<polygon class="st2" points="1.43,5.252 1.489,1.893 0.847,1.962 0.768,1.546 2.825,1.639 2.74,1.834 2.042,1.866 1.688,5.31 			
				"/>
			<g>
				<path class="st2" d="M4.425,4.858C4.312,4.935,4.093,5,3.875,5.031C2.962,5.163,2.584,4.48,2.477,3.867
					c-0.133-0.768,0.1-1.441,0.731-1.532C3.231,2.332,3.262,2.333,3.285,2.33c0.639-0.043,0.896,0.427,0.993,0.986
					c0.02,0.113,0.026,0.184,0.038,0.325L2.812,3.742c0.121,0.836,0.562,0.943,0.928,0.923c0.029-0.004,0.06-0.003,0.089-0.007
					C4.017,4.63,4.151,4.567,4.243,4.504L4.425,4.858z M3.84,3.334c-0.085-0.489-0.315-0.77-0.621-0.725
					c-0.348,0.05-0.432,0.47-0.391,0.844L3.84,3.334z"/>
				<path class="st2" d="M6.042,6.147l0.173-1.341L6.197,4.804C6.075,4.985,5.793,5.148,5.475,5.102
					C4.727,4.994,4.645,4.178,4.76,3.517c0.146-0.843,0.694-1.216,1.16-1.149c0.224,0.032,0.443,0.163,0.555,0.455l0.012,0.002
					l0.007-0.489L7.008,2.57l-0.137,0.79L6.364,6.1L6.042,6.147z M6.366,3.485c0.05-0.395-0.118-0.744-0.431-0.789
					C5.552,2.64,5.3,3.011,5.213,3.516c-0.077,0.44-0.041,1.14,0.478,1.215c0.2,0.029,0.544-0.109,0.6-0.602L6.366,3.485z"/>
			</g>
		</g>
	</g>
	<g>
		<path class="st2" d="M8.764,1.123c0-0.053,0.012-0.102,0.037-0.147C8.825,0.93,8.859,0.895,8.903,0.869
			c0.043-0.026,0.09-0.039,0.141-0.039S9.14,0.843,9.184,0.869C9.227,0.895,9.261,0.93,9.286,0.976
			C9.31,1.021,9.323,1.07,9.323,1.123c0,0.052-0.012,0.101-0.036,0.146C9.263,1.314,9.229,1.35,9.186,1.378
			C9.142,1.405,9.095,1.418,9.043,1.418S8.944,1.405,8.901,1.378C8.857,1.35,8.824,1.314,8.8,1.269
			C8.776,1.224,8.764,1.175,8.764,1.123z M8.797,1.123c0,0.047,0.011,0.091,0.033,0.131c0.022,0.04,0.052,0.072,0.09,0.096
			c0.038,0.023,0.079,0.035,0.123,0.035S9.128,1.373,9.166,1.35c0.038-0.023,0.068-0.055,0.09-0.096
			C9.278,1.213,9.289,1.17,9.289,1.123c0-0.046-0.011-0.089-0.032-0.129c-0.021-0.04-0.051-0.072-0.089-0.095
			C9.13,0.875,9.088,0.863,9.043,0.863c-0.044,0-0.085,0.012-0.123,0.035C8.882,0.921,8.852,0.953,8.83,0.993
			C8.808,1.033,8.797,1.076,8.797,1.123z M8.98,1.148v0.136H8.941v-0.33h0.101c0.039,0,0.068,0.008,0.089,0.024
			c0.021,0.016,0.031,0.041,0.031,0.073c0,0.035-0.018,0.061-0.055,0.077C9.126,1.135,9.139,1.146,9.146,1.16
			c0.007,0.014,0.011,0.031,0.011,0.051c0,0.02,0.001,0.034,0.002,0.043C9.16,1.264,9.162,1.271,9.164,1.277v0.006h-0.04
			C9.12,1.274,9.118,1.25,9.118,1.212c0-0.023-0.005-0.04-0.015-0.05c-0.01-0.01-0.027-0.015-0.05-0.015H8.98z M8.98,1.112h0.071
			c0.021,0,0.039-0.006,0.053-0.017C9.117,1.085,9.124,1.07,9.124,1.052c0-0.022-0.006-0.038-0.017-0.048
			C9.095,0.995,9.076,0.99,9.048,0.989H8.98V1.112z"/>
	</g>
</g>
</svg>
