<?xml version="1.0" encoding="utf-8"?>
<!-- Generator: Adobe Illustrator 22.0.1, SVG Export Plug-In . SVG Version: 6.00 Build 0)  -->
<svg version="1.1" id="Layer_1" xmlns="http://www.w3.org/2000/svg" xmlns:xlink="http://www.w3.org/1999/xlink" x="0px" y="0px"
	 viewBox="0 0 500 250" style="enable-background:new 0 0 500 250;" xml:space="preserve">
<style type="text/css">
	.st0{fill:#F05123;}
	.st1{opacity:0.21;enable-background:new    ;}
	.st2{fill:#8E2C06;}
	.st3{fill:#FFFFFF;}
</style>
<g>
	<path class="st0" d="M249.959,99.192c-15.285,0-27.679,12.393-27.679,27.679s27.679,60.631,27.679,60.631
		s27.679-45.345,27.679-60.631C277.637,111.579,265.244,99.192,249.959,99.192z M249.959,140.757c-7.669,0-13.89-6.22-13.89-13.891
		c0-7.669,6.22-13.89,13.89-13.89c7.669,0,13.89,6.22,13.89,13.89C263.849,134.536,257.629,140.757,249.959,140.757z"/>
	<ellipse class="st1" cx="249.959" cy="211.528" rx="14.108" ry="4.269"/>
	<g>
		<path class="st2" d="M252.892,115.439c2.504,0,4.858,0.615,6.948,1.679c-2.518-2.55-6.012-4.138-9.879-4.138
			c-7.669,0-13.89,6.22-13.89,13.891c0,2.414,0.671,4.652,1.754,6.631c-0.159-0.889-0.257-1.799-0.257-2.734
			C237.567,122.3,244.429,115.439,252.892,115.439z"/>
	</g>
	<rect x="157.582" y="38.402" class="st3" width="184.504" height="65.703"/>
	<rect x="157.582" y="38.402" class="st0" width="184.504" height="0.829"/>
	<polygon class="st2" points="342.085,104.105 157.582,104.105 164.387,107.172 335.28,107.172 	"/>
	<g>
		<path class="st0" d="M197.861,66.432h-2.99l-5.821-9.55v9.55h-2.99V51.918h2.99l5.833,9.571v-9.571h2.98v14.513H197.861z"/>
		<path class="st0" d="M204.739,66.631c-1.581,0-2.869-0.485-3.863-1.456c-0.993-0.971-1.491-2.264-1.491-3.877V61.02
			c0-1.087,0.209-2.051,0.629-2.906s1.012-1.511,1.781-1.974c0.766-0.463,1.642-0.695,2.627-0.695c1.474,0,2.638,0.465,3.485,1.395
			c0.848,0.93,1.274,2.25,1.274,3.956v1.18h-6.869c0.093,0.706,0.374,1.269,0.844,1.692c0.468,0.426,1.062,0.638,1.778,0.638
			c1.11,0,1.978-0.401,2.602-1.205l1.415,1.585c-0.431,0.612-1.016,1.087-1.754,1.428C206.453,66.461,205.634,66.631,204.739,66.631
			z M204.411,57.769c-0.572,0-1.037,0.196-1.39,0.581c-0.356,0.39-0.583,0.944-0.684,1.663h4.008v-0.231
			c-0.013-0.64-0.186-1.137-0.52-1.486C205.493,57.946,205.021,57.769,204.411,57.769z"/>
		<path class="st0" d="M219.68,62.515l1.415-6.868h2.782l-2.752,10.787h-2.411l-2.044-6.79l-2.044,6.79h-2.402l-2.752-10.787h2.782
			l1.406,6.857l1.974-6.857h2.083L219.68,62.515z"/>
		<path class="st0" d="M241.478,59.506c0,1.427-0.252,2.682-0.758,3.757c-0.505,1.075-1.228,1.907-2.169,2.493
			c-0.941,0.586-2.018,0.877-3.235,0.877c-1.202,0-2.276-0.289-3.22-0.866c-0.944-0.581-1.674-1.404-2.194-2.479
			c-0.52-1.073-0.779-2.307-0.787-3.703v-0.717c0-1.432,0.257-2.689,0.773-3.775c0.515-1.087,1.241-1.919,2.183-2.502
			c0.941-0.583,2.016-0.873,3.226-0.873c1.209,0,2.285,0.289,3.226,0.873c0.939,0.583,1.665,1.415,2.183,2.502
			c0.518,1.087,0.773,2.34,0.773,3.764v0.649L241.478,59.506L241.478,59.506z M238.447,58.846c0-1.52-0.272-2.677-0.816-3.468
			c-0.544-0.789-1.323-1.185-2.331-1.185c-1.003,0-1.778,0.392-2.322,1.173c-0.544,0.779-0.821,1.926-0.827,3.434v0.708
			c0,1.479,0.272,2.632,0.816,3.448c0.544,0.818,1.329,1.228,2.352,1.228c1.003,0,1.775-0.394,2.313-1.182
			c0.538-0.789,0.809-1.937,0.816-3.446V58.846L238.447,58.846z"/>
		<path class="st0" d="M245.604,55.647l0.089,1.245c0.77-0.962,1.806-1.445,3.102-1.445c1.143,0,1.994,0.335,2.552,1.005
			c0.558,0.675,0.844,1.674,0.857,3.013v6.966h-2.883v-6.915c0-0.615-0.134-1.06-0.399-1.334c-0.265-0.276-0.708-0.417-1.325-0.417
			c-0.809,0-1.417,0.346-1.826,1.041v7.623h-2.88V55.642h2.715v0.005L245.604,55.647L245.604,55.647z"/>
		<path class="st0" d="M256.915,66.432h-2.888V51.119h2.888V66.432z"/>
		<path class="st0" d="M258.759,52.856c0-0.431,0.146-0.789,0.433-1.069c0.287-0.278,0.684-0.417,1.182-0.417
			c0.492,0,0.884,0.139,1.178,0.417c0.292,0.278,0.438,0.636,0.438,1.069c0,0.438-0.148,0.798-0.442,1.078
			c-0.296,0.278-0.688,0.42-1.173,0.42s-0.875-0.141-1.173-0.42S258.759,53.293,258.759,52.856z M261.82,66.432h-2.892V55.644h2.892
			V66.432z"/>
		<path class="st0" d="M266.333,55.647l0.089,1.245c0.77-0.962,1.802-1.445,3.102-1.445c1.143,0,1.994,0.335,2.552,1.005
			c0.558,0.675,0.842,1.674,0.855,3.013v6.966h-2.88v-6.915c0-0.615-0.134-1.06-0.399-1.334c-0.265-0.276-0.708-0.417-1.325-0.417
			c-0.809,0-1.419,0.346-1.826,1.041v7.623h-2.88V55.642h2.715v0.005L266.333,55.647L266.333,55.647z"/>
		<path class="st0" d="M279.568,66.631c-1.581,0-2.869-0.485-3.861-1.456c-0.993-0.971-1.491-2.264-1.491-3.877V61.02
			c0-1.087,0.209-2.051,0.629-2.906c0.417-0.855,1.01-1.511,1.778-1.974c0.767-0.463,1.643-0.695,2.625-0.695
			c1.474,0,2.639,0.465,3.485,1.395c0.848,0.93,1.274,2.25,1.274,3.956v1.18h-6.87c0.093,0.706,0.374,1.269,0.844,1.692
			c0.468,0.426,1.062,0.638,1.778,0.638c1.11,0,1.976-0.401,2.6-1.205l1.417,1.585c-0.433,0.612-1.019,1.087-1.754,1.428
			C281.283,66.461,280.468,66.631,279.568,66.631z M279.242,57.769c-0.572,0-1.036,0.196-1.39,0.581
			c-0.354,0.39-0.583,0.944-0.684,1.663h4.008v-0.231c-0.013-0.64-0.186-1.137-0.52-1.486
			C280.324,57.946,279.852,57.769,279.242,57.769z"/>
		<path class="st0" d="M292.884,61.319v5.116h-2.99V51.921h5.662c1.089,0,2.051,0.2,2.876,0.599c0.827,0.399,1.465,0.966,1.909,1.7
			c0.446,0.736,0.669,1.57,0.669,2.507c0,1.422-0.488,2.543-1.463,3.363c-0.971,0.821-2.32,1.23-4.04,1.23L292.884,61.319
			L292.884,61.319z M292.884,58.896h2.673c0.794,0,1.395-0.186,1.812-0.558c0.413-0.372,0.62-0.903,0.62-1.595
			c0-0.71-0.209-1.286-0.625-1.727c-0.422-0.438-0.995-0.665-1.738-0.679h-2.743L292.884,58.896L292.884,58.896z"/>
		<path class="st0" d="M302.553,66.432V51.918h4.466c1.276,0,2.416,0.287,3.426,0.862c1.005,0.577,1.792,1.393,2.357,2.452
			c0.565,1.062,0.848,2.267,0.848,3.614v0.669c0,1.349-0.278,2.547-0.832,3.598c-0.556,1.051-1.338,1.865-2.348,2.443
			c-1.01,0.579-2.151,0.871-3.421,0.877h-4.495L302.553,66.432L302.553,66.432z M305.544,54.339v9.689h1.447
			c1.169,0,2.062-0.381,2.682-1.146s0.932-1.857,0.948-3.281v-0.766c0-1.474-0.308-2.593-0.916-3.354
			c-0.615-0.763-1.506-1.143-2.684-1.143h-1.476V54.339L305.544,54.339z"/>
		<path class="st0" d="M221.424,80.919h-5.742v5.929h-2.99V72.334h9.45v2.42h-6.46v3.748h5.742v2.417H221.424z"/>
		<path class="st0" d="M227.932,87.047c-1.581,0-2.869-0.485-3.863-1.456c-0.993-0.971-1.491-2.263-1.491-3.877v-0.278
			c0-1.087,0.209-2.051,0.629-2.906c0.42-0.855,1.012-1.511,1.78-1.974c0.766-0.463,1.643-0.695,2.627-0.695
			c1.474,0,2.638,0.465,3.485,1.395c0.848,0.93,1.274,2.251,1.274,3.956v1.18h-6.869c0.093,0.706,0.374,1.268,0.844,1.692
			c0.468,0.426,1.062,0.638,1.778,0.638c1.11,0,1.978-0.401,2.602-1.205l1.415,1.585c-0.431,0.612-1.016,1.087-1.754,1.428
			C229.647,86.878,228.829,87.047,227.932,87.047z M227.603,78.185c-0.572,0-1.037,0.196-1.39,0.581
			c-0.356,0.39-0.583,0.944-0.684,1.663h4.008v-0.231c-0.013-0.64-0.186-1.137-0.52-1.486
			C228.685,78.361,228.214,78.185,227.603,78.185z"/>
		<path class="st0" d="M239.742,86.849c-0.135-0.259-0.229-0.583-0.287-0.969c-0.699,0.78-1.606,1.169-2.723,1.169
			c-1.058,0-1.933-0.306-2.627-0.916c-0.695-0.61-1.041-1.381-1.041-2.314c0-1.143,0.424-2.022,1.274-2.632
			c0.846-0.612,2.071-0.918,3.673-0.927h1.325v-0.615c0-0.501-0.129-0.898-0.385-1.196c-0.254-0.302-0.658-0.449-1.209-0.449
			c-0.485,0-0.866,0.118-1.141,0.346c-0.276,0.236-0.413,0.553-0.413,0.957h-2.88c0-0.624,0.194-1.2,0.579-1.733
			c0.385-0.533,0.93-0.948,1.635-1.251s1.495-0.453,2.372-0.453c1.329,0,2.384,0.333,3.165,1.001
			c0.779,0.669,1.173,1.609,1.173,2.818v4.676c0.007,1.023,0.148,1.799,0.426,2.321v0.17h-2.913v-0.001H239.742z M237.36,84.846
			c0.426,0,0.816-0.093,1.178-0.283c0.358-0.188,0.625-0.442,0.798-0.763v-1.853h-1.078c-1.443,0-2.21,0.499-2.302,1.495
			l-0.009,0.168c0,0.358,0.127,0.656,0.379,0.889C236.578,84.731,236.922,84.846,237.36,84.846z"/>
		<path class="st0" d="M247.377,73.411v2.652h1.844v2.114h-1.844v5.383c0,0.399,0.077,0.686,0.229,0.857
			c0.155,0.173,0.446,0.259,0.877,0.259c0.32,0,0.603-0.022,0.848-0.07v2.185c-0.564,0.173-1.146,0.259-1.745,0.259
			c-2.022,0-3.054-1.021-3.092-3.06v-5.813h-1.572v-2.114h1.572V73.41L247.377,73.411L247.377,73.411z"/>
		<path class="st0" d="M256.779,85.752c-0.713,0.864-1.698,1.295-2.951,1.295c-1.157,0-2.04-0.331-2.647-0.995
			c-0.61-0.665-0.918-1.638-0.932-2.921v-7.066h2.88v6.976c0,1.123,0.515,1.686,1.539,1.686c0.975,0,1.65-0.335,2.012-1.016v-7.645
			h2.892v10.787h-2.711L256.779,85.752z"/>
		<path class="st0" d="M267.29,78.766c-0.392-0.052-0.738-0.079-1.036-0.079c-1.089,0-1.802,0.367-2.144,1.104v7.057h-2.88V76.06
			h2.721l0.079,1.284c0.581-0.989,1.379-1.484,2.405-1.484c0.32,0,0.617,0.046,0.898,0.129L267.29,78.766z"/>
		<path class="st0" d="M272.941,87.047c-1.581,0-2.869-0.485-3.861-1.456c-0.993-0.971-1.491-2.263-1.491-3.877v-0.278
			c0-1.087,0.209-2.051,0.629-2.906c0.417-0.855,1.01-1.511,1.779-1.974c0.766-0.463,1.643-0.695,2.625-0.695
			c1.474,0,2.639,0.465,3.485,1.395c0.848,0.93,1.274,2.251,1.274,3.956v1.18h-6.87c0.093,0.706,0.374,1.268,0.844,1.692
			c0.468,0.426,1.062,0.638,1.779,0.638c1.11,0,1.976-0.401,2.6-1.205l1.417,1.585c-0.433,0.612-1.019,1.087-1.754,1.428
			C274.655,86.878,273.84,87.047,272.941,87.047z M272.613,78.185c-0.572,0-1.036,0.196-1.39,0.581
			c-0.354,0.39-0.583,0.944-0.684,1.663h4.008v-0.231c-0.013-0.64-0.186-1.137-0.52-1.486
			C273.695,78.361,273.224,78.185,272.613,78.185z"/>
		<path class="st0" d="M284.346,83.87c0-0.354-0.175-0.629-0.524-0.832c-0.346-0.205-0.907-0.385-1.679-0.544
			c-2.566-0.535-3.846-1.627-3.846-3.27c0-0.957,0.396-1.753,1.191-2.398c0.794-0.64,1.832-0.962,3.115-0.962
			c1.369,0,2.464,0.324,3.285,0.966c0.818,0.647,1.23,1.484,1.23,2.511h-2.88c0-0.413-0.134-0.751-0.399-1.021
			c-0.265-0.267-0.684-0.403-1.246-0.403c-0.488,0-0.862,0.109-1.128,0.331c-0.265,0.218-0.399,0.497-0.399,0.837
			c0,0.32,0.15,0.577,0.453,0.77c0.302,0.198,0.809,0.367,1.529,0.51c0.719,0.144,1.325,0.304,1.817,0.483
			c1.52,0.558,2.282,1.524,2.282,2.901c0,0.984-0.422,1.778-1.268,2.386c-0.842,0.61-1.933,0.912-3.27,0.912
			c-0.903,0-1.707-0.161-2.407-0.483c-0.704-0.322-1.252-0.764-1.652-1.327c-0.399-0.56-0.599-1.169-0.599-1.819h2.732
			c0.028,0.513,0.218,0.903,0.568,1.178c0.354,0.273,0.823,0.409,1.417,0.409c0.549,0,0.966-0.105,1.25-0.313
			C284.202,84.482,284.346,84.206,284.346,83.87z"/>
	</g>
</g>
</svg>
