<?xml version="1.0" encoding="utf-8"?>
<!-- Generator: Adobe Illustrator 22.0.1, SVG Export Plug-In . SVG Version: 6.00 Build 0)  -->
<svg version="1.1" id="Layer_1" xmlns="http://www.w3.org/2000/svg" xmlns:xlink="http://www.w3.org/1999/xlink" x="0px" y="0px"
	 viewBox="0 0 400 175" style="enable-background:new 0 0 400 175;" xml:space="preserve">
<style type="text/css">
	.st0{fill:#2F3558;}
</style>
<g>
	<path class="st0" d="M235.644,90.358c-0.65,0.205-1.301,0.407-1.952,0.605c-1.864,0.043-3.727-1.354-5.591-1.296
		c-1.248,0.455-2.498-0.9-3.749-0.479c-1.174-0.092-2.347-0.176-3.52-0.251c-1.666,0.154-3.333,0.307-5,0.46
		c-2.667-0.131-5.334-0.263-8-0.397c-1.744,0.151-3.488,0.314-5.231,0.487c-1.921-0.492-3.841-1.006-5.762-1.542
		c-2.792,0.008-5.582,0.027-8.373,0.055c-0.997-0.229-1.994-0.462-2.991-0.7c-10.55,0.318-21.09,4.08-31.612,4.804
		c-1.005,0.069-2.01,0.139-3.014,0.211c-2.117,0.154-4.231,0.338-6.346,0.508c-0.763-0.376-1.523-0.741-2.288-1.124
		c-0.001-0.004-2.289,0.82-5.301,1.564c-0.184-0.004-0.367-0.009-0.551-0.013c-0.796-0.019-1.593-0.038-2.389-0.057
		c14.727,2.809,29.906,5.557,45.007,6.885c0.284,0.043,0.539,0.086,0.799,0.129l0.201-0.129h3.114h0.835h16.044h16.093h0.835h2.064
		c2.731-0.036,8.613-0.65,16.854-1.611L235.644,90.358z"/>
</g>
</svg>
