<?xml version="1.0" encoding="utf-8"?>
<!-- Generator: Adobe Illustrator 22.0.1, SVG Export Plug-In . SVG Version: 6.00 Build 0)  -->
<svg version="1.1" id="Layer_1" xmlns="http://www.w3.org/2000/svg" xmlns:xlink="http://www.w3.org/1999/xlink" x="0px" y="0px"
	 viewBox="0 0 180 20" style="enable-background:new 0 0 180 20;" xml:space="preserve">
<style type="text/css">
	.st0{fill:#FFFFFF;}
	.st1{opacity:0.7;fill:#FFFFFF;}
	.st2{opacity:0.4;fill:#FFFFFF;}
</style>
<g>
	<path class="st0" d="M66.639,2.563c0.101,0.051,0.169,0.123,0.202,0.218s0.044,0.202,0.032,0.323
		c-0.011,0.12-0.04,0.242-0.087,0.365c-0.049,0.123-0.102,0.242-0.164,0.355c-0.061,0.113-0.126,0.213-0.191,0.3
		s-0.12,0.149-0.163,0.186c-0.015-0.014-0.032-0.021-0.055-0.021l-0.021-0.011c-0.015,0-0.022-0.004-0.022-0.011
		c-0.123-0.029-0.233-0.027-0.326,0.005c-0.095,0.032-0.177,0.086-0.247,0.158c-0.07,0.072-0.12,0.158-0.153,0.257
		c-0.032,0.098-0.042,0.198-0.027,0.3c-0.051-0.08-0.065-0.193-0.044-0.339c-0.036,0.095-0.049,0.196-0.039,0.3
		c0.011,0.106,0.054,0.209,0.126,0.311c-0.132-0.021-0.235-0.072-0.311-0.153c-0.076-0.08-0.128-0.173-0.158-0.278
		c-0.03-0.106-0.042-0.213-0.039-0.323c0.004-0.11,0.02-0.204,0.05-0.284c-0.081,0.146-0.125,0.291-0.132,0.437
		c-0.007,0.146,0.014,0.274,0.066,0.387c0.051,0.113,0.132,0.209,0.245,0.289c0.113,0.081,0.249,0.127,0.41,0.142
		c-0.123,0.072-0.273,0.086-0.447,0.039c-0.174-0.047-0.329-0.149-0.463-0.305c-0.135-0.157-0.228-0.362-0.278-0.617
		c-0.051-0.254-0.015-0.557,0.11-0.906c-0.262-0.203-0.508-0.339-0.737-0.404s-0.428-0.083-0.6-0.055
		c-0.171,0.03-0.308,0.098-0.41,0.208c-0.101,0.11-0.162,0.237-0.179,0.382c-0.019,0.146,0.014,0.299,0.097,0.458
		c0.083,0.161,0.224,0.306,0.42,0.437c0.495,0.335,0.884,0.695,1.168,1.081c0.284,0.386,0.482,0.777,0.595,1.173
		c0.113,0.397,0.146,0.786,0.098,1.168c-0.049,0.382-0.157,0.737-0.328,1.064c-0.172,0.328-0.397,0.613-0.676,0.857
		c-0.28,0.243-0.599,0.426-0.955,0.546c-0.357,0.121-0.742,0.166-1.157,0.137c-0.415-0.03-0.841-0.157-1.277-0.382
		c-0.401-0.204-0.714-0.457-0.939-0.759c-0.225-0.301-0.379-0.623-0.458-0.96c-0.08-0.339-0.097-0.679-0.05-1.02
		c0.049-0.343,0.142-0.659,0.284-0.95c0.142-0.291,0.32-0.539,0.534-0.742c0.215-0.203,0.453-0.335,0.715-0.392
		c-0.087,0.065-0.217,0.169-0.387,0.311c-0.172,0.142-0.326,0.333-0.465,0.573c0.102-0.174,0.257-0.34,0.465-0.497
		c0.207-0.157,0.453-0.242,0.736-0.257c0.159,0,0.314,0.042,0.463,0.126c0.149,0.083,0.279,0.186,0.389,0.305
		c0.108,0.121,0.193,0.249,0.25,0.387c0.059,0.138,0.076,0.262,0.055,0.371c-0.24-0.065-0.473-0.052-0.699,0.039
		c-0.225,0.088-0.425,0.225-0.6,0.406c-0.174,0.182-0.316,0.397-0.426,0.644c-0.11,0.248-0.171,0.497-0.186,0.747
		c-0.014,0.252,0.024,0.491,0.115,0.72c0.091,0.229,0.249,0.416,0.476,0.562c0.313,0.203,0.634,0.29,0.965,0.262
		c0.331-0.03,0.63-0.141,0.896-0.333c0.265-0.193,0.485-0.451,0.655-0.776c0.172-0.324,0.257-0.676,0.257-1.058
		c0-0.382-0.106-0.781-0.316-1.196c-0.212-0.415-0.561-0.808-1.049-1.18c-0.458-0.349-0.786-0.706-0.983-1.07
		c-0.197-0.364-0.286-0.706-0.268-1.026c0.017-0.32,0.135-0.6,0.349-0.841c0.215-0.24,0.502-0.407,0.862-0.502
		c0.36-0.095,0.782-0.102,1.266-0.021c0.483,0.081,1.01,0.277,1.578,0.589c0.131-0.116,0.269-0.206,0.415-0.268
		c0.146-0.062,0.289-0.1,0.431-0.115c0.142-0.015,0.278-0.011,0.405,0.011C66.432,2.476,66.543,2.512,66.639,2.563z M61.169,6.745
		c-0.254,0.059-0.466,0.193-0.633,0.404c-0.168,0.212-0.295,0.45-0.382,0.715c-0.088,0.265-0.133,0.528-0.137,0.786
		c-0.004,0.259,0.035,0.463,0.115,0.617c-0.087-0.269-0.107-0.542-0.06-0.82c0.049-0.277,0.128-0.533,0.24-0.77
		c0.113-0.237,0.247-0.438,0.404-0.605S61.023,6.794,61.169,6.745z M61.857,6.951C61.885,6.944,61.9,6.95,61.9,6.968
		c0,0.019-0.011,0.035-0.032,0.05c-0.022,0.007-0.035,0.001-0.039-0.016C61.826,6.984,61.834,6.966,61.857,6.951z M61.965,7.082
		c-0.036,0.007-0.052-0.005-0.049-0.039c0.004-0.032,0.012-0.064,0.027-0.092c0.021,0.015,0.04,0.039,0.055,0.071
		C62.014,7.055,62.002,7.075,61.965,7.082z M62.086,6.963c0.065-0.007,0.122,0.001,0.168,0.027c0.047,0.025,0.082,0.055,0.103,0.087
		c0.021,0.032,0.031,0.066,0.027,0.098c-0.005,0.032-0.027,0.052-0.071,0.06c-0.08,0.015-0.13-0.015-0.151-0.087
		C62.141,7.075,62.115,7.014,62.086,6.963z M62.38,3.523c0-0.072,0.02-0.153,0.06-0.24c0.04-0.087,0.103-0.166,0.191-0.234
		c0.087-0.07,0.202-0.121,0.344-0.153c0.142-0.032,0.318-0.031,0.529,0.005c-0.08-0.029-0.187-0.045-0.321-0.05
		c-0.135-0.004-0.264,0.016-0.389,0.06c-0.123,0.044-0.228,0.115-0.311,0.213C62.401,3.223,62.366,3.356,62.38,3.523z M63.745,7.639
		c0.015-0.174-0.012-0.36-0.082-0.557c-0.07-0.197-0.158-0.386-0.268-0.567c-0.11-0.182-0.233-0.343-0.371-0.481
		c-0.138-0.138-0.269-0.233-0.392-0.284c0.066,0.051,0.154,0.13,0.268,0.235c0.113,0.106,0.228,0.237,0.344,0.392
		c0.116,0.157,0.22,0.34,0.311,0.552C63.645,7.141,63.709,7.377,63.745,7.639z M62.73,3.262c0.014-0.015,0.045-0.035,0.092-0.06
		c0.047-0.026,0.102-0.047,0.163-0.066c0.062-0.017,0.128-0.032,0.197-0.044c0.069-0.011,0.136-0.009,0.202,0.005
		c-0.036-0.021-0.085-0.032-0.147-0.032S63.11,3.074,63.04,3.092s-0.133,0.042-0.191,0.071C62.792,3.192,62.751,3.226,62.73,3.262z
		 M64.139,7.017c0-0.102-0.02-0.209-0.061-0.323c-0.04-0.113-0.091-0.22-0.153-0.323c-0.062-0.102-0.128-0.191-0.202-0.268
		c-0.072-0.076-0.142-0.133-0.208-0.169c0.125,0.102,0.248,0.25,0.371,0.447C64.01,6.58,64.095,6.791,64.139,7.017z M64.357,7.334
		c0.044-0.131,0.049-0.277,0.016-0.437c-0.032-0.161-0.087-0.319-0.163-0.475c-0.076-0.157-0.169-0.299-0.279-0.426
		s-0.222-0.22-0.339-0.279c0.116,0.081,0.224,0.182,0.323,0.306c0.097,0.123,0.184,0.26,0.257,0.409
		c0.072,0.149,0.126,0.301,0.158,0.458C64.362,7.049,64.372,7.195,64.357,7.334z M64.52,6.974c0-0.116-0.017-0.235-0.049-0.355
		c-0.032-0.12-0.078-0.229-0.137-0.328c-0.059-0.098-0.122-0.186-0.191-0.262c-0.07-0.076-0.137-0.133-0.202-0.169
		c0.116,0.102,0.233,0.255,0.349,0.458C64.408,6.522,64.484,6.741,64.52,6.974z M65.154,3.949c0.036-0.036,0.088-0.08,0.158-0.131
		c0.069-0.051,0.147-0.096,0.234-0.136s0.184-0.069,0.289-0.087c0.105-0.017,0.219-0.016,0.344,0.006
		c-0.125-0.044-0.244-0.059-0.361-0.044c-0.116,0.015-0.22,0.044-0.311,0.087c-0.091,0.044-0.168,0.095-0.229,0.153
		C65.217,3.855,65.175,3.906,65.154,3.949z"/>
	<path class="st0" d="M68.001,9.179l0.088-0.087c0.021,0.032,0.055,0.044,0.087,0.055c-0.032,0.044-0.044,0.098-0.076,0.142
		c-0.163,0.25-0.764,0.546-1.058,0.546c-0.676,0-1.114-0.665-1.114-1.287c0-0.699,0.556-2.205,1.386-2.205
		c0.426,0,0.807,0.339,0.993,0.699c0.032,0.066,0.055,0.131,0.055,0.208c0,0.186-0.088,0.349-0.088,0.534
		c0,0.11,0.055,0.207,0.076,0.316c-0.349-0.044-0.567-0.305-0.567-0.655c0-0.163,0.044-0.316,0.108-0.47h-0.076
		c-0.088,0-0.164,0.011-0.24,0.065c-0.676,0.502-0.828,1.451-0.828,2.237c0,0.044,0.011,0.076,0.022,0.12
		c0.37-0.032,0.873-0.196,1.167-0.391c0.044-0.032,0.098-0.055,0.153-0.076l-0.055,0.152L68.001,9.179z M66.899,6.757
		c-0.076,0-0.24,0.25-0.284,0.316C66.703,7.03,66.845,6.843,66.899,6.757z M67.314,6.941l-0.098,0.032
		c-0.186,0.076-0.415,0.557-0.48,0.741h0.011c0.022-0.076,0.055-0.097,0.098-0.163c0.152-0.229,0.273-0.426,0.48-0.612h-0.011V6.941
		z M67.041,6.92c-0.066,0-0.186,0.12-0.186,0.186C66.92,7.04,66.986,6.986,67.041,6.92z M67.99,7.095
		c-0.011,0.011-0.011,0.011-0.011,0.021h0.011V7.095z M68.045,9.081h-0.011c0-0.011,0.011-0.011,0.011-0.022V9.081z"/>
	<path class="st0" d="M68.512,8.916c-0.098,0.117-0.206,0.235-0.351,0.309l-0.286-0.088l0.016-0.022
		c0.14-0.126,0.247-0.259,0.353-0.406c0.41-0.589,0.68-1.216,0.82-1.902C68.751,6.614,68.318,6.4,68.318,6.01
		c0-0.199,0.197-0.442,0.433-0.442c0.073,0,0.14,0.015,0.206,0.045c0.27,0.103,0.433,0.331,0.466,0.589
		c0.017,0.162,0.041,0.324,0.05,0.486c0.278,0.147,0.58,0.295,0.818,0.495c0.132,0.111,0.197,0.235,0.197,0.399
		c0,0.222-0.156,0.59-0.238,0.811c-0.147,0.39-0.41,1.001-0.41,1.408c0,0.096,0.017,0.199,0.057,0.288l0.229,0.051l-0.007,0.059
		l0.007,0.007l0.041-0.045h0.066c0.016,0.03,0.025,0.059,0.025,0.088c0,0.141-0.247,0.184-0.369,0.184
		c-0.533,0-0.745-0.516-0.745-0.922c0-0.495,0.344-1.298,0.541-1.77c0.05-0.11,0.14-0.346,0.14-0.457
		c0-0.177-0.229-0.25-0.376-0.309C69.348,7.7,68.979,8.333,68.512,8.916z M68.472,5.856l0.016,0.015
		c0.009-0.03,0.017-0.059,0.032-0.081L68.472,5.856z M68.521,8.731l-0.007,0.007h0.007V8.731z M68.578,8.348
		c0.041-0.022,0.057-0.073,0.065-0.118L68.578,8.348z M68.734,5.864c-0.025,0.022-0.049,0.051-0.049,0.088
		c0,0.015,0,0.022,0.007,0.037C68.709,5.952,68.716,5.908,68.734,5.864z M69.07,6.416c0-0.14-0.041-0.457-0.132-0.561
		c-0.082,0.066-0.131,0.154-0.131,0.25c0,0.154,0.107,0.331,0.254,0.405C69.061,6.483,69.07,6.446,69.07,6.416z M69.258,7.234
		c-0.122,0.361-0.262,0.708-0.435,1.054c0.172-0.169,0.426-0.854,0.46-1.091C69.266,7.205,69.266,7.22,69.258,7.234z M68.873,7.773
		c0.041-0.073,0.073-0.141,0.09-0.214l-0.016,0.007L68.873,7.773z M68.988,7.45c-0.025,0.03-0.032,0.066-0.025,0.095L68.988,7.45z
		 M69.004,7.412c0.007-0.007,0.007-0.015,0.007-0.022L69.004,7.412z M69.02,7.352c0,0.007,0,0.022-0.009,0.03
		c0.009-0.007,0.017-0.022,0.017-0.03H69.02z M69.045,7.264l0.025-0.03h-0.007L69.045,7.264z M69.085,7.176l-0.007-0.015v0.022
		L69.085,7.176z M69.299,7.117h-0.007v0.03h0.007V7.117z M69.314,7.036h-0.007v0.022h0.007V7.036z M69.79,7.928l-0.392,1.076
		l-0.091,0.295c0.073-0.132,0.122-0.288,0.172-0.435c0.14-0.391,0.295-0.775,0.417-1.172C69.839,7.751,69.815,7.854,69.79,7.928z
		 M69.495,9.439c0-0.015-0.007-0.022-0.007-0.037C69.48,9.416,69.48,9.424,69.48,9.439H69.495z M70.019,7.817l-0.401,1.061
		c-0.057,0.163-0.082,0.339-0.123,0.501l0.017-0.014c0.073-0.222,0.131-0.45,0.212-0.67c0.107-0.295,0.262-0.59,0.32-0.899
		L70.019,7.817z M69.683,9.424c0.082-0.369,0.229-0.73,0.369-1.091c0.082-0.222,0.188-0.45,0.213-0.685h-0.017
		c-0.197,0.493-0.376,1.001-0.548,1.503c-0.05,0.147-0.082,0.295-0.082,0.45c0,0.045,0,0.088,0.007,0.133
		C69.651,9.629,69.659,9.527,69.683,9.424z M69.668,9.078V9.07L69.66,9.078H69.668z M69.749,8.812l0.007-0.007h-0.007V8.812z
		 M69.765,8.753l0.009,0.007V8.753H69.765z M69.774,9.461h-0.009c0,0.007,0,0.007,0.009,0.014V9.461z M69.783,8.709l0.007,0.007
		V8.709H69.783z M69.79,9.388h-0.007v0.014h0.007V9.388z M69.839,9.225h0.009V9.202h-0.009V9.225z M69.864,9.137h-0.007v0.021h0.007
		V9.137z M69.897,8.414L69.89,8.421h0.007V8.414z M69.897,9.041c-0.007,0-0.007,0.007-0.007,0.014h0.007V9.041z M69.905,7.648v0.03
		c0.007-0.007,0.007-0.022,0.007-0.03H69.905z M69.912,8.989l-0.007,0.007h0.007V8.989z M69.921,8.938l0.016,0.007
		c0-0.007,0-0.015-0.007-0.022L69.921,8.938z M69.953,8.871h-0.007v0.022h0.007V8.871z M70.003,8.731h-0.007
		c0,0.007,0,0.007,0.007,0.007V8.731z M70.019,8.097l-0.007,0.007h0.007V8.097z M70.019,8.686c-0.007,0-0.007,0-0.007,0.007
		L70.019,8.686z M70.06,7.759h-0.016v0.022L70.06,7.759z M70.052,8.598l0.007-0.007h-0.007V8.598z M70.069,8.554
		c0.007,0,0.007-0.007,0.007-0.015h-0.007V8.554z M70.085,8.502h0.007V8.487h-0.007V8.502z M70.184,8.267h-0.009v0.015h0.009V8.267z
		 M70.191,8.229h0.007V8.222h-0.007V8.229z M70.207,8.171l0.007,0.007V8.171H70.207z M70.322,7.883V7.876l-0.007,0.007H70.322z"/>
	<path class="st0" d="M71.81,6.931c0.262-0.339,0.676-0.97,1.157-0.97c0.47,0,1.026,0.578,1.026,1.048
		c0,0.884-0.699,1.91-1.32,2.488c-0.186,0.174-0.361,0.316-0.622,0.361c-0.076,0.011-0.153,0.021-0.229,0.021
		c-0.688,0-1.19-0.567-1.19-1.243V8.505c0-0.447,0.458-1.659,0.982-1.659L71.81,6.931z M71.418,7.095
		c-0.087,0.044-0.131,0.121-0.174,0.197L71.418,7.095z M71.321,7.902v0.022c0.011,0,0.011-0.011,0.021-0.022H71.321z M73.36,6.877
		c0.011-0.076,0.032-0.142,0.032-0.218c0-0.044-0.011-0.098-0.032-0.142c-0.36,0-1.112,0.906-1.112,1.254
		c0,0.11,0.065,0.197,0.153,0.262c-0.022,0.032-0.066,0.065-0.11,0.065c-0.305,0-0.447-0.24-0.612-0.447
		c-0.163,0.404-0.316,0.818-0.316,1.254c0,0.153,0.011,0.305,0.055,0.458C72.411,9.091,73.186,7.848,73.36,6.877z M71.681,7.237
		c-0.142,0.142-0.229,0.328-0.295,0.513c0.055-0.076,0.273-0.414,0.284-0.491L71.681,7.237z M71.429,7.335
		c0.044-0.032,0.087-0.098,0.097-0.153L71.429,7.335z M72.096,6.854c0.032-0.087,0.392-0.447,0.491-0.534h-0.021
		c-0.197,0.164-0.361,0.349-0.502,0.557L72.096,6.854z M72.837,6.549v-0.01h-0.011c-0.011,0-0.011,0.011-0.022,0.011
		c-0.229,0.164-0.578,0.534-0.633,0.818C72.39,7.083,72.585,6.801,72.837,6.549z M72.422,6.713
		c-0.044,0.044-0.186,0.186-0.186,0.229C72.291,6.854,72.368,6.789,72.422,6.713z M72.75,9.081
		c-0.022,0.032-0.055,0.065-0.066,0.108c0.218-0.25,0.818-0.862,0.807-1.2C73.284,8.383,73.022,8.731,72.75,9.081z M72.946,8.307
		c-0.055,0.076-0.24,0.294-0.24,0.338C72.804,8.557,72.88,8.437,72.946,8.307z M72.75,8.83c0,0.011,0,0.011,0.011,0.011L72.75,8.83z
		 M72.88,8.71c0.076-0.12,0.174-0.229,0.24-0.349L72.87,8.7v0.011h0.01V8.71z M73.131,8.328C73.12,8.339,73.12,8.35,73.12,8.36
		L73.131,8.328z M73.295,8.601h0.011V8.589L73.295,8.601z"/>
	<path class="st0" d="M76.133,2c0.316,0,0.665,0.502,0.665,0.807c0,0.447-0.501,1.964-0.654,2.476
		c-0.088,0.294-0.197,0.589-0.284,0.884l-0.589,2.106c-0.197,0.699-0.349,1.44-0.349,2.16c0,0.208,0.044,0.404,0.098,0.612
		c0.032,0.132,0.087,0.273,0.097,0.404c-0.032,0-0.066,0.011-0.097,0.011c-0.295,0-0.534-0.207-0.699-0.436
		c-0.197-0.273-0.218-0.633-0.218-0.96c0-1.353,0.72-3.917,1.146-5.259c0.131-0.404,0.883-2.302,0.883-2.52
		c0-0.076-0.032-0.153-0.076-0.218C76.068,2.032,76.1,2,76.133,2z M74.759,9.527c0.055-0.339,0.11-0.665,0.197-1.004
		c0.131-0.523,0.25-1.048,0.392-1.571c0.207-0.731,0.47-1.451,0.644-2.192c-0.142,0.218-0.699,2.27-0.818,2.683
		c-0.218,0.754-0.394,1.528-0.47,2.313C74.725,9.68,74.748,9.605,74.759,9.527z M76.078,4.52c-0.042,0.032-0.055,0.066-0.055,0.12
		L76.078,4.52z M76.112,4.421L76.089,4.41c-0.011,0.032-0.011,0.076-0.011,0.11L76.112,4.421z M76.165,4.236l-0.011-0.011v0.011
		H76.165z"/>
	<path class="st0" d="M77.738,2c0.316,0,0.665,0.502,0.665,0.807c0,0.447-0.501,1.964-0.654,2.476
		c-0.088,0.294-0.197,0.589-0.284,0.884l-0.589,2.106c-0.197,0.699-0.349,1.44-0.349,2.16c0,0.208,0.044,0.404,0.098,0.612
		c0.032,0.132,0.087,0.273,0.097,0.404c-0.032,0-0.066,0.011-0.097,0.011c-0.295,0-0.534-0.207-0.699-0.436
		c-0.197-0.273-0.218-0.633-0.218-0.96c0-1.353,0.72-3.917,1.146-5.259c0.131-0.404,0.883-2.302,0.883-2.52
		c0-0.076-0.032-0.153-0.076-0.218C77.674,2.032,77.705,2,77.738,2z M76.363,9.527c0.055-0.339,0.11-0.665,0.197-1.004
		C76.691,8,76.81,7.476,76.952,6.953c0.207-0.731,0.47-1.451,0.644-2.192c-0.142,0.218-0.699,2.27-0.818,2.683
		c-0.218,0.754-0.394,1.528-0.47,2.313C76.331,9.68,76.353,9.605,76.363,9.527z M77.684,4.52c-0.044,0.032-0.055,0.065-0.055,0.12
		L77.684,4.52z M77.717,4.421L77.695,4.41c-0.011,0.032-0.011,0.076-0.011,0.11L77.717,4.421z M77.771,4.236L77.76,4.225v0.011
		H77.771z"/>
</g>
<g>
	<path class="st0" d="M105.495,6.883c0.512,0,0.917,0.044,1.266,0.458c0.076,0.087,0.326,0.414,0.326,0.513
		c0,0.044-0.021,0.087-0.044,0.131c-0.163,0.022-0.339-0.186-0.447-0.284c-0.131-0.11-0.284-0.12-0.447-0.12
		c-0.426,0-1.233,0.163-1.582,0.404c-0.021,0-0.044,0.022-0.055,0.032V8.16c0,0.184,0.011,0.436,0.11,0.599
		c0.044,0.076,0.207,0.252,0.207,0.328c0,0.044-0.055,0.087-0.098,0.087c0,0-0.021-0.011-0.032-0.011
		c-0.447-0.132-0.481-0.218-0.742-0.59c-0.12,0.164-0.153,0.382-0.153,0.578c0,0.066,0.011,0.153,0.032,0.208
		c0.098,0.218,0.665,0.284,0.873,0.284c0.392,0,0.807-0.12,1.157-0.284c1.145-0.546,1.997-1.462,2.378-2.673
		c0.097-0.316,0.163-0.655,0.163-0.993c0-0.546-0.11-1.08-0.404-1.55c-0.392-0.643-1.256-1.112-1.986-1.211
		c-0.174-0.022-0.361-0.055-0.547-0.055c-0.36,0-0.73,0.055-1.08,0.131c-0.797,0.163-1.779,0.894-1.779,1.779
		c0,0.326,0.207,0.47,0.382,0.709c-0.011,0.022-0.032,0.044-0.055,0.044c-0.021,0-0.032,0-0.055-0.011
		c-0.47-0.163-0.807-0.688-0.807-1.178c0-0.11,0.022-0.218,0.055-0.328c0.12-0.392,0.404-0.775,0.709-1.048
		c0.633-0.568,1.614-0.775,2.444-0.775c1.232,0,2.531,0.785,3.164,1.822c0.382,0.622,0.699,1.364,0.699,2.105
		c0,0.754-0.12,1.124-0.37,1.822c-0.11,0.284-0.305,0.557-0.481,0.797c-0.512,0.699-1.637,1.506-2.488,1.647
		c-0.197,0.032-0.404,0.055-0.612,0.055c-0.305,0-0.61-0.087-0.894-0.186c-0.426-0.153-0.741-0.436-0.982-0.818
		c-0.163-0.262-0.295-0.546-0.295-0.851c0-0.665,0.655-1.101,0.655-1.211V7.264c0-0.524,0.328-1.256,0.502-1.758
		c0.098-0.284,0.284-0.851,0.284-1.124c0-0.392-0.295-0.47-0.295-0.73c0-0.032,0.044-0.076,0.076-0.076c0.076,0,0.11,0,0.174,0.044
		c0.437,0.273,0.731,1.069,0.731,1.56c0,0.633-0.229,1.19-0.382,1.789C105.015,6.926,105.255,6.883,105.495,6.883z M102.648,3.435
		l-0.011,0.011c0.011,0,0.011-0.011,0.022-0.011H102.648z M102.702,3.359c0.011-0.011,0.011-0.022,0.022-0.022
		C102.713,3.337,102.713,3.348,102.702,3.359z M103.215,2.911c-0.141,0.066-0.382,0.24-0.458,0.371
		c-0.011,0.011,0,0.022-0.011,0.032L103.215,2.911z M102.768,3.805c0.153-0.184,0.338-0.37,0.523-0.513
		c0.055-0.044,0.208-0.12,0.24-0.186c-0.349,0.229-0.567,0.295-0.785,0.71L102.768,3.805z M102.855,3.424
		c0.022-0.011,0.044-0.011,0.055-0.032c0.11-0.087,0.218-0.174,0.318-0.273c-0.066,0-0.318,0.24-0.382,0.305H102.855z
		 M103.706,7.734c-0.011-0.011-0.011-0.011-0.022-0.011l-0.141,0.164l0.011,0.011L103.706,7.734z M103.706,8.06l0.011,0.011
		l0.032-0.055l-0.032-0.011V8.06H103.706z M103.738,8.41V8.399c-0.011,0-0.011,0-0.011,0.011H103.738z M103.803,8.257
		c-0.021,0.044-0.044,0.076-0.055,0.12c0.044-0.021,0.066-0.076,0.066-0.12H103.803z M106.553,9.816l0.032-0.021
		c-0.021,0.011-0.044,0.011-0.066,0.011C106.532,9.816,106.542,9.816,106.553,9.816z M107.514,8.442
		c-0.131,0.142-0.273,0.262-0.415,0.382c-0.184,0.153-0.392,0.273-0.546,0.458C106.913,9.064,107.284,8.791,107.514,8.442z
		 M107.872,8.704c-0.326,0.382-0.731,0.686-1.135,0.97c-0.021,0.011-0.032,0.032-0.044,0.055c0.612-0.294,1.145-0.764,1.484-1.353
		C108.102,8.399,107.928,8.639,107.872,8.704z M106.804,9.359l0.021,0.011c0.022,0,0.032-0.022,0.032-0.032L106.804,9.359z
		 M106.934,9.304c0.305-0.218,0.513-0.392,0.742-0.699c-0.24,0.142-0.534,0.502-0.764,0.699H106.934z M107.491,9.359
		c-0.045,0.044-0.088,0.065-0.132,0.108c0.055-0.021,0.087-0.055,0.132-0.097V9.359z M107.6,9.261l-0.055,0.055l0.044-0.022
		l0.022-0.032H107.6z M107.622,9.25c0.087-0.032,0.229-0.174,0.273-0.262L107.622,9.25z M107.764,8.518l-0.011-0.011
		c-0.011,0.011-0.011,0.032-0.011,0.044L107.764,8.518z"/>
	<path class="st0" d="M110.091,7.188c0.262-0.339,0.676-0.97,1.157-0.97c0.47,0,1.026,0.578,1.026,1.048
		c0,0.883-0.699,1.91-1.32,2.488c-0.186,0.174-0.361,0.316-0.622,0.36c-0.076,0.011-0.153,0.022-0.229,0.022
		c-0.688,0-1.19-0.568-1.19-1.243V8.76c0-0.447,0.458-1.658,0.982-1.658L110.091,7.188z M109.698,7.351
		c-0.087,0.044-0.131,0.12-0.174,0.197L109.698,7.351z M109.601,8.16v0.021c0.011,0,0.011-0.011,0.021-0.021H109.601z M111.64,7.133
		c0.011-0.076,0.032-0.141,0.032-0.218c0-0.044-0.011-0.098-0.032-0.142c-0.36,0-1.112,0.906-1.112,1.254
		c0,0.11,0.065,0.197,0.153,0.262c-0.022,0.032-0.066,0.066-0.11,0.066c-0.305,0-0.447-0.24-0.612-0.447
		c-0.163,0.404-0.316,0.818-0.316,1.256c0,0.153,0.011,0.305,0.055,0.457C110.691,9.348,111.466,8.104,111.64,7.133z M109.96,7.493
		c-0.142,0.141-0.229,0.326-0.295,0.513c0.055-0.076,0.273-0.415,0.284-0.491L109.96,7.493z M109.71,7.592
		c0.044-0.032,0.087-0.097,0.097-0.153L109.71,7.592z M110.375,7.112c0.032-0.088,0.392-0.447,0.491-0.534h-0.021
		c-0.197,0.163-0.361,0.349-0.502,0.556L110.375,7.112z M111.117,6.806v-0.01h-0.011c-0.011,0-0.011,0.011-0.022,0.011
		c-0.229,0.163-0.578,0.534-0.633,0.818C110.67,7.341,110.866,7.057,111.117,6.806z M110.702,6.97
		c-0.044,0.044-0.186,0.186-0.186,0.229C110.572,7.112,110.648,7.046,110.702,6.97z M111.03,9.337
		c-0.022,0.032-0.055,0.066-0.066,0.11c0.218-0.252,0.818-0.862,0.807-1.2C111.564,8.639,111.303,8.988,111.03,9.337z
		 M111.227,8.562c-0.055,0.076-0.24,0.295-0.24,0.339C111.085,8.814,111.161,8.693,111.227,8.562z M111.03,9.086
		c0,0.011,0,0.011,0.011,0.011L111.03,9.086z M111.161,8.967c0.076-0.121,0.174-0.229,0.24-0.349l-0.252,0.338v0.011
		C111.15,8.967,111.161,8.967,111.161,8.967z M111.411,8.584C111.4,8.596,111.4,8.606,111.4,8.617L111.411,8.584z M111.576,8.857
		h0.011V8.846L111.576,8.857z"/>
	<path class="st0" d="M116.891,6.62c0,0.884-0.523,3.698-1.68,3.698c-0.044,0-0.076,0-0.11-0.011
		c-0.512-0.12-0.568-0.415-0.568-0.884c0-0.382,0.045-0.752,0.045-1.135c-0.295,0.426-0.6,0.862-0.939,1.254
		c-0.131,0.164-0.294,0.262-0.512,0.262c-0.339,0-0.741-0.273-0.741-0.643c0-0.458,0.48-1.582,0.633-2.084
		c0.044-0.132,0.055-0.273,0.055-0.404c0-0.055-0.032-0.141-0.044-0.197c0.032,0,0.076-0.011,0.108-0.011
		c0.132,0,0.328,0.163,0.426,0.252c0.164,0.163,0.229,0.305,0.229,0.534c0,0.524-0.273,0.993-0.414,1.485
		c-0.011,0.044-0.022,0.087-0.045,0.131V8.89c0.164-0.153,0.339-0.361,0.481-0.534c0.087-0.11,0.785-1.059,0.807-1.114l-0.12-0.153
		c0-0.076,0.065-0.076,0.12-0.076c0.338,0,0.643,0.316,0.686,0.633c0.032,0.208,0.032,0.415,0.032,0.623
		c0,0.284-0.021,0.578-0.065,0.862c-0.032,0.229-0.076,0.447-0.076,0.676v0.066c0.699-0.534,1.188-2.717,1.188-3.579
		c0-0.328-0.076-0.666-0.229-0.96c-0.032-0.055-0.055-0.11-0.076-0.163V5.136C116.749,5.29,116.891,6.042,116.891,6.62z
		 M113.346,8.071l-0.032-0.011c-0.11,0.328-0.218,0.655-0.339,0.97C113.094,8.912,113.268,8.268,113.346,8.071z M114.61,7.94h-0.011
		c-0.273,0.36-0.523,0.741-0.785,1.101C113.967,8.878,114.566,8.082,114.61,7.94z M114,8.562l0.011,0.011
		C114.011,8.562,114.011,8.562,114,8.562z M114.142,8.376c0.011-0.011,0.011-0.032,0.011-0.044
		C114.142,8.344,114.142,8.366,114.142,8.376z M114.196,8.071l0.032-0.044C114.218,8.039,114.196,8.05,114.196,8.071z
		 M114.261,8.224h0.011V8.213L114.261,8.224z M114.513,8.257l-0.011,0.011h0.011V8.257z M114.621,7.504l-0.022-0.011
		c-0.011,0.032-0.044,0.055-0.044,0.087C114.566,7.548,114.6,7.526,114.621,7.504z M115.091,8.891h-0.022l-0.065,0.491
		c0,0.055,0,0.11-0.011,0.163h0.032l-0.021-0.163l0.032-0.021L115.091,8.891z M115.811,9.271L115.8,9.259v0.032L115.811,9.271z
		 M115.963,8.901c-0.021,0.032-0.032,0.066-0.044,0.097L115.963,8.901z M116.04,8.672c0.055-0.131,0.087-0.273,0.142-0.404
		l0.011-0.088C116.148,8.344,116.072,8.508,116.04,8.672z M116.673,7.275l-0.022,0.021c-0.131,0.71-0.326,1.408-0.6,2.084
		c0.121-0.131,0.305-0.764,0.371-0.96C116.542,8.05,116.64,7.668,116.673,7.275z M116.203,8.618h0.011c0-0.011,0-0.011-0.011-0.011
		V8.618z M116.258,7.952l0.021-0.087C116.269,7.897,116.258,7.919,116.258,7.952z M116.302,8.289h0.011V8.246l0.022-0.011V8.223
		l-0.032,0.022v0.044H116.302z M116.313,7.711l0.066-0.186l0.022-0.12c-0.022,0.011-0.032,0.022-0.032,0.044
		c0,0.022,0.011,0.055,0.011,0.076C116.313,7.57,116.324,7.645,116.313,7.711z M116.345,8.126v0.011c0.011,0,0.011,0,0.011-0.011
		H116.345z M116.389,7.319c0,0.022,0,0.044,0.011,0.066V7.319H116.389z M116.411,7.166c0.011,0.011,0.011,0.022,0.011,0.032h0.011
		l-0.011-0.032H116.411z M116.455,8.618l-0.011-0.011v0.011H116.455z M116.498,8.442l-0.011,0.011h0.011V8.442z M116.694,7.122
		h-0.021v0.12C116.684,7.199,116.694,7.166,116.694,7.122z M116.716,7.014V6.959h-0.022c0.011,0.011,0.011,0.032,0.011,0.055
		H116.716z"/>
	<path class="st0" d="M116.761,9.687c0-0.589,0.382-1.887,0.556-2.488c0.088-0.273,0.186-0.6,0.186-0.894
		c0-0.055-0.021-0.11-0.032-0.163c0.022-0.055,0.066-0.055,0.11-0.055c0.022,0,0.131,0.055,0.153,0.066
		c0.262,0.131,0.447,0.415,0.447,0.72c0,0.633-0.426,1.974-0.644,2.607l0.022,0.011c0.61-0.841,1.188-1.692,1.866-2.476
		c0.262-0.305,0.523-0.612,0.796-0.906c0.087-0.087,0.163-0.174,0.284-0.208c0.207,0.031,0.61,0.25,0.61,0.501
		c0,0.142-0.174,0.59-0.229,0.742c-0.294,0.764-1.08,2.978-1.08,3.708c0,0.11,0.032,0.208,0.132,0.262c0,0.066-0.044,0.11-0.11,0.11
		c-0.622,0-0.742-0.524-0.742-1.036c0-0.688,0.339-1.626,0.546-2.291c0.098-0.326,0.24-0.633,0.36-0.949
		c-0.032,0.022-0.065,0.032-0.097,0.066c-0.481,0.491-0.884,1.091-1.243,1.669c-0.229,0.371-0.786,1.309-1.07,1.56
		c-0.066,0.055-0.097,0.066-0.174,0.066C117.089,10.308,116.761,10.014,116.761,9.687z M117.765,9.763
		c-0.011,0.011-0.022,0.022-0.022,0.044L117.765,9.763z M117.94,9.141c0.066-0.076,0.11-0.153,0.164-0.229
		C118.038,8.977,117.983,9.064,117.94,9.141z M118.059,9.37c0.011-0.032,0.032-0.055,0.045-0.076
		c-0.032,0.032-0.076,0.087-0.088,0.131L118.059,9.37z M118.072,9.228c0.011,0,0.011,0,0.011-0.011L118.072,9.228z M118.202,8.781
		c0.022-0.066,0.066-0.088,0.11-0.142c0.087-0.097,0.142-0.218,0.218-0.326c0.491-0.731,1.124-1.353,1.68-2.04l0.032-0.044
		l-0.022-0.022c-0.556,0.59-1.091,1.2-1.56,1.866c-0.174,0.252-0.371,0.491-0.502,0.764L118.202,8.781z M118.18,9.086V9.075
		l-0.011,0.011H118.18z M118.388,8.868c-0.076,0.087-0.142,0.174-0.186,0.273C118.267,9.054,118.333,8.967,118.388,8.868z
		 M118.366,8.748h-0.032c0,0.011-0.011,0.032-0.022,0.044h0.055l0.011-0.032L118.366,8.748z M118.388,8.857
		c0.055-0.066,0.11-0.142,0.142-0.229C118.485,8.704,118.42,8.77,118.388,8.857z M118.409,8.649v0.032c0,0.011,0,0.022,0.011,0.032
		c0.011-0.011,0.011-0.032,0.011-0.044h0.044c-0.011-0.011-0.032-0.011-0.044-0.011L118.409,8.649z M118.409,8.933v0.021
		l0.011-0.011L118.409,8.933z M118.453,8.584v0.021c0,0,0.021,0.055,0.021,0.066V8.606c0.011,0,0.022,0,0.032-0.011
		c-0.011,0-0.032-0.011-0.032-0.011h-0.021V8.584z M118.508,8.508v0.032c0,0.011,0,0.032,0.011,0.044
		c0-0.032,0.011-0.055,0.044-0.055c-0.011-0.011-0.021-0.011-0.032-0.011L118.508,8.508z M118.551,8.442v0.022
		c0.011,0.021,0.011,0.044,0.011,0.065c0.011-0.021,0.011-0.044,0.011-0.065l0.021-0.011c-0.011,0-0.032-0.011-0.032-0.011H118.551z
		 M118.606,8.541l0.011-0.045l-0.032,0.066L118.606,8.541z M119.118,7.853l0.044-0.066h0.021l0.055-0.055
		c0.011-0.032,0.11-0.163,0.141-0.186c0.022-0.066,0.284-0.382,0.35-0.415l-0.022-0.011V7.078c-0.12,0.131-0.218,0.273-0.36,0.37
		c0.055-0.131,0.589-0.709,0.709-0.862c-0.546,0.546-1.025,1.146-1.462,1.779v0.032l0.011,0.044c0.097-0.153,0.174-0.25,0.294-0.392
		c-0.011,0.044-0.021,0.076-0.044,0.11l0.076-0.044h0.022c0.044-0.055,0.087-0.11,0.108-0.174l0.032-0.021
		c0.011-0.022,0.022-0.045,0.044-0.055L119.118,7.853z M118.693,8.399c0.021-0.022,0.044-0.032,0.065-0.044V8.344
		c0.011-0.011,0.022-0.055,0.022-0.076L118.693,8.399z M118.769,8.355v0.021c0.011-0.011,0.011-0.021,0.011-0.032L118.769,8.355z
		 M119.642,10.145h0.011v-0.032h-0.011V10.145z M119.653,10.036l0.032,0.011c0.022-0.097,0.032-0.184,0.045-0.284L119.653,10.036z
		 M120.874,6.413c-0.458,0.916-0.894,2.324-1.145,3.327c0.021-0.021,0.032-0.044,0.044-0.065c0.184-0.491,0.294-1.014,0.47-1.506
		c0.207-0.589,0.458-1.157,0.665-1.745L120.874,6.413z M119.947,6.883c0.022-0.055,0.087-0.076,0.087-0.142l0.12-0.163l-0.425,0.47
		c0.032-0.022,0.055-0.044,0.097-0.044C119.871,6.959,119.893,6.915,119.947,6.883z M120.002,7.504l0.011-0.011h-0.011V7.504z
		 M120.078,7.296c0,0.011-0.011,0.011-0.011,0.022h0.011V7.296z M120.122,7.156l-0.032,0.076l0.032,0.011V7.156z M120.154,7.133
		c0.098-0.218,0.218-0.436,0.328-0.655V6.424c-0.142,0.229-0.252,0.48-0.36,0.731L120.154,7.133z M120.449,6.98
		c0.055-0.12,0.12-0.24,0.163-0.36C120.537,6.73,120.493,6.849,120.449,6.98z M120.689,6.447l-0.011-0.011v0.042L120.689,6.447z"/>
</g>
<path class="st0" d="M97.474,10.6c-0.467-0.467-1.222-0.467-1.688,0l-5.984,5.984L83.819,10.6c-0.467-0.467-1.222-0.463-1.688,0
	c-0.467,0.467-0.467,1.223,0,1.69l6.827,6.826c0.233,0.233,0.539,0.349,0.844,0.349c0.306,0,0.611-0.116,0.844-0.349l6.827-6.826
	C97.941,11.823,97.941,11.066,97.474,10.6z"/>
<path class="st1" d="M89.406,9.594c0.11,0.109,0.253,0.164,0.398,0.164c0.144,0,0.288-0.054,0.398-0.164l3.217-3.216
	c0.22-0.22,0.22-0.577,0-0.797c-0.22-0.22-0.576-0.22-0.795,0L89.806,8.4l-2.819-2.819c-0.22-0.22-0.576-0.218-0.795,0
	c-0.22,0.22-0.22,0.577,0,0.797L89.406,9.594z"/>
<path class="st2" d="M89.654,2.072c0.041,0.041,0.095,0.061,0.15,0.061c0.054,0,0.109-0.02,0.15-0.061l1.21-1.21
	c0.083-0.083,0.083-0.217,0-0.299c-0.083-0.083-0.217-0.083-0.299,0l-1.06,1.06l-1.06-1.06c-0.083-0.083-0.217-0.082-0.299,0
	c-0.083,0.083-0.083,0.217,0,0.299L89.654,2.072z"/>
</svg>
