<?xml version="1.0" encoding="utf-8"?>
<!-- Generator: Adobe Illustrator 22.0.1, SVG Export Plug-In . SVG Version: 6.00 Build 0)  -->
<svg version="1.1" id="Layer_1" xmlns="http://www.w3.org/2000/svg" xmlns:xlink="http://www.w3.org/1999/xlink" x="0px" y="0px"
	 viewBox="0 0 400 200" style="enable-background:new 0 0 400 200;" xml:space="preserve">
<style type="text/css">
	.st0{opacity:0.46;fill:#FFFFFF;}
</style>
<path class="st0" d="M129.322,151.6c0.001-0.294-0.077-0.648-0.334-1.024c-0.004-0.008-0.007-0.016-0.011-0.024
	c-0.385-0.82-1.297-1.097-1.889-1.188c-0.265-0.111-0.515-0.197-0.76-0.262c-0.063-0.017-0.128-0.029-0.192-0.037
	c-0.248-0.153-0.486-0.276-0.719-0.37c-0.367-0.288-0.774-0.504-1.214-0.644c-0.086-0.027-0.174-0.047-0.263-0.057
	c-2.896-0.347-5.79-0.706-8.684-1.065l-1.589-0.221c-0.683-0.1-1.366-0.2-2.057-0.307c-4-0.6-8.034-1.218-11.988-1.841
	c-0.087-0.014-0.175-0.019-0.264-0.017c-0.649,0.021-1.298,0.034-1.948,0.047l-0.702,0.015L89.5,143.5
	c-4.888-2.174-9.755-2.086-14.477,0.262c-4.063-0.484-7.219-0.885-10.184-1.295c-4.883-0.675-9.806-1.519-14.567-2.335
	c-1.478-0.253-2.958-0.507-4.434-0.755c-3.454-0.601-6.969-1.124-10.449-1.554c-3.483-0.429-7.033-0.698-10.519-0.8
	c-0.352-0.021-0.685,0.059-0.967,0.221c-0.144-0.006-0.283-0.012-0.411-0.016c-0.645-0.036-1.211,0.253-1.517,0.768
	c-0.038,0.065-0.075,0.136-0.107,0.215c-0.147,0.142-0.256,0.305-0.329,0.465c-0.492,1.089,0.449,2.056,0.766,2.38
	c0.009,0.009,0.018,0.018,0.027,0.027c0.012,0.012,0.025,0.025,0.039,0.038c0.032,0.232,0.117,0.492,0.288,0.77
	c0.072,0.117,0.16,0.223,0.263,0.315c0.174,0.155,0.367,0.307,0.592,0.465c0.109,0.083,0.227,0.16,0.353,0.232
	c0.022,0.015,0.044,0.029,0.066,0.043c0.357,0.233,0.738,0.431,1.134,0.59c0.04,0.016,0.081,0.03,0.122,0.042
	c0.05,0.042,0.101,0.084,0.152,0.126c0.141,0.137,0.294,0.261,0.457,0.371c0.293,0.293,0.62,0.517,0.973,0.668
	c0.161,0.069,0.334,0.108,0.509,0.114c0.544,0.019,1.088,0.042,1.632,0.069c0.199,0.379,0.484,0.7,0.839,0.941
	c0.194,0.249,0.424,0.459,0.686,0.629c0.18,0.117,0.385,0.191,0.598,0.217c1.605,0.194,3.203,0.527,4.749,0.989
	c0.027,0.008,0.054,0.016,0.081,0.022c1.039,0.245,2.076,0.558,3.122,0.945c2.115,0.711,4.238,1.55,6.291,2.361
	c0.54,0.213,1.081,0.427,1.622,0.639c3.563,1.395,6.38,2.346,9.134,3.086c4.417,1.186,8.809,1.992,13.053,2.395
	c4.008,0.381,8.189,0.57,12.661,0.57c1.944,0,3.944-0.035,6.008-0.107c0.414-0.014,0.828-0.033,1.242-0.052l0.803-0.035
	c0.647-0.021,1.294-0.043,1.942-0.071c4.635-0.196,9.327-0.541,13.866-0.873l0.875-0.065c3.625-0.3,7.304-0.56,10.954-0.774
	c1.313-0.094,2.725-0.179,4.303-0.258c1.987-0.083,3.638-0.138,5.214-0.174c0.088-0.003,0.176-0.012,0.263-0.028l0.287-0.007
	c0.264-0.007,0.527-0.014,0.816-0.02c0.834-0.03,1.321-0.549,1.499-1.025c0.193-0.517,0.085-0.995-0.125-1.395
	C129.751,152.362,129.573,151.944,129.322,151.6z"/>
<path class="st0" d="M396.967,132.73c0.061-0.229-0.147-0.441-0.424-0.617c0.004-0.158-0.099-0.321-0.307-0.476
	c-0.054-0.04-0.118-0.08-0.191-0.12c-0.202-0.134-0.494-0.248-0.873-0.341c-0.501-0.15-1.235-0.319-1.859-0.389
	c-0.063-0.008-0.125-0.015-0.188-0.023c-0.225-0.077-0.446-0.142-0.667-0.196c-0.403-0.171-0.869-0.309-1.389-0.409
	c-0.107-0.021-0.219-0.037-0.334-0.048c-4.918-0.479-9.123-0.773-13.235-0.927c-2.908-0.108-5.842-0.153-8.68-0.197
	c-1.534-0.024-3.069-0.047-4.606-0.08l-0.138-0.003c-2.158-0.132-3.954-0.25-5.649-0.369c-0.029-0.002-0.058-0.004-0.087-0.005
	l-8.651-0.423c-0.04-0.002-0.08-0.003-0.119-0.004c-0.948-0.019-1.899-0.017-2.847,0.006c0.024-0.215-0.161-0.446-0.553-0.69
	c-0.039-0.024-0.077-0.047-0.114-0.07c0.227-0.246,0.181-0.513-0.112-0.728c-0.078-0.08-0.187-0.156-0.324-0.224
	c-0.688-0.342-1.339-0.664-2.645-0.937c-0.697-0.145-1.466-0.262-2.475-0.374c-1.204-0.234-2.589-0.394-4.206-0.488
	c-0.182-0.012-0.364-0.021-0.547-0.029l-0.156-0.008c-0.007,0-0.013-0.001-0.022-0.001c-0.304-0.015-0.607-0.028-0.871-0.036
	l-0.508-0.021c-0.057-0.002-0.114-0.003-0.17-0.003h-0.218c-1.108-0.02-2.19-0.014-3.334-0.008
	c-0.431,0.002-0.867,0.005-1.309,0.006c-1.475-0.027-3.019-0.028-4.593-0.002h-0.84c-3.999,0.034-6.19,0.075-8.017,0.149
	c-3.013-0.008-5.692-0.008-8.184,0.001c-8.845,0.03-17.821,0.164-26.501,0.294c-5.153,0.077-10.482,0.157-15.719,0.214
	c-0.342,0.004-0.66,0.04-0.937,0.104l-0.699,0.006c-0.757,0.006-1.41,0.162-1.746,0.417c-0.028,0.021-0.055,0.044-0.08,0.069
	c-0.22,0.087-0.374,0.189-0.463,0.287c-0.425,0.466,0.322,0.882,1.015,1.146l0.013,0.005c0.14,0.295,0.644,0.519,0.841,0.597
	c0.37,0.146,1.525,0.519,2.665,0.606c0.068,0.022,0.137,0.044,0.206,0.065c0.147,0.055,0.303,0.105,0.467,0.15
	c0.383,0.156,0.828,0.273,1.326,0.351c0.142,0.022,0.29,0.036,0.44,0.042c11.393,0.456,22.749,0.923,33.751,1.389
	c4.931,0.213,9.898,0.416,14.765,0.603c4.178,0.255,8.444,0.338,12.688,0.245c1.429,0.105,2.632,0.187,3.73,0.255
	c4.182,0.307,8.446,0.553,12.663,0.729c6.177,0.276,12.64,0.449,19.754,0.529c9.084,0.402,18.475,0.817,27.709,1.244
	c0.087,0.004,0.173,0.006,0.257,0.006c0.291,0,0.569-0.023,0.822-0.067l0.535,0.025c1.151,0.053,1.898-0.232,2.131-0.539
	C397.339,133.179,397.212,132.939,396.967,132.73z M313.068,127.391c0.011-0.001,0.021-0.003,0.031-0.004
	c1.19,0.003,2.38,0.007,3.567,0.013c0.033,0.063,0.078,0.124,0.128,0.181C315.553,127.517,314.311,127.454,313.068,127.391z"/>
</svg>
