<?xml version="1.0" encoding="utf-8"?>
<!-- Generator: Adobe Illustrator 22.0.1, SVG Export Plug-In . SVG Version: 6.00 Build 0)  -->
<svg version="1.1" id="Layer_1" xmlns="http://www.w3.org/2000/svg" xmlns:xlink="http://www.w3.org/1999/xlink" x="0px" y="0px"
	 viewBox="0 0 500 250" style="enable-background:new 0 0 500 250;" xml:space="preserve">
<style type="text/css">
	.st0{fill:#9995D6;}
	.st1{opacity:0.21;enable-background:new    ;}
	.st2{fill:#231D60;}
	.st3{fill:#FFFFFF;}
</style>
<g>
	<path class="st0" d="M249.958,98.938c-15.285,0-27.678,12.393-27.678,27.678c0,15.285,27.678,60.632,27.678,60.632
		s27.678-45.345,27.678-60.632C277.638,111.331,265.245,98.938,249.958,98.938z M249.958,140.508
		c-7.672,0-13.889-6.22-13.889-13.889s6.22-13.889,13.889-13.889c7.672,0,13.889,6.22,13.889,13.889
		C263.847,134.288,257.63,140.508,249.958,140.508z"/>
	<ellipse class="st1" cx="249.958" cy="211.276" rx="14.106" ry="4.268"/>
	<g>
		<path class="st2" d="M252.894,115.191c2.504,0,4.858,0.612,6.949,1.678c-2.517-2.549-6.013-4.137-9.879-4.137
			c-7.672,0-13.889,6.22-13.889,13.889c0,2.414,0.669,4.654,1.754,6.628c-0.157-0.889-0.258-1.802-0.258-2.735
			C237.568,122.048,244.429,115.191,252.894,115.191z"/>
	</g>
	<rect x="157.581" y="38.151" class="st3" width="184.505" height="65.702"/>
	<rect x="157.581" y="38.151" class="st0" width="184.505" height="0.829"/>
	<polygon class="st2" points="342.086,103.853 157.581,103.853 164.388,106.922 335.279,106.922 	"/>
	<g>
		<path class="st0" d="M197.862,66.184h-2.993l-5.82-9.552v9.552h-2.99V51.67h2.99l5.834,9.571V51.67h2.979L197.862,66.184
			L197.862,66.184z"/>
		<path class="st0" d="M204.738,66.382c-1.582,0-2.87-0.487-3.863-1.455c-0.993-0.971-1.49-2.267-1.49-3.879v-0.28
			c0-1.085,0.21-2.052,0.628-2.904c0.418-0.854,1.012-1.512,1.783-1.974c0.767-0.465,1.644-0.695,2.628-0.695
			c1.474,0,2.64,0.465,3.485,1.395c0.848,0.93,1.273,2.248,1.273,3.958v1.179h-6.87c0.095,0.704,0.375,1.27,0.843,1.694
			c0.468,0.427,1.063,0.638,1.778,0.638c1.109,0,1.977-0.402,2.602-1.207l1.414,1.584c-0.43,0.612-1.015,1.09-1.754,1.43
			C206.458,66.209,205.635,66.382,204.738,66.382z M204.409,57.518c-0.571,0-1.038,0.195-1.389,0.582
			c-0.356,0.389-0.585,0.94-0.682,1.663h4.01V59.53c-0.016-0.641-0.185-1.138-0.522-1.487
			C205.493,57.695,205.018,57.518,204.409,57.518z"/>
		<path class="st0" d="M219.678,62.261l1.414-6.867h2.781l-2.751,10.787h-2.411l-2.044-6.788l-2.044,6.788h-2.404l-2.751-10.787
			h2.781l1.408,6.858l1.974-6.858h2.08L219.678,62.261z"/>
		<path class="st0" d="M241.477,59.251c0,1.43-0.252,2.684-0.758,3.759c-0.506,1.074-1.229,1.908-2.169,2.493
			c-0.94,0.585-2.017,0.878-3.235,0.878c-1.201,0-2.275-0.289-3.219-0.867c-0.943-0.579-1.672-1.402-2.194-2.477
			c-0.522-1.071-0.78-2.31-0.786-3.705v-0.717c0-1.43,0.258-2.684,0.773-3.775c0.516-1.085,1.242-1.92,2.181-2.501
			c0.94-0.585,2.017-0.873,3.227-0.873s2.286,0.289,3.227,0.873c0.94,0.582,1.666,1.414,2.181,2.501
			c0.516,1.087,0.773,2.341,0.773,3.762L241.477,59.251L241.477,59.251L241.477,59.251z M238.448,58.597
			c0-1.522-0.274-2.681-0.818-3.469c-0.544-0.789-1.324-1.185-2.332-1.185c-1.003,0-1.778,0.389-2.322,1.172
			c-0.544,0.78-0.821,1.927-0.827,3.433v0.707c0,1.484,0.274,2.631,0.818,3.452c0.544,0.821,1.329,1.229,2.351,1.229
			c1.003,0,1.775-0.394,2.313-1.182s0.808-1.936,0.818-3.444L238.448,58.597L238.448,58.597z"/>
		<path class="st0" d="M245.604,55.394l0.087,1.248c0.77-0.965,1.805-1.446,3.099-1.446c1.144,0,1.996,0.334,2.552,1.006
			s0.843,1.672,0.859,3.012v6.968h-2.882v-6.915c0-0.612-0.136-1.06-0.399-1.335c-0.267-0.274-0.707-0.415-1.326-0.415
			c-0.808,0-1.417,0.348-1.826,1.041v7.625h-2.882V55.394h2.716H245.604L245.604,55.394z"/>
		<path class="st0" d="M256.917,66.184h-2.889V50.871h2.889V66.184z"/>
		<path class="st0" d="M258.758,52.606c0-0.43,0.144-0.789,0.434-1.068c0.289-0.28,0.682-0.418,1.182-0.418
			c0.494,0,0.883,0.141,1.179,0.418c0.293,0.28,0.437,0.636,0.437,1.068c0,0.437-0.147,0.799-0.443,1.079
			c-0.296,0.28-0.688,0.418-1.172,0.418c-0.487,0-0.878-0.141-1.172-0.418C258.902,53.405,258.758,53.043,258.758,52.606z
			 M261.819,66.184h-2.892V55.397h2.892V66.184z"/>
		<path class="st0" d="M266.332,55.394l0.087,1.248c0.77-0.965,1.805-1.446,3.099-1.446c1.144,0,1.996,0.334,2.552,1.006
			c0.56,0.669,0.843,1.672,0.854,3.012v6.968h-2.882v-6.915c0-0.612-0.136-1.06-0.399-1.335c-0.267-0.274-0.707-0.415-1.327-0.415
			c-0.808,0-1.421,0.348-1.826,1.041v7.625h-2.882V55.394h2.716H266.332L266.332,55.394z"/>
		<path class="st0" d="M279.568,66.382c-1.582,0-2.87-0.487-3.86-1.455c-0.993-0.971-1.49-2.267-1.49-3.879v-0.28
			c0-1.085,0.21-2.052,0.628-2.904c0.418-0.854,1.009-1.512,1.778-1.974c0.767-0.465,1.644-0.695,2.624-0.695
			c1.474,0,2.64,0.465,3.485,1.395c0.848,0.93,1.273,2.248,1.273,3.958v1.179h-6.87c0.095,0.704,0.375,1.27,0.843,1.694
			c0.468,0.427,1.063,0.638,1.778,0.638c1.109,0,1.977-0.402,2.599-1.207l1.417,1.584c-0.434,0.612-1.019,1.09-1.754,1.43
			C281.285,66.209,280.467,66.382,279.568,66.382z M279.241,57.518c-0.571,0-1.038,0.195-1.389,0.582
			c-0.356,0.389-0.585,0.94-0.682,1.663h4.01V59.53c-0.016-0.641-0.185-1.138-0.522-1.487
			C280.326,57.695,279.851,57.518,279.241,57.518z"/>
		<path class="st0" d="M292.885,61.068v5.114h-2.993V51.667h5.66c1.09,0,2.052,0.198,2.876,0.601
			c0.826,0.399,1.465,0.965,1.911,1.701c0.446,0.736,0.669,1.568,0.669,2.509c0,1.424-0.487,2.542-1.465,3.366
			c-0.971,0.821-2.319,1.229-4.039,1.229L292.885,61.068L292.885,61.068z M292.885,58.648h2.672c0.796,0,1.395-0.188,1.813-0.56
			c0.413-0.37,0.62-0.902,0.62-1.593c0-0.71-0.21-1.286-0.625-1.726c-0.424-0.437-0.997-0.663-1.738-0.679h-2.743L292.885,58.648
			L292.885,58.648z"/>
		<path class="st0" d="M302.554,66.184V51.67h4.466c1.275,0,2.414,0.289,3.426,0.861c1.006,0.576,1.792,1.392,2.357,2.452
			c0.566,1.063,0.848,2.267,0.848,3.615v0.669c0,1.348-0.28,2.547-0.832,3.599c-0.557,1.05-1.34,1.864-2.348,2.446
			c-1.012,0.579-2.15,0.87-3.423,0.878h-4.498v-0.003L302.554,66.184L302.554,66.184z M305.545,54.09v9.691h1.449
			c1.169,0,2.061-0.38,2.681-1.144c0.619-0.764,0.933-1.857,0.946-3.278v-0.767c0-1.474-0.308-2.593-0.918-3.354
			c-0.612-0.764-1.506-1.144-2.684-1.144L305.545,54.09L305.545,54.09z"/>
		<path class="st0" d="M225.963,81.761c-0.114,1.563-0.688,2.789-1.729,3.686c-1.041,0.899-2.411,1.348-4.114,1.348
			c-1.86,0-3.325-0.625-4.391-1.879c-1.066-1.254-1.601-2.974-1.601-5.157V78.87c0-1.395,0.245-2.624,0.739-3.686
			c0.494-1.063,1.194-1.879,2.109-2.446c0.911-0.568,1.977-0.854,3.186-0.854c1.672,0,3.023,0.446,4.048,1.345
			c1.022,0.899,1.615,2.156,1.775,3.778h-2.99c-0.073-0.936-0.334-1.618-0.783-2.036c-0.446-0.424-1.131-0.631-2.049-0.631
			c-0.997,0-1.745,0.356-2.238,1.074c-0.494,0.71-0.748,1.824-0.764,3.325v1.098c0,1.568,0.236,2.716,0.71,3.442
			c0.475,0.723,1.226,1.085,2.248,1.085c0.924,0,1.612-0.211,2.068-0.631c0.456-0.424,0.717-1.079,0.783-1.962h2.99V81.761
			L225.963,81.761L225.963,81.761z"/>
		<path class="st0" d="M226.778,81.105c0-1.071,0.207-2.025,0.617-2.86c0.411-0.837,1.006-1.487,1.778-1.942
			c0.773-0.459,1.672-0.688,2.697-0.688c1.455,0,2.643,0.446,3.564,1.335s1.433,2.099,1.541,3.63l0.019,0.739
			c0,1.653-0.462,2.979-1.386,3.982c-0.924,1-2.162,1.498-3.719,1.498c-1.557,0-2.797-0.5-3.721-1.493
			c-0.927-0.997-1.389-2.351-1.389-4.067L226.778,81.105L226.778,81.105z M229.66,81.312c0,1.022,0.192,1.808,0.579,2.351
			c0.386,0.544,0.937,0.813,1.653,0.813c0.701,0,1.242-0.267,1.637-0.802c0.394-0.531,0.587-1.389,0.587-2.571
			c0-1.006-0.195-1.783-0.587-2.335c-0.394-0.55-0.943-0.827-1.653-0.827c-0.704,0-1.251,0.274-1.634,0.824
			C229.851,79.31,229.66,80.162,229.66,81.312z"/>
		<path class="st0" d="M244.721,85.501c-0.71,0.864-1.697,1.294-2.952,1.294c-1.156,0-2.039-0.329-2.647-0.997
			c-0.609-0.666-0.918-1.64-0.933-2.923V75.81h2.882v6.975c0,1.122,0.516,1.685,1.541,1.685c0.974,0,1.65-0.337,2.012-1.015v-7.644
			h2.892v10.787h-2.71L244.721,85.501z"/>
		<path class="st0" d="M255.235,78.514c-0.389-0.054-0.736-0.079-1.038-0.079c-1.09,0-1.805,0.37-2.14,1.106v7.057h-2.882V75.812
			h2.721l0.079,1.286c0.579-0.993,1.38-1.484,2.404-1.484c0.321,0,0.612,0.044,0.896,0.128L255.235,78.514z"/>
		<path class="st0" d="M261.955,83.619c0-0.351-0.173-0.628-0.522-0.829c-0.348-0.204-0.905-0.386-1.678-0.544
			c-2.565-0.538-3.848-1.628-3.848-3.27c0-0.959,0.396-1.754,1.191-2.398c0.796-0.641,1.832-0.962,3.115-0.962
			c1.37,0,2.463,0.321,3.284,0.965s1.232,1.484,1.232,2.512h-2.882c0-0.411-0.136-0.751-0.399-1.022
			c-0.267-0.267-0.682-0.405-1.248-0.405c-0.484,0-0.861,0.109-1.125,0.329c-0.264,0.22-0.399,0.5-0.399,0.84
			c0,0.321,0.152,0.579,0.453,0.773c0.302,0.198,0.81,0.364,1.531,0.509c0.717,0.141,1.321,0.305,1.813,0.484
			c1.525,0.557,2.286,1.525,2.286,2.898c0,0.984-0.424,1.783-1.267,2.389c-0.845,0.609-1.936,0.911-3.268,0.911
			c-0.902,0-1.707-0.16-2.411-0.484c-0.704-0.327-1.251-0.764-1.65-1.326c-0.399-0.563-0.601-1.169-0.601-1.819h2.732
			c0.025,0.513,0.217,0.902,0.569,1.179c0.348,0.274,0.824,0.408,1.414,0.408c0.552,0,0.971-0.103,1.251-0.315
			C261.81,84.231,261.955,83.955,261.955,83.619z"/>
		<path class="st0" d="M271.059,86.8c-1.582,0-2.87-0.487-3.86-1.455c-0.993-0.971-1.49-2.267-1.49-3.879v-0.28
			c0-1.085,0.21-2.052,0.628-2.904c0.418-0.854,1.009-1.512,1.778-1.974c0.767-0.465,1.644-0.695,2.624-0.695
			c1.474,0,2.64,0.465,3.485,1.395c0.848,0.93,1.273,2.248,1.273,3.958v1.179h-6.87c0.095,0.704,0.375,1.27,0.843,1.694
			c0.468,0.427,1.063,0.638,1.778,0.638c1.109,0,1.977-0.402,2.599-1.207l1.417,1.584c-0.434,0.612-1.019,1.09-1.754,1.43
			C272.777,86.626,271.962,86.8,271.059,86.8z M270.733,77.936c-0.571,0-1.038,0.195-1.389,0.582
			c-0.356,0.389-0.585,0.94-0.682,1.663h4.01v-0.233c-0.016-0.641-0.185-1.138-0.522-1.487
			C271.814,78.112,271.342,77.936,270.733,77.936z"/>
		<path class="st0" d="M282.466,83.619c0-0.351-0.176-0.628-0.525-0.829c-0.348-0.204-0.908-0.386-1.678-0.544
			c-2.564-0.538-3.847-1.628-3.847-3.268c0-0.959,0.396-1.754,1.191-2.398c0.796-0.641,1.832-0.962,3.115-0.962
			c1.37,0,2.464,0.321,3.284,0.965s1.229,1.484,1.229,2.512h-2.882c0-0.411-0.136-0.751-0.399-1.022
			c-0.267-0.267-0.682-0.405-1.248-0.405c-0.487,0-0.862,0.109-1.128,0.329c-0.267,0.22-0.399,0.5-0.399,0.84
			c0,0.321,0.15,0.579,0.453,0.773c0.302,0.198,0.808,0.364,1.528,0.509c0.717,0.141,1.327,0.305,1.816,0.484
			c1.522,0.557,2.281,1.525,2.281,2.898c0,0.984-0.424,1.783-1.27,2.389c-0.843,0.609-1.933,0.911-3.268,0.911
			c-0.902,0-1.707-0.16-2.408-0.484c-0.704-0.327-1.251-0.764-1.65-1.326c-0.399-0.563-0.601-1.169-0.601-1.819h2.732
			c0.025,0.513,0.217,0.902,0.566,1.179c0.356,0.274,0.824,0.408,1.417,0.408c0.55,0,0.965-0.103,1.251-0.315
			C282.324,84.231,282.466,83.955,282.466,83.619z"/>
	</g>
</g>
</svg>
