<?xml version="1.0" encoding="utf-8"?>
<!-- Generator: Adobe Illustrator 22.0.1, SVG Export Plug-In . SVG Version: 6.00 Build 0)  -->
<svg version="1.1" id="Layer_1" xmlns="http://www.w3.org/2000/svg" xmlns:xlink="http://www.w3.org/1999/xlink" x="0px" y="0px"
	 viewBox="0 0 500 250" style="enable-background:new 0 0 500 250;" xml:space="preserve">
<style type="text/css">
	.st0{fill:#99D500;}
	.st1{opacity:0.21;enable-background:new    ;}
	.st2{fill:#4F711B;}
	.st3{fill:#FFFFFF;}
</style>
<g>
	<path class="st0" d="M249.958,99.48c-15.494,0-28.052,12.56-28.052,28.052s28.052,61.452,28.052,61.452
		s28.054-45.958,28.054-61.452C278.01,112.04,265.452,99.48,249.958,99.48z M249.958,141.616c-7.773,0-14.077-6.309-14.077-14.082
		c0-7.773,6.304-14.077,14.077-14.077s14.077,6.304,14.077,14.077C264.035,135.307,257.736,141.616,249.958,141.616z"/>
	<ellipse class="st1" cx="249.958" cy="213.343" rx="14.298" ry="4.326"/>
	<g>
		<path class="st2" d="M252.935,115.952c2.537,0,4.924,0.618,7.044,1.703c-2.554-2.585-6.092-4.193-10.015-4.193
			c-7.773,0-14.077,6.304-14.077,14.077c0,2.449,0.683,4.717,1.777,6.721c-0.159-0.904-0.258-1.825-0.258-2.77
			C237.398,122.908,244.357,115.952,252.935,115.952z"/>
	</g>
	<rect x="156.334" y="37.87" class="st3" width="187" height="66.591"/>
	<rect x="156.334" y="37.87" class="st0" width="187" height="0.842"/>
	<polygon class="st2" points="343.333,104.469 156.334,104.469 163.23,107.573 336.437,107.573 	"/>
	<g>
		<path class="st0" d="M205.803,66.284h-3.03l-5.902-9.683v9.683h-3.03V51.572h3.03l5.913,9.703v-9.703h3.019V66.284L205.803,66.284
			z"/>
		<path class="st0" d="M212.768,66.485c-1.602,0-2.908-0.493-3.918-1.474c-1.004-0.984-1.513-2.296-1.513-3.929v-0.28
			c0-1.1,0.212-2.078,0.635-2.945c0.423-0.867,1.026-1.534,1.803-1.999c0.777-0.471,1.666-0.703,2.665-0.703
			c1.491,0,2.676,0.471,3.532,1.412c0.862,0.941,1.29,2.279,1.29,4.008v1.196h-6.965c0.096,0.714,0.38,1.29,0.856,1.718
			c0.471,0.428,1.08,0.646,1.803,0.646c1.126,0,2.004-0.408,2.639-1.222l1.434,1.602c-0.439,0.618-1.032,1.105-1.777,1.449
			C214.512,66.309,213.678,66.485,212.768,66.485z M212.434,57.5c-0.581,0-1.052,0.196-1.412,0.587
			c-0.36,0.391-0.592,0.958-0.692,1.681h4.062v-0.238c-0.017-0.65-0.185-1.153-0.53-1.508C213.534,57.68,213.057,57.5,212.434,57.5z
			"/>
		<path class="st0" d="M227.917,62.312l1.434-6.959h2.818l-2.787,10.936h-2.443l-2.072-6.88l-2.072,6.88h-2.432l-2.787-10.936h2.818
			l1.428,6.953l1.999-6.953h2.109L227.917,62.312z"/>
		<path class="st0" d="M240.958,61.096v5.182h-3.03V51.567h5.737c1.105,0,2.078,0.201,2.919,0.609
			c0.841,0.408,1.486,0.978,1.936,1.724c0.45,0.746,0.677,1.593,0.677,2.543c0,1.443-0.491,2.576-1.48,3.41
			c-0.984,0.83-2.353,1.247-4.099,1.247L240.958,61.096L240.958,61.096z M240.958,58.642h2.707c0.805,0,1.412-0.185,1.834-0.567
			c0.423-0.382,0.629-0.915,0.629-1.618c0-0.72-0.216-1.301-0.635-1.749c-0.428-0.445-1.009-0.672-1.76-0.688h-2.775L240.958,58.642
			L240.958,58.642z"/>
		<path class="st0" d="M256.705,58.086c-0.402-0.054-0.751-0.079-1.052-0.079c-1.105,0-1.829,0.375-2.174,1.12v7.155h-2.919V55.346
			h2.755l0.079,1.301c0.587-1.004,1.397-1.502,2.432-1.502c0.323,0,0.629,0.042,0.91,0.133L256.705,58.086z"/>
		<path class="st0" d="M256.773,60.714c0-1.089,0.207-2.052,0.624-2.897s1.015-1.508,1.803-1.973
			c0.782-0.465,1.698-0.698,2.733-0.698c1.471,0,2.676,0.45,3.611,1.355c0.936,0.904,1.454,2.131,1.559,3.676l0.017,0.746
			c0,1.676-0.465,3.019-1.401,4.04c-0.936,1.009-2.194,1.522-3.77,1.522s-2.835-0.507-3.776-1.513
			c-0.941-1.009-1.412-2.384-1.412-4.119L256.773,60.714L256.773,60.714z M259.693,60.921c0,1.037,0.196,1.834,0.592,2.381
			c0.391,0.55,0.947,0.825,1.676,0.825c0.714,0,1.264-0.269,1.655-0.814c0.402-0.539,0.598-1.412,0.598-2.602
			c0-1.015-0.196-1.808-0.598-2.369c-0.397-0.561-0.958-0.842-1.676-0.842c-0.714,0-1.27,0.275-1.655,0.836
			C259.894,58.891,259.693,59.758,259.693,60.921z"/>
		<path class="st0" d="M267.953,60.736c0-1.703,0.38-3.056,1.148-4.071c0.762-1.009,1.809-1.513,3.135-1.513
			c1.069,0,1.945,0.402,2.633,1.196v-5.579h2.929v15.52h-2.633l-0.142-1.163c-0.725,0.91-1.666,1.364-2.809,1.364
			c-1.29,0-2.322-0.507-3.098-1.522C268.344,63.945,267.953,62.539,267.953,60.736z M270.872,60.943
			c0,1.026,0.175,1.814,0.533,2.364c0.354,0.55,0.873,0.819,1.554,0.819c0.904,0,1.545-0.38,1.908-1.148v-4.331
			c-0.365-0.762-0.995-1.148-1.888-1.148C271.581,57.5,270.872,58.647,270.872,60.943z"/>
		<path class="st0" d="M286.102,65.173c-0.72,0.873-1.718,1.312-2.988,1.312c-1.174,0-2.067-0.338-2.681-1.009
			c-0.624-0.672-0.936-1.666-0.947-2.962v-7.166h2.925v7.07c0,1.137,0.519,1.709,1.554,1.709c0.989,0,1.672-0.343,2.041-1.032
			v-7.753h2.929v10.936h-2.744L286.102,65.173z"/>
		<path class="st0" d="M295.159,64.132c0.539,0,0.978-0.148,1.318-0.445c0.338-0.297,0.513-0.692,0.53-1.179h2.733
			c-0.006,0.74-0.207,1.417-0.607,2.035c-0.402,0.613-0.941,1.094-1.633,1.434c-0.692,0.338-1.449,0.507-2.29,0.507
			c-1.559,0-2.798-0.496-3.696-1.491c-0.904-0.995-1.355-2.364-1.355-4.119v-0.19c0-1.681,0.45-3.03,1.343-4.03
			c0.893-1.004,2.126-1.502,3.685-1.502c1.369,0,2.464,0.391,3.289,1.168c0.825,0.777,1.242,1.814,1.259,3.109h-2.733
			c-0.017-0.567-0.19-1.032-0.53-1.386c-0.338-0.36-0.782-0.533-1.332-0.533c-0.683,0-1.196,0.249-1.545,0.746
			c-0.343,0.496-0.519,1.301-0.519,2.412v0.306c0,1.126,0.17,1.936,0.513,2.427C293.938,63.888,294.462,64.132,295.159,64.132z"/>
		<path class="st0" d="M304.383,52.661v2.687h1.868v2.143h-1.868v5.457c0,0.402,0.074,0.692,0.238,0.867
			c0.159,0.175,0.45,0.264,0.888,0.264c0.323,0,0.607-0.026,0.856-0.074v2.216c-0.57,0.175-1.159,0.264-1.766,0.264
			c-2.047,0-3.093-1.037-3.13-3.104V57.49h-1.596v-2.143h1.596v-2.687L304.383,52.661L304.383,52.661z"/>
		<path class="st0" d="M225.221,72.265v9.688c0,1.613-0.502,2.882-1.513,3.818c-1.009,0.936-2.379,1.406-4.13,1.406
			c-1.718,0-3.078-0.454-4.093-1.364c-1.009-0.91-1.528-2.157-1.545-3.744v-9.805h3.03v9.709c0,0.963,0.227,1.666,0.692,2.109
			c0.46,0.439,1.1,0.661,1.914,0.661c1.703,0,2.571-0.893,2.596-2.687v-9.794L225.221,72.265L225.221,72.265z"/>
		<path class="st0" d="M236.839,81.608c0,1.681-0.386,3.03-1.148,4.051c-0.762,1.009-1.797,1.522-3.098,1.522
			c-1.105,0-1.999-0.386-2.676-1.153v5.151h-2.919V76.044h2.707l0.1,1.068c0.709-0.845,1.629-1.275,2.766-1.275
			c1.349,0,2.395,0.502,3.141,1.491c0.746,0.995,1.122,2.369,1.122,4.119v0.159h0.006V81.608z M233.92,81.386
			c0-1.015-0.179-1.808-0.539-2.364c-0.36-0.55-0.884-0.83-1.57-0.83c-0.915,0-1.545,0.349-1.888,1.057v4.49
			c0.36,0.725,0.995,1.083,1.908,1.083C233.222,84.822,233.92,83.676,233.92,81.386z"/>
		<path class="st0" d="M237.673,81.429c0-1.703,0.38-3.056,1.148-4.071c0.762-1.009,1.808-1.513,3.135-1.513
			c1.068,0,1.945,0.402,2.639,1.196v-5.579h2.929v15.52h-2.633l-0.142-1.163c-0.725,0.91-1.666,1.364-2.809,1.364
			c-1.29,0-2.322-0.507-3.098-1.522C238.064,84.643,237.673,83.232,237.673,81.429z M240.598,81.634
			c0,1.026,0.175,1.814,0.533,2.364c0.354,0.55,0.873,0.819,1.554,0.819c0.904,0,1.545-0.38,1.908-1.148v-4.331
			c-0.365-0.762-0.995-1.148-1.888-1.148C241.296,78.192,240.598,79.34,240.598,81.634z"/>
		<path class="st0" d="M255.611,86.976c-0.138-0.258-0.238-0.592-0.295-0.984c-0.709,0.788-1.629,1.185-2.761,1.185
			c-1.068,0-1.956-0.306-2.665-0.93c-0.709-0.624-1.057-1.401-1.057-2.342c0-1.159,0.428-2.047,1.29-2.665
			c0.862-0.618,2.1-0.936,3.722-0.941h1.343v-0.624c0-0.507-0.133-0.91-0.391-1.211c-0.258-0.301-0.672-0.45-1.227-0.45
			c-0.491,0-0.878,0.116-1.159,0.349c-0.28,0.238-0.417,0.561-0.417,0.973h-2.925c0-0.635,0.196-1.216,0.592-1.761
			c0.391-0.539,0.941-0.963,1.655-1.27c0.714-0.306,1.513-0.46,2.401-0.46c1.349,0,2.417,0.338,3.209,1.015
			c0.793,0.677,1.19,1.629,1.19,2.855v4.737c0.006,1.037,0.153,1.82,0.434,2.353v0.175L255.611,86.976L255.611,86.976z
			 M253.195,84.944c0.428,0,0.825-0.096,1.196-0.292c0.365-0.19,0.635-0.45,0.808-0.771v-1.877h-1.094
			c-1.46,0-2.242,0.507-2.333,1.513l-0.011,0.17c0,0.365,0.127,0.661,0.386,0.904C252.396,84.828,252.75,84.944,253.195,84.944z"/>
		<path class="st0" d="M263.346,73.353v2.687h1.868v2.143h-1.868v5.457c0,0.408,0.074,0.692,0.233,0.867
			c0.159,0.175,0.45,0.258,0.888,0.258c0.323,0,0.609-0.026,0.862-0.074v2.216c-0.576,0.175-1.163,0.258-1.772,0.258
			c-2.047,0-3.093-1.037-3.13-3.104v-5.891h-1.596v-2.143h1.596v-2.687L263.346,73.353L263.346,73.353z"/>
		<path class="st0" d="M271.359,87.175c-1.602,0-2.908-0.493-3.912-1.474c-1.009-0.984-1.513-2.296-1.513-3.929v-0.286
			c0-1.1,0.216-2.078,0.635-2.945c0.423-0.867,1.026-1.534,1.803-1.999c0.777-0.471,1.666-0.703,2.659-0.703
			c1.491,0,2.676,0.471,3.532,1.412c0.856,0.947,1.29,2.279,1.29,4.008v1.196h-6.965c0.096,0.714,0.38,1.29,0.856,1.718
			c0.471,0.434,1.074,0.646,1.797,0.646c1.126,0,2.004-0.408,2.639-1.222l1.434,1.602c-0.439,0.618-1.032,1.105-1.777,1.449
			C273.088,87.002,272.267,87.175,271.359,87.175z M271.025,78.192c-0.581,0-1.046,0.196-1.412,0.592
			c-0.36,0.391-0.592,0.958-0.692,1.681h4.067v-0.238c-0.017-0.65-0.185-1.153-0.53-1.508
			C272.119,78.371,271.638,78.192,271.025,78.192z"/>
		<path class="st0" d="M282.913,83.95c0-0.36-0.175-0.635-0.53-0.842c-0.354-0.207-0.921-0.391-1.703-0.55
			c-2.602-0.544-3.903-1.65-3.903-3.311c0-0.973,0.408-1.777,1.211-2.432c0.805-0.65,1.862-0.978,3.157-0.978
			c1.391,0,2.495,0.328,3.331,0.978c0.83,0.65,1.247,1.502,1.247,2.543h-2.925c0-0.417-0.138-0.762-0.408-1.037
			c-0.269-0.269-0.692-0.413-1.264-0.413c-0.493,0-0.873,0.111-1.137,0.332c-0.269,0.221-0.408,0.507-0.408,0.845
			c0,0.323,0.153,0.587,0.46,0.782c0.306,0.201,0.825,0.371,1.554,0.519c0.725,0.142,1.338,0.306,1.84,0.493
			c1.545,0.567,2.31,1.545,2.31,2.934c0,0.995-0.428,1.803-1.284,2.421c-0.856,0.618-1.962,0.925-3.311,0.925
			c-0.915,0-1.735-0.164-2.443-0.493c-0.714-0.328-1.27-0.771-1.67-1.343c-0.408-0.57-0.609-1.185-0.609-1.845h2.766
			c0.026,0.524,0.221,0.915,0.576,1.196c0.354,0.275,0.836,0.413,1.434,0.413c0.561,0,0.984-0.105,1.27-0.317
			C282.769,84.575,282.913,84.3,282.913,83.95z"/>
	</g>
</g>
</svg>
