<?xml version="1.0" encoding="utf-8"?>
<!-- Generator: Adobe Illustrator 22.0.1, SVG Export Plug-In . SVG Version: 6.00 Build 0)  -->
<svg version="1.1" id="Layer_1" xmlns="http://www.w3.org/2000/svg" xmlns:xlink="http://www.w3.org/1999/xlink" x="0px" y="0px"
	 viewBox="0 0 400 200" style="enable-background:new 0 0 400 200;" xml:space="preserve">
<style type="text/css">
	.st0{opacity:0.7;fill:#C8E4FF;enable-background:new    ;}
	.st1{opacity:0.03;fill:#C8E4FF;enable-background:new    ;}
	.st2{opacity:0.9;fill:#C8E4FF;enable-background:new    ;}
</style>
<ellipse class="st0" cx="58.29" cy="55.934" rx="0.384" ry="0.384"/>
<ellipse class="st0" cx="54.958" cy="96.933" rx="0.384" ry="0.384"/>
<ellipse class="st0" cx="341.285" cy="120.585" rx="0.384" ry="0.384"/>
<ellipse class="st0" cx="331.933" cy="58.028" rx="0.384" ry="0.384"/>
<ellipse class="st0" cx="290.384" cy="112" rx="0.384" ry="0.384"/>
<ellipse class="st1" cx="56.05" cy="143.056" rx="0.384" ry="0.384"/>
<ellipse class="st2" cx="92.124" cy="95.342" rx="0.465" ry="0.465"/>
<ellipse class="st2" cx="13.511" cy="110.88" rx="0.465" ry="0.465"/>
<ellipse class="st2" cx="29.126" cy="23.74" rx="0.465" ry="0.465"/>
<ellipse class="st2" cx="312.035" cy="67" rx="0.465" ry="0.465"/>
<ellipse class="st2" cx="390.575" cy="189.041" rx="0.465" ry="0.465"/>
<ellipse class="st2" cx="126.126" cy="50.74" rx="0.465" ry="0.465"/>
<ellipse class="st2" cx="392.541" cy="9.925" rx="0.465" ry="0.465"/>
<ellipse class="st2" cx="126.126" cy="50.74" rx="0.465" ry="0.465"/>
<ellipse class="st0" cx="166.29" cy="80.934" rx="0.384" ry="0.384"/>
<ellipse class="st0" cx="162.958" cy="121.933" rx="0.384" ry="0.384"/>
<ellipse class="st2" cx="200.124" cy="120.342" rx="0.465" ry="0.465"/>
<ellipse class="st2" cx="234.126" cy="75.74" rx="0.465" ry="0.465"/>
<ellipse class="st2" cx="234.126" cy="75.74" rx="0.465" ry="0.465"/>
</svg>
