<?xml version="1.0" encoding="utf-8"?>
<!-- Generator: Adobe Illustrator 22.0.1, SVG Export Plug-In . SVG Version: 6.00 Build 0)  -->
<svg version="1.1" id="Layer_1" xmlns="http://www.w3.org/2000/svg" xmlns:xlink="http://www.w3.org/1999/xlink" x="0px" y="0px"
	 viewBox="0 0 500 250" style="enable-background:new 0 0 500 250;" xml:space="preserve">
<style type="text/css">
	.st0{fill:#4DA8B6;}
	.st1{opacity:0.21;enable-background:new    ;}
	.st2{fill:#00616A;}
	.st3{fill:#FFFFFF;}
</style>
<g>
	<path class="st0" d="M249.959,97.725c-15.272,0-27.649,12.377-27.649,27.649s27.649,60.569,27.649,60.569
		s27.649-45.306,27.649-60.569C277.62,110.102,265.231,97.725,249.959,97.725z M249.959,139.249
		c-7.661,0-13.875-6.214-13.875-13.875s6.214-13.875,13.875-13.875c7.661,0,13.875,6.214,13.875,13.875
		S257.621,139.249,249.959,139.249z"/>
	<ellipse class="st1" cx="249.959" cy="209.963" rx="14.097" ry="4.264"/>
	<g>
		<path class="st2" d="M252.896,113.961c2.505,0,4.857,0.614,6.948,1.678c-2.514-2.553-6.013-4.132-9.873-4.132
			c-7.661,0-13.875,6.214-13.875,13.875c0,2.412,0.674,4.644,1.75,6.625c-0.162-0.884-0.252-1.789-0.252-2.724
			C237.582,120.81,244.429,113.961,252.896,113.961z"/>
	</g>
	<rect x="157.667" y="36.994" class="st3" width="184.331" height="65.636"/>
	<rect x="157.667" y="36.994" class="st0" width="184.331" height="0.836"/>
	<polygon class="st2" points="342,102.63 157.667,102.63 164.465,105.698 335.202,105.698 	"/>
	<g>
		<path class="st0" d="M245.223,52.91h-4.444v12.087h-2.987V52.91h-4.384v-2.424h11.814L245.223,52.91L245.223,52.91z"/>
		<path class="st0" d="M250.301,65.198c-1.579,0-2.865-0.482-3.85-1.459c-0.995-0.965-1.489-2.262-1.489-3.871v-0.282
			c0-1.085,0.21-2.05,0.623-2.906c0.422-0.854,1.006-1.507,1.78-1.971c0.764-0.462,1.639-0.693,2.625-0.693
			c1.477,0,2.634,0.462,3.479,1.387c0.845,0.926,1.277,2.241,1.277,3.952v1.177h-6.858c0.09,0.704,0.372,1.267,0.845,1.69
			c0.462,0.422,1.055,0.632,1.77,0.632c1.106,0,1.971-0.402,2.595-1.207l1.417,1.579c-0.432,0.614-1.016,1.085-1.75,1.429
			C252.021,65.027,251.206,65.198,250.301,65.198z M249.969,56.34c-0.572,0-1.036,0.192-1.387,0.584
			c-0.351,0.383-0.584,0.944-0.683,1.66h4.012v-0.231c-0.021-0.644-0.18-1.136-0.512-1.489
			C251.056,56.521,250.583,56.34,249.969,56.34z"/>
		<path class="st0" d="M255.409,59.508c0-1.69,0.372-3.026,1.126-4.012c0.755-0.986,1.78-1.477,3.098-1.477
			c1.156,0,2.071,0.443,2.765,1.318l0.192-1.126h2.523v14.921h-2.885v-5.067c-0.663,0.755-1.528,1.126-2.613,1.126
			c-1.288,0-2.301-0.503-3.065-1.498C255.79,62.714,255.409,61.306,255.409,59.508z M258.283,59.718c0,1.036,0.18,1.821,0.542,2.352
			c0.362,0.542,0.875,0.806,1.528,0.806c0.884,0,1.507-0.351,1.87-1.055v-4.455c-0.362-0.683-0.976-1.016-1.849-1.016
			c-0.663,0-1.177,0.272-1.549,0.806C258.475,57.686,258.283,58.54,258.283,59.718z"/>
		<path class="st0" d="M175.354,80.571c-0.111,1.558-0.695,2.784-1.729,3.691s-2.412,1.348-4.111,1.348
			c-1.861,0-3.317-0.623-4.384-1.881c-1.066-1.247-1.6-2.966-1.6-5.159v-0.884c0-1.387,0.242-2.625,0.734-3.691
			c0.492-1.055,1.187-1.881,2.112-2.442c0.914-0.572,1.971-0.854,3.176-0.854c1.678,0,3.026,0.452,4.042,1.348
			c1.025,0.896,1.618,2.151,1.77,3.77h-2.987c-0.072-0.935-0.332-1.618-0.785-2.031c-0.443-0.422-1.126-0.632-2.041-0.632
			c-0.995,0-1.75,0.362-2.232,1.076c-0.492,0.713-0.755,1.821-0.764,3.317v1.096c0,1.57,0.231,2.715,0.713,3.439
			c0.473,0.725,1.226,1.085,2.241,1.085c0.926,0,1.609-0.21,2.061-0.632s0.713-1.076,0.785-1.96L175.354,80.571L175.354,80.571z"/>
		<path class="st0" d="M176.168,79.906c0-1.076,0.21-2.02,0.614-2.855c0.413-0.836,1.006-1.489,1.78-1.941
			c0.773-0.452,1.678-0.683,2.694-0.683c1.459,0,2.645,0.443,3.559,1.337c0.914,0.896,1.429,2.101,1.537,3.631l0.021,0.734
			c0,1.648-0.462,2.975-1.387,3.982c-0.926,0.995-2.161,1.498-3.71,1.498c-1.558,0-2.795-0.503-3.721-1.498
			c-0.926-0.995-1.387-2.352-1.387-4.063L176.168,79.906L176.168,79.906z M179.045,80.11c0,1.025,0.192,1.81,0.572,2.352
			c0.381,0.542,0.935,0.815,1.648,0.815c0.695,0,1.237-0.261,1.639-0.806c0.402-0.542,0.584-1.387,0.584-2.565
			c0-1.004-0.192-1.78-0.584-2.334c-0.392-0.554-0.944-0.824-1.648-0.824s-1.246,0.272-1.639,0.824
			C179.245,78.108,179.045,78.962,179.045,80.11z"/>
		<path class="st0" d="M190.295,74.618l0.09,1.247c0.773-0.965,1.801-1.447,3.098-1.447c1.147,0,1.99,0.342,2.553,1.004
			c0.563,0.674,0.845,1.678,0.854,3.005v6.957h-2.876v-6.907c0-0.614-0.141-1.055-0.392-1.327c-0.261-0.282-0.704-0.413-1.318-0.413
			c-0.815,0-1.417,0.351-1.819,1.036v7.622h-2.876V74.627h2.685v-0.009H190.295z"/>
		<path class="st0" d="M204.393,82.411c0-0.351-0.171-0.623-0.524-0.836c-0.351-0.201-0.905-0.383-1.678-0.542
			c-2.565-0.542-3.841-1.63-3.841-3.269c0-0.956,0.392-1.759,1.187-2.403c0.794-0.644,1.831-0.965,3.107-0.965
			c1.367,0,2.463,0.321,3.287,0.965c0.815,0.644,1.226,1.477,1.226,2.505h-2.874c0-0.413-0.141-0.755-0.392-1.025
			c-0.272-0.261-0.683-0.402-1.246-0.402c-0.482,0-0.854,0.111-1.126,0.321c-0.261,0.222-0.392,0.503-0.392,0.836
			c0,0.321,0.15,0.572,0.452,0.776c0.302,0.201,0.815,0.372,1.528,0.512c0.713,0.141,1.318,0.302,1.81,0.482
			c1.519,0.563,2.283,1.519,2.283,2.897c0,0.986-0.422,1.78-1.267,2.382c-0.845,0.614-1.941,0.914-3.269,0.914
			c-0.905,0-1.699-0.162-2.403-0.482c-0.704-0.321-1.246-0.764-1.648-1.327c-0.392-0.563-0.593-1.166-0.593-1.821h2.724
			c0.03,0.512,0.222,0.905,0.563,1.177c0.351,0.272,0.824,0.413,1.417,0.413c0.554,0,0.965-0.102,1.246-0.312
			C204.252,83.034,204.393,82.753,204.393,82.411z"/>
		<path class="st0" d="M214.99,84.301c-0.704,0.866-1.69,1.297-2.945,1.297c-1.157,0-2.041-0.332-2.645-0.995
			c-0.614-0.662-0.914-1.639-0.926-2.915V74.62h2.876v6.969c0,1.126,0.512,1.69,1.528,1.69c0.976,0,1.648-0.342,2.011-1.016v-7.641
			h2.885V85.4h-2.705L214.99,84.301z"/>
		<path class="st0" d="M222.481,85.398h-2.885V70.094h2.885V85.398z"/>
		<path class="st0" d="M227.778,71.975v2.645h1.84v2.112h-1.84v5.378c0,0.392,0.081,0.683,0.231,0.854
			c0.15,0.171,0.443,0.252,0.875,0.252c0.321,0,0.593-0.021,0.845-0.072v2.181c-0.563,0.171-1.147,0.252-1.75,0.252
			c-2.022,0-3.047-1.025-3.086-3.056v-5.812h-1.57v-2.112h1.57v-2.645L227.778,71.975L227.778,71.975z"/>
		<path class="st0" d="M230.694,71.834c0-0.432,0.15-0.785,0.432-1.066c0.291-0.282,0.683-0.422,1.177-0.422
			c0.492,0,0.884,0.141,1.177,0.422c0.291,0.282,0.432,0.632,0.432,1.066c0,0.443-0.15,0.794-0.443,1.076
			c-0.302,0.282-0.683,0.422-1.166,0.422c-0.482,0-0.875-0.141-1.166-0.422C230.846,72.628,230.694,72.266,230.694,71.834z
			 M233.762,85.398h-2.885V74.62h2.885V85.398z"/>
		<path class="st0" d="M238.265,74.618l0.09,1.247c0.764-0.965,1.801-1.447,3.098-1.447c1.147,0,1.99,0.342,2.553,1.004
			c0.563,0.674,0.845,1.678,0.854,3.005v6.957h-2.885v-6.907c0-0.614-0.141-1.055-0.392-1.327c-0.272-0.282-0.704-0.413-1.318-0.413
			c-0.815,0-1.417,0.351-1.819,1.036v7.622h-2.876V74.627h2.694v-0.009H238.265z"/>
		<path class="st0" d="M246.109,79.927c0-1.648,0.392-2.987,1.177-3.991c0.785-1.004,1.849-1.507,3.176-1.507
			c1.177,0,2.101,0.413,2.754,1.216l0.12-1.016h2.613v10.418c0,0.944-0.222,1.759-0.644,2.454c-0.432,0.693-1.036,1.226-1.81,1.588
			c-0.773,0.362-1.69,0.554-2.724,0.554c-0.794,0-1.558-0.162-2.313-0.473c-0.755-0.312-1.318-0.725-1.699-1.216l1.276-1.75
			c0.713,0.806,1.588,1.207,2.613,1.207c0.764,0,1.357-0.21,1.78-0.614c0.422-0.413,0.632-0.986,0.632-1.738v-0.572
			c-0.663,0.755-1.537,1.126-2.613,1.126c-1.297,0-2.343-0.503-3.146-1.519c-0.803-1.016-1.207-2.352-1.207-4.033v-0.132h0.014
			V79.927z M248.994,80.128c0,0.986,0.192,1.75,0.584,2.301c0.392,0.563,0.926,0.836,1.618,0.836c0.875,0,1.507-0.332,1.881-0.986
			v-4.554c-0.381-0.663-1.006-0.986-1.861-0.986c-0.695,0-1.237,0.282-1.63,0.845C249.186,78.157,248.994,79.002,248.994,80.128z"/>
		<path class="st0" d="M269.947,81.587c0-0.563-0.201-0.995-0.593-1.297c-0.392-0.302-1.115-0.623-2.151-0.956
			c-1.036-0.342-1.849-0.674-2.463-0.986c-1.648-0.896-2.475-2.091-2.475-3.589c0-0.785,0.222-1.489,0.663-2.091
			c0.443-0.614,1.076-1.096,1.9-1.438c0.824-0.342,1.759-0.512,2.786-0.512c1.036,0,1.96,0.192,2.775,0.563
			c0.815,0.372,1.438,0.905,1.891,1.588c0.452,0.683,0.674,1.468,0.674,2.322h-2.987c0-0.663-0.21-1.177-0.623-1.549
			c-0.422-0.372-1.006-0.554-1.759-0.554c-0.725,0-1.297,0.15-1.699,0.473c-0.402,0.312-0.614,0.713-0.614,1.216
			c0,0.473,0.231,0.866,0.713,1.186c0.473,0.321,1.177,0.614,2.101,0.896c1.699,0.512,2.936,1.147,3.721,1.9
			c0.773,0.755,1.166,1.699,1.166,2.825c0,1.256-0.473,2.241-1.427,2.957c-0.944,0.713-2.223,1.076-3.832,1.076
			c-1.115,0-2.131-0.21-3.047-0.614c-0.914-0.413-1.618-0.965-2.101-1.678c-0.482-0.704-0.725-1.528-0.725-2.463h2.996
			c0,1.6,0.956,2.403,2.876,2.403c0.704,0,1.267-0.15,1.66-0.432C269.746,82.51,269.947,82.109,269.947,81.587z"/>
		<path class="st0" d="M279.229,85.599c-1.579,0-2.865-0.482-3.85-1.459c-0.995-0.965-1.489-2.262-1.489-3.871v-0.282
			c0-1.085,0.21-2.05,0.623-2.906c0.422-0.854,1.006-1.507,1.78-1.971c0.764-0.462,1.639-0.693,2.625-0.693
			c1.477,0,2.634,0.462,3.479,1.387c0.845,0.926,1.277,2.241,1.277,3.952v1.177h-6.858c0.09,0.704,0.372,1.277,0.845,1.69
			c0.473,0.422,1.055,0.632,1.78,0.632c1.106,0,1.971-0.402,2.595-1.207l1.417,1.579c-0.432,0.614-1.016,1.085-1.75,1.429
			C280.937,85.428,280.122,85.599,279.229,85.599z M278.897,76.739c-0.572,0-1.036,0.192-1.387,0.584
			c-0.351,0.383-0.584,0.944-0.683,1.66h4.012v-0.231c-0.021-0.644-0.18-1.136-0.512-1.489
			C279.972,76.912,279.511,76.739,278.897,76.739z"/>
		<path class="st0" d="M290.84,77.314c-0.392-0.051-0.743-0.081-1.036-0.081c-1.085,0-1.81,0.372-2.142,1.106v7.047h-2.885V74.618
			h2.715l0.081,1.286c0.572-0.986,1.378-1.489,2.394-1.489c0.321,0,0.623,0.042,0.896,0.132L290.84,77.314z"/>
		<path class="st0" d="M295.919,81.878l2.001-7.269h3.017l-3.64,10.778h-2.754l-3.64-10.778h3.017L295.919,81.878z"/>
		<path class="st0" d="M301.659,71.834c0-0.432,0.15-0.785,0.432-1.066c0.291-0.282,0.683-0.422,1.177-0.422
			c0.492,0,0.884,0.141,1.177,0.422s0.432,0.632,0.432,1.066c0,0.443-0.15,0.794-0.443,1.076c-0.291,0.282-0.683,0.422-1.166,0.422
			c-0.492,0-0.875-0.141-1.166-0.422C301.821,72.628,301.659,72.266,301.659,71.834z M304.727,85.398h-2.885V74.62h2.885V85.398z"/>
		<path class="st0" d="M311.07,83.277c0.533,0,0.965-0.15,1.297-0.443c0.332-0.291,0.503-0.683,0.512-1.166h2.694
			c-0.009,0.725-0.21,1.397-0.593,2.011c-0.392,0.614-0.926,1.076-1.609,1.417c-0.683,0.332-1.429,0.503-2.253,0.503
			c-1.537,0-2.754-0.492-3.64-1.468c-0.896-0.974-1.337-2.334-1.337-4.063v-0.192c0-1.66,0.443-2.987,1.327-3.973
			s2.091-1.489,3.64-1.489c1.348,0,2.424,0.383,3.239,1.156c0.815,0.764,1.226,1.789,1.237,3.056h-2.694
			c-0.021-0.563-0.192-1.016-0.512-1.367c-0.332-0.351-0.773-0.524-1.318-0.524c-0.674,0-1.177,0.24-1.519,0.734
			c-0.342,0.492-0.512,1.286-0.512,2.382v0.302c0,1.106,0.171,1.911,0.503,2.394C309.875,83.034,310.378,83.277,311.07,83.277z"/>
		<path class="st0" d="M321.668,85.599c-1.579,0-2.865-0.482-3.85-1.459c-0.995-0.965-1.489-2.262-1.489-3.871v-0.282
			c0-1.085,0.21-2.05,0.623-2.906c0.422-0.854,1.006-1.507,1.78-1.971c0.764-0.462,1.639-0.693,2.625-0.693
			c1.477,0,2.634,0.462,3.479,1.387c0.845,0.926,1.277,2.241,1.277,3.952v1.177h-6.858c0.09,0.704,0.372,1.277,0.845,1.69
			c0.473,0.422,1.055,0.632,1.78,0.632c1.106,0,1.971-0.402,2.604-1.207l1.417,1.579c-0.432,0.614-1.016,1.085-1.75,1.429
			C323.379,85.428,322.573,85.599,321.668,85.599z M321.347,76.739c-0.572,0-1.036,0.192-1.387,0.584
			c-0.351,0.383-0.584,0.944-0.683,1.66h4.012v-0.231c-0.021-0.644-0.18-1.136-0.512-1.489
			C322.423,76.912,321.95,76.739,321.347,76.739z"/>
		<path class="st0" d="M333.06,82.411c0-0.351-0.171-0.623-0.524-0.836c-0.351-0.201-0.905-0.383-1.678-0.542
			c-2.565-0.542-3.841-1.63-3.841-3.269c0-0.956,0.392-1.759,1.186-2.403c0.794-0.644,1.831-0.965,3.107-0.965
			c1.367,0,2.463,0.321,3.287,0.965c0.815,0.644,1.226,1.477,1.226,2.505h-2.885c0-0.413-0.141-0.755-0.392-1.025
			c-0.261-0.261-0.683-0.402-1.247-0.402c-0.482,0-0.854,0.111-1.126,0.321c-0.261,0.222-0.392,0.503-0.392,0.836
			c0,0.321,0.15,0.572,0.452,0.776c0.302,0.192,0.815,0.372,1.528,0.512c0.713,0.141,1.318,0.302,1.81,0.482
			c1.519,0.563,2.283,1.519,2.283,2.897c0,0.986-0.422,1.78-1.267,2.382c-0.845,0.614-1.941,0.914-3.269,0.914
			c-0.905,0-1.71-0.162-2.412-0.482c-0.704-0.321-1.247-0.764-1.648-1.327c-0.392-0.563-0.593-1.166-0.593-1.821h2.724
			c0.03,0.512,0.222,0.905,0.572,1.177c0.351,0.272,0.824,0.413,1.417,0.413c0.554,0,0.965-0.102,1.247-0.312
			C332.919,83.034,333.06,82.753,333.06,82.411z"/>
	</g>
</g>
</svg>
