<?xml version="1.0" encoding="utf-8"?>
<!-- Generator: Adobe Illustrator 22.0.1, SVG Export Plug-In . SVG Version: 6.00 Build 0)  -->
<svg version="1.1" id="Layer_1" xmlns="http://www.w3.org/2000/svg" xmlns:xlink="http://www.w3.org/1999/xlink" x="0px" y="0px"
	 viewBox="0 0 225 50" style="enable-background:new 0 0 225 50;" xml:space="preserve">
<style type="text/css">
	.st0{fill:#99D500;}
	.st1{fill:#FFFFFF;}
	.st2{opacity:0.21;enable-background:new    ;}
</style>
<path class="st0" d="M211.101,0.35c-7.078,0-12.816,5.738-12.816,12.816s12.816,28.075,12.816,28.075s12.816-20.997,12.816-28.075
	S218.179,0.35,211.101,0.35z"/>
<circle class="st1" cx="211.101" cy="13.166" r="6.432"/>
<ellipse class="st2" cx="211.101" cy="47.338" rx="5.492" ry="1.662"/>
<g>
	<path class="st0" d="M211.338,13.251c0,0.425-0.07,0.795-0.211,1.111s-0.335,0.569-0.583,0.761l0.74,0.586l-0.683,0.58
		l-0.986-0.794c-0.093,0.013-0.185,0.019-0.277,0.019c-0.391,0-0.738-0.09-1.04-0.271c-0.302-0.181-0.537-0.439-0.707-0.775
		c-0.17-0.336-0.257-0.722-0.264-1.159v-0.243c0-0.451,0.083-0.848,0.247-1.191c0.165-0.343,0.4-0.607,0.706-0.794
		c0.305-0.187,0.656-0.28,1.051-0.28c0.389,0,0.734,0.093,1.039,0.277c0.305,0.185,0.542,0.448,0.71,0.789
		c0.17,0.341,0.255,0.732,0.257,1.173L211.338,13.251C211.337,13.251,211.338,13.251,211.338,13.251z M210.213,13.059
		c0-0.455-0.076-0.801-0.229-1.038c-0.152-0.236-0.37-0.355-0.653-0.355c-0.292,0-0.512,0.117-0.659,0.35
		c-0.147,0.233-0.221,0.575-0.223,1.024v0.211c0,0.452,0.074,0.798,0.223,1.038c0.15,0.241,0.371,0.36,0.665,0.36
		c0.281,0,0.497-0.118,0.647-0.356c0.15-0.236,0.227-0.578,0.229-1.023V13.059z"/>
</g>
<g>
	<path class="st0" d="M212.776,12.715h0.511c0.405,0,0.608-0.198,0.608-0.595c0-0.154-0.049-0.28-0.146-0.377
		c-0.096-0.098-0.232-0.146-0.408-0.146c-0.144,0-0.269,0.042-0.374,0.125c-0.106,0.083-0.159,0.188-0.159,0.312h-1.084
		c0-0.247,0.069-0.466,0.206-0.659c0.138-0.193,0.327-0.344,0.57-0.452c0.244-0.108,0.511-0.163,0.803-0.163
		c0.521,0,0.93,0.119,1.228,0.357s0.447,0.565,0.447,0.98c0,0.202-0.062,0.392-0.185,0.571s-0.303,0.324-0.539,0.436
		c0.249,0.09,0.444,0.227,0.585,0.41c0.142,0.183,0.213,0.41,0.213,0.68c0,0.418-0.161,0.752-0.482,1.003s-0.744,0.376-1.267,0.376
		c-0.307,0-0.591-0.059-0.854-0.175s-0.462-0.279-0.597-0.485c-0.135-0.207-0.202-0.442-0.202-0.706h1.09
		c0,0.144,0.058,0.268,0.174,0.373c0.115,0.105,0.258,0.158,0.427,0.158c0.191,0,0.343-0.053,0.457-0.159
		c0.113-0.106,0.17-0.242,0.17-0.407c0-0.236-0.059-0.403-0.177-0.501c-0.117-0.099-0.28-0.148-0.488-0.148h-0.527L212.776,12.715
		L212.776,12.715z"/>
</g>
</svg>
